<?xml version="1.0" encoding="UTF-8"?>
<svg id="LOGOS" xmlns="http://www.w3.org/2000/svg" xmlns:xlink="http://www.w3.org/1999/xlink" version="1.1" viewBox="0 0 115.83 60">
  <defs>
    <style>
      .cls-1 {
        clip-path: url(#clippath);
      }

      .cls-2 {
        fill: none;
      }

      .cls-2, .cls-3 {
        stroke-width: 0px;
      }

      .cls-3 {
        fill: gray;
      }
    </style>
    <clipPath id="clippath">
      <rect class="cls-2" x="3.43" y="1.23" width="109.98" height="57.42"/>
    </clipPath>
  </defs>
  <g class="cls-1">
    <g>
      <path class="cls-3" d="M56.1,38.44c-.05.3-.07.57-.14.83-.08.32-.3.53-.63.57-.26.03-.53.06-.79.01-.5-.09-.78-.45-.88-.93-.09-.44-.15-.89-.21-1.34-.02-.14-.07-.21-.19-.26-1.61-.75-3.09-1.71-4.41-2.9-.6-.54-1.15-1.12-1.58-1.81-.63-1.02-.47-1.93.48-2.66.79-.61,1.7-.99,2.64-1.29.9-.3,1.81-.56,2.76-.68.37-.05.38-.06.38-.45,0-1.19.14-2.37.34-3.54.06-.33.15-.65.26-.97.11-.32.34-.38.61-.18.38.28.58.69.73,1.12.34.95.42,1.95.46,2.95,0,.24,0,.47,0,.73.31,0,.59,0,.87,0,1.87-.02,3.68.29,5.44.93.81.29,1.49.76,1.94,1.52.91,1.54-.55,3.03-1.74,3.02-.33,0-.67-.11-1-.19-.08-.02-.19-.13-.19-.21,0-.07.09-.18.16-.23.23-.15.49-.27.71-.44.49-.39.44-.77-.14-.99-.52-.2-1.06-.35-1.6-.48-1.39-.33-2.8-.53-4.23-.57-.05,0-.11,0-.19,0,.05,2.16.09,4.32.14,6.52.81.09,1.6.21,2.4.25,1.38.07,2.77,0,4.13-.28,1.43-.29,2.77-.8,3.93-1.73,1.15-.92,1.69-2.13,1.7-3.6,0-.94-.34-1.79-.75-2.61-.99-1.93-2.49-3.42-4.21-4.7-1.95-1.46-4.09-2.58-6.37-3.45-2.12-.81-4.3-1.39-6.55-1.68-1.75-.22-3.5-.29-5.24-.05-.42.06-.83.18-1.24.28-.08.02-.16.07-.24.11,0,.02,0,.04,0,.06.14.03.27.06.41.08.18.03.36.04.54.09.1.03.21.09.29.16.23.21.18.5-.12.55-.37.07-.76.06-1.14.06-.17,0-.34-.06-.51-.12-.43-.14-.58-.4-.46-.84.24-.83.75-1.45,1.57-1.76.89-.34,1.83-.49,2.77-.62,2.46-.34,4.88-.07,7.27.53,3.28.82,6.36,2.11,9.19,3.95,2.15,1.4,4.09,3.04,5.62,5.13.64.88,1.17,1.82,1.54,2.84.58,1.64.48,3.26-.31,4.83-.89,1.76-2.27,2.96-4.06,3.72-2.49,1.06-5.09,1.4-7.77,1.11-.73-.08-1.46-.25-2.19-.38-.07-.01-.13-.03-.2-.04ZM53.43,30.12s-.05-.02-.07-.02c-.2.01-.4.03-.61.04-1.29.09-2.57.28-3.81.64-.38.11-.76.28-1.11.47-.26.14-.3.38-.15.63.11.19.25.37.41.53,1.26,1.31,2.79,2.21,4.43,2.95.29.13.6.23.9.34v-5.59Z"/>
      <path class="cls-3" d="M9.98,34.97c-.21-.77-.47-1.48-.6-2.2-.3-1.61-.36-3.24.1-4.84.45-1.58,1.35-2.87,2.71-3.81.61-.42,1.3-.67,2.05-.72,1.09-.07,1.92.49,2.29,1.52.41,1.14.47,2.31.34,3.49-.17,1.54-.75,2.91-1.69,4.13-.57.74-1.28,1.32-2.02,1.87-.17.13-.33.25-.51.39.42.83,1.03,1.4,1.97,1.55.81.13,1.55-.12,2.26-.45,1.29-.6,2.2-1.6,2.9-2.81.78-1.36,1.24-2.83,1.55-4.36.41-2,.49-4.02.12-6.04-.39-2.14-1.16-4.12-2.54-5.83-.3-.37-.65-.69-.98-1.03-.08-.09-.18-.17-.22-.27-.05-.1-.09-.26-.04-.32.07-.09.24-.16.34-.14.23.05.47.14.68.26,1.3.74,2.36,1.73,3.15,3,.72,1.16,1.4,2.34,1.82,3.64.46,1.4.67,2.84.71,4.3.04,1.94-.22,3.83-.9,5.65-.52,1.42-1.24,2.75-2.26,3.86-1.3,1.42-2.82,2.57-4.74,3.04-2.2.53-4.56-.48-5.68-2.43-.07-.12-.14-.24-.2-.33-.4.17-.77.35-1.16.48-1.87.59-3.77-.09-4.88-1.7-.66-.95-.96-2.01-1.06-3.13-.22-2.47.32-4.82,1.27-7.08.88-2.09,2.08-3.97,3.74-5.53.69-.64,1.45-1.18,2.32-1.56.13-.06.29-.11.42-.09.14.02.32.1.4.21.05.08.01.28-.05.37-.18.25-.4.49-.6.72-1.2,1.37-2.3,2.81-3.13,4.44-.96,1.88-1.53,3.88-1.77,5.97-.14,1.22-.12,2.43.14,3.62.15.71.43,1.37.94,1.91.52.54,1.15.76,1.89.54.33-.1.65-.23.95-.33ZM12.19,32.93c.06-.05.09-.07.11-.1.16-.19.34-.37.49-.57.94-1.29,1.44-2.75,1.69-4.32.13-.8.11-1.6,0-2.39-.02-.16-.08-.31-.15-.45-.12-.24-.25-.48-.57-.49-.3,0-.44.23-.55.45-.2.43-.39.87-.53,1.32-.55,1.79-.68,3.63-.6,5.49.01.35.08.69.12,1.07Z"/>
      <path class="cls-3" d="M105.53,34.53c.39-.53.75-1.02,1.11-1.52.9-1.24,1.95-2.34,3.09-3.35.32-.28.7-.51,1.08-.71.65-.34,1.22-.2,1.72.34.51.57.76,1.26.84,1.99.28,2.6-.81,4.54-2.96,5.95-1.02.67-2.12,1.09-3.35,1.11-.46,0-.46.01-.61.46-.63,1.91-1.07,3.87-1.47,5.85-.11.54-.23,1.08-.35,1.62-.08.35-.34.47-.66.31-.46-.23-.9-.49-1.15-.97-.21-.39-.26-.81-.27-1.24-.02-.94.16-1.85.32-2.76.28-1.66.84-3.24,1.44-4.8.04-.11.07-.26.02-.35-.63-1.47-.54-2.94.03-4.4.54-1.37,1.35-2.58,2.31-3.69.16-.19.36-.36.56-.5.26-.18.54-.05.51.26-.03.37-.09.75-.24,1.09-.22.52-.5,1.02-.78,1.5-.47.8-.89,1.61-1.12,2.51-.1.41-.2.83-.08,1.3ZM107.87,35.8c.24-.02.43-.01.61-.05,1.76-.41,2.99-1.42,3.49-3.2.14-.51.16-1.04-.03-1.55-.11-.31-.3-.36-.53-.12-.41.43-.83.85-1.18,1.33-.72,1.01-1.4,2.05-2.09,3.09-.09.14-.17.3-.28.5Z"/>
      <path class="cls-3" d="M81.57,27.67c1.38.03,2.45.1,3.47.5.17.07.33.15.49.24.16.09.2.24.16.41-.12.46-.45.74-.9.81-.68.11-1.37.16-2.06.21-1.16.08-2.31.12-3.47.22-.49.04-.97.18-1.45.29-.12.03-.22.15-.33.22.12.07.22.2.35.22.54.09,1.09.15,1.64.23,1.2.17,2.41.33,3.61.5.23.03.45.11.66.19,1.02.35,1.52,1.11,1.68,2.13.22,1.49-.47,2.75-1.87,3.31-2.24.9-4.36.62-6.33-.77-.31-.22-.57-.52-.79-.83-.56-.82-.29-1.8.59-2.28.64-.34,1.33-.44,2.03-.4,1.11.06,2.2.25,3.23.71.11.05.23.1.33.17.19.13.22.33.06.5-.1.11-.23.2-.37.27-.85.38-1.7.51-2.59.12-.53-.23-1.08-.42-1.64-.56-.23-.06-.53.02-.76.12-.41.18-.44.6-.08.86.39.29.86.41,1.34.44,1.28.08,2.54-.03,3.75-.5.4-.16.78-.38,1.14-.6.3-.18.41-.49.27-.71-.1-.15-.25-.28-.41-.37-.47-.28-1-.41-1.53-.48-1.1-.15-2.2-.26-3.31-.38-.54-.06-1.09-.1-1.62-.2-1.04-.19-1.43-.85-1.16-1.88.21-.8.75-1.32,1.45-1.7.83-.45,1.74-.69,2.67-.82.68-.1,1.36-.14,1.74-.18Z"/>
      <path class="cls-3" d="M45.21,47.67h1.81v1.07c.1-.09.16-.15.21-.2,1.02-.94,2.2-1.26,3.54-.87.48.14.8.46,1.02.9.03.07.07.13.1.2.27-.22.51-.44.78-.63.77-.53,1.63-.73,2.55-.59,1.03.16,1.67.89,1.75,1.97.02.29.02.59.02.88,0,1.65,0,3.3,0,4.95,0,.07,0,.14,0,.22h-1.82c0-.08-.01-.16-.01-.24,0-1.61,0-3.21,0-4.82,0-.24-.01-.48-.06-.71-.09-.44-.36-.67-.81-.71-.48-.05-.92.04-1.32.3-.3.19-.58.41-.85.64-.06.05-.09.18-.09.27,0,1.67,0,3.34,0,5.01,0,.08,0,.16,0,.26h-1.82c0-.08-.01-.16-.01-.24,0-1.61,0-3.23,0-4.84,0-.28-.04-.57-.11-.85-.06-.28-.28-.45-.55-.51-.52-.12-1.02-.04-1.47.23-.32.19-.62.43-.91.67-.06.05-.1.18-.1.27,0,1.67,0,3.34,0,5.01,0,.08,0,.16,0,.26h-1.82v-7.9Z"/>
      <path class="cls-3" d="M31.17,36.09c-.03.37-.04.74-.1,1.1-.08.43-.36.55-.73.31-.71-.46-1.1-1.11-1.15-1.96-.02-.31-.07-.61-.09-.92,0-.14-.07-.17-.2-.17-.8.03-1.59.06-2.39.07-.13,0-.19.05-.22.17-.28.86-.56,1.72-.84,2.58-.01.04-.02.08-.04.12-.22.68-1.03.88-1.55.37-.41-.41-.52-.95-.49-1.49.02-.43.15-.85.26-1.26.08-.32.21-.62.33-.93.11-.29.08-.54-.1-.79-.12-.16-.23-.33-.33-.51-.15-.25-.04-.45.26-.46.2,0,.39-.03.59-.03.13,0,.19-.06.25-.17.5-1.03.97-2.07,1.54-3.07.46-.8,1.04-1.53,1.56-2.3.09-.14.16-.31.21-.47.07-.28.21-.48.52-.53.3-.06.58.02.73.28.19.34.33.7.47,1.07.49,1.31.72,2.68.97,4.04.3,1.63.46,3.28.56,4.94ZM27.22,32.22c.54-.03,1.08-.06,1.61-.1.04-.62-.31-2.28-.52-2.55-.31.47-1.08,2.3-1.09,2.64Z"/>
      <path class="cls-3" d="M99,31.23c.63,0,1.23,0,1.84,0,.22,0,.43,0,.65,0,.41.02.64.23.69.64.02.15.03.31.03.46-.01.38-.17.56-.54.58-.54.03-1.07.03-1.61.05-.5.02-1,.04-1.51.08-.08,0-.19.08-.21.14-.2.56-.39,1.13-.6,1.76.32-.03.59-.04.85-.08.92-.14,1.83-.3,2.75-.44.68-.1,1.29.57,1.13,1.24-.04.16-.17.33-.3.44-1.2.95-2.54,1.65-4.08,1.81-1.29.13-2.26-.59-2.53-1.95-.14-.67-.03-1.33.24-1.97,0,0,0-.01,0-.02.31-.52.36-1.05.21-1.64-.14-.54.05-.82.6-.9.25-.04.38-.17.46-.39.15-.41.3-.82.45-1.24,0-.03.01-.05.02-.09-.27-.08-.53-.15-.78-.23-.34-.11-.64-.27-.83-.59-.23-.38-.14-.65.29-.76.56-.13,1.13-.25,1.7-.33,1.05-.14,2.11-.25,3.16-.36.32-.03.66-.05.98,0,.85.11,1.38.65,1.74,1.39.18.37.06.63-.33.78-.6.22-1.23.26-1.86.28-.68.03-1.35.03-2.03.03-.16,0-.22.05-.26.2-.1.37-.21.73-.33,1.12Z"/>
      <path class="cls-3" d="M88.48,31.62c-.03.25-.07.5-.08.76-.05,1.12-.08,2.25-.14,3.37-.02.42-.09.83-.16,1.24-.06.33-.21.63-.59.67-.39.04-.71-.11-.93-.44-.29-.43-.38-.93-.41-1.43-.09-1.51.12-2.98.49-4.44.19-.74.45-1.47.69-2.19.05-.14.13-.28.22-.4.24-.33.58-.4.91-.15.2.15.38.35.52.56.75,1.1,1.5,2.21,2.24,3.31.3.44.58.89.87,1.33.04.06.07.13.12.17.07.06.16.1.24.14.02-.08.06-.17.06-.25-.02-1.46-.3-2.88-.67-4.29-.22-.85-.45-1.7-.66-2.55-.04-.14-.04-.29-.03-.44.02-.26.23-.42.47-.32.22.09.44.22.61.38.66.67,1.17,1.46,1.54,2.33.62,1.46.96,2.97.89,4.56-.03.88-.16,1.75-.65,2.52-.32.51-.74.86-1.36.95-.37.05-.69-.04-.96-.31-.52-.53-.92-1.16-1.28-1.8-.57-1.01-1.1-2.04-1.66-3.05-.06-.1-.14-.19-.21-.28-.03,0-.06.02-.08.02Z"/>
      <path class="cls-3" d="M39.3,30.26c-.47-.21-.91-.4-1.34-.62-.57-.3-1.06-.7-1.4-1.26-.41-.67-.35-1.61.18-2.21.05-.06.15-.13.2-.11.07.02.12.12.17.18.02.02.02.05.02.08-.01.58.37.87.82,1.11.68.36,1.4.62,2.15.8.22.05.33-.01.43-.2.44-.77,1.12-1.27,1.96-1.51,1.13-.32,2.17.24,2.42,1.53.24,1.25-.51,2.32-1.84,2.64-.51.12-1.02.11-1.59.07-.06.31-.11.63-.17.95-.31,1.7-.44,3.41-.38,5.13.03.76.11,1.52.15,2.28.04.66-.42.99-1.04.75-.68-.26-1.1-.8-1.38-1.44-.29-.65-.37-1.35-.38-2.05-.04-1.96.27-3.87.89-5.72.04-.13.08-.26.12-.4ZM42.18,28.45c.26-.03.51-.03.75-.09.25-.06.49-.15.71-.28.1-.06.18-.23.18-.36,0-.17-.15-.23-.3-.27-.53-.14-1.22.35-1.34,1Z"/>
      <path class="cls-3" d="M33.38,51.72c.6.14,1.17.27,1.79.41-.15.41-.27.82-.45,1.2-.82,1.77-2.27,2.48-4.11,2.46-.86-.01-1.69-.2-2.44-.65-.84-.51-1.44-1.23-1.78-2.13-.73-1.92-.78-3.87-.02-5.79.71-1.78,2.08-2.73,4-2.86.81-.06,1.59.04,2.34.36.95.41,1.57,1.14,1.96,2.08.13.31.22.63.34.96-.61.17-1.19.34-1.79.51-.03-.08-.05-.16-.08-.24-.18-.38-.32-.78-.55-1.12-.46-.67-1.16-.86-1.93-.84-1.3.03-2.21.68-2.62,1.96-.47,1.45-.45,2.92.12,4.35.7,1.77,2.51,2,3.74,1.49.72-.3,1.07-.93,1.32-1.62.06-.16.11-.33.17-.52Z"/>
      <path class="cls-3" d="M60.52,54.71v3.85h-1.82v-10.88h1.82v.98c.24-.2.44-.4.67-.57,1.15-.84,3.11-.85,4.13.49.44.57.67,1.22.77,1.92.15,1.08.14,2.15-.26,3.18-.46,1.19-1.34,1.86-2.61,1.99-1.03.11-1.92-.18-2.7-.97ZM60.53,51.67h0c0,.47,0,.95,0,1.42,0,.09.04.21.1.28.44.51,1,.82,1.68.86.91.06,1.59-.35,1.84-1.19.27-.91.28-1.83-.01-2.74-.27-.84-.93-1.27-1.81-1.21-.68.04-1.23.38-1.69.87-.07.07-.11.19-.11.29-.01.47,0,.95,0,1.42Z"/>
      <path class="cls-3" d="M72.22,25.87c-.06.11-.12.22-.18.32-.06.1-.11.19-.19.28-.23.26-.5.27-.74.02-.31-.31-.43-.7-.42-1.12.01-.28-.05-.52-.21-.75-.72-1.01-.7-2.07-.03-3.05,1.26-1.87,3.03-2.89,5.31-2.93.75-.02,1.4.27,1.9.85.06.07.18.12.29.14.88.15,1.58.86,1.66,1.71.06.66-.16,1.27-.57,1.78-1.23,1.51-2.76,2.58-4.71,2.96-.71.14-1.4.04-2.11-.19ZM73.1,24.26c.11.03.17.05.24.05,1.54.11,2.93-.27,4.13-1.26.35-.29.66-.62.77-1.09.17-.68-.33-1.23-1.01-1.08-.36.08-.73.21-1.05.4-.9.53-1.66,1.22-2.34,2.01-.26.3-.48.63-.75.97ZM73.99,20.71s-.02-.03-.02-.03c-.02,0-.04,0-.06,0-1.11.18-1.91.8-2.48,1.74-.21.34-.23.72.01,1.11.7-1.1,1.58-2,2.55-2.82Z"/>
      <path class="cls-3" d="M56.2,1.23h1.83v4.16c.07-.06.11-.09.15-.12.92-.84,2-1.2,3.24-1.03.99.14,1.63.82,1.76,1.83.02.18.04.36.04.54,0,1.83,0,3.66,0,5.49v.14h-1.85v-.24c0-1.59,0-3.19,0-4.78,0-.24-.02-.48-.07-.71-.08-.4-.34-.64-.75-.72-.65-.12-1.23.07-1.77.41-.75.48-.74.48-.74,1.36v4.67h-1.84V1.23Z"/>
      <path class="cls-3" d="M72.14,50.39c.09-.74-.19-1.21-.79-1.32-.21-.04-.43-.05-.65-.04-.84.04-1.57.37-2.24.85-.09.06-.18.13-.28.21-.3-.38-.59-.75-.91-1.18.38-.25.74-.53,1.14-.74,1.11-.59,2.31-.79,3.55-.59,1.16.19,1.81.87,1.95,2.05.03.27.05.54.05.81,0,.8,0,1.61,0,2.41,0,.9-.06,1.82.21,2.72-.6,0-1.17,0-1.75,0-.04,0-.11-.08-.12-.13-.07-.27-.12-.54-.18-.84-.06.05-.13.11-.2.17-1,.85-2.16,1.08-3.41.82-1.09-.23-1.66-1.18-1.49-2.29.15-.99.77-1.6,1.62-2.02.99-.5,2.06-.7,3.14-.85.12-.02.24-.03.36-.05ZM72.16,51.6c-.59.13-1.15.23-1.7.37-.49.12-.96.3-1.33.66-.3.29-.39.64-.26,1.03.12.37.41.55.79.59.93.1,1.74-.2,2.44-.82.04-.04.07-.11.07-.16,0-.54,0-1.07,0-1.68Z"/>
      <path class="cls-3" d="M71.7,8.91h-5.37c-.04.88.46,1.8,1.51,1.99.99.18,1.89,0,2.64-.71.05-.05.1-.09.16-.14.31.33.61.64.92.98-.26.31-.6.6-.99.81-1.4.74-2.83.83-4.25.11-.83-.42-1.35-1.12-1.61-2-.34-1.11-.36-2.23.04-3.33.54-1.52,1.92-2.45,3.54-2.42,1.73.02,2.93,1.03,3.28,2.75.07.35.11.7.14,1.06.02.29,0,.58,0,.91ZM66.36,7.52h3.65c-.03-.97-.54-1.81-1.75-1.84-1.02-.02-1.86.76-1.9,1.84Z"/>
      <path class="cls-3" d="M36.16,51.63c0-.8.14-1.57.53-2.28.49-.89,1.25-1.45,2.23-1.7,1-.25,1.98-.19,2.92.26.95.45,1.55,1.21,1.84,2.22.3,1.05.3,2.1-.05,3.13-.5,1.45-1.56,2.24-3.06,2.44-.94.13-1.84-.03-2.66-.53-1.01-.62-1.52-1.56-1.69-2.71-.04-.28-.05-.56-.07-.83ZM42.08,51.65c-.06-.42-.09-.73-.16-1.03-.22-.98-.89-1.53-1.86-1.54-.98-.02-1.66.5-1.91,1.47-.2.77-.18,1.54.04,2.29.23.77.74,1.25,1.56,1.34.94.1,1.77-.26,2.09-1.27.14-.44.17-.91.24-1.26Z"/>
      <path class="cls-3" d="M87.24,53.45c.04-.11.07-.18.1-.25.63-1.78,1.25-3.56,1.87-5.34.06-.16.13-.21.3-.2.52.01,1.04,0,1.59,0-.03.08-.04.14-.07.2-1.09,2.85-2.18,5.7-3.29,8.54-.14.37-.32.73-.52,1.07-.41.7-1.04,1.08-1.84,1.15-.77.07-1.53,0-2.3-.22.14-.49.27-.96.41-1.45.29.04.57.09.85.12.22.02.45.03.67.02.47-.02.8-.26.99-.69.1-.22.2-.45.27-.68.03-.09,0-.2-.03-.3-.95-2.51-1.91-5.01-2.87-7.52-.03-.07-.05-.14-.09-.25.15,0,.28,0,.41,0,.43,0,.87,0,1.3,0,.15,0,.22.05.26.19.62,1.77,1.25,3.54,1.88,5.31.03.08.06.16.11.29Z"/>
      <path class="cls-3" d="M82.64,55.57h-1.84c0-.09,0-.18,0-.26,0-1.61,0-3.21,0-4.82,0-.11,0-.22,0-.34-.04-.75-.44-1.13-1.2-1.13-.85,0-1.5.44-2.09.99-.05.04-.05.15-.05.23,0,1.68,0,3.37,0,5.05v.27h-1.82v-7.89h1.81v1.24c.1-.1.16-.15.21-.21.75-.77,1.64-1.23,2.73-1.2.37.01.75.09,1.1.23.68.28,1.01.85,1.11,1.56.03.19.04.38.04.56,0,1.84,0,3.67,0,5.51,0,.06,0,.11,0,.19Z"/>
      <path class="cls-3" d="M46.42,2.96v-1.72h8.65v1.71h-3.38v9.29h-1.87V2.96h-3.4Z"/>
      <path class="cls-3" d="M31.73,33.68c.08-2.07.46-4.09,1.28-6,.21-.49.46-.96.86-1.33.37-.34.71-.26.89.21.19.49.12.98.02,1.47-.3,1.44-.63,2.88-.91,4.32-.09.48-.11.98-.11,1.48,0,.38.15.45.5.31.69-.29,1.38-.58,2.07-.85.2-.08.42-.12.63-.15.28-.03.45.09.53.36.12.4.04.77-.15,1.13-.51.97-1.25,1.66-2.28,2.06-.5.2-1,.35-1.55.26-.54-.08-.94-.36-1.23-.82-.39-.62-.53-1.32-.55-2.04,0-.14,0-.28,0-.42Z"/>
      <path class="cls-3" d="M74.73,34.24c0,.75,0,1.49,0,2.24,0,.03,0,.07,0,.1-.05.67-.27.97-.77,1.02-.8.08-1.32-.18-1.45-.84-.12-.61-.17-1.23-.19-1.85-.06-1.61-.02-3.21.19-4.81.07-.53.18-1.06.29-1.58.03-.13.08-.27.14-.39.2-.39.43-.44.79-.18.33.24.47.6.53.97.12.79.23,1.59.29,2.39.08.97.11,1.95.16,2.93.01,0,.02,0,.03,0Z"/>
    </g>
  </g>
</svg>