<?xml version="1.0" encoding="UTF-8"?>
<svg id="LOGOS" xmlns="http://www.w3.org/2000/svg" xmlns:xlink="http://www.w3.org/1999/xlink" version="1.1" viewBox="0 0 125.49 60">
  <defs>
    <style>
      .cls-1 {
        clip-path: url(#clippath);
      }

      .cls-2 {
        fill: none;
      }

      .cls-2, .cls-3 {
        stroke-width: 0px;
      }

      .cls-3 {
        fill: gray;
      }
    </style>
    <clipPath id="clippath">
      <rect class="cls-2" x="3.41" y="1.26" width="118.7" height="31.6"/>
    </clipPath>
  </defs>
  <g>
    <path class="cls-3" d="M38.84,58.18v-10.86l-4.67,8.33h-1.01l-4.69-8.33v10.86h-1.78v-14.05h1.88l5.09,9.12,5.11-9.12h1.86v14.05h-1.78Z"/>
    <path class="cls-3" d="M48.12,58.38c-.78,0-1.49-.14-2.14-.43-.65-.28-1.2-.67-1.66-1.16-.46-.49-.82-1.06-1.08-1.71-.26-.65-.39-1.34-.39-2.07s.13-1.41.39-2.06c.26-.65.62-1.21,1.09-1.7.47-.49,1.03-.87,1.67-1.16.65-.28,1.36-.43,2.14-.43s1.49.15,2.13.44c.64.29,1.18.68,1.63,1.16.45.48.79,1.04,1.04,1.68.24.64.37,1.3.37,1.99,0,.15,0,.28,0,.4,0,.12-.02.21-.03.28h-8.57c.04.51.16.98.36,1.4.2.42.46.78.77,1.09.32.3.68.54,1.08.71.4.17.83.26,1.28.26.32,0,.63-.04.93-.13.3-.09.59-.2.85-.35.26-.14.5-.32.7-.53.2-.21.36-.45.46-.71l1.5.42c-.17.38-.41.73-.7,1.05-.3.32-.64.59-1.03.82-.39.23-.82.41-1.3.54-.47.13-.97.2-1.48.2ZM51.66,52.32c-.04-.49-.16-.94-.37-1.36-.2-.42-.46-.77-.77-1.06-.31-.29-.67-.52-1.08-.68-.41-.16-.84-.25-1.31-.25s-.9.08-1.31.25c-.41.17-.77.4-1.08.69-.31.3-.56.65-.75,1.06-.19.41-.31.86-.35,1.35h7Z"/>
    <path class="cls-3" d="M70.81,58.18h-1.74v-5.78c0-1.08-.18-1.88-.52-2.39-.35-.51-.87-.77-1.55-.77s-1.35.25-1.91.76c-.56.51-.96,1.16-1.2,1.97v6.21h-1.74v-5.78c0-1.11-.17-1.91-.51-2.41-.34-.5-.86-.75-1.54-.75s-1.33.25-1.9.74c-.57.49-.97,1.15-1.21,1.97v6.23h-1.74v-10.33h1.58v2.22c.42-.77.97-1.36,1.64-1.77.67-.42,1.43-.62,2.28-.62s1.56.23,2.07.7c.51.47.82,1.07.94,1.81.92-1.68,2.24-2.51,3.94-2.51.59,0,1.09.11,1.49.33.4.22.72.52.96.91.24.39.41.85.51,1.38.11.53.16,1.1.16,1.72v6.17Z"/>
    <path class="cls-3" d="M78.83,58.38c-.8,0-1.54-.2-2.2-.59-.66-.4-1.18-.91-1.56-1.54v1.94h-1.54v-14.45h1.74v6.17c.44-.67.97-1.21,1.6-1.62.63-.41,1.37-.61,2.22-.61.71,0,1.35.15,1.92.45.57.3,1.05.7,1.45,1.2.4.49.71,1.07.93,1.72.22.65.33,1.32.33,2.01,0,.73-.13,1.41-.38,2.06-.25.65-.59,1.21-1.03,1.69-.44.48-.95.86-1.55,1.15-.6.28-1.24.43-1.93.43ZM78.39,56.88c.51,0,.99-.11,1.42-.32.44-.21.81-.49,1.13-.85.32-.36.56-.76.73-1.22.17-.46.26-.93.26-1.43s-.08-.99-.25-1.45-.4-.88-.69-1.24c-.3-.36-.65-.64-1.07-.86-.42-.22-.87-.33-1.38-.33-.37,0-.72.07-1.05.2-.33.13-.64.31-.92.52-.28.22-.53.47-.75.76-.22.29-.41.6-.56.93v2.99c.07.33.21.63.43.91.22.28.47.52.77.72.3.2.61.37.95.48.34.12.66.18.98.18Z"/>
    <path class="cls-3" d="M90.42,58.38c-.78,0-1.49-.14-2.14-.43-.65-.28-1.2-.67-1.66-1.16-.46-.49-.82-1.06-1.08-1.71-.26-.65-.39-1.34-.39-2.07s.13-1.41.39-2.06c.26-.65.62-1.21,1.09-1.7.47-.49,1.03-.87,1.67-1.16.65-.28,1.36-.43,2.14-.43s1.49.15,2.13.44c.64.29,1.18.68,1.63,1.16.45.48.79,1.04,1.04,1.68.24.64.37,1.3.37,1.99,0,.15,0,.28,0,.4,0,.12-.02.21-.03.28h-8.57c.04.51.16.98.36,1.4.2.42.46.78.77,1.09.32.3.68.54,1.08.71.4.17.83.26,1.28.26.32,0,.63-.04.93-.13.3-.09.59-.2.85-.35.26-.14.5-.32.7-.53.2-.21.36-.45.47-.71l1.5.42c-.17.38-.41.73-.7,1.05-.3.32-.64.59-1.03.82-.39.23-.82.41-1.3.54-.48.13-.97.2-1.48.2ZM93.96,52.32c-.04-.49-.16-.94-.37-1.36-.2-.42-.46-.77-.77-1.06-.31-.29-.67-.52-1.08-.68-.41-.16-.84-.25-1.31-.25s-.9.08-1.31.25c-.41.17-.77.4-1.08.69-.31.3-.56.65-.75,1.06-.19.41-.31.86-.35,1.35h7Z"/>
    <path class="cls-3" d="M103.01,49.38c-.87.03-1.64.25-2.31.67-.67.42-1.14,1.01-1.41,1.76v6.37h-1.74v-10.33h1.62v2.39c.36-.71.82-1.29,1.4-1.73.58-.44,1.2-.69,1.86-.74h.34c.09,0,.17,0,.24.02v1.58Z"/>
  </g>
  <g class="cls-1">
    <path class="cls-3" d="M95.82,19.5c-.13-.69-.31-1.37-.56-2.03-.5-1.33-1.24-2.51-2.2-3.51-.96-1-2.14-1.81-3.5-2.4-1.37-.59-2.93-.89-4.64-.89s-3.29.3-4.68.89c-1.39.59-2.59,1.41-3.56,2.42-.97,1.02-1.73,2.21-2.24,3.54-.51,1.33-.77,2.77-.77,4.28s.27,2.86.79,4.18c.53,1.32,1.29,2.5,2.26,3.5.97,1,2.17,1.8,3.54,2.38,1.38.58,2.93.87,4.62.87,2.36,0,4.43-.53,6.14-1.57,1.72-1.04,2.99-2.4,3.78-4.04l.26-.54-4.89-1.36-.21.27c-1.2,1.57-3.03,2.47-5,2.47-2.67,0-5.01-1.67-5.91-4.13h16.74l.09-.38c.06-.24.1-.53.11-.88.01-.32.02-.66.02-.99,0-.71-.06-1.42-.19-2.11M84.96,15.4c2.41,0,4.6,1.38,5.65,3.51h-11.29c1.05-2.13,3.24-3.51,5.65-3.51"/>
    <path class="cls-3" d="M48.03,19.5c-.13-.69-.31-1.37-.56-2.03-.5-1.32-1.24-2.51-2.2-3.51-.96-1-2.14-1.81-3.5-2.4-1.37-.59-2.93-.89-4.65-.89s-3.29.3-4.68.89c-1.39.59-2.59,1.41-3.56,2.42-.97,1.02-1.73,2.21-2.24,3.54-.51,1.33-.77,2.77-.77,4.28s.27,2.86.79,4.18c.53,1.32,1.29,2.5,2.26,3.5.97,1,2.17,1.8,3.54,2.38,1.38.58,2.93.87,4.62.87,2.36,0,4.43-.53,6.14-1.57,1.72-1.04,2.99-2.4,3.78-4.04l.26-.54-4.89-1.36-.21.27c-1.2,1.57-3.03,2.47-5,2.47-2.67,0-5.01-1.67-5.91-4.13h16.74l.1-.38c.06-.24.1-.53.11-.88.01-.32.02-.66.02-.99,0-.71-.06-1.42-.19-2.11M31.52,18.91c1.05-2.13,3.24-3.51,5.65-3.51s4.6,1.38,5.65,3.51h-11.29Z"/>
    <polygon class="cls-3" points="4.82 27.31 4.82 27.31 4.82 27.31 4.82 27.31"/>
    <path class="cls-3" d="M4.74,27.98h0s0-.02,0-.02c0,0,0,.01.01.02"/>
    <polygon class="cls-3" points="4.82 27.45 4.82 27.45 4.82 27.45 4.82 27.45"/>
    <polygon class="cls-3" points="4.82 27.31 4.82 27.31 4.82 27.31 4.82 27.31"/>
    <polygon class="cls-3" points="4.82 27.31 4.82 27.31 4.82 27.31 4.82 27.31"/>
    <path class="cls-3" d="M4.82,27.31h0s0,0,0,0h0ZM4.82,27.45h0s0,0,0,0h0ZM4.73,27.96v.02s.01,0,.01,0c0,0-.01-.01-.01-.02"/>
    <path class="cls-3" d="M18,15.42l-4.31-1.8c-2.26-.92-4.39-1.79-4.39-4.01,0-2.08,1.87-3.42,4.78-3.42.83,0,1.64.1,2.39.31l.06.03h.04c.07.02.14.05.2.07h.03s.04.03.06.03l.17.08h0s.05.02.08.04c.04.02.07.03.12.06.12.06.23.11.33.17l.19.11s.08.05.13.08c.06.04.12.08.18.12.04.03.08.06.13.09.19.14.38.28.55.44.25.22.49.48.72.76l.23.27.32-.11,4.57-1.22-.28-.55c-.79-1.58-2.07-2.9-3.8-3.9-1.27-.74-2.74-1.22-4.37-1.41-.68-.13-1.37-.19-2.04-.19-2.8,0-5.36.83-7.21,2.34-1.9,1.54-2.94,3.69-2.94,6.05,0,3.65,2.13,6.3,6.5,8.1l4.28,1.82c2.61,1.1,4.5,1.89,4.5,4.34s-2.09,3.9-5.45,3.9c-.26,0-.51,0-.74-.02-.62-.05-1.23-.2-1.81-.43l-.08-.03s-.05-.02-.08-.03l-.1-.04h0s-.05-.02-.07-.03h-.03s-.06-.04-.1-.06c-.11-.05-.21-.11-.34-.18-.02-.01-.04-.02-.06-.04-.03-.02-.05-.03-.08-.05l-.03-.02s-.09-.06-.14-.09c-.06-.04-.12-.08-.18-.12-.04-.03-.08-.05-.11-.08h-.01c-.19-.15-.37-.3-.55-.45-.25-.23-.49-.49-.72-.77l-.22-.28-.32.11-4.57,1.24.27.55c.19.38.4.74.64,1.09l.07.12.11.13c.76,1.02,1.75,1.89,2.97,2.61.95.56,2.02.98,3.17,1.23l.05.03h.05c.9.23,1.86.35,2.93.35,3.19,0,5.93-.89,7.93-2.56,1.93-1.62,3-3.88,3-6.36,0-4.97-3.34-7.03-6.61-8.38M4.74,27.98v-.02s0,.01,0,.02h0ZM4.82,27.45h0s0,0,0,0h0ZM4.82,27.31h0s0,0,0,0h0Z"/>
    <polygon class="cls-3" points="113.63 32.84 107.97 32.84 103.25 25.71 98.5 32.84 92.82 32.84 100.44 21.95 92.58 10.76 98.26 10.76 113.63 32.84"/>
    <path class="cls-3" d="M66.54,1.26v11.1c-1.77-1.2-3.82-1.82-5.97-1.82-6.01,0-10.9,5.01-10.9,11.16s4.89,11.16,10.9,11.16c2.15,0,4.2-.63,5.97-1.82v1.73h5.43V1.26h-5.43ZM60.57,15.55c3.29,0,5.97,2.75,5.97,6.14s-2.68,6.14-5.97,6.14-5.97-2.75-5.97-6.14,2.68-6.14,5.97-6.14"/>
    <path class="cls-3" d="M112.1,1.58c-5.53,0-10.01,4.48-10.01,10.01,0,2.27.76,4.37,2.04,6.05l4.77-7.16h5.32l-6.93,9.9c1.43.78,3.07,1.23,4.81,1.23,5.53,0,10.01-4.48,10.01-10.01s-4.48-10.01-10.01-10.01"/>
  </g>
</svg>