<?xml version="1.0" encoding="UTF-8"?>
<svg id="CLIENTES" xmlns="http://www.w3.org/2000/svg" version="1.1" viewBox="0 0 184.26 40">
  <defs>
    <style>
      .cls-1 {
        fill: #2e3192;
        stroke-width: 0px;
      }
    </style>
  </defs>
  <path class="cls-1" d="M34.3,4.31l.14-.26s.2-.06.6-.05l.94-.03s.4-.01.35.39l-3.16,13.35s-.08.29-.62.22l-.91.02s-.37-.02-.36-.44c0,0,.07-1.63-.02-2.4,0,0-.12-4.74-4.36-7.18,0,0-4.1-2.48-8.18,1.68,0,0-4.18,4.27-5.67,10.94,0,0-1.87,7.14,1.52,12.54,0,0,2.71,3.86,7.3,1.66,0,0,4.56-1.4,7.18-8.8,0,0,.13-.49.26-.96,0,0-.01-.42.42-.44l1.44-.05s.42-.08.39.47l-3.29,13.63s-.05.29-.45.25l-1.78.05s-.16,0-.12-.37c0,0,.13-.96.46-1.59,0,0,.39-.91.05-1.87,0,0-.44-.71-1.19.25l-.78.8s-2.99,3.98-9.57,3.83c0,0-6.46.41-10.5-3.68,0,0-3.66-3.19-4.34-9.56,0,0-.37-4.38,1.06-9.01,0,0,1.57-6.78,9.06-11.09,0,0,5.67-3.58,14.54-2.65,0,0,3.73.93,5.1,2.16,0,0,.74.7,1.96.63,0,0,.88.11,1.86-1.18,0,0,.48-.59.67-1.31Z"/>
  <path class="cls-1" d="M62.25,29.09s-1.08-.29-1.54,1.12c0,0-.42,1.38-1.7,1.26,0,0-1.03-.33-.57-1.67l2.02-8.46s1.37-4.54-2.16-6.49c0,0-2.59-2-9.95-2.02,0,0-6.85-.02-9.77,3.08,0,0-1.51,1.42-.83,3.29,0,0,.22,1.34,2.9,1.6,0,0,1.78.04,2.47-1.3,0,0,.64-.93,1.37-1.55,0,0,.64-.77,1.58-1.33,0,0,2.11-1.6,3.81-.81,0,0,1.51.74.74,2.9,0,0-1.05,2.03-3.02,2.88,0,0-1.94.52-3.19.7h-2s-3.96-.56-6.46,1.37c0,0-3.96,2.63-3.97,8.62,0,0,.4,5.47,5.4,6.57,0,0,4.65.71,7.37-.76,0,0,1.15-.56,1.92-1.31,0,0,.84,1.23,2.55,1.5,0,0,1.15.22,3.66.07,0,0,3.59-.4,5.22-1.69,0,0,2.94-1.69,4.37-4.98,0,0,1.29-2.02-.24-2.59ZM46.75,33.33s-.55,1.15-1.35,1.16c-.07,0-.12,0-.17,0,.1.04.16.05.16.05,0,0-.63-.04-.16-.05-.37-.15-1.28-.74-1.24-2.87,0,0,.2-3.33,1.92-5.62,0,0,1.21-1.71,2.11-1.59,0,0,.54-.04.56,1.28l-1.83,7.63Z"/>
  <path class="cls-1" d="M68.18,17.1l-3.76,15.88s-.18,1.27-1.37,2.37c0,0-.67.66-1.68.85l-1.27.15s-.11.03-.15.32l-.15,1.13s0,.21.4.15l17.13-.52s.12.27.12-.54l-.03-1.09s.17-.43-.49-.47c0,0-1.92-.13-2.11-1.96,0,0,.02-.16.12-.62l2.93-12.12s1.16-3.74,2.97-3.9c0,0,2.21-.02,1.18,4.46l-2.2,9.87s-.71,3.88,1.49,5.44c0,0,2.22,1.93,7.31.52,0,0,4.05-1.03,5.5-4.88,0,0,2.09-4.17.66-4.36,0,0-1.2-.26-1.79,1.62l-.42,1.13s-.14.67-.84.48c0,0-.53-.06-.13-1.8l1.65-7.14s1.68-5.96-.5-8.64c0,0-1.52-2.56-5.4-2.42,0,0-4.9-.01-7.97,2.43l-.13.11.2-1.31s.28-.43-.63-.38l-13.28.41s-.43-.07-.44.36l.03.99s-.05.27.52.25h.64s1.36-.09,1.82,1.12c0,0,.39.85.07,2.12Z"/>
  <path class="cls-1" d="M116.37,26.29s5.57-1.5,5.53-8.37c0,0-.13-6.94-11.25-7.31,0,0-6.11.06-9.98,4.26,0,0-4.77,4.68-4.13,11.82,0,0-.05,6.66,5.94,9.43,0,0,1.82,1.3,6.47,1.19,0,0,5.79-.07,8.71-4.52,0,0,1.15-.93,2.02-4.52,0,0,.17-1.08-.88-1.24,0,0-1.3-.34-1.86,1.88,0,0-1.6,3.7-5.37,5,0,0-3.65.98-4.65-1.8,0,0-.87-3.51.59-5.87,0,0,3.34,1.69,8.87.06ZM108.73,22.48l1.1-4.14c.66-2.84,1.02-3.3,1.02-3.3,1.38-1.91,2.57-.58,2.57-.58.69.93.61,2.54.61,2.54-.67,4.25-1.77,5.67-1.77,5.67-1.78,2.8-2.76,2.08-2.76,2.08-1.06-.47-.76-2.27-.76-2.27Z"/>
  <path class="cls-1" d="M140.02,1.44l-6.4,27.7s-.23,1.2,1.38,1.62c0,0,2.32-.27,3.5-2.76,0,0,.75-1.42.77-3.21,0,0-.23-1.12.96-1.23,0,0,1.05-.37,1.04,1.36,0,0,.05,3.85-2.18,7.04,0,0-2.14,3.85-8.52,4.05,0,0-5.76.71-6.8-5.18,0,0-.43-3.24.06-4.72l4.62-20.41s.69-2.33-1.99-2.76c0,0-1.07-.13-1.6-.11h-.45s-.4.1-.23-.38l.52-1.14,15.14-.51s.36-.06.17.63Z"/>
  <path class="cls-1" d="M150.67,1.15s-1.28-1.35-3.94-1.13c0,0-3.66-.26-5.19,3.28,0,0-1.71,5.01,1.82,6.53,0,0,1.89,1.06,3.84-.1,0,0,.31-.28.57-.09,0,0,.28.46-.54.94,0,0-1.18.75-2.86.52,0,0-.91-.15-1.25-.31,0,0-.73-.2-.85.04,0,0-.37.48.42,1.24,0,0,1.38,1.3,3.9.78,0,0,2.94-.47,4.56-3.39,0,0,1.57-2.67.65-6.18,0,0-.43-1.48-1.13-2.15Z"/>
  <path class="cls-1" d="M172.71,10.29l-2.16,7.7-1.46-.49s.71-3.7-2.97-5.19c0,0-3.34-1.47-5.59.92,0,0-.68.8.23,1.97,0,0,.39.69,2.33,2.12,0,0,1.23,1.12,4.21,2.6,0,0,5.89,2.18,3.24,8.82,0,0-2.24,5.23-9.55,6.41,0,0-6.5.52-9.76-1.81,0,0-2.28-1.63-3.13.34,0,0-.08.02-.25.83-.15.74-.1.76-.1.76l-1.87-.82,1.92-8.81,1.84.56s-.8,2.34.78,3.94c0,0,2.22,2.37,7.36,1.84,0,0,3.39-.19,3.44-2.5,0,0,.37-1.37-4.27-3.46,0,0-5.28-2.36-6.75-6.16,0,0-1.28-4.21,1.75-7.44,0,0,2.64-4.17,9.44-3.22,0,0,3.57.68,4.88,1.58,0,0,3.05,1.94,4.43.01,0,0,.39-.43.62-1.03l1.38.54Z"/>
  <path class="cls-1" d="M34.3,4.31l.14-.26s.2-.06.6-.05l.94-.03s.4-.01.35.39l-3.16,13.35s-.08.29-.62.22l-.91.02s-.37-.02-.36-.44c0,0,.07-1.63-.02-2.4,0,0-.12-4.74-4.36-7.18,0,0-4.1-2.48-8.18,1.68,0,0-4.18,4.27-5.67,10.94,0,0-1.87,7.14,1.52,12.54,0,0,2.71,3.86,7.3,1.66,0,0,4.56-1.4,7.18-8.8,0,0,.13-.49.26-.96,0,0-.01-.42.42-.44l1.44-.05s.42-.08.39.47l-3.29,13.63s-.05.29-.45.25l-1.78.05s-.16,0-.12-.37c0,0,.13-.96.46-1.59,0,0,.39-.91.05-1.87,0,0-.44-.71-1.19.25l-.78.8s-2.99,3.98-9.57,3.83c0,0-6.46.41-10.5-3.68,0,0-3.66-3.19-4.34-9.56,0,0-.37-4.38,1.06-9.01,0,0,1.57-6.78,9.06-11.09,0,0,5.67-3.58,14.54-2.65,0,0,3.73.93,5.1,2.16,0,0,.74.7,1.96.63,0,0,.88.11,1.86-1.18,0,0,.48-.59.67-1.31Z"/>
  <path class="cls-1" d="M62.25,29.09s-1.08-.29-1.54,1.12c0,0-.42,1.38-1.7,1.26,0,0-1.03-.33-.57-1.67l2.02-8.46s1.37-4.54-2.16-6.49c0,0-2.59-2-9.95-2.02,0,0-6.85-.02-9.77,3.08,0,0-1.51,1.42-.83,3.29,0,0,.22,1.34,2.9,1.6,0,0,1.78.04,2.47-1.3,0,0,.64-.93,1.37-1.55,0,0,.64-.77,1.58-1.33,0,0,2.11-1.6,3.81-.81,0,0,1.51.74.74,2.9,0,0-1.05,2.03-3.02,2.88,0,0-1.94.52-3.19.7h-2s-3.96-.56-6.46,1.37c0,0-3.96,2.63-3.97,8.62,0,0,.4,5.47,5.4,6.57,0,0,4.65.71,7.37-.76,0,0,1.15-.56,1.92-1.31,0,0,.84,1.23,2.55,1.5,0,0,1.15.22,3.66.07,0,0,3.59-.4,5.22-1.69,0,0,2.94-1.69,4.37-4.98,0,0,1.29-2.02-.24-2.59ZM46.75,33.33s-.55,1.15-1.35,1.16c-.07,0-.12,0-.17,0,.1.04.16.05.16.05,0,0-.63-.04-.16-.05-.37-.15-1.28-.74-1.24-2.87,0,0,.2-3.33,1.92-5.62,0,0,1.21-1.71,2.11-1.59,0,0,.54-.04.56,1.28l-1.83,7.63Z"/>
  <path class="cls-1" d="M68.18,17.1l-3.76,15.88s-.18,1.27-1.37,2.37c0,0-.67.66-1.68.85l-1.27.15s-.11.03-.15.32l-.15,1.13s0,.21.4.15l17.13-.52s.12.27.12-.54l-.03-1.09s.17-.43-.49-.47c0,0-1.92-.13-2.11-1.96,0,0,.02-.16.12-.62l2.93-12.12s1.16-3.74,2.97-3.9c0,0,2.21-.02,1.18,4.46l-2.2,9.87s-.71,3.88,1.49,5.44c0,0,2.22,1.93,7.31.52,0,0,4.05-1.03,5.5-4.88,0,0,2.09-4.17.66-4.36,0,0-1.2-.26-1.79,1.62l-.42,1.13s-.14.67-.84.48c0,0-.53-.06-.13-1.8l1.65-7.14s1.68-5.96-.5-8.64c0,0-1.52-2.56-5.4-2.42,0,0-4.9-.01-7.97,2.43l-.13.11.2-1.31s.28-.43-.63-.38l-13.28.41s-.43-.07-.44.36l.03.99s-.05.27.52.25h.64s1.36-.09,1.82,1.12c0,0,.39.85.07,2.12Z"/>
  <path class="cls-1" d="M116.37,26.29s5.57-1.5,5.53-8.37c0,0-.13-6.94-11.25-7.31,0,0-6.11.06-9.98,4.26,0,0-4.77,4.68-4.13,11.82,0,0-.05,6.66,5.94,9.43,0,0,1.82,1.3,6.47,1.19,0,0,5.79-.07,8.71-4.52,0,0,1.15-.93,2.02-4.52,0,0,.17-1.08-.88-1.24,0,0-1.3-.34-1.86,1.88,0,0-1.6,3.7-5.37,5,0,0-3.65.98-4.65-1.8,0,0-.87-3.51.59-5.87,0,0,3.34,1.69,8.87.06ZM108.73,22.48l1.1-4.14c.66-2.84,1.02-3.3,1.02-3.3,1.38-1.91,2.57-.58,2.57-.58.69.93.61,2.54.61,2.54-.67,4.25-1.77,5.67-1.77,5.67-1.78,2.8-2.76,2.08-2.76,2.08-1.06-.47-.76-2.27-.76-2.27Z"/>
  <path class="cls-1" d="M140.02,1.44l-6.4,27.7s-.23,1.2,1.38,1.62c0,0,2.32-.27,3.5-2.76,0,0,.75-1.42.77-3.21,0,0-.23-1.12.96-1.23,0,0,1.05-.37,1.04,1.36,0,0,.05,3.85-2.18,7.04,0,0-2.14,3.85-8.52,4.05,0,0-5.76.71-6.8-5.18,0,0-.43-3.24.06-4.72l4.62-20.41s.69-2.33-1.99-2.76c0,0-1.07-.13-1.6-.11h-.45s-.4.1-.23-.38l.52-1.14,15.14-.51s.36-.06.17.63Z"/>
  <path class="cls-1" d="M150.67,1.15s-1.28-1.35-3.94-1.13c0,0-3.66-.26-5.19,3.28,0,0-1.71,5.01,1.82,6.53,0,0,1.89,1.06,3.84-.1,0,0,.31-.28.57-.09,0,0,.28.46-.54.94,0,0-1.18.75-2.86.52,0,0-.91-.15-1.25-.31,0,0-.73-.2-.85.04,0,0-.37.48.42,1.24,0,0,1.38,1.3,3.9.78,0,0,2.94-.47,4.56-3.39,0,0,1.57-2.67.65-6.18,0,0-.43-1.48-1.13-2.15Z"/>
  <path class="cls-1" d="M172.71,10.29l-2.16,7.7-1.46-.49s.71-3.7-2.97-5.19c0,0-3.34-1.47-5.59.92,0,0-.68.8.23,1.97,0,0,.39.69,2.33,2.12,0,0,1.23,1.12,4.21,2.6,0,0,5.89,2.18,3.24,8.82,0,0-2.24,5.23-9.55,6.41,0,0-6.5.52-9.76-1.81,0,0-2.28-1.63-3.13.34,0,0-.08.02-.25.83-.15.74-.1.76-.1.76l-1.87-.82,1.92-8.81,1.84.56s-.8,2.34.78,3.94c0,0,2.22,2.37,7.36,1.84,0,0,3.39-.19,3.44-2.5,0,0,.37-1.37-4.27-3.46,0,0-5.28-2.36-6.75-6.16,0,0-1.28-4.21,1.75-7.44,0,0,2.64-4.17,9.44-3.22,0,0,3.57.68,4.88,1.58,0,0,3.05,1.94,4.43.01,0,0,.39-.43.62-1.03l1.38.54Z"/>
  <path class="cls-1" d="M178.7.99c-2.97.09-5.31,2.57-5.23,5.55.09,2.97,2.58,5.31,5.56,5.22,2.97-.09,5.31-2.58,5.22-5.55-.09-2.98-2.58-5.31-5.55-5.22ZM179,10.69c-2.38.07-4.37-1.8-4.44-4.18-.07-2.38,1.79-4.37,4.17-4.44,2.38-.07,4.37,1.79,4.44,4.18.07,2.38-1.8,4.37-4.17,4.44Z"/>
  <path class="cls-1" d="M177.98,6.02l-.04-1.44,1.08-.03c.53-.01.75.32.76.71.02.52-.26.71-.81.73l-.99.03ZM176.68,9.56l1.41-.04-.06-2.29.82-.03c.81-.02.91.28.93,1.1.02.59.07.95.14,1.16l1.49-.05v-.18c-.23-.04-.23-.28-.26-1.15-.04-1.2-.32-1.36-.83-1.58.56-.22.83-.83.81-1.52-.03-.87-.47-1.74-2.06-1.7l-2.58.08.19,6.2Z"/>
</svg>