<?xml version="1.0" encoding="UTF-8"?>
<svg id="CLIENTES" xmlns="http://www.w3.org/2000/svg" version="1.1" viewBox="0 0 84.28 40">
  <defs>
    <style>
      .cls-1 {
        fill: #e1251b;
        stroke-width: 0px;
      }
    </style>
  </defs>
  <g>
    <path class="cls-1" d="M29.52,6.19c.96.8,2.44.97,3.59.47.66-.29,1.32-.82,1.56-1.48-.11.08-.23.16-.35.25-.7.43-1.83.45-2.53,0-.56-.35-1.01-.92-1.13-1.56-.25-1.03.21-1.97,1.01-2.57.74-.53,1.91-.49,2.75-.05l-.12-.13c-.82-.84-1.95-1.27-3.14-1.07-1.28.17-2.47,1.17-2.81,2.4-.37,1.38,0,2.84,1.17,3.74M29.07,2.41c.43-1.17,1.66-1.91,2.92-1.83-1.13.37-1.93,1.5-2,2.67-.06,1.01.33,1.81,1.11,2.47.41.31.84.58,1.36.62-1.01.23-1.91-.08-2.65-.68-.91-.81-1.17-2.12-.74-3.25"/>
    <path class="cls-1" d="M40.28,9.83c-.78-.33-1.35-1.15-1.42-1.97-.08-.66.31-1.13.53-1.65-.27.06-.49.19-.68.35-.35.33-.55.81-.58,1.27-.02.78.31,1.48.9,1.97.47.41,1.3.47,1.87.23-.02-.16-.4-.11-.64-.21"/>
    <path class="cls-1" d="M45.28,10.18c.78-.53,1.19-1.34,1.17-2.26.02-.66-.31-1.29-.9-1.6l-.02.1c.26.74.33,1.79-.06,2.48-.41.82-1.23,1.25-2.08,1.38.51.23,1.35.23,1.89-.1"/>
    <path class="cls-1" d="M53.84,12.81c.21-.18.29-.45.27-.76-.04-.53-.49-1.01-.98-1.15.08.29.38.55.44.88.08.35-.02.71-.26.96-.24.24-.5.3-.49.47.39-.04.74-.14,1.03-.41"/>
    <path class="cls-1" d="M30.8,13.03c-.25-.51-.08-1.17.23-1.6-.37.02-.66.38-.82.72-.1.2-.04.56.06.78.1.24.4.54.72.62.16.04.4.11.49-.02-.25-.12-.57-.26-.68-.49"/>
    <path class="cls-1" d="M49.86,13.26c-.33-.16-.45-.51-.49-.84-.04-.26.17-.62.06-.78-.35.19-.52.53-.55.89-.03.35.21.8.6.98.31.14.78.15.98.02-.07-.1-.39-.16-.6-.27"/>
    <path class="cls-1" d="M35.54,13.6c.21-.33.22-.82.04-1.17-.15-.25-.33-.51-.64-.51.1.37.35.8.18,1.23-.16.45-.66.65-1.01.86.53.15,1.13.05,1.42-.41"/>
    <path class="cls-1" d="M40.55,13.38c.25.18.53.18.82.1.14-.04.37-.14.35-.35-.08-.09-.16-.1-.27-.1-.27.33-.66,0-.99,0-.14.1-.02.29.08.35"/>
    <path class="cls-1" d="M43.86,13.63c.14-.1.39-.14.39-.37-.1-.35-.41.04-.64.04-.23.1-.62-.31-.64.16.18.25.55.23.88.17"/>
    <path class="cls-1" d="M43.94,14.82c-.15,0-.25.06-.21.22.23.18.58.25.86.14.14-.08.39-.22.37-.43l-.04-.08c-.33.08-.64.25-.98.14"/>
    <path class="cls-1" d="M41.42,14.84c-.08.21.14.23.25.35.35.25.84.06,1.17-.14.04-.1.12-.25-.04-.31-.23-.08-.33.14-.53.14-.31.06-.6-.33-.84-.04"/>
    <path class="cls-1" d="M39.94,15.41c.29.02.64.08.86-.12.08-.1.06-.27-.08-.31h-.14c-.37.24-.66-.25-.99.02-.08.29.21.29.35.41"/>
    <path class="cls-1" d="M53.04,15.35c.1-.02.23-.13.23-.25,0,0,0-.03,0-.04-.01-.01-.03,0-.03,0-.17.09-.71-.17-.68.19.03.18.3.12.49.1"/>
    <path class="cls-1" d="M50.95,15.48c.15.11.48.03.53-.04l.06-.1c-.19-.04-.47-.25-.68-.02-.03.05.02.12.09.16"/>
    <path class="cls-1" d="M31.5,15.66c.16.06.37-.02.45-.19-.23-.04-.53-.29-.68-.02-.03.08.12.16.23.21"/>
    <path class="cls-1" d="M33.01,15.68c.06.05.15.13.37.12.13,0,.28-.01.29-.12-.04-.14-.39-.21-.6-.25-.13.01-.15.19-.06.25"/>
    <path class="cls-1" d="M51.81,16.19c.22.1.48.07.68-.12,0,0,.02-.02.03-.04,0-.03-.03-.04-.03-.04-.18-.12-.64-.1-.72-.02-.06.06-.04.18.04.22"/>
    <path class="cls-1" d="M41.66,16.3c-.27-.06-.47.22-.7.04-.1-.04-.43-.16-.39.1.04.12.16.23.27.25.29.08.68.1.88-.19.02-.06.04-.2-.06-.2"/>
    <path class="cls-1" d="M42.83,16.54c.21.28.66.28,1.03.25.14-.1.33-.18.37-.37.02-.12-.12-.08-.17-.12-.35.22-.74.08-1.11.02-.08.04-.16.12-.12.23"/>
    <path class="cls-1" d="M32.21,16.75c.18.09.55.05.55-.04-.01-.19-.46-.32-.64-.31-.18.02-.06.29.08.35"/>
    <path class="cls-1" d="M50.7,17c.14.08.32.19.47.12.12-.08.39-.09.35-.24-.14-.21-.67-.14-.72-.12-.09.04-.21.18-.1.25"/>
    <path class="cls-1" d="M52.9,17.24c.12,0,.33-.1.33-.31-.21-.02-.69-.19-.7.12.02.17.21.19.37.19"/>
    <path class="cls-1" d="M31.23,17.41c.11.04.31.04.43-.1.06-.07,0-.06,0-.06-.25,0-.56-.49-.68-.06-.02.1.15.19.25.23"/>
    <path class="cls-1" d="M33.2,17.16c-.04.06,0,.19.06.21.19.04.56.14.66-.12l-.08-.1c-.25.08-.45-.16-.64.02"/>
    <path class="cls-1" d="M11.67,33.45c-2.09-1.07-4.52-1.01-7.02-1.01-.56,0-1.03-.03-1.17-.33-.12-.31.04-.56.29-.76,1.08-.87,2.35-1.36,3.55-1.85,2.22,1.09,5.63,1.13,7.54-.6.41-.39.74-1.01.39-1.56-.21-.29-.52-.53-.88-.56-2.06-.16-4.02.14-5.87.47-2.71.48-5.17,1.57-7.25,3.2-.82.76-1.36,1.93-.86,3,.25.53.73.83,1.19.9,2.14.31,4.4.33,6.47.78.65.16,1.66.27,1.81,1.05.04.6-.58,1.07-1.07,1.21-2.28.88-5.36,1.01-7.78.37-.27-.06-.71-.27-.86-.04-.1.16-.19.34-.08.57.31.58.78.85,1.42.97,3.18.49,6.82.45,9.37-1.38,1.07-.84,2.07-1.97,1.73-3.43-.1-.43-.45-.78-.89-1.03M9.15,28.99c.93-.56,1.78-.62,2.67-.43-.04.2-.29.32-.47.37-.7.19-1.28.35-2.08.28-.14-.02-.22-.15-.12-.22"/>
    <path class="cls-1" d="M84.02,36.98c0-.12-.2-.17-.31-.17h-3.8s-.08,0-.2-.06c-.08-.04-.09-.15-.09-.15-.04-1.05.15-2.06.86-2.92.09-.1.17-.29-.08-.41-.68-.19-1.51-.24-2.15,0-2.51.89-4.4,3.45-6.45,5.14,0,0-.2.15-.37.14-.21-.02-.24-.21-.19-.37.24-.86.77-1.63.86-2.52.02-.53-.24-.95-.64-1.32-.47-.45-1.38-.74-1.91-.33l-2.46,2.1c-.13.09-.33.26-.35.1-.04-.5.04-1.05-.27-1.44-.51-.64-1.51-1.1-2.12-.84-2.02.88-3.47,2.96-5.14,4.42-.42.33-.82.66-1.03.64-.09,0-.17-.13-.16-.31.1-1.15,1.02-1.95,1.54-2.96.19-.42.02-.9-.21-1.25-.2-.29-.43-.58-.82-.58-1.07.02-2.34.12-3.32-.12-.79-.09-.08,1.1-.64,1.52-.54.41-1.18,1.16-1.7.86-.53-.47.53-1.49-.12-2.01-.57-.47-1.4-.09-1.97.12-.24.05-.39-.47-.72-.64-.68-.29-1.69-.21-2.14.26-.95.86-2.12,2.03-3.39,1.56-.46-.13-.08-1.42-.78-1.81-.45-.25-1.03-.06-1.46.12-.4.19-.83.73-1.15.59.16-.75.51-1.39.78-2.07.42-1.09,1.03-2.07,1.05-3.27,0,0,0-.1-.06-.15-.07-.06-.15-.08-.15-.08-.95-.2-1.66.39-2.38.84-.29.21-.76.47-.72.86.06.25.35.06.47.23.12.13.08.36.02.49-.54,1.12-1.01,1.86-1.76,3.25-.69,1.36-1.9,3.24-.58,4.76.52.47,1.11.43,1.75.49,1.76.08,3.02-1.23,3.96-2.53.71.07,1.34-.35,2.04-.21.09.04.1.12.09.24-.05.21-.39,1.67.84,2.26.09.05.17.08.27.11,1.45.37,2.69.06,3.74-.77.71-.57.76-1.17,1.36-1.22,1.04,0,1.56-.02,2.46-.49.83-.45,1.34-1.27,1.91-1.95.1-.09.29-.08.48.1.15.14.08.33,0,.45-.76.89-1.62,1.93-1.09,3.15.54,1.02,1.93,1.09,3.06.98,1.99-.31,2.97-2.36,4.52-3.63.12-.08.37-.19.45,0,.14.82-.76,1.31-.6,2.2.04.39.27.74.62.97.57.33,1.56.38,2.03.04.86-.6,1.58-1.54,2.3-2.3.22-.25.7-.78.8-.58.4.84-.82,1.75.16,2.44.9.56,2.36.8,3.37.27.62-.35,1.05-.95,1.68-1.23.08-.04.12-.06.21-.06.07,0,.13.03.17.06.45.33.64.87,1.14,1.27.54.34,1.07.43,1.91.33.74-.11,1.07-.85,1.6-1.24h3.86s1-1.04,1.05-1.16c.07-.13.04-.25.04-.25M41.77,36.92c-.45.66-.72,1.62-1.58,1.91-.15.04-.27-.05-.29-.25,0-1.16.22-2.24.7-3.04.49-.59.31.21.7.54.27.23.72.41.47.84M50,37.16c-.17.61-.76,1.5-1.42,1.71-.31.07-.45-.1-.45-.31-.06-1.25.52-2.52,1.11-3.21.1-.08.17-.18.35-.1.19.14-.02.67.16.9.21.29.35.62.25,1.01M77.2,35.5c-.1.47-.16,1.07-.7,1.29-.2.07-.84.09-.76-.22.25-.49.74-1.03,1.24-1.29.13-.06.26.06.22.22"/>
    <path class="cls-1" d="M36.24,38.42c-.54-.3-.93.55-1.48.57-.24,0-.29-.26-.25-.47.19-1.46,2.28-3.2.33-4.46-.51-.35-1.27-.57-1.89-.26-.85.55-1.52,1.38-2.32,1.91-.08.04-.3.11-.31-.04-.1-.62-.29-1.23-.88-1.64-.45-.31-1.21-.47-1.7-.12-1.4,1.25-2.98,2.69-4.25,4.03-.43.36-1.14,1.12-1.5.78-.34-.38.76-1.79.86-2.81-.02-.37-.31-.66-.59-.89-.44-.33-.93-.42-1.25-.16l-2.32,1.85c-.84.6-1.64,1.27-2.59,1.62-.25.09-.28-.19-.25-.37.21-.96.87-1.74,1.65-2.3,1.28-.93,2.48-1.09,3.84-1.36.22-.05.39-.21.33-.47-.09-.31-.29-.44-.74-.49-2.24-.14-4.11.24-5.79,1.27-1.09.71-2.01,1.89-1.85,3.27.1.75.46,1.37,1.21,1.64,1.64.47,3.1-.59,4.42-1.44.79-.46.53.51.96,1.09.37.51.92.8,1.54.84,2.18,0,3.74-1.85,5.18-3.29.08-.08.34-.17.39-.02.26.66-.63,1.51-.33,2.14.19.39.58.57.95.7.66.23,1.49.1,1.87-.47.68-.96,1.58-1.95,2.5-2.71.13-.09.44-.32.47-.08,0,.76-.64,1.39-.37,2.18.39,1.09,1.63,1.26,2.65,1.31.63.03,1.3-.21,1.56-.76.06-.16.13-.45-.04-.57"/>
    <path class="cls-1" d="M58.82,18.19c-1.17.04-2.32.19-3.53.13,0,0-.07,0-.12-.06-.05-.06-.03-.09-.03-.09.25-.45.45-.93.55-1.46.23-1.23-.1-2.44-1.11-3.18.58-.47.53-1.27.41-1.95-.21-.68-.7-1.4-1.46-1.54-.02-.33.41-.56.39-.86h-.04c-1.54,1.48-3.83,2.2-5.9,1.37l-.14-.06s-.03.02.03.07c0,0,.09.09.16.17.16.2.32.44.27.56-.33.58-.51,1.4-.21,2.06.19.51.74.86,1.17,1.09-.8.82-1.01,2.09-.68,3.22.11.37.6.8.45.88-.65.14-1.39.06-2.12.08-.16-.01-.46,0-.29-.23.53-.59.91-1.27,1.05-2.05.35-1.85.06-3.88-1.67-4.93.76-.31,1.48-1.11,1.83-1.85.43-1.11.31-2.51-.47-3.41-.31-.39-.86-.47-1.03-.95.41-.49.96-.92,1.21-1.5-.93.64-1.89,1.19-2.96,1.5-2.59.78-5.09-.29-6.86-2.07.1.66.6,1.27,1.11,1.73.04.06.02.17-.02.21-1.01.33-1.89,1.29-2.1,2.32-.27,1.34.22,2.51,1.15,3.39.26.23.59.41.84.56-.66.53-1.35,1.19-1.6,1.95-.83,1.87-.12,3.94,1.11,5.38-.8.02-1.44-.1-2.3-.07l-.06-.04.27-.51c.37-1.09.25-2.53-.68-3.29.11-.03.27-.1.41-.19.72-.45,1.07-1.23.9-2.05-.1-.43-.44-.83-.84-1.09-.24-.24.34-.39.28-.69l-.08.03c-1.46.58-3.35.31-4.69-.41-.43-.23-.65-.37-1.06-.75-.25.47.62.77.28.87-.68.19-1.38.82-1.5,1.54-.1.72.08,1.46.64,1.97-.39.31-.8.73-1.03,1.19-.35.7-.33,1.71.06,2.38.14.31.45.57.45.9-1.42,0-2.87-.02-4.27.09-.17.02-.27.09-.29.33.02.24.11.62.37.7.43.16.93.19,1.42.16.22.01.49,0,.53.22.01.07-.23.18-.41.31-.59.39-1.24.61-1.89.84-.54.19-.13.55-.27.88.04.31.46.38.7.31,1.38-.72,3.04-.84,4.05-2.26.43-.07,1.01-.25,1.38.06.68.86,1.38,1.71,1.95,2.59l.06.08.06-.08c.58-.88,1.09-1.85,1.99-2.57,1.6-.24,3.37-.18,4.91.17,1.03,1.27,1.74,2.77,2.69,4.07l.58-.93c.84-1.09,1.58-2.36,2.71-3.2,1.1-.48,3.25-.38,4.81-.16.04,0,.07,0,.1.02.02.01.04.02.07.03.73.62,1.07,1.58,1.66,2.26.49-.84,1.09-1.62,1.73-2.41,0,0,.1-.1.2-.16.1-.06.1-.08.25-.11.55-.13,2.71-.11,4.07-.24.02,0,.03,0,.05,0,.02,0,.03-.01.05-.02.34-.17.41-.59.49-.93.05-.19-.13-.35-.22-.35M47.85,10.48s0,0,0,0M52.56,11.77c.1.04.22.08.26.2.02.19-.22.26-.27.26h-.14s.14-.46.14-.46ZM50.49,11.51c.55-.06,1.05-.25,1.54-.45l-.51,1.46c-.37-.23-.68-.64-1.03-.91l-.1-.09h.1ZM50.31,12.25c.1.14.35.24.31.37-.06.09-.31.06-.37-.02-.08-.1-.04-.27.06-.35M49.24,15.91c-.02.72.21,1.57.96,1.88.04.02.15.03.13-.01-.48-.78-.7-1.91-.27-2.79.16-.37.47-.7.78-.99l.08-.09h-.12c-.8.02-1.78-.02-2.06-.8-.21-.63-.08-1.36.43-1.72.17.16.8.34.62.62-.16.21-.25.52-.12.76.16.35.51.45.88.45,0,0,.15-.02.24-.05.06-.02.19-.07.19-.07.39.35.58.78.82,1.17l.05.09.03-.1.35-1.44c.31.04.68-.03.95-.33.15-.24.21-.49.12-.7-.11-.26-.37-.4-.55-.52.14-.25.1-.97.72-.64.37.23.71.62.84,1.09.15.52.02,1.07-.31,1.46-.29.39-.7.55-1.07.8.6.31,1.15.99,1.17,1.71.02.59-.1,1.15-.27,1.7-.01.09.12.06.17.02.7-.62.86-1.58.7-2.51.57.72.39,1.93.04,2.69-.12.37-.52.12-.72.33-.43-.47-.83.16-1.38-.12-.17-.09-.4.38-.72.12-.36-.2-.62.37-1.15.02-.27-.13-.84.46-1.27.17-.04-.03-.05-.04-.07-.06-.02-.05-.04-.1-.05-.12-.27-.61-.45-1.35-.15-2.01M46.82,16.5c-.12.39-.25.82-.52,1.11-.39-.2-.9-.37-1.27-.06-.06,0-.1-.08-.16-.12,1.15-.93,1.67-2.32,1.42-3.84l-.27-.99c1.01.95,1.17,2.55.8,3.9M44.56,5.92c-.76.92-1.79,1.77-2.32,2.79-.41-1.07-1.23-1.99-1.79-3.02,1.19.49,2.84.68,4.11.23M44.31,8.58c-.22.12-.53.14-.74,0-.23-.19-.02-.37.13-.54.22-.24.46-.71.62-.55,0,0,.15.12.2.31.08.26-.02.63-.2.78M40.33,7.51c.13-.13.22-.15.22-.15.23.25.41.62.53.97.06.15-.17.15-.33.16-.33,0-.51-.21-.56-.45-.01-.27.03-.44.12-.53M37.74,14.12c.21-.52.39-1.01.84-1.44-.51,1.38-.33,3.33.86,4.4h.04c-.16-.76-.49-1.54-.43-2.4-.02-1.58.78-2.88,2.01-3.88l-.06-.08c-.9.19-1.85.06-2.53-.49-.78-.64-.94-1.62-.82-2.61.1-.88.82-1.77,1.69-2.01.27.27.76.6.68,1.01-.45.29-.68.72-.68,1.23,0,.37.11.7.35.95.47.51,1.19.47,1.85.43.16.47.25.96.49,1.4.39-.39.49-1.01.88-1.4.52.16,1.11.33,1.62.04.57-.35.9-.97.86-1.64.02-.41-.57-.64-.41-1.05.31-.21.53-.66.96-.6.88.57,1.36,1.54,1.23,2.56-.06.84-.51,1.62-1.25,2.08-.7.45-1.69.49-2.53.35.54.41,1.07.8,1.46,1.4.7,1.13.88,2.77.33,4.04-.17.31-.35.64-.62.89-.25-.02-.53.02-.72.22-.24-.02-.64-.1-.86.06-.45.25-.1.99-.7.96-.12-.29-.18-.64-.51-.8-.31-.23-.72.12-.99-.12-.49-.16-.84.29-1.35.06-.2-.09-.47.16-.58.37-.04.1-.12.12-.19.06-.96-1.05-1.36-2.57-.95-3.99M34.23,12.74c.07.17-.19.37-.27.35-.29-.06.11-.41.08-.53.1,0,.14.1.18.18M33.94,11.63c-.29.43-.68.89-.99,1.29-.31-.47-.59-1.07-.82-1.62.58.19,1.17.31,1.81.33M31.74,12.23c.14.08.31.29.33.51-.16.02-.45,0-.45-.25-.02-.12.02-.21.12-.27M29.23,15.68c.12-.29.31-.58.58-.76-.35.59-.29,1.49.02,2.09.19.37.58.76.94.68-.43-.57-.64-1.35-.39-2.09.32-.83.99-1.27,1.69-1.46,0-.19-.23-.1-.39-.13-.56-.03-1.13-.21-1.56-.84-.2-.31-.27-.74-.16-1.11.06-.28.69-.98,1.1-.99.23,0,.46.21.36.48-.21.35-.49.66-.43,1.11.06.45.58.75.88.76l.5-.02c.14.33.25.68.45.99.22-.21.33-.53.51-.8.37-.08.8.21,1.15-.06.3-.21.4-.42.45-.68.1-.41-.6-.65-.23-.98.18-.16.41-.43.7-.25.39.35.66.8.62,1.36-.02.58-.43,1.18-.97,1.34-.43.12-1.05.16-1.46-.04l-.1-.04.06.1c.45.29.9.68,1.11,1.23.22.78.02,1.58-.41,2.24.45-.04.8-.5.95-.92.15-.46.12-.87.08-1.3.51.41.45,1.19.35,1.81-.09.39-.18.64-.43.88-.43-.39-1.05.06-1.5-.27-.33.27-.72-.1-1.07.12-.41-.19-.84.14-1.21-.14-.35.19-.68.06-1.09.12-.16.02-.35.23-.53,0-.47-.7-.84-1.54-.55-2.42M32.63,21.76c-.35-.45-1.03-1.11-1.3-1.62.7-.12,1.62.07,2.3,0l.21-.02c-.37.49-.74,1.25-1.21,1.65M42.28,22.95l-.03.05-.03-.05c-.54-.85-1.11-1.58-1.58-2.4l-.13-.23.15.03c1.21.16,2.47,0,3.68-.04h.1c-.8.79-1.56,1.7-2.15,2.65M52.36,21.19c-.02.05-.06.1-.06.1-.04-.02-.12-.13-.15-.16-.23-.33-.53-.64-.64-1.03.51-.14,1.13-.12,1.64-.21-.19.47-.64.82-.8,1.29M58.14,19.08s0,0-.02,0h-.02s-3.39.1-3.39.1c-2.38.43-5.04.31-7.54.21-2.32.31-4.78.45-7.23.35-1.93-.22-4.05-.29-6.04-.15-1.62.15-3.31-.06-4.97-.02-.72,1.23-2.09,1.48-3.2,2.01-.26.13-.74.2-.82.16,0,0-.13-.09,0-.12.04-.01,1.58-.7,2.32-1.17.24-.16.47-.38.47-.61-.14-.75-1.36-.37-2.03-.58-.08-.04-.27-.09-.27-.21,0-.1.06-.23.19-.23,1.54-.02,3.06.13,4.58.07.12-.01.18-.33.39-.27.16.08.36.41.53.27.1-.1.06-.37.29-.35.27,0,.32.55.6.31.12-.1.14-.35.35-.25.12.06.1.27.29.25.33-.04.47-.53.64-.06.04.09.17.09.31-.02.13-.11.15-.22.31-.16.07.03.1.16.25.25.14.09.37-.35.64-.25.08.2.21.39.43.49,1.44-.18,2.69.15,4.09,0,.31-.06-.16-1.02.41-.86.3.14.12.7.53.74.23-.03,0-.8.43-.76.18.07,0,.57.35.64.21,0,.1-.72.53-.62.24.11.08.76.55.84.33.08.64-.04.9-.18.41-.23.04-1.05.66-.97.2.06.06.43.31.53.43.03.12-.88.62-.55.22.14.12.65.45.55.23-.14.12-.49.41-.55.31-.04.48.16.5.35.04.27.05.73.35.72l3.02-.02c.35.04.33-.55.7-.37.12.08.29.27.47.16.14-.1.14-.35.37-.33.22.06.35.33.57.18.15-.13.17-.33.41-.25.17.1.33.37.56.19.12-.1.22-.39.43-.25.14.13.29.35.47.23.12-.06.16-.33.35-.19.12.14.31.31.47.19.03-.03.13-.14.19-.21.01-.01.02-.03.04-.03.02,0,.05,0,.07.01.19.07.27.3.43.43,0,0,.01,0,.02,0,0,0,.02,0,.03,0,1.14.04,2.36-.1,3.47.02,0,0,0,0,.02,0,0,0,0,0,0,.01.06.15-.14.21-.23.31"/>
  </g>
  <path class="cls-1" d="M83.07,31.8c.68,0,1.21.53,1.21,1.19s-.53,1.19-1.21,1.19-1.22-.52-1.22-1.19.54-1.19,1.22-1.19h0ZM83.05,32.04c-.52,0-.91.43-.91.95s.39.95.93.95c.52,0,.9-.42.9-.95s-.38-.95-.91-.95h0ZM82.87,33.6h-.27s0-1.18,0-1.18c.11-.02.26-.04.46-.04.22,0,.33.04.41.09.07.05.12.14.12.25,0,.14-.1.24-.25.28h0c.12.05.18.14.22.3.04.18.06.25.09.29h-.3s-.06-.14-.09-.28c-.02-.13-.09-.19-.25-.19h-.13v.47ZM82.88,32.94h.13c.15,0,.27-.05.27-.17,0-.11-.08-.18-.25-.18-.07,0-.12,0-.15.01v.34Z"/>
</svg>