<?xml version="1.0" encoding="UTF-8"?>
<svg id="CLIENTES" xmlns="http://www.w3.org/2000/svg" version="1.1" viewBox="0 0 87.13 40">
  <defs>
    <style>
      .cls-1 {
        fill: #283d6e;
      }

      .cls-1, .cls-2, .cls-3 {
        stroke-width: 0px;
      }

      .cls-2 {
        fill: #00778e;
      }

      .cls-3 {
        fill: #fff;
      }
    </style>
  </defs>
  <path class="cls-1" d="M10.24,28.43c-.01-1-.04-1.69-.09-2.07.14.03.28.05.41.08.13.02.26.03.39.03.17,0,.36-.04.58-.11-.04.45-.08.99-.12,1.62-.04.63-.07,1.31-.1,2.03-.03.72-.05,1.46-.08,2.22-.03.76-.05,1.5-.06,2.21-.01.87-.15,1.65-.4,2.34-.25.69-.61,1.27-1.08,1.75-.47.48-1.04.85-1.73,1.09-.68.25-1.47.37-2.35.37-1.95,0-3.37-.44-4.25-1.33-.88-.88-1.33-2.28-1.33-4.19,0-.61.02-1.15.05-1.63.04-.48.06-.96.06-1.45,0-1.09-.02-2.06-.05-2.9-.03-.84-.06-1.56-.1-2.14.16.03.33.05.51.08.18.02.35.03.51.03.14,0,.28-.01.42-.03.14-.03.28-.05.42-.08-.02.29-.05.66-.07,1.12-.02.46-.05.98-.07,1.57-.03.59-.04,1.22-.05,1.89-.01.68-.02,1.38-.02,2.11,0,.44,0,.9.02,1.38.01.47.06.94.14,1.39.08.45.21.88.38,1.29.18.41.43.77.75,1.08.32.3.73.55,1.23.72.5.18,1.11.26,1.83.26s1.32-.1,1.8-.31c.49-.21.89-.48,1.2-.82.31-.34.55-.73.73-1.17.18-.44.3-.9.38-1.39.08-.48.12-.96.14-1.44.01-.48.02-.93.02-1.33,0-1.85,0-3.27-.02-4.27Z"/>
  <path class="cls-1" d="M18.82,34.69c-1.69-1.81-3.38-3.61-5.06-5.41-.02.36-.03.85-.05,1.46-.02.61-.02,1.44-.02,2.49,0,.27,0,.61,0,1.01,0,.4.01.83.02,1.27,0,.44.02.89.03,1.34.01.45.03.88.04,1.27.01.39.03.73.04,1.02.01.29.03.49.04.59-.21-.02-.44-.04-.69-.04-.27,0-.51.01-.73.04.03-.13.05-.37.09-.72.03-.35.06-.77.09-1.26.03-.49.06-1.02.09-1.59.03-.57.06-1.14.08-1.71.02-.57.04-1.13.05-1.68.01-.55.02-1.03.02-1.46,0-1.24,0-2.32-.01-3.21,0-.9-.03-1.57-.06-2.01h.31c.8.86,1.65,1.78,2.55,2.76.91.98,1.81,1.95,2.7,2.9.89.95,1.74,1.86,2.55,2.71.8.85,1.5,1.58,2.11,2.17v-2.65c0-1.36-.01-2.69-.03-3.99-.02-1.29-.06-2.51-.12-3.65.26.06.48.1.66.1.15,0,.36-.03.62-.1-.03.29-.06.71-.09,1.28-.03.57-.07,1.18-.1,1.83-.03.65-.06,1.29-.09,1.91-.03.62-.04,1.12-.04,1.5v1.17c0,.44,0,.9.01,1.38,0,.48.01.97.03,1.45,0,.49.01.94.02,1.36,0,.42.01.79.01,1.1v.64h-.27c-1.49-1.73-3.08-3.5-4.77-5.31Z"/>
  <path class="cls-1" d="M26.83,28.88c-.03-.83-.06-1.67-.1-2.52.17.03.33.05.49.08.16.02.31.03.47.03s.31-.01.47-.03c.16-.03.32-.05.49-.08-.04.85-.09,1.7-.12,2.52-.04.83-.06,1.66-.06,2.52v3.35c0,.86.02,1.7.06,2.53.04.83.08,1.65.12,2.45-.3-.02-.62-.04-.96-.04s-.66.01-.96.04c.04-.8.07-1.62.1-2.45.03-.83.05-1.68.05-2.53v-3.35c0-.86-.01-1.7-.05-2.52Z"/>
  <path class="cls-1" d="M31.37,28.88c-.03-.83-.06-1.67-.1-2.52.59.03,1.17.05,1.75.08.58.02,1.16.03,1.75.03s1.18-.01,1.77-.03c.6-.03,1.25-.05,1.95-.08-.04.19-.06.39-.06.58s.02.39.06.58c-.35-.04-.78-.07-1.27-.09-.49-.03-1-.05-1.51-.07-.51-.02-1.01-.03-1.48-.04-.48-.01-.87-.02-1.18-.02-.02.45-.04.88-.05,1.29-.01.41-.02.82-.02,1.23,0,.45,0,.86.02,1.24.01.38.02.78.02,1.19.86,0,1.7-.01,2.54-.04.84-.02,1.67-.07,2.49-.14-.05.2-.08.39-.08.59s.03.4.08.59c-.33-.04-.69-.07-1.1-.09-.41-.02-.84-.04-1.28-.05-.44-.02-.89-.02-1.34-.02h-1.31v1.66c0,.86.02,1.7.06,2.54.04.83.08,1.65.12,2.46-.3-.02-.62-.04-.96-.04s-.66.01-.96.04c.04-.8.07-1.62.1-2.45.03-.83.05-1.68.05-2.53v-3.35c0-.86-.01-1.7-.05-2.52Z"/>
  <path class="cls-1" d="M40.29,30.13c.36-.87.85-1.6,1.5-2.19.64-.6,1.41-1.05,2.3-1.36.89-.31,1.87-.47,2.93-.47s2.06.15,2.95.47c.89.31,1.66.77,2.3,1.36.64.59,1.14,1.33,1.5,2.19.35.86.53,1.85.53,2.95s-.18,2.09-.53,2.95c-.36.86-.86,1.59-1.5,2.19-.64.6-1.41,1.04-2.3,1.33-.89.29-1.88.44-2.95.44s-2.04-.15-2.93-.44c-.9-.29-1.66-.74-2.3-1.33-.64-.6-1.14-1.33-1.5-2.19-.36-.86-.53-1.85-.53-2.95s.18-2.09.53-2.95ZM51.97,30.29c-.27-.78-.65-1.44-1.13-1.95-.48-.51-1.05-.89-1.7-1.14-.65-.25-1.36-.37-2.12-.37s-1.45.13-2.1.37c-.65.25-1.22.62-1.7,1.14-.48.52-.86,1.17-1.13,1.95-.27.79-.41,1.72-.41,2.8s.14,2.01.41,2.8c.27.79.65,1.44,1.13,1.95.48.51,1.05.89,1.7,1.14.65.24,1.35.37,2.1.37s1.47-.12,2.12-.37c.65-.25,1.22-.63,1.7-1.14.48-.51.86-1.16,1.13-1.95.27-.78.41-1.72.41-2.8s-.14-2.01-.41-2.8Z"/>
  <path class="cls-1" d="M48.73,30.13c.36-.87.85-1.6,1.5-2.19.64-.6,1.41-1.05,2.3-1.36.89-.31,1.87-.47,2.93-.47s2.06.15,2.95.47c.89.31,1.66.77,2.3,1.36.64.59,1.14,1.33,1.5,2.19.36.86.53,1.85.53,2.95s-.18,2.09-.53,2.95c-.36.86-.86,1.59-1.5,2.19-.64.6-1.41,1.04-2.3,1.33-.89.29-1.88.44-2.95.44s-2.04-.15-2.93-.44c-.89-.29-1.66-.74-2.3-1.33-.64-.6-1.14-1.33-1.5-2.19-.35-.86-.53-1.85-.53-2.95s.18-2.09.53-2.95ZM60.41,30.29c-.27-.78-.65-1.44-1.13-1.95-.48-.51-1.05-.89-1.7-1.14-.65-.25-1.35-.37-2.11-.37s-1.45.13-2.1.37c-.65.25-1.22.62-1.7,1.14-.48.52-.86,1.17-1.13,1.95-.27.79-.4,1.72-.4,2.8s.13,2.01.4,2.8c.27.79.65,1.44,1.13,1.95.48.51,1.05.89,1.7,1.14.65.24,1.35.37,2.1.37s1.46-.12,2.11-.37c.65-.25,1.22-.63,1.7-1.14.48-.51.86-1.16,1.13-1.95.27-.78.4-1.72.4-2.8s-.13-2.01-.4-2.8Z"/>
  <path class="cls-1" d="M64.92,28.88c-.03-.83-.06-1.67-.1-2.52.49.03.99.05,1.47.08.49.02.98.03,1.47.03s.99-.02,1.47-.06c.49-.04.98-.05,1.47-.05,1.15,0,2.12.15,2.94.45.81.3,1.48.72,2,1.28.52.55.9,1.23,1.14,2.03.24.8.36,1.7.36,2.7,0,1.3-.23,2.39-.67,3.28-.45.89-1.02,1.61-1.72,2.15-.7.55-1.46.93-2.3,1.16-.84.23-1.64.34-2.41.34-.44,0-.88,0-1.31-.02-.43-.01-.87-.02-1.31-.02h-1.31c-.43,0-.86.01-1.31.04.04-.8.07-1.62.1-2.45.03-.83.04-1.68.04-2.53v-3.35c0-.86-.01-1.7-.04-2.52ZM66.68,38.89c.27.07.64.11,1.11.15.47.04.95.05,1.44.05.72,0,1.43-.08,2.15-.25.72-.17,1.36-.49,1.92-.95.57-.47,1.03-1.11,1.39-1.92.36-.81.54-1.86.54-3.14,0-1.13-.14-2.05-.42-2.78-.28-.72-.66-1.3-1.15-1.72-.49-.42-1.07-.71-1.75-.88-.68-.16-1.42-.24-2.22-.24-.58,0-1.13.02-1.64.06-.51.04-.96.09-1.36.14-.04.62-.07,1.28-.08,1.96-.02.68-.03,1.37-.03,2.08v3.35c0,1.4.04,2.78.11,4.13Z"/>
  <path class="cls-1" d="M80.15,37.96c.18.24.39.46.64.65.25.19.55.35.89.48.34.12.72.19,1.13.19s.81-.07,1.16-.22c.35-.15.64-.35.88-.61.24-.25.43-.55.56-.9.13-.35.2-.71.2-1.1,0-.6-.15-1.07-.46-1.42-.31-.35-.69-.65-1.14-.88-.45-.23-.95-.45-1.47-.64-.53-.2-1.02-.44-1.47-.73-.46-.29-.84-.67-1.14-1.13-.31-.45-.46-1.07-.46-1.83,0-.55.1-1.05.29-1.5.19-.45.48-.84.85-1.16.37-.32.82-.58,1.34-.76.52-.18,1.11-.27,1.76-.27s1.16.07,1.62.22c.45.15.88.38,1.27.7-.12.22-.21.46-.29.7-.08.25-.16.56-.23.94h-.23c-.07-.18-.15-.38-.26-.6-.11-.21-.26-.41-.45-.59-.19-.18-.41-.33-.67-.46-.26-.12-.57-.19-.94-.19s-.7.06-1.01.18c-.3.12-.57.28-.8.5-.23.22-.4.47-.53.77-.12.3-.19.62-.19.97,0,.61.15,1.09.46,1.44.31.35.69.65,1.14.88.45.24.95.45,1.47.64.53.19,1.02.42,1.47.69.45.27.83.62,1.14,1.05.31.43.46,1,.46,1.71,0,.6-.11,1.16-.32,1.7-.22.53-.53,1-.94,1.39-.41.4-.91.7-1.5.91-.59.21-1.27.32-2.02.32-.81,0-1.46-.11-1.96-.31-.5-.21-.92-.44-1.26-.71.12-.3.2-.57.24-.81.05-.24.09-.55.13-.92h.23c.1.23.24.47.42.71Z"/>
  <rect class="cls-2" x="32.77" y=".58" width="21.32" height="18.65"/>
  <path class="cls-3" d="M51,15.32c-.4.3-.89.61-1.47.94-.57.33-1.21.67-1.92,1.03-.71.35-1.45.67-2.23.96-1.65.61-3.18,1-4.59,1.16-1.41.16-2.63.07-3.65-.27-1.03-.34-1.84-.93-2.43-1.76-.6-.83-.9-1.9-.92-3.23-.02-1.33.25-2.62.8-3.86.56-1.25,1.35-2.42,2.38-3.52,1.03-1.1,2.26-2.1,3.69-3,1.44-.9,3.03-1.68,4.76-2.32,1.38-.51,2.65-.87,3.79-1.08,1.14-.21,2.16-.33,3.04-.36-.16.28-.29.63-.39,1.04-.1.41-.18.76-.23,1.03l-.19.12c-.21-.11-.51-.21-.89-.31-.38-.1-.83-.16-1.33-.19-.51-.03-1.07,0-1.7.07-.63.08-1.32.26-2.08.54-1.23.45-2.38,1.02-3.43,1.71-1.05.69-1.97,1.48-2.74,2.39-.77.9-1.37,1.91-1.8,3.02-.43,1.11-.63,2.31-.6,3.61.02,1.3.26,2.34.72,3.13.46.79,1.08,1.34,1.88,1.67.8.33,1.72.45,2.79.36,1.06-.09,2.21-.36,3.45-.82.75-.28,1.45-.61,2.08-.98.64-.38,1.22-.76,1.75-1.16.53-.39,1.01-.78,1.43-1.17.43-.39.78-.72,1.08-1l.13.05-.26,1.48c-.19.19-.48.44-.89.74Z"/>
</svg>