<?xml version="1.0" encoding="UTF-8"?>
<svg id="CLIENTES" xmlns="http://www.w3.org/2000/svg" version="1.1" viewBox="0 0 249.18 40">
  <defs>
    <style>
      .cls-1 {
        fill: #231f20;
        stroke-width: 0px;
      }
    </style>
  </defs>
  <path class="cls-1" d="M59.89,37.32c-3.73,0-5.73-.26-8.71-1.24-2.34-.77-4.26-1.94-6-3.75-2.5-2.58-3.87-4.7-4.51-8.22-.68-3.72,0-6.67.17-7.32l36.1.22s-.06-.77-.09-1.02c-.96-7.29-4.46-10.4-6.42-11.93C65.41.15,60.09.05,56.62.05c-3.79,0-7.53.92-10.68,2.87-2.5,1.55-4.56,3.28-6.34,6.05-2.28,3.52-3.11,6.3-3.22,11.24-.1,4.51,1.39,8.33,4.03,11.95,2.34,3.21,5.37,5.03,8.91,6.41,1.67.64,3.54,1.1,5.2,1.2,1.64.1,8.54.44,16.93-.2,1.13-.09,2.72-.26,2.72-.26v-3.87s-.97.21-.97.21c-3.69.81-8.8,1.67-13.31,1.67ZM55.99,2.54c2.43-.13,4.79.26,7.12.92,2.8.79,4.2,1.85,6.16,3.68,2.1,1.96,3.33,4.61,3.74,7.13l-31.5-.1c.37-3.01,2.58-6.44,5.75-8.77,2.35-1.73,5.7-2.68,8.73-2.85Z"/>
  <path class="cls-1" d="M98.96.06c-5.06,0-9.59,1.56-13.51,5.31.02-.71.03-1.25.06-2.32l.09-1.78h-3.77l.02,1.04c.1,4.07.14,7.98.14,13.64,0,10.4-.09,18.13-.27,22.97l-.03.85h3.77l-.04-.85c-.07-1.57-.09-2.89-.08-3.92.07-9.88.1-15.74.1-16.94l-.02-7.81c3.65-4.83,8.09-7.38,13.2-7.38,3.77,0,7.05,1.51,10.16,4.17l.71.6,1.93-3.17-.58-.45C107.45,1.39,103.45.06,98.96.06Z"/>
  <path class="cls-1" d="M163.7,37.8l-.05,1.97h3.5l-.02-.84c-.02-.62-.03-.97-.03-1.05l.03-4.65c0-.72-.02-2.24-.03-4.56-.02-1.11-.03-2.26-.03-3.52,0-2.03-.03-2.3.03-8.64,0-.67.02-2.31.02-3.53,0-2.26-.38-4.31-1.03-5.76-1.53-3.39-5.2-7.16-12.82-7.16-1.18,0-4.39.24-7.65,2.56,0,0,0,0,0,0-1.89,1.31-3.27,3-4.34,4.73-1.29-2.53-4.75-7.31-12.36-7.31-1.48,0-6.2.38-10.14,4.81.01-1.34.03-1.83.05-2.35l.03-1.21h-3.74v1.18c0,.68.01.68.03,2.04.1,4.88.15,9.93.15,14.99,0,4.41-.06,10.57-.18,18.34v1.91h3.65v-1.9c-.13-7.37-.18-12.65-.18-16.13,0-4.26-.15-8.17.17-11.42.23-2.38,4.3-7.05,10.31-7.21.09,0,.18,0,.27,0,6.27,0,8.63,4.12,9.38,7.02.7,2.73.88,5.08.88,11.26,0,3.8-.08,9.16-.24,16.41l-.05,1.97h3.81v-1.9c-.12-7.37-.18-12.65-.18-16.13,0-4.26-.38-8.08.17-10.69.56-2.66,2.78-5.67,6.85-7.24,1.32-.42,2.82-.67,4.46-.67.14,0,.27,0,.4,0,5.45.45,7.75,4.17,8.45,6.89.7,2.73.67,5.17.67,11.35,0,3.8-.08,9.16-.24,16.41Z"/>
  <path class="cls-1" d="M244.98,28.83l-.23.4c-1.54,2.66-2.57,4.31-5.62,6.12-2.26,1.34-4.72,2.09-7.39,2.09-3.07,0-5.98-.9-8.66-2.67-3.11-2.05-5.19-5.24-6.28-8.87-.5-1.61-.75-4.04-.75-7.2l.04-8.63-.02-2.87h21.41v-3.03h-21.38c0-2.53.01-2.2.03-2.83l.02-1.33h-3.95l.05,1.35c.04.73.06.46.06,2.84l.09,4.24-.09,6.47v5.38c0,3.48.85,6.53,2.03,9.07,1.18,2.55,3.07,4.8,5.58,6.68,3.51,2.63,7.48,3.96,11.78,3.96s8.52-1.46,12.06-4.33c1.87-1.47,3.46-3.38,4.73-5.65l.67-1.19h-4.2Z"/>
  <path class="cls-1" d="M244.65,0c.76,0,1.5.2,2.23.59.73.39,1.29.95,1.7,1.68.4.73.61,1.49.61,2.28s-.2,1.53-.6,2.25c-.4.72-.96,1.28-1.68,1.68-.72.4-1.47.6-2.26.6s-1.54-.2-2.26-.6c-.72-.4-1.28-.96-1.68-1.68-.4-.72-.6-1.47-.6-2.25s.2-1.55.61-2.28c.41-.73.97-1.29,1.7-1.68.73-.39,1.47-.59,2.23-.59ZM244.65.75c-.64,0-1.26.16-1.86.49-.6.33-1.08.79-1.42,1.4-.34.61-.51,1.24-.51,1.9s.17,1.28.5,1.88c.33.6.8,1.07,1.4,1.4.6.33,1.23.5,1.88.5s1.28-.17,1.88-.5c.6-.33,1.07-.8,1.4-1.4.33-.6.5-1.22.5-1.88s-.17-1.29-.51-1.9c-.34-.61-.81-1.07-1.42-1.4-.61-.33-1.22-.49-1.86-.49ZM242.66,7.05V2.17h1.68c.57,0,.99.04,1.24.13.26.09.46.25.61.47.15.22.23.46.23.72,0,.36-.13.67-.38.93-.25.26-.59.41-1.01.44.17.08.31.16.41.26.2.19.44.51.72.97l.59.95h-.96l-.43-.77c-.34-.61-.62-.98-.82-1.14-.14-.11-.35-.17-.63-.17h-.47v2.07h-.79ZM243.45,4.3h.96c.46,0,.77-.07.93-.21.17-.14.25-.32.25-.54,0-.14-.04-.27-.12-.39-.08-.11-.19-.2-.33-.26-.14-.05-.4-.08-.79-.08h-.9v1.47Z"/>
  <path class="cls-1" d="M14.99,2.83c1.73,0,7.25.02,7.25.02h5.98l-4.13,5.48-2.59,3.54-10.86,14.11L0,39.68h33.99v-4.04l-.99.22c-3.28.75-7.56,1.2-14.56,1.2-4.22,0-8.15-.03-11.81-.1C17.84,22.26,27,10.34,33.85,1.53l1.03-1.32h-1.11S.9.21.9.21v3.84s.86-.24,1.43-.37c2.97-.68,6.75-.82,12.67-.84Z"/>
  <path class="cls-1" d="M207.12,24.66c0-.92.02-2.44.06-4.29.04-2.12.06-3.7.06-4.72,0-4.35-.6-7.56-1.82-9.82-1.08-1.97-2.82-3.52-5.16-4.59-1.27-.59-2.56-.94-3.84-1.05-.7-.06-2.01-.1-3.97-.13h-14.9v3.81l.93-.13c5.14-.75,9.18-1.13,12.53-1.13,2.96,0,4.87.26,6.38.77,1.47.5,2.8,1.44,3.69,2.71,1.09,1.55,1.95,3.32,2.48,6.65-1.97-1.37-3.83-2.4-5.54-3.06-2.18-.84-4.62-1.26-7.25-1.26-4.72,0-9,1.48-12.63,4.14-4.9,3.59-6.37,8.3-6.37,13.16,0,4.11,2.03,8.49,5.7,10.94,3.62,2.42,8.84,3.28,12.54,3.28,1.84,0,3.79-.31,5.8-.93,1.99-.62,3.78-1.47,5.32-2.53.76-.5,1.63-1.21,2.62-2.13-.1,2.22-.17,3.61-.22,4.22l-.06,1.18h3.97l-.04-1.15c-.16-3.65-.25-8.21-.25-13.94ZM203.85,30.14c-1.6,1.86-3,3.23-4.17,4.07-2.8,2-5.93,3.02-9.31,3.02s-8.26-.86-11.14-3.26c-3.72-3.06-3.88-6.9-3.88-8.63,0-2.66.69-4.59,1.5-6.14,1.47-2.82,3.43-4.84,6.26-6.48,2.22-1.29,4.85-1.69,7.55-1.69,2.91,0,5.64.66,8.12,1.96,1.22.61,2.78,1.71,4.64,3.26l.07.05c.11.07.23.16.34.27v4.46l.09,7.22c0,.21-.02.84-.07,1.9Z"/>
</svg>