<?xml version="1.0" encoding="UTF-8"?>
<svg id="CLIENTES" xmlns="http://www.w3.org/2000/svg" xmlns:xlink="http://www.w3.org/1999/xlink" version="1.1" viewBox="0 0 41.66 40">
  <defs>
    <style>
      .cls-1 {
        clip-path: url(#clippath);
      }

      .cls-2 {
        fill: none;
      }

      .cls-2, .cls-3, .cls-4 {
        stroke-width: 0px;
      }

      .cls-3 {
        fill: #9bbe1d;
      }

      .cls-4 {
        fill: #4d4a4b;
      }
    </style>
    <clipPath id="clippath">
      <rect class="cls-2" x="0" width="41.66" height="40"/>
    </clipPath>
  </defs>
  <g class="cls-1">
    <path class="cls-4" d="M21.58,13.64c1.38,0,2.51,1.12,2.51,2.5,0,.37-.08.72-.23,1.04-.79-.75-1.85-1.21-3.02-1.21-.62,0-1.22.13-1.75.36,0-.06,0-.13,0-.2,0-1.38,1.12-2.5,2.5-2.5M15.03,9.36c.28,0,.5-.22.5-.5s-.22-.5-.5-.5-.5.22-.5.5.22.5.5.5M13.76,11.03c-.24-.04-.47-.13-.67-.25.26.37.67.64,1.16.72.6.1,1.17-.12,1.56-.52-.09-.22-.22-.42-.39-.59-.38.48-1.01.75-1.66.64M21.56,7.61c0-.65-.24-1.24-.65-1.69.19.36.29.76.29,1.19,0,1.43-1.16,2.58-2.58,2.58-.59,0-1.14-.2-1.57-.53.46.59,1.18.97,1.98.97,1.39,0,2.52-1.13,2.52-2.52M20.83,17.28c-1.7,0-3.08,1.38-3.08,3.08s1.38,3.08,3.08,3.08,3.08-1.38,3.08-3.08-1.38-3.08-3.08-3.08M33.2,13.51c0,7.46-6.05,13.51-13.51,13.51s-13.51-6.05-13.51-13.51S12.23,0,19.69,0s13.51,6.05,13.51,13.51M29.1,8.65c-.46-.46-1.09-.75-1.79-.75-.23,0-.44.03-.65.09-1.37-2.55-4.07-4.29-7.17-4.29-4.49,0-8.13,3.64-8.13,8.13,0,2.23.9,4.25,2.35,5.72l1.14-.88s-1.04-1.5-1.27-2.07c-.23-.54-.22-.95-.15-1.33,0-.02,0-.04.01-.06,0,0,0-.01,0-.02,0-.01,0-.02,0-.03.17-.66.76-1.15,1.48-1.15.46,0,.87.2,1.15.52.44.41.73,1.4,1.3,3.64.12.49.12.98.04,1.44-.61.75-.97,1.71-.97,2.75,0,1.31.58,2.49,1.49,3.29-2.53.09-4.29.29-4.29.52,0,.32,3.22.57,7.19.57,2.42,0,4.39-1.97,4.39-4.39,0-.81-.22-1.57-.6-2.22,1.84-1.49,3.01-3.76,3.01-6.31,0-1.1-.22-2.16-.62-3.12.33-.16.71-.26,1.1-.26.35,0,.69.07.99.2M38.15,31.74v6.14h1.23v-7.36h0c-.67,0-1.22.55-1.22,1.22M17.87,31.74v6.14h1.23v-7.36h0c-.67,0-1.22.55-1.22,1.22M2.68,32.37c-.61,0-1.08.23-1.45.73v-2.57h0C.55,30.52,0,31.07,0,31.74v6.14h1.23v-2.71c.05-1.05.35-1.58,1.17-1.58.94,0,1.12.62,1.12,1.9v2.39h1.26v-3.1c0-1.57-.76-2.42-2.09-2.42M16.18,32.48h1.13v4.51c0,1.91-1.1,3.01-2.81,3.01-1.31,0-2.2-.63-2.61-1.82h1.22c.26.48.78.78,1.37.78.98,0,1.69-.68,1.69-1.78v-.05c-.49.51-1.13.76-1.85.76s-1.38-.25-1.88-.72c-.54-.51-.87-1.27-.87-2,0-1.63,1.15-2.83,2.75-2.83.74,0,1.34.26,1.86.79v-.65ZM16.06,35.15c0-.95-.75-1.67-1.61-1.67s-1.63.69-1.63,1.61c0,.97.74,1.66,1.64,1.66.84,0,1.6-.73,1.6-1.6M36.31,32.48h1.23v5.41h-1.22v-.66c-.3.54-.85.79-1.68.79-1.61,0-2.81-1.24-2.81-2.85,0-.76.27-1.46.78-1.98.54-.58,1.19-.84,2-.84s1.35.26,1.7.79v-.65ZM36.18,35.2c0-.91-.73-1.61-1.52-1.61-.84,0-1.54.67-1.54,1.55,0,.94.71,1.6,1.56,1.6.79,0,1.5-.7,1.5-1.54M7.98,32.37c-.62,0-1.08.23-1.45.73v-2.57h0c-.67,0-1.22.55-1.22,1.22v6.14h1.23v-2.73c.06-1.04.35-1.56,1.17-1.56.94,0,1.12.62,1.12,1.9v2.39h1.26v-3.1c0-1.57-.76-2.42-2.09-2.42M28.64,32.34c-.6,0-1.15.19-1.6.5v-.38s0,0,0,0v-1.93h0s0,0,0,0h0c-.67,0-1.22.55-1.22,1.22v2.25l-2.22,2.22-.09.09c-.63.62-1.64.62-2.26,0-.62-.63-.62-1.64,0-2.26.63-.62,1.64-.62,2.26,0,.31.31.46.73.46,1.14l1.04-1.04c-.14-.35-.34-.68-.62-.97-1.1-1.11-2.9-1.12-4.01-.01-1.11,1.1-1.12,2.9-.01,4.01,1.1,1.11,2.9,1.12,4.01.01,0,0,0,0,0,0h0s1.19-1.19,1.19-1.19l1.95-1.94c.29-.29.69-.47,1.13-.47.88,0,1.6.72,1.6,1.6s-.72,1.6-1.6,1.6-1.6-.72-1.6-1.6c0,0,0-.02,0-.03l-1.04,1.04c.41,1.06,1.43,1.83,2.64,1.83,1.57,0,2.83-1.27,2.83-2.83,0-1.56-1.27-2.83-2.83-2.83"/>
    <path class="cls-3" d="M22.61,20.36c0,.98-.8,1.78-1.77,1.78s-1.77-.79-1.77-1.78.79-1.77,1.77-1.77,1.77.79,1.77,1.77"/>
    <path class="cls-4" d="M41.66,30.23c0,.39-.31.7-.71.7s-.71-.31-.71-.7.32-.69.71-.69.71.31.71.69M40.41,30.23c0,.31.23.55.54.55s.53-.25.53-.55-.22-.56-.53-.56-.53.25-.53.55M40.84,30.59h-.16v-.69c.06-.01.15-.02.27-.02.13,0,.19.02.24.05.04.03.07.08.07.15,0,.08-.06.14-.14.16h0c.07.03.11.08.13.18.02.11.03.15.05.17h-.17s-.03-.09-.05-.17c-.01-.08-.06-.11-.14-.11h-.08v.28ZM40.84,30.2h.08c.09,0,.16-.03.16-.1,0-.06-.05-.1-.15-.1-.04,0-.07,0-.09,0v.2Z"/>
  </g>
</svg>