<?xml version="1.0" encoding="UTF-8"?>
<svg id="CLIENTES" xmlns="http://www.w3.org/2000/svg" version="1.1" viewBox="0 0 261.43 40">
  <defs>
    <style>
      .cls-1 {
        fill: #231f20;
        stroke-width: 0px;
      }
    </style>
  </defs>
  <polygon class="cls-1" points="216.4 30.52 215.9 1.19 225.14 1.19 225.14 38.18 211.85 38.18 202.6 7.84 202.39 7.84 202.91 38.18 193.73 38.18 193.73 1.19 207.61 1.19 216.2 30.52 216.4 30.52"/>
  <polygon class="cls-1" points="48.28 4.65 43.16 38.56 33.07 38.56 39.99 1.19 56.62 1.19 63.5 38.56 53.46 38.56 48.49 4.65 48.28 4.65"/>
  <polygon class="cls-1" points="91.83 29.77 96.44 1.19 111.68 1.19 112.51 38.56 103.16 38.56 102.91 4.97 102.71 4.98 96.47 38.56 86.99 38.56 80.75 4.97 80.54 4.97 80.31 38.56 70.96 38.56 71.79 1.19 87.02 1.19 91.62 29.77 91.83 29.77"/>
  <path class="cls-1" d="M17.34,28.02c.37.9.24,2.06.07,2.77-.3,1.22-1.14,2.49-3.64,2.49-2.33,0-3.76-1.34-3.76-3.37v-3.62H0v2.89c0,8.33,6.55,10.83,13.57,10.83s12.31-2.29,13.21-8.52c.46-3.23.12-5.34-.04-6.15-1.58-7.82-15.75-10.13-16.82-14.52-.18-.77-.14-1.52-.04-1.95.27-1.2,1.09-2.51,3.42-2.51,2.19,0,3.47,1.35,3.47,3.38v2.31h9.32v-2.61C26.1,1.27,18.79,0,13.5,0,6.85,0,1.44,2.2.44,8.31c-.27,1.64-.31,3.14.09,5.03,1.62,7.63,14.89,9.84,16.82,14.68"/>
  <path class="cls-1" d="M138.82,27.94c.35.9.25,2.04.08,2.74-.31,1.23-1.14,2.46-3.61,2.46-2.32,0-3.72-1.31-3.72-3.33v-3.59h-9.93v2.85c0,8.25,6.49,10.72,13.45,10.72s12.19-2.26,13.07-8.43c.45-3.19.12-5.28-.03-6.09-1.56-7.74-15.61-10.04-16.64-14.37-.18-.75-.13-1.51-.04-1.92.26-1.19,1.06-2.49,3.38-2.49,2.16,0,3.44,1.34,3.44,3.33v2.29h9.22v-2.58c0-8.06-7.24-9.32-12.46-9.32-6.58,0-11.96,2.15-12.94,8.21-.28,1.63-.31,3.12.08,4.98,1.61,7.56,14.75,9.75,16.66,14.54"/>
  <path class="cls-1" d="M170.17,32.95c2.59,0,3.41-1.76,3.59-2.69.08-.41.09-.95.09-1.43V1.19h9.47v26.78c0,.69-.06,2.1-.1,2.47-.66,6.96-6.17,9.21-13.05,9.21s-12.39-2.25-13.02-9.21c-.04-.37-.11-1.78-.09-2.47V1.19h9.44v27.64c0,.48,0,1.03.09,1.43.18.93,1,2.69,3.59,2.69"/>
  <path class="cls-1" d="M248.11,32.57c2.7,0,3.67-1.7,3.84-2.7.07-.42.1-.94.08-1.42v-5.43h-3.85v-5.46h13.24v10.03c0,.7-.01,1.22-.12,2.47-.62,6.8-6.53,9.23-13.16,9.23s-12.52-2.43-13.13-9.23c-.11-1.25-.12-1.76-.12-2.47v-15.73c0-.67.08-1.84.16-2.44.83-7.02,6.48-9.24,13.11-9.24s12.45,2.21,13.14,9.24c.11,1.17.07,2.44.07,2.44v1.25s-9.4,0-9.4,0v-2.1s-.01-.89-.12-1.41c-.17-.82-.9-2.72-3.76-2.72s-3.51,1.79-3.72,2.72c-.11.47-.15,1.14-.15,1.75v17.09c0,.47.02,1,.09,1.42.18,1,1.12,2.7,3.82,2.7"/>
</svg>