<?xml version="1.0" encoding="UTF-8"?>
<svg id="CLIENTES" xmlns="http://www.w3.org/2000/svg" version="1.1" viewBox="0 0 184.09 40">
  <defs>
    <style>
      .cls-1 {
        fill: #005097;
        stroke-width: 0px;
      }
    </style>
  </defs>
  <path class="cls-1" d="M30.85,17.53h-6.78l-.54.81h-10.83l-1.12,1.8h10.71l-.56.82h6.49l.62-.82h19.61l1.12-1.8h-19.35l.62-.81ZM23.82,26.86h-6.1l-.56.82H6.91l-1.13,1.81h13.28l.84.81h4.21l-.63-.81h19.16l1.13-1.81h-20.7l.74-.82ZM25.12,31.57h-3.88l.84.8H4l-1.1,1.78h21.01l.85.8h2.97l-.63-.8h12.67l1.09-1.78h-15.14l-.62-.8ZM28.7,36.2h-2.63l.84.82H1.13l-1.13,1.81h28.81l1.22,1.16.72-1.16h6.12l1.13-1.81h-8.66l-.63-.82ZM38.01,8.18h-7.59l-.55.81h-11.38l-1.09,1.76h11.28l-.56.82h7.29l.64-.82h18.23l1.1-1.76h-17.97l.62-.81ZM27.29,22.18h-6.38l-.55.81h-10.54l-1.11,1.8h10.43l-.55.82h6.09l.62-.82h20.29l1.11-1.8h-20.02l.62-.81ZM34.45,12.83h-7.19l-.56.82h-11.1l-1.12,1.81h10.99l-.55.81h6.9l.62-.81h18.92l1.12-1.81h-18.64l.62-.82ZM38.11,4.32l1.58-2.56h.29l1.1-1.76h-.88l-1.09,1.76h.28l-1.58,2.56h-16.42l-1.11,1.79h11.56l-.56.83h7.69l.64-.83h17.54l1.11-1.79h-20.15Z"/>
  <path class="cls-1" d="M59.72,33.1l10.47-16.88h5.21l3.07-4.92h-5.23l4.26-6.99h-7.2l-4.34,6.99h-3.81l-3.04,4.92h3.81l-10.57,17.05c-.62,1-.95,2.03-.95,2.98,0,2.09,1.37,3.75,4.03,3.75h6.86l3.1-5.16h-4.94c-1,0-1.28-.87-.75-1.74"/>
  <path class="cls-1" d="M92.4,23.3h-11.88l.4-.64c2.19-3.52,5.24-5.88,9.05-5.88,4.09,0,5.13,2.16,3.78,4.33l-1.35,2.19ZM91.43,12.81c-11.23,0-15.32,5.7-19.06,11.78-2.44,3.96-4.77,8.24-4.77,10.42,0,3.09,2.79,4.99,7.05,4.99h13.36l3.76-6.05h-14.12c-1.24,0-2.14-.61-2.14-1.63,0-1.14,2.03-4.23,2.03-4.23h17.91l3.41-5.5c.79-1.28,1.77-2.82,1.77-4.66,0-3.29-3.62-5.12-9.2-5.12"/>
  <path class="cls-1" d="M129.54,18.61h6.18l3.65-5.77h-8.18c-7.26,0-13.9,3.03-18.48,9.77-2.58,3.81-6.05,9.27-6.05,12.6s3.12,4.79,7.51,4.79h10.88l3.81-6.05h-12.3c-1.26,0-2.17-.6-2.17-1.59s.82-2.39,1.98-4.27c3.12-5.05,7.26-9.48,13.16-9.48"/>
  <polygon class="cls-1" points="113.49 4.31 91.35 40 98.59 40 120.73 4.31 113.49 4.31"/>
  <polygon class="cls-1" points="176.86 4.31 154.72 40 161.95 40 184.09 4.31 176.86 4.31"/>
  <path class="cls-1" d="M155.75,23.3h-11.88l.4-.64c2.19-3.52,5.24-5.88,9.06-5.88,4.09,0,5.13,2.16,3.78,4.33l-1.35,2.19ZM154.77,12.81c-11.23,0-15.32,5.7-19.06,11.78-2.44,3.96-4.77,8.24-4.77,10.42,0,3.09,2.79,4.99,7.05,4.99h13.36l3.76-6.05h-14.12c-1.24,0-2.14-.61-2.14-1.63,0-1.14,2.04-4.23,2.04-4.23h17.91l3.41-5.5c.79-1.28,1.77-2.82,1.77-4.66,0-3.29-3.62-5.12-9.2-5.12"/>
</svg>