<?xml version="1.0" encoding="UTF-8"?>
<svg id="CLIENTES" xmlns="http://www.w3.org/2000/svg" version="1.1" viewBox="0 0 278.72 40.08">
  <defs>
    <style>
      .cls-1, .cls-2, .cls-3, .cls-4, .cls-5, .cls-6, .cls-7, .cls-8, .cls-9 {
        stroke: #223f99;
      }

      .cls-1, .cls-2, .cls-3, .cls-4, .cls-5, .cls-6, .cls-7, .cls-8, .cls-9, .cls-10 {
        stroke-width: .16px;
      }

      .cls-1, .cls-11, .cls-12 {
        fill: #223f99;
      }

      .cls-2, .cls-3, .cls-4, .cls-7 {
        stroke-linecap: round;
      }

      .cls-2, .cls-4, .cls-5, .cls-9 {
        fill: none;
      }

      .cls-3, .cls-6, .cls-7, .cls-10, .cls-13 {
        fill: #fff;
      }

      .cls-4, .cls-5, .cls-7, .cls-8 {
        stroke-linejoin: round;
      }

      .cls-14, .cls-8 {
        fill: #f9d4e4;
      }

      .cls-14, .cls-15, .cls-12, .cls-13 {
        stroke-width: 0px;
      }

      .cls-11 {
        stroke: #25408f;
        stroke-width: .03px;
      }

      .cls-15 {
        fill: #eb008b;
      }

      .cls-10 {
        stroke: #eb008b;
      }
    </style>
  </defs>
  <g>
    <path class="cls-15" d="M260.14,33.27c10.87-4.02,17.4-13.46,14.58-21.08-2.82-7.63-13.92-10.56-24.78-6.54-10.87,4.02-17.39,13.46-14.57,21.08,2.82,7.63,13.91,10.55,24.78,6.54Z"/>
    <path class="cls-13" d="M243.56,10.37l.66-.24.38,1.04,1.23-.45-.39-1.04.65-.24,1.06,2.86-.65.24-.48-1.3-1.23.46.48,1.3-.65.24-1.06-2.86Z"/>
    <path class="cls-13" d="M247.5,8.92l.78-.29,2.16,2.45-.7.26-.46-.5-1.11.41.02.66-.7.26v-3.25ZM248.93,10.42l-.76-.91.02,1.18.74-.27Z"/>
    <path class="cls-13" d="M250.88,9.9c.06.16.16.25.32.28.15.03.32.02.5-.05.23-.08.38-.18.46-.27.07-.1.1-.21.07-.33-.02-.08-.08-.13-.17-.16-.08-.03-.18-.04-.28-.03-.1,0-.25.02-.44.05-.19.03-.31.05-.36.05-.21.03-.39.02-.56,0-.16-.04-.29-.09-.39-.17-.1-.08-.17-.18-.21-.29-.04-.12-.05-.24-.04-.37.02-.13.06-.25.14-.37.07-.12.18-.23.32-.34.14-.1.32-.2.53-.27.43-.16.77-.18.99-.07.23.11.39.29.49.57l-.61.22c-.06-.15-.16-.24-.31-.26-.15-.02-.31,0-.49.06-.35.13-.51.29-.45.48.03.09.1.15.22.18.11.03.28.04.5,0,.34-.05.62-.07.85-.06.22.01.4.06.55.15.14.09.25.22.31.39.05.17.05.33,0,.5-.05.17-.16.32-.32.47-.16.15-.39.27-.67.38-.14.05-.29.09-.45.1-.16.01-.32,0-.48-.03-.16-.03-.3-.1-.42-.19-.13-.1-.22-.23-.28-.4l.66-.24Z"/>
    <path class="cls-13" d="M253.37,7.34l-.94.35-.19-.52,2.49-.92.19.52-.9.33.87,2.34-.65.24-.87-2.34Z"/>
    <path class="cls-13" d="M256,5.78l.78-.29,2.16,2.45-.7.26-.46-.5-1.1.41v.66s-.69.26-.69.26v-3.25ZM257.44,7.27l-.76-.91.02,1.18.74-.27Z"/>
    <path class="cls-13" d="M245.04,22.9c-.12-1.12-.14-2.2-.06-3.24.1-1.03.3-2.08.6-3.15l-4.5,1.66-.71-1.92,6.31-2.33.66,1.79c-.22,1.09-.37,1.88-.46,2.38-.08.5-.14,1.17-.16,1.98-.03.81.02,1.72.15,2.7.12.98.38,2.04.73,3.17l-1.89.7c-.34-1.37-.56-2.62-.68-3.74Z"/>
    <path class="cls-13" d="M252.18,21.08c.14.37.35.64.67.8.32.16.64.2.96.1.37-.16.62-.46.76-.87.12-.43.08-.99-.18-1.66-.26-.65-.59-1.09-.98-1.33-.38-.24-.76-.29-1.12-.16-.23.08-.41.24-.56.43-.14.21-.24.47-.26.78l-1.57.58-1.5-6.32,4.75-1.75.72,1.95-3.56,1.32.45,2.28c.32-.52.77-.89,1.36-1.11.47-.17.95-.21,1.44-.11.5.1.97.36,1.43.81.47.44.86,1.06,1.17,1.87.23.58.36,1.21.42,1.87.05.66-.06,1.29-.35,1.89-.28.59-.8,1.03-1.57,1.32-.59.22-1.13.29-1.61.23-.49-.06-.92-.22-1.27-.47-.36-.23-.65-.51-.88-.79-.22-.28-.37-.54-.47-.77,0-.07-.02-.13-.04-.2l1.81-.67Z"/>
    <path class="cls-13" d="M254.98,12.42c.03-.52.19-.94.45-1.3.28-.36.64-.64,1.09-.81.7-.26,1.31-.21,1.87.14.56.35,1.01.97,1.33,1.85.22.58.31,1.11.3,1.6-.02.5-.15.91-.39,1.26-.25.35-.59.62-1.03.78-.45.17-.88.21-1.33.11-.43-.09-.82-.31-1.17-.67-.35-.34-.64-.8-.85-1.36-.21-.57-.29-1.11-.27-1.61ZM257.18,14.38c.28.14.54.16.8.07.26-.09.44-.29.54-.57.11-.3.09-.63-.05-1.03-.14-.38-.35-.66-.59-.81-.26-.15-.53-.17-.81-.07-.29.1-.47.3-.58.56-.1.28-.08.62.07,1.02.15.4.35.66.63.82ZM265.08,17.64c.27.16.55.18.82.08.26-.1.43-.28.53-.56.11-.3.09-.63-.05-1.01-.15-.41-.36-.7-.6-.84-.25-.15-.51-.18-.8-.07-.29.1-.49.3-.6.57-.1.28-.08.62.07,1.02.15.4.35.67.63.81ZM262.89,15.69c.04-.5.18-.94.46-1.31.28-.36.64-.64,1.09-.81.33-.12.66-.17.98-.15.32.02.62.14.91.31.26.16.53.42.74.72.23.3.42.68.58,1.11.21.57.31,1.11.3,1.6-.02.49-.15.93-.39,1.28-.25.35-.59.62-1.03.78-.45.17-.9.21-1.33.11-.45-.1-.84-.32-1.19-.66-.36-.36-.64-.81-.85-1.38-.21-.57-.3-1.11-.27-1.61ZM261.31,8.51l1.07-.4-.77,12.93-1.06.39.75-12.93Z"/>
    <rect class="cls-10" x="236.43" y="23.86" width="42.53" height="5.56" transform="translate(6.45 89.83) rotate(-20.02)"/>
    <path class="cls-15" d="M241.12,31.19l1.45-.54c.23-.08.45-.12.66-.12.21,0,.4.06.57.14.16.09.31.2.43.35.12.14.22.3.28.48.06.18.1.36.1.55,0,.19-.03.37-.11.54-.07.17-.18.33-.33.47-.16.14-.34.25-.57.34l-1.45.54-1.02-2.75ZM243.31,32.94c.16-.06.28-.15.37-.28.08-.13.13-.27.14-.43,0-.15-.02-.31-.07-.46-.06-.16-.14-.29-.25-.41-.11-.11-.24-.19-.38-.23-.14-.04-.3-.03-.46.03l-.64.24.66,1.78.64-.24Z"/>
    <path class="cls-15" d="M244.75,29.86l2.52-.93.18.5-1.76.65.21.57,1.62-.6.19.51-1.62.6.25.67,1.85-.68.19.51-2.61.97-1.02-2.75Z"/>
    <path class="cls-15" d="M252.68,26.94l.86-.32,2.24,2.3-.77.28-.48-.46-1.22.45v.64s-.79.29-.79.29l.16-3.19ZM254.17,28.35l-.79-.86-.03,1.16.82-.3Z"/>
    <path class="cls-15" d="M255.36,25.96l.72-.27.37,1,1.36-.5-.37-1,.72-.26,1.02,2.75-.72.26-.46-1.25-1.36.5.46,1.25-.72.27-1.02-2.75Z"/>
    <path class="cls-15" d="M259.21,25.35c.03-.25.14-.5.34-.74.19-.24.5-.44.91-.59.28-.1.56-.15.86-.14.28.01.55.1.79.27.23.17.43.41.56.73.08.19.11.39.11.58,0,.19-.04.38-.13.56-.09.18-.22.35-.41.5-.18.15-.42.28-.71.39-.22.08-.45.13-.67.15-.23.02-.44,0-.65-.06-.21-.06-.39-.17-.56-.33-.17-.15-.31-.35-.39-.61-.07-.22-.08-.46-.05-.71ZM260.15,24.89c-.1.14-.16.3-.18.48-.02.17,0,.34.06.5.06.16.16.29.28.4.13.11.28.18.46.21.18.03.38,0,.59-.08.16-.06.29-.13.39-.22.1-.09.18-.19.22-.3.05-.11.07-.22.07-.34,0-.12-.02-.24-.07-.35-.05-.13-.11-.24-.2-.34-.09-.1-.2-.18-.31-.24-.12-.06-.26-.09-.41-.1-.15,0-.31.02-.48.08-.18.07-.32.18-.42.32Z"/>
    <path class="cls-15" d="M262.85,23.2l1.95-.72c.13-.05.26-.08.39-.08.13,0,.25.01.35.05.1.04.19.09.27.16.07.07.13.16.16.25.05.14.05.28,0,.44-.05.15-.15.31-.3.47.06,0,.11,0,.18,0,.06.01.13.03.19.07.06.03.09.08.12.15l.27.6c.03.06.06.1.11.13.05.03.08.04.11.03l.06.14-.76.28c-.15-.13-.26-.3-.36-.52-.02-.06-.04-.13-.07-.23-.03-.08-.06-.13-.1-.16-.03-.03-.09-.05-.17-.04-.07,0-.19.04-.34.1l-.71.26.4,1.1-.72.27-1.02-2.75ZM264.93,23.74c.15-.06.25-.14.31-.24.06-.1.07-.2.03-.29-.03-.09-.1-.15-.21-.18-.11-.03-.23-.02-.39.03l-.91.34.25.68.93-.34Z"/>
    <path class="cls-15" d="M266.48,21.86l1.94-.72c.13-.05.26-.08.39-.08.13,0,.25.01.35.05.1.04.19.09.27.16.07.07.13.16.16.25.05.14.06.28,0,.44-.05.15-.14.31-.3.46.06,0,.11,0,.18,0,.06,0,.13.03.19.07.06.03.09.09.12.15l.27.6c.03.06.06.1.11.13.05.03.08.04.11.03l.05.15-.76.28c-.14-.13-.26-.3-.36-.52-.02-.06-.04-.14-.07-.23-.03-.08-.06-.14-.1-.16-.03-.04-.09-.05-.17-.04-.07,0-.19.04-.34.1l-.72.26.41,1.09-.73.27-1.02-2.75ZM268.56,22.4c.15-.06.25-.13.3-.24.06-.1.07-.2.03-.29-.03-.09-.1-.15-.21-.18-.11-.03-.24-.02-.39.03l-.92.34.25.68.93-.34Z"/>
    <path class="cls-15" d="M270.39,21.23c.02-.25.14-.5.33-.74.19-.24.5-.44.91-.59.28-.1.56-.15.86-.13.28.01.55.1.79.27.23.17.43.41.56.73.08.19.11.39.11.58,0,.19-.04.37-.13.56-.08.18-.22.35-.41.5-.18.15-.42.29-.71.39-.22.08-.45.13-.67.15-.23.02-.44,0-.65-.06-.2-.06-.39-.17-.56-.33-.17-.15-.3-.35-.39-.61-.07-.22-.08-.46-.05-.72ZM271.32,20.78c-.1.14-.16.3-.18.48-.01.17,0,.34.06.5.06.16.16.29.28.4.13.11.28.18.46.21.18.03.38,0,.6-.08.16-.06.29-.13.39-.23.1-.09.18-.19.22-.3.05-.11.07-.22.07-.34,0-.12-.02-.24-.07-.35-.05-.13-.11-.24-.2-.34-.09-.1-.2-.18-.32-.24-.12-.06-.26-.1-.41-.11-.15,0-.31.02-.48.08-.18.07-.32.18-.41.32Z"/>
    <path class="cls-15" d="M275.04,18.92l.14.39.33-.27.14.17-.34.26.36.24-.13.19-.35-.26-.11.43-.23-.06.12-.42-.43.02v-.22h.43s-.14-.4-.14-.4l.21-.08Z"/>
  </g>
  <g>
    <path class="cls-13" d="M9.74,15.75s1.54-5.64,2.54-7.12l1.36,1.7.83,3.19-4.73,2.23Z"/>
    <path class="cls-14" d="M14.04,2.64s1.66-1.87,3.79-1.87,3.59,2.21,3.59,2.21l-7.37-.34Z"/>
    <path class="cls-14" d="M28.83,5.2s.06-.06.08-.2c.02-.14-.28-.83-.18-1.03.1-.2.31-.37.51-.55.2-.18.35-.47.26-.63-.1-.16-.87-.99-.97-1.12-.1-.14.2-.93.77-.63.57.3.93.2,1.38,1.97,0,0,4.32-1.34,4.57.53,0,0,.89.26.89.79s-.37.75-.37.75c0,0,.22.06.26.39.04.34-.93.89-2.15.83,0,0-1.5.55-2.56.57,0,0-.35.18-.37.32l-2.11-1.99Z"/>
    <path class="cls-14" d="M7.31,5.2l-1.93,2.23s-.12-.18-.24-.18-.75-.02-1.01-.08c-.26-.06-1.04-.3-1.22-.32-.18-.02-1.7.1-1.95,0-.26-.1-.73-.14-.42-.81,0,0-.45-.2-.47-.69-.02-.49.65-.77.65-.77,0,0-.02-.65.99-1.02,1.01-.38,1.52-.32,2.15-.26.63.06,1.28.02,1.38-.12,0,0-.02-.89.61-1.52.63-.63,1.32-.18,1.38-.04.06.14.1.2-.06.45-.16.26-.57.81-.38,1.38.2.57.53.87.51,1.73Z"/>
    <path class="cls-7" d="M25.25,25.13c-.67,3.27-2.93,7.86-2.93,7.86,3.66,1.1,5.06,2.09,5.06,2.09-4.74,1.31-9.24.39-9.71.3v-10.81"/>
    <path class="cls-7" d="M17.61,25.07v10.31s-6.03.99-10.01-.24c0,0,.93-.84,5.32-2.33,0,0-1.64-3.06-2.65-7.47"/>
    <path class="cls-3" d="M23.13,8.57c.52-.19,4.39-2.68,5.11-3.94,0,0,2.42,2.13,2.9,2.81,0,0-.42,3.2-5.59,7.88"/>
    <path class="cls-7" d="M23.05,9.02s3.25,5.86,4.33,15.1c0,0-4.44,2.28-6.89,2.91,0,0-2.2,1.04-2.86-2.2,0,0-.26,2.86-2.67,2.35,0,0-2.89-.95-6.67-2.8,0,0-.09-2.39,1.55-9.07,0,0,1.57-5.23,2.33-6.48l-.04-.26s-2.43-2.26-4.39-3.66c0,0-1.44,1.14-2.48,2.72,0,0,1.23,3.08,4.5,7.62"/>
    <path class="cls-6" d="M13.39,10.96c.79,2.31,2.31,6.07,4.33,8.04,0,0,2.17-1.9,4.5-8.59"/>
    <path class="cls-5" d="M13.81,3.76s-.24-.49-.67-.63c0,0-1.12.39-2.56,1.27"/>
    <path class="cls-5" d="M10.89,3.08s1.01-1.27,1.57-1.57c0,0,.54.22,1.83,1.53"/>
    <path class="cls-5" d="M13.99,3.38s-.56-.6-1.38-.84c0,0-.37.06-1.96,1.38"/>
    <path class="cls-8" d="M14.13,2.52c-.11.13-.71.82-.81,1.36,0,0-.02-.56-.89-.21,0,0-.9.47-1.11,1.63,0,0-.08,1.79.93,1.29,0,0-1.07,2.94,1.74,4.86,0,0,3.5,3.17,7.61-.4,0,0,2.42-2.18,1.29-4.62,0,0,.29.57.71,0,0,0,1.03-2.15-1.1-2.92,0,0-.73-.16-.79.53,0,0,.11-.15.03-.48,0,0-.29-.63-.5-.84"/>
    <path class="cls-12" d="M3.92,3.75s-.99.97-1.13,2.69c0,0-.22-.05.22-1.49,0,0,.4-.92.92-1.21Z"/>
    <path class="cls-4" d="M5.17,3.26c-.19.03-.99.11-1.47.03,0,0-1.5-.26-2.74.74,0,0-.21.24-.21.52"/>
    <path class="cls-4" d="M3.38,4.39s-1.57-.58-3.04.44c0,0-.71.61.21,1.2"/>
    <path class="cls-4" d="M2.88,5.52c-.24-.02-1.13-.18-2.21.42,0,0-.65.47.19.9,0,0,.29.06.59.03,0,0,.74-.03,1.45-.01l.26.05s.67.27,1.92.35c0,0,.25.01.32.14"/>
    <path class="cls-4" d="M5.34,5.22c.14-.01.53-.11.83.41,0,0,.23.34.36.39"/>
    <path class="cls-12" d="M33.79,5.79c.01.07-.02.12-.05.12,0,0-.48-1.79-1.59-2.79,0,0,.14-.2,1.06,1.11,0,0,.41.65.58,1.56Z"/>
    <path class="cls-2" d="M28.91,5.21c.06-.17.02-.23,0-.36,0,0-.52-.82.19-1.29,0,0,.73-.39.26-.95,0,0-.39-.43-.65-.71,0,0-.42-.32,0-.75,0,0,.26-.34.89-.02,0,0,.87.34,1.08,1.91,0,0,2.36-.61,3.23-.44,0,0,1.37.08,1.36.94"/>
    <path class="cls-2" d="M32.88,3.82s1.24-.39,2.57-.23c0,0,.52.16.66.65,0,0,.2.45-.39.78"/>
    <path class="cls-2" d="M33.58,5.1c.29-.08,1.21-.31,2.25-.05,0,0,.55.44-.11.84,0,0-.5.44-1.87.4,0,0-1.02.48-2.37.57,0,0-.34-.02-.5.34"/>
    <path class="cls-2" d="M30.8,4.78s-.52.07-.61.1c0,0-.61.02-.52,1.08"/>
    <path class="cls-1" d="M15.75,9.67s1.88,1.92,3.66-.14c0,0,.06.02.06.1-.71,1.34-1.82,1.27-1.82,1.27,0,0-1.15.17-1.97-1.17l.08-.06Z"/>
    <path class="cls-12" d="M15.68,9.67c.21.92,2.62,2.29,3.8-.08"/>
    <path class="cls-12" d="M16.46,12.6s.88.41,2.24,0c0,0,.1.28-.64,1.47,0,0,.55,1.28.88,3.33,0,0-.29.52-1.22,1.64,0,0-1.21-1.39-1.31-1.73,0,0,.34-1.73.86-3.13,0,0-.78-1.23-.82-1.57"/>
    <path class="cls-11" d="M15.72,10.5c.22.31.7,1.04,1.86,1.07,0,0,.98.12,1.72-.85,0,0-.4.94-1.73.94,0,0-1.38.01-1.86-1.16Z"/>
    <path class="cls-12" d="M15.99,5.07c.29.1.53-.02.7-.44.14-.36.02-.78-.19-.86-.21-.08-.53.1-.67.46-.14.36-.06.76.16.83Z"/>
    <path class="cls-12" d="M18.89,5.12c.32-.1.37-.4.3-.74-.07-.33-.29-.62-.59-.55-.3.08-.35.48-.28.82.07.34.36.54.58.47Z"/>
    <path class="cls-12" d="M17.41,8.43c.05-.17.27.19.66-.07,0,0,.32.94,1.29,1.18.06.22-1.95,2.02-3.59.13,0,0,1.29-.18,1.63-1.24Z"/>
    <path class="cls-12" d="M22.62,4.02c-.08-.05-.4-.22-.42.13,0,0,.13.55.73,1.65,0,0,.18.35.41-.07,0,0,.21-.35-.12-1.01,0,0-.22-.51-.6-.71Z"/>
    <path class="cls-12" d="M13,4.52c.05-.13.09-.42-.22-.45,0,0-.38-.05-.76.75,0,0-.28.84.02,1.05,0,0,.15.11.28,0,0,0,.34-.39.67-1.36Z"/>
    <path class="cls-4" d="M4.97,3.89c.21-.23.28-.66.28-.66-.03-.23.08-.63.08-.63.61-1.59,1.7-1.16,1.7-1.16.57.37.08.76.08.76-.55.74-.25,1.38-.25,1.38.23.38.31.64.31.64.14.34.14.84.14,1.03"/>
    <path class="cls-4" d="M18.81,12.6c.22.35,1.1,1.62,1.18,2,0,0,.88-1.29,1.46-3.45"/>
    <path class="cls-9" d="M16.31,12.6c-.2.33-.43.73-.9,1.87,0,0-.99-1.79-1.25-2.86,0,0,.67.56,2.15.99Z"/>
    <path class="cls-5" d="M21.29,2.76c.15-.22.56-.73,1.06-1.21,0,0,.15-.22.39.02,0,0,1.14.97,1.57,1.55"/>
    <path class="cls-5" d="M21.54,3.08s.58-.43,1.21-.71c0,0,1.06.67,1.7,1.29"/>
    <path class="cls-5" d="M21.74,3.43s.82-.3,1.31-.24l.28.22s.37.45.47.58c0,0,.49.67.8.84"/>
    <path class="cls-8" d="M17.67,7.59c1.04,0,1.89-.53,1.89-1.19s-.85-1.19-1.89-1.19-1.89.53-1.89,1.19.85,1.19,1.89,1.19Z"/>
    <path class="cls-7" d="M15.82,6.62c-.04-.11-.27.14-.34.19,0,0-1.17.99-1.47,1.02,0,0-1.04.51-1.19-1.02,0,0-.36,1.45.64,2.25,1,.8,3.66,1.27,4.22-1.47,0,0-1.52,0-1.86-.98Z"/>
    <path class="cls-4" d="M16.98.85c.26-.05,1.02-.16,1.77.06"/>
    <path class="cls-7" d="M14.6,2.52c-.12.2-.31.29-.5-.2,0,0-.03-1.08.65-1.78,0,0,.48-.76,1.69-.34,0,0,.39.22.45.44,0,0,.23.37-.16.55,0,0-.71.18-1.18.4,0,0-.6.31-.95.92Z"/>
    <path class="cls-7" d="M19.01,1.4c.15.05.95.1,1.68,1.2,0,0,.42.48.74-.15,0,0,.23-.69-.67-1.74,0,0-.22-.32-.98-.44,0,0-.41-.07-.64.12,0,0-.4.3-.36.7,0,0-.04.21.23.31Z"/>
    <path class="cls-7" d="M19.53,6.61c.06-.1.33.18.4.24,0,0,.66.54,1.16.85,0,0,1.07.56,1.31-.84,0,0,.49,1.82-.9,2.48-.94.52-3.09.69-3.65-1.74,0,0,1.19-.09,1.69-.99Z"/>
    <path class="cls-12" d="M19.36,5.27s-.15.05-.02.1c0,0,.54.07.6-.54.04-.2-.03-.54-.08-.54,0,0,.18.84-.5.98Z"/>
    <path class="cls-12" d="M15.77,5.27s.15.05.02.1c0,0-.55.07-.6-.54-.04-.2.03-.54.09-.54,0,0-.18.84.5.98Z"/>
    <path class="cls-12" d="M10.19,39.82c-.13,0-.21-.01-.25-.04-.04-.02-.06-.07-.06-.14,0-.02,0-.04,0-.06,0-.02,0-.05.02-.1l.63-2.27c.01-.05.04-.09.09-.1.04-.02.12-.03.22-.03.37,0,.63.1.78.3.14.2.21.44.21.73s-.07.59-.21.88c-.27.56-.75.84-1.43.84ZM9.05,39.97h1.23c.63,0,1.14-.19,1.54-.56.36-.34.54-.75.54-1.21,0-.24-.05-.45-.15-.63-.07-.12-.15-.23-.25-.32-.14-.12-.3-.2-.47-.24-.17-.04-.36-.06-.59-.06h-1.2v.08c.14,0,.23.02.28.05.05.03.08.08.08.16,0,.03,0,.07-.02.12,0,.04-.02.1-.04.16l-.57,2.06c-.04.14-.09.24-.16.28-.04.03-.12.05-.22.06v.08Z"/>
    <path class="cls-12" d="M13.42,37.93s0,.02,0,.03c0,.01,0,.02,0,.03l-.23.9.05-.12c.11-.21.23-.4.38-.58.14-.17.28-.26.41-.26.07,0,.13.02.16.07.04.05.06.1.06.16,0,.07-.02.13-.06.17-.04.04-.09.07-.16.07-.05,0-.08,0-.1-.03-.03-.02-.04-.04-.06-.06l-.03-.05s-.01-.02-.02-.02c0,0-.02,0-.03,0-.06,0-.14.08-.25.25-.11.16-.21.34-.3.53-.05.11-.11.27-.18.46-.04.12-.1.29-.16.51h-.35l.38-1.37c.02-.08.04-.15.05-.21.01-.06.02-.11.02-.15,0-.04-.01-.08-.03-.1-.02-.02-.06-.04-.12-.04-.02,0-.04,0-.07,0-.03,0-.06,0-.1.01v-.08l.09-.02c.12-.02.25-.05.38-.08.14-.03.21-.04.22-.04.01,0,.02,0,.03.02Z"/>
    <path class="cls-12" d="M14.3,40.03c.07,0,.13-.03.18-.08.05-.05.07-.11.07-.18s-.03-.13-.08-.18c-.05-.05-.11-.08-.18-.08s-.13.03-.18.08c-.05.05-.08.11-.08.18s.02.13.08.18c.05.05.11.08.18.08Z"/>
    <path class="cls-12" d="M16.29,39.02h.09c0,.06,0,.09,0,.1,0,.24.06.43.2.58.13.14.29.22.48.22s.34-.06.45-.19c.11-.13.16-.27.16-.42,0-.06,0-.12-.03-.18-.03-.1-.08-.19-.15-.26l-.3-.32c-.23-.25-.37-.42-.44-.53-.06-.11-.1-.22-.1-.35,0-.19.07-.36.22-.53.14-.16.35-.24.63-.24.12,0,.25.02.38.06.13.04.21.06.24.06.05,0,.09-.01.12-.05.03-.03.06-.06.08-.1h.11l-.18.93h-.08c0-.23-.04-.39-.09-.49-.09-.18-.26-.27-.51-.27-.15,0-.28.04-.37.13-.1.09-.14.19-.14.32,0,.1.02.19.06.26.04.07.12.17.25.3l.43.45c.08.08.14.17.19.28.05.1.08.23.08.36,0,.24-.09.45-.25.64-.17.19-.39.28-.67.28-.15,0-.3-.03-.45-.08-.15-.06-.24-.08-.28-.08-.06,0-.09.01-.12.04-.02.03-.05.06-.06.12h-.08l.16-1.03Z"/>
    <path class="cls-12" d="M19.2,37.35s-.07-.11-.07-.17.02-.13.07-.17c.04-.05.1-.07.16-.07s.12.02.16.07c.05.05.07.11.07.17s-.02.13-.07.18c-.05.05-.1.07-.16.07s-.11-.02-.16-.07ZM19.42,37.92s.01.01.01.02l-.46,1.62c-.02.09-.03.14-.03.15,0,.02,0,.04.01.06,0,.02.03.03.06.03.05,0,.12-.05.2-.13.05-.05.11-.13.18-.23l.06.05-.02.03c-.11.16-.2.27-.28.34-.11.11-.23.16-.33.16-.07,0-.12-.03-.16-.08-.04-.06-.06-.12-.06-.2,0-.04,0-.08,0-.12,0-.03.02-.08.03-.15l.32-1.16s0-.04.01-.05c0-.02,0-.03,0-.04,0-.06-.02-.09-.06-.1-.04-.01-.12-.02-.24-.02v-.08c.12-.01.21-.03.26-.03.05,0,.11-.02.16-.03.07-.01.14-.03.2-.04.06-.02.1-.02.11-.02Z"/>
    <path class="cls-12" d="M21.57,37.98c.07.05.11.13.11.24,0,.05-.01.12-.04.21-.02.09-.07.24-.14.44.17-.26.31-.45.43-.59.22-.24.41-.37.57-.37.07,0,.14.02.2.07.06.05.09.13.09.23,0,.03-.02.11-.04.24l-.35,1.24s0,.04,0,.06c.01.02.03.03.06.03s.05,0,.07-.02c.02-.01.05-.04.08-.07.03-.03.06-.06.07-.08.02-.02.07-.09.16-.2l.07.05-.02.03c-.11.16-.22.28-.33.37-.11.09-.22.14-.33.14-.05,0-.09-.01-.12-.04-.05-.04-.08-.1-.08-.2,0-.02,0-.05,0-.07,0-.03.01-.05.02-.09l.35-1.27s0-.03,0-.05c0-.01,0-.02,0-.04,0-.04,0-.06-.03-.08-.02-.02-.04-.03-.07-.03-.1,0-.22.08-.36.23-.14.15-.26.31-.36.46-.09.16-.16.29-.19.4-.04.11-.1.35-.21.71h-.35l.44-1.61s0-.03,0-.04c0-.01,0-.03,0-.04,0-.04,0-.06-.02-.09-.02-.02-.04-.03-.08-.03-.1,0-.22.08-.36.24-.14.16-.26.31-.35.44-.09.13-.17.31-.26.54-.05.14-.11.33-.19.59h-.35l.43-1.61s0-.03.01-.05c0-.01,0-.03,0-.05,0-.06-.02-.09-.06-.11s-.12-.02-.24-.01v-.08c.15-.02.4-.07.74-.15l.02.02-.26.93c.17-.25.33-.45.48-.62.21-.22.39-.33.55-.33.06,0,.12.02.16.05Z"/>
    <path class="cls-12" d="M24,37.42c.06,0,.12-.02.16-.07.04-.05.07-.11.07-.18s-.02-.13-.07-.17c-.04-.05-.1-.07-.16-.07s-.11.02-.16.07c-.04.05-.07.11-.07.17s.02.13.07.17c.05.05.1.07.16.07ZM23.95,37.93c-.06.01-.13.03-.2.04-.06.01-.11.02-.16.03-.06,0-.14.02-.27.03v.08c.12,0,.2,0,.24.02.04.01.06.05.06.1,0,.01,0,.03,0,.04,0,.01,0,.03-.01.05l-.32,1.16c-.02.06-.03.11-.03.15,0,.03,0,.07,0,.12,0,.08.02.14.07.2.04.06.1.08.16.08.11,0,.22-.05.33-.16.07-.07.17-.18.28-.34l.02-.03-.06-.05c-.07.1-.13.17-.18.23-.09.09-.15.13-.2.13-.03,0-.05-.01-.06-.03,0-.02-.01-.04-.01-.06,0-.02,0-.07.03-.15l.46-1.62s0-.01,0-.02c0,0-.04,0-.11.02Z"/>
    <path class="cls-12" d="M25.64,38.4h.37c.09,0,.33,0,.33.22,0,.25-.27.25-.36.25h-.34v-.46ZM25.48,38.24v1.34h.17v-.57h.34c.31,0,.34.11.34.32,0,.17.02.21.04.25h.17c-.03-.06-.03-.08-.04-.31,0-.17-.04-.28-.22-.34h0c.18-.05.25-.18.25-.33,0-.36-.39-.36-.47-.36h-.57ZM25.98,37.73c-.66,0-1.18.54-1.18,1.17s.52,1.18,1.18,1.18,1.17-.52,1.17-1.18-.52-1.17-1.17-1.17ZM25.98,37.89c.57,0,1.01.47,1.01,1.02s-.45,1.02-1.01,1.02-1.01-.46-1.01-1.02.43-1.02,1.01-1.02Z"/>
  </g>
  <g>
    <g>
      <path class="cls-12" d="M41.53,23.55V6.01h8.08v3.09h-5.71v4.04h5v3.05h-5v7.36h-2.37Z"/>
      <path class="cls-12" d="M57.2,16.91h-2.89l1.47-6.91,1.42,6.91ZM52.88,23.55l.79-3.61h4.2l.73,3.61h2.58l-4.04-17.57h-2.69l-4.07,17.57h2.49ZM55.79,5.98"/>
      <path class="cls-12" d="M68.93,9.35c.46.36.69,1.08.69,2.14,0,.98-.24,1.65-.71,1.98-.27.19-.67.28-1.21.28h-2.7v-4.72h2.77c.51,0,.9.1,1.16.31ZM62.68,5.98v17.57h2.32v-6.89h2.46c.7,0,1.18.19,1.43.56.26.37.39,1.12.4,2.24l.02,1.63c0,.52.04,1.02.1,1.51.03.24.08.55.15.94h2.62v-.44c-.23-.22-.37-.55-.43-1-.04-.29-.06-.83-.06-1.63v-1.18c0-1.23-.11-2.15-.33-2.75-.22-.6-.59-1.06-1.12-1.39.63-.33,1.08-.9,1.35-1.71.27-.81.41-1.63.41-2.46,0-.69-.07-1.31-.22-1.85-.14-.54-.34-1.03-.59-1.48-.3-.54-.66-.95-1.09-1.23-.43-.28-1.04-.43-1.84-.46h-5.59Z"/>
      <path class="cls-12" d="M79.55,19.8l2.06-13.81h3.42v17.57h-2.22v-11.88c0-.34,0-.82,0-1.44,0-.62,0-1.09,0-1.42l-2.16,14.74h-2.31l-2.14-14.74c0,.33,0,.81,0,1.42,0,.62,0,1.09,0,1.44v11.88h-2.22V5.98h3.46l2.07,13.81Z"/>
      <path class="cls-12" d="M93.24,16.91h-2.89l1.47-6.91,1.42,6.91ZM88.92,23.55l.79-3.61h4.2l.73,3.61h2.58l-4.03-17.57h-2.69l-4.07,17.57h2.49ZM91.82,5.98"/>
      <path class="cls-12" d="M103.23,5.45,99.57,21.61c.94,1.62,2.23,2.43,3.86,2.43,1.32,0,2.41-.6,3.26-1.8.85-1.2,1.37-2.75,1.58-4.67h-2.35c-.16.91-.36,1.58-.6,2.04-.44.84-1.08,1.26-1.91,1.26s-1.48-.49-2.01-1.47c-.53-.98-.79-2.46-.79-4.43s.25-3.49.75-4.57c.5-1.08,1.18-1.62,2.05-1.62s1.49.38,1.92,1.14c.24.43.44,1.06.6,1.91h2.38c-.04-1.1-.3-2.19-.79-3.28-.89-1.94-2.29-2.91-4.2-2.91-1.43,0-2.61.72-3.54,2.17-1.07,1.66-1.6,4.02-1.6,7.09,0,2.84.47,5.07,1.41,6.7Z"/>
      <path class="cls-12" d="M111.08,5.64,109.9,5.98v17.57h2.37V5.98h-2.37Z"/>
      <path class="cls-12" d="M120.49,16.91h-2.89l1.47-6.91,1.42,6.91ZM116.17,23.55l.79-3.61h4.2l.73,3.61h2.58l-4.03-17.57h-2.69l-4.06,17.57h2.49ZM119.07,5.98"/>
      <path class="cls-12" d="M129.94,5.45,126.63,22.43c.85,1.05,2.02,1.57,3.5,1.57s2.58-.53,3.37-1.59c.8-1.06,1.19-2.39,1.19-4s-.34-2.76-1.02-3.59c-.44-.53-1.09-.96-1.95-1.28l-1.96-.73c-.76-.28-1.25-.52-1.48-.73-.36-.31-.54-.78-.54-1.41,0-.68.18-1.22.55-1.6.37-.38.86-.57,1.47-.57.55,0,1.01.15,1.38.44.56.44.85,1.19.9,2.25h2.29c-.04-1.87-.49-3.29-1.34-4.27-.84-.98-1.87-1.47-3.07-1.47-1.44,0-2.53.52-3.27,1.56-.74,1.04-1.11,2.35-1.11,3.92,0,1.72.38,2.99,1.15,3.8.45.48,1.27.93,2.46,1.35l1.21.42c.71.24,1.22.51,1.55.82.33.32.49.77.49,1.35,0,.99-.33,1.67-1,2.04-.35.19-.81.29-1.37.29-.94,0-1.6-.36-1.99-1.08-.21-.4-.35-1-.43-1.8h-2.27c0,1.83.42,3.26,1.28,4.31Z"/>
    </g>
    <g>
      <path class="cls-12" d="M146.22,5.45,142.92,22.43c.85,1.05,2.02,1.57,3.5,1.57s2.57-.53,3.37-1.59c.79-1.06,1.19-2.39,1.19-4s-.34-2.76-1.02-3.59c-.44-.53-1.09-.96-1.95-1.28l-1.96-.73c-.76-.28-1.25-.52-1.48-.73-.36-.31-.54-.78-.54-1.41,0-.68.18-1.22.55-1.6.36-.38.85-.57,1.47-.57.55,0,1.01.15,1.38.44.56.44.85,1.19.9,2.25h2.29c-.04-1.87-.49-3.29-1.34-4.27-.85-.98-1.87-1.47-3.07-1.47-1.44,0-2.53.52-3.27,1.56-.74,1.04-1.11,2.35-1.11,3.92,0,1.72.38,2.99,1.15,3.8.45.48,1.27.93,2.46,1.35l1.21.42c.7.24,1.22.51,1.55.82.33.32.49.77.49,1.35,0,.99-.33,1.67-1,2.04-.35.19-.81.29-1.37.29-.94,0-1.6-.36-1.99-1.08-.21-.4-.35-1-.43-1.8h-2.27c0,1.83.43,3.26,1.27,4.31Z"/>
      <path class="cls-12" d="M153.74,5.64,152.56,5.98v17.57h2.37V5.98h-2.37Z"/>
      <path class="cls-12" d="M162.64,19.8l2.05-13.81h3.42v17.57h-2.22v-11.88c0-.34,0-.82,0-1.44,0-.62.01-1.09.01-1.42l-2.16,14.74h-2.31l-2.14-14.74c0,.33,0,.81,0,1.42,0,.62,0,1.09,0,1.44v11.88h-2.22V5.98h3.46l2.07,13.81Z"/>
      <path class="cls-12" d="M171.32,5.64,170.14,5.98v17.57h2.36V5.98h-2.36Z"/>
      <path class="cls-12" d="M174.72,23.55V5.98h2.38v14.41h5.64v3.16h-8.02Z"/>
      <path class="cls-12" d="M190.4,16.91h-2.89l1.47-6.91,1.42,6.91ZM186.08,23.55l.79-3.61h4.2l.73,3.61h2.58l-4.04-17.57h-2.69l-4.06,17.57h2.49ZM188.98,5.98"/>
      <path class="cls-12" d="M202.12,9.35c.46.36.69,1.08.69,2.14,0,.98-.24,1.65-.71,1.98-.27.19-.67.28-1.21.28h-2.69v-4.72h2.77c.52,0,.9.1,1.16.31ZM195.87,5.98v17.57h2.33v-6.89h2.46c.7,0,1.18.19,1.43.56.26.37.39,1.12.4,2.24l.02,1.63c0,.52.04,1.02.1,1.51.03.24.08.55.16.94h2.62v-.44c-.23-.22-.37-.55-.43-1-.04-.29-.06-.83-.06-1.63v-1.18c0-1.23-.11-2.15-.33-2.75-.22-.6-.59-1.06-1.12-1.39.63-.33,1.08-.9,1.35-1.71.28-.81.41-1.63.41-2.46,0-.69-.07-1.31-.22-1.85-.14-.54-.34-1.03-.59-1.48-.3-.54-.66-.95-1.09-1.23-.43-.28-1.04-.43-1.84-.46h-5.59Z"/>
      <path class="cls-12" d="M211.55,5.98,207.31,5.98v17.57h8.63v-3.16h-6.31v-4.52h5.53v-3.05h-5.53v-3.73h6.03v-3.11h-8.36Z"/>
      <path class="cls-12" d="M221.84,5.45,218.53,22.43c.85,1.05,2.02,1.57,3.5,1.57s2.58-.53,3.37-1.59c.8-1.06,1.19-2.39,1.19-4s-.34-2.76-1.02-3.59c-.44-.53-1.09-.96-1.95-1.28l-1.96-.73c-.76-.28-1.25-.52-1.48-.73-.36-.31-.54-.78-.54-1.41,0-.68.18-1.22.55-1.6.37-.38.86-.57,1.47-.57.55,0,1.01.15,1.38.44.56.44.86,1.19.9,2.25h2.29c-.04-1.87-.49-3.29-1.34-4.27-.85-.98-1.87-1.47-3.07-1.47-1.44,0-2.53.52-3.27,1.56-.74,1.04-1.11,2.35-1.11,3.92,0,1.72.38,2.99,1.15,3.8.45.48,1.27.93,2.46,1.35l1.21.42c.71.24,1.22.51,1.55.82.33.32.5.77.5,1.35,0,.99-.33,1.67-1,2.04-.35.19-.8.29-1.37.29-.94,0-1.6-.36-1.99-1.08-.21-.4-.35-1-.42-1.8h-2.27c0,1.83.42,3.26,1.28,4.31Z"/>
    </g>
    <g>
      <path class="cls-12" d="M60.91,27.97h.93v2.58h-.93v-2.58ZM59.19,27.97h.94v2.58h-.94v-2.58Z"/>
      <path class="cls-12" d="M63.48,27.95h1.43v5.63h3.43v1.24h-4.86v-6.87Z"/>
      <path class="cls-12" d="M72.36,33.78c-.57,0-1.02-.21-1.36-.63-.34-.42-.51-1.01-.51-1.79s.17-1.37.51-1.79c.34-.42.79-.63,1.36-.63s1.02.21,1.35.63c.33.42.5,1.02.5,1.78s-.17,1.37-.5,1.79c-.33.42-.78.63-1.35.63ZM75.64,31.37c0-1.26-.35-2.19-1.04-2.82-.52-.53-1.27-.8-2.25-.8s-1.73.27-2.25.8c-.69.63-1.04,1.57-1.04,2.82s.35,2.17,1.04,2.82c.52.53,1.27.8,2.25.8s1.73-.27,2.25-.8c.69-.65,1.04-1.59,1.04-2.82Z"/>
      <path class="cls-12" d="M83.96,27.95h2.06v6.87h-1.33v-4.65c0-.13,0-.32,0-.56,0-.24,0-.42,0-.56l-1.3,5.76h-1.39l-1.29-5.76c0,.13,0,.32,0,.56,0,.24,0,.43,0,.56v4.65h-1.33v-6.87h2.08l1.25,5.4,1.24-5.4Z"/>
      <path class="cls-12" d="M88.62,34.82h-1.43v-6.87h1.43v6.87Z"/>
      <path class="cls-12" d="M91.02,32.7c.04.31.13.54.26.69.24.28.64.42,1.21.42.34,0,.62-.04.83-.11.4-.14.61-.41.61-.79,0-.23-.1-.4-.3-.52-.2-.12-.52-.23-.94-.32l-.73-.16c-.72-.16-1.22-.34-1.49-.53-.47-.32-.7-.81-.7-1.49,0-.61.22-1.13.67-1.53.45-.41,1.11-.61,1.98-.61.73,0,1.35.19,1.86.57.51.38.78.94.81,1.67h-1.38c-.03-.41-.21-.7-.55-.87-.23-.11-.51-.17-.84-.17-.37,0-.67.07-.9.22-.22.15-.33.35-.33.62,0,.24.11.42.33.54.14.08.44.17.9.28l1.19.29c.52.12.91.29,1.18.5.41.32.61.79.61,1.4s-.24,1.15-.72,1.56c-.48.42-1.16.62-2.04.62s-1.61-.2-2.12-.61c-.52-.41-.77-.97-.77-1.68h1.38Z"/>
      <path class="cls-12" d="M100.9,27.95h2.06v6.87h-1.33v-4.65c0-.13,0-.32,0-.56,0-.24,0-.42,0-.56l-1.3,5.76h-1.4l-1.29-5.76c0,.13,0,.32,0,.56,0,.24,0,.43,0,.56v4.65h-1.33v-6.87h2.08l1.25,5.4,1.24-5.4Z"/>
      <path class="cls-12" d="M107.31,33.78c-.57,0-1.02-.21-1.36-.63-.34-.42-.51-1.01-.51-1.79s.17-1.37.51-1.79c.34-.42.79-.63,1.36-.63s1.02.21,1.35.63c.34.42.5,1.02.5,1.78s-.17,1.37-.5,1.79c-.33.42-.78.63-1.35.63ZM110.59,31.37c0-1.26-.35-2.19-1.04-2.82-.52-.53-1.26-.8-2.25-.8s-1.73.27-2.25.8c-.7.63-1.04,1.57-1.04,2.82s.35,2.17,1.04,2.82c.52.53,1.27.8,2.25.8s1.73-.27,2.25-.8c.69-.65,1.04-1.59,1.04-2.82Z"/>
      <path class="cls-12" d="M118.11,30.12c0,.36-.09.62-.27.79-.18.17-.43.25-.76.25h-1.29v-2.04h1.29c.33,0,.58.08.76.23.18.15.27.41.27.77ZM119.54,30.12c0-.74-.2-1.29-.61-1.64-.4-.35-.94-.53-1.62-.53h-2.94v6.87h1.43v-2.48h1.43c.74,0,1.32-.17,1.72-.5.4-.33.6-.91.6-1.71Z"/>
      <path class="cls-12" d="M125.69,29.16h-3.56v1.47h3.26v1.18h-3.26v1.77h3.73v1.24h-5.13v-6.87h4.95v1.21Z"/>
      <path class="cls-12" d="M130.08,29.12c.3,0,.52.04.67.12.26.14.4.43.4.85,0,.39-.14.65-.41.78-.15.08-.39.11-.7.11h-1.56v-1.87h1.6ZM130.37,27.95h-3.29v6.87h1.4v-2.7h1.42c.41,0,.68.07.83.22.15.15.22.44.23.88v.64c.01.2.03.4.07.59.02.09.05.22.09.37h1.57v-.17c-.14-.08-.22-.21-.26-.39-.02-.11-.04-.33-.04-.64v-.46c0-.48-.07-.84-.2-1.07-.13-.23-.35-.41-.67-.54.38-.13.65-.35.81-.67.16-.31.24-.63.24-.96,0-.27-.04-.51-.13-.72-.08-.21-.2-.4-.34-.58-.18-.21-.39-.37-.64-.48-.25-.11-.62-.17-1.08-.18Z"/>
      <path class="cls-12" d="M136.98,33.78c-.57,0-1.02-.21-1.36-.63-.34-.42-.51-1.01-.51-1.79s.17-1.37.51-1.79c.34-.42.79-.63,1.36-.63s1.02.21,1.35.63c.33.42.5,1.02.5,1.78s-.17,1.37-.5,1.79c-.33.42-.78.63-1.35.63ZM140.25,31.37c0-1.26-.35-2.19-1.04-2.82-.52-.53-1.27-.8-2.25-.8s-1.73.27-2.24.8c-.69.63-1.04,1.57-1.04,2.82s.35,2.17,1.04,2.82c.52.53,1.26.8,2.24.8s1.73-.27,2.25-.8c.69-.65,1.04-1.59,1.04-2.82Z"/>
      <path class="cls-12" d="M148.57,27.95h2.06v6.87h-1.33v-4.65c0-.13,0-.32,0-.56,0-.24,0-.42,0-.56l-1.3,5.76h-1.39l-1.29-5.76c0,.13,0,.32,0,.56,0,.24,0,.43,0,.56v4.65h-1.33v-6.87h2.08l1.25,5.4,1.24-5.4Z"/>
      <path class="cls-12" d="M154.7,29.52l.86,2.69h-1.75l.89-2.69ZM151.45,34.82h1.5l.47-1.43h2.51l.46,1.43h1.55l-2.42-6.87h-1.62l-2.45,6.87Z"/>
      <path class="cls-12" d="M159.87,32.7c.04.31.13.54.26.69.23.28.64.42,1.21.42.34,0,.62-.04.83-.11.4-.14.61-.41.61-.79,0-.23-.1-.4-.3-.52-.2-.12-.51-.23-.94-.32l-.73-.16c-.72-.16-1.22-.34-1.49-.53-.47-.32-.7-.81-.7-1.49,0-.61.23-1.13.68-1.53.45-.41,1.11-.61,1.98-.61.73,0,1.35.19,1.86.57.51.38.78.94.81,1.67h-1.38c-.02-.41-.21-.7-.54-.87-.23-.11-.51-.17-.84-.17-.37,0-.67.07-.89.22-.22.15-.34.35-.34.62,0,.24.11.42.33.54.14.08.44.17.9.28l1.19.29c.52.12.92.29,1.18.5.41.32.61.79.61,1.4s-.24,1.15-.72,1.56c-.48.42-1.16.62-2.04.62s-1.61-.2-2.12-.61c-.51-.41-.77-.97-.77-1.68h1.38Z"/>
      <path class="cls-12" d="M170.72,29.12c.33,0,.6.04.81.11.25.1.37.32.37.64,0,.29-.09.5-.28.61-.19.12-.43.17-.73.17h-1.66v-1.54h1.49ZM170.93,31.79c.3,0,.53.04.69.12.3.14.44.38.44.74,0,.43-.15.72-.46.87-.17.08-.4.12-.7.12h-1.68v-1.85h1.71ZM171.18,27.95h-3.32v6.87h3.09c.35,0,.67-.03.97-.09.3-.06.56-.18.78-.34.19-.15.36-.33.49-.54.2-.32.3-.69.3-1.1s-.09-.73-.26-1.01c-.17-.28-.44-.48-.78-.61.23-.12.4-.25.52-.39.21-.25.31-.59.31-1.01s-.1-.76-.32-1.05c-.35-.48-.94-.72-1.78-.73Z"/>
      <path class="cls-12" d="M177.48,29.52l.86,2.69h-1.75l.89-2.69ZM174.23,34.82h1.5l.47-1.43h2.51l.46,1.43h1.56l-2.42-6.87h-1.62l-2.45,6.87Z"/>
      <path class="cls-12" d="M184.63,29.12c.3,0,.52.04.67.12.27.14.4.43.4.85,0,.39-.14.65-.41.78-.15.08-.39.11-.7.11h-1.56v-1.87h1.6ZM184.92,27.95h-3.29v6.87h1.4v-2.7h1.42c.4,0,.68.07.83.22.15.15.23.44.23.88v.64c.01.2.03.4.07.59.02.09.05.22.09.37h1.57v-.17c-.14-.08-.22-.21-.26-.39-.02-.11-.04-.33-.04-.64v-.46c0-.48-.06-.84-.2-1.07-.13-.23-.35-.41-.67-.54.38-.13.65-.35.81-.67.16-.31.24-.63.24-.96,0-.27-.04-.51-.13-.72-.09-.21-.2-.4-.35-.58-.18-.21-.39-.37-.64-.48-.25-.11-.62-.17-1.09-.18Z"/>
      <path class="cls-12" d="M191.25,29.52l.86,2.69h-1.75l.89-2.69ZM188,34.82h1.5l.47-1.43h2.51l.46,1.43h1.55l-2.42-6.87h-1.63l-2.45,6.87Z"/>
      <path class="cls-12" d="M200.37,27.95v1.21h-2.07v5.66h-1.43v-5.66h-2.07v-1.21h5.57Z"/>
      <path class="cls-12" d="M204.23,33.78c-.57,0-1.02-.21-1.36-.63-.34-.42-.51-1.01-.51-1.79s.17-1.37.51-1.79c.34-.42.79-.63,1.36-.63s1.02.21,1.35.63c.33.42.5,1.02.5,1.78s-.17,1.37-.5,1.79c-.33.42-.78.63-1.35.63ZM207.51,31.37c0-1.26-.35-2.19-1.04-2.82-.52-.53-1.27-.8-2.25-.8s-1.73.27-2.25.8c-.69.63-1.04,1.57-1.04,2.82s.35,2.17,1.04,2.82c.52.53,1.27.8,2.25.8s1.73-.27,2.25-.8c.69-.65,1.04-1.59,1.04-2.82Z"/>
      <path class="cls-12" d="M210.53,27.97h.94v2.58h-.94v-2.58ZM208.82,27.97h.93v2.58h-.93v-2.58Z"/>
      <path class="cls-12" d="M213.73,32.14h.6c.15,0,.54,0,.54.36,0,.4-.45.4-.59.4h-.55v-.76ZM213.46,31.88v2.19h.27v-.93h.55c.5,0,.56.17.56.52.01.28.03.34.07.41h.28c-.05-.09-.05-.14-.07-.51,0-.28-.06-.46-.37-.55h0c.3-.08.41-.3.41-.54,0-.6-.64-.6-.77-.6h-.92ZM214.28,31.04c-1.08,0-1.92.87-1.92,1.92s.85,1.92,1.92,1.92,1.91-.85,1.91-1.92-.85-1.92-1.91-1.92ZM214.27,31.3c.93,0,1.64.76,1.64,1.66s-.74,1.66-1.64,1.66-1.64-.75-1.64-1.66.71-1.66,1.64-1.66Z"/>
    </g>
    <path class="cls-12" d="M227.75,6.52h.63c.15,0,.57,0,.57.38,0,.42-.47.42-.62.42h-.58v-.8ZM227.45,6.26v2.3h.29v-.97h.58c.53,0,.59.18.59.55,0,.29.03.36.07.43h.29c-.05-.09-.05-.14-.07-.53-.01-.29-.07-.48-.39-.57h0c.31-.09.43-.32.43-.57,0-.63-.67-.63-.81-.63h-.97ZM228.32,5.38c-1.14,0-2.02.92-2.02,2.01s.89,2.01,2.02,2.01,2.01-.9,2.01-2.01-.89-2.01-2.01-2.01ZM228.31,5.64c.98,0,1.73.8,1.73,1.74s-.78,1.75-1.73,1.75-1.72-.79-1.72-1.75.74-1.74,1.72-1.74Z"/>
  </g>
</svg>