<?xml version="1.0" encoding="UTF-8"?>
<svg id="CLIENTES" xmlns="http://www.w3.org/2000/svg" version="1.1" viewBox="0 0 43.39 40">
  <defs>
    <style>
      .cls-1 {
        fill: #231f20;
        stroke-width: 0px;
      }
    </style>
  </defs>
  <path class="cls-1" d="M11.2,10.11c.14,0,.25.11.25.25s-.11.25-.25.25c-.14,0-.25-.11-.25-.25,0-.14.11-.25.25-.25M11.2,11.09c.4,0,.73-.33.73-.73s-.33-.73-.73-.73-.73.33-.73.73.33.73.73.73M33.2,22.56c-.19,0-.34.15-.34.34s.15.34.34.34.34-.15.34-.34-.15-.34-.34-.34M35.85,29.5l-.1-.25c.16-.08.32-.17.47-.26l.1.25c-.15.09-.31.18-.47.26M34.62,26.53c.2.15.44.25.7.29l.79,1.91c-.15.09-.31.18-.47.26l-1.02-2.47ZM34.81,29.34c-.17.05-.34.1-.51.13l-.66-3.33c.15-.06.3-.15.43-.25l.11.26.63,3.19ZM34.92,29.87c-.17.05-.34.09-.51.13l-.05-.27c.17-.04.35-.08.51-.13l.05.27ZM33.2,23.59c-.38,0-.69-.31-.69-.69,0-.38.31-.69.69-.69.38,0,.69.31.69.69,0,.38-.31.69-.69.69M32.97,25.41v-.4c.07.03.15.05.23.05s.16-.02.23-.05v.4c0,.13-.1.23-.23.23-.13,0-.23-.1-.23-.23M33.43,29.58c-.08,0-.15,0-.23,0-.1,0-.2,0-.3-.01v-3.09l.06-.28c.08.02.16.03.25.03.06,0,.12,0,.18-.02l.05.27v3.1ZM33.43,30.11c-.08,0-.15,0-.23,0-.1,0-.2,0-.3,0v-.27c.1,0,.2,0,.3,0,.08,0,.15,0,.23,0v.27ZM32.71,25.03c0,.13-.1.23-.23.23s-.23-.1-.23-.23v-.32s.07.01.11.01c.11,0,.21-.03.3-.09,0,.04.02.08.04.12v.27ZM32.04,29.46c-.17-.04-.35-.08-.51-.14l.63-3.17.13-.3c.13.11.27.2.42.27l-.67,3.34ZM31.93,29.98c-.17-.04-.35-.08-.51-.14l.05-.27c.17.05.34.1.51.14l-.05.26ZM30.7,28.97c-.16-.08-.31-.17-.46-.27l.78-1.88c.27-.05.51-.17.71-.33l-1.03,2.49ZM30.49,29.47c-.16-.08-.31-.17-.47-.26l.1-.25c.15.1.3.18.46.27l-.1.25ZM30.68,26.59c-.61,0-1.1-.49-1.1-1.1,0-.47.38-.86.86-.86.36,0,.66.29.66.66h0c0,.28-.22.5-.5.5-.21,0-.37-.17-.37-.37,0-.07-.06-.13-.13-.13s-.13.06-.13.13c0,.35.29.64.64.64.42,0,.77-.34.77-.77h0c0-.15-.04-.3-.1-.43,0,0,0-.01,0-.02v-1.53c0-.11.02-.22.05-.32.11.31.28.62.48.9,0,.01.02.02.02.03v.25c0,.16.07.3.18.4v.45c0,.11.04.21.1.29-.07.71-.67,1.27-1.41,1.27M32.65,21.71v.4c-.25.17-.41.46-.41.78s.16.61.41.78v.5c0,.16-.13.29-.29.29-.16,0-.29-.13-.29-.29v-2.47c.17,0,.36.01.57.02M31.34,21.27s0,0,0,0c0-.04.09-.13.23-.13h0s.02,0,.03,0c.35.03.84.05,1.55.05s1.2-.02,1.55-.05c0,0,.02,0,.03,0,.14,0,.23.08.23.12,0,0,0,0,0,0,0,.02,0,.05-.04.07-.03.03-.09.05-.16.06-.37.03-.88.05-1.6.05s-1.24-.02-1.61-.05c-.07,0-.13-.03-.16-.06-.03-.03-.04-.05-.04-.07M31.28,19.65c-.34,0-.62-.28-.62-.62,0-.34.28-.62.62-.62h.12v.42s-.08-.03-.12-.03c-.13,0-.24.11-.24.24s.11.24.24.24c.05,0,.09-.01.12-.03v.4h-.12ZM30.67,17.53c0-.34.28-.62.62-.62h.12v.41s-.08-.03-.12-.03c-.13,0-.24.11-.24.24s.11.24.24.24c.05,0,.09-.01.12-.03v.41h-.12c-.34,0-.62-.28-.62-.62M30.67,16.03c0-.34.28-.62.62-.62h.12v.41s-.08-.03-.12-.03c-.13,0-.24.11-.24.24s.11.24.24.24c.05,0,.09-.01.12-.03v.41h-.12c-.34,0-.62-.28-.62-.62M30.79,12.31h.62v1.54h-.62v-1.54ZM29.76,7.93c-1.05,0-1.91.85-1.91,1.91v16.09c0,2.71-2.19,4.9-4.9,4.9-2.71,0-4.9-2.19-4.9-4.9v-9.34c0-.63-.31-1.2-.79-1.54.2-.18.36-.4.48-.64.67.49,1.1,1.29,1.11,2.18v9.34c0,2.27,1.84,4.1,4.1,4.1,2.27,0,4.1-1.84,4.1-4.1V9.83c0-1.49,1.21-2.7,2.71-2.71,1.49,0,2.7,1.21,2.71,2.71v11.08c-.33,0-.59-.02-.8-.04v-11.04c0-1.05-.85-1.91-1.91-1.91M27.75,29.32c-.19.27-.41.53-.64.76-.23.23-.49.45-.76.64l-.39-.58c.47-.33.88-.74,1.21-1.21l.58.39ZM22.95,31.8c-.36,0-.71-.03-1.05-.1l.14-.69c.3.05.6.08.91.08.31,0,.62-.03.91-.08l.14.69c-.34.06-.69.09-1.05.1M19.56,30.72c-.27-.19-.53-.41-.76-.64-.23-.23-.45-.49-.64-.76l.58-.4c.33.47.74.88,1.21,1.21l-.39.58ZM17.66,27.4c-.34,0-.62-.28-.62-.62,0-.34.28-.62.62-.62,0,0,0,0,0,0h.13c0,.15.02.3.04.45-.04-.04-.1-.07-.17-.07-.13,0-.24.11-.24.24s.11.24.24.24c.1,0,.18-.06.22-.14.02.11.04.21.07.31.02.06.04.13.05.19h-.34ZM17.04,25.29c0-.34.28-.62.62-.62h.12v.41s-.08-.03-.12-.03c-.13,0-.24.11-.24.24s.11.24.24.24c.05,0,.09-.01.12-.03v.41h-.12c-.34,0-.62-.28-.62-.62M17.04,23.79c0-.34.28-.62.62-.62h.12v.41s-.08-.03-.12-.03c-.13,0-.24.11-.24.24s.11.24.24.24c.05,0,.09-.01.12-.03v.41h-.12c-.34,0-.62-.28-.62-.62M15.76,15.42h-.59c-1.11,0-2.01-.9-2.01-2.01v-.81c.08.02.16.03.24.03v.78c0,.97.79,1.76,1.77,1.77h.59c.98,0,1.77-.79,1.77-1.77v-.59c0-.69-.56-1.24-1.25-1.24h-.59c-.69,0-1.24.55-1.24,1.24,0,0,0,0,0,0h0s0,.59,0,.59c0,.4.32.72.72.72h.59c.4,0,.72-.32.72-.72v-.59c0-.11-.09-.2-.2-.2h-.59c-.11,0-.2.09-.2.2v.53h.18v-.29c0-.07.05-.12.12-.12.04,0,.07.02.09.04.02.02.03.05.03.08v.35c0,.1-.08.18-.18.18h-.29c-.1,0-.18-.08-.18-.18v-.59c0-.25.2-.44.44-.44h.59c.25,0,.44.2.44.44v.59c0,.53-.43.96-.97.96h-.59c-.53,0-.96-.43-.97-.97v-.58h0c0-.23.05-.44.14-.63.07-.08.13-.18.17-.28.27-.36.7-.59,1.18-.59h.59c.82,0,1.49.67,1.49,1.49v.59c0,1.11-.9,2.01-2.01,2.01M12.67,11.66c0-.06,0-.13.03-.19.07-.24.28-.39.52-.39.05,0,.1,0,.15.02.18.05.29.21.29.39,0,.04,0,.07-.02.11-.04.13-.16.21-.28.21-.03,0-.05,0-.08-.01-.07-.02-.14.02-.16.09-.02.07.02.14.09.16.05.01.1.02.15.02.24,0,.47-.16.54-.41.02-.06.03-.12.03-.18,0-.29-.19-.56-.48-.64-.07-.02-.15-.03-.22-.03-.27,0-.53.14-.67.37h-.23c.17-.23.26-.51.26-.81,0-.76-.62-1.38-1.38-1.38-.23,0-.45.06-.64.16v-.33s.05-.02.08-.03c.21-.11.44-.16.66-.16s.46.06.66.16c.4.21.72.57.87,1.04l.04.15c.04.17.19.25.31.27.12.02.25.02.35.03.5.06.83.56.83,1.1,0,.12-.02.23-.05.34-.11.4-.48.66-.88.66-.08,0-.17-.01-.25-.04-.31-.09-.51-.37-.51-.68M11.96,13.24h-1.94c-.37,0-.66.3-.66.66v2.38c0,.79-.64,1.42-1.42,1.42-.45,0-.88-.12-1.25-.33-.07-.18-.11-.37-.12-.56.37.31.85.49,1.37.49.57,0,1.02-.46,1.02-1.02v-2.38c0-.27.1-.51.26-.7.07-.08.11-.17.13-.26h2.56c.07,0,.13-.06.13-.13s-.06-.13-.13-.13h-2.56c-.02-.09-.06-.18-.13-.26-.17-.19-.26-.43-.26-.7v-6.36c0-.57-.46-1.02-1.02-1.02-.52,0-1,.19-1.37.5,0-.19.02-.31.09-.48.37-.26.83-.41,1.28-.41.79,0,1.42.64,1.42,1.42v6.36c0,.37.3.66.66.66h1.94c.24,0,.43.19.43.43,0,.24-.19.43-.43.43M6.63,16.22c.29.36.72.59,1.21.62.03,0,.07,0,.1,0,.31,0,.56-.25.56-.56v-2.38c0-.39.14-.74.38-1.01.04-.05.04-.13,0-.17-.24-.27-.38-.62-.38-1.01v-6.36c0-.31-.25-.56-.56-.56-.53,0-1,.24-1.31.62-.02-.08-.04-.16-.05-.24.34-.36.82-.58,1.36-.58.42,0,.76.34.76.76v6.36c0,.34.12.64.33.87.06.06.08.14.08.22,0,.08-.03.16-.08.22-.21.23-.33.54-.33.87v2.38c0,.42-.34.76-.76.76-.53,0-1.01-.22-1.36-.58.01-.08.03-.16.05-.24M7.87,15.96c-.13,0-.23-.1-.23-.23,0-.13.1-.23.23-.23h.35v.45h-.35ZM8.23,14.79v.45h-.35c-.13,0-.23-.1-.23-.23,0-.13.1-.23.23-.23h.35ZM7.87,14.07h.35v.45s-.35,0-.35,0c-.13,0-.23-.1-.23-.23,0-.13.1-.23.23-.23M8.43,3.07c1.03,0,1.86.84,1.87,1.87,0,.51,0,1.01,0,1.52h-.67v-1.1c0-.93-.75-1.69-1.69-1.69-.37,0-.74.09-1.08.25.33-.52.91-.86,1.57-.86M11.2,9.25c.62,0,1.11.5,1.12,1.12,0,.62-.5,1.11-1.12,1.12-.62,0-1.12-.5-1.12-1.12,0-.62.5-1.11,1.12-1.12M12.52,3.93s.02,0,.03,0c.06,0,.12.04.13.11,0,0,0,.02,0,.03,0,.06-.04.12-.11.13l-2.04.41c-.01-.09-.03-.17-.06-.26l2.04-.41ZM12.56,6.3c.06.01.11.07.11.13,0,0,0,.02,0,.03-.01.06-.07.11-.13.11,0,0-.02,0-.03,0l-1.95-.39c0-.09,0-.18,0-.27l2,.4ZM14.67,10.41s.01,0,.02,0c.03,0,.05-.02.08-.02.13,0,.24.11.24.24s-.11.24-.24.24-.24-.11-.24-.24c0-.1.06-.19.15-.22M15.59,10.39c.13,0,.24.11.24.24s-.11.24-.24.24-.24-.11-.24-.24.11-.24.24-.24M16.42,10.41c.13,0,.24.11.24.24s-.11.24-.24.24-.24-.11-.24-.24.11-.24.24-.24M18.17,11.03c.03-.08.08-.14.15-.19.05-.04.11-.06.15-.07-.06.48-.35.89-.76,1.13-.04-.06-.08-.12-.13-.18.27-.15.48-.4.59-.69M18.17,9.88l.02-.06s.03-.03.05-.03c.02,0,.04,0,.05.02l.04.07c.09.19.14.4.14.62-.11,0-.22.05-.32.12-.1.07-.19.18-.24.31,0,.02-.02.04-.03.06l-.3-.3c.26-.21.46-.49.58-.81M21.04,16.51c-.11.01-.22.04-.31.08,0-1.9-1.16-3.53-2.81-4.23-.02-.08-.05-.15-.08-.23.05-.03.09-.06.14-.09,1.78.72,3.04,2.44,3.07,4.47M21.2,16.8s.04.05.04.1c0,.06-.02.08-.05.11-.01.01-.03.02-.04.03-.4.02-.72.34-.72.74v1.52c0,.63.51,1.14,1.14,1.14.11,0,.21-.01.31-.04.04,0,.07-.01.11-.01.11,0,.22.05.3.13-.21.12-.45.19-.71.19-.78,0-1.4-.63-1.41-1.4v-1.52c0-.55.44-1,.99-1.01.01,0,.03.02.05.03M21.91,19.67c.05,0,.11.01.16.01.33,0,.63-.16.81-.4l.02-.03s.01,0,.03,0c.02,0,.04.02.04.04,0,0,0,0,0,.01,0,0,0,0,0,.01h0c0,.42-.19.8-.48,1.05-.13-.15-.31-.24-.51-.24-.02,0-.05,0-.07,0v-.45ZM21.14,23.01h0s0,0,0,0ZM20.73,22.55v-1.81s.05.03.08.04c.02.01.04.02.07.03.06.03.11.05.17.07v1.59s-.04,0-.06.01c-.02,0-.04,0-.07.01-.05,0-.09.02-.13.04-.02,0-.04,0-.06.02M21.57,26.41c.11,0,.21-.01.31-.04.04,0,.07-.01.11-.01.11,0,.22.05.3.13-.21.12-.45.19-.71.19-.78,0-1.4-.63-1.41-1.4v-1.52c0-.55.44-1,.99-1.01.01,0,.03.02.05.03.02.02.04.05.04.1,0,.06-.02.09-.05.11-.01.01-.03.02-.04.03-.4.02-.72.34-.72.74v1.52c0,.63.51,1.14,1.14,1.14M21.91,25.64c.05,0,.11.01.16.01.33,0,.62-.16.81-.4l.02-.03s.01,0,.03,0c.02,0,.04.02.04.04,0,0,0,0,0,.01,0,0,0,0,0,0h0c0,.42-.19.8-.48,1.05-.13-.15-.31-.24-.51-.24-.02,0-.05,0-.07,0v-.45ZM22.95,27.83c1.01,0,1.84-.79,1.9-1.78.05,0,.1-.02.16-.03,0,0,.01,0,.02,0,.05-.01.1-.03.15-.05-.03,1.21-1.01,2.18-2.22,2.18-.91,0-1.7-.55-2.04-1.34.13.06.27.09.42.11.34.54.94.91,1.62.91M24.31,22.12c-.11,0-.21.01-.31.04-.04.01-.07.02-.11.02-.11,0-.22-.05-.3-.13.21-.12.45-.19.71-.19.78,0,1.4.63,1.41,1.4v1.52c0,.55-.44,1-.99,1.01-.01,0-.03-.02-.05-.03-.02-.02-.04-.05-.04-.1,0-.06.02-.09.05-.11.01-.01.03-.02.04-.03.4-.02.72-.34.72-.74v-1.52c0-.63-.51-1.14-1.14-1.14M23.97,22.88c-.05,0-.11-.01-.16-.01-.33,0-.63.16-.81.4l-.02.03s-.01,0-.03,0c-.02,0-.04-.02-.04-.04,0,0,0,0,0-.01,0,0,0,0,0-.01,0,0,0,0,0,0,0-.42.18-.79.47-1.05.12.16.31.25.52.25.02,0,.05,0,.07,0v.44ZM25.18,20v1.83c-.1-.06-.21-.11-.32-.15v-1.6s.07,0,.1-.02c.06-.01.11-.03.17-.05.02,0,.03-.01.05-.02M24.31,16.15c-.11,0-.21.02-.31.04-.04,0-.07.01-.11.01-.11,0-.22-.05-.3-.13.21-.12.45-.19.71-.19.78,0,1.4.63,1.41,1.4v1.52c0,.55-.44,1-.99,1.01-.01,0-.03-.02-.05-.03-.02-.02-.04-.05-.04-.1,0-.06.02-.09.05-.11.01-.01.03-.02.04-.03.4-.02.72-.34.72-.74v-1.52c0-.63-.51-1.14-1.14-1.14M23.97,16.91c-.05,0-.11-.01-.16-.01-.33,0-.63.16-.81.4l-.02.03s-.01,0-.03,0c-.02,0-.04-.02-.04-.04,0,0,0,0,0-.01,0,0,0,0,0-.01,0,0,0,0,0,0,0-.42.18-.79.47-1.05.13.16.31.25.52.25.02,0,.05,0,.07,0v.44ZM25.18,14.03v1.83c-.1-.06-.21-.11-.32-.15v-1.6s.02,0,.03,0c.04,0,.09-.01.13-.02,0,0,0,0,0,0,.05-.01.1-.03.15-.05M24.31,10.18c-.11,0-.21.01-.31.04-.04.01-.07.02-.11.02-.11,0-.22-.05-.3-.13.21-.12.45-.19.71-.19.78,0,1.4.63,1.41,1.4v1.52c0,.55-.44,1-.99,1.01-.01,0-.03-.02-.05-.03-.02-.02-.04-.05-.04-.1,0-.06.02-.08.05-.11.01-.01.03-.02.04-.03.4-.02.72-.34.72-.74v-1.52c0-.63-.51-1.14-1.14-1.14M23.97,10.94c-.05,0-.11-.01-.16-.01-.33,0-.63.16-.81.4l-.02.03s-.01,0-.03,0c-.02,0-.04-.02-.04-.04,0,0,0,0,0-.01,0,0,0,0,0-.01,0,0,0,0,0,0h0c0-.42.18-.79.47-1.05.13.16.31.25.52.25.02,0,.05,0,.07,0v.44ZM25.2,8.04s.02,0,.02,0c.02,0,.05.01.07.02.04.01.07.02.11.03.02,0,.04,0,.07.01.01,0,.03,0,.04,0-.22.53-.34,1.11-.34,1.72v.06c-.1-.06-.2-.11-.31-.15.01-.6.13-1.18.34-1.7M24.93,7.57s-.01-.04-.01-.06c0-.03,0-.06.04-.1.04-.04.07-.04.1-.04.02,0,.04,0,.06,0,0,0,0,0,0,0,.14.13.33.2.51.2s.38-.07.53-.22l1.08-1.08c.22-.22.33-.51.33-.8,0-.29-.11-.58-.33-.8-.08-.08-.16-.14-.25-.19-.13-.07-.2-.21-.2-.35,0,0,0-.01,0-.02.23.06.46.18.64.37.27.27.41.63.41.99,0,.31-.1.63-.31.89-.03.04-.06.07-.1.11l-1.08,1.08c-.2.2-.46.3-.72.3s-.5-.09-.7-.28M26.35,4.86c-.2-.2-.46-.3-.73-.3-.04,0-.09,0-.13,0h-.03s0,0,0,0c-.01,0-.02,0-.03-.01,0,0-.01-.02-.01-.03,0,0,0-.02,0-.02,0,0,.01-.01.02-.02.27-.27.63-.41.99-.41.03,0,.06,0,.1,0,0,.02,0,.04,0,.06,0,.2.09.39.25.52l-.32.32s-.07-.09-.11-.13M29.76,4.93c.61,0,1.19.11,1.73.32-.04.1-.06.21-.07.31-.52-.2-1.08-.31-1.66-.31-.59,0-1.15.11-1.66.31,0-.02,0-.05,0-.07h0c0-.08,0-.17-.02-.25,0,0,0,0,0,0,.52-.19,1.09-.3,1.68-.3M31.97,4.97s.04-.01.06,0c.03,0,.06,0,.1.04.04.04.04.07.04.1,0,.02,0,.04,0,.06,0,0,0,0,0,0-.13.14-.2.33-.2.51,0,.19.07.38.22.53l1.08,1.08c.22.22.51.33.8.33.29,0,.58-.11.8-.33.08-.07.14-.16.19-.25.07-.13.21-.2.35-.2,0,0,.01,0,.02,0-.06.23-.18.46-.37.64-.27.27-.63.41-.99.41-.36,0-.72-.14-.99-.41l-1.08-1.08c-.2-.2-.3-.46-.3-.72,0-.25.09-.5.28-.7M34.68,6.38c.2-.2.3-.46.3-.73,0-.04,0-.09,0-.13v-.03s0-.02,0-.03l-.09-.09.09.09s.02-.01.03-.01c0,0,.02,0,.02,0,0,0,0,0,.01,0,0,0,0,0,0,0,.27.27.41.63.41.99,0,.03,0,.06,0,.1-.02,0-.04,0-.06,0-.2,0-.39.09-.52.25l-.32-.32s.09-.07.13-.11M34.66,9.66c-.11.01-.21.03-.31.07-.01-.56-.13-1.1-.32-1.59.01,0,.02,0,.03,0h0c.1,0,.2,0,.3-.03.18.48.29,1.01.31,1.55M34.8,9.95s.04.05.04.1c0,.06-.02.08-.05.11-.01.01-.03.02-.04.03-.4.02-.72.34-.72.74v1.52c0,.63.51,1.14,1.14,1.14.11,0,.21-.01.31-.04.04-.01.07-.02.11-.02.11,0,.22.05.3.13-.21.12-.45.19-.71.19-.78,0-1.4-.63-1.41-1.4v-1.52c0-.55.44-1,.99-1.01.01,0,.03.02.05.03M35.51,12.82c.05,0,.11.01.16.01.33,0,.63-.16.81-.4l.02-.03s.01,0,.03,0c.02,0,.04.02.04.04,0,0,0,0,0,.01,0,0,0,0,0,0,0,.42-.19.8-.48,1.05-.13-.15-.31-.24-.51-.24-.02,0-.05,0-.07,0v-.45ZM34.35,15.7v-1.79s.04.02.06.03c.08.04.17.08.25.11v1.58c-.07,0-.13.02-.19.03-.04.01-.08.02-.13.04M34.67,20.01v.86c-.09,0-.2.01-.32.02v-1.02h0s.1.05.15.08c0,0,0,0,0,0,.05.02.11.04.16.06M35.17,19.56c.11,0,.21-.01.31-.04.04-.01.07-.01.11-.01.11,0,.22.05.3.13-.21.12-.45.19-.71.19-.78,0-1.4-.63-1.41-1.4v-1.52c0-.55.44-1,.99-1.01.01,0,.03.02.05.03.02.02.04.05.04.1,0,.06-.02.09-.05.11-.01.01-.03.02-.04.03-.4.02-.72.34-.72.74v1.52c0,.63.51,1.14,1.14,1.14M35.51,18.79c.05,0,.11.01.16.01.33,0,.63-.16.81-.4l.02-.03s.01,0,.03,0c.02,0,.04.02.04.04,0,0,0,0,0,.01,0,0,0,0,0,.01,0,.42-.19.8-.48,1.05-.13-.15-.31-.24-.51-.24-.02,0-.05,0-.07,0v-.45ZM34.15,24.71v.32c0,.13-.1.23-.23.23-.13,0-.23-.1-.23-.23v-.27s.03-.08.04-.12c.09.06.19.09.3.09.04,0,.07,0,.11-.01M34.04,24.46c-.16,0-.29-.13-.29-.29v-.5c.25-.17.41-.46.41-.78s-.16-.61-.41-.78v-.4c.21,0,.4,0,.57-.02v2.48c0,.16-.13.29-.29.29M35.02,23.17s.01.09.01.13v1.53s0,.01,0,.02c-.07.13-.1.27-.1.43,0,0,0,0,0,0,0,.42.35.76.77.76.35,0,.64-.29.64-.64,0-.07-.06-.13-.13-.13s-.13.06-.13.13h0c0,.21-.17.37-.37.37-.28,0-.5-.22-.5-.5h0c0-.37.3-.66.66-.66.47,0,.86.38.86.86,0,.61-.49,1.1-1.1,1.1-.7,0-1.27-.51-1.39-1.17.12-.09.2-.23.2-.39v-.45c.11-.1.18-.24.18-.4v-.25s.02-.02.02-.03c.16-.22.3-.47.41-.72M16.83,20c.09.15.13.36.13.6,0,.53-.2,1.2-.45,1.73-.04.09-.08.17-.13.25.17-.5.28-1.09.28-1.64,0-.36-.05-.71-.17-1.02.11.04.22.08.34.08M15.94,22.98h0c-.09-.36-.14-.79-.14-1.23,0-.66.13-1.33.42-1.79h0c.12.28.17.62.17.98,0,.71-.2,1.49-.45,2.03M15.58,22.52c-.02-.07-.04-.14-.06-.22-.11-.4-.18-.88-.18-1.31,0-.38.06-.73.19-.96.03-.05.06-.1.09-.14.03,0,.06,0,.09,0,.08,0,.17,0,.26-.02-.32.52-.43,1.21-.43,1.87,0,.27.02.53.05.77M13.21,20.8c-.65.39-1.38.67-1.88.79.54-.25,1.12-.61,1.65-1.04.65-.54,1.21-1.18,1.46-1.89.03.06.07.12.1.19.05.09.1.18.17.25.02.02.04.04.06.06-.12.57-.77,1.18-1.55,1.64M10.92,21.48c.29-.56.75-1.21,1.31-1.77.6-.59,1.3-1.07,1.97-1.21-.21.66-.75,1.31-1.4,1.84-.61.5-1.3.9-1.89,1.13h0ZM10.85,21.06c.04-.13.1-.27.17-.42.26-.58.69-1.28,1.18-1.83.45-.51.96-.88,1.42-.93.02.02.04.05.06.07.1.1.24.2.37.29.01,0,.02.01.03.02-.72.18-1.42.67-2.02,1.26-.48.48-.9,1.03-1.2,1.54M8.23,6.11h-.35c-.13,0-.23-.1-.23-.23,0-.13.1-.23.23-.23h.35v.45ZM8.23,6.83h-.35c-.13,0-.23-.1-.23-.23,0-.13.1-.23.23-.23h.35v.45ZM8.23,7.55h-.35c-.13,0-.23-.1-.23-.23,0-.13.1-.23.23-.23h.35v.45ZM8.23,8.27h-.35c-.13,0-.23-.1-.23-.23,0-.13.1-.23.23-.23h.35v.45ZM8.23,10.57h-.45v-.23c.04-.09.07-.18.07-.29,0-.3-.24-.54-.54-.54-.26,0-.46.21-.46.46,0,.07.06.13.13.13s.13-.06.13-.13c0-.11.09-.2.2-.2.15,0,.28.13.28.28,0,.21-.17.38-.38.38-.28,0-.51-.23-.51-.51,0-.37.3-.67.67-.67.48,0,.87.39.87.87v.45ZM14.27,2.7c.07.23.14.54.23.97.09.43.13.75.16.99l-.78.11c-.03-.24-.08-.55-.16-.95-.08-.39-.15-.7-.22-.93l.77-.19ZM14.58,2.35s.03,0,.04,0c.06,0,.11.04.13.09.08.26.17.62.28,1.13.1.51.15.89.18,1.15,0,0,0,0,0,.01,0,.07-.05.13-.12.13,0,0,0,0-.01,0-.06,0-.12-.05-.13-.11,0,0,0,0,0-.01-.02-.26-.07-.62-.18-1.13-.1-.51-.19-.86-.27-1.11,0-.01,0-.03,0-.04,0-.06.04-.11.09-.13M19.08,1.08c.1.15.18.3.27.46l-2.84,1.18c-.03-.09-.07-.18-.11-.26-.04-.08-.09-.15-.15-.21l2.84-1.17ZM19.58.87c.09.15.18.31.26.47l-.25.1c-.08-.16-.17-.31-.26-.47l.25-.1ZM19.68,2.36c.05.17.1.34.14.51l-3.1.62h-.03c-.01-.08-.03-.16-.04-.24-.02-.09-.04-.18-.06-.27h.03s3.07-.62,3.07-.62ZM20.21,2.25c.05.17.1.34.13.51l-.26.05c-.04-.17-.08-.35-.13-.51l.27-.05ZM19.93,3.75c0,.09,0,.18,0,.27s0,.18,0,.27h-3.26c.04-.12.05-.25.05-.39,0-.05,0-.1,0-.14h3.21ZM20.2,3.75h.27c0,.09,0,.18,0,.27s0,.18,0,.26h-.27c0-.09,0-.18,0-.26s0-.18,0-.27M13.71,6.67c.08-.39.13-.7.16-.95l.78.11c-.03.24-.07.56-.16.99-.09.43-.16.74-.23.97l-.77-.19c.07-.24.14-.54.22-.93M14.75,6.87c.1-.51.15-.87.18-1.13,0-.07.06-.12.13-.12,0,0,0,0,0,0,.07,0,.12.06.12.13,0,0,0,0,0,.01-.02.27-.08.64-.18,1.15-.1.51-.2.88-.28,1.13-.02.06-.07.09-.13.09-.01,0-.03,0-.04,0-.06-.02-.09-.07-.09-.13,0,0,0-.02,0-.02,0,0,0-.01,0-.02.08-.25.17-.6.27-1.11M16.39,8.03c.05-.09.09-.19.12-.29l3.06,1.27c-.06.17-.12.33-.2.49l-3.11-1.29c.05-.06.09-.12.13-.18M16.64,7.25c.02-.09.03-.18.05-.27h.03l3.14.62c-.01.18-.03.35-.06.53l-3.18-.63h-.03c.02-.09.04-.17.05-.25l-.13-.03.13.03ZM19.77,6.18c.03.17.06.35.08.53h-3.13s0-.07,0-.11c0-.15-.02-.29-.07-.42h3.12ZM20.31,6.18c.03.17.05.35.07.53h-.27c-.02-.18-.04-.36-.07-.53h.27ZM20.12,7.65l.27.05c-.01.18-.04.35-.06.53l-.26-.05c.03-.17.05-.35.06-.53M19.82,9.11l.25.1c-.06.17-.12.33-.2.49l-.25-.1c.07-.16.14-.32.2-.49M37.08,30.42s-.02-.07-.03-.1l-.52-1.26-.02-.05-.11-.27s0,0,0,0l-.78-1.89c.75,0,1.36-.62,1.36-1.37,0-.62-.5-1.12-1.12-1.12-.21,0-.4.07-.56.19v-1.24c0-.2-.05-.39-.13-.55.05-.18.07-.35.07-.51,0-.27-.08-.49-.22-.65.11-.07.19-.18.2-.32,0-.01,0-.03,0-.05-.03-.16-.14-.26-.28-.31v-.84h0c.08.01.15.02.24.02,0,0,0,0,0,0s0,0,0,0c.05,0,.1,0,.15,0,.02,0,.03,0,.05,0,0,0,0,0,0,0,0,0,0,0,.01,0,0,0,0,0,.01,0,.02,0,.04,0,.07-.01.02,0,.04,0,.06-.01,0,0,.01,0,.02,0,.02,0,.04-.01.07-.02.02,0,.04-.01.07-.02h0s.03-.01.05-.02c0,0,.01,0,.02,0,.03,0,.05-.02.08-.03.02,0,.03-.02.05-.02,0,0,0,0,.01,0,.01,0,.03-.01.04-.02,0,0,0,0,0,0,.03-.01.05-.03.08-.04,0,0,0,0,0,0,0,0,.02-.01.03-.02.02,0,.03-.02.05-.03.02,0,.03-.02.04-.03h0s0,0,0,0c0,0,.01,0,.02-.01.02-.02.04-.03.06-.05.02-.02.04-.03.06-.05.02-.02.04-.03.06-.05.02-.02.03-.04.05-.05.02-.02.04-.04.05-.06.02-.02.03-.04.05-.06.02-.02.03-.04.05-.06.01-.02.03-.04.04-.06.02-.02.03-.05.04-.07.01-.02.02-.04.03-.06.01-.02.03-.05.04-.08,0-.02.02-.04.03-.07.01-.03.02-.05.03-.08,0-.02.02-.04.02-.07,0-.03.02-.06.02-.09,0-.02.01-.04.02-.07,0-.03.01-.07.02-.1,0-.02,0-.04,0-.06,0-.05,0-.11,0-.16,0-.02,0-.04,0-.04-.01-.16-.14-.28-.3-.28-.09,0-.18.04-.23.11l-.03.03c-.14.18-.36.29-.6.29-.02,0-.05,0-.07,0-.01,0-.02,0-.03,0-.01,0-.02,0-.03,0-.02,0-.03,0-.05-.01,0,0,0,0-.01,0-.02,0-.04-.01-.05-.02-.25-.09-.44-.3-.49-.56v-1.58s.02-.01.03-.02c.07-.06.14-.17.14-.31,0-.15-.07-.26-.14-.31-.01,0-.02-.02-.03-.02v-1.58c.08.01.16.02.24.02.05,0,.1,0,.16,0,.02,0,.03,0,.05,0,0,0,0,0,0,0,0,0,.01,0,.02,0,0,0,0,0,.01,0,.02,0,.04,0,.06-.01.02,0,.04,0,.06-.01,0,0,.02,0,.02,0,.02,0,.04-.01.06-.02.02,0,.04-.01.07-.02.02,0,.05-.02.07-.02,0,0,.02,0,.03-.01.01,0,.02,0,.03-.01,0,0,.01,0,.02,0,.02,0,.05-.02.07-.03,0,0,0,0,0,0h0s.02,0,.03-.02c0,0,0,0,0,0,.03-.02.06-.03.09-.05,0,0,0,0,0,0,0,0,.02-.01.03-.02.02,0,.03-.02.05-.03.01,0,.03-.02.04-.03,0,0,0,0,0,0,0,0,0,0,0,0,0,0,0,0,.02-.01.02-.02.04-.03.06-.05.02-.02.04-.03.06-.05.02-.02.04-.03.06-.05.02-.02.03-.04.05-.05.02-.02.04-.04.05-.06.02-.02.03-.04.05-.06.02-.02.03-.04.05-.06.01-.02.03-.04.04-.06.02-.02.03-.05.04-.07.01-.02.02-.04.03-.06.01-.02.03-.05.04-.08,0-.02.02-.04.03-.07.01-.03.02-.05.03-.08,0-.02.02-.04.02-.07,0-.03.02-.06.02-.09,0-.02.01-.04.02-.07,0-.03.01-.07.02-.1,0-.02,0-.04,0-.06,0-.05,0-.11,0-.16,0-.02,0-.04,0-.04-.01-.16-.14-.28-.3-.28-.09,0-.18.04-.23.11l-.03.03c-.14.18-.36.29-.6.29-.02,0-.05,0-.07,0-.01,0-.02,0-.03,0-.01,0-.02,0-.03,0-.02,0-.03,0-.05-.01,0,0-.01,0-.02,0-.02,0-.03,0-.05-.02-.25-.09-.44-.3-.49-.56v-1.58s.02-.01.03-.02c.07-.06.14-.17.14-.31,0-.15-.07-.26-.14-.31-.01,0-.02-.02-.03-.02-.01-.59-.12-1.15-.32-1.67.18-.06.35-.15.5-.28.04-.04.09-.07.13-.11,0,0,0,0,0,0,.04-.03.07-.07.1-.11.01-.01.02-.03.03-.04,0,0,0,0,0,0,0,0,0,0,0,0,0,0,0,0,0-.01.01-.02.03-.04.04-.05,0-.01.02-.03.03-.04,0,0,0-.01.01-.02.01-.02.03-.04.04-.06,0,0,0,0,0,0,0-.02.02-.04.03-.05,0,0,0,0,0,0,0-.01.01-.03.02-.04.01-.02.02-.05.03-.07,0,0,0,0,0,0,0,0,0,0,0-.01,0-.02.01-.04.02-.05,0-.02.02-.05.02-.07,0-.01,0-.03.01-.04,0,0,0-.01,0-.02,0,0,0,0,0-.01,0-.02.01-.05.02-.07,0-.02.01-.05.01-.07,0,0,0,0,0-.01,0,0,0,0,0,0h0s0-.04,0-.06c0-.02,0-.05,0-.07,0-.03,0-.07,0-.1,0-.01,0-.03,0-.04,0-.28-.07-.56-.21-.81-.07-.13-.17-.26-.28-.37-.01,0-.02-.02-.03-.02,0,0,0,0,0,0-.03-.02-.05-.04-.08-.05-.03-.01-.06-.02-.08-.02,0,0-.02,0-.03,0h0c-.08,0-.16.03-.22.09h0s0,0,0,0c-.02.02-.04.05-.06.08-.02.04-.03.09-.03.13,0,0,0,.01,0,.02,0,0,0,0,0,.01h0s0,.04,0,.04c0,.01,0,.03,0,.05,0,.02,0,.03,0,.05,0,.15-.04.3-.13.42-.03.04-.06.08-.09.11,0,0,0,0,0,0-.03.03-.06.05-.09.08,0,0,0,0,0,0-.03.02-.07.04-.11.06,0,0,0,0,0,0-.1.05-.22.08-.33.08-.17,0-.33-.05-.47-.16-.09-.09-.17-.18-.27-.26l-.8-.8s.01-.06.01-.1c0-.09-.03-.2-.12-.29-.09-.09-.2-.12-.28-.12-.11,0-.19.04-.2.05l-.03.02c-.08.08-.14.16-.19.25-.57-.22-1.19-.34-1.84-.34-.61,0-1.2.11-1.74.3-.08-.24-.21-.47-.41-.66-.04-.04-.08-.07-.12-.1-.01-.01-.02-.02-.04-.03,0,0,0,0-.01,0,0,0,0,0,0,0,0,0,0,0,0,0-.02-.01-.04-.03-.06-.04-.01,0-.03-.02-.04-.03,0,0-.01,0-.02-.01-.02-.01-.04-.03-.07-.04,0,0,0,0,0,0,0,0-.01,0-.02,0-.01,0-.03-.01-.04-.02-.01,0-.03-.01-.04-.02-.02-.01-.05-.02-.07-.03-.02,0-.04-.02-.07-.03-.02,0-.05-.02-.07-.03-.01,0-.03,0-.04-.01,0,0,0,0-.01,0,0,0,0,0-.02,0-.03,0-.05-.01-.08-.02-.02,0-.05,0-.07-.01,0,0,0,0-.01,0,0,0,0,0,0,0,0,0,0,0,0,0-.02,0-.04,0-.07,0-.02,0-.04,0-.06,0-.04,0-.07,0-.11,0-.01,0-.02,0-.03,0-.38,0-.77.13-1.08.39-.04.03-.07.06-.1.09h0s0,0,0,.01c0,0-.02.02-.02.02-.03.04-.06.09-.07.14,0,.02,0,.04,0,.06,0,.08.03.16.09.22.06.06.14.09.22.09,0,0,0,0,.01,0,0,0,0,0,.01,0h0s.04,0,.04,0c.03,0,.06,0,.09,0,.18,0,.36.06.5.19.01.01.03.02.04.04.03.03.06.06.08.09,0,0,0,0,0,0,.02.03.04.07.06.11h0c.05.1.08.22.08.33,0,.2-.07.39-.22.54l-1,1s-.06-.01-.1-.01c-.09,0-.2.03-.29.12-.09.09-.12.2-.12.28,0,.11.04.19.05.2l.02.03s.1.09.16.13c.02.02.05.03.07.05-.22.54-.34,1.13-.36,1.75-.04,0-.08-.01-.12-.02-.06,0-.11,0-.17,0-.05,0-.1,0-.15,0,0,0,0,0,0,0-.02,0-.04,0-.06,0-.82.11-1.45.81-1.45,1.65,0,0,0,0,0,0s0,0,0,0c0,.02,0,.04,0,.04.01.16.14.28.3.28.09,0,.18-.04.23-.11l.03-.03c.14-.18.36-.29.6-.29.42,0,.76.34.76.76v1.41s-.03.02-.05.04c-.07.06-.14.17-.14.31,0,.15.08.26.14.31.03.02.05.04.08.05v1.56c-.09-.02-.19-.03-.28-.03-.05,0-.1,0-.16,0h0s-.04,0-.06,0c-.82.11-1.45.81-1.45,1.65,0,0,0,0,0,0,0,0,0,0,0,0,0,.02,0,.04,0,.04.01.16.14.28.3.28.09,0,.18-.04.23-.11l.03-.03c.14-.18.36-.29.6-.3.42,0,.76.34.76.76v1.41s-.03.02-.05.04c-.07.06-.14.17-.14.31,0,.15.08.26.14.31.03.02.05.04.08.05v1.56c-.09-.02-.19-.03-.28-.03-.05,0-.11,0-.16,0h0s-.04-.01-.06,0c-.82.11-1.45.81-1.45,1.65,0,0,0,0,0,0,0,0,0,0,0,0,0,.02,0,.04,0,.04.01.16.14.28.3.28.09,0,.18-.04.23-.11l.03-.03c.14-.18.36-.29.6-.29.42,0,.76.34.76.76v1.41s-.03.02-.05.04c-.07.06-.14.17-.14.31,0,.15.08.26.14.31.03.02.05.03.07.05-.05.86-.76,1.54-1.64,1.54-.52,0-.99-.25-1.29-.63.02,0,.04,0,.06,0,.01,0,.03,0,.04,0h.02s0,0,0,0c0,0,0,0,0,0,.03,0,.05,0,.08-.01.02,0,.03,0,.05-.01,0,0,0,0,0,0,0,0,.01,0,.02,0,.03,0,.05-.01.08-.02.02,0,.04,0,.05-.02,0,0,0,0,0,0,0,0,.01,0,.02,0,.03,0,.05-.02.08-.03.02,0,.03-.01.05-.02.02,0,.04-.02.06-.03.02,0,.03-.02.05-.02,0,0,0,0,0,0,0,0,.01,0,.02-.01.02-.01.04-.02.06-.03.01,0,.02-.01.03-.02.02,0,.03-.02.05-.03.01,0,.03-.02.04-.03,0,0,0,0,0,0,0,0,0,0,0,0,0,0,0,0,.01,0,.02-.02.04-.03.07-.05.02-.02.04-.03.05-.05.02-.02.04-.04.06-.06.02-.02.03-.03.05-.05.02-.02.04-.04.06-.06.02-.02.03-.04.04-.05.02-.02.03-.04.05-.07.01-.02.03-.04.04-.06.02-.02.03-.05.04-.07.01-.02.02-.04.03-.06.01-.03.03-.05.04-.08,0-.02.02-.04.03-.06.01-.03.02-.05.03-.08,0-.02.02-.04.02-.07,0-.03.02-.06.02-.09,0-.02.01-.04.02-.06,0-.03.01-.07.02-.1,0-.02,0-.04,0-.06,0-.05,0-.11,0-.16,0-.01,0-.02,0-.03,0,0,0,0,0-.01,0-.04-.01-.08-.03-.11-.03-.07-.09-.12-.16-.15-.03-.01-.07-.02-.11-.02-.09,0-.18.04-.23.11l-.03.03c-.08.1-.19.19-.31.24-.09.04-.19.06-.29.06-.02,0-.05,0-.07,0-.01,0-.02,0-.03,0-.01,0-.02,0-.03,0-.01,0-.03,0-.04,0,0,0-.01,0-.02,0-.02,0-.03,0-.05-.02-.29-.1-.5-.37-.51-.69v-1.44s.03-.02.05-.04c.07-.06.14-.17.14-.31,0-.15-.08-.26-.15-.31-.02-.01-.03-.02-.05-.03v-1.57s.03,0,.05,0c.07,0,.14.02.21.02,0,0,0,0,0,0,.05,0,.1,0,.14,0,.02,0,.04,0,.05,0h0s.01,0,.02,0c0,0,0,0,.02,0,.02,0,.04,0,.06-.01.02,0,.04,0,.06-.01,0,0,.02,0,.02,0,.02,0,.04-.01.06-.02.02,0,.05-.01.07-.02.02,0,.05-.02.07-.03.01,0,.02,0,.03-.01,0,0,.02,0,.03,0,0,0,.01,0,.02,0,.03-.01.05-.02.07-.04,0,0,.02,0,.03-.01.03-.01.06-.03.08-.05,0,0,0,0,0,0,0,0,.01,0,.02-.01.02-.01.04-.02.05-.03.01,0,.03-.02.04-.03,0,0,0,0,0,0,0,0,0,0,0,0,0,0,0,0,0,0,.02-.02.05-.03.07-.05.02-.01.03-.03.05-.05.02-.02.04-.04.06-.06.02-.02.03-.03.05-.05.02-.02.04-.04.06-.06.02-.02.03-.04.04-.05.02-.02.03-.04.05-.07.01-.02.03-.04.04-.06.02-.02.03-.05.04-.07.01-.02.02-.04.03-.06.01-.03.03-.05.04-.08,0-.02.02-.04.03-.06.01-.03.02-.06.03-.08,0-.02.02-.04.02-.07,0-.03.02-.06.02-.09,0-.02.01-.04.02-.06,0-.03.01-.07.02-.1,0-.02,0-.04,0-.06,0-.05,0-.11,0-.16,0-.02,0-.04,0-.04-.01-.16-.14-.28-.3-.28-.09,0-.18.04-.23.11l-.03.03c-.14.18-.36.29-.6.3-.02,0-.05,0-.07,0-.01,0-.03,0-.04,0,0,0-.02,0-.03,0-.02,0-.03,0-.05-.01,0,0,0,0-.01,0-.02,0-.04-.01-.06-.02-.29-.1-.5-.37-.51-.69v-1.44s.03-.02.05-.04c.07-.06.14-.17.14-.31,0-.15-.08-.26-.15-.31-.02-.01-.03-.02-.05-.03-.02-2.11-1.29-3.91-3.11-4.7.25-.25.43-.57.5-.93,0,0,0-.01,0-.02,0,0,0-.01,0-.02,0-.02,0-.04,0-.06,0,0,0-.02,0-.03h0s0,0,0,0c0,0,0-.01,0-.02h0s0-.04,0-.05c0-.06,0-.11,0-.17,0-.13-.01-.27-.04-.39-.03-.13-.07-.26-.13-.39h0s0,0,0,0l-.05-.08h0c-.03-.05-.07-.09-.11-.11,0,0-.01,0-.02,0-.04-.02-.08-.03-.13-.03-.13,0-.24.08-.29.19h0s0,0,0,0l-.03.07c-.02.05-.04.1-.06.15,0,.01-.01.03-.02.04-.02.04-.04.08-.06.11,0,0-.01.02-.02.03-.03.04-.06.09-.09.13,0,0-.01.02-.02.03-.03.03-.05.06-.08.09-.01.01-.02.02-.03.03-.03.03-.06.06-.1.08-.01,0-.02.02-.03.03-.13.1-.28.19-.44.24v-.07c-.01-.29-.25-.53-.55-.53-.16,0-.31.07-.41.18-.1-.12-.25-.2-.42-.2s-.31.07-.41.19c-.1-.12-.25-.19-.41-.19-.2,0-.38.11-.47.27-.18-.22-.43-.37-.73-.41-.12-.01-.25-.01-.33-.03-.08-.02-.09-.03-.11-.07l-.04-.15h0c-.17-.54-.54-.96-1-1.2-.24-.13-.51-.19-.79-.19-.25,0-.51.06-.74.17v-1.38s2.74.69,2.74.69h0l.92.23c.01.16.12.29.28.34.04.01.08.02.12.02h0c.13,0,.26-.07.33-.18l.71.18h0s.09.02.14.02h0c.08,0,.15-.02.21-.04l3.58,1.48,1.31.54c.07.03.14.04.2.04h0c.21,0,.4-.12.49-.33.03-.07.04-.13.04-.2,0-.03,0-.05,0-.08,0-.05-.02-.1-.04-.14,0,0,0,0,0,0-.05-.12-.15-.21-.28-.27l-1.31-.54s0,0,0,0l-.21-.09-1.92-.8,2.01.4s0,0,0,0l.41.08h0l1.44.29s.07.01.1.01c.25,0,.47-.17.52-.43,0,0,0,0,0-.01,0-.03,0-.06,0-.09,0-.15-.06-.28-.16-.38,0,0-.01-.01-.02-.02,0,0-.01,0-.02-.01-.06-.05-.14-.09-.23-.11l-3.86-.77h1.91s0,0,0,0h.54s0,0,0,0h1.27c.29,0,.53-.24.53-.53,0-.29-.24-.53-.53-.53h-5.34c-.08-.06-.17-.1-.27-.12h0s-.73-.11-.73-.11c-.03-.17-.17-.3-.35-.32-.01,0-.03,0-.04,0-.15,0-.28.08-.35.21l-1.98-.29-.25-.04,1.3-.19h0l.94-.14c.07.13.2.21.35.21.01,0,.02,0,.04,0,.18-.02.32-.15.35-.32l.73-.11h0c.13-.03.23-.08.32-.16h3.55s0,0,0,0h.54s0,0,0,0h1.21c.29,0,.53-.24.53-.53,0-.29-.24-.53-.53-.53h-3.72l1.98-.39.44-.09h.03s1.41-.29,1.41-.29c.17-.03.3-.15.37-.29.03-.07.05-.15.05-.23,0-.03,0-.07-.01-.1-.05-.25-.27-.43-.52-.43-.03,0-.07,0-.1.01h0l-1.25.25-.19.04h-.02s-.29.06-.29.06l-2.11.42,2.13-.88.21-.09,1.1-.46h0s.03-.01.04-.02c.08-.04.14-.1.19-.17.04-.06.07-.13.08-.2,0-.03.01-.07.01-.1,0-.03,0-.06,0-.1,0-.04-.02-.07-.03-.11-.03-.07-.07-.12-.12-.17C21.38.06,21.25,0,21.11,0c-.07,0-.14.01-.2.04l-1.31.54s0,0,0,0c0,0,0,0,0,0h0s0,0,0,0l-.22.09-3.4,1.41c-.05-.02-.1-.02-.16-.02-.04,0-.09,0-.14.01h0s-.71.18-.71.18c-.07-.11-.2-.18-.33-.18-.04,0-.08,0-.12.02-.16.05-.26.19-.28.34l-.92.23h0l-3.29.83s-.06-.06-.09-.09c0,0-.02-.02-.03-.03-.05-.05-.11-.1-.17-.15-.02-.01-.03-.02-.05-.03-.05-.04-.1-.07-.15-.1-.02,0-.03-.02-.05-.03-.07-.04-.13-.07-.2-.1-.01,0-.03-.01-.04-.02-.06-.02-.12-.05-.18-.06-.02,0-.04-.01-.06-.02-.07-.02-.15-.04-.23-.05-.1-.02-.21-.02-.31-.03,0,0-.02,0-.02,0-.81,0-1.51.45-1.87,1.11-.05.1-.1.2-.13.3,0,0,0,0,0,0-.1.25-.12.44-.12.71,0,0,0,0,0,0,0,.07,0,.14.01.22h0s0,.02,0,.03c0,.03,0,.05,0,.08,0,0,0,.02,0,.03,0,0,0,0,0,0,0,0,0,0,0,0,0,.01,0,.02,0,.03,0,0,0,0,0,0,0,.05.02.09.03.14h0s.03.09.04.14c0,0,0,0,0,0,0,0,0,.02,0,.03.02.05.03.09.05.13,0,.02.02.03.03.04,0,0,0,0,0,0,0,0,.02.02.03.02.02,0,.03.01.05.01.01,0,.03,0,.04,0,0,0,0,0,0,0,0,0,0,0,0,0,0,0,0,0,0,0,0,0,.01,0,.02-.01,0,0,.01,0,.02-.01.01,0,.02-.02.03-.04.03-.06.07-.11.11-.16.01-.02.03-.03.04-.05.03-.03.06-.07.09-.1.02-.02.03-.03.05-.05.03-.03.06-.06.1-.08.02-.01.04-.03.06-.04.03-.02.07-.04.1-.06.03-.02.06-.03.1-.05.01,0,.03-.01.04-.02.04-.02.09-.03.13-.05.03,0,.06-.01.08-.02.03,0,.06-.01.09-.02.03,0,.05,0,.08-.01.05,0,.1-.01.15-.01,0,0,0,0,0,0,.03,0,.06,0,.08.01.02,0,.04.01.06.02.06.03.1.08.13.14.01.04.02.07.02.11v.03h-.35c-.27,0-.49.22-.49.49,0,.14.06.27.16.36-.1.09-.16.22-.16.36s.06.27.16.36c-.1.09-.16.22-.16.36s.06.27.16.36c-.1.09-.16.22-.16.36,0,.27.22.49.49.49h.35v.86c-.21-.25-.52-.41-.87-.41-.52,0-.94.42-.94.94,0,.43.35.78.78.78.11,0,.22-.03.32-.08v.46c0,.43.32.78.73.84.02.2.08.38.16.55,0,0,0,.02.01.03.01.03.03.05.04.08.01.03.03.05.04.07.02.04.05.07.07.11.01.02.02.03.03.05-.21.28-.35.62-.37.99h-.36c-.27,0-.49.22-.49.49,0,.14.06.27.16.36-.1.09-.16.22-.16.36s.06.27.16.36c-.1.09-.16.22-.16.36,0,.27.22.49.49.49h.35v.05s0,0,0,.01c0,.02,0,.03,0,.05-.01.07-.05.13-.1.17,0,0-.01,0-.01,0-.02.02-.05.03-.07.04-.03.01-.07.02-.1.02-.05,0-.09,0-.14,0-.32-.03-.61-.17-.83-.38-.02-.02-.05-.04-.07-.07-.07-.08-.14-.17-.19-.26-.01-.02-.03-.04-.05-.05-.02-.01-.05-.02-.07-.02-.05,0-.09.03-.11.08-.02.04-.03.09-.05.13,0,.01,0,.02-.01.03-.03.09-.05.18-.07.28,0,.01,0,.02,0,.03,0,.05-.02.09-.02.14,0,0,0,0,0,0h0c0,.07-.01.14-.01.22s0,.14.01.21c0,0,0,0,0,0,0,.07.02.14.03.2h0c.03.14.07.27.12.39h0s0,0,0,0c.01.03.03.05.06.06-.02-.01-.04-.04-.06-.06.32.78,1.08,1.32,1.97,1.32,1.18,0,2.13-.95,2.13-2.13v-1.91c0-.2.16-.36.35-.36h2.3c.37.7,1.11,1.18,1.96,1.18h.59c.48,0,.92-.15,1.28-.41.33.22.58.55.68.95,0,0,0,0,0,0-.93,0-1.85.37-2.53,1.06-.08-.07-.18-.1-.27-.1-.22,0-.39.14-.58.29-.12-.1-.25-.15-.38-.15-.21,0-.39.15-.42.37-.76.11-1.47.83-2.03,1.62-.3.43-.56.88-.74,1.28-.18.4-.29.75-.29,1,0,.09.01.17.07.24,0,0,0,0,0,.01,0,0,0,0,0,0h0s0,0,0,0c0,0,0,0,0,0,0,0,.01.01.02.02,0,0,0,0,0,0,.09.08.2.09.33.1.53,0,1.53-.35,2.43-.88.78-.47,1.5-1.08,1.67-1.78.11,0,.21-.04.28-.11.08-.07.14-.19.13-.31,0-.12-.05-.25-.14-.38.19-.19.34-.36.35-.59,0-.09-.03-.18-.09-.25.4-.42.91-.7,1.45-.83-.48.51-.81,1.17-.92,1.9-.13.02-.23.12-.27.22-.04.09-.06.19-.07.29-.1,0-.18.04-.25.1-.08.06-.14.16-.14.27,0,.06.02.12.05.18-.04.05-.07.1-.1.15-.16.3-.22.68-.22,1.09,0,.55.11,1.14.26,1.6.07.23.15.43.24.58.08.13.15.23.27.28,0,0,0,0,0,0,0,0,0,0,.01,0,0,0,0,0,0,0,0,0,0,0,0,0,0,0,.01,0,.02,0,0,0,0,0,0,0h0s0,0,0,0h0s0,0,0,0h0s0,0,0,0c.1,0,.16-.05.23-.1.22-.19.48-.62.69-1.13.21-.51.38-1.11.38-1.63,0-.26-.04-.5-.15-.71.05-.07.09-.15.09-.23,0-.17-.13-.31-.34-.37,0-.03,0-.06,0-.08,0-.12-.01-.23-.07-.33-.03-.06-.08-.11-.15-.14.12-.79.55-1.49,1.17-1.95v6.11h-.12c-.49,0-.88.39-.88.88,0,.32.17.59.42.75-.25.16-.42.43-.42.75s.17.59.42.75c-.25.16-.42.43-.42.75,0,.49.4.88.88.88h.43c.04.11.08.21.12.31.01.03.03.06.04.09.04.09.08.17.13.26.01.03.03.06.04.09.05.1.11.19.17.29l-.7.47c-.06.04-.08.12-.04.18.22.33.47.63.75.91.28.28.58.53.91.75h0c.33.22.68.41,1.04.57.37.16.75.28,1.15.36h0c.4.08.81.13,1.24.13s.84-.04,1.24-.12c0,0,0,0,0,0,.4-.08.79-.2,1.15-.36.37-.16.72-.34,1.04-.57h0c.33-.22.63-.47.91-.75.28-.28.53-.58.75-.91.02-.03.03-.06.02-.1,0-.03-.03-.06-.06-.08l-.7-.47c.51-.8.81-1.75.81-2.78V9.83c0-.91.74-1.64,1.64-1.64.91,0,1.64.74,1.64,1.64v.44h-.74s-.06.01-.09.04c-.02.02-.04.05-.04.09v1.78h0v1.79s.01.06.04.09c.02.02.05.04.09.04h.74v1.06h-.12c-.49,0-.88.4-.88.88,0,.32.17.59.42.75-.25.16-.42.43-.42.75,0,.32.17.59.42.75-.25.16-.42.43-.42.75,0,.49.4.88.88.88h.12v.98c-.16.04-.3.15-.33.33,0,.02,0,.03,0,.05,0,.17.12.3.28.36-.12.15-.19.36-.19.61,0,.12.01.24.04.37-.13.2-.21.44-.21.69v1.25c-.15-.12-.35-.19-.56-.19-.62,0-1.12.5-1.12,1.12,0,.76.61,1.37,1.37,1.37.01,0,.02,0,.03,0l-1.44,3.47c-.03.07-.04.14-.04.2,0,.21.12.4.33.49,0,0,0,0,0,0h0s.02,0,.03,0c.02,0,.05.02.07.02,0,0,.01,0,.02,0,.03,0,.06,0,.08,0h0s.04,0,.05,0c0,0,.02,0,.02,0,.17-.02.32-.13.4-.3,0,0,0-.01.01-.02l.33-.81.09-.22.21-.49h0s.75-1.8.75-1.8l-.39,1.98s0,0,0,0l-.11.53h0s-.27,1.35-.27,1.35c0,0,0,.01,0,.02,0,.03,0,.06,0,.08h0s0,.08.02.12c.05.2.2.36.41.4h0s.07,0,.1,0c.25,0,.47-.17.52-.43l.26-1.3.1-.52.36-1.83v3.94c0,.29.24.53.53.53s.53-.24.53-.53v-3.94l.68,3.44.04.21s.02.06.03.09c.01.03.03.06.04.08.07.12.18.2.31.23.04.01.09.02.14.02.03,0,.07,0,.1,0,.05,0,.09-.03.13-.05.1-.05.18-.13.24-.23.04-.07.06-.16.06-.25,0-.03,0-.07,0-.1h0s-.26-1.33-.26-1.33h0s-.1-.48-.1-.48v-.05s-.01,0-.01,0l-.4-2,.76,1.83h0s.05.13.05.13l.02.06s0,0,0,0l.54,1.31c.08.2.28.33.49.33.05,0,.11-.01.16-.03.01,0,.03,0,.04-.01h0s0,0,0,0c.2-.09.33-.28.33-.49,0-.03,0-.07-.01-.11"/>
  <g>
    <path class="cls-1" d="M20.94,39.88c-.88,0-1.45-.83-1.45-1.97s.57-1.97,1.45-1.97,1.45.83,1.45,1.97-.57,1.97-1.45,1.97M22.9,37.55s0-.04,0-.05c0,0,0,0,0-.02h0c-.18-1.07-1.07-1.66-1.96-1.66s-1.81.62-1.96,1.74c-.04.13-.18.22-.33.22v.09c.16,0,.29.11.32.25.1,1.21,1.04,1.88,1.98,1.88s1.88-.67,1.98-1.88c.03-.14.16-.24.31-.24v-.09c-.15,0-.29-.1-.33-.23M11.48,39.88c-.88,0-1.45-.83-1.45-1.97s.57-1.97,1.45-1.97,1.45.83,1.45,1.97-.57,1.97-1.45,1.97M13.44,37.56s0-.05-.01-.07h0s0,0,0,0c-.18-1.08-1.07-1.67-1.95-1.67s-1.78.59-1.96,1.68v-.02s0,.01,0,.02c0,.01,0,.03,0,.04-.03.13-.18.24-.33.24v.09c.16,0,.29.1.31.24.1,1.21,1.03,1.88,1.98,1.88s1.88-.67,1.98-1.88c.03-.14.16-.25.32-.25v-.09c-.15,0-.29-.1-.33-.23M17.79,39.54c-.19.16-.55.27-.9.27-.76,0-1.73-.53-1.73-2,0-1.28.81-1.86,1.6-1.86.63,0,1.04.36,1.17.53.05.27.08.61.09.74h.13l.02-1.32h-.12c-.02.2-.02.23-.08.23-.05,0-.13-.05-.38-.15-.31-.11-.63-.16-.91-.16-1.04,0-1.85.66-2.02,1.68v-.02s0,.01,0,.02c0,.01,0,.03,0,.04-.03.14-.18.24-.33.24v.09c.15,0,.28.1.31.23.09,1.18.92,1.89,1.97,1.89.84,0,1.35-.37,1.58-.54l.05-.9h-.14c-.06.47-.05.75-.3.97M3.45,39.54c-.19.16-.55.27-.9.27-.76,0-1.73-.53-1.73-2,0-1.28.81-1.86,1.6-1.86.63,0,1.04.36,1.18.53.05.27.08.61.09.74h.13l.02-1.32h-.12c-.02.2-.02.23-.08.23-.05,0-.13-.05-.38-.15-.31-.11-.63-.16-.91-.16-1.07,0-1.89.69-2.03,1.76-.04.12-.16.21-.3.21v.09c.16,0,.27.11.29.25,0,.02,0,.03,0,.05H.29s0,0,0,0c.12,1.14.94,1.81,1.96,1.82.84,0,1.35-.37,1.58-.54l.05-.9h-.14c-.06.47-.05.75-.3.97"/>
    <path class="cls-1" d="M8.2,36.07s.12-.04.38-.05v-.11c-.08,0-.44.01-.65.01-.24,0-.58-.01-.69-.01v.11c.3.02.39.02.43.05.02.02.03.12.03.36v1.35h-2.23v-1.35c0-.24,0-.34.03-.36.04-.04.12-.04.43-.05v-.11c-.11,0-.45.01-.69.01-.21,0-.57-.01-.65-.01v.11c.27.01.35.02.38.05.02.02.03.12.03.36v1.06h0c0,.16-.14.3-.32.3v.09c.18,0,.32.13.32.3h0s0,1.22,0,1.22c0,.24,0,.34-.03.36-.04.04-.12.04-.38.05v.11c.08,0,.44-.01.65-.01.24,0,.58.01.69.01v-.11c-.3-.02-.39-.02-.43-.05-.02-.02-.03-.12-.03-.36v-1.48h2.23v1.48c0,.24,0,.34-.03.36-.04.04-.12.04-.43.05v.11c.11,0,.45-.01.69-.01.21,0,.57.01.65.01v-.11c-.27-.01-.35-.02-.38-.05-.02-.02-.03-.12-.03-.36v-1.25c.02-.15.15-.26.32-.26v-.09c-.16,0-.3-.12-.32-.26v-1.09c0-.24,0-.34.03-.36"/>
    <path class="cls-1" d="M33.97,39.88c-.86,0-1.43-.82-1.43-1.93s.56-1.93,1.43-1.93,1.43.82,1.43,1.93-.56,1.93-1.43,1.93M35.89,37.56h0c-.17-1.07-1.04-1.67-1.92-1.67s-1.76.59-1.93,1.67h0c-.02.14-.17.26-.33.26v.09c.16,0,.29.11.31.26.1,1.18,1.02,1.83,1.94,1.83s1.83-.64,1.94-1.82c.01-.15.15-.27.31-.27v-.09c-.16,0-.31-.12-.33-.26M26.72,37.84c-.13-.07-.19-.24-.12-.4l-.08-.04c-.07.16-.25.24-.4.17-.43-.21-.62-.39-.62-.78s.24-.78.81-.78c.46,0,.75.26.86.42.05.07.07.14.07.6h.12l.03-1.07h-.12c-.01.17-.02.23-.05.23-.03,0-.05-.04-.26-.14-.21-.11-.45-.16-.64-.16-.76,0-1.24.53-1.24,1.13,0,.54.3.77.83,1.01h0c.15.07.21.25.14.41l.08.04c.07-.16.25-.24.4-.17.32.15.59.35.59.77s-.33.8-.87.8c-.28,0-.66-.13-.88-.29l-.14-.77h-.11l.04.93c.29.1.69.25,1.12.25.68,0,1.28-.48,1.28-1.14,0-.57-.4-.83-.85-1.03M42.9,35.99c-.18,0-.37,0-.56-.01v.11c.11,0,.22,0,.29.01.11.01.15.02.15.06,0,.06-.97,1.55-.97,1.55,0,0-.89-1.51-.89-1.55,0-.04.02-.05.1-.06.09,0,.23-.01.35-.02v-.11c-.16,0-.43.01-.71.01s-.54-.01-.66-.01v.11c.3.01.41.09.58.41l.77,1.28c-.05.03-.11.05-.18.05v.09c.17,0,.31.13.31.29v1.2c0,.28,0,.32-.03.35-.03.03-.12.04-.5.06v.11c.19,0,.52-.01.76-.01s.57.01.76.01v-.11c-.38-.02-.47-.03-.5-.06-.03-.03-.03-.07-.03-.35v-1.2c0-.16.14-.29.31-.29v-.09c-.1,0-.18-.04-.24-.11l.81-1.31c.18-.32.28-.3.56-.32v-.11c-.11,0-.31.01-.49.01M37.95,37.82c-.15-.02-.26-.14-.27-.28v-1.05c0-.26,0-.31.02-.34.01-.03.06-.06.35-.06.38,0,.61.06.79.2.23.19.36.42.36.75,0,.41-.25.8-.92.8-.1,0-.22,0-.34-.02M39.71,39.48c-.02-.62-.12-1.31-.94-1.54,0,0-.13-.03-.13-.05,0-.02,1.02-.04,1.02-.91,0-.32-.16-.62-.45-.81-.23-.16-.58-.21-1-.21-.1,0-.25,0-.39.01-.14.01-.27.02-.37.02-.2,0-.56-.01-.64-.01v.11c.26.01.34.02.38.05.02.02.03.12.03.35v1.04c0,.16-.14.29-.32.29v.09c.17,0,.32.13.32.29v1.2c0,.24,0,.33-.03.35-.03.03-.12.04-.38.05v.11c.08,0,.43-.01.64-.01.24,0,.57.01.68.01v-.11c-.3-.02-.38-.02-.42-.05-.02-.02-.03-.12-.03-.35v-1.21c0-.16.14-.25.31-.25h.06c.43,0,.63.05.86.27.22.2.31.47.31,1.21v.48c.26,0,.39,0,.9.01v-.11c-.28-.01-.35-.03-.38-.05-.02-.02-.03-.08-.04-.28"/>
    <path class="cls-1" d="M31.53,35.82h-.12c-.01.09-.02.12-.08.14-.1.02-1.05.03-1.51.03-.46,0-1.41,0-1.51-.03-.05-.02-.06-.05-.08-.14h-.12v.97s.1,0,.1,0c.06-.5.07-.54.16-.61.08-.06.56-.07.77-.07.3,0,.38,0,.41.03.02.02.03.09.03.35v1.04c0,.16-.14.29-.31.29v.09c.17,0,.31.13.31.29h0s0,1.2,0,1.2c0,.28,0,.32-.03.35-.03.03-.12.04-.5.06v.11c.19,0,.52-.01.76-.01s.57.01.76.01v-.11c-.38-.02-.47-.03-.5-.06-.03-.03-.03-.07-.03-.35v-1.22c.01-.15.15-.27.31-.27v-.09c-.17,0-.3-.12-.31-.27v-1.06c0-.26,0-.32.03-.35.03-.03.1-.03.41-.03.21,0,.7.01.77.07.09.07.1.12.16.61h.12v-.97Z"/>
    <rect class="cls-1" x="23.79" y="37.78" width="1.18" height=".25"/>
  </g>
</svg>