<?xml version="1.0" encoding="UTF-8"?>
<svg id="CLIENTES" xmlns="http://www.w3.org/2000/svg" version="1.1" viewBox="0 0 142.48 40">
  <defs>
    <style>
      .cls-1 {
        fill: #2dbfba;
      }

      .cls-1, .cls-2, .cls-3, .cls-4 {
        stroke-width: 0px;
      }

      .cls-2 {
        fill: #386639;
      }

      .cls-3 {
        fill: #00afaa;
      }

      .cls-4 {
        fill: #76bc21;
      }
    </style>
  </defs>
  <g id="Overprint_mzo16" data-name="Overprint mzo16">
    <g>
      <path class="cls-3" d="M23.3,27.62c0,.87-.48,1.72-1.95,1.72H5.24c.27,3.73,2.81,6.53,7.28,6.53,2.79,0,4.46-.97,6.24-2.65.44-.42,1.02-.8,1.67-.8,1.13,0,2.1.8,2.1,2.1,0,.54-.27,1.03-.63,1.45-2.05,2.38-5.72,3.93-9.61,3.93-8.04,0-12.29-5.6-12.29-12.34s5.12-12.35,12.07-12.35,11.23,5.5,11.23,12.4M12.07,19.26c-3.72,0-6.25,2.64-6.74,5.99h13.26c-.44-3.23-2.84-5.99-6.52-5.99"/>
      <path class="cls-3" d="M33.5,32.25l6.75-15.42c.36-.86.97-1.39,2.14-1.39,1.31,0,2.27.91,2.27,2.31,0,.33-.05.6-.21.98l-8.89,19.63c-.39.8-1.08,1.34-2.06,1.34s-1.66-.54-2.05-1.34l-8.9-19.63c-.14-.38-.22-.64-.22-.98,0-1.4.99-2.31,2.27-2.31,1.19,0,1.78.53,2.17,1.39l6.74,15.42Z"/>
      <path class="cls-3" d="M66.92,27.62c0,.87-.48,1.72-1.93,1.72h-16.14c.27,3.73,2.81,6.53,7.3,6.53,2.8,0,4.47-.97,6.26-2.65.42-.42,1.01-.8,1.66-.8,1.14,0,2.1.8,2.1,2.1,0,.54-.26,1.03-.65,1.45-2.05,2.38-5.73,3.93-9.59,3.93-8.04,0-12.32-5.6-12.32-12.34s5.15-12.35,12.1-12.35,11.21,5.5,11.21,12.4M55.71,19.26c-3.72,0-6.26,2.64-6.74,5.99h13.26c-.43-3.23-2.86-5.99-6.52-5.99"/>
      <path class="cls-3" d="M85.94,18.11c-1.74-1.74-4.28-2.71-7.4-2.71s-5.64.97-7.4,2.71c-1.74,1.74-2.68,4.22-2.68,7.25v11.75c0,1.35,1.05,2.46,2.41,2.46s2.43-1.1,2.43-2.46v-12.18c.03-3.05,1.72-5.06,5.23-5.08,3.53.02,5.22,2.03,5.26,5.08v12.18c0,1.35,1.07,2.46,2.4,2.46s2.44-1.1,2.44-2.46v-11.75c0-3.03-.94-5.51-2.7-7.25"/>
    </g>
    <g>
      <path class="cls-1" d="M104.09,15.86c.7,0,1.33.6,1.33,1.36s-.63,1.35-1.33,1.35h-6.15v19.51c0,.92-.7,1.62-1.62,1.62s-1.62-.7-1.62-1.62v-19.51h-3.76c-.75,0-1.36-.59-1.36-1.35s.61-1.36,1.36-1.36h3.76v-3.34c0-5.87,2.54-9.17,8.62-9.17h1.13c.77,0,1.35.59,1.35,1.35s-.57,1.35-1.35,1.35h-.97c-3.72,0-5.55,1.62-5.55,6.42v3.39h6.15ZM110.67,39.69c-.92,0-1.63-.7-1.63-1.62V4.54c0-.92.71-1.62,1.63-1.62s1.61.7,1.61,1.62v33.53c0,.92-.69,1.62-1.61,1.62"/>
      <path class="cls-1" d="M128.18,39.9c-7.21,0-12.29-5.49-12.29-12.34s5.08-12.35,12.29-12.35,12.29,5.5,12.29,12.35-5.06,12.34-12.29,12.34M128.18,18.01c-5.07,0-9.05,4.05-9.05,9.55s3.98,9.55,9.05,9.55,9.06-4.04,9.06-9.55-3.98-9.55-9.06-9.55"/>
    </g>
    <g>
      <path class="cls-3" d="M140.41,35.83c-1.31,0-2.1.94-2.1,2.1s.78,2.07,2.1,2.07c1.29,0,2.07-.93,2.07-2.07s-.78-2.09-2.07-2.1M140.41,39.44h0c-1,0-1.51-.7-1.52-1.51,0-.82.52-1.54,1.52-1.54s1.47.72,1.47,1.54-.49,1.51-1.47,1.51"/>
      <path class="cls-3" d="M140.93,38.06c.2-.11.28-.31.28-.55,0-.37-.23-.65-.74-.65h-.53c-.14,0-.23.1-.23.23v1.6c0,.14.09.24.23.24.12,0,.23-.1.23-.24v-.52h.3l.35.65c.06.05.11.11.2.11h.01c.14,0,.22-.11.22-.23,0-.05-.01-.08-.02-.11l-.3-.53ZM140.76,37.51c0,.14-.03.23-.24.24h-.34v-.47h.34c.18,0,.24.08.24.23"/>
    </g>
    <g>
      <path class="cls-4" d="M83.71,9.09c-.05-.52-.05-1.04-.02-1.56-.45-.11-.89-.18-1.32-.18-.62,0-1.2.12-1.71.38-.4.21-.73.49-.97.83-.03.05-.06.09-.08.13-.99,1.65.34,4.06,3.02,5.37,1.13.56,2.32.84,3.4.82.65,0,1.15-.09,1.56-.23-2.07-.49-3.6-2.67-3.87-5.57Z"/>
      <path class="cls-4" d="M88.16,14.41c-.16.08-.28.13-.38.17.13-.05.25-.1.38-.17Z"/>
      <path class="cls-3" d="M87.78,14.58c-.07.03-.13.05-.2.08,0,0,.08-.03.2-.08Z"/>
      <path class="cls-3" d="M92.71,2c-.55-1.01-1.35-1.67-2.36-1.91-.07-.01-.14-.03-.23-.04-.6-.1-1.25-.05-1.88.16-2.49.83-4.36,3.94-4.56,7.32,1.3.33,2.62,1.13,3.59,2.29,1.34,1.59,1.62,3.38.88,4.59,1.09-.55,3.45-2.13,4.71-5.87.84-2.46.79-4.84-.16-6.54Z"/>
      <path class="cls-4" d="M87.28,9.82c-.97-1.15-2.29-1.95-3.59-2.29-.03.51-.03,1.04.02,1.56.27,2.9,1.8,5.08,3.87,5.57.07-.02.14-.05.2-.08.1-.04.22-.09.38-.17.73-1.22.46-3-.88-4.59Z"/>
      <path class="cls-2" d="M87.28,9.82c-.97-1.15-2.29-1.95-3.59-2.29-.03.51-.03,1.04.02,1.56.27,2.9,1.8,5.08,3.87,5.57.07-.02.14-.05.2-.08.1-.04.22-.09.38-.17.73-1.22.46-3-.88-4.59Z"/>
    </g>
  </g>
</svg>