<?xml version="1.0" encoding="UTF-8"?>
<svg id="CLIENTES" xmlns="http://www.w3.org/2000/svg" version="1.1" viewBox="0 0 163.36 40">
  <defs>
    <style>
      .cls-1 {
        fill: #000;
        stroke-width: 0px;
      }
    </style>
  </defs>
  <polygon class="cls-1" points="21 5.4 26.21 5.4 26.21 34.64 21 34.64 21 22.46 9.41 22.46 9.41 34.64 4.2 34.64 4.2 5.4 9.41 5.4 9.41 17.25 21 17.25 21 5.4"/>
  <polygon class="cls-1" points="87.06 23.65 74.42 5.4 70.27 5.4 70.27 34.64 75.48 34.64 75.48 16.3 88.18 34.64 92.27 34.64 92.27 5.4 87.06 5.4 87.06 23.65"/>
  <path class="cls-1" d="M114.3,5c-8.28,0-15,6.72-15,15s6.72,15,15,15,15-6.72,15-15-6.72-15-15-15ZM114.3,29.79c-5.41,0-9.79-4.38-9.79-9.79s4.38-9.79,9.79-9.79,9.79,4.38,9.79,9.79-4.38,9.79-9.79,9.79Z"/>
  <path class="cls-1" d="M150.27,23.98c3.84-1.22,6.62-4.82,6.62-9.06,0-5.25-4.25-9.5-9.49-9.51h0s-11.07,0-11.07,0v29.24h5.21v-13.01l10.85,13.01h6.77l-8.89-10.66ZM141.54,19.22v-8.61h5.8c2.38,0,4.3,1.93,4.3,4.31s-1.93,4.31-4.31,4.31h-5.8Z"/>
  <path class="cls-1" d="M48.24,5c-8.28,0-15,6.72-15,15s6.72,15,15,15,15-6.72,15-15-6.72-15-15-15ZM48.24,29.79c-5.41,0-9.79-4.38-9.79-9.79s4.38-9.79,9.79-9.79,9.79,4.38,9.79,9.79-4.38,9.79-9.79,9.79Z"/>
</svg>