<?xml version="1.0" encoding="UTF-8"?>
<svg id="CLIENTES" xmlns="http://www.w3.org/2000/svg" version="1.1" viewBox="0 0 185.95 40">
  <defs>
    <style>
      .cls-1 {
        fill: #9bbe1d;
      }

      .cls-1, .cls-2 {
        stroke-width: 0px;
      }

      .cls-2 {
        fill: #4d4a4b;
      }
    </style>
  </defs>
  <path class="cls-2" d="M22.8,20.2c2.05,0,3.71,1.66,3.71,3.71,0,.55-.12,1.07-.34,1.53-1.17-1.11-2.74-1.79-4.47-1.79-.92,0-1.8.19-2.6.54,0-.09-.01-.19-.01-.29,0-2.05,1.66-3.71,3.71-3.71M13.1,13.86c.41,0,.74-.33.74-.74s-.33-.74-.74-.74-.74.33-.74.74.33.74.74.74M11.22,16.34c-.36-.06-.7-.19-.99-.37.39.55,1,.95,1.72,1.07.88.14,1.73-.18,2.31-.77-.14-.33-.33-.62-.58-.88-.57.71-1.5,1.11-2.46.95M22.77,11.27c0-.96-.36-1.84-.96-2.5.28.53.43,1.13.43,1.77,0,2.11-1.71,3.82-3.82,3.82-.88,0-1.68-.3-2.33-.79.68.87,1.74,1.43,2.94,1.43,2.06,0,3.73-1.67,3.73-3.73M21.7,25.59c-2.52,0-4.56,2.04-4.56,4.56s2.04,4.56,4.56,4.56,4.56-2.05,4.56-4.56-2.04-4.56-4.56-4.56M40,20c0,11.05-8.95,20-20,20S0,31.05,0,20,8.95,0,20,0s20,8.95,20,20M33.94,12.81c-.68-.68-1.61-1.11-2.65-1.11-.33,0-.65.05-.96.13-2.03-3.78-6.02-6.36-10.62-6.36-6.65,0-12.04,5.39-12.04,12.04,0,3.3,1.33,6.29,3.48,8.47l1.69-1.3s-1.53-2.22-1.89-3.07c-.33-.79-.33-1.4-.23-1.97,0-.03.01-.07.02-.1,0,0,0-.02,0-.02,0-.02.01-.03.01-.05.25-.98,1.13-1.71,2.19-1.71.68,0,1.29.3,1.7.78.65.6,1.08,2.07,1.93,5.39.18.73.18,1.45.06,2.14-.9,1.11-1.44,2.53-1.44,4.08,0,1.94.85,3.68,2.21,4.88-3.74.13-6.35.43-6.35.78,0,.47,4.76.85,10.64.85,3.59,0,6.49-2.91,6.49-6.5,0-1.2-.33-2.32-.89-3.29,2.72-2.21,4.46-5.57,4.46-9.35,0-1.64-.33-3.2-.92-4.62.5-.24,1.05-.38,1.63-.38.52,0,1.02.11,1.47.3M174.72,13.55v19.64h3.93V9.64h-.02c-2.16,0-3.91,1.75-3.91,3.9M109.86,13.55v19.64h3.93V9.64h-.02c-2.16,0-3.91,1.75-3.91,3.9M61.28,15.54c-1.96,0-3.45.74-4.64,2.32v-8.21h-.02c-2.16,0-3.91,1.75-3.91,3.9v19.64h3.93v-8.68c.17-3.34,1.12-5.05,3.73-5.05,3,0,3.57,2,3.57,6.09v7.63h4.03v-9.92c0-5.03-2.42-7.73-6.7-7.73M104.48,15.89h3.6v14.43c0,6.12-3.51,9.63-8.98,9.63-4.19,0-7.02-2-8.35-5.83h3.9c.84,1.55,2.48,2.48,4.38,2.48,3.13,0,5.41-2.19,5.41-5.7v-.16c-1.58,1.64-3.6,2.44-5.92,2.44s-4.41-.8-6.02-2.31c-1.74-1.65-2.77-4.06-2.77-6.38,0-5.22,3.67-9.05,8.79-9.05,2.35,0,4.28.84,5.96,2.51v-2.06ZM104.09,24.43c0-3.03-2.41-5.35-5.15-5.35s-5.21,2.22-5.21,5.15c0,3.09,2.35,5.31,5.25,5.31,2.67,0,5.12-2.35,5.12-5.12M168.86,15.89h3.93v17.3h-3.89v-2.12c-.97,1.74-2.71,2.51-5.38,2.51-5.15,0-8.99-3.97-8.99-9.12,0-2.42.87-4.67,2.48-6.34,1.74-1.84,3.8-2.68,6.41-2.68s4.31.84,5.44,2.54v-2.09ZM168.45,24.59c0-2.9-2.32-5.16-4.87-5.16-2.67,0-4.93,2.16-4.93,4.96,0,3,2.29,5.12,4.99,5.12,2.52,0,4.8-2.25,4.8-4.92M78.25,15.54c-1.97,0-3.45.74-4.64,2.32v-8.21h-.02c-2.16,0-3.91,1.75-3.91,3.9v19.64h3.93v-8.73c.18-3.31,1.13-5,3.74-5,3,0,3.58,2,3.58,6.09v7.63h4.02v-9.92c0-5.03-2.42-7.73-6.7-7.73M144.33,15.45c-1.91,0-3.67.59-5.13,1.6v-1.23s.01,0,.02-.01v-6.17l-.02.02v-.02h-.02c-2.16,0-3.91,1.75-3.91,3.9v7.21l-7.09,7.1-.29.28c-2.01,1.99-5.25,1.98-7.24-.03-1.99-2.01-1.98-5.25.03-7.23,2-2,5.25-1.99,7.24.03,1,1,1.49,2.32,1.48,3.64l3.32-3.31c-.43-1.13-1.09-2.19-2-3.1-3.52-3.55-9.26-3.58-12.82-.05-3.55,3.53-3.57,9.27-.05,12.82,3.53,3.55,9.27,3.58,12.82.04,0,0,.01-.02.02-.02h0s3.8-3.8,3.8-3.8l6.22-6.22c.93-.93,2.2-1.5,3.62-1.5,2.83,0,5.12,2.29,5.12,5.12s-2.29,5.12-5.11,5.12-5.12-2.29-5.12-5.12c0-.03,0-.06,0-.09l-3.32,3.32c1.3,3.4,4.57,5.84,8.43,5.84,5.01,0,9.06-4.06,9.06-9.07,0-5-4.05-9.06-9.06-9.06"/>
  <path class="cls-1" d="M24.33,30.15c0,1.45-1.18,2.63-2.63,2.63s-2.63-1.18-2.63-2.63,1.17-2.63,2.63-2.63,2.63,1.18,2.63,2.63"/>
  <path class="cls-2" d="M185.95,8.7c0,1.25-.99,2.24-2.27,2.24s-2.28-.98-2.28-2.24,1.01-2.21,2.28-2.21,2.27.99,2.27,2.21M181.97,8.7c0,.98.73,1.77,1.73,1.77s1.69-.78,1.69-1.75-.72-1.78-1.7-1.78-1.71.8-1.71,1.77M183.34,9.86h-.51v-2.21c.2-.04.48-.07.85-.07.42,0,.61.07.77.16.12.1.22.27.22.49,0,.25-.19.43-.46.52v.02c.22.08.34.24.41.54.07.34.11.47.16.56h-.55c-.07-.08-.11-.28-.18-.54-.04-.24-.18-.35-.46-.35h-.24v.89ZM183.35,8.61h.24c.28,0,.51-.09.51-.32,0-.2-.15-.33-.47-.33-.13,0-.23.01-.28.03v.63Z"/>
</svg>