<?xml version="1.0" encoding="UTF-8"?>
<svg id="CLIENTES" xmlns="http://www.w3.org/2000/svg" version="1.1" viewBox="0 0 122.92 40">
  <defs>
    <style>
      .cls-1 {
        fill: #fe001a;
        stroke-width: 0px;
      }
    </style>
  </defs>
  <g>
    <path class="cls-1" d="M10.82,16.99c3.09-5.71,8.42-11.94,14.72-14.02,1.29-.32,3.01-.69,4.16.2,1.02.76,1.16,2.05.93,3.21-.3,1.38-1.25,3.12-2.82,3.34-.28,0-.53-.1-.71-.3-.41-.4-.38-.98-.29-1.51.26-1.09,1.27-2.25,2.44-2.41.2-.13.12-.37.06-.54-.16-.24-.34-.43-.62-.49-1.26-.15-2.22.65-3.19,1.31-3.67,2.96-6.34,6.75-8.59,10.54-1.83,3.4-3.39,6.92-3.84,10.89-.22,2.88.69,5.71,3.26,7.1,2.78,1.47,6.38.48,9.16-.28l2.56-.79,4.92-1.46c4.66-1.36,10.5-1.67,15.05.14,2.75,1.15,5.59,2.72,7.38,5.42,0,.07,0,.16-.09.14-3.9-1.06-8.98-2.12-12.85-.27l-.18-.04c-1.17-1.88-3.16-2.92-5.19-3.33-6.56-.63-11.95,2.47-18.12,3.25-3.13.29-6.48.19-8.66-2.2-3.44-3.44-3.03-9.5-1.4-13.64.53-1.46,1.19-2.88,1.92-4.27Z"/>
    <path class="cls-1" d="M19.87,19.04c1.63-2.99,4.13-6.65,7.58-7.74.92-.21,1.92-.12,2.63.49,1.49,1.48.91,4.02.41,5.77,0,.1.08.21.18.23,1.32-.04,2.39-.66,3.34-1.56,2.05-2.29,4.25-5.3,7.59-4.94.62.1,1.23.46,1.56,1.04.85,1.68.02,3.54-1.14,4.82-.44.42-1,.75-1.64.55-.26-.09-.47-.34-.57-.6-.24-1.18.45-2.27,1.4-2.89.27-.27,1.09-.08.87-.69-.17-.24-.43-.27-.7-.27-1.62.68-2.68,2.33-3.62,3.72-1.19,1.86-2.14,3.83-2.78,5.91-.17.75-.39,1.73.05,2.43.32.44.86.63,1.42.49,1.61-.63,3.02-1.92,4.24-3.25,2.81-3.37,4.3-7.54,8.06-10.28,1.17-.81,2.82-1.42,4.22-.68.23.09.41.38.69.27.23-.23.39-.71.84-.59,1.04.02,2.23-.03,3.29.07l.07.1-.3.72-5.84,11.85c-.06.13-.07.3-.04.44.1.17.31.16.47.1.84-.48,1.5-1.37,2.08-2.12.51-.71.97-1.45,1.34-2.23.16-.23.34-.51.65-.47.33.04.74-.1.98.13-.37.99-.96,1.9-1.47,2.84-1.59,2.44-3.65,5.27-6.57,6-.48.06-1.08.1-1.45-.26-.57-.43-.59-1.11-.75-1.72-.06-.07-.16-.09-.24-.06-1.24,1.12-2.52,2.24-4.27,2.02-.54-.12-1.05-.53-1.29-1.04-.45-.87-.23-1.99-.26-2.96-.04-.11-.18-.07-.24-.03-1.9,1.87-3.95,3.55-6.46,4.03-1.17.14-2.17-.21-2.95-1.03-1.88-2.46-.39-5.7.6-8.09.04-.11.03-.27-.11-.3-.68.05-1.34.17-1.99.26l-.23.26c-1.53,2.84-3.19,5.84-5.94,7.95-1.14.82-2.83,1.38-4.16.62-1.39-.96-1.51-2.66-1.33-4.24.33-1.79.98-3.45,1.75-5.05ZM24.22,18.9c-.8,1.62-1.62,3.25-1.65,5.16.08.36.3.77.69.87.43.12.78-.11,1.11-.32,1.57-1.32,2.65-3.12,3.54-4.85.07-.17.2-.38.1-.57-.94-.37-1.84-1.02-2.56-1.83l-.16-.03c-.14.03-.2.17-.3.27l-.77,1.29ZM26.66,15.61c.05.85.85,1.59,1.6,1.88.18.06.48.2.64-.03.29-.54.46-1.13.6-1.73.14-.78.26-1.83-.49-2.35-.26-.14-.64-.16-.91-.03-.85.42-1.47,1.29-1.44,2.25ZM45.9,22.23c-.22.71-.54,1.48-.32,2.26.07.16.24.27.4.31.64.02,1.07-.56,1.48-1.02,1.87-2.59,3.3-5.39,4.59-8.22.21-.6.56-1.15.55-1.82-.01-.14-.16-.24-.27-.31-.28-.13-.55.07-.78.18-2.52,1.94-3.88,4.72-5.14,7.35l-.5,1.26Z"/>
    <path class="cls-1" d="M58.04,14.94c.56-1.11,1.03-2.25,1.73-3.3.28-.31.73-.3,1.11-.34l2.8.04.11.11c-.47,1.12-.99,2.23-1.57,3.3-.14.28-.44.55-.77.59-1.14.02-2.34.09-3.42-.01-.11-.11-.01-.27.02-.4Z"/>
    <path class="cls-1" d="M60.84,20.62c1.95-4.03,4.29-7.91,7.61-11.34,3.22-3.21,6.71-5.81,10.93-6.61,1.15-.17,2.44-.06,3.32.72.17.14.37.29.61.2,3.03-1.21,7.23-1.64,10.27-.12,1.76.86,3.43,1.96,5.12,3.01.21.11.11.34,0,.47-.97,1.08-1.78,2.18-2.65,3.3-.1.1-.26.06-.35,0l-4.46-3.07c-2.08-1.41-4.48-2.4-7.19-1.96-.3.16-.16.53-.2.81.06,2.78-.93,5.21-2.27,7.42-1.07,1.54-2.31,3.16-4.13,3.68-.8.17-1.56-.08-2.04-.72-1.33-2.02-.16-4.49.82-6.29,1.11-1.96,2.84-3.8,4.71-5.21.04-.07.13-.14.07-.23-.18-.19-.5-.07-.72-.03-3.03,1.01-5.45,3.69-7.69,6.22-3.99,4.91-7.02,10.24-8.75,16.1-.53,2.2-1.25,5.58.98,7.12,1.97,1.06,3.86-.3,5.35-1.57,2.25-2.29,3.77-4.94,4.39-7.94.1-.89.35-2.11-.47-2.73-.74-.33-1.35.28-1.85.79-1.16,1.39-1.64,3.05-1.85,4.84-.51.42-1.12.69-1.67,1.1-1.03.71-2.04,1.65-2.85,2.6-.1.03-.11-.09-.14-.14-.12-3.3,1.06-6.12,2.87-8.65,1.44-1.67,3.29-3.1,5.53-2.57.98.26,1.63,1.3,1.81,2.22.36,3.1-.94,5.81-2.34,8.33-2.26,3.54-5.82,7.12-10.33,6.7-1.73-.11-3.35-1.3-4.08-2.9-1.71-3.4-.53-7.77.62-11.06l1.06-2.51ZM76.2,14.75c.04.38.2.8.59.94.77.22,1.38-.35,1.95-.79,2.05-2.17,3.3-4.68,3.62-7.56,0-.43.15-.97-.09-1.34-.17-.03-.36.04-.5.14-1.38.92-2.68,2.26-3.62,3.62-.98,1.52-1.89,3.08-1.95,4.98Z"/>
    <path class="cls-1" d="M79.08,24.39c1.64-2.17,3.82-4.53,6.58-4.71.7.02,1.31.3,1.73.89,1.17,1.74.19,3.96-.25,5.72-.04.16.07.27.18.31.57.09,1.22,0,1.72-.25l.21-.27c1.98-5.65,4.92-10.89,8.42-15.89,2.18-2.89,4.98-5.88,8.22-7.27.77-.27,1.88-.59,2.61-.02.82.67.59,1.83.37,2.73-.09.8-.97.88-1.55,1.06-.03-.01-.06,0-.09-.03.02-.51.29-.96.39-1.46.03-.27.07-.5-.04-.75-.14-.26-.45-.17-.67-.1-1.1.54-1.98,1.51-2.82,2.46-3.14,3.64-5.41,7.68-7.5,11.76-.69,1.42-1.4,2.82-1.96,4.3-.02.09.01.14.08.2.48-.01.77-.51,1.14-.76,2.76-2.5,5-5.38,7.07-8.3.44-.21.95-.21,1.46-.25l.1.03c-.03.4-.37.71-.56,1.06-2.31,3.33-4.94,6.52-8.13,9.42l-2.31,1.9c-.48.42-.5,1.08-.74,1.62-.45,1.46-.89,2.95-.95,4.56.01.27.11.53.34.67.61.27,1.09-.31,1.52-.7,3.12-3.61,4.5-8.04,8.32-11.28,1.25-.99,2.9-1.84,4.52-1.09.28.1.5.47.84.3.24-.17.26-.55.6-.54,1.12-.01,2.32-.05,3.39.04.1.09.03.23,0,.33l-.77,1.56-4.78,9.64c-.21.44-.5.91-.47,1.4.07.21.3.23.48.19.9-.49,1.55-1.32,2.14-2.15.59-.82,1.06-1.69,1.61-2.52.3-.14.71-.08,1.04-.04.2.19-.06.43-.1.64-1.4,2.91-3.36,6.08-6.42,7.69-.71.35-1.69.68-2.47.25-.62-.43-.56-1.21-.85-1.81-.06-.09-.2-.07-.27-.03-1.27,1.13-2.64,2.41-4.41,1.92-1.11-.51-1.23-1.79-1.31-2.89-.06-.04-.03-.13-.1-.17l-.14.06c-1.24,1.49-2.81,3.34-4.9,3.16-.8-.06-1.49-.83-1.73-1.54-.73-2.32.05-4.86.56-7.09,0-.13-.14-.26-.25-.27l-1.75.02-.29.33c-1.29,2.52-2.7,4.96-4.92,7.07-1.17,1.03-2.61,1.89-4.21,1.42-1.33-.57-1.68-2.02-1.68-3.39.28-3.44,1.83-6.34,3.71-9.12ZM79.54,32.1c.03.48.27.98.76,1.14.33.11.68-.03.97-.17,1.64-1.22,2.61-3.09,3.5-4.79.09-.17.16-.44-.07-.57-.85-.43-1.67-1.1-2.35-1.85-.08-.09-.24-.1-.34-.04-.61.82-1.01,1.73-1.44,2.64-.49,1.15-1.02,2.28-1.02,3.65ZM83.66,24.13c.05.87.75,1.68,1.54,1.97.16.06.44.13.55-.07.49-1.11.95-2.37.69-3.65-.1-.3-.35-.6-.67-.7-.31-.09-.64.01-.91.14-.8.52-1.18,1.39-1.22,2.31ZM99.31,31.71c-.03.41-.13.92.18,1.24.17.17.44.19.65.12.84-.44,1.38-1.33,1.9-2.07,1.71-2.66,2.97-5.51,4.15-8.41.04-.26.12-.61-.13-.78-.69-.33-1.24.44-1.75.8-2.27,2.25-3.47,4.97-4.6,7.71l-.4,1.39Z"/>
    <path class="cls-1" d="M102.62,10.53l1.51-1.95.23-.2c4.37-.08,7.79-2.69,10.87-5.76-.02.41-.2.79-.34,1.16-2.02,4.75-6.92,8.92-12.22,8.99l-1.25-.02c-.23-.06-.07-.28-.01-.4l1.21-1.83Z"/>
  </g>
  <path class="cls-1" d="M108.14,35.61c0-.59.45-1.04,1.02-1.04s1.02.45,1.02,1.04-.45,1.05-1.02,1.05-1.02-.44-1.02-1.05ZM109.16,36.87c.68,0,1.27-.53,1.27-1.26s-.58-1.25-1.27-1.25-1.27.53-1.27,1.25.58,1.26,1.27,1.26ZM108.9,35.71h.25l.38.63h.25l-.41-.64c.21-.03.38-.14.38-.4,0-.29-.17-.41-.51-.41h-.55v1.45h.22v-.63ZM108.9,35.52v-.45h.3c.15,0,.32.03.32.21,0,.22-.17.24-.35.24h-.26Z"/>
</svg>