<?xml version="1.0" encoding="UTF-8"?>
<svg id="CLIENTES" xmlns="http://www.w3.org/2000/svg" version="1.1" viewBox="0 0 127.31 40">
  <defs>
    <style>
      .cls-1 {
        fill: #dc1f26;
      }

      .cls-1, .cls-2, .cls-3, .cls-4, .cls-5, .cls-6, .cls-7, .cls-8, .cls-9 {
        stroke-width: 0px;
      }

      .cls-2 {
        fill: #e56d25;
      }

      .cls-3 {
        fill: #96be3d;
      }

      .cls-4 {
        fill: #fde000;
      }

      .cls-5 {
        fill: #58aada;
      }

      .cls-6 {
        fill: #642b7d;
      }

      .cls-7 {
        fill: #d80e80;
      }

      .cls-8 {
        fill: #fff;
      }

      .cls-9 {
        fill: #642a7d;
      }
    </style>
  </defs>
  <path class="cls-8" d="M123.47,21.74c.28-.8.4-1.61.35-2.39-.08-1.46-.81-2.71-1.83-3.69-.47-.5-1.03-.9-1.66-1.18.39-.85.6-1.76.6-2.69,0-1.15-.28-2.26-.86-3.3-.1-.17-.2-.34-.31-.5l-.68-.84c-.46-.48-1-.89-1.59-1.21-1.01-.54-2.08-.82-3.18-.83h-.05c-1.09,0-2.15.26-3.15.78-.29.15-.57.33-.84.52-.45-.66-1.01-1.24-1.66-1.73-.27-.23-.55-.44-.84-.62-1.24-.79-2.59-1.18-4.02-1.18-.56,0-1.14.06-1.71.19-2.03.45-3.69,1.57-4.82,3.25-.25.37-.46.75-.63,1.15-.22-.77-.6-1.53-1.21-2.24-1.91-2.23-4.78-2.32-4.78-2.32-.59-.02-2.69,0-4.26,1.36-.72-1.92-2.13-2.95-2.13-2.95-2.34-1.79-6.16-1.25-6.16-1.25-.83.15-1.63.43-2.38.85-1.52.85-2.65,2.12-3.32,3.72-.26-.33-.55-.64-.87-.93-.52-.55-1.13-1.04-1.81-1.46-.03-.02-.06-.04-.09-.06-.03-.02-.07-.04-.1-.07-.38-.24-.79-.44-1.26-.63-.13-.05-.29-.11-.49-.18-.17-.06-.33-.1-.42-.12-.19-.05-.38-.09-.61-.13h-.02c-.11-.02-.22-.04-.33-.06-.35-.04-.67-.07-.98-.07h-.03c-.28,0-.56.02-.86.05-1.99.19-3.98,1.09-5.84,2.61-.2-.28-.41-.54-.65-.8h0c-.05-.06-.14-.17-.26-.28-1.58-1.56-3.6-2.38-5.85-2.38h-.02c-2.23,0-4.21.85-5.76,2.43-.15-.11-.31-.22-.48-.33-1.12-.71-2.34-1.12-3.63-1.21-.3-.03-.6-.05-.9-.05-.23,0-.46.01-.69.03-2.91.11-5.68,2.77-5.68,2.77-.07-.05-.15-.1-.22-.15-1.23-.78-2.58-1.18-4-1.18-.07,0-.13,0-.2,0-.04,0-.09,0-.13,0-.57,0-1.14.06-1.69.19-1.58.35-2.95,1.12-4,2.24-1.91-1.71-4.38-2.61-7.21-2.61-1.35,0-2.78.21-4.26.63-2.93.84-5.76,2.26-7.96,4C2.21,9.15.49,11.85.07,14.71c-.31,2.07.42,4.01,2,5.39,1.12,1.22,2.57,1.83,3.6,2.13-.03.19-.07.38-.1.58-.26,1.55-.54,3.16-.66,5.06-.21,3.41.09,4.52.89,6.02,0,0,1.38,2.66,4.93,2.86.23.01.46.04.69.04.64,0,1.3-.09,1.97-.28.12-.03,3.03-.87,5.82-3.12,1.4-1.13,2.65-2.39,3.77-3.77.35.34.7.63,1.09.89l.07.05c.75.48,1.52.86,2.3,1.14-.76.34-1.27,1.98-1.27,1.98-.91,4.09,1.87,5.59,1.87,5.59,1.73.86,3.82.72,3.82.72h65.25s2.08.17,3.82-.7c0,0,2.78-1.51,1.87-5.59-.16-.7-.6-1.27-1.12-1.72.28.04.57.06.86.06.86,0,1.73-.16,2.57-.49.88.66,1.83,1.14,2.85,1.45l.07.02c1.11.32,2.24.48,3.33.48.75,0,1.5-.07,2.24-.22.21.2.44.38.68.54.68.55,1.47.98,2.36,1.27,1.07.4,2.19.6,3.36.6,2.92,0,5.6-1.27,7.17-3.39.45-.59.78-1.21.96-1.86.34-1.16.22-2.35-.34-3.35-.72-1.35-1.77-1.94-1.77-1.94,0,0,.02-1.52-1.55-3.41"/>
  <path class="cls-9" d="M36.22,31.06c.23,0,.45.03.65.09.2.06.37.15.51.26.14.11.25.25.33.41.08.16.11.34.11.54,0,.27-.09.51-.28.71-.19.2-.45.3-.79.32.17.01.32.05.47.12.15.07.27.16.38.27.11.11.2.25.26.4.07.16.1.32.1.5,0,.23-.05.43-.13.61-.09.18-.21.33-.37.46-.16.12-.34.22-.56.28-.22.06-.46.09-.72.09l-2.58-.02.04-5.05,2.58.02ZM35.69,33.19c.12,0,.23-.02.31-.07.09-.05.16-.11.21-.18.06-.07.1-.16.12-.26.03-.1.04-.19.04-.29,0-.1,0-.2-.03-.3-.02-.1-.06-.18-.12-.25-.05-.07-.13-.13-.21-.18-.09-.05-.19-.07-.31-.07h-.6s-.01,1.58-.01,1.58h.6ZM35.68,35.57c.15,0,.28-.02.38-.08.1-.05.19-.12.25-.21.06-.09.11-.18.13-.29.03-.11.04-.22.04-.34,0-.12-.01-.23-.03-.34-.02-.11-.07-.21-.13-.3-.06-.09-.15-.16-.25-.21-.1-.05-.23-.08-.38-.08h-.6s-.01,1.84-.01,1.84h.6Z"/>
  <path class="cls-9" d="M39.54,32.56c.08-.06.19-.1.35-.09.27,0,.45.13.53.39l1.18,3.31h-1.09s-.3-.85-.3-.85h-1.3s-.29.83-.29.83h-.44s1.18-3.29,1.18-3.29c.04-.13.11-.22.19-.28M39.65,33.76s-.04-.04-.08-.04c-.04,0-.07.01-.08.04-.02.02-.04.06-.06.11l-.36,1h.98s-.35-1-.35-1c-.02-.05-.04-.09-.05-.11"/>
  <polygon class="cls-9" points="44.53 32.64 45.21 32.64 44.22 33.6 45.89 36.18 44.64 36.18 43.46 34.33 43.26 34.53 43.25 36.17 42.14 36.16 42.18 30.74 43.28 30.75 43.26 33.87 44.53 32.64"/>
  <path class="cls-9" d="M47.41,31.59c-.11.1-.24.16-.39.16-.15,0-.28-.06-.39-.16-.11-.11-.16-.23-.16-.38,0-.15.06-.28.16-.38.11-.11.24-.16.39-.16.15,0,.28.05.39.16.11.11.16.23.16.38,0,.15-.06.28-.16.38M47.54,36.2h-1.1s.02-3.55.02-3.55h1.1s-.02,3.55-.02,3.55Z"/>
  <path class="cls-9" d="M48.29,32.74c.12-.09.26-.14.41-.13.29,0,.51.12.65.36l.89,1.44c.04.08.09.12.14.12.04,0,.07-.01.08-.04.01-.02.02-.05.02-.09v-1.72s.45,0,.45,0l-.02,3.14c0,.16-.04.28-.1.33-.07.06-.16.09-.28.09-.14,0-.24-.03-.31-.09-.07-.06-.15-.16-.23-.29l-1.09-1.81s-.05-.08-.09-.11c-.03-.03-.08-.05-.12-.05-.06,0-.1.02-.11.05-.02.04-.03.08-.03.13v2.12s-.46,0-.46,0l.02-3.02c0-.2.06-.34.18-.43"/>
  <path class="cls-9" d="M52.64,36.19c-.25-.1-.46-.23-.63-.39-.18-.17-.31-.36-.4-.59-.09-.22-.14-.47-.14-.73,0-.25.05-.49.14-.71.09-.23.23-.42.41-.59.18-.16.4-.3.67-.39.27-.1.57-.14.91-.14.19,0,.36.02.51.05.15.03.29.07.41.13.12.05.23.12.32.18.09.07.17.14.25.21l-.35.28c-.05-.05-.11-.1-.17-.15-.06-.05-.14-.09-.22-.13-.08-.04-.18-.07-.3-.1-.11-.03-.25-.04-.41-.04-.18,0-.34.04-.48.12-.14.08-.26.18-.36.32-.1.13-.17.28-.22.45-.05.17-.08.35-.08.52,0,.18.02.35.06.52.04.17.11.32.2.45.09.13.21.24.35.32.14.08.31.13.51.13.19,0,.35-.03.47-.08.12-.06.21-.12.28-.2v-1.05s1.09,0,1.09,0l-.02,3.03h-1.1s.01-1.5.01-1.5c-.07.06-.18.12-.31.16-.13.05-.33.07-.58.07-.3,0-.58-.05-.83-.15"/>
  <polygon class="cls-9" points="61.27 33.02 62.22 31.24 62.84 31.25 61.54 33.65 61.52 36.29 60.05 36.28 60.07 33.85 58.52 31.22 60.23 31.23 61.27 33.02"/>
  <path class="cls-9" d="M66.34,35.25c-.09.22-.22.42-.39.6-.17.17-.39.31-.65.42-.26.1-.56.15-.91.15-.35,0-.65-.06-.91-.17-.26-.11-.47-.25-.64-.43-.17-.18-.29-.38-.38-.6-.08-.22-.12-.45-.12-.68,0-.24.05-.47.13-.69.09-.23.22-.43.39-.6.17-.17.39-.31.65-.42.26-.1.56-.15.9-.15.34,0,.64.06.9.17.26.11.47.25.64.43.17.18.3.38.38.6.08.22.13.45.12.69,0,.24-.05.47-.13.69M63.59,35.07c.03.17.09.32.16.46.07.14.16.24.27.33.11.08.24.12.38.13.15,0,.28-.04.39-.12.11-.08.2-.19.28-.32.08-.13.13-.29.17-.46.04-.17.06-.35.06-.53,0-.18-.02-.36-.05-.53-.03-.17-.09-.33-.16-.46-.07-.13-.16-.24-.27-.33-.11-.08-.24-.12-.39-.13-.15,0-.28.04-.39.12-.11.08-.2.19-.28.33-.07.14-.13.29-.17.46-.04.17-.06.35-.06.53,0,.18.02.36.05.53"/>
  <path class="cls-9" d="M68.36,35.76c.16.13.37.2.64.2.25,0,.45-.06.61-.19.16-.13.23-.35.24-.67l.02-2.29h.44s-.02,2.26-.02,2.26c0,.47-.14.81-.41,1.02-.27.21-.64.31-1.11.31-.25,0-.49-.03-.7-.08-.22-.05-.4-.13-.55-.24-.15-.11-.27-.24-.36-.41-.09-.16-.13-.36-.13-.59l.02-2.28h1.1s-.02,2.29-.02,2.29c0,.32.08.54.23.68"/>
  <polygon class="cls-9" points="76.19 33.52 76.2 31.34 77.67 31.35 77.64 36.4 76.17 36.39 76.18 34.06 74.81 34.05 74.8 36.38 73.33 36.37 73.36 31.32 74.83 31.33 74.82 33.51 76.19 33.52"/>
  <path class="cls-9" d="M79.54,32.83c.08-.06.19-.1.35-.1.27,0,.45.13.53.39l1.18,3.31h-1.09s-.3-.85-.3-.85h-1.3s-.29.83-.29.83h-.44s1.18-3.29,1.18-3.29c.04-.13.11-.22.19-.28M79.65,34.03s-.04-.04-.08-.04c-.04,0-.07.01-.08.04-.02.02-.04.06-.06.11l-.36,1h.99s-.35-1-.35-1c-.02-.05-.04-.09-.05-.11"/>
  <path class="cls-9" d="M83.78,32.91c.34,0,.63.05.89.16.25.1.47.24.63.41.17.17.29.36.38.57.08.21.13.43.12.65,0,.22-.05.44-.13.65-.09.21-.22.4-.39.56-.17.16-.38.3-.64.4-.26.1-.55.15-.89.15h-.5s0,1.33,0,1.33h-1.1s.03-4.88.03-4.88h1.6ZM83.58,36.01c.17,0,.32-.04.45-.11.13-.08.23-.18.32-.3.09-.12.15-.27.19-.42.04-.16.06-.32.07-.49,0-.17-.02-.33-.06-.49-.04-.16-.11-.3-.19-.43-.08-.13-.19-.23-.32-.31-.13-.08-.28-.12-.44-.12h-.32s-.02,2.67-.02,2.67h.32Z"/>
  <path class="cls-9" d="M88,32.94c.34,0,.63.05.89.16.25.1.47.24.63.41.17.17.29.36.38.57.08.21.13.43.12.65,0,.22-.05.44-.13.65-.09.21-.22.4-.39.56-.17.16-.38.3-.64.4-.26.1-.55.15-.89.15h-.5s0,1.33,0,1.33h-1.1s.03-4.88.03-4.88h1.6ZM87.79,36.04c.17,0,.32-.04.45-.11.13-.08.23-.18.32-.3.09-.12.15-.27.19-.42.04-.16.06-.32.07-.49,0-.17-.02-.33-.06-.49-.04-.16-.11-.3-.19-.43-.08-.13-.19-.23-.32-.31-.13-.08-.28-.12-.44-.12h-.32s-.02,2.67-.02,2.67h.32Z"/>
  <polygon class="cls-9" points="92.18 35.01 93.27 32.97 93.71 32.98 91.11 37.85 90.67 37.85 91.63 36.05 89.96 32.95 91.07 32.96 92.18 35.01"/>
  <path class="cls-2" d="M117.44,23.15c.71,1.86.77,3.44.26,4.79-.36.91-.87,1.35-1.57,1.32-.65-.07-1.08-.51-1.26-1.29-.03-.05-.12-.07-.26-.06-.51.06-.63.29-.36.83.46.92,1.05,1.59,2.08,1.92,2.51.79,5.13.13,6.37-1.59.34-.43.44-.8.34-1.09-.09-.23-.2-.27-.28-.16-.66.92-1.51,1.57-2.54,1.91.45-.54.75-1.16.93-1.85.29-1.1-.12-2.69-.6-3.55-.21-.44-.52-1.04-.98-1.81-.42-.75-.72-1.26-.81-1.45.36-.74.58-1.25.69-1.53.74-2.21-1.51-2.79-2.58-1.81-.75.64-.77,1.95-.09,3.83.01.03.07.15.08.18-1.01,2.12-2.14,4.36-3.28,4.89-.94.5-2.31.66-3.58.38-1.31-.31-2.64-1.46-2.84-3.04,2.24.45,4.47-.16,5.5-1.33,1.24-1.33,1.4-3.29.09-4.38-.88-.91-2.8-.9-4.59-.42-1.76.49-3.57,2.33-4.22,4.83-.23.87-.22,1.67.01,2.41-.51.53-1.09.85-1.67.65-.79-.26-.97-1.35-.44-3.32.54-2.31,1.83-4.22,1.73-4.34-1.17-1.52-3.21-1.77-4.35.84-.49,1.06-.76,2.24-.85,3.55-.01.23-.02.46-.03.69-.03.06-.05-.23-.06-.16-.32,1.14-1.52,2.39-2.22,2.03-.27-.12-.67-.43-1.22-.92-.54-.53-.88-.93-1.08-1.14-.52-.55-.99-.92.36-1.43,2.25-.85,3.53-3.79,3.62-4.22.08-.43,0-.85-.24-1.28-.27-.4-.64-.66-1.09-.75-.44-.1-1.09-.28-1.31.12-1.1,3.09-5.49,5.13-5.49,5.13l.77-3.16,1.01-3.38v-.02c.2-.68.41-1.4.6-2.15.73-2.79.88-4.11.05-5.07-1.2-1.21-3.34-.08-3.34-.08.02,1.41-.06,2.95-.32,4.54-.2,1.52-.64,3.85-1.33,6.95-.16.73-.3,1.4-.42,2.01-.09-.08-.18-.07-.25.02-.03.04-.06.08-.1.12-.29.31-1.03,1.27-1.94,1.21.16-.37.29-.99.49-1.87.55-3.13-.05-5.46-1.65-5.4-1.05.06-1.72.7-2.06,1.99-.3,1.29-.26,2.44.16,3.51.34,1.08.9,1.87,1.7,2.34-.63.97-1.35,1.39-2.17,1.31-1.38-.12-2.09-1.62-1.95-3.85.05-1.22.37-2.39.96-3.42.23-.07.41-.19.64-.31.14-.08.23-.2.33-.36.14-.2.11-.46.11-.46-.02-.47-.28-.73-.82-.72-.95,0-1.88.55-2.86,1.65-.81.18-1.7.07-2.55.05-.18-1.69-.88-2.72-2.11-3.03-.86-.27-1.59-.1-2.14.44-.55.55-.68,1.1-.37,1.73.49.89,1.7,1.39,3.61,1.56.12.47.11,1.23.04,2.24-.23,2.32-1.43,4.02-2.85,3.97-1.47-.05-2.17-1.27-2.09-3.76.04-1.65.43-2.7,1.24-3.12.09-.04.09-.13.05-.21-.18-.3-.67-.34-1.52-.04-1.93.56-2.92,1.89-3.06,3.92-.04.62.04,1.18.13,1.71-.81,1.05-1.65,2.23-2.7,3.03-3.77,2.92-6.24.49-5.31-4.17.61-3.11,2.32-6.51,4.1-9.12.31-.45.62-.88.93-1.28.01-.02.02-.03.04-.05.15-.2.31-.39.46-.57.05-.06.09-.11.14-.16.11-.13.21-.25.32-.37.05-.05.1-.11.14-.16.11-.12.22-.23.32-.34.04-.04.08-.08.11-.12.14-.14.28-.28.42-.4,0,0,0,0,0,0,.1-.09.2-.17.29-.24.03-.02.06-.05.09-.07.08-.06.15-.12.23-.17.02-.01.04-.03.06-.04.09-.06.17-.11.26-.16.03-.01.05-.03.07-.04.07-.03.13-.06.19-.09.02,0,.04-.02.06-.02.08-.03.15-.05.22-.06.02,0,.03,0,.05,0,.05,0,.11,0,.16,0,.02,0,.03,0,.05,0,.06,0,.11.02.16.05.01,0,.02.01.03.02.04.02.08.05.11.09.01.01.02.02.03.04.04.05.07.1.1.17,0,0,0,.02,0,.03.02.06.04.13.06.21,0,.02,0,.05.01.07.02.09.03.19.03.3,0,.26-.05.61-.16,1.01-.05.17-.11.35-.18.53-.03.1-.06.19-.1.3-.05.07-.35,1.09-1.2,2.45-.56.9-.92,1.01-1.08,1.22,0,0,2.05,2.15,3.66.65,1.38-1.28,2.48-4.45,1.75-6.66-.38-1.17-1.24-1.9-2.01-2.35-.03-.02-.05-.04-.07-.05-.01,0-.03-.02-.04-.03-.21-.13-.43-.23-.67-.33-.08-.03-.16-.06-.25-.09-.07-.02-.15-.04-.22-.06-.1-.03-.2-.05-.3-.07-.06-.01-.12-.02-.18-.03-.17-.02-.34-.04-.51-.04-.16,0-.32.01-.48.03-4.97.43-10.17,8.72-10.79,15.62-.67,7.55,4.36,10.64,9.13,6.37,1.12-1.01,2.02-2.35,2.91-3.54.01.02.02.03.02.03.15.26.33.51.54.74.88.91,1.89,1.36,3.09,1.24,2.69-.21,4.56-2.68,4.96-6.01.06-.72.08-1.35.05-1.98.58.01,1.24.2,1.82.13-.52.95-.86,2-.98,3.09-.29,3.07,1.63,5.18,4.02,5.13,1.93-.03,3.36-.9,4.31-2.65.07,0,.14,0,.22.01.87.06,1.65-.34,2.28-1.18-.24,1.36-.34,2.33-.3,2.9.04.78.51,1.19,1.01,1.37.23.12.9.16,1.15.15.4-.02.59-.18.62-.26-.29-1.26.42-3.05.42-3.05,1.03,1.48,3.69,3.45,4.47,3.82.79.35,1.63.3,2.53-.16.9-.43,1.56-.97,2.08-1.61.17,1.47.69,2.34,1.56,2.65.86.34,1.78.27,2.74-.21.63-.32,1.15-.64,1.57-1.04.11.18.23.36.37.54.87,1.05,1.94,1.81,3.06,2.15,1.37.39,2.91.45,4.27.13,1.35-.32,2.07-.75,2.76-1.55,0,0,.6-.67,2.72-3.95M107.3,22.51c.45-1.68,1.23-2.95,2.27-3.83.96-.89,1.88-.37,1.57,1.12-.35,1.7-2.04,3.33-3.98,3.45,0-.21.04-.46.14-.75M70.82,14.89c-.22-.3.32-.59,1.04-.41.81.26,1.34.73,1.64,1.46-1.52-.15-2.41-.49-2.68-1.04M83.87,19.83c-.08.5-.2,1-.45,1.49-.63-.38-.95-.99-1.02-1.88-.23-1.37.26-2.73.84-2.7.67,0,.89,1.37.64,3.09"/>
  <path class="cls-2" d="M118.46,31.21c-.72,0-1.46-.11-2.19-.34-.99-.32-1.67-.94-2.21-2.03-.1-.2-.21-.48-.13-.73-.51.33-1.11.56-1.91.75-1.35.32-2.95.27-4.38-.13-1.16-.35-2.25-1.12-3.17-2.22-.09-.11-.17-.22-.25-.34-.36.31-.81.59-1.42.9-1.01.51-2,.59-2.92.22-.86-.31-1.4-1.09-1.63-2.36-.5.53-1.11.96-1.84,1.31-.95.48-1.86.54-2.71.16-.75-.36-3.11-2.09-4.3-3.56-.18.58-.47,1.7-.28,2.54l.02.07-.03.07c-.08.18-.36.36-.81.38-.18,0-.93-.01-1.24-.17-.7-.27-1.1-.82-1.14-1.56-.03-.48.04-1.22.19-2.22-.58.52-1.25.76-1.97.71-.03,0-.05,0-.08,0-.99,1.75-2.45,2.61-4.43,2.65-.03,0-.06,0-.09,0-1.13,0-2.17-.45-2.94-1.28-.94-1.01-1.37-2.47-1.22-4.09.11-.98.39-1.94.83-2.84-.25,0-.51-.04-.76-.08-.16-.02-.31-.04-.46-.06.02.56,0,1.13-.06,1.77-.43,3.56-2.46,6-5.16,6.21-1.21.13-2.32-.31-3.27-1.31-.15-.17-.29-.34-.42-.53-.09.12-.17.23-.26.35-.76,1.04-1.54,2.11-2.49,2.97-2.16,1.94-4.49,2.5-6.4,1.54-2.28-1.14-3.44-4.17-3.09-8.09.3-3.37,1.72-7.24,3.8-10.34,2.19-3.28,4.81-5.28,7.19-5.48.17-.02.34-.03.5-.03.17,0,.34.01.54.04.05,0,.1.01.14.02h.05c.12.03.22.05.32.08.08.02.15.04.23.07.09.03.17.06.26.1.28.11.5.22.7.34l.04.03s.04.03.06.04l.02.02c1.05.62,1.76,1.45,2.1,2.46.75,2.28-.33,5.52-1.81,6.89-1.4,1.3-3.21.14-3.97-.66l-.13-.13.11-.15c.06-.08.14-.15.23-.22.18-.15.46-.38.83-.98.66-1.06.98-1.9,1.12-2.25.04-.09.05-.14.07-.18.02-.05.03-.1.05-.15.01-.04.03-.08.04-.13l.04-.1c.05-.14.1-.29.14-.42.11-.39.16-.71.15-.94,0-.09-.01-.18-.03-.27,0-.02,0-.04-.01-.06-.01-.07-.03-.13-.05-.17v-.03s-.05-.07-.08-.11c0,0,0,0-.01-.01-.03-.03-.05-.05-.07-.06l-.03-.02s-.05-.02-.09-.02h-.03s-.08,0-.11,0h-.04c-.06.02-.12.03-.18.06l-.05.02c-.06.02-.11.05-.17.08-.03.02-.05.03-.07.04-.08.05-.16.1-.24.15l-.06.04c-.07.05-.14.1-.22.16-.03.02-.06.05-.09.07-.09.07-.19.15-.28.24h0c-.12.12-.26.24-.4.39-.02.02-.04.05-.07.07l-.05.05c-.1.11-.21.22-.32.33-.05.05-.09.1-.14.16-.1.12-.21.24-.32.36l-.04.05s-.06.07-.09.11c-.16.2-.31.38-.45.56l-.04.05c-.31.39-.61.82-.92,1.26-2.04,2.98-3.52,6.28-4.06,9.03-.47,2.33-.07,4.2,1.04,4.89.97.6,2.36.27,3.91-.93.92-.7,1.67-1.69,2.4-2.65.07-.09.14-.18.2-.27-.09-.51-.16-1.06-.12-1.67.14-2.15,1.22-3.54,3.22-4.12.7-.25,1.22-.28,1.54-.1-.05-.07-.1-.15-.14-.22-.36-.72-.22-1.36.4-1.99.61-.61,1.43-.79,2.35-.5,1.26.32,2.01,1.34,2.24,3.03.14,0,.27.01.41.02.61.03,1.25.06,1.83-.06,1.01-1.13,1.99-1.67,2.97-1.67h0c.64-.02,1.01.32,1.04.93,0,.02.03.33-.15.59-.09.15-.21.32-.41.43-.07.04-.13.07-.19.1-.13.07-.26.14-.41.19-.54.97-.84,2.06-.89,3.25-.13,2.14.54,3.52,1.75,3.63.69.07,1.3-.26,1.84-1.03-.73-.5-1.27-1.29-1.6-2.33-.42-1.08-.48-2.27-.17-3.64.37-1.39,1.1-2.1,2.26-2.16.5-.02.95.17,1.29.56.78.89.99,2.75.59,5.1l-.05.24c-.13.56-.23,1.01-.33,1.35.58-.12,1.07-.68,1.35-.99.04-.05.08-.09.11-.12.02-.03.06-.07.09-.11.09-.1.18-.14.25-.15.11-.56.24-1.16.38-1.79.66-2.98,1.12-5.37,1.32-6.93.23-1.44.33-2.96.31-4.51h0s0-.02,0-.02c0-.1.01-.18.64-.4.75-.27,2.14-.59,3.07.35.91,1.06.74,2.49,0,5.28-.17.66-.37,1.36-.6,2.14v.03s-1.02,3.38-1.02,3.38l-.66,2.69c1.11-.59,4.1-2.38,4.96-4.79v-.03c.3-.51,1-.35,1.46-.25l.1.02c.51.11.92.4,1.23.85h0c.27.49.36.97.27,1.44-.1.54-1.47,3.52-3.75,4.38-.62.23-.72.39-.73.45-.02.11.18.32.36.51l.11.11c.05.05.1.11.17.18.2.22.5.55.91.95.52.47.91.77,1.15.87.13.07.28.06.46-.02.58-.25,1.24-1.1,1.46-1.86l.05-.17h.02c0-.1,0-.21.02-.31.09-1.36.38-2.58.87-3.63.69-1.57,1.62-2,2.28-2.08.87-.11,1.78.34,2.45,1.21.12.14.05.27-.26.89-.4.79-1.08,2.11-1.43,3.63-.34,1.25-.56,2.78.3,3.06.51.17,1-.16,1.36-.5-.21-.74-.2-1.55.02-2.41.62-2.42,2.38-4.43,4.37-4.99,2.15-.59,3.94-.41,4.8.47.59.49.93,1.17.98,1.95.06.95-.32,1.95-1.05,2.74-1.07,1.21-3.25,1.79-5.39,1.45.31,1.35,1.52,2.29,2.62,2.55,1.2.27,2.52.13,3.43-.36,1.06-.49,2.18-2.67,3.14-4.7-.02-.04-.04-.09-.05-.11-.71-2-.66-3.37.16-4.07.64-.59,1.66-.69,2.37-.23.32.21,1.03.85.56,2.27-.18.45-.4.93-.66,1.46.07.12.17.31.31.55.12.22.28.49.45.79.39.64.72,1.26.99,1.82.52.93.91,2.55.61,3.7-.12.48-.3.91-.52,1.3.68-.35,1.26-.87,1.74-1.54.07-.11.18-.16.3-.15.15.02.27.14.36.36.14.39.01.82-.37,1.31-.93,1.29-2.6,2-4.42,2ZM114.69,28.13s-.03,0-.05,0c-.23.03-.28.09-.29.11-.01.02-.04.12.1.4.49.99,1.07,1.53,1.95,1.81,2.42.76,4.94.14,6.13-1.51.19-.24.4-.58.32-.86-.68.89-1.54,1.52-2.55,1.86l-.74.25.5-.6c.42-.49.71-1.07.89-1.77.26-1-.09-2.5-.58-3.39-.27-.56-.59-1.16-.98-1.8-.17-.31-.32-.58-.45-.8-.19-.33-.31-.55-.37-.68l-.04-.1.05-.09c.27-.55.5-1.06.69-1.51.26-.79.13-1.42-.38-1.75-.54-.35-1.35-.27-1.85.19-.84.72-.48,2.35-.04,3.59,0,.01.02.05.04.08.02.04.04.08.04.1l.03.09-.04.08c-1.06,2.22-2.19,4.44-3.39,4.99-.99.53-2.42.69-3.72.39-1.29-.3-2.78-1.44-3.01-3.22l-.04-.3.3.06c2.06.42,4.28-.11,5.29-1.26.65-.7,1-1.58.94-2.42-.04-.66-.33-1.23-.83-1.65l-.02-.02c-.87-.9-2.83-.78-4.37-.36-1.82.51-3.49,2.43-4.06,4.67-.22.82-.21,1.59.01,2.29l.04.12-.09.09c-.64.67-1.3.91-1.9.71-.95-.31-1.14-1.51-.58-3.58.36-1.56,1.08-2.97,1.47-3.72.1-.2.2-.4.25-.5-.57-.69-1.3-1.05-1.99-.96-.78.1-1.45.73-1.93,1.83-.47,1.02-.75,2.15-.83,3.47-.01.22-.02.45-.03.68v.05s-.09.19-.09.19h-.1c-.32.78-.97,1.54-1.59,1.81-.31.13-.59.13-.83.01-.28-.12-.68-.43-1.26-.95-.42-.42-.73-.75-.93-.98-.06-.07-.12-.13-.16-.18l-.1-.11c-.28-.29-.54-.57-.46-.91.07-.29.37-.52,1.01-.76,2.11-.79,3.39-3.61,3.48-4.05.07-.38,0-.74-.21-1.12-.24-.35-.55-.57-.95-.66l-.1-.02c-.35-.08-.83-.19-.96.02-.47,1.32-1.56,2.6-3.23,3.81-1.24.9-2.32,1.41-2.37,1.43l-.41.19.88-3.61,1.02-3.42c.23-.78.42-1.48.6-2.14.69-2.64.87-3.97.1-4.88-.92-.93-2.52-.29-2.95-.09.01,1.53-.09,3.02-.32,4.44-.21,1.56-.67,3.97-1.33,6.96-.16.71-.3,1.39-.42,2l-.08.39h0s-.12.69-.12.69c-.23,1.32-.33,2.3-.3,2.85.03.58.32.97.87,1.18h.02c.16.09.76.15,1.04.13.2,0,.33-.06.39-.1-.24-1.29.42-2.99.45-3.06l.15-.38.23.34c.99,1.42,3.58,3.36,4.38,3.75.73.32,1.49.27,2.33-.16.84-.4,1.49-.91,2.01-1.55l.33-.41.06.52c.16,1.37.63,2.18,1.42,2.47.81.32,1.67.25,2.57-.2.68-.35,1.15-.66,1.52-1l.2-.19.14.24c.11.18.22.35.35.51.86,1.03,1.88,1.75,2.95,2.08,1.35.38,2.87.43,4.15.13,1.27-.3,1.96-.69,2.64-1.48,0,0,.63-.72,2.7-3.93l.23-.36.15.4c.71,1.86.8,3.52.27,4.94-.4,1.01-1,1.5-1.79,1.46-.51-.05-1.16-.33-1.44-1.35ZM114.7,27.69c.11,0,.27.02.36.16l.02.03v.04c.17.69.53,1.06,1.08,1.12.36.02.92-.08,1.35-1.18.46-1.21.42-2.63-.12-4.22-1.91,2.94-2.47,3.58-2.5,3.61-.15.18-.3.33-.46.48.05-.01.11-.02.17-.03.02,0,.06,0,.1,0ZM65.36,4.44h-.01c-.14,0-.29.01-.45.03-2.25.2-4.75,2.12-6.87,5.29-2.04,3.05-3.43,6.84-3.73,10.14-.33,3.74.73,6.6,2.85,7.66,1.74.87,3.9.33,5.91-1.48.91-.83,1.68-1.88,2.43-2.9.15-.21.3-.41.45-.61l.19-.26.19.31c.15.26.32.49.52.7.86.9,1.82,1.28,2.91,1.17,2.5-.19,4.37-2.48,4.77-5.82.06-.7.08-1.32.05-1.95v-.24s.22,0,.22,0c.24,0,.5.04.74.07.35.05.72.1,1.04.06l.42-.05-.2.37c-.52.95-.84,1.96-.96,3.01-.14,1.49.25,2.82,1.1,3.75.7.76,1.66,1.16,2.7,1.14,1.86-.03,3.21-.86,4.12-2.54l.07-.12h.19c.06.02.11.02.17.02.8.06,1.5-.31,2.09-1.09l.44-.58-.18-.17s-.05.06-.07.08c-.04.04-.07.08-.11.12-.35.4-1.09,1.23-2.02,1.16l-.31-.02.12-.28c.14-.32.26-.86.42-1.6l.05-.23c.38-2.17.2-3.94-.48-4.72-.25-.29-.57-.42-.94-.41-.95.06-1.54.64-1.86,1.83-.29,1.29-.25,2.37.15,3.38h0c.32,1.05.86,1.79,1.61,2.23l.2.12-.12.19c-.67,1.03-1.47,1.5-2.38,1.41-1.47-.12-2.3-1.69-2.15-4.09.06-1.28.39-2.47.99-3.51l.04-.07.08-.03c.14-.05.27-.11.42-.19.06-.03.13-.07.2-.1.08-.04.15-.12.24-.28.1-.14.08-.32.08-.32-.02-.38-.2-.54-.6-.52h0c-.87,0-1.76.52-2.7,1.58l-.05.05-.07.02c-.65.15-1.34.11-2.01.08-.2,0-.39-.02-.59-.02h-.19s-.02-.2-.02-.2c-.17-1.6-.83-2.56-1.94-2.85-.78-.24-1.43-.11-1.93.39-.49.49-.59.94-.32,1.48.45.81,1.57,1.28,3.43,1.44h.15s.04.16.04.16c.13.5.12,1.28.05,2.31-.24,2.48-1.53,4.22-3.08,4.18-1.61-.05-2.38-1.39-2.3-3.98.04-1.71.45-2.78,1.27-3.26-.17-.15-.61-.11-1.22.1-1.83.53-2.78,1.75-2.91,3.73-.04.6.04,1.15.13,1.66l.02.1-.06.08c-.09.11-.17.23-.26.34-.75.98-1.52,1.99-2.48,2.73-1.71,1.32-3.27,1.66-4.41.96-1.29-.8-1.76-2.8-1.24-5.35.55-2.81,2.06-6.17,4.13-9.2.31-.45.62-.88.93-1.29l.04-.05c.14-.19.3-.37.46-.57.03-.04.06-.08.09-.11l.04-.05c.11-.13.22-.25.32-.37.05-.05.1-.11.15-.16.11-.12.22-.23.33-.34l.04-.04s.05-.05.07-.07c.16-.16.3-.29.43-.41l.03-.03c.09-.08.18-.15.26-.22.03-.03.06-.05.1-.08.08-.06.16-.12.23-.17l.02-.02s.03-.02.04-.03c.09-.06.18-.11.27-.17.02-.01.05-.02.07-.04.08-.04.15-.08.22-.1h.02s.03-.02.05-.03c.09-.03.17-.06.25-.07.02,0,.03,0,.05,0,.08-.01.15-.01.21,0,.03,0,.05,0,.07,0,.08.01.16.03.23.07.02,0,.03.02.04.03.06.03.11.08.16.13.02.02.03.03.04.05.06.07.1.14.14.22v.04c.04.07.06.15.08.24,0,.03.01.05.02.08.02.11.03.22.03.33,0,.27-.05.64-.17,1.07-.04.14-.09.3-.14.44l-.04.1s-.02.08-.04.11c-.02.06-.04.12-.06.19l-.02.04s-.03.07-.05.12c-.13.34-.47,1.23-1.16,2.33-.41.66-.72.92-.93,1.09,0,0-.01.01-.02.02.49.44,1.99,1.62,3.2.49,1.35-1.26,2.38-4.34,1.69-6.44-.3-.91-.94-1.66-1.91-2.23-.03-.02-.04-.03-.05-.04,0,0-.02-.01-.02-.02l-.04-.03c-.18-.11-.38-.21-.63-.31-.08-.03-.15-.06-.23-.09-.07-.02-.14-.04-.21-.06-.09-.02-.18-.04-.29-.06h-.05s-.08-.02-.12-.03c-.17-.02-.33-.03-.47-.03ZM70.32,15.78c.04.11.03.2,0,.25-.03.09-.09.16-.18.2-.7.37-1.08,1.35-1.11,2.93-.1,3.47,1.39,3.52,1.88,3.53,1.28.04,2.41-1.58,2.62-3.77.05-.76.08-1.53,0-2.01-1.52-.15-2.58-.52-3.21-1.12ZM103.4,18.23s0,0,.01.01c0,0,0,0-.01-.01ZM69.95,15.83s0,0,0,0c0,0,0,0,0,0ZM106.95,23.48v-.23c-.01-.24.04-.51.14-.81.45-1.68,1.23-3,2.34-3.93.5-.47,1.05-.61,1.47-.38.46.25.63.9.46,1.71-.39,1.92-2.23,3.51-4.18,3.62h-.23ZM110.47,18.46c-.22,0-.49.13-.75.38-1.05.88-1.79,2.13-2.21,3.72h0c-.05.17-.09.32-.11.45,1.65-.22,3.2-1.63,3.53-3.25.12-.61.03-1.09-.25-1.24-.06-.04-.13-.05-.21-.05ZM83.5,21.63l-.2-.12c-.68-.41-1.04-1.06-1.13-2.04-.17-1.04.04-2.16.5-2.67.21-.24.43-.27.57-.27.19,0,.38.09.53.26.41.48.53,1.62.32,3.07h0c-.1.63-.25,1.11-.48,1.56l-.11.21ZM83.22,16.97c-.09,0-.17.07-.22.12-.32.36-.56,1.32-.39,2.32v.02c.07.73.3,1.24.72,1.57.15-.34.25-.72.32-1.2.19-1.29.1-2.35-.21-2.72-.08-.1-.16-.11-.21-.11,0,0,0,0-.01,0ZM73.84,16.19l-.36-.04c-1.63-.16-2.53-.53-2.85-1.15-.1-.15-.11-.33-.01-.48.19-.29.72-.4,1.29-.26h.02c.87.29,1.45.8,1.78,1.59l.14.34ZM71,14.75l.02.04c.21.42.91.72,2.1.88-.29-.47-.72-.78-1.32-.98-.45-.11-.74,0-.81.07Z"/>
  <path class="cls-2" d="M24.02,10.52c-1.3-4.08-4.92-5.92-9.99-4.48-4.7,1.34-9.63,4.63-10.23,8.73-.37,2.48,3.01,3,3.01,3,1.59-4.71,5.83-8.42,10.71-9.44,3.88-.69,4.11,4.09,3.59,6.75-.75,3.86-3.72,11.23-7.77,13.2-.7.34-1.03.43-1.43.47.23-1.07.55-2.29.98-3.68,1-3.29,1.55-5.15,1.54-6.62.02-.73-.06-1.37-.25-1.92-.19-.55-.48-1.01-.87-1.38-.62-.55-1.18-.73-2-.65-.36.03-.66.1-.86.17-.32.09-.59.18-.75.28.19,1.67.26,3.67-.07,5.93-.32,2.23-.79,4.25-.94,6.73-.1,1.57-.14,3.34.01,3.34.41.62,1.17.99,1.94,1.06.42.05.84,0,1.26-.12.41-.11,2.53-.85,4.46-2.42,3.57-2.89,5.99-6.72,7.33-11.11.81-2.54,1.15-5.32.34-7.84"/>
  <path class="cls-2" d="M10.93,32.25c-.11,0-.22,0-.33-.02-.86-.08-1.63-.5-2.07-1.12,0,0-.02-.02-.02-.02-.07-.07-.25-.27-.05-3.5.1-1.71.36-3.22.61-4.68.11-.67.23-1.37.33-2.07.27-1.9.3-3.82.07-5.88l-.02-.14.12-.07c.16-.1.41-.19.79-.3.22-.08.55-.14.9-.17.88-.08,1.51.12,2.17.71.42.4.73.89.93,1.47.2.58.29,1.25.26,2,0,1.46-.5,3.2-1.55,6.67-.37,1.21-.68,2.33-.91,3.35.26-.06.55-.16,1.05-.41,2.22-1.07,3.96-3.74,5.03-5.79,1.43-2.74,2.29-5.54,2.63-7.25.63-3.26-.28-5.22-.91-5.87-.59-.6-1.4-.81-2.42-.63-4.83,1.01-8.97,4.65-10.54,9.29l-.06.17-.18-.03c-1.24-.19-3.51-1.11-3.19-3.24.29-1.95,1.55-3.87,3.66-5.54,1.84-1.46,4.23-2.65,6.73-3.37,5.04-1.43,8.87.3,10.25,4.62.74,2.28.62,4.96-.34,7.97-1.41,4.61-3.9,8.38-7.41,11.22-2.19,1.77-4.52,2.45-4.54,2.46-.35.1-.69.15-1.01.15ZM8.84,30.8l.02.04c.35.52,1.03.89,1.78.97.36.04.76,0,1.18-.12.02,0,2.27-.67,4.38-2.38,3.43-2.78,5.88-6.48,7.26-11.01.93-2.92,1.05-5.52.34-7.71h0c-1.3-4.07-4.94-5.69-9.72-4.34-4.43,1.27-9.48,4.48-10.08,8.55-.29,1.95,1.98,2.57,2.64,2.71,1.66-4.7,5.88-8.38,10.81-9.4,1.18-.21,2.13.04,2.82.75,1.48,1.51,1.34,4.64,1.03,6.26-.82,4.24-3.9,11.42-7.89,13.35-.68.33-1.05.45-1.51.49l-.3.03.06-.29c.24-1.11.57-2.35.99-3.7,1.04-3.43,1.54-5.15,1.53-6.55.02-.71-.06-1.33-.24-1.85-.18-.51-.45-.95-.81-1.29-.57-.5-1.07-.66-1.83-.59-.32.03-.62.09-.8.15h-.01c-.25.07-.44.14-.57.2.21,2.04.19,3.95-.09,5.84-.1.71-.22,1.41-.34,2.08-.25,1.45-.5,2.95-.61,4.63-.11,1.75-.11,2.91-.05,3.17Z"/>
  <path class="cls-2" d="M50.74,14.23c-.41.05-.81.22-1.12.52-1.96-.62-5.9,1.45-6.04,5.82-.03.77.05,1.28.25,1.89-1.07,1.36-3.72,2.18-5.02,1.26-3.05-2.15-1.48-7.13.87-7.19.84-.02,1.77.58,2.64,2.15.23.43,1.35-3.96-2.78-3.69-4.66.31-6.53,5.04-5.19,8.21-.73.78-1.64,2.1-3.27,2.25-1.34.12-2.96-.6-3.63-2.05,2.27-.24,4.22-1.49,4.84-2.91.78-1.64.34-3.55-1.23-4.2-1-.47-2.85-.28-4.5.97-1.45,1.1-2.71,3.29-2.56,5.87.04.81.25,1.51.62,2.1,0,0,.19.38.54.68.19.19.39.36.62.52,1.15.74,2.28,1.11,3.45,1.1,1.43-.04,2.58-.28,3.76-1,1.01-.62,1.53-1.74,1.88-2.38.72,1,1.88,1.57,3.44,1.87,2.87.55,4.72-.7,6.01-2.53.15.23.32.44.51.65.9.94,1.96,1.45,3.16,1.29,1.93-.17,3.27-1.31,4.1-3.13.07-.12.29-.88.3-.93.22-.63.31-1.27.35-1.9.18-2.87-.08-5.4-1.99-5.22M27.13,21.94c-.08-1.73.28-3.18,1.01-4.33.64-1.14,1.68-.91,1.84.6.18,1.72-.93,3.79-2.75,4.48-.07-.2-.1-.45-.09-.75M49.04,23.49c-1.47-.02-2.2-1.26-2.18-3.71-.01-2.07.48-3.48,1.46-4.21.31-.22.58-.26.85-.23-.66,1.28-.62,2.75.07,4.47.33,1.05.95,1.76,1.82,2.22-.56.97-1.24,1.49-2.02,1.46M51.75,19.71c-.04.59-.17,1.1-.3,1.52-.61-.29-1.02-.92-1.16-1.81-.24-1.35.06-2.53.73-2.54.58-.05.9,1.13.73,2.82"/>
  <path class="cls-2" d="M29.18,27.73c-1.19,0-2.35-.37-3.54-1.14-.23-.16-.44-.33-.66-.54-.34-.29-.54-.66-.57-.72-.39-.63-.61-1.37-.65-2.2-.16-2.85,1.33-5.04,2.65-6.05,1.8-1.37,3.71-1.48,4.73-1,.71.29,1.24.84,1.52,1.57.34.89.28,1.96-.18,2.92-.65,1.47-2.55,2.68-4.7,2.99.72,1.22,2.15,1.76,3.27,1.65,1.31-.12,2.13-1.06,2.8-1.81.08-.09.16-.18.23-.26-.68-1.74-.46-3.84.58-5.53,1.05-1.7,2.77-2.72,4.85-2.85,2.42-.16,3.08,1.23,3.25,2.07.18.85,0,1.95-.33,2.07-.12.04-.25-.01-.32-.13-.73-1.33-1.56-2.03-2.4-2.03-.01,0-.03,0-.04,0-.89.02-1.75.9-2.14,2.18-.42,1.38-.31,3.41,1.39,4.61,1.01.72,3.46.28,4.65-1.13-.19-.62-.25-1.15-.22-1.85.07-2.1,1.04-3.98,2.68-5.14,1.16-.82,2.52-1.17,3.52-.92.32-.27.73-.45,1.16-.49h0c.55-.05,1.01.1,1.36.44.76.74,1.04,2.33.87,5.01-.06.78-.17,1.38-.36,1.95-.04.14-.24.82-.32.97-.9,1.98-2.34,3.07-4.27,3.24-1.19.15-2.32-.3-3.33-1.36-.13-.13-.24-.27-.36-.42-1.57,2.07-3.55,2.84-6.04,2.37-1.53-.29-2.63-.84-3.36-1.69-.36.67-.89,1.61-1.8,2.17-1.11.68-2.27.99-3.87,1.03-.01,0-.03,0-.04,0ZM29.84,16.26c-.93,0-2.09.35-3.16,1.16-1.24.94-2.63,3-2.48,5.68.04.76.24,1.43.59,2v.02s.19.34.5.61c.2.2.39.36.6.5,1.11.71,2.19,1.06,3.29,1.06h.03c1.53-.04,2.59-.32,3.65-.97.86-.53,1.37-1.48,1.7-2.11.04-.07.07-.13.1-.2l.17-.31.2.28c.65.9,1.73,1.49,3.3,1.78,2.41.46,4.3-.34,5.79-2.44l.19-.26.18.27c.15.23.31.43.48.61.91.95,1.91,1.36,2.97,1.23,1.77-.16,3.09-1.17,3.93-3,.05-.11.27-.79.29-.89v-.02c.19-.53.29-1.1.35-1.84.16-2.51-.08-4.04-.73-4.67-.26-.26-.6-.36-1.01-.32-.38.04-.73.21-1,.46l-.09.09-.12-.04c-.88-.28-2.16.04-3.26.82-1.52,1.08-2.43,2.83-2.5,4.8-.03.7.04,1.19.24,1.81l.04.11-.07.09c-1.12,1.42-3.89,2.31-5.32,1.3-1.89-1.33-2.02-3.58-1.56-5.1.45-1.49,1.45-2.47,2.55-2.49.68-.02,1.67.32,2.66,1.95.1-.43.16-1.26-.21-1.97-.43-.81-1.29-1.17-2.57-1.09-1.93.13-3.53,1.07-4.51,2.65-.98,1.59-1.17,3.65-.5,5.26l.06.13-.1.1c-.1.11-.21.23-.32.35-.68.77-1.61,1.82-3.09,1.96-1.35.13-3.11-.58-3.84-2.17l-.13-.28.3-.03c2.09-.22,4.05-1.39,4.66-2.78.41-.87.47-1.8.17-2.58-.24-.62-.68-1.08-1.29-1.33-.3-.14-.69-.22-1.13-.22ZM42.5,18.56s0,0,0,0c0,0,0,0,0,0ZM49.1,23.71s-.04,0-.07,0c-1.61-.02-2.41-1.34-2.4-3.93-.01-2.12.51-3.6,1.55-4.39.33-.23.65-.32,1.01-.27l.31.04-.14.27c-.62,1.21-.59,2.61.08,4.29v.02c.3.96.86,1.64,1.72,2.09l.2.11-.11.2c-.59,1.03-1.33,1.57-2.15,1.57ZM48.82,15.57c-.12.03-.25.09-.38.18-.92.69-1.38,2.05-1.37,4.03-.02,2.33.63,3.47,1.97,3.49h0c.64.03,1.21-.37,1.71-1.16-.85-.5-1.42-1.23-1.73-2.22-.66-1.65-.73-3.07-.21-4.32ZM27.09,22.98l-.07-.21c-.08-.23-.11-.5-.11-.82-.08-1.74.27-3.23,1.05-4.45.34-.59.82-.9,1.28-.8.51.11.87.67.96,1.5.21,1.95-1.07,4.01-2.89,4.71l-.21.08ZM29.07,17.11c-.25,0-.52.22-.74.6-.73,1.15-1.06,2.56-.98,4.21h0s0,.02,0,.02c0,.16,0,.31.03.45,1.5-.7,2.56-2.51,2.39-4.15-.07-.62-.3-1.05-.61-1.11-.03,0-.05,0-.08,0ZM51.59,21.53l-.23-.11c-.68-.32-1.12-1.01-1.28-1.97-.19-1.06-.06-2.01.33-2.48.17-.2.38-.31.61-.31.19-.01.37.06.51.21.41.42.58,1.49.44,2.85-.05.64-.19,1.17-.31,1.57l-.07.24ZM51.06,17.1s-.01,0-.02,0h-.02c-.11,0-.2.05-.28.15-.3.36-.39,1.22-.23,2.13.11.7.39,1.21.81,1.51.09-.33.18-.74.21-1.21h0c.14-1.37-.06-2.25-.32-2.51-.06-.07-.12-.08-.16-.08Z"/>
  <path class="cls-2" d="M86.34,20.27s.3-.35.52-1.13c.14-.48.18,1.23.18,1.23l-.71-.1Z"/>
  <path class="cls-2" d="M98.14,23.58s.12-.08.28-1.6c.07-.64.64,1.38.64,1.38l-.92.23Z"/>
  <path class="cls-5" d="M105.75,6.76c-.88-.56-1.85-.73-2.9-.49-1.08.24-1.92.8-2.5,1.67-.59.87-.76,1.85-.52,2.91.24,1.05.8,1.85,1.71,2.41.9.56,1.88.72,2.94.49,1.06-.23,1.87-.79,2.44-1.68.57-.89.74-1.85.51-2.9-.23-1.04-.79-1.84-1.68-2.4M104.41,8.13c0,.08-.07.24-.2.47-.13.24-.2.36-.19.37-.11.22-.18.45-.2.71l.07-.02s.1-.03.19-.07c.09-.04.28-.18.59-.43.24-.2.44-.32.61-.35.17-.04.32,0,.47.11.15.11.24.25.28.42.1.44-.12.78-.44.81h-.07c-.26,0-.59-.07-1-.13-.18,0-.34,0-.6.06.14.16.36.35.63.55.34.25.56.43.66.52,0,0,.08.07.1.18.02.25-.03.36-.15.51-.13.17-.27.26-.47.31-.42.09-.66-.08-.74-.52l-.16-.89-.02-.1-.02-.08c-.05-.18-.1-.22-.17-.28l-.15.27c-.05.09-.19.41-.35,1-.07.25-.23.4-.47.45-.19.04-.37,0-.54-.1-.18-.11-.28-.26-.33-.44-.07-.31.17-.6.72-.87.05-.02.16-.08.21-.1.27-.14.42-.26.61-.45l-.17-.06c-.18-.06-.46-.07-.84-.03-.58.06-.91-.11-1-.5-.04-.17-.01-.35.09-.53.1-.18.28-.28.41-.32.13-.04.27-.05.4.03.27.11.39.45.73.65l.56.4v-.09c-.03-.19-.03-.33-.06-.44l-.03-.13c-.02-.07-.03-.11-.05-.17l-.2-.45c-.04-.08-.06-.14-.07-.19-.09-.39.09-.63.54-.73.46-.1.78.08.84.4,0,0,.03.12.02.24"/>
  <path class="cls-8" d="M82.54,6.95c0,1.55-1.35,2.81-3.01,2.81s-3.01-1.26-3.01-2.81,1.35-2.81,3.01-2.81,3.01,1.26,3.01,2.81"/>
  <path class="cls-8" d="M82.78,7.15c0,1.44-2.36,2.48-3.56,2.48s-2.17-1.17-2.17-2.61.5-2.78,2.17-2.61c1.19.13,3.56,1.29,3.56,2.73"/>
  <path class="cls-1" d="M82.83,5.21s-.03-.05-.04-.07c-.08.03-.17.04-.27.02-.04,0-.07-.02-.1-.03,0,0,0,0-.01,0-.03-.01-.06-.03-.08-.05,0,0,0,0-.01,0-.03-.02-.05-.04-.07-.06,0,0,0,0,0,0-.02-.02-.04-.05-.05-.08t0,0c-.2.12-.45.18-.73.15-.04,0-.09-.01-.13-.02-.52-.11-.91-.51-.95-.94,0-.01,0-.03,0-.05-.07.02-.14.04-.21.05-.12.03-.26.04-.39.02-.04,0-.09,0-.13-.02-.51-.09-.89-.44-.93-.81,0,0,0-.02,0-.03-.42.07-.82.21-1.21.43-.94.52-1.56,1.33-1.86,2.42-.3,1.07-.18,2.08.34,3.02.53.94,1.31,1.55,2.36,1.84,1.04.29,2.03.16,2.96-.38.93-.54,1.55-1.34,1.85-2.42.3-1.06.19-2.06-.32-3M81.94,7.06c-.06.17-.13.33-.23.49-.1.16-.22.32-.37.49-.33.37-.71.68-1.14.93-.43.25-.88.43-1.35.52-.05,0-.07.01-.1,0-.02,0-.05-.02-.08-.05-.36-.33-.66-.71-.9-1.14-.24-.43-.4-.89-.5-1.38-.08-.44-.09-.82-.01-1.14.05-.21.12-.4.22-.56.12-.19.26-.34.42-.45.21-.15.44-.22.7-.24.14,0,.27.02.38.05.06.02.12.04.17.06.05.02.1.05.15.08.11.06.2.14.29.24.09.09.15.2.21.31.03.06.05.12.07.19.06-.05.12-.1.17-.13.21-.14.44-.21.7-.21.06,0,.11,0,.17,0,.06,0,.12.02.18.04.12.03.23.08.35.15.21.14.37.32.47.56.08.17.12.37.12.6,0,.2-.03.4-.1.59"/>
  <path class="cls-4" d="M49.04,5.04c.84-.89,1.88-1.33,3.11-1.33,1.2,0,2.22.39,3.07,1.16-.05-.05-.09-.1-.14-.15-.88-.86-1.95-1.3-3.22-1.29-1.23,0-2.26.45-3.11,1.33-.84.88-1.27,1.96-1.26,3.23,0,1.28.44,2.36,1.3,3.25.06.07.13.13.2.19-.8-.86-1.2-1.91-1.21-3.14,0-1.27.42-2.35,1.26-3.23"/>
  <path class="cls-4" d="M55.21,4.87c-.85-.77-1.87-1.16-3.07-1.16-1.23,0-2.26.45-3.11,1.33-.84.88-1.27,1.96-1.26,3.23,0,1.23.41,2.28,1.21,3.14.83.75,1.81,1.13,2.95,1.13.27,0,.53-.03.78-.07-.05-.19-.06-.39-.02-.6.11-.59.56-1.02,1.06-1.06,0-.08,0-.16.02-.24.11-.61.68-1.02,1.27-.91.06.01.11.03.17.05.22-.37.63-.54,1.01-.47.11-.4.16-.83.16-1.28,0-1.23-.4-2.26-1.18-3.1"/>
  <path class="cls-9" d="M50.83,7.7c0,.14.13.25.27.24.14,0,.25-.13.24-.27l-.12-1.86c0-.14-.13-.25-.27-.24-.14,0-.25.13-.24.27l.12,1.86Z"/>
  <path class="cls-9" d="M52.1,7.65c0,.14.13.25.27.24.14,0,.25-.13.24-.27l-.12-1.86c0-.14-.13-.25-.28-.24-.14,0-.25.13-.24.27l.12,1.86Z"/>
  <path class="cls-9" d="M49.15,7.79c.11-.04.2-.01.28.01,0,0,.2.07.14.11-.15.07-.3.14-.43.23.05-.13.06-.18.05.08,0,.78.58,1.48,1.28,1.82,1.03.51,1.57.37,2.42-.04.89-.43,1.69-1.25,1.68-2.27,0-.01,0-.13.02-.03-.08-.07-.16-.13-.24-.18-.07-.05-.07-.09.02-.1.1-.01.22,0,.31.06.3.2.53.46.78.71.07.07-.05.08-.1.08-.08,0-.23-.01-.29-.08-.02-.03-.17-.2-.19-.23-.19,1.44-1.59,2.68-3.02,2.82-1.36.13-2.79-1.07-3.06-2.36-.04.04-.06.09-.11.14-.09.11-.46-.05-.44-.09.21-.34.54-.54.9-.66"/>
  <path class="cls-3" d="M44.52,10.66c.62-.96.81-2.01.55-3.15-.25-1.13-.86-2-1.82-2.61-.52-.33-1.06-.53-1.62-.61-.3-.04-.6-.05-.91-.02-.06.45-.37.84-.82.94h-.05c.04.56-.3,1.07-.83,1.19l-.19.04c-.24.05-.47.02-.68-.08-.11.37-.4.67-.79.76l-.19.04c-.09.02-.18.02-.26.02-.22.67-.24,1.39-.07,2.15.26,1.14.87,2.01,1.85,2.62.74.46,1.54.67,2.38.64.27-.01.54-.05.81-.11,1.15-.25,2.03-.86,2.65-1.82M41.54,9.65c-.27.04-.42.23-.61.49-.49.68-.72.87-.72.87-.04.04-.08.02-.08-.04,0,0,.03-.48.08-1.11.02-.23.07-.52-.03-.74-.09-.2-.31-.29-.73-.48-.51-.24-.95-.51-.95-.51-.05-.03-.04-.07,0-.08.05-.01.14-.03.19-.04,0,0,.24-.05.39-.09.15-.03.3-.06.43-.1.64-.15.76-.23.76-.23.08-.07.08-.19.09-.34l.09-1.37c0-.06.03-.07.07-.02,0,0,.84,1.09.99,1.24.15.15.23.24.34.22.03,0,.29-.05.47-.1,0,0,.36-.09.61-.15.19-.04.43-.04.43-.04.06,0,.07.04.04.08l-1.11,1.5s-.02.12.02.17c0,0,.23.28.41.51.16.21.42.74.42.74.03.06.06.14.07.19v.05c.02.06,0,.08-.05.04,0,0-.32-.21-.69-.39-.46-.22-.77-.31-.95-.28"/>
  <path class="cls-8" d="M43.17,10.32s.08.01.06-.04v-.05c-.02-.06-.06-.13-.08-.19,0,0-.27-.54-.42-.74-.18-.23-.41-.51-.41-.51-.04-.04-.04-.12-.02-.17l1.11-1.5s.02-.08-.04-.08c0,0-.23,0-.43.04-.25.05-.61.15-.61.15-.19.05-.45.09-.47.1-.11.02-.19-.07-.34-.22-.15-.15-.99-1.24-.99-1.24-.03-.04-.07-.04-.07.02l-.09,1.37c-.01.15,0,.27-.09.34,0,0-.12.09-.76.23-.13.03-.28.06-.43.1-.15.03-.39.09-.39.09-.06.01-.14.03-.19.04-.05.01-.05.05,0,.08,0,0,.44.27.95.51.41.19.63.29.73.48.1.22.05.52.03.74-.05.63-.08,1.11-.08,1.11,0,.06.03.07.08.04,0,0,.23-.18.72-.87.19-.26.34-.44.61-.49.18-.03.49.05.95.28.36.18.69.39.69.39"/>
  <path class="cls-8" d="M32.16,6.71c-.82-.5-1.73-.64-2.71-.42-1.02.23-1.8.73-2.36,1.53-.56.79-.72,1.67-.51,2.63.21.95.74,1.67,1.58,2.16.84.5,1.76.64,2.74.42.99-.22,1.76-.73,2.3-1.54.54-.8.71-1.68.5-2.62-.21-.94-.73-1.66-1.55-2.16"/>
  <path class="cls-7" d="M32.15,6.33c-.88-.56-1.83-.72-2.87-.49-1.07.24-1.9.79-2.48,1.66-.58.87-.75,1.83-.52,2.89.23,1.04.8,1.84,1.69,2.39.89.55,1.87.71,2.91.48,1.05-.23,1.85-.79,2.42-1.66.57-.88.74-1.84.5-2.88-.23-1.03-.79-1.82-1.66-2.38M32.56,11.28c-.39.59-.94.97-1.68,1.14-.8.18-1.57.07-2.3-.34-.7-.39-1.13-.96-1.31-1.72-.18-.82-.03-1.61.46-2.37.49-.76,1.19-1.24,2.1-1.44.57-.13,1.13-.13,1.68,0,.49.11.76.27.8.45.02.07,0,.13-.07.16-.06.04-.12.04-.18.01-.66-.37-1.38-.47-2.14-.3-.83.18-1.46.62-1.9,1.29-.44.68-.57,1.38-.41,2.11.15.67.53,1.18,1.12,1.51.65.36,1.33.46,2.04.3.64-.14,1.13-.47,1.46-.98.36-.55.47-1.12.34-1.71-.12-.52-.41-.91-.87-1.17-.52-.28-1.06-.37-1.62-.24-.49.11-.85.35-1.09.73-.28.43-.37.87-.27,1.32.08.37.29.65.61.83.4.22.8.29,1.21.19.33-.07.57-.23.74-.49.2-.32.27-.63.2-.93-.05-.23-.18-.4-.37-.5-.26-.15-.51-.2-.75-.15-.19.04-.34.14-.44.29-.11.15-.14.3-.11.45.03.11.09.2.19.26.1.06.18.08.25.07.06-.01.12-.07.18-.17.06-.1.12-.15.16-.16.06-.01.11,0,.15.05.04.04.06.1.04.17-.05.24-.19.38-.43.44-.18.04-.37,0-.55-.1-.18-.1-.3-.26-.34-.46-.05-.24.01-.49.19-.77.14-.21.33-.34.58-.4.35-.08.7-.02,1.05.19.29.16.46.4.53.71.09.41,0,.81-.24,1.21-.22.33-.54.55-.95.64-.5.11-.99.03-1.47-.23-.42-.23-.68-.58-.79-1.04-.12-.54-.02-1.08.32-1.6.3-.46.73-.76,1.31-.89.65-.15,1.28-.05,1.88.28.56.31.9.77,1.04,1.39.15.69.03,1.35-.38,1.98"/>
  <polygon class="cls-9" points="30.42 32.94 30.71 33.84 31.69 33.84 30.9 34.39 31.19 35.29 30.41 34.73 29.61 35.28 29.92 34.39 29.13 33.83 30.11 33.83 30.42 32.94"/>
  <polygon class="cls-9" points="96.91 33.4 97.2 34.3 98.18 34.3 97.39 34.85 97.68 35.75 96.89 35.19 96.1 35.74 96.41 34.85 95.62 34.29 96.6 34.29 96.91 33.4"/>
  <g>
    <path class="cls-6" d="M115.47,7.75c.45,0,.88.11,1.31.34.43.23.76.56,1,.99.24.43.36.87.36,1.34s-.12.9-.35,1.32c-.23.42-.56.75-.99.99-.42.23-.87.35-1.33.35s-.9-.12-1.33-.35c-.42-.23-.75-.56-.99-.99-.24-.42-.35-.87-.35-1.32s.12-.91.36-1.34c.24-.43.57-.76,1-.99.43-.23.86-.34,1.31-.34M115.47,8.19c-.37,0-.74.1-1.09.29-.35.19-.63.47-.83.82-.2.36-.3.73-.3,1.11s.1.75.3,1.1c.2.35.47.63.82.82.35.2.72.29,1.11.29s.75-.1,1.11-.29c.35-.2.63-.47.82-.82.2-.35.29-.72.29-1.1s-.1-.76-.3-1.11c-.2-.36-.48-.63-.83-.82-.36-.19-.72-.29-1.09-.29"/>
    <path class="cls-6" d="M116.5,11.18c-.15-.25-.29-.42-.39-.53-.06-.05-.13-.1-.23-.14.23-.02.41-.1.55-.24.14-.14.21-.31.21-.51,0-.14-.04-.27-.12-.39-.08-.12-.19-.21-.33-.26-.14-.05-.37-.07-.68-.07h-.91v2.66h.43v-1.13h.25c.15,0,.27.03.34.09.11.08.26.29.45.62l.24.42h.52l-.32-.52ZM115.54,10.21h-.52v-.8h.49c.21,0,.35.02.43.05.08.03.14.08.18.14.04.06.07.13.07.21,0,.12-.05.22-.14.29-.09.07-.26.11-.51.11"/>
  </g>
  <g>
    <path class="cls-6" d="M98.38,30.24c.2,0,.4.05.6.16.19.1.35.25.45.45.11.19.16.4.16.61s-.05.41-.16.6c-.11.19-.26.34-.45.45-.19.11-.39.16-.61.16s-.41-.05-.6-.16c-.19-.11-.34-.26-.45-.45-.11-.19-.16-.39-.16-.6s.05-.41.16-.61c.11-.19.26-.34.46-.45.19-.1.39-.16.6-.16M98.38,30.45c-.17,0-.34.04-.5.13-.16.09-.29.21-.38.38-.09.16-.14.33-.14.51s.04.34.13.5c.09.16.22.29.38.38.16.09.33.13.5.13s.34-.04.5-.13c.16-.09.29-.21.38-.38.09-.16.13-.33.13-.5s-.05-.35-.14-.51c-.09-.16-.22-.29-.38-.38-.16-.09-.33-.13-.5-.13"/>
    <path class="cls-6" d="M98.85,31.81c-.07-.11-.13-.19-.18-.24-.03-.02-.06-.05-.1-.06.1,0,.19-.04.25-.11.06-.07.09-.14.09-.23,0-.06-.02-.12-.06-.18-.04-.06-.09-.09-.15-.12-.06-.02-.17-.03-.31-.03h-.42v1.21h.2v-.51h.11c.07,0,.12.01.16.04.05.04.12.13.2.28l.11.19h.24l-.15-.24ZM98.41,31.36h-.24v-.37h.22c.1,0,.16,0,.2.02.04.01.06.04.08.06.02.03.03.06.03.1,0,.06-.02.1-.06.13-.04.03-.12.05-.23.05"/>
  </g>
</svg>