<?xml version="1.0" encoding="UTF-8"?>
<svg id="CLIENTES" xmlns="http://www.w3.org/2000/svg" version="1.1" viewBox="0 0 168.94 40">
  <defs>
    <style>
      .cls-1 {
        fill: #2e3192;
        stroke-width: 0px;
      }
    </style>
  </defs>
  <path class="cls-1" d="M36.76,7.06l.11-.22s.16-.05.49-.04l.78-.02s.33-.01.29.32l-2.61,11.01s-.07.24-.51.18l-.75.02s-.31-.01-.29-.37c0,0,.05-1.35-.01-1.98,0,0-.1-3.91-3.59-5.92,0,0-3.39-2.04-6.75,1.38,0,0-3.45,3.52-4.67,9.03,0,0-1.55,5.89,1.25,10.35,0,0,2.24,3.19,6.02,1.37,0,0,3.76-1.16,5.92-7.26,0,0,.11-.4.22-.79,0,0-.01-.35.34-.36l1.19-.04s.35-.07.32.38l-2.71,11.25s-.04.24-.37.21l-1.47.04s-.13,0-.1-.3c0,0,.11-.79.38-1.31,0,0,.33-.75.04-1.54,0,0-.37-.58-.98.21l-.64.66s-2.47,3.28-7.9,3.16c0,0-5.33.34-8.66-3.03,0,0-3.02-2.64-3.58-7.89,0,0-.31-3.62.87-7.43,0,0,1.3-5.6,7.48-9.15,0,0,4.68-2.95,11.99-2.19,0,0,3.08.76,4.21,1.78,0,0,.61.57,1.62.52,0,0,.73.09,1.53-.97,0,0,.39-.49.56-1.08Z"/>
  <path class="cls-1" d="M59.82,27.5s-.89-.24-1.27.92c0,0-.34,1.14-1.4,1.04,0,0-.85-.27-.47-1.38l1.67-6.98s1.13-3.75-1.78-5.35c0,0-2.14-1.65-8.21-1.67,0,0-5.65-.02-8.06,2.54,0,0-1.24,1.17-.69,2.71,0,0,.19,1.1,2.4,1.32,0,0,1.47.03,2.04-1.08,0,0,.52-.77,1.13-1.28,0,0,.53-.63,1.3-1.09,0,0,1.74-1.32,3.15-.67,0,0,1.24.61.61,2.4,0,0-.87,1.68-2.49,2.37,0,0-1.6.43-2.63.58h-1.65s-3.27-.46-5.33,1.13c0,0-3.27,2.17-3.27,7.11,0,0,.33,4.51,4.46,5.42,0,0,3.84.59,6.08-.63,0,0,.95-.46,1.59-1.08,0,0,.69,1.01,2.11,1.23,0,0,.95.18,3.02.06,0,0,2.96-.33,4.3-1.39,0,0,2.43-1.39,3.61-4.11,0,0,1.06-1.67-.2-2.14ZM47.04,30.99s-.46.95-1.11.96c-.06,0-.1,0-.14,0,.08.03.13.04.13.04,0,0-.52-.03-.13-.04-.31-.12-1.06-.61-1.02-2.37,0,0,.16-2.74,1.59-4.63,0,0,1-1.41,1.74-1.31,0,0,.44-.03.46,1.06l-1.51,6.3Z"/>
  <path class="cls-1" d="M64.71,17.61l-3.1,13.1s-.15,1.05-1.13,1.96c0,0-.56.54-1.38.7l-1.05.12s-.09.02-.13.27l-.12.93s0,.17.33.12l14.14-.43s.1.22.1-.44l-.03-.9s.14-.36-.41-.38c0,0-1.58-.11-1.74-1.62,0,0,.02-.13.1-.51l2.42-10s.96-3.08,2.45-3.21c0,0,1.82-.01.97,3.68l-1.82,8.14s-.59,3.2,1.23,4.49c0,0,1.83,1.59,6.03.43,0,0,3.34-.85,4.54-4.03,0,0,1.72-3.44.55-3.6,0,0-.99-.21-1.47,1.34l-.35.93s-.11.56-.69.39c0,0-.44-.05-.11-1.49l1.36-5.89s1.39-4.92-.42-7.13c0,0-1.25-2.12-4.46-1.99,0,0-4.04-.01-6.57,2l-.11.09.17-1.08s.23-.36-.52-.32l-10.95.34s-.35-.05-.36.29l.02.81s-.04.22.42.21h.52s1.12-.07,1.5.93c0,0,.32.7.06,1.75Z"/>
  <path class="cls-1" d="M104.47,25.19s4.6-1.24,4.56-6.9c0,0-.11-5.73-9.28-6.03,0,0-5.04.05-8.23,3.51,0,0-3.93,3.86-3.41,9.75,0,0-.04,5.49,4.9,7.78,0,0,1.5,1.08,5.34.98,0,0,4.78-.05,7.19-3.73,0,0,.95-.76,1.67-3.73,0,0,.14-.89-.73-1.02,0,0-1.08-.28-1.54,1.55,0,0-1.32,3.06-4.43,4.13,0,0-3.01.81-3.83-1.48,0,0-.72-2.89.48-4.85,0,0,2.75,1.39,7.31.05ZM98.17,22.05l.91-3.41c.54-2.34.84-2.73.84-2.73,1.14-1.57,2.12-.48,2.12-.48.57.77.5,2.09.5,2.09-.55,3.51-1.46,4.68-1.46,4.68-1.47,2.31-2.28,1.72-2.28,1.72-.87-.39-.63-1.87-.63-1.87Z"/>
  <path class="cls-1" d="M123.98,4.69l-5.28,22.85s-.19.99,1.14,1.34c0,0,1.91-.22,2.89-2.28,0,0,.62-1.17.63-2.65,0,0-.19-.93.79-1.01,0,0,.87-.3.86,1.12,0,0,.04,3.18-1.8,5.81,0,0-1.77,3.18-7.03,3.34,0,0-4.75.59-5.61-4.27,0,0-.35-2.67.05-3.89l3.81-16.83s.57-1.93-1.64-2.28c0,0-.88-.1-1.32-.09h-.37s-.33.09-.19-.31l.43-.94,12.49-.42s.3-.05.14.52Z"/>
  <path class="cls-1" d="M132.76,4.45s-1.06-1.11-3.25-.93c0,0-3.02-.22-4.28,2.71,0,0-1.41,4.13,1.5,5.39,0,0,1.56.87,3.17-.08,0,0,.26-.23.47-.07,0,0,.23.38-.45.77,0,0-.98.62-2.36.43,0,0-.75-.13-1.03-.26,0,0-.6-.16-.7.03,0,0-.3.4.35,1.02,0,0,1.14,1.07,3.22.65,0,0,2.43-.38,3.76-2.8,0,0,1.3-2.21.53-5.1,0,0-.36-1.22-.93-1.77Z"/>
  <path class="cls-1" d="M150.95,11.99l-1.78,6.35-1.2-.4s.59-3.05-2.45-4.29c0,0-2.76-1.21-4.61.76,0,0-.56.66.19,1.63,0,0,.32.57,1.93,1.75,0,0,1.01.92,3.47,2.14,0,0,4.86,1.8,2.68,7.28,0,0-1.85,4.32-7.88,5.28,0,0-5.37.42-8.05-1.49,0,0-1.88-1.34-2.58.28,0,0-.07.02-.2.68-.13.61-.08.63-.08.63l-1.54-.67,1.58-7.27,1.51.46s-.66,1.93.64,3.25c0,0,1.83,1.95,6.07,1.52,0,0,2.79-.15,2.83-2.06,0,0,.31-1.13-3.53-2.85,0,0-4.35-1.95-5.57-5.08,0,0-1.06-3.48,1.45-6.14,0,0,2.18-3.44,7.79-2.66,0,0,2.94.56,4.02,1.31,0,0,2.52,1.6,3.65,0,0,0,.33-.36.51-.85l1.14.44Z"/>
  <path class="cls-1" d="M36.76,7.06l.11-.22s.16-.05.49-.04l.78-.02s.33-.01.29.32l-2.61,11.01s-.07.24-.51.18l-.75.02s-.31-.01-.29-.37c0,0,.05-1.35-.01-1.98,0,0-.1-3.91-3.59-5.92,0,0-3.39-2.04-6.75,1.38,0,0-3.45,3.52-4.67,9.03,0,0-1.55,5.89,1.25,10.35,0,0,2.24,3.19,6.02,1.37,0,0,3.76-1.16,5.92-7.26,0,0,.11-.4.22-.79,0,0-.01-.35.34-.36l1.19-.04s.35-.07.32.38l-2.71,11.25s-.04.24-.37.21l-1.47.04s-.13,0-.1-.3c0,0,.11-.79.38-1.31,0,0,.33-.75.04-1.54,0,0-.37-.58-.98.21l-.64.66s-2.47,3.28-7.9,3.16c0,0-5.33.34-8.66-3.03,0,0-3.02-2.64-3.58-7.89,0,0-.31-3.62.87-7.43,0,0,1.3-5.6,7.48-9.15,0,0,4.68-2.95,11.99-2.19,0,0,3.08.76,4.21,1.78,0,0,.61.57,1.62.52,0,0,.73.09,1.53-.97,0,0,.39-.49.56-1.08Z"/>
  <path class="cls-1" d="M59.82,27.5s-.89-.24-1.27.92c0,0-.34,1.14-1.4,1.04,0,0-.85-.27-.47-1.38l1.67-6.98s1.13-3.75-1.78-5.35c0,0-2.14-1.65-8.21-1.67,0,0-5.65-.02-8.06,2.54,0,0-1.24,1.17-.69,2.71,0,0,.19,1.1,2.4,1.32,0,0,1.47.03,2.04-1.08,0,0,.52-.77,1.13-1.28,0,0,.53-.63,1.3-1.09,0,0,1.74-1.32,3.15-.67,0,0,1.24.61.61,2.4,0,0-.87,1.68-2.49,2.37,0,0-1.6.43-2.63.58h-1.65s-3.27-.46-5.33,1.13c0,0-3.27,2.17-3.27,7.11,0,0,.33,4.51,4.46,5.42,0,0,3.84.59,6.08-.63,0,0,.95-.46,1.59-1.08,0,0,.69,1.01,2.11,1.23,0,0,.95.18,3.02.06,0,0,2.96-.33,4.3-1.39,0,0,2.43-1.39,3.61-4.11,0,0,1.06-1.67-.2-2.14ZM47.04,30.99s-.46.95-1.11.96c-.06,0-.1,0-.14,0,.08.03.13.04.13.04,0,0-.52-.03-.13-.04-.31-.12-1.06-.61-1.02-2.37,0,0,.16-2.74,1.59-4.63,0,0,1-1.41,1.74-1.31,0,0,.44-.03.46,1.06l-1.51,6.3Z"/>
  <path class="cls-1" d="M64.71,17.61l-3.1,13.1s-.15,1.05-1.13,1.96c0,0-.56.54-1.38.7l-1.05.12s-.09.02-.13.27l-.12.93s0,.17.33.12l14.14-.43s.1.22.1-.44l-.03-.9s.14-.36-.41-.38c0,0-1.58-.11-1.74-1.62,0,0,.02-.13.1-.51l2.42-10s.96-3.08,2.45-3.21c0,0,1.82-.01.97,3.68l-1.82,8.14s-.59,3.2,1.23,4.49c0,0,1.83,1.59,6.03.43,0,0,3.34-.85,4.54-4.03,0,0,1.72-3.44.55-3.6,0,0-.99-.21-1.47,1.34l-.35.93s-.11.56-.69.39c0,0-.44-.05-.11-1.49l1.36-5.89s1.39-4.92-.42-7.13c0,0-1.25-2.12-4.46-1.99,0,0-4.04-.01-6.57,2l-.11.09.17-1.08s.23-.36-.52-.32l-10.95.34s-.35-.05-.36.29l.02.81s-.04.22.42.21h.52s1.12-.07,1.5.93c0,0,.32.7.06,1.75Z"/>
  <path class="cls-1" d="M104.47,25.19s4.6-1.24,4.56-6.9c0,0-.11-5.73-9.28-6.03,0,0-5.04.05-8.23,3.51,0,0-3.93,3.86-3.41,9.75,0,0-.04,5.49,4.9,7.78,0,0,1.5,1.08,5.34.98,0,0,4.78-.05,7.19-3.73,0,0,.95-.76,1.67-3.73,0,0,.14-.89-.73-1.02,0,0-1.08-.28-1.54,1.55,0,0-1.32,3.06-4.43,4.13,0,0-3.01.81-3.83-1.48,0,0-.72-2.89.48-4.85,0,0,2.75,1.39,7.31.05ZM98.17,22.05l.91-3.41c.54-2.34.84-2.73.84-2.73,1.14-1.57,2.12-.48,2.12-.48.57.77.5,2.09.5,2.09-.55,3.51-1.46,4.68-1.46,4.68-1.47,2.31-2.28,1.72-2.28,1.72-.87-.39-.63-1.87-.63-1.87Z"/>
  <path class="cls-1" d="M123.98,4.69l-5.28,22.85s-.19.99,1.14,1.34c0,0,1.91-.22,2.89-2.28,0,0,.62-1.17.63-2.65,0,0-.19-.93.79-1.01,0,0,.87-.3.86,1.12,0,0,.04,3.18-1.8,5.81,0,0-1.77,3.18-7.03,3.34,0,0-4.75.59-5.61-4.27,0,0-.35-2.67.05-3.89l3.81-16.83s.57-1.93-1.64-2.28c0,0-.88-.1-1.32-.09h-.37s-.33.09-.19-.31l.43-.94,12.49-.42s.3-.05.14.52Z"/>
  <path class="cls-1" d="M132.76,4.45s-1.06-1.11-3.25-.93c0,0-3.02-.22-4.28,2.71,0,0-1.41,4.13,1.5,5.39,0,0,1.56.87,3.17-.08,0,0,.26-.23.47-.07,0,0,.23.38-.45.77,0,0-.98.62-2.36.43,0,0-.75-.13-1.03-.26,0,0-.6-.16-.7.03,0,0-.3.4.35,1.02,0,0,1.14,1.07,3.22.65,0,0,2.43-.38,3.76-2.8,0,0,1.3-2.21.53-5.1,0,0-.36-1.22-.93-1.77Z"/>
  <path class="cls-1" d="M150.95,11.99l-1.78,6.35-1.2-.4s.59-3.05-2.45-4.29c0,0-2.76-1.21-4.61.76,0,0-.56.66.19,1.63,0,0,.32.57,1.93,1.75,0,0,1.01.92,3.47,2.14,0,0,4.86,1.8,2.68,7.28,0,0-1.85,4.32-7.88,5.28,0,0-5.37.42-8.05-1.49,0,0-1.88-1.34-2.58.28,0,0-.07.02-.2.68-.13.61-.08.63-.08.63l-1.54-.67,1.58-7.27,1.51.46s-.66,1.93.64,3.25c0,0,1.83,1.95,6.07,1.52,0,0,2.79-.15,2.83-2.06,0,0,.31-1.13-3.53-2.85,0,0-4.35-1.95-5.57-5.08,0,0-1.06-3.48,1.45-6.14,0,0,2.18-3.44,7.79-2.66,0,0,2.94.56,4.02,1.31,0,0,2.52,1.6,3.65,0,0,0,.33-.36.51-.85l1.14.44Z"/>
  <path class="cls-1" d="M155.89,4.32c-2.45.08-4.38,2.12-4.31,4.58.08,2.45,2.13,4.38,4.59,4.31,2.45-.07,4.38-2.13,4.31-4.58-.07-2.46-2.13-4.38-4.58-4.31ZM156.14,12.32c-1.97.06-3.6-1.49-3.66-3.45-.06-1.96,1.48-3.6,3.44-3.66,1.96-.06,3.61,1.48,3.66,3.45.06,1.96-1.48,3.61-3.44,3.67Z"/>
  <path class="cls-1" d="M155.3,8.46l-.03-1.19.89-.03c.44-.01.62.27.62.59.01.42-.21.59-.67.6l-.82.03ZM154.22,11.39l1.16-.04-.05-1.89.68-.02c.67-.02.75.23.77.91.01.49.06.78.11.96l1.23-.04v-.15c-.19-.03-.19-.23-.21-.95-.03-.99-.27-1.12-.68-1.3.46-.19.69-.68.67-1.26-.02-.72-.39-1.44-1.7-1.4l-2.13.07.15,5.11Z"/>
</svg>