<?xml version="1.0" encoding="UTF-8"?>
<svg id="CLIENTES" xmlns="http://www.w3.org/2000/svg" version="1.1" viewBox="0 0 83.69 40">
  <defs>
    <style>
      .cls-1 {
        fill: #ea1d76;
      }

      .cls-1, .cls-2, .cls-3, .cls-4 {
        stroke-width: 0px;
      }

      .cls-2 {
        fill: #ffa400;
      }

      .cls-3 {
        fill: #0075c9;
      }

      .cls-4 {
        fill: #fff;
      }
    </style>
  </defs>
  <path class="cls-1" d="M9.15,3.68c.2-.08.41-.16.61-.23.21-.07.41-.14.62-.22-.21.06-.42.12-.64.16-.27.08-.4.17-.59.28"/>
  <path class="cls-1" d="M11.53,2.88c.07-.02.15-.04.22-.06.06-.02.13-.05.19-.07-.14.05-.27.09-.41.13"/>
  <path class="cls-1" d="M13.72,2.27c-.2.03-.39.08-.58.13-.19.05-.37.09-.55.15.16-.04.34-.07.52-.12.19-.05.39-.1.61-.15"/>
  <path class="cls-1" d="M11.95,2.67c.14-.01.21,0,0,.08,0,0,0,0,0,0,.22-.07.43-.13.66-.2-.24.05-.45.09-.64.12"/>
  <path class="cls-1" d="M11.95,2.67c-.14.01-.35.05-.43.06.13-.01.27-.04.43-.06"/>
  <path class="cls-1" d="M12.36,1.94c.22-.08.21.1.65-.04,1.05-.29,1.96-.53,2.97-.66.23-.04.53-.04.83-.04.3.01.6.03.83,0,.14-.01.3-.03.48-.05.09,0,.18-.02.28-.03.1-.01.19-.02.29-.03.39-.02.78-.05,1.1-.08.32-.03.55-.05.6-.06.05-.02-.09-.04-.5-.05-.31,0-.6,0-.89,0-.14,0-.28,0-.42,0-.14,0-.28.02-.41.02-.55.03-1.05.08-1.54.14-.99.12-1.94.29-3.02.53-1.75.44-3.39,1.04-5.06,1.79-.24.1-.47.2-.69.29-.23.1-.45.19-.67.29.29-.13.59-.24.9-.36.31-.11.63-.24.97-.35.89-.3,1.89-.88,3.32-1.3"/>
  <path class="cls-1" d="M.87,8.53c.08-.09.2-.21.29-.31.05-.05.09-.1.13-.13.03-.03.05-.05.05-.05.86-.56,1.69-1.22,2.57-1.84-.15.06-.3.12-.45.19-.25.18-.39.28-.4.31-.01.03.1-.02.34-.16-1.09.61-2.05,1.32-2.91,2.17.09-.02.11.03.37-.18"/>
  <path class="cls-1" d="M.02,9.24c.15-.18.31-.36.48-.53,0,0-.02,0-.03,0-.17.17-.32.35-.47.53,0,0,.01-.01.02-.01"/>
  <path class="cls-1" d="M36.65,10.32c-.06-.15-.19-.44-.19-.44-.14-.19-.29-.37-.44-.55-.15-.18-.31-.35-.46-.52-.21-.28-.44-.54-.67-.81-.11-.14-.24-.26-.35-.38-.12-.13-.24-.26-.36-.38-.03-.04-.07-.08-.12-.14.02.02.04.05.06.08-.12-.12-.24-.23-.36-.34-.25-.34-.78-.76-1.33-1.15-.13-.1-.31-.21-.48-.33-.76-.54-1.54-1.03-2.38-1.45.07.03.12.05.19.08.1.05.2.1.31.15.05.02.1.05.16.07.05.03.1.06.15.08.28.18.61.36,1,.6-.17-.11-.33-.23-.5-.32-.17-.1-.34-.19-.5-.28-.11-.07-.2-.13-.3-.19-.09-.06-.18-.11-.26-.17-.11-.09-.29-.21-.35-.25.1.07.22.16.35.25.11.09.16.14-.05.05,0,0,0,0,0,0-.13-.06-.26-.13-.39-.19-.37-.17-.73-.35-1.11-.51-.2-.09-.39-.2-.59-.3-.26-.12-.42-.13-.63-.18-1.32-.46-2.7-.82-4.12-1.05-.71-.12-1.44-.2-2.18-.24-.74-.05-1.49-.04-2.25-.05,0,0-.4-.01-.86-.02-.46,0-.99,0-1.25-.02.12-.02.24-.03.36-.05.12-.01.24-.02.36-.03.08.04.06.09.41.09.11-.02.29-.04.43-.06.14-.02.26-.03.26-.03.13,0,.26.02.39.02.13.01.26.02.39.03.26.02.52.02.79.02.53,0,1.07,0,1.61.03-.15-.04-.31-.09-.47-.12-.31-.02-.48,0-.51,0-.03.02.09.04.36.08-1.25-.17-2.44-.19-3.65-.07-.01,0-.02,0-.03-.01.51-.06,1.05-.11,1.58-.14.53-.01,1.06-.04,1.6-.04,1.07,0,2.13.07,3.1.19.2.09.27.16.33.24-.38-.08-.92-.21-1.31-.27.39.06.93.19,1.31.27-.06-.08-.13-.15-.33-.24.27.03.54.07.81.11.41.08.8.18,1.19.29.3.09.61.19.92.3.31.12.64.22.98.36.22.09.46.17.71.25.25.09.52.17.8.26.28.09.58.2.89.32.31.13.64.27.97.44.21.1.08.22.51.42.97.53,1.78,1.02,2.58,1.69.19.14.4.36.6.6.2.24.39.47.57.63.41.37,1.11,1.07,1.55,1.54.43.48.65.69.15,0-.78-1-1.52-1.75-2.29-2.42-.77-.66-1.55-1.25-2.51-1.85.87.52,1.72,1.11,2.55,1.83.83.72,1.63,1.56,2.37,2.55.47.63.86,1.25,1.3,2.1h-.91c-.07-.16-.09-.2-.16-.37-.07-.16-.15-.31-.22-.46-.05-.11-.12-.22-.2-.32-.08-.1-.18-.2-.27-.3-.09-.1-.19-.21-.27-.32-.09-.11-.17-.23-.22-.37.06.14.13.26.22.37.08.11.18.22.27.32.09.1.19.2.27.3.08.1.15.21.2.32.07.15.15.3.22.46"/>
  <path class="cls-1" d="M36.5,29.48c-.4.73-.75,1.24-1.25,1.91-1.33,1.79-3.01,3.39-4.99,4.61-2.15,1.32-4.54,2.14-6.94,2.37-1.2.11-2.41.08-3.58-.09-1.17-.17-2.33-.48-3.43-.89-1.09-.41-2.13-.93-3.09-1.53-.96-.61-1.83-1.33-2.61-2.13-.77-.8-1.42-1.7-1.95-2.66-.53-.96-.91-2-1.16-3.07-.5-2.14-.44-4.42.06-6.63.06-.28.14-.55.2-.83l.05-.21.06-.2c.04-.13.08-.27.13-.4.18-.53.39-1.04.65-1.54.51-1,1.17-1.92,1.95-2.78.3-.33.63-.69,1.01-1.07.38-.39.79-.79,1.24-1.28.11-.12.23-.25.34-.39.12-.14.23-.29.35-.47.12-.18.23-.38.33-.63.1-.25.18-.57.15-.93-.02-.36-.15-.71-.31-.97-.16-.26-.35-.45-.52-.61-.18-.16-.35-.29-.52-.4-.17-.11-.34-.21-.51-.3l-.18-.1-.21-.02c-.47-.05-.95-.11-1.41-.16h-.07s-.05,0-.05,0c-.59,0-1.17.03-1.74.11-.57.08-1.12.18-1.64.32-1.04.27-1.93.68-2.64,1.05-.56.33-.98.63-1.3.89-.33.26-.55.48-.71.65-.31.35-.35.52-.27.6.17.15.85-.08.95-.12.55-.22,1.06-.44,1.58-.65.51-.21,1.03-.43,1.59-.62,1.11-.38,2.42-.71,4.17-.65h-.05c.44.06.91.13,1.41.21l-.2-.06c.26.16.52.33.7.53.09.1.16.2.19.28.02.04.02.07.02.1,0,.03,0,.06-.01.09.01-.05.01-.08,0-.12,0-.04-.02-.08-.04-.12-.04-.08-.1-.16-.14-.22-.09-.12-.11-.16-.05-.13.06.02.2.12.32.27.06.08.1.16.11.26.01.1,0,.23-.08.39-.14.32-.46.7-.82,1.08-.36.38-.77.79-1.19,1.2-.41.42-.83.85-1.22,1.28-.39.43-.75.86-1.07,1.27-.47.58-.9,1.25-1.27,1.99-.19.37-.35.76-.5,1.17-.15.4-.28.83-.38,1.25-.45,1.68-.67,3.54-.54,5.46.12,1.91.65,3.86,1.54,5.6.89,1.75,2.15,3.27,3.55,4.5,1.4,1.23,3.15,2.22,5.22,2.97.67.24,1.35.46,2.04.63.34.09.69.15,1.04.22.17.04.35.06.53.09l.53.07c1.41.16,2.84.13,4.23-.07.7-.09,1.38-.25,2.06-.43.34-.1.67-.2,1-.31l.49-.18.25-.09.24-.1c1.29-.54,2.52-1.22,3.66-2.03,2.27-1.63,4.19-3.76,5.63-6.21.21-.37.46-.61.65-.99-.12.22-.22.21-.12,0"/>
  <path class="cls-1" d="M30.42,4.36c-.15-.08-.33-.17-.52-.26.35.18.68.38,1.01.58.17.1.33.21.49.32.16.11.33.21.48.33-.14-.16-.36-.31-.62-.48-.25-.17-.55-.32-.85-.48"/>
  <path class="cls-2" d="M2.79,6c-.06.04-.14.1-.21.14.2-.15.29-.22.21-.14"/>
  <path class="cls-2" d="M.16,8.24c.29-.34.7-.75,1.14-1.12.44-.38.9-.72,1.27-.97-.31.24-.88.71-1.37,1.15-.5.44-.91.88-1.04.95"/>
  <path class="cls-2" d="M3.03,6.06c-.3.21-.61.42-.9.64.49-.42.43-.31.9-.64"/>
  <path class="cls-2" d="M2.64,6.21l.02-.07c.17-.1.33-.21.5-.31-.18.12-.35.25-.53.38"/>
  <path class="cls-2" d="M27.14,1c-.4-.15-.79-.28-1.08-.37.82.17.87.26,1.08.37"/>
  <path class="cls-2" d="M31.46,36.03l-.07.09c-.11.05-.17.06.07-.09"/>
  <path class="cls-2" d="M28.29,37.51c-.15.03-.3.06-.43.08.32-.1.48-.12.43-.08"/>
  <path class="cls-2" d="M27.14,1c.12.04.23.08.34.13-.16-.05-.26-.09-.34-.13"/>
  <path class="cls-2" d="M5.25,4.3c.31-.18.4-.2.47-.21-.18.08-.34.16-.47.21"/>
  <path class="cls-2" d="M3.36,10.77l-.12.08s.09-.06.12-.08"/>
  <path class="cls-2" d="M12.48,11.21s-.1.08-.14.11c.07-.09.13-.13.14-.11"/>
  <path class="cls-2" d="M10.89,12.99c.16-.19.26-.3.36-.39-.11.12-.23.26-.36.39"/>
  <path class="cls-2" d="M31.55,36.93s.08-.08.17-.14c0,.02-.05.05-.17.14"/>
  <path class="cls-2" d="M33.18,35.91s.04-.03.06-.04c.01,0,.04-.02.05-.03l-.11.07Z"/>
  <path class="cls-2" d="M5.71,3.94c-.39.13.34-.21.62-.35-.29.15-.37.26-.62.35"/>
  <path class="cls-2" d="M8.06,2.9c-.18.06-.44.16-.75.3.19-.1.4-.18.75-.3"/>
  <path class="cls-2" d="M6.17,3.8c.22-.12.42-.24.61-.34.19-.1.37-.18.53-.26-.29.15-.53.3-1.14.6"/>
  <path class="cls-2" d="M14.6.72c-.2.02-.49.07-.73.13-.24.06-.42.11-.42.11.82-.22.73-.22.42-.17-.16.03-.37.07-.55.1-.18.04-.33.07-.37.07.13-.03.24-.06.34-.08.1-.02.19-.04.27-.05.16-.03.27-.04.38-.06.21-.02.37-.02.67-.05"/>
  <path class="cls-2" d="M16.8.38c-.17.02-.33.05-.46.08.17-.04.31-.06.46-.08"/>
  <path class="cls-2" d="M17.42.26c.29-.03.49-.02.65-.02.16,0,.28.02.41.03-.35.05-.64.06-.91.06-.27.01-.51.01-.78.04.41-.05.82-.09.62-.12"/>
  <path class="cls-2" d="M34.62,4.55c-.1-.09-.36-.29-.35-.32l.39.31c.13.1.26.2.39.31.29.27-.26-.19-.43-.3"/>
  <path class="cls-2" d="M37.15,7.18c.13.15.21.24.26.3.05.06.08.08.1.09.04.03.05.01.17.18l-.11.03-.21-.3-.1-.15-.11-.15Z"/>
  <path class="cls-2" d="M36.46,7.21l-.14-.17c.05.06.11.13.16.19l-.03-.02Z"/>
  <path class="cls-2" d="M39.38,10.26c-.05-.18-.11-.36-.17-.54.08.15.13.26.17.35.03.09.05.15.05.19,0,.07-.02.06-.05,0"/>
  <path class="cls-2" d="M7.53,24.61s0-.09.01-.16v.16Z"/>
  <path class="cls-2" d="M37.8,8.22c-.82-1.17-1.8-2.24-2.73-3.03.14.11.28.21.4.31.12.1.22.2.3.27.17.15.28.22.29.16-.27-.27-.46-.47-.62-.62-.16-.15-.29-.26-.41-.36-.06-.05-.12-.11-.19-.17-.07-.06-.15-.11-.23-.18-.09-.07-.18-.14-.29-.23-.06-.04-.12-.09-.18-.14-.07-.05-.14-.1-.21-.16l.1.08c-.66-.42-1.52-1.08-2.02-1.24.13.11.38.24.59.35.21.12.37.23.34.29-.13-.08-.27-.18-.4-.26l-.41-.24c-.27-.17-.55-.31-.83-.46.51.32,1.66.94,2.24,1.37.22.15,0,0-.23-.19-.24-.17-.51-.37-.38-.34.19.12.36.23.51.33.15.11.28.21.4.3.12.09.23.17.33.26.1.08.18.16.26.23.16.15.3.28.43.42.13.14.25.28.4.45.17.2.01.1-.22-.09-.12-.09-.25-.21-.37-.31-.13-.1-.24-.18-.3-.23-.8-.79-2.15-1.78-3.78-2.46l-.46-.16-.46-.14c-.19-.1-.31-.18-.4-.25-.09-.06-.16-.12-.25-.18-.18-.12-.45-.27-1.21-.49l.43.21c-.34-.08-.55-.14-.71-.19.31.13.64.26.95.39.31.15.62.28.89.42-.44-.09-1.03-.33-1.68-.57-.65-.25-1.35-.49-1.99-.65.06.03.5.14.63.21-.95-.22-1.92-.44-2.86-.61-.93-.16-1.82-.27-2.58-.3-.32.02,0,.04.35.06.36.03.75.07.59.11-.79-.09-1.69,0-1.9-.09.09.03.02.05-.11.05-.07,0-.15,0-.23,0-.08,0-.17,0-.25.01-.31.02-.47.02.28.05-1.42.06-2.91.21-4.39.45-1.48.24-2.95.6-4.33,1.03.15-.01.16.02.05.08.23-.08.49-.16.76-.24.27-.08.55-.15.81-.22.53-.13,1.02-.22,1.29-.24-.6.2-1.48.3-1.64.39.32-.07.94-.23.97-.18-.2.07-.37.13-.54.17-.16.05-.31.09-.45.12-.29.06-.55.12-.83.21l.29-.13c-.22.06-.4.11-.55.15-.15.04-.27.07-.38.1-.21.05-.34.07-.47.1-.26.06-.54.13-1.43.52-.62.36.03.05.08.14-.22.08-.66.28-1.09.5-.22.11-.44.21-.63.31-.19.09-.36.16-.48.19.17-.09.35-.18.52-.27.17-.09.35-.18.53-.26-.76.33-1.45.69-1.96.95.06-.01.11-.02.27-.09-.59.28-1.3.73-1.62.85l-.1.18c.15-.13.48-.34.79-.53.32-.19.62-.35.72-.37-.06.12-1.1.67-1.53.96.97-.6,1.5-.83,1.98-1.06.49-.22.92-.43,1.78-.86l-.31.11c1.05-.59,2.25-.93,3.23-1.28-.27.12-.32.17-.18.14,1.08-.42,2.18-.75,3.33-1.02,1.16-.26,2.37-.47,3.68-.62l.8.04.05-.08c.64-.05.71-.02.72,0,0,.01,0,.03.04.04.04.01.13,0,.34.01-.16,0-.22,0-.26,0-.03,0-.03-.01-.07-.02.18,0,.34.02.47.02.13,0,.23,0,.31,0,.16,0,.25-.01.31-.02.13-.02.17-.06.59-.04-.4-.09-1.62-.05-1.24-.15.37.03.8.04,1.23.06.43.02.87.05,1.26.1.79.09,1.41.22,1.5.32,1.37.17,2.88.53,4.28,1.03,1.41.49,2.69,1.13,3.68,1.71.29.13-.16-.12-.04-.08.37.27,1.04.65,1.58,1.01.14.09.27.18.39.26.12.08.22.16.31.22.17.13.28.22.26.24.18.12.32.21.42.27.1.06.18.09.23.12.42.41.9.92,1.41,1.47l-.36-.41.05.03c.17.19.34.39.5.59l-.03-.02c.15.18.31.35.46.54.15.19.3.38.45.57.14.2.28.4.42.6.14.2.26.41.4.62.26.42.5.86.7,1.29h.5c-.47-.86-1-1.76-1.62-2.62M25.14.99c-.13-.03-.45-.09-.32-.09.29.06.59.13.88.2-.18-.04-.81-.2-.56-.1M32.52,3.6c-.14-.1-.32-.2-.49-.3-.17-.09-.33-.18-.44-.22.1.1.55.35.72.47-.18-.08-.4-.2-.62-.34-.23-.13-.46-.27-.66-.39-.2-.12-.38-.2-.47-.24-.1-.03-.13-.01-.04.1-.07-.04-.18-.1-.31-.18-.12-.07-.26-.15-.38-.21-.24-.13-.4-.22-.21-.17.2.09.45.19.71.32.26.12.55.25.82.39.55.26,1.06.55,1.37.7.04,0,.11.04.24.12-.04-.02-.13-.06-.24-.12-.04,0-.04.02.01.07.11.08.2.14.23.19-.1-.06-.18-.13-.23-.19M38.74,10.44c-.02-.05-.02-.06,0-.05l-.15-.32c.25.39.29.49.28.48-.02,0-.09-.13-.13-.16.06.13.11.26.16.39-.09-.18-.14-.29-.16-.34"/>
  <path class="cls-2" d="M6.65,22.84s0,0,0,0c0,0,0,0,0,0"/>
  <path class="cls-2" d="M10.85,8.22s0,0,0,0c0,0,0,0,0,0h-.02Z"/>
  <path class="cls-2" d="M37.96,29.48c-.2.33-.24.35-.38.57-.17.26-.35.5-.48.72-.24.31.55-.64-.07.25-.11.02-.32.29-.53.57-.05.07-.11.13-.15.2-.05.06-.1.12-.15.16-.09.09-.17.15-.22.14-.09.13-.18.26-.28.38l-.3.37-.2.09c-.1.18-.22.31-.34.43-.12.12-.25.23-.38.34-.14.11-.3.22-.47.36-.08.07-.17.14-.27.22-.1.08-.2.17-.31.27.06-.03.16-.1.12-.05-.16.11-.4.32-.56.41-.15.1-.2.12.06-.1-.13.09-.33.24-.55.41-.22.16-.48.32-.68.46-.1.07-.2.13-.27.18-.08.05-.13.09-.16.11-.06.05-.01.04.21-.07-.08,0,.68-.45,1-.66,0,.02-.05.07-.12.14-.08.06-.18.14-.29.22-.22.16-.46.34-.54.43-.03,0-.15.06-.23.1l-.09.11c-.26.14-.54.27-.8.4-.26.14-.53.25-.78.37-.25.12-.51.21-.74.3-.12.04-.23.09-.35.12-.11.03-.22.06-.33.08-.02.02-.08.05-.18.1-.1.04-.24.1-.44.16l-.04-.08-.6.18-.61.15h.61c-.17.03-.33.08-.49.11-.16.04-.31.07-.46.09-.15.02-.3.04-.44.07-.07,0-.14.02-.21.03-.07,0-.14.01-.21.02-.56.05-1.09.06-1.65.08-.14.08-.7.1-1.33.06-.08,0-.16,0-.24-.01-.08,0-.16-.02-.25-.02-.16-.02-.33-.03-.49-.04-.32-.03-.62-.06-.87-.06.29.05.58.11.88.15-.24-.02-.45-.06-.64-.08-.19-.03-.37-.04-.52-.08-.16-.03-.31-.05-.45-.08-.14-.02-.27-.04-.4-.07-.13-.03-.26-.06-.4-.09-.07-.02-.14-.03-.21-.05-.07-.02-.14-.04-.22-.06-.15-.04-.31-.09-.48-.14-.17-.06-.36-.12-.57-.2.18.05.34.1.48.14.14.04.27.07.39.1.24.06.44.11.67.16.23.05.48.1.81.14.16.02.35.05.56.08.21.02.45.03.72.05-1.09-.09-2.01-.32-2.89-.6-.88-.28-1.72-.61-2.64-1,.1.09.55.33.09.15-.08-.06-.23-.14-.4-.23-.17-.09-.36-.19-.53-.29-.34-.19-.59-.35-.44-.31-.28-.14-.44-.22-.59-.28-.14-.06-.26-.1-.42-.21-.55-.43-1.06-.9-1.55-1.4.01.02.02.04.03.06-1.37-1.13-2.33-2.53-2.98-4.04-.32-.76-.56-1.55-.75-2.36-.02-.1-.05-.2-.07-.31l-.03-.15-.03-.16c-.04-.21-.07-.42-.11-.63-.03-.21-.06-.43-.08-.64-.03-.22-.04-.43-.07-.65l-.05.07c0-.15,0-.3.01-.45l.02-.29c-.03.35-.06-.46-.1-.51.04-.38.05-.76.11-1.14.03-.19.05-.38.08-.57l.1-.56c-.04-.06-.16.06-.21.63.01-.22.04-.44.07-.65.02-.11.03-.22.05-.32.02-.11.05-.21.07-.32.05-.21.1-.42.15-.62.06-.2.11-.39.15-.58l-.1.24c.07-.24.14-.5.22-.73h-.06c.17-.61.4-1.28.64-1.83.24-.55.49-.99.65-1.17l-.16.08c.24-.38.49-.74.77-1.09-.16.2-.32.4-.47.61.38-.65.95-1.41,1.48-2.01.53-.6,1.01-1.07,1.12-1.19l-.12.08c.16-.2.31-.32.51-.51l-.18.11c.38-.4.7-.74.98-1.07.27-.34.51-.65.69-1.08.08-.21.15-.46.13-.74,0-.14-.04-.28-.09-.41-.05-.13-.12-.25-.2-.36-.16-.22-.35-.4-.57-.56-.22-.16-.45-.31-.72-.46l-.06-.04h-.09c-.11-.03-.25-.05-.39-.06-.69-.07.34.06.39.09h.01s-.01,0-.01,0c-.39,0-1.27-.14-1.47-.19h-.04s0,0-.01,0c0,0,0,0,.01,0h.04c.21.11,1.27.21.44.18-.55-.1.27.1-.47.01h-.01s0,0,0,0c-.05,0-.11,0-.18,0l-.42-.11c-.3.02-.33.05-.4.07-.07.02-.19.04-.65.09-.27.01-.32.02-.28,0,.04-.02.18-.05.31-.08.12-.03.22-.05.19-.06-.02,0-.07,0-.17,0-.1,0-.26.02-.47.05-.11.02-.22.04-.33.07-.11.03-.22.06-.34.1-.23.07-.47.17-.73.26-.52.21-1.12.47-1.89.79-.63.34-.44.3-.32.27.06-.01.1-.02.02.03-.08.05-.29.15-.72.39.38-.18.76-.36,1.15-.51-.14.08-.16.11-.24.17-.08.06-.22.13-.59.32-.13.05-.31.12-.51.22-.1.05-.21.1-.31.16-.1.06-.21.12-.3.18.4-.23.52-.27.5-.24-.02.03-.19.15-.36.28-.17.13-.34.26-.37.3s.06,0,.44-.2c-.18.11-.36.22-.53.34.07-.04.09-.04.06-.01-.23.15-.46.32-.69.48.11-.07.26-.16.41-.26.15-.1.31-.19.44-.27.26-.15.41-.22.19-.03-.33.22-.66.46-.99.69.3-.13-.05.14.04.14.5-.32,1-.63,1.51-.92.51-.29,1.03-.55,1.55-.78-.14.02-.59.23-.45.11.2-.12.35-.18.47-.23.12-.05.2-.08.29-.11.09-.03.17-.06.28-.1.11-.05.25-.1.45-.19-.12.03-.25.05-.37.09.07,0,.19-.05.01.03-.27.15-.41.16-.42.13.06-.04.16-.09.28-.15.06-.03.12-.05.19-.08.07-.02.14-.05.2-.07.27-.1.55-.15.68-.17,1.08-.3.19-.17.43-.25.29-.02.75-.11,1.23-.19.48-.07.98-.12,1.33-.1l-.23-.03-.23-.02c.07-.01.15-.02.22-.03.07,0,.14-.01.21-.02.14,0,.27-.01.4-.02.52.06.97.14,1.31.2l-.19-.08c.1.01.19.02.27.03.4.21.72.39.93.61.11.12.19.25.22.38.02.14,0,.27-.1.41.02-.03.04-.06.06-.08-.02.18-.14.44-.31.69-.17.24-.38.47-.56.63.01.02-.02.11-.16.26-.24.15-.57.56-1.07,1.13.36-.35.32-.17.7-.53-.36.45-.56.63-.76.78-.19.15-.38.28-.7.65-.17.24-.08.15.08-.01.15-.16.37-.39.43-.43-.53.54-.98,1.18-1.35,1.78-.38.6-.68,1.15-1,1.52.08-.2.17-.4.27-.6-.35.5-.49.8-.44.74.09-.17.13-.22.18-.28-.39.82-.7,1.46-.98,2.13-.14.33-.27.67-.38,1.04-.05.18-.1.38-.15.58-.05.2-.1.41-.14.64.06-.13.13-.38.16-.39-.04.21-.07.36-.11.49-.04.13-.08.25-.13.38-.1.26-.18.59-.23,1.28.02-.09.05-.17.08-.26-.02.23-.04.43-.07.56-.02.1-.04.16-.05.17.04.03.04.21.03.48,0,.14,0,.31,0,.5,0,.09,0,.19,0,.29,0,.1,0,.2,0,.31,0,.84.12,1.8.29,2.25,0,.17.03.41.06.7.01.14.04.29.07.44.03.15.06.31.09.47.08.31.16.62.25.88.09.26.18.47.24.61.21.37.16.19.09-.05-.06-.25-.15-.55-.05-.42.06.15.1.29.14.42.05.13.09.26.14.4.05.14.1.28.18.45.08.16.17.35.29.56-.04.03-.3-.38-.45-.59-.07-.11-.12-.17-.1-.09,0,.08.1.29.3.71.05.07.11.14.17.21-.03-.04-.05-.09-.08-.13-.03-.05-.06-.1-.09-.16-.06-.11-.12-.23-.18-.35-.19-.51.2.26.28.36.07.15.16.29.23.44.08.14.16.29.25.43.18.28.35.57.55.83,0,.04-.04.02-.11-.05-.06-.07-.16-.17-.24-.3-.17-.24-.35-.52-.39-.57.42.67.97,1.36,1.56,1.98.59.62,1.22,1.17,1.77,1.66l-.08-.12c.18.15.32.28.45.38.13.1.23.17.32.23.18.12.29.17.39.22.1.05.2.09.33.18.07.04.15.1.25.17.1.07.22.16.37.27.34.19.3.12.29.09,0-.03.03-.04.55.23.29.15.11.1.05.08.32.16.52.26.66.31.14.06.21.07.28.1.07.02.14.04.26.09.06.03.14.06.23.11.1.04.22.1.37.17l-.23-.2c.51.23,1.03.44,1.56.63-.08-.02-.17-.04-.27-.06-.2-.05-.43-.11-.64-.17-.42-.12-.76-.22-.71-.15.58.07,1.37.42,1.75.43.18.06.35.12.53.18.19.06.38.11.56.17.19.05.37.09.56.13.37.09.73.13,1.07.17-.04-.05-.27-.09-.53-.14-.13-.02-.27-.06-.39-.09-.12-.03-.24-.07-.32-.1.11.03.23.06.35.09.12.03.24.06.36.08.25.04.51.09.77.12.27.02.54.05.81.07.27.01.55.01.82.02,1.1,0,2.17-.14,3.03-.25-.5.17.84,0-.25.27-.3-.07-.81.09-1.41.12.49.09,1.5-.08,2.4-.31.45-.13.87-.25,1.2-.36.16-.05.31-.09.42-.11.11-.02.19-.04.24-.03l.21-.16c.13-.04.36-.1.5-.14.14-.04.2-.04-.01.07.29-.13.59-.26.88-.4.28-.15.57-.29.85-.45-.15.07-.36.14-.58.22-.11.04-.22.09-.34.13-.12.04-.24.08-.35.12-.23.08-.46.17-.65.23-.19.07-.35.13-.45.19-.54.1.71-.32.23-.25.31-.07.51-.15.65-.2.14-.06.23-.11.32-.16.04-.03.09-.05.14-.08.05-.03.1-.07.17-.11.14-.08.33-.18.63-.31-.12.09-.1.11,0,.09.09-.02.26-.09.44-.17.37-.15.77-.38.76-.34.18-.12.48-.29.77-.48.15-.09.29-.18.42-.25.13-.08.24-.15.32-.2.32-.22.8-.63,1.31-1.1.25-.24.52-.48.76-.73.12-.12.25-.24.37-.36.12-.12.23-.24.34-.35-.09.08-.18.17-.28.26-.1.09-.21.17-.3.25-.19.15-.33.24-.33.2.11-.1.23-.2.34-.3.11-.1.21-.2.29-.3.17-.19.28-.35.29-.42-.19.18-.34.33-.46.45-.12.12-.21.2-.28.27-.13.14-.17.22-.2.29-.06.14-.1.28-.86.88-.22.11-.43.25-.69.43-.13.09-.28.18-.44.29-.08.06-.17.11-.26.18-.09.06-.19.12-.29.19.34-.3.16-.21.27-.37.14-.07.28-.15.42-.24.07-.04.15-.09.22-.14.07-.05.15-.11.22-.16.15-.11.3-.23.46-.36.15-.13.3-.27.45-.41.08-.07.15-.14.23-.21.08-.07.15-.15.22-.22.15-.15.3-.3.45-.45.14-.16.29-.31.43-.46.07-.07.14-.15.21-.22.07-.07.14-.15.2-.22.47-.48.28.02,1.2-1.19-.11.19-.24.36-.36.54-.12.18-.24.36-.38.53.11-.14.19-.25.26-.34.07-.09.11-.15.15-.2.07-.09.1-.11.13-.13.03-.01.05-.02.11-.08.03-.03.07-.07.13-.14.05-.07.12-.16.21-.28-.11.12-.21.24-.33.35.21-.3.34-.51.47-.67.13-.17.23-.3.36-.46l-.21.23c-.07.08-.15.15-.22.22.11-.16.25-.4.38-.6.13-.19.23-.34.26-.33.03-.1.03-.14.01-.15.05-.05.06-.06.23-.36h-.78ZM9.36,8.44l.04-.11c.16.02.31.03.47.06-.17,0-.34.03-.5.05M11.38,8.42c-.22-.02-.39-.03-.53-.05-.6,0-.59-.07-.69-.12-.16,0-.26-.02-.26-.04.16,0,.22.02.26.04.18,0,.42.02.7,0,.15.01.3.03.45.03-.05-.04-.24-.06-.45-.08-.06,0-.12,0-.18,0,.05,0,.12,0,.19-.01.19.01.43.03.7.07-.45.04-.13.07-.18.14M12.51,7.91h-.03s.03,0,.03,0c0,0,0,0,0,0,0,0,0,0,0,0M13.44,9.55c-.03-.15-.11-.31-.29-.47.02.06,0,.02.15.24-.11-.16-.26-.3-.44-.43-.14-.13-.21-.2-.23-.23-.02-.03.03-.02.11.03.16.08.48.29.67.58.02.01.07.05.13.16.05.1.05.21.04.32,0,.14-.02.27-.02.33-.01.02-.03.04-.04.06.02-.15.05-.27.06-.39,0-.16-.06-.33-.17-.48-.06-.03.01.11.04.28,0,.08,0,.18,0,.26-.02.08-.04.15-.06.19.05-.15.08-.28.06-.43M11.87,11.94c.14-.15.73-.75.59-.53-.2.18-.39.35-.59.53M11.15,13.7c.12-.09.21-.15.41-.36-.23.3-.35.41-.47.51-.12.1-.24.19-.47.46.27-.39.42-.52.53-.62M10.64,14.19c-.06.11-.37.51-.61.82.29-.49.36-.53.61-.82M7.86,18.01c.12-.3.29-.62.41-.89.14-.16-.09.24-.13.44-.18.38-.33.76-.47,1.15-.02-.13.07-.4.2-.7M7.31,28.43s-.03-.09-.05-.14c-.01-.05-.03-.1-.04-.14-.02-.1-.05-.19-.07-.28-.04-.18-.07-.33-.06-.42.04.18.09.35.13.53.04.17.08.34.14.49.1.3.17.53.22.61-.02.05-.15-.27-.28-.64M10.84,33.94c-.05-.05-.09-.1-.12-.14-.07-.08-.1-.13-.13-.18-.03-.05-.05-.1-.09-.16-.04-.06-.1-.13-.19-.24.08.1.17.19.26.28.13.09.03-.03-.09-.17-.12-.15-.26-.34-.26-.39.08.08.17.19.27.31.1.11.2.23.29.33.17.2.27.33.13.2-.67-.68.24.41-.21-.03l.17.18.18.17c-.08-.07-.14-.12-.2-.17M12.21,34.94c-.22-.2-.38-.33-.53-.45-.07-.06-.15-.12-.22-.19-.07-.07-.13-.16-.2-.26.12.09.22.17.32.26.09.08.18.16.25.24.07.08.14.15.2.22.06.07.12.13.18.2.04.03.07.06.11.1-.04-.03-.07-.07-.11-.1M28.13,37.62c-.26.11-.44.2-.52.17l.26-.08c.09-.03.17-.06.26-.09.1-.04.21-.08.33-.11l-.33.11Z"/>
  <path class="cls-2" d="M10.83,8.37s.01,0,.02,0h.01-.03Z"/>
  <path class="cls-2" d="M10.03,14.07c-.32.39-.62.8-.91,1.22.15-.25.25-.39.3-.48.06-.09.08-.12.11-.15.06-.06.11-.13.49-.59"/>
  <path class="cls-3" d="M2.72,5.77c-.06.03-.14.09-.21.13.18-.14.27-.21.21-.13"/>
  <path class="cls-3" d="M.21,7.86c.28-.33.67-.71,1.09-1.06.42-.35.86-.67,1.22-.89-.29.23-.82.69-1.28,1.11-.47.42-.86.82-1.03.85"/>
  <path class="cls-3" d="M3.07,5.98c-.29.18-.58.37-.87.57.44-.42.42-.27.87-.57"/>
  <path class="cls-3" d="M2.63,6.03v-.1c.16-.09.33-.18.49-.26-.17.12-.33.24-.49.36"/>
  <path class="cls-3" d="M25.78.89c.11.05.21.09.32.15-.15-.05-.25-.09-.32-.15"/>
  <path class="cls-3" d="M5.01,4.1c.29-.17.39-.17.47-.16-.17.07-.33.13-.47.16"/>
  <path class="cls-3" d="M3.38,10.46l-.11.07s.08-.06.11-.07"/>
  <path class="cls-3" d="M11.65,10.48s-.11.07-.15.09c.06-.09.12-.11.15-.09"/>
  <path class="cls-3" d="M10.18,12.2c.14-.18.25-.29.34-.37-.1.12-.22.25-.34.37"/>
  <path class="cls-3" d="M30.07,35.28s.06-.1.15-.16c0,.02-.04.07-.15.16"/>
  <path class="cls-3" d="M31.66,34.33s.04-.03.06-.04c.02,0,.04-.02.05-.03l-.11.07Z"/>
  <path class="cls-3" d="M5.41,3.69c-.41.05.31-.21.59-.35-.27.14-.33.3-.59.35"/>
  <path class="cls-3" d="M33.01,4.14c-.09-.09-.35-.28-.32-.34l.38.29c.13.1.25.19.37.3.27.28-.27-.16-.44-.26"/>
  <path class="cls-3" d="M35.34,6.77c.12.14.2.23.26.28.06.05.09.07.12.07.05.01.08,0,.18.16l-.19.09-.18-.3-.09-.15-.1-.15Z"/>
  <path class="cls-3" d="M34.29,7.15l-.12-.17c.05.06.1.12.15.18h-.03Z"/>
  <path class="cls-3" d="M37.56,9.66c-.01-.19-.04-.38-.06-.57.07.15.11.27.13.35.02.09.02.16.01.2-.01.08-.07.08-.09.02"/>
  <path class="cls-3" d="M5.89,3.64c.8-.34,1.08-.55,1.46-.74-.21.09-.44.19-.68.31-.24.12-.5.27-.78.43"/>
  <path class="cls-3" d="M15.96.39c-.14,0-.28,0-.44.04.12-.02.28-.03.44-.04"/>
  <path class="cls-3" d="M34.34,29.48c-.05.06-.2.33-.25.39-.05.05-.1.1-.15.14-.1.08-.19.12-.26.08-.08.12-.15.25-.23.37l-.25.36-.25.03c-.06.19-.16.32-.27.44-.11.11-.23.2-.37.29-.14.09-.3.17-.46.29-.08.06-.16.13-.26.2-.09.07-.18.15-.28.25.07,0,.17-.07.14-.02-.29.21-.95.67-.5.22-.12.08-.3.22-.51.37-.2.14-.44.29-.62.42-.38.25-.6.4-.17.25-.1-.04.62-.41.92-.6.01.04-.02.09-.09.16-.07.07-.16.14-.26.22-.2.16-.41.34-.46.45-.03,0-.15.04-.23.06l-.06.14c-.25.12-.51.22-.76.34-.24.12-.49.22-.73.33-.23.11-.47.19-.69.26-.22.08-.44.12-.64.14-.01.03-.06.07-.15.11-.09.05-.22.1-.4.15l-.07-.17-.55.17-.55.14.59.12c-.15.04-.3.08-.45.12-.14.03-.29.06-.43.08-.14.02-.28.03-.41.04-.07,0-.13,0-.2.01-.07,0-.13,0-.2,0-.52,0-1-.03-1.51-.02-.12.15-.63.16-1.21.1-.07,0-.15-.01-.22-.02-.07,0-.15-.02-.22-.03-.15-.02-.3-.03-.45-.04-.29-.02-.57-.04-.8,0,.26.06.53.13.8.18-.22-.02-.41-.06-.58-.08-.18-.02-.34-.04-.48-.07-.29-.05-.54-.07-.78-.12-.12-.02-.24-.05-.37-.07-.06-.01-.13-.03-.19-.04-.06-.02-.13-.03-.2-.05-.14-.04-.28-.08-.44-.13-.16-.05-.33-.12-.52-.2.17.04.32.08.45.11.13.03.25.06.36.08.22.05.41.1.62.13.21.03.44.08.75.1.15.01.32.02.51.04.19,0,.41,0,.66,0-.25-.02-.49-.03-.72-.07-.23-.04-.45-.08-.67-.13-.22-.05-.43-.11-.64-.17-.21-.06-.41-.13-.61-.19-.8-.27-1.55-.59-2.4-.9.08.12.48.36.04.23-.06-.07-.19-.16-.35-.24-.15-.09-.32-.18-.48-.27-.31-.17-.54-.32-.37-.33-.26-.11-.43-.16-.57-.19-.14-.03-.27-.05-.42-.14-.48-.43-.92-.89-1.33-1.36,0,.02.01.04.02.06-.66-.47-1.2-1.04-1.65-1.65-.45-.62-.79-1.29-1.06-1.98-.27-.7-.45-1.42-.6-2.15-.02-.09-.04-.18-.06-.28l-.03-.14-.02-.14c-.03-.19-.06-.38-.09-.57-.02-.19-.05-.38-.08-.58-.03-.19-.04-.39-.07-.59l-.09.07c.02-.14.02-.27.05-.41l.04-.26c-.07.33-.11-.41-.19-.46.05-.35.08-.69.16-1.04l.1-.51.12-.51c-.08-.06-.29.04-.32.56,0-.2.02-.4.06-.6.02-.1.03-.2.06-.3.03-.1.05-.19.08-.29.06-.19.11-.38.17-.56.06-.18.12-.35.16-.52l-.14.21.11-.34c.04-.11.08-.22.12-.33l-.12-.02c.17-.54.37-1.15.59-1.65.22-.5.45-.89.64-1.03l-.23.02c.24-.33.5-.65.76-.95-.17.17-.33.34-.49.51.33-.6.87-1.28,1.37-1.83.5-.54.96-.96,1.07-1.08l-.14.05c.13-.2.3-.3.49-.47l-.21.07c.36-.37.67-.7.93-1.03.13-.17.26-.34.38-.52.12-.19.23-.38.32-.63.09-.24.17-.54.14-.89-.01-.17-.05-.34-.12-.51-.06-.16-.15-.31-.24-.43-.19-.26-.4-.45-.63-.62-.23-.17-.46-.32-.72-.48l-.11-.06-.18-.03c-.11-.02-.23-.04-.37-.06-.66-.05.32.07.36.13h.01s-.02,0-.02,0c-.37.04-1.2-.13-1.39-.2h-.08s0,0,0,0c0,0,0,0,0,0h.08c.19.19,1.2.26.4.3-.51-.14.25.15-.45.08h-.02s-.02,0-.02,0c-.05,0-.11,0-.17,0l-.41-.21c-.29.03-.31.08-.38.12-.07.04-.18.07-.63.11-.26,0-.31,0-.27-.04.04-.04.17-.08.29-.12.12-.04.21-.07.18-.09-.02,0-.07-.01-.17,0-.1,0-.25.01-.46.04-.11.02-.21.04-.32.08-.11.04-.21.08-.32.12-.22.09-.44.21-.69.33-.49.26-1.05.54-1.79.83-.59.35-.39.35-.26.35.06,0,.11,0,.04.06-.07.05-.27.15-.68.37.37-.15.74-.3,1.12-.42-.12.09-.13.14-.2.21-.07.07-.2.14-.55.31-.26.05-.74.2-1.11.43.39-.2.51-.22.5-.18-.01.05-.16.17-.31.31-.15.13-.3.27-.32.33-.02.06.09.04.45-.12-.17.1-.33.21-.5.31.07-.03.09-.03.07,0-.22.15-.43.3-.64.45.11-.06.25-.14.39-.23.15-.08.3-.17.42-.23.25-.13.4-.17.22.04-.31.21-.61.44-.91.66.32-.07,0,.2.11.24.47-.29.95-.56,1.43-.81.48-.25.96-.46,1.44-.65-.14-.02-.56.15-.45,0,.18-.11.31-.17.42-.21.11-.04.19-.06.27-.08.08-.02.16-.04.26-.07.1-.04.22-.09.4-.18-.12.01-.24.02-.35.03.07,0,.18-.02.02.05-.23.16-.37.14-.39.09.05-.05.14-.11.24-.16.05-.03.11-.05.17-.08.06-.02.12-.04.19-.06.25-.08.51-.11.63-.11.48-.14.52-.2.46-.25-.06-.04-.21-.06-.11-.11.28.03.69-.05,1.13-.13.43-.07.89-.13,1.21-.09l-.21-.06-.21-.05c.25-.07.51-.09.74-.1.48.06.9.17,1.21.23l-.18-.13c.07,0,.15.02.21.02.33.16.59.28.76.43.09.08.15.18.14.26,0,.08-.05.15-.17.22.03-.01.06-.02.08-.04,0,.05-.02.13-.05.23-.04.1-.09.21-.17.31-.14.22-.34.43-.53.55.03.04.02.13-.1.28-.28.09-.54.52-1.02,1.06.35-.32.39-.08.77-.41-.31.46-.52.61-.73.73-.21.12-.43.2-.74.56-.15.25-.04.17.11.02.16-.15.37-.36.44-.38-.52.5-.91,1.14-1.23,1.73-.33.59-.6,1.12-.98,1.43.06-.2.13-.4.2-.6-.37.45-.51.74-.44.69.08-.17.14-.21.2-.25-.33.81-.66,1.4-.97,2.03-.15.31-.3.63-.42.98-.06.18-.11.36-.16.55-.05.19-.1.39-.13.61.09-.12.17-.35.23-.35-.03.2-.07.34-.12.47-.05.12-.12.23-.18.35-.14.24-.25.55-.26,1.22.03-.08.08-.16.12-.25,0,.22-.04.41-.08.53-.03.1-.06.15-.08.16.07.03.09.21.09.47,0,.14,0,.3,0,.48,0,.09,0,.18,0,.28,0,.1,0,.2,0,.3,0,.81.13,1.72.4,2.14-.02.16-.02.4,0,.67,0,.14.02.28.04.43.02.15.04.3.07.45.07.3.14.6.22.85.09.25.17.45.25.58.25.34.22.15.18-.09-.03-.24-.09-.54.05-.43.05.14.09.28.12.41.04.13.07.25.11.39.04.13.08.28.15.43.07.16.16.33.28.53-.08.05-.36-.32-.55-.51-.09-.1-.15-.14-.15-.06,0,.08.07.29.25.71.07.06.14.12.21.18-.05-.08-.12-.17-.18-.27-.06-.1-.12-.22-.17-.34-.14-.51.25.23.34.31.06.15.15.28.22.42.08.14.15.28.23.42.17.27.33.55.51.81-.03.11-.22-.06-.39-.29-.17-.23-.35-.5-.4-.54.42.65.98,1.29,1.57,1.86.59.58,1.2,1.09,1.71,1.58l-.06-.14c.16.15.3.28.42.37.12.09.23.16.31.21.18.1.29.14.4.17.11.03.2.06.34.14.07.04.14.1.23.17.09.07.2.17.33.29.33.17.3.08.31.04,0-.05.05-.07.54.18.28.14.08.12.02.12.3.16.49.25.62.3.13.05.21.06.28.07.07.01.13.03.25.08.06.03.13.06.22.11.09.05.2.1.34.18l-.18-.28c.6.3,1.22.61,1.85.87-.1-.02-.23-.05-.36-.09-.19-.06-.41-.13-.6-.19-.39-.13-.72-.23-.69-.11.33,0,.67.15.99.26.3.12.56.21.74.16.05.02.09.04.14.06.18.07.35.13.53.19.18.06.35.1.53.15.35.1.69.14,1.02.16-.03-.08-.25-.15-.49-.21-.12-.03-.25-.07-.37-.11-.12-.04-.22-.08-.29-.13.1.04.21.07.32.11.11.04.22.07.34.09.23.05.48.1.73.14.25.03.51.05.77.07.26.02.52.01.79.02,1.05,0,2.07-.15,2.89-.22-.23.11-.03.15.11.2.14.05.21.11-.31.26-.31-.16-.78.05-1.36.07.48.19,1.46,0,2.32-.24.43-.14.83-.27,1.15-.37.16-.05.3-.08.41-.1.11-.01.19-.01.24.02l.18-.23c.12-.03.35-.08.5-.09.14-.02.21,0,0,.11.28-.14.56-.27.84-.41.27-.15.55-.29.81-.45-.16.06-.36.1-.58.17-.11.03-.22.06-.34.1-.12.03-.23.06-.35.09-.23.06-.45.14-.63.2-.19.06-.34.13-.42.21-.54.02.66-.36.17-.38.31-.04.5-.1.64-.15.14-.05.22-.11.29-.17.04-.03.08-.06.12-.1.04-.04.09-.08.16-.12.13-.09.31-.19.59-.31-.1.11-.07.15.03.15.1,0,.27-.06.45-.12.37-.12.77-.31.77-.25.17-.13.46-.28.75-.45.14-.08.29-.15.42-.22.13-.07.24-.13.33-.16.31-.21.77-.62,1.24-1.08.23-.24.49-.47.72-.72.12-.12.23-.24.35-.35.11-.11.22-.23.33-.33-.09.07-.19.15-.29.23-.1.08-.21.15-.31.21-.2.12-.35.19-.38.12.23-.17.47-.37.62-.55.16-.19.25-.35.22-.45-.2.16-.35.29-.47.4-.12.11-.2.19-.26.26-.12.14-.13.23-.15.32-.02.18-.02.35-.78.89-.24.07-.46.18-.72.33-.13.07-.28.16-.43.26-.08.05-.16.1-.25.16-.09.06-.18.11-.29.17.29-.33.11-.26.17-.47.14-.04.29-.1.43-.18.07-.04.15-.08.22-.12.07-.04.14-.09.22-.14.14-.1.29-.21.44-.33.14-.12.28-.26.43-.39.07-.07.14-.14.22-.2.07-.07.14-.14.21-.21.14-.14.28-.29.42-.43.13-.15.27-.29.41-.43.07-.07.14-.13.21-.2.07-.07.14-.13.21-.2.49-.41.41.14,1.31-1-.1.19-.22.36-.32.54-.11.18-.22.36-.34.53.1-.14.18-.25.24-.34.06-.09.11-.15.14-.19.07-.09.11-.1.14-.11.04,0,.07,0,.14-.05.04-.03.08-.06.14-.13.06-.06.13-.15.21-.26-.12.1-.24.2-.37.29.2-.29.33-.49.45-.65v-.03s-.62,0-.62,0h-1.24ZM8.97,8.36l.02-.21c.15.05.29.1.44.15-.16.01-.31.03-.46.06M10.81,8.35c-.19,0-.35-.02-.48-.03-.54,0-.53-.14-.63-.24-.15-.02-.24-.06-.25-.1.15.01.21.05.25.1.16.02.4.04.65.03.13.01.27.02.4.01-.04-.08-.22-.08-.41-.1-.06,0-.11,0-.17,0,.05,0,.11-.01.18-.02h-.03c.18,0,.41,0,.68.06-.43.12-.13.15-.19.29M12.36,8.84c0,.06-.03.05.09.2-.08-.11-.21-.23-.37-.34-.1-.13-.16-.21-.17-.25,0-.04.04-.04.12-.01.15.06.45.23.63.47.03,0,.08.02.15.12.05.09.04.18.01.27.02.12,0,.23.01.29-.02.02-.04.03-.05.05-.01-.15.02-.24.04-.34-.01-.13-.07-.27-.17-.39-.08,0-.04.13-.06.25,0,.06-.02.12-.05.17-.03.05-.05.1-.08.12.05-.1.09-.18.09-.28,0-.1-.06-.23-.22-.34M11.12,11.21c.13-.15.69-.69.61-.45l-.61.45ZM10.92,13.31c.13-.07.24-.1.43-.29-.2.3-.31.39-.44.47-.13.08-.27.14-.49.38.23-.38.38-.49.5-.57M10.4,13.72c-.03.12-.32.49-.55.76.23-.48.3-.51.55-.76M6.49,24.7s.04-.08.05-.19c0-.11,0-.25,0-.4,0-.15-.01-.3-.01-.42s0-.21,0-.25c.08-.1.11-.04.13.09.01.07.02.16.03.25.02.1.04.2.08.31-.03-.12-.07-.04-.09.14-.01.09-.02.21-.02.33,0,.13.02.26.05.4l-.22-.27ZM6.86,27s-.03-.09-.05-.13c-.01-.05-.03-.09-.04-.14-.03-.09-.05-.18-.06-.27-.03-.17-.05-.32-.02-.41.04.17.09.34.13.5.04.16.08.32.13.46.1.28.17.5.24.57-.04.05-.19-.23-.33-.58M7.25,17.75c-.07-.14.02-.4.15-.68.13-.28.31-.58.41-.84.18-.13-.07.24-.07.44-.18.35-.34.71-.49,1.08M8.19,26.99c-.04-.23-.09-.45-.12-.68l.04.05c.01.11.03.23.06.34l.06.34-.04-.04ZM10.62,31.81c-.32-.3-.28-.19-.22-.05.06.14.15.31-.07.11l.16.17.17.16c-.08-.05-.14-.1-.2-.15-.05-.05-.09-.09-.12-.13-.06-.07-.08-.13-.1-.19-.02-.06-.03-.11-.06-.17-.03-.06-.08-.13-.17-.23.08.09.16.17.25.25.14.06.06-.05-.04-.19-.1-.15-.23-.33-.21-.38.07.07.16.17.25.28.09.11.18.22.26.31.15.19.23.32.1.2M11.87,32.83c-.19-.2-.34-.31-.49-.42-.07-.05-.14-.11-.2-.18-.06-.07-.11-.16-.15-.27.13.06.23.13.32.21.09.07.16.14.22.22.06.08.11.15.16.23.05.07.1.14.14.21.03.03.06.06.09.1-.03-.03-.06-.07-.09-.1M26.51,35.21c-.23.11-.39.24-.48.15l.24-.07.24-.08c.09-.04.19-.08.3-.1l-.3.1Z"/>
  <path class="cls-3" d="M6.07,21.66s0,0-.01,0c0,0,0,0,.01,0"/>
  <path class="cls-3" d="M37.72,10.84v-.03s-.02,0-.02,0c0,0,.01.02.02.03"/>
  <path class="cls-3" d="M7.83,23.34s.01-.08.02-.14l-.02.14Z"/>
  <path class="cls-3" d="M10.32,8.02s.01,0,.02,0c0,0,0,0,.01,0h-.03Z"/>
  <path class="cls-3" d="M37,10.85c.03.06.03.04,0-.03h-.05s.03.02.04.03"/>
  <path class="cls-3" d="M10.29,8.31s.03,0,.04,0c0,0,.02,0,.03,0h-.06Z"/>
  <path class="cls-3" d="M33.35,4.95c.14.09.28.19.39.28.11.1.21.18.3.25.17.14.28.2.33.09-.25-.27-.42-.46-.58-.61-.15-.14-.27-.25-.39-.36-.06-.05-.12-.1-.18-.16-.07-.05-.14-.11-.22-.18-.08-.07-.17-.14-.28-.23-.11-.09-.23-.18-.38-.29l.09.08c-.17-.09-.34-.2-.51-.32-.17-.12-.35-.24-.52-.36-.09-.06-.17-.12-.25-.17-.08-.05-.17-.1-.24-.14-.16-.08-.31-.14-.44-.16.11.13.36.24.56.35.2.11.36.22.3.32-.13-.08-.25-.17-.38-.25l-.39-.23c-.26-.16-.53-.3-.79-.44.11.1.26.2.44.3.18.11.37.23.58.34.21.11.41.24.6.35.19.12.37.23.5.34.21.14,0-.02-.21-.2-.22-.17-.47-.38-.33-.39.18.12.34.22.48.32.14.11.27.2.38.29.11.09.21.17.3.26.09.08.17.16.24.24.14.16.26.29.37.45.11.15.21.31.33.49.14.23-.03.14-.26-.03-.11-.08-.24-.19-.36-.28-.12-.09-.23-.17-.29-.22-.68-.85-1.94-1.84-3.51-2.44l-.45-.11-.46-.09c-.17-.12-.27-.21-.35-.3-.08-.09-.14-.16-.21-.25-.16-.16-.4-.34-1.13-.54l.39.26c-.19-.03-.34-.06-.46-.09-.14-.12-.26-.25-.93-.36.22.08.49.19.78.32-.03,0-.05-.02-.08-.02.29.15.59.29.88.45.29.16.57.31.81.47-.44-.02-.98-.26-1.59-.53-.6-.27-1.25-.56-1.85-.73.05.05.47.16.58.26-.9-.19-1.81-.44-2.69-.63-.88-.2-1.72-.35-2.45-.38-.31.05,0,.08.33.12.34.04.71.1.56.18-.75-.12-1.6.05-1.8-.12.08.06.02.09-.11.11-.12.01-.3.01-.45.03-.29.02-.44.02.27.11-.36.02-.73.05-1.1.08-.24-.08-.44-.2-.98-.21.18.1-.2.1-.59.11.25,0,.48.05.74.08.18.02.37.05.59.04-.92.08-1.86.17-2.8.31-1.4.2-2.81.49-4.13.87.15.02.17.08.08.16.22-.07.46-.15.72-.22.26-.07.52-.13.77-.19.51-.1.97-.16,1.24-.14-.55.25-1.41.2-1.56.33.31-.04.89-.19.94-.08-.18.08-.34.14-.5.18-.15.05-.29.08-.43.1-.27.04-.53.07-.79.15l.27-.15c-.21.05-.39.08-.53.11-.15.03-.27.05-.37.06-.2.02-.33.02-.47.03-.26.02-.53.06-1.37.45-.11.08-.17.13-.2.16-.36.08-.59.17-.8.27.31-.12.58-.21.8-.27-.13.14.27-.03.34.1-.21.06-.62.26-1.02.48-.2.1-.41.21-.59.29-.18.08-.35.14-.47.15.16-.09.33-.17.49-.26.16-.09.33-.17.5-.25-.72.29-1.38.63-1.88.84.07,0,.13.02.28-.05-.57.24-1.24.67-1.58.74l-.04.26c.13-.14.43-.35.73-.53.3-.18.59-.32.7-.31-.01.19-1.02.66-1.42.94.92-.55,1.44-.73,1.91-.92.47-.17.89-.35,1.68-.79l-.3.08c.96-.62,2.13-.83,3.05-1.16-.25.13-.28.22-.15.2.99-.43,2.03-.75,3.11-1,1.08-.25,2.22-.44,3.44-.6l.75.13.04-.15c.59-.06.66-.01.67.04,0,.03,0,.06.04.08.04.02.12.03.32.03-.15,0-.21,0-.24-.01-.03,0-.03-.02-.06-.04.09,0,.16.01.24.02.07,0,.14.01.2.02.12,0,.21.01.29.01.15,0,.23-.02.29-.05.12-.05.16-.11.55-.08-.18-.08-.56-.1-.85-.12-.29-.02-.49-.05-.31-.15.35.05.76.07,1.16.1.4.03.81.07,1.18.12.74.1,1.31.26,1.39.44,1.28.12,2.69.47,3.99.95,1.3.47,2.47,1.1,3.39,1.64.28.09-.13-.13-.02-.12.32.3.94.63,1.46.95.13.08.25.16.36.22.11.07.21.14.29.2.16.12.25.21.23.25.18.1.31.17.43.2.11.04.19.05.25.07.36.42.8.9,1.25,1.42l-.32-.4.06.02c.15.19.3.37.44.57l-.03-.02c.13.17.28.33.42.5.13.17.27.35.41.53.13.18.26.37.39.55.13.19.24.38.36.57.32.53.54.92.75,1.45.05.12.03.06,0,0h.28c-.1-.1-.18-.34-.26-.61.16.25.27.49.31.6h.7c-.62-.99-1.07-1.82-1.82-2.93-.76-1.13-1.65-2.18-2.53-2.93M23.78,1.33c-.12-.04-.41-.09-.29-.12,0,0,.24,0,.29.12M30.78,3.57c.1.08.18.15.2.2-.09-.06-.17-.14-.2-.2-.25-.19-.67-.41-.88-.48.08.12.5.36.65.49-.18-.05-.38-.17-.59-.31-.21-.13-.42-.28-.6-.4-.18-.12-.34-.21-.44-.23-.1-.02-.14.03-.08.19-.06-.05-.16-.11-.28-.19-.11-.08-.24-.16-.34-.23-.21-.14-.35-.26-.17-.23.19.09.42.18.67.3.25.11.52.23.78.36.52.24,1.02.49,1.31.61.04,0,.11.02.24.09-.05,0-.14-.05-.24-.09-.05,0-.05.05-.02.11M36.58,10.21s-.11-.11-.16-.13c.04.13.08.25.12.38-.17-.34-.16-.4-.12-.38l-.11-.31c.25.35.29.45.27.44"/>
  <path class="cls-3" d="M37.82,10.52c-.1-.25-.22-.48-.33-.67.08.22.16.44.23.67v.29s.27,0,.27,0c-.09-.22-.07-.04-.17-.28"/>
  <path class="cls-3" d="M9.4,13.26c-.31.37-.61.75-.89,1.16.28-.49.33-.55.39-.61.06-.06.13-.11.49-.54"/>
  <path class="cls-1" d="M34.93,36.03h40.56l2.05-4.62h-38.14s-1.38,2.4-4.47,4.62"/>
  <polygon class="cls-4" points="39.6 32.32 39.97 32.32 39.97 34.44 41.14 34.44 41.14 34.79 39.6 34.79 39.6 32.32"/>
  <path class="cls-4" d="M42.4,34.63h0c-.03.06-.08.1-.15.13-.07.03-.16.04-.27.04-.19,0-.34-.05-.44-.16-.11-.1-.16-.23-.16-.38s.05-.27.14-.37c.09-.1.23-.15.41-.15h.47v-.19c0-.16-.11-.23-.35-.23-.09,0-.15,0-.2.03-.05.02-.09.06-.12.11l-.27-.21c.13-.18.32-.26.58-.26.21,0,.39.04.51.13.13.09.19.24.2.45v1.2h-.34v-.16h0ZM42.4,34.04h-.41c-.2,0-.3.08-.3.21,0,.06.03.11.08.15.05.05.13.07.25.07.14,0,.25-.02.3-.05.05-.04.08-.12.08-.26v-.13h0Z"/>
  <path class="cls-4" d="M45.33,34.51c-.07.09-.16.16-.26.21-.1.06-.22.09-.35.09-.2,0-.38-.07-.53-.21-.16-.14-.24-.37-.24-.69,0-.32.09-.55.24-.7.15-.14.33-.21.53-.21.13,0,.25.03.35.08.1.06.19.13.26.22l-.25.23c-.09-.12-.2-.18-.35-.19-.29,0-.44.18-.44.55,0,.37.15.55.44.55.14,0,.26-.06.35-.18l.25.23Z"/>
  <path class="cls-4" d="M46.52,34.63h0c-.03.06-.08.1-.15.13-.07.03-.16.04-.27.04-.19,0-.34-.05-.44-.16-.11-.1-.16-.23-.16-.38s.05-.27.14-.37c.09-.1.23-.15.41-.15h.47v-.19c0-.16-.11-.23-.35-.23-.09,0-.15,0-.2.03-.05.02-.09.06-.12.11l-.27-.21c.13-.18.32-.26.58-.26.21,0,.39.04.51.13.13.09.19.24.2.45v1.2h-.34v-.16h0ZM46.52,34.04h-.41c-.2,0-.3.08-.3.21,0,.06.03.11.08.15.05.05.13.07.25.07.14,0,.25-.02.3-.05.05-.04.08-.12.08-.26v-.13h0Z"/>
  <path class="cls-4" d="M47.36,32.32h.34v2.02c0,.08.04.12.13.12h.12v.33h-.15c-.12,0-.23-.03-.31-.1-.09-.07-.13-.18-.13-.33v-2.05h0Z"/>
  <path class="cls-4" d="M48.27,32.32h.34v.35h-.34v-.35ZM48.27,33.03h.34v1.76h-.34v-1.76Z"/>
  <path class="cls-4" d="M50.11,34.61c-.11.13-.26.2-.44.2-.1,0-.19-.02-.26-.07-.08-.04-.14-.1-.19-.16-.05-.06-.08-.13-.09-.23-.02-.09-.03-.24-.03-.45s0-.36.03-.45c.01-.09.05-.16.09-.22.1-.15.25-.22.46-.23.09,0,.17.02.24.06.07.04.14.09.2.15v-.9h.34v2.47h-.34v-.18ZM49.77,33.36c-.08,0-.14.01-.19.04-.05.03-.08.07-.1.13-.02.05-.03.11-.04.17,0,.07,0,.14,0,.21s0,.13,0,.2c0,.07.02.13.04.18.02.05.06.09.1.13.04.03.1.05.19.05s.15-.02.19-.05c.05-.03.08-.08.1-.13.02-.05.04-.11.04-.18,0-.06,0-.13,0-.19,0-.07,0-.13,0-.2,0-.06-.02-.12-.04-.17-.02-.05-.05-.1-.1-.13-.05-.03-.11-.05-.19-.05"/>
  <path class="cls-4" d="M51.79,34.63h0c-.03.06-.08.1-.15.13-.07.03-.16.04-.27.04-.19,0-.34-.05-.44-.16-.11-.1-.16-.23-.16-.38s.05-.27.14-.37c.09-.1.23-.15.41-.15h.47v-.19c0-.16-.11-.23-.35-.23-.09,0-.15,0-.2.03-.05.02-.09.06-.12.11l-.27-.21c.13-.18.32-.26.58-.26.21,0,.39.04.51.13.13.09.19.24.2.45v1.2h-.34v-.16h0ZM51.79,34.04h-.41c-.2,0-.3.08-.3.21,0,.06.03.11.08.15.05.05.13.07.25.07.14,0,.25-.02.3-.05.05-.04.08-.12.08-.26v-.13h0Z"/>
  <path class="cls-4" d="M53.65,34.61c-.11.13-.26.2-.44.2-.1,0-.19-.02-.26-.07-.08-.04-.14-.1-.19-.16-.05-.06-.08-.13-.09-.23-.02-.09-.03-.24-.03-.45s0-.36.03-.45c.02-.09.05-.16.09-.22.1-.15.25-.22.46-.23.09,0,.17.02.24.06.07.04.14.09.2.15v-.9h.34v2.47h-.34v-.18h0ZM53.32,33.36c-.08,0-.14.01-.19.04-.05.03-.08.07-.1.13-.02.05-.03.11-.04.17,0,.07,0,.14,0,.21s0,.13,0,.2c0,.07.02.13.04.18.02.05.06.09.1.13.04.03.1.05.19.05s.15-.02.19-.05c.05-.03.08-.08.1-.13.02-.05.04-.11.04-.18,0-.06,0-.13,0-.19,0-.07,0-.13,0-.2,0-.06-.02-.12-.04-.17-.02-.05-.05-.1-.1-.13-.05-.03-.11-.05-.19-.05"/>
  <path class="cls-4" d="M55.53,34.04c0,.14.04.25.12.32.07.07.17.11.29.11.14,0,.26-.06.37-.17l.25.22c-.17.19-.38.29-.61.29-.09,0-.18-.01-.26-.04-.04-.01-.08-.03-.13-.06-.04-.02-.08-.05-.12-.08-.07-.07-.13-.16-.18-.28-.05-.11-.07-.26-.07-.44s.02-.32.06-.43c.04-.12.1-.21.16-.28.07-.07.14-.12.23-.15.08-.03.17-.05.25-.05.2,0,.36.07.49.2.14.13.21.31.21.55v.29h-1.06ZM56.25,33.75c0-.14-.04-.24-.11-.31-.07-.07-.15-.1-.25-.1s-.19.03-.25.1c-.06.07-.1.17-.11.31h.72Z"/>
  <path class="cls-4" d="M57.06,34.25c.14.15.32.23.54.23.1,0,.18-.02.24-.06.06-.04.09-.1.09-.17,0-.06-.02-.11-.06-.13-.04-.03-.09-.04-.15-.04l-.3-.03c-.14-.01-.26-.06-.35-.15-.09-.08-.14-.2-.14-.35,0-.18.06-.32.19-.41.12-.09.27-.14.45-.14.08,0,.15,0,.21.01.06.01.12.03.18.05.11.04.2.1.28.18l-.21.26c-.07-.05-.14-.09-.21-.12-.07-.03-.16-.04-.25-.04-.11,0-.18.02-.23.06-.04.04-.07.09-.07.15,0,.04.02.07.05.1.03.03.09.05.17.06l.28.02c.18.01.31.07.39.17.07.1.11.22.11.36,0,.17-.07.3-.2.4-.13.1-.3.14-.51.15-.28,0-.53-.11-.75-.32l.24-.24Z"/>
  <path class="cls-4" d="M59.51,32.32h.34v2.02c0,.08.04.12.13.12h.12v.33h-.15c-.12,0-.23-.03-.31-.1-.09-.07-.13-.18-.13-.33v-2.05Z"/>
  <path class="cls-4" d="M60.32,33.91c0-.19.01-.33.04-.43.03-.1.08-.18.14-.25.05-.06.11-.11.2-.16.08-.04.19-.07.32-.07.14,0,.24.03.33.07.08.05.15.1.19.16.07.07.12.15.14.25.03.1.04.24.04.43s-.01.33-.04.42c-.03.1-.08.18-.15.25-.02.03-.05.05-.08.08-.03.03-.07.05-.11.07-.08.05-.19.07-.33.08-.13,0-.24-.03-.32-.08-.08-.04-.15-.09-.2-.15-.06-.07-.11-.16-.14-.25-.03-.1-.04-.24-.04-.42M61.39,33.91c0-.13,0-.22-.02-.28-.01-.06-.03-.1-.07-.15-.03-.04-.06-.07-.11-.09-.05-.02-.1-.04-.17-.04-.06,0-.11.01-.16.04-.05.02-.09.05-.12.09-.03.04-.05.09-.06.15-.01.06-.02.15-.02.27s0,.21.02.27c.01.06.03.11.06.15.03.03.07.06.12.09.05.02.1.04.16.04.06,0,.12-.01.17-.04.05-.03.09-.06.11-.09.03-.04.06-.1.07-.15.01-.06.02-.15.02-.27"/>
  <path class="cls-4" d="M62.98,33.03h.34v.18c.11-.13.26-.2.44-.21.21,0,.36.08.46.23.05.06.08.13.1.22.02.09.02.24.02.46s0,.36-.02.45c-.02.09-.05.16-.1.22-.05.07-.11.12-.19.16-.08.04-.17.06-.27.07-.09,0-.17-.02-.23-.06-.07-.04-.14-.09-.21-.15v.9h-.34v-2.48h0ZM63.66,34.46c.08,0,.15-.02.19-.05.05-.03.08-.08.1-.13.02-.05.04-.11.04-.18,0-.06,0-.13,0-.2,0-.07,0-.14,0-.21,0-.07-.02-.13-.04-.18-.02-.05-.05-.1-.1-.13-.05-.03-.11-.04-.19-.04s-.14.02-.18.05c-.05.03-.08.08-.1.13-.02.05-.03.11-.04.17,0,.07-.01.13-.01.2,0,.06,0,.12.01.19,0,.07.02.13.04.18.02.05.06.1.1.13.05.03.11.05.18.05"/>
  <path class="cls-4" d="M64.79,33.03h.34v.19h0c.11-.14.26-.21.44-.21.14,0,.26.05.36.14l-.25.31c-.07-.06-.15-.09-.23-.09-.09,0-.16.03-.23.09-.07.06-.11.15-.11.28v1.06h-.34v-1.76h0Z"/>
  <path class="cls-4" d="M66.15,32.32h.34v.35h-.34v-.35ZM66.15,33.03h.34v1.76h-.34v-1.76Z"/>
  <path class="cls-4" d="M66.96,33.03h.34v.19h0c.12-.14.27-.21.46-.21.12,0,.22.02.3.06.07.04.14.1.2.17.14-.16.32-.23.56-.23.15,0,.28.05.4.15.12.1.18.26.19.46v1.17h-.34v-1.05c0-.12-.03-.22-.1-.28-.07-.07-.15-.1-.25-.1s-.19.03-.26.1c-.07.06-.1.16-.1.28v1.05h-.34v-1.05c0-.12-.03-.22-.1-.28-.07-.07-.15-.1-.26-.1s-.19.03-.25.1c-.07.06-.1.16-.1.28v1.05h-.34v-1.76h0Z"/>
  <path class="cls-4" d="M70.19,34.04c0,.14.04.25.12.32.07.07.17.11.29.11.14,0,.26-.06.37-.17l.25.22c-.17.19-.38.29-.61.29-.09,0-.18-.01-.26-.04-.04-.01-.08-.03-.13-.06-.04-.02-.08-.05-.12-.08-.07-.07-.13-.16-.18-.28-.05-.11-.07-.26-.07-.44s.02-.32.06-.43c.04-.12.1-.21.16-.28.07-.07.14-.12.23-.15.08-.03.17-.05.25-.05.2,0,.36.07.49.2.14.13.21.31.21.55v.29h-1.06ZM70.92,33.75c0-.14-.04-.24-.11-.31-.07-.07-.15-.1-.25-.1s-.19.03-.25.1c-.06.07-.1.17-.11.31h.72Z"/>
  <path class="cls-4" d="M71.67,33.03h.34v.19h0c.11-.14.26-.21.44-.21.14,0,.26.05.36.14l-.25.31c-.07-.06-.15-.09-.23-.09-.09,0-.16.03-.23.09-.07.06-.11.15-.11.28v1.06h-.34v-1.76h0Z"/>
  <path class="cls-4" d="M72.88,33.91c0-.19.01-.33.04-.43.03-.1.08-.18.14-.25.05-.06.11-.11.2-.16.08-.04.19-.07.32-.07.13,0,.24.03.33.07.08.05.15.1.19.16.07.07.12.15.14.25.03.1.04.24.04.43s-.01.33-.04.42c-.03.1-.08.18-.14.25-.02.03-.05.05-.08.08-.03.03-.07.05-.11.07-.08.05-.19.07-.33.08-.13,0-.24-.03-.32-.08-.08-.04-.15-.09-.2-.15-.06-.07-.11-.16-.14-.25-.03-.1-.04-.24-.04-.42M73.94,33.91c0-.13,0-.22-.02-.28-.01-.06-.03-.1-.07-.15-.03-.04-.06-.07-.11-.09-.05-.02-.1-.04-.17-.04-.06,0-.11.01-.16.04-.05.02-.09.05-.12.09-.03.04-.05.09-.06.15-.01.06-.02.15-.02.27s0,.21.02.27c.01.06.03.11.06.15.03.03.07.06.12.09.05.02.1.04.16.04.06,0,.12-.01.17-.04.05-.03.09-.06.11-.09.03-.04.06-.1.07-.15.01-.06.02-.15.02-.27"/>
  <polygon class="cls-4" points="39.6 32.32 39.97 32.32 39.97 34.44 41.14 34.44 41.14 34.79 39.6 34.79 39.6 32.32"/>
  <path class="cls-4" d="M42.4,34.63h0c-.03.06-.08.1-.15.13-.07.03-.16.04-.27.04-.19,0-.34-.05-.44-.16-.11-.1-.16-.23-.16-.38s.05-.27.14-.37c.09-.1.23-.15.41-.15h.47v-.19c0-.16-.11-.23-.35-.23-.09,0-.15,0-.2.03-.05.02-.09.06-.12.11l-.27-.21c.13-.18.32-.26.58-.26.21,0,.39.04.51.13.13.09.19.24.2.45v1.2h-.34v-.16h0ZM42.4,34.04h-.41c-.2,0-.3.08-.3.21,0,.06.03.11.08.15.05.05.13.07.25.07.14,0,.25-.02.3-.05.05-.04.08-.12.08-.26v-.13h0Z"/>
  <path class="cls-4" d="M45.33,34.51c-.07.09-.16.16-.26.21-.1.06-.22.09-.35.09-.2,0-.38-.07-.53-.21-.16-.14-.24-.37-.24-.69,0-.32.09-.55.24-.7.15-.14.33-.21.53-.21.13,0,.25.03.35.08.1.06.19.13.26.22l-.25.23c-.09-.12-.2-.18-.35-.19-.29,0-.44.18-.44.55,0,.37.15.55.44.55.14,0,.26-.06.35-.18l.25.23Z"/>
  <path class="cls-4" d="M46.52,34.63h0c-.03.06-.08.1-.15.13-.07.03-.16.04-.27.04-.19,0-.34-.05-.44-.16-.11-.1-.16-.23-.16-.38s.05-.27.14-.37c.09-.1.23-.15.41-.15h.47v-.19c0-.16-.11-.23-.35-.23-.09,0-.15,0-.2.03-.05.02-.09.06-.12.11l-.27-.21c.13-.18.32-.26.58-.26.21,0,.39.04.51.13.13.09.19.24.2.45v1.2h-.34v-.16h0ZM46.52,34.04h-.41c-.2,0-.3.08-.3.21,0,.06.03.11.08.15.05.05.13.07.25.07.14,0,.25-.02.3-.05.05-.04.08-.12.08-.26v-.13h0Z"/>
  <path class="cls-4" d="M47.36,32.32h.34v2.02c0,.08.04.12.13.12h.12v.33h-.15c-.12,0-.23-.03-.31-.1-.09-.07-.13-.18-.13-.33v-2.05h0Z"/>
  <path class="cls-4" d="M48.27,32.32h.34v.35h-.34v-.35ZM48.27,33.03h.34v1.76h-.34v-1.76Z"/>
  <path class="cls-4" d="M50.11,34.61c-.11.13-.26.2-.44.2-.1,0-.19-.02-.26-.07-.08-.04-.14-.1-.19-.16-.05-.06-.08-.13-.09-.23-.02-.09-.03-.24-.03-.45s0-.36.03-.45c.01-.09.05-.16.09-.22.1-.15.25-.22.46-.23.09,0,.17.02.24.06.07.04.14.09.2.15v-.9h.34v2.47h-.34v-.18ZM49.77,33.36c-.08,0-.14.01-.19.04-.05.03-.08.07-.1.13-.02.05-.03.11-.04.17,0,.07,0,.14,0,.21s0,.13,0,.2c0,.07.02.13.04.18.02.05.06.09.1.13.04.03.1.05.19.05s.15-.02.19-.05c.05-.03.08-.08.1-.13.02-.05.04-.11.04-.18,0-.06,0-.13,0-.19,0-.07,0-.13,0-.2,0-.06-.02-.12-.04-.17-.02-.05-.05-.1-.1-.13-.05-.03-.11-.05-.19-.05"/>
  <path class="cls-4" d="M51.79,34.63h0c-.03.06-.08.1-.15.13-.07.03-.16.04-.27.04-.19,0-.34-.05-.44-.16-.11-.1-.16-.23-.16-.38s.05-.27.14-.37c.09-.1.23-.15.41-.15h.47v-.19c0-.16-.11-.23-.35-.23-.09,0-.15,0-.2.03-.05.02-.09.06-.12.11l-.27-.21c.13-.18.32-.26.58-.26.21,0,.39.04.51.13.13.09.19.24.2.45v1.2h-.34v-.16h0ZM51.79,34.04h-.41c-.2,0-.3.08-.3.21,0,.06.03.11.08.15.05.05.13.07.25.07.14,0,.25-.02.3-.05.05-.04.08-.12.08-.26v-.13h0Z"/>
  <path class="cls-4" d="M53.65,34.61c-.11.13-.26.2-.44.2-.1,0-.19-.02-.26-.07-.08-.04-.14-.1-.19-.16-.05-.06-.08-.13-.09-.23-.02-.09-.03-.24-.03-.45s0-.36.03-.45c.02-.09.05-.16.09-.22.1-.15.25-.22.46-.23.09,0,.17.02.24.06.07.04.14.09.2.15v-.9h.34v2.47h-.34v-.18h0ZM53.32,33.36c-.08,0-.14.01-.19.04-.05.03-.08.07-.1.13-.02.05-.03.11-.04.17,0,.07,0,.14,0,.21s0,.13,0,.2c0,.07.02.13.04.18.02.05.06.09.1.13.04.03.1.05.19.05s.15-.02.19-.05c.05-.03.08-.08.1-.13.02-.05.04-.11.04-.18,0-.06,0-.13,0-.19,0-.07,0-.13,0-.2,0-.06-.02-.12-.04-.17-.02-.05-.05-.1-.1-.13-.05-.03-.11-.05-.19-.05"/>
  <path class="cls-4" d="M55.53,34.04c0,.14.04.25.12.32.07.07.17.11.29.11.14,0,.26-.06.37-.17l.25.22c-.17.19-.38.29-.61.29-.09,0-.18-.01-.26-.04-.04-.01-.08-.03-.13-.06-.04-.02-.08-.05-.12-.08-.07-.07-.13-.16-.18-.28-.05-.11-.07-.26-.07-.44s.02-.32.06-.43c.04-.12.1-.21.16-.28.07-.07.14-.12.23-.15.08-.03.17-.05.25-.05.2,0,.36.07.49.2.14.13.21.31.21.55v.29h-1.06ZM56.25,33.75c0-.14-.04-.24-.11-.31-.07-.07-.15-.1-.25-.1s-.19.03-.25.1c-.06.07-.1.17-.11.31h.72Z"/>
  <path class="cls-4" d="M57.06,34.25c.14.15.32.23.54.23.1,0,.18-.02.24-.06.06-.04.09-.1.09-.17,0-.06-.02-.11-.06-.13-.04-.03-.09-.04-.15-.04l-.3-.03c-.14-.01-.26-.06-.35-.15-.09-.08-.14-.2-.14-.35,0-.18.06-.32.19-.41.12-.09.27-.14.45-.14.08,0,.15,0,.21.01.06.01.12.03.18.05.11.04.2.1.28.18l-.21.26c-.07-.05-.14-.09-.21-.12-.07-.03-.16-.04-.25-.04-.11,0-.18.02-.23.06-.04.04-.07.09-.07.15,0,.04.02.07.05.1.03.03.09.05.17.06l.28.02c.18.01.31.07.39.17.07.1.11.22.11.36,0,.17-.07.3-.2.4-.13.1-.3.14-.51.15-.28,0-.53-.11-.75-.32l.24-.24Z"/>
  <path class="cls-4" d="M59.51,32.32h.34v2.02c0,.08.04.12.13.12h.12v.33h-.15c-.12,0-.23-.03-.31-.1-.09-.07-.13-.18-.13-.33v-2.05Z"/>
  <path class="cls-4" d="M60.32,33.91c0-.19.01-.33.04-.43.03-.1.08-.18.14-.25.05-.06.11-.11.2-.16.08-.04.19-.07.32-.07.14,0,.24.03.33.07.08.05.15.1.19.16.07.07.12.15.14.25.03.1.04.24.04.43s-.01.33-.04.42c-.03.1-.08.18-.15.25-.02.03-.05.05-.08.08-.03.03-.07.05-.11.07-.08.05-.19.07-.33.08-.13,0-.24-.03-.32-.08-.08-.04-.15-.09-.2-.15-.06-.07-.11-.16-.14-.25-.03-.1-.04-.24-.04-.42M61.39,33.91c0-.13,0-.22-.02-.28-.01-.06-.03-.1-.07-.15-.03-.04-.06-.07-.11-.09-.05-.02-.1-.04-.17-.04-.06,0-.11.01-.16.04-.05.02-.09.05-.12.09-.03.04-.05.09-.06.15-.01.06-.02.15-.02.27s0,.21.02.27c.01.06.03.11.06.15.03.03.07.06.12.09.05.02.1.04.16.04.06,0,.12-.01.17-.04.05-.03.09-.06.11-.09.03-.04.06-.1.07-.15.01-.06.02-.15.02-.27"/>
  <path class="cls-4" d="M62.98,33.03h.34v.18c.11-.13.26-.2.44-.21.21,0,.36.08.46.23.05.06.08.13.1.22.02.09.02.24.02.46s0,.36-.02.45c-.02.09-.05.16-.1.22-.05.07-.11.12-.19.16-.08.04-.17.06-.27.07-.09,0-.17-.02-.23-.06-.07-.04-.14-.09-.21-.15v.9h-.34v-2.48h0ZM63.66,34.46c.08,0,.15-.02.19-.05.05-.03.08-.08.1-.13.02-.05.04-.11.04-.18,0-.06,0-.13,0-.2,0-.07,0-.14,0-.21,0-.07-.02-.13-.04-.18-.02-.05-.05-.1-.1-.13-.05-.03-.11-.04-.19-.04s-.14.02-.18.05c-.05.03-.08.08-.1.13-.02.05-.03.11-.04.17,0,.07-.01.13-.01.2,0,.06,0,.12.01.19,0,.07.02.13.04.18.02.05.06.1.1.13.05.03.11.05.18.05"/>
  <path class="cls-4" d="M64.79,33.03h.34v.19h0c.11-.14.26-.21.44-.21.14,0,.26.05.36.14l-.25.31c-.07-.06-.15-.09-.23-.09-.09,0-.16.03-.23.09-.07.06-.11.15-.11.28v1.06h-.34v-1.76h0Z"/>
  <path class="cls-4" d="M66.15,32.32h.34v.35h-.34v-.35ZM66.15,33.03h.34v1.76h-.34v-1.76Z"/>
  <path class="cls-4" d="M66.96,33.03h.34v.19h0c.12-.14.27-.21.46-.21.12,0,.22.02.3.06.07.04.14.1.2.17.14-.16.32-.23.56-.23.15,0,.28.05.4.15.12.1.18.26.19.46v1.17h-.34v-1.05c0-.12-.03-.22-.1-.28-.07-.07-.15-.1-.25-.1s-.19.03-.26.1c-.07.06-.1.16-.1.28v1.05h-.34v-1.05c0-.12-.03-.22-.1-.28-.07-.07-.15-.1-.26-.1s-.19.03-.25.1c-.07.06-.1.16-.1.28v1.05h-.34v-1.76h0Z"/>
  <path class="cls-4" d="M70.19,34.04c0,.14.04.25.12.32.07.07.17.11.29.11.14,0,.26-.06.37-.17l.25.22c-.17.19-.38.29-.61.29-.09,0-.18-.01-.26-.04-.04-.01-.08-.03-.13-.06-.04-.02-.08-.05-.12-.08-.07-.07-.13-.16-.18-.28-.05-.11-.07-.26-.07-.44s.02-.32.06-.43c.04-.12.1-.21.16-.28.07-.07.14-.12.23-.15.08-.03.17-.05.25-.05.2,0,.36.07.49.2.14.13.21.31.21.55v.29h-1.06ZM70.92,33.75c0-.14-.04-.24-.11-.31-.07-.07-.15-.1-.25-.1s-.19.03-.25.1c-.06.07-.1.17-.11.31h.72Z"/>
  <path class="cls-4" d="M71.67,33.03h.34v.19h0c.11-.14.26-.21.44-.21.14,0,.26.05.36.14l-.25.31c-.07-.06-.15-.09-.23-.09-.09,0-.16.03-.23.09-.07.06-.11.15-.11.28v1.06h-.34v-1.76h0Z"/>
  <path class="cls-4" d="M72.88,33.91c0-.19.01-.33.04-.43.03-.1.08-.18.14-.25.05-.06.11-.11.2-.16.08-.04.19-.07.32-.07.13,0,.24.03.33.07.08.05.15.1.19.16.07.07.12.15.14.25.03.1.04.24.04.43s-.01.33-.04.42c-.03.1-.08.18-.14.25-.02.03-.05.05-.08.08-.03.03-.07.05-.11.07-.08.05-.19.07-.33.08-.13,0-.24-.03-.32-.08-.08-.04-.15-.09-.2-.15-.06-.07-.11-.16-.14-.25-.03-.1-.04-.24-.04-.42M73.94,33.91c0-.13,0-.22-.02-.28-.01-.06-.03-.1-.07-.15-.03-.04-.06-.07-.11-.09-.05-.02-.1-.04-.17-.04-.06,0-.11.01-.16.04-.05.02-.09.05-.12.09-.03.04-.05.09-.06.15-.01.06-.02.15-.02.27s0,.21.02.27c.01.06.03.11.06.15.03.03.07.06.12.09.05.02.1.04.16.04.06,0,.12-.01.17-.04.05-.03.09-.06.11-.09.03-.04.06-.1.07-.15.01-.06.02-.15.02-.27"/>
  <polygon class="cls-3" points="55.45 12.28 56.01 12.28 56.01 15.5 57.83 15.5 57.83 16.04 55.45 16.04 55.45 12.28"/>
  <path class="cls-3" d="M59.81,15.8h-.01c-.05.09-.13.16-.23.2-.1.04-.24.07-.42.07-.3,0-.53-.08-.69-.24-.17-.15-.25-.35-.25-.58s.07-.41.22-.56c.15-.15.36-.23.65-.23h.74v-.28c0-.24-.18-.35-.55-.35-.13,0-.24.01-.32.04-.08.03-.14.09-.19.17l-.42-.32c.2-.27.5-.4.9-.39.33,0,.6.06.8.19.2.13.3.37.3.69v1.83h-.53v-.24h0ZM59.81,14.91h-.64c-.31,0-.47.11-.46.32,0,.09.04.17.12.23.08.07.2.11.38.11.22,0,.38-.02.47-.08.08-.06.13-.19.13-.39v-.19h0Z"/>
  <path class="cls-3" d="M61.12,12.28h.53v1.37c.1-.09.2-.17.32-.23.11-.06.23-.09.37-.09.33,0,.56.13.71.35.07.08.12.2.15.33.03.14.04.36.04.69s-.01.54-.04.68c-.03.14-.08.26-.15.34-.07.1-.17.19-.29.25-.12.06-.26.1-.43.1-.28,0-.51-.11-.69-.31v.28h-.53v-3.77h0ZM62.18,13.86c-.12,0-.21.03-.29.08-.07.05-.13.12-.16.2-.03.08-.05.17-.06.26-.01.09-.02.19-.02.3,0,.1,0,.19.02.29.01.1.03.19.06.27.03.08.09.15.16.2.07.05.16.08.29.08.13,0,.23-.02.3-.07.07-.05.13-.11.16-.19.03-.08.06-.17.07-.27,0-.1,0-.2,0-.3,0-.11,0-.21,0-.31-.01-.09-.04-.18-.07-.26-.03-.08-.08-.15-.16-.19-.07-.04-.17-.06-.3-.06"/>
  <path class="cls-3" d="M63.81,14.7c0-.28.02-.5.07-.65.05-.15.12-.27.22-.37.07-.09.18-.17.31-.24.13-.07.3-.1.5-.11.21,0,.38.04.51.11.13.07.23.15.3.24.11.1.18.23.22.37.04.15.06.37.06.65s-.02.5-.06.65c-.04.15-.12.28-.23.38-.03.04-.08.08-.13.12-.04.04-.1.08-.17.11-.13.07-.3.11-.51.12-.2,0-.37-.04-.5-.12-.13-.07-.23-.14-.31-.23-.1-.11-.17-.24-.22-.38-.05-.15-.07-.36-.07-.65M65.46,14.7c0-.19,0-.33-.03-.42-.02-.08-.05-.16-.11-.22-.04-.06-.1-.11-.18-.14-.07-.04-.16-.05-.26-.05-.09,0-.17.02-.25.05-.07.03-.13.08-.18.14-.05.06-.08.14-.1.22-.02.09-.03.23-.03.41s.01.32.03.41c.02.09.05.17.1.23.05.05.11.1.18.14.08.04.16.06.25.06.1,0,.18-.02.26-.06.08-.04.14-.09.18-.14.05-.07.09-.15.11-.23.02-.09.03-.22.03-.4"/>
  <path class="cls-3" d="M66.65,13.36h.53v.28h.01c.18-.21.41-.32.69-.32.21,0,.4.07.56.21l-.39.47c-.11-.09-.23-.13-.35-.13-.14,0-.25.04-.35.13-.11.09-.17.23-.17.43v1.62h-.53v-2.68h0Z"/>
  <path class="cls-3" d="M70.06,15.8h-.01c-.05.09-.13.16-.23.2-.1.04-.24.07-.43.07-.3,0-.53-.08-.69-.24-.17-.15-.25-.35-.25-.58s.07-.41.22-.56c.15-.15.36-.23.65-.23h.74v-.28c0-.24-.18-.35-.55-.35-.13,0-.24.01-.32.04-.08.03-.14.09-.19.17l-.42-.32c.2-.27.5-.4.9-.39.33,0,.6.06.8.19.2.13.3.37.3.69v1.83h-.53v-.24h0ZM70.06,14.91h-.64c-.31,0-.47.11-.46.32,0,.09.04.17.12.23.08.07.2.11.38.11.22,0,.38-.02.47-.08.08-.06.13-.19.13-.39v-.19Z"/>
  <path class="cls-3" d="M71.4,12.54h.53v.82h.39v.41h-.39v1.56c0,.14.06.2.19.2h.2v.51h-.28c-.19,0-.34-.06-.46-.18-.12-.11-.18-.27-.18-.49v-1.61h-.27v-.41h.27v-.82Z"/>
  <path class="cls-3" d="M72.74,14.7c0-.28.02-.5.07-.65.05-.15.12-.27.22-.37.07-.09.18-.17.31-.24.13-.07.3-.1.5-.11.21,0,.38.04.51.11.13.07.23.15.3.24.11.1.18.23.22.37.04.15.06.37.06.65s-.02.5-.06.65c-.04.15-.12.28-.23.38-.03.04-.08.08-.13.12-.04.04-.1.08-.17.11-.13.07-.3.11-.51.12-.2,0-.37-.04-.5-.12-.13-.07-.23-.14-.31-.23-.1-.11-.17-.24-.22-.38-.05-.15-.07-.36-.07-.65M74.4,14.7c0-.19,0-.33-.03-.42-.02-.08-.05-.16-.11-.22-.04-.06-.1-.11-.17-.14-.07-.04-.16-.05-.26-.05-.09,0-.17.02-.25.05-.07.03-.13.08-.18.14-.05.06-.08.14-.1.22-.02.09-.03.23-.03.41s.01.32.03.41c.02.09.05.17.1.23.05.05.11.1.18.14.08.04.16.06.25.06.1,0,.18-.02.26-.06.08-.04.14-.09.17-.14.05-.07.09-.15.11-.23.02-.09.03-.22.03-.4"/>
  <path class="cls-3" d="M75.59,13.36h.53v.28h.01c.18-.21.41-.32.69-.32.21,0,.4.07.56.21l-.39.47c-.11-.09-.23-.13-.35-.13-.14,0-.25.04-.35.13-.11.09-.17.23-.17.43v1.62h-.53v-2.68h0Z"/>
  <path class="cls-3" d="M77.71,12.28h.53v.54h-.53v-.54ZM77.71,13.36h.53v2.68h-.53v-2.68Z"/>
  <path class="cls-3" d="M78.86,14.7c0-.28.02-.5.07-.65.05-.15.12-.27.22-.37.07-.09.18-.17.31-.24.13-.07.3-.1.5-.11.21,0,.38.04.51.11.13.07.23.15.3.24.11.1.18.23.22.37.04.15.06.37.06.65s-.02.5-.06.65c-.04.15-.12.28-.23.38-.03.04-.08.08-.13.12-.04.04-.1.08-.17.11-.13.07-.3.11-.51.12-.2,0-.37-.04-.5-.12-.13-.07-.23-.14-.31-.23-.1-.11-.17-.24-.22-.38-.05-.15-.07-.36-.07-.65M80.52,14.7c0-.19,0-.33-.03-.42-.02-.08-.05-.16-.11-.22-.04-.06-.1-.11-.17-.14-.07-.04-.16-.05-.26-.05-.09,0-.17.02-.25.05-.07.03-.13.08-.18.14-.05.06-.08.14-.1.22-.02.09-.03.23-.03.41s.01.32.03.41c.02.09.05.17.1.23.05.05.11.1.18.14.08.04.16.06.25.06.1,0,.18-.02.26-.06.08-.04.14-.09.17-.14.05-.07.09-.15.11-.23.02-.09.03-.22.03-.4"/>
  <path class="cls-3" d="M81.79,15.22c.22.23.5.34.84.34.15,0,.28-.03.38-.09.1-.06.15-.14.15-.25,0-.1-.03-.16-.09-.2-.06-.04-.14-.06-.24-.06l-.47-.04c-.22-.02-.41-.1-.55-.23-.14-.13-.22-.31-.22-.53,0-.28.1-.48.29-.62.18-.14.42-.21.7-.21.12,0,.23,0,.33.02.1.02.19.04.27.07.16.07.31.16.44.27l-.33.39c-.1-.07-.21-.14-.33-.19-.11-.04-.24-.07-.39-.07-.17,0-.29.03-.35.09-.07.06-.11.14-.11.23,0,.06.02.11.08.16.05.05.14.08.27.1l.44.03c.28.02.48.11.6.25.11.14.17.33.17.55,0,.26-.11.46-.32.6-.21.14-.47.22-.79.22-.43,0-.83-.16-1.17-.48l.37-.37Z"/>
  <path class="cls-3" d="M73.65,18.09h-7.55c-.64,0-1.29.22-1.93.67-.64.44-1.1.99-1.39,1.62l-.98,2.2c-.31.7-.34,1.28-.09,1.74.26.46.75.7,1.46.7h5.53l-.82,1.84h-16.28l.82-1.84h6.56l1.13-2.54h-6.56l.82-1.84h6.56l1.13-2.54h-9.14l-5.03,11.3h19.14c.69,0,1.35-.21,1.97-.64.61-.42,1.07-.98,1.37-1.65l.98-2.2c.3-.67.32-1.25.06-1.72-.27-.48-.75-.72-1.46-.72h-5.53l.82-1.84h10.04l-3.9,8.76h2.58l3.9-8.76h4.38l1.13-2.54h-9.73Z"/>
  <path class="cls-3" d="M52.7,11.9c-.4-.72-1.17-1.08-2.31-1.08h-14.12l-8.31,18.66h14.12c2.45,0,4.3-1.3,5.54-3.9.42-.85.86-1.79,1.32-2.82.69-1.55.4-2.44-.88-2.66,1.38,0,2.46-.89,3.25-2.66l1.24-2.79c.5-1.12.55-2.03.14-2.76M35.91,18.42l2.11-4.73h11.74l-2.31,4.73h-11.53ZM32.28,26.58l2.14-4.81h11.65l-2.3,4.81h-11.49Z"/>
</svg>