<?xml version="1.0" encoding="UTF-8"?>
<svg id="CLIENTES" xmlns="http://www.w3.org/2000/svg" version="1.1" viewBox="0 0 363.17 40">
  <defs>
    <style>
      .cls-1 {
        fill: #aa182c;
        stroke-width: 0px;
      }
    </style>
  </defs>
  <polygon class="cls-1" points="252.9 .42 246.33 12.61 239.77 .42 230.85 .42 230.85 19.36 236.5 19.36 236.5 5.76 236.55 5.76 244.16 19.36 248.5 19.36 256.11 5.76 256.16 5.76 256.16 19.36 261.81 19.36 261.81 .42 252.9 .42"/>
  <g>
    <path class="cls-1" d="M263.52,7.07c0-5.54,3.11-6.85,8.34-6.85h9.31c5.23,0,8.34,1.31,8.34,6.85v5.65c0,5.54-3.11,6.85-8.34,6.85h-9.31c-5.23,0-8.34-1.31-8.34-6.85v-5.65ZM269.48,10.91c0,2.74.58,3.79,3.33,3.79h7.42c2.74,0,3.33-1.05,3.33-3.79v-2.04c0-2.36-.58-3.79-3.64-3.79h-6.8c-3.06,0-3.64,1.44-3.64,3.79v2.04Z"/>
    <path class="cls-1" d="M291.43,7.07c0-5.54,3.11-6.85,8.34-6.85h8.74c6.59,0,7.5,2.38,7.5,6.06v.61h-5.7c0-1.89-1.07-2.12-2.93-2.12h-6.31c-2.93,0-3.68.71-3.68,3.95v2.35c0,3.24.75,3.95,3.68,3.95h6.2c1.52,0,3.03-.23,3.03-2.06v-.55h-7.22v-3.92h13.02v5.39c0,5.44-2.82,5.7-9.36,5.7h-6.98c-5.23,0-8.34-1.31-8.34-6.85v-5.65Z"/>
    <path class="cls-1" d="M317.86.25h5.81v10.93c0,2.41.86,3.35,3.24,3.35h5.76c2.37,0,3.24-.94,3.24-3.35V.25h5.81v12.19c0,4.71-2.43,6.96-7.77,6.96h-8.31c-5.33,0-7.77-2.25-7.77-6.96V.25Z"/>
    <polygon class="cls-1" points="50.28 .5 70.06 .5 70.06 5.05 56.09 5.05 56.09 8.58 69.4 8.58 69.4 12.97 56.09 12.97 56.09 19.44 50.28 19.44 50.28 .5"/>
    <polygon class="cls-1" points="72.01 .5 92.72 .5 92.72 4.89 77.82 4.89 77.82 7.93 91.94 7.93 91.94 11.85 77.82 11.85 77.82 14.89 93.06 14.89 93.06 19.44 72.01 19.44 72.01 .5"/>
    <path class="cls-1" d="M95.32.5h17.53c5.8,0,7.84,1.91,7.84,6.59v5.76c0,4.68-2.04,6.59-7.84,6.59h-17.53V.5ZM101.12,14.57h10.31c2.48,0,3.45-.71,3.45-3.4v-2.56c0-2.69-.97-3.4-3.45-3.4h-10.31v9.36Z"/>
    <polygon class="cls-1" points="122.17 .5 142.88 .5 142.88 4.89 127.97 4.89 127.97 7.93 142.1 7.93 142.1 11.85 127.97 11.85 127.97 14.89 143.22 14.89 143.22 19.44 122.17 19.44 122.17 .5"/>
    <path class="cls-1" d="M145.22.5h17.52c4.47,0,5.67,2.22,5.67,5.63v1.2c0,2.54-.58,4.02-3.24,4.65v.06c1.72.31,3.16,1.07,3.16,4.19v3.21h-5.81v-2.27c0-1.99-.58-2.65-2.37-2.65h-9.13v4.92h-5.8V.5ZM151.03,9.81h9.6c1.57,0,2.14-.63,2.14-1.99v-.63c0-1.67-.84-1.99-2.67-1.99h-9.07v4.61Z"/>
    <path class="cls-1" d="M179.23.5h7.56l10.4,18.93h-6.46l-1.8-3.34h-11.77l-1.7,3.34h-6.49L179.23.5ZM179.34,12.01h7.43l-3.77-7.11-3.66,7.11Z"/>
    <polygon class="cls-1" points="198.45 .5 204.26 .5 204.26 14.57 217.3 14.57 217.3 19.44 198.45 19.44 198.45 .5"/>
    <polygon class="cls-1" points="344.31 .44 350.12 .44 350.12 14.51 363.17 14.51 363.17 19.37 344.31 19.37 344.31 .44"/>
    <polygon class="cls-1" points="50.48 25.73 57.13 25.73 62.03 34.81 66.92 25.73 73.57 25.73 73.57 39.85 69.36 39.85 69.36 29.7 69.32 29.7 63.64 39.85 60.41 39.85 54.73 29.7 54.69 29.7 54.69 39.85 50.48 39.85 50.48 25.73"/>
    <path class="cls-1" d="M75.31,30.68c0-4.13,2.32-5.11,6.22-5.11h6.94c3.9,0,6.22.98,6.22,5.11v4.21c0,4.14-2.32,5.11-6.22,5.11h-6.94c-3.9,0-6.22-.98-6.22-5.11v-4.21ZM79.75,33.55c0,2.05.43,2.83,2.48,2.83h5.54c2.05,0,2.48-.78,2.48-2.83v-1.52c0-1.76-.43-2.83-2.71-2.83h-5.07c-2.28,0-2.71,1.07-2.71,2.83v1.52Z"/>
    <polygon class="cls-1" points="95.79 25.73 112.29 25.73 112.29 29.23 106.2 29.23 106.2 39.85 101.87 39.85 101.87 29.23 95.79 29.23 95.79 25.73"/>
    <path class="cls-1" d="M113.37,30.68c0-4.13,2.32-5.11,6.22-5.11h6.94c3.9,0,6.22.98,6.22,5.11v4.21c0,4.14-2.32,5.11-6.22,5.11h-6.94c-3.9,0-6.22-.98-6.22-5.11v-4.21ZM117.82,33.55c0,2.05.43,2.83,2.48,2.83h5.54c2.05,0,2.48-.78,2.48-2.83v-1.52c0-1.76-.43-2.83-2.71-2.83h-5.07c-2.28,0-2.71,1.07-2.71,2.83v1.52Z"/>
    <path class="cls-1" d="M134.48,25.73h13.07c3.33,0,4.23,1.65,4.23,4.19v.9c0,1.89-.43,3-2.42,3.47v.04c1.29.23,2.36.8,2.36,3.12v2.4h-4.33v-1.7c0-1.48-.43-1.97-1.78-1.97h-6.8v3.67h-4.33v-14.12ZM138.81,32.67h7.16c1.17,0,1.6-.47,1.6-1.48v-.47c0-1.25-.63-1.48-1.99-1.48h-6.76v3.43Z"/>
    <path class="cls-1" d="M153.65,25.73h11.8c4.11,0,5.11,2.06,5.11,4.84v1.2c0,2.11-.92,4.52-3.98,4.52h-8.6v3.55h-4.32v-14.12ZM157.98,32.79h6.73c1.01,0,1.4-.66,1.4-1.5v-.54c0-.95-.47-1.5-1.77-1.5h-6.36v3.55Z"/>
    <path class="cls-1" d="M177.33,25.73h5.64l7.76,14.12h-4.81l-1.35-2.5h-8.77l-1.27,2.5h-4.84l7.64-14.12ZM177.4,34.31h5.54l-2.81-5.3-2.73,5.3Z"/>
    <path class="cls-1" d="M191.84,25.73h13.06c3.33,0,4.23,1.65,4.23,4.19v.9c0,1.89-.43,3-2.42,3.47v.04c1.29.23,2.36.8,2.36,3.12v2.4h-4.33v-1.7c0-1.48-.43-1.97-1.77-1.97h-6.8v3.67h-4.33v-14.12ZM196.17,32.67h7.16c1.17,0,1.6-.47,1.6-1.48v-.47c0-1.25-.63-1.48-1.99-1.48h-6.76v3.43Z"/>
    <polygon class="cls-1" points="210.4 25.73 226.9 25.73 226.9 29.23 220.82 29.23 220.82 39.85 216.49 39.85 216.49 29.23 210.4 29.23 210.4 25.73"/>
    <path class="cls-1" d="M228.04,35.22h4.33c.02,1.5.63,1.62,1.87,1.62h5.31c.92,0,1.85-.1,1.85-1.19,0-1.23-.51-1.31-6.08-1.31-6.51,0-7.26-.78-7.26-4.25,0-2.55.23-4.52,5.69-4.52h6.04c4.99,0,5.46,1.7,5.46,4.18v.45h-4.33c0-1.03-.12-1.46-2.1-1.46h-4.8c-.98,0-1.64.33-1.64,1.09,0,1.23.52,1.27,5.17,1.25,6.73-.01,8.29.39,8.29,4.51,0,3.8-1.29,4.42-7.04,4.42h-5.24c-3.94,0-5.52-.74-5.52-3.8v-.97Z"/>
    <rect class="cls-1" x="218" y="7.34" width="8.58" height="4.59"/>
    <path class="cls-1" d="M28.78,14.13c-.46-1.1-.95-2.2-1.47-3.29-.17-.37-.73-.66-1.24-.64h-12.6c-.5-.01-1.06.27-1.24.64-.52,1.09-1,2.18-1.47,3.29-.17.41.1.7.6.63,5.63-.8,11.19-.8,16.82,0,.5.07.77-.22.6-.63"/>
    <path class="cls-1" d="M12.68,21.22l-4.65-1.93c-.58-.26-1.09-.07-1.16.42l-.15,1.39c-.06.5.41,1.04,1.04,1.2l4.62,1.01c.65.12,1.2-.04,1.24-.35.04-.31-.34-1.51-.94-1.74"/>
    <path class="cls-1" d="M31.51,19.29l-4.65,1.93c-.61.23-.98,1.43-.95,1.74.03.31.59.48,1.24.35l4.62-1.01c.63-.16,1.1-.7,1.04-1.2l-.16-1.39c-.06-.5-.58-.69-1.15-.42"/>
    <path class="cls-1" d="M19.77,0C8.87,0,0,8.87,0,19.77s8.87,19.77,19.77,19.77,19.77-8.87,19.77-19.77S30.67,0,19.77,0M34.47,25.56v1.28c0,.92-.75,1.67-1.66,1.67h-1.88c-.93,0-1.67-.74-1.67-1.67v-1.28H10.28v1.28c0,.92-.74,1.67-1.65,1.67h-1.88c-.92,0-1.67-.74-1.67-1.67v-1.28c-.2-1.66-.41-3.34-.59-4.99-.24-2.17,1.7-4.54,3.63-5.27.09-.03.17-.06.26-.1l-.58-.58s-.04,0-.06,0h-2.84c-.22,0-.39-.21-.39-.46v-1.23c0-.26.17-.47.39-.47h2.84c.21,0,.39.21.39.47v1.15l.58.57c.42-.9.85-1.79,1.29-2.65.54-1.07,1.53-2.1,2.69-2.53,4.92-1.27,9.3-1.27,14.22,0,1.16.43,2.16,1.46,2.69,2.53.43.86.86,1.76,1.29,2.65l.58-.57v-1.15c0-.26.18-.47.39-.47h2.84c.22,0,.39.21.39.47v1.23c0,.25-.17.46-.39.46h-2.84s-.04,0-.06,0l-.59.58c.08.04.17.07.26.1,1.92.73,3.86,3.1,3.63,5.27-.18,1.65-.39,3.33-.59,4.99"/>
  </g>
</svg>