<?xml version="1.0" encoding="UTF-8"?>
<svg id="CLIENTES" xmlns="http://www.w3.org/2000/svg" version="1.1" viewBox="0 0 180.58 40">
  <defs>
    <style>
      .cls-1 {
        fill: #666;
      }

      .cls-1, .cls-2, .cls-3 {
        stroke-width: 0px;
      }

      .cls-2 {
        fill: #f26522;
      }

      .cls-3 {
        fill: #fff;
      }
    </style>
  </defs>
  <g>
    <path class="cls-2" d="M33.93,6.87c-3.13-3.12-7.63-3.47-13.14-3.47s-10.02.35-13.15,3.48c-3.13,3.13-3.45,7.63-3.45,13.13s.32,10.01,3.45,13.13c3.13,3.13,7.64,3.44,13.15,3.44s10.02-.32,13.15-3.44c3.13-3.13,3.45-7.63,3.45-13.13s-.32-10.02-3.46-13.14ZM19.57,26.15c0,.11-.09.2-.21.2h-2.83c-.12,0-.21-.09-.21-.2v-7.4c0-.11.09-.2.21-.2h2.83c.11,0,.21.09.21.2v7.4ZM25.11,26.15c0,.11-.09.2-.21.2h-2.69c-.12,0-.21-.09-.21-.2v-6.39c0-1.12-.07-2.26-.64-2.84-.49-.5-1.42-.61-2.38-.63h-4.88c-.12,0-.21.09-.21.2v9.65c0,.11-.1.2-.21.2h-2.7c-.12,0-.21-.09-.21-.2v-12.3c0-.11.09-.2.21-.2h7.78c2.03,0,4.16.09,5.21,1.14,1.05,1.05,1.15,3.18,1.15,5.21v6.15ZM30.66,26.15c0,.11-.1.2-.21.2h-2.7c-.12,0-.21-.09-.21-.2v-12.3c0-.11.09-.2.21-.2h2.7c.11,0,.21.09.21.2v12.3Z"/>
    <g>
      <path class="cls-1" d="M101.91,13.24c-1.93-2.65-5.4-3.46-9.01-3.26-3.66.2-6.21.97-6.86,1.22-.41.15-.35.5-.36.71-.01.7-.07,2.51-.07,3.25,0,.32.4.48.73.36,1.34-.47,3.8-1.23,5.78-1.39,2.14-.17,5.04,0,5.84,1.21.38.58.4,1.46.45,2.36-1.33-.12-3.31-.29-5.27-.18-1.53.08-4.46.21-6.18,1.13-1.4.75-2.23,1.43-2.66,2.69-.35,1.02-.45,2.24-.34,3.23.26,2.27,1.05,3.4,2.11,4.19,1.68,1.24,3.8,1.9,8.19,1.81,5.84-.13,7.38-2.02,8.15-3.36,1.32-2.28,1.09-5.89,1.05-8.1-.02-.92-.15-3.93-1.56-5.87ZM94.42,26.62c-2.15.1-3.74.01-4.76-.49-.68-.34-1.18-1.11-1.22-1.98-.04-.74-.03-1.13.31-1.57.76-.99,2.73-1.2,4.77-1.28,1.37-.05,3.47.1,5.01.29-.01,1.49-.11,2.98-.42,3.64-.55,1.16-2.52,1.34-3.68,1.39Z"/>
      <path class="cls-1" d="M118.53,10.28c-2.94,0-5.89.37-7.75,2.2-1.86,1.83-2.58,4.58-2.58,7.96s.64,6.08,2.51,7.91c1.86,1.83,4.88,2.27,7.82,2.27s5.87-.38,7.74-2.21c1.86-1.83,2.6-4.6,2.6-7.97s-.65-6.06-2.51-7.89c-1.86-1.83-4.87-2.27-7.82-2.27ZM123,25.31c-1.04,1.18-2.91,1.39-4.46,1.39s-3.42-.21-4.46-1.39c-1.04-1.18-1.11-2.81-1.11-4.87s.07-3.64,1.1-4.83c1.04-1.18,2.7-1.39,4.46-1.39s3.43.21,4.46,1.39c1.04,1.18,1.1,2.77,1.1,4.83s-.07,3.68-1.1,4.87Z"/>
      <path class="cls-1" d="M174.43,10.64h-4.16c-.18,0-.32.14-.32.32v19c0,.17.14.31.32.31h4.16c.18,0,.32-.14.32-.31V10.95c0-.17-.15-.32-.32-.32Z"/>
      <path class="cls-1" d="M155.06,10.31c-2.85,0-4.66.61-5.76,1.17h-.76c-1.08-.59-2.97-1.17-5.95-1.17-2.21,0-4.91.16-6.58,1.56-1.38,1.16-1.7,2.7-1.7,5.86v12.21c0,.17.15.31.32.31h4.16c.18,0,.32-.14.32-.31v-.04s0-7.72,0-10.01c0-1.81-.07-3.7.32-4.41.31-.55.78-1.16,3.04-1.16,2.7,0,3.33.19,3.76,1.38.1.28.15.69.17,1.17v13.06c0,.17.15.31.32.31h4.17c.18,0,.32-.14.32-.31v-13.06c.02-.49.07-.89.17-1.17.43-1.19,1.06-1.38,3.76-1.38,2.26,0,2.74.61,3.04,1.16.39.7.32,2.59.32,4.41,0,2.29,0,10.01,0,10.01v.04c0,.17.15.31.32.31h4.16c.18,0,.32-.14.32-.31v-11.47c0-3.28-.11-4.96-1.65-6.4-1.7-1.58-4.42-1.77-6.62-1.77Z"/>
      <rect class="cls-1" x="73.27" y="10.64" width="4.81" height="19.63" rx=".32" ry=".32"/>
      <path class="cls-1" d="M60.25,20.29l7.4-9.16c.16-.2.02-.5-.24-.5h-5.33c-.13,0-.25.06-.32.16l-4.89,6.48-4.77-6.48c-.08-.1-.2-.16-.33-.16h-5.35c-.26,0-.4.3-.24.49l7.49,9.33-7.5,9.32c-.15.2-.01.49.24.49h5.35c.13,0,.25-.06.33-.17l4.99-6.46,4.73,6.46c.08.1.2.17.33.17h5.28c.25,0,.4-.29.24-.49l-7.42-9.49Z"/>
    </g>
  </g>
  <g>
    <path class="cls-3" d="M19.36,18.54h-2.83c-.12,0-.21.09-.21.2v7.4c0,.11.09.2.21.2h2.83c.11,0,.21-.09.21-.2v-7.4c0-.11-.09-.2-.21-.2Z"/>
    <path class="cls-3" d="M27.76,26.35h2.7c.11,0,.21-.09.21-.2v-12.3c0-.11-.1-.2-.21-.2h-2.7c-.12,0-.21.09-.21.2v12.3c0,.11.09.2.21.2Z"/>
    <path class="cls-3" d="M10.98,26.35h2.7c.12,0,.21-.09.21-.2v-9.65c0-.11.09-.2.21-.2h4.88c.96.02,1.88.14,2.38.63.58.58.64,1.72.64,2.84v6.39c0,.11.09.2.21.2h2.69c.11,0,.21-.09.21-.2v-6.15c0-2.04-.09-4.16-1.15-5.21-1.05-1.05-3.17-1.14-5.21-1.14h-7.78c-.12,0-.21.09-.21.2v12.3c0,.11.09.2.21.2Z"/>
  </g>
</svg>