<?xml version="1.0" encoding="UTF-8"?>
<svg id="CLIENTES" xmlns="http://www.w3.org/2000/svg" version="1.1" viewBox="0 0 168.64 40">
  <defs>
    <style>
      .cls-1 {
        fill: #005097;
        stroke-width: 0px;
      }
    </style>
  </defs>
  <path class="cls-1" d="M30.78,17.83h-5.93l-.48.71h-9.47l-.98,1.58h9.37l-.49.72h5.68l.55-.72h17.15l.98-1.58h-16.93l.54-.71ZM24.63,26h-5.34l-.49.72h-8.97l-.99,1.59h11.62l.74.71h3.69l-.55-.71h16.77l.99-1.59h-18.12l.65-.72ZM25.76,30.12h-3.39l.73.7H7.29l-.97,1.56h18.39l.75.7h2.6l-.55-.7h11.09l.96-1.56h-13.25l-.54-.7ZM28.9,34.17h-2.3l.74.71H4.77l-.99,1.59h25.21l1.06,1.01.63-1.01h5.36l.99-1.59h-7.58l-.56-.71ZM37.04,9.66h-6.64l-.49.71h-9.96l-.96,1.54h9.87l-.49.72h6.38l.56-.72h15.95l.96-1.54h-15.72l.54-.71ZM27.66,21.9h-5.58l-.48.71h-9.22l-.98,1.57h9.12l-.49.71h5.33l.54-.71h17.75l.98-1.57h-17.52l.54-.71ZM33.93,13.72h-6.29l-.49.72h-9.71l-.98,1.58h9.61l-.48.71h6.03l.54-.71h16.55l.98-1.58h-16.31l.55-.72ZM37.13,6.28l1.38-2.24h.26l.96-1.54h-.77l-.96,1.54h.24l-1.39,2.24h-14.36l-.97,1.57h10.11l-.49.73h6.73l.56-.73h15.35l.97-1.57h-17.64Z"/>
  <path class="cls-1" d="M56.04,31.46l9.16-14.77h4.56l2.69-4.3h-4.57l3.73-6.11h-6.3l-3.79,6.11h-3.34l-2.66,4.3h3.33l-9.25,14.92c-.55.88-.83,1.78-.83,2.61,0,1.83,1.2,3.28,3.53,3.28h6l2.72-4.52h-4.32c-.87,0-1.12-.76-.65-1.52"/>
  <path class="cls-1" d="M84.63,22.89h-10.4l.35-.56c1.91-3.08,4.58-5.14,7.92-5.14,3.58,0,4.48,1.89,3.31,3.79l-1.18,1.92ZM83.78,13.71c-9.83,0-13.4,4.98-16.68,10.31-2.13,3.47-4.17,7.21-4.17,9.12,0,2.7,2.44,4.36,6.17,4.36h11.69l3.29-5.29h-12.35c-1.09,0-1.87-.53-1.87-1.43,0-1,1.78-3.7,1.78-3.7h15.67l2.98-4.82c.69-1.12,1.55-2.47,1.55-4.07,0-2.88-3.17-4.48-8.05-4.48"/>
  <path class="cls-1" d="M117.13,18.79h5.41l3.2-5.05h-7.16c-6.35,0-12.17,2.65-16.17,8.55-2.26,3.33-5.3,8.11-5.3,11.03s2.73,4.19,6.57,4.19h9.52l3.33-5.29h-10.77c-1.1,0-1.9-.53-1.9-1.39s.72-2.09,1.74-3.74c2.73-4.42,6.36-8.29,11.52-8.29"/>
  <polygon class="cls-1" points="103.09 6.27 83.72 37.5 90.05 37.5 109.42 6.27 103.09 6.27"/>
  <polygon class="cls-1" points="158.53 6.27 139.16 37.5 145.49 37.5 164.86 6.27 158.53 6.27"/>
  <path class="cls-1" d="M140.06,22.89h-10.39l.35-.56c1.91-3.08,4.58-5.14,7.92-5.14,3.57,0,4.48,1.89,3.31,3.79l-1.18,1.92ZM139.21,13.71c-9.83,0-13.4,4.98-16.68,10.31-2.13,3.47-4.17,7.21-4.17,9.12,0,2.7,2.44,4.36,6.17,4.36h11.69l3.29-5.29h-12.35c-1.09,0-1.87-.53-1.87-1.43,0-1,1.78-3.7,1.78-3.7h15.67l2.98-4.82c.69-1.12,1.55-2.47,1.55-4.07,0-2.88-3.17-4.48-8.05-4.48"/>
</svg>