<?xml version="1.0" encoding="UTF-8"?>
<svg id="CLIENTES" xmlns="http://www.w3.org/2000/svg" version="1.1" viewBox="0 0 96.41 40">
  <defs>
    <style>
      .cls-1 {
        fill: #121e6c;
      }

      .cls-1, .cls-2 {
        stroke-width: 0px;
      }

      .cls-2 {
        fill: #28a642;
      }
    </style>
  </defs>
  <g id="mwAlg6">
    <g>
      <path class="cls-1" d="M58.64,39.87c-2.65,0-4.42-1.07-5.22-3.17-.35-.91-.41-1.88-.58-2.83-.37-2.09-.73-4.19-1.08-6.28-.04-.24-.06-.49-.37-.53-.34-.04-.41.22-.49.47-1.22,3.69-2.45,7.39-3.67,11.08-.22.67-.43,1.37-1.3,1.38-.87.01-1.09-.67-1.34-1.34-1.31-3.64-2.63-7.28-3.95-10.92-.03-.09-.08-.18-.1-.28-.06-.23-.17-.41-.44-.4-.28,0-.35.22-.38.45-.21,1.26-.43,2.52-.64,3.78-.36,2.13-.71,4.27-1.1,6.4-.24,1.28-1.34,2.16-2.66,2.17-.49,0-1.18.21-1.41-.09-.21-.27.05-.92.14-1.4.77-4.6,1.55-9.2,2.33-13.8.39-2.29.79-4.58,1.16-6.87.06-.36.16-.51.55-.49.75.03,1.5,0,2.25.01,1.75.02,3.01.89,3.61,2.53.88,2.38,1.73,4.77,2.59,7.15.09.25.12.59.47.6.37,0,.38-.36.46-.6.77-2.29,1.51-4.59,2.27-6.89.62-1.88,1.88-2.78,3.84-2.79.73,0,1.46.02,2.19,0,.36-.01.52.09.58.46.5,3.03,1.02,6.06,1.53,9.08.58,3.41,1.15,6.83,1.73,10.24.13.78.24,1.56.41,2.33.1.47-.05.6-.5.55-.29-.03-.59,0-.89,0Z"/>
      <path class="cls-1" d="M74.18,39.96c1.37-2.17,2.67-4.23,3.97-6.29.94-1.48,1.87-2.97,2.83-4.43.24-.37.25-.62,0-.99-2.18-3.42-4.34-6.85-6.51-10.28-.12-.18-.22-.37-.33-.55.13-.18.3-.1.44-.1,1.36,0,2.72,0,4.08,0,1.86,0,3.29.8,4.3,2.37.67,1.04,1.32,2.09,1.99,3.13.24-.09.3-.3.4-.46,1.5-2.34,3-4.67,4.49-7.02.65-1.03,1.53-1.58,2.79-1.53,1.24.05,2.48.01,3.78.01-.16.49-.46.85-.71,1.24-2.52,3.98-5.04,7.95-7.57,11.91-.21.33-.2.55.01.88,2.41,3.77,4.8,7.54,7.19,11.32.15.23.29.46.43.69-.14.18-.31.1-.45.1-1.58-.03-3.16.08-4.73-.06-1.61-.14-2.8-.98-3.66-2.31-.81-1.26-1.6-2.53-2.4-3.79-.1-.16-.16-.36-.4-.48-1.05,1.65-2.1,3.31-3.16,4.96-.18.28-.36.57-.58.82-.5.56-1.15.84-1.89.85-1.39.03-2.79,0-4.31,0Z"/>
      <path class="cls-1" d="M27.5,26.2c0-2.8.01-5.6-.01-8.4,0-.5.15-.62.63-.61,1.64.03,3.27.03,4.91,0,.42,0,.52.13.52.53,0,5.25,0,10.49,0,15.74,0,1.77-.74,3.19-2.05,4.34-3.12,2.74-8.42,2.86-11.65.25-1.5-1.21-2.28-2.78-2.29-4.72,0-5.19,0-10.37-.01-15.56,0-.45.11-.58.56-.56.75.04,1.5-.02,2.24.05,1.73.16,3.06,1.51,3.22,3.24.06.67.04,1.34.04,2.01,0,3.96-.01,7.93-.02,11.89,0,1.01.36,1.46,1.35,1.7.51.12,1.02.11,1.51-.06.76-.26,1.03-.64,1.03-1.45,0-2.8,0-5.6,0-8.4Z"/>
      <path class="cls-1" d="M9.82,24.46c0-3.35,0-6.7,0-10.06,0-.43.07-.61.56-.6,1.71.04,3.43.02,5.15,0,.35,0,.52.04.52.46-.02,6.45,0,12.89-.02,19.34,0,1.6-.74,2.87-1.89,3.93-2.74,2.52-7.35,3.14-10.65,1.41C1.21,37.75-.06,35.91,0,33.25c.03-1.06,0-2.13,0-3.19,0-.19-.05-.41.27-.39.88.05,1.77-.1,2.64.14,1.53.43,2.62,1.79,2.66,3.37,0,.33,0,.67,0,1.01,0,1.34.73,2.06,2.08,2.01.5-.02.97-.15,1.41-.39.51-.28.76-.67.75-1.29-.02-3.35,0-6.7,0-10.06Z"/>
      <path class="cls-1" d="M60.75,28.55c0-2.62,0-5.25,0-7.87,0-2.1,1.38-3.47,3.49-3.48,2.88,0,5.76,0,8.64-.01.44,0,.58.11.55.56-.04.73-.04,1.46,0,2.19.03.47-.14.54-.56.54-1.7-.02-3.39-.01-5.09-.01-.83,0-1.21.35-1.22,1.17-.01,1.52,0,3.04,0,4.56,0,.66.22.87.91.87,1.81,0,3.63.02,5.44,0,.43,0,.52.12.51.53-.03,1.42-1.04,2.48-2.45,2.49-1.16.01-2.33,0-3.49,0-.71,0-.92.21-.92.91,0,1.5,0,3,0,4.5,0,.87.36,1.22,1.22,1.22,1.72,0,3.43.01,5.15,0,.37,0,.52.08.5.48-.03.81-.01,1.62,0,2.43,0,.23-.02.37-.31.37-3.14-.02-6.27.02-9.41-.08-1.74-.06-2.94-1.48-2.95-3.23-.02-2.7,0-5.4,0-8.11Z"/>
      <path class="cls-2" d="M47.29,14.18c.58-1.01,1.18-2,2.02-2.82.87-.85,1.88-1.31,3.12-1.33.91-.01,1.81.09,2.71.17.6.06,1.18.02,1.76-.08.43-.07.55.09.52.46-.06.73-.33,1.39-.73,1.98-1.21,1.83-2.93,2.89-5.11,3.13-.69.08-1.37-.12-2.05-.25-.45-.09-.89-.11-1.34.03-.79.26-.95.47-.98,1.32-.02.73-.05,1.46-.1,2.19-.01.21-.02.5-.29.5-.24,0-.24-.3-.25-.48-.03-.67-.04-1.34-.05-2.01-.01-.99-.56-1.56-1.56-1.61-.5-.03-.98.1-1.46.19-3.34.56-6.76-1.7-7.32-4.86-.11-.59,0-.71.55-.55.98.28,1.96.08,2.93-.04.96-.12,1.93-.15,2.88.11,1.35.37,2.3,1.25,2.94,2.48.24.47.48.93.79,1.53.05-.58-.11-.96-.24-1.34-.31-.92-.76-1.77-1.28-2.59-1.32-2.09-1.59-4.24-.32-6.47.64-1.11,1.25-2.23,1.89-3.34.37-.64.57-.65.93-.03.73,1.28,1.51,2.54,2.15,3.87.99,2.05.79,4.06-.53,5.92-.84,1.19-1.39,2.48-1.58,3.93ZM44.88,14.31s.01.03.02.04c0,0,.02,0,.03,0-.02-.01-.04-.03-.06-.04.03-.26-.18-.38-.33-.52-.83-.83-1.87-1.2-3.01-1.37-.68-.1-1.37-.07-2.05-.24-.43-.11-.77-.43-1.24-.58.09.37.33.52.55.67.59.39,1.27.54,1.95.62,1.49.17,2.91.48,4.12,1.43ZM46.78,3.04c-.31,2.61-.34,5.22.01,7.84.35-2.61.37-5.22-.01-7.84ZM55.23,11.74c-.68.43-1.42.67-2.21.68-.77.01-1.52.14-2.26.38-.96.3-1.88,1-2.19,1.77,1.37-1.3,3-1.4,4.58-1.66.82-.13,1.61-.36,2.08-1.17Z"/>
      <path class="cls-1" d="M94.53,24.95c.92,0,1.52.64,1.51,1.59-.01.93-.6,1.52-1.51,1.52-.92,0-1.56-.64-1.56-1.56,0-.92.65-1.56,1.56-1.56ZM93.81,25.6c-.43.49-.52,1.02-.25,1.54.35.67,1.22.76,1.62.18.46-.33.55-1.05.19-1.56-.38-.54-.97-.6-1.56-.17Z"/>
      <path class="cls-1" d="M44.88,14.31s.04.03.06.04c-.01,0-.03,0-.03,0-.01-.01-.02-.03-.02-.04h0Z"/>
      <path class="cls-1" d="M93.9,25.68c.29,0,.59-.03.87.01.37.05.58.43.37.62-.46.43-.06.69.06,1.02-.59.16-.53-.49-.84-.68-.04.03-.08.05-.1.07-.11.19.17.6-.22.59-.3-.01-.12-.38-.14-.59-.03-.35,0-.7,0-1.05ZM94.5,26.38c.15,0,.3-.04.31-.2.01-.21-.17-.23-.33-.24-.14,0-.22.05-.22.2,0,.18.07.25.25.23Z"/>
    </g>
  </g>
</svg>