<?xml version="1.0" encoding="UTF-8"?>
<svg id="CLIENTES" xmlns="http://www.w3.org/2000/svg" version="1.1" viewBox="0 0 101.88 40">
  <defs>
    <style>
      .cls-1, .cls-2, .cls-3 {
        stroke-width: 0px;
      }

      .cls-1, .cls-4 {
        fill: #502c1e;
      }

      .cls-2 {
        fill: #b5804f;
      }

      .cls-3 {
        fill: #fff;
      }

      .cls-4 {
        stroke: #502c1e;
        stroke-miterlimit: 10;
        stroke-width: 1.13px;
      }
    </style>
  </defs>
  <circle class="cls-4" cx="98.51" cy="10.02" r="1.38"/>
  <path class="cls-1" d="M101.87,6.31s0-.04-.05-.05c-.1-.02-.24,0-.32.01-2.21.12-4.27.13-6.57.13-4.68,0-9.27-.31-13.62-.67-2.2-.18-4.39-.38-6.47-.7-3.37-.51-6.8-1.13-10.12-1.82-.66-.14-1.32-.28-1.98-.42-1.54-.34-3.11-.68-4.66-1.04-2.11-.48-4.2-.99-6.21-1.55-.06-.02-.15-.05-.23-.08-.17-.06-.36-.13-.47-.12-.01,0-.02.01-.03.01-.23.05-.46.15-.68.21-.23.07-.47.14-.7.2-3.35.89-6.78,1.69-10.27,2.39-1.09.22-2.19.45-3.3.67-2.9.59-5.86,1.17-8.91,1.59-2.07.28-4.31.5-6.54.68-2.21.19-4.47.37-6.76.46-1.1.04-2.29.06-3.46.12-2.9.14-5.95.08-8.84-.03-.44-.02-1.01-.07-1.5-.08-.07,0-.12-.01-.15.01,0,0-.02.02-.02.04v27.43s.01.03.02.04c.03.03.09.01.15.01.49,0,1.06-.06,1.5-.08,2.89-.11,5.93-.17,8.84-.03,1.17.06,2.36.08,3.46.12,2.28.09,4.54.27,6.76.46,2.23.19,4.47.4,6.54.68,3.12.43,6.15,1.03,9.13,1.63,1.03.21,2.06.42,3.08.63,3.49.7,6.93,1.5,10.27,2.39.23.06.46.13.7.2.23.06.46.17.68.21,0,0,.01.01.03.01.1.01.29-.06.47-.12.09-.03.17-.06.23-.08,2.05-.58,4.19-1.09,6.34-1.58,1.51-.34,3.02-.68,4.52-1.01.65-.14,1.31-.29,1.98-.42,3.32-.69,6.75-1.31,10.12-1.82,2.09-.31,4.27-.51,6.47-.7,4.35-.36,8.94-.67,13.62-.67,2.29,0,4.36.01,6.57.13.08,0,.22.03.32.01.06-.01.05-.04.05-.05V6.31Z"/>
  <path class="cls-2" d="M.32,6.39c3.09.31,6.18.53,9.43.59,4.53.09,9.25.07,13.62-.13,3.29-.15,6.61-.39,9.74-.7,6.23-.62,12.18-1.48,17.73-2.79.13-.03.26-.09.35-.09s.22.07.34.09c.35.08.73.18,1.05.24,3.34.71,6.78,1.35,10.31,1.81,8.21,1.09,16.61,1.64,25.92,1.64,4.26,0,8.38-.21,12.36-.58.16-.01.41-.01.59-.05.17-.04.14-.04.12-.11-.02-.06,0-.04-.05-.05-.1-.02-.24,0-.32.01-2.21.12-4.27.13-6.57.13-4.68,0-9.27-.31-13.62-.67-2.2-.18-4.39-.38-6.47-.7-4.04-.61-8.17-1.38-12.1-2.24-3.64-.8-7.38-1.61-10.86-2.59-.19-.05-.54-.22-.7-.2-.01,0-.02.01-.03.01-.23.05-.46.15-.68.21-.24.07-.47.14-.7.2-3.35.89-6.78,1.69-10.27,2.39-3.96.8-8,1.68-12.21,2.26-2.07.28-4.31.5-6.54.68-2.21.19-4.47.37-6.76.46-1.1.04-2.29.06-3.46.12-2.9.14-5.95.08-8.84-.03-.44-.02-1.01-.07-1.5-.08-.09,0-.16-.02-.17.05-.02.12.3.11.32.11Z"/>
  <path class="cls-2" d="M101.75,33.58c-.18-.04-.43-.04-.59-.05-3.98-.36-8.1-.58-12.36-.58-9.31,0-17.71.55-25.92,1.64-3.53.47-6.97,1.1-10.31,1.81-.32.07-.7.16-1.05.24-.12.03-.25.09-.34.09s-.22-.06-.35-.09c-5.55-1.31-11.5-2.17-17.73-2.79-3.12-.31-6.45-.55-9.74-.7-4.36-.2-9.08-.22-13.62-.13-3.25.06-6.33.29-9.43.59-.02,0-.34,0-.32.11.01.08.08.05.17.05.49,0,1.06-.06,1.5-.08,2.89-.11,5.93-.17,8.84-.03,1.17.06,2.36.08,3.46.12,2.28.09,4.54.27,6.76.46,2.23.19,4.47.4,6.54.68,4.21.58,8.25,1.46,12.21,2.26,3.49.7,6.93,1.5,10.27,2.39.23.06.46.13.7.2.23.06.46.17.68.21,0,0,.01.01.03.01.16.02.51-.15.7-.2,3.49-.98,7.22-1.79,10.86-2.59,3.93-.87,8.06-1.63,12.1-2.24,2.09-.31,4.27-.51,6.47-.7,4.35-.36,8.94-.67,13.62-.67,2.29,0,4.36.01,6.57.13.08,0,.22.03.32.01.06-.01.04,0,.05-.05.02-.06.05-.06-.12-.11Z"/>
  <path class="cls-2" d="M5.59,27.1c.15-.12.33-.22.53-.28.2-.06.42-.09.65-.09.14,0,.28.02.41.05.13.03.26.08.37.15.11.07.21.16.29.26.08.11.13.23.16.38,0,.03.03.05.07.05.04,0,.07-.02.08-.05.03-.15.05-.29.07-.44.02-.15.04-.3.04-.46,0-.04-.02-.05-.07-.05-.1,0-.2-.02-.29-.03-.09-.01-.19-.02-.3-.04-.13-.02-.26-.03-.39-.05-.13-.01-.27-.02-.41-.02-.11,0-.24,0-.39.02-.15.01-.29.04-.44.07-.15.03-.29.07-.42.13-.13.05-.25.12-.34.2-.22.19-.39.42-.53.69-.14.27-.21.55-.21.84,0,.27.06.51.17.73.11.22.26.41.45.57.19.16.4.28.64.37.24.09.5.13.76.13s.52-.03.8-.08c.28-.05.54-.12.77-.19.02,0,.03-.02.04-.04.04-.09.08-.19.11-.3.03-.11.05-.22.06-.32l-.15-.03c-.13.23-.29.4-.5.51-.21.11-.44.17-.69.17s-.48-.05-.7-.14c-.22-.09-.42-.21-.59-.37-.17-.16-.3-.34-.4-.55-.1-.21-.15-.45-.15-.7s.04-.45.13-.64c.09-.18.21-.34.36-.46Z"/>
  <path class="cls-2" d="M12.54,29.76s-.02.09-.03.14c-.02.04-.04.08-.06.11-.02.03-.05.04-.09.04-.01,0-.04,0-.07-.03l-.07.11c.06.03.15.05.27.05.12,0,.21,0,.29,0h.34c.08,0,.16,0,.25,0,.08,0,.17,0,.25,0l.05-.11s-.08-.05-.12-.06c-.04,0-.08,0-.12,0-.02,0-.05,0-.07,0-.02,0-.05,0-.07,0-.01,0-.03-.02-.04-.06-.01-.04-.02-.07-.03-.12,0-.04-.02-.08-.02-.12,0-.04,0-.06,0-.08v-2.67c0-.1.03-.17.1-.19.06-.03.14-.05.23-.06.04,0,.07-.03.06-.06,0-.03-.03-.05-.07-.05-.22-.01-.43-.02-.65-.03-.22,0-.44,0-.66,0-.06,0-.08.02-.07.07,0,.05.03.07.07.08.04,0,.08.01.14.02.03,0,.05,0,.08,0,.03,0,.06.02.08.03.02.02.04.04.06.07.02.03.02.07.02.13v1.09h-2.21v-1.1c0-.08.03-.14.1-.18.07-.04.14-.06.22-.06.04,0,.07-.02.07-.05,0-.04-.02-.05-.06-.06-.22-.02-.43-.03-.65-.03-.22,0-.44,0-.65,0-.04,0-.06,0-.07.03-.01.02-.01.04,0,.06.02.04.05.06.09.07.04,0,.08.02.12.02.05,0,.1.02.15.04.05.02.07.08.07.18v2.68c0,.08,0,.15-.01.2,0,.05-.02.09-.04.12-.02.03-.05.05-.1.06-.04.01-.1.02-.17.04-.04,0-.07.03-.06.07,0,.04.03.05.07.05.12,0,.23,0,.34,0,.11,0,.23,0,.34,0s.22,0,.33,0c.11,0,.22,0,.34,0v-.12c-.18,0-.29-.02-.35-.08-.06-.06-.09-.18-.09-.34v-1.3h2.21v1.31s0,.08-.01.12Z"/>
  <path class="cls-2" d="M17.76,26.61c-.25-.11-.52-.17-.8-.17s-.56.04-.83.13c-.27.08-.51.21-.73.37-.21.16-.39.36-.52.59-.13.23-.2.5-.2.8,0,.27.06.53.18.76.12.24.28.44.48.61.2.17.42.31.68.41.26.1.52.15.79.15s.54-.04.8-.11c.27-.07.51-.19.72-.34.21-.15.39-.34.52-.56.13-.22.2-.48.2-.77,0-.27-.06-.53-.17-.78-.11-.25-.27-.46-.46-.65-.19-.18-.42-.33-.67-.44ZM18.36,29.08c-.07.19-.17.35-.31.48-.13.13-.29.24-.48.31-.19.07-.39.11-.62.11-.25,0-.47-.05-.67-.14-.2-.09-.38-.22-.52-.38-.15-.16-.26-.35-.34-.56-.08-.21-.12-.43-.12-.67s.04-.43.11-.62c.08-.18.18-.34.32-.47.14-.13.3-.23.49-.3.19-.07.4-.11.62-.11.24,0,.46.05.66.14.2.09.37.22.51.38s.25.34.33.55c.08.21.12.43.12.66s-.04.43-.11.62Z"/>
  <path class="cls-2" d="M21.17,27.1c.15-.12.33-.22.53-.28.2-.06.42-.09.65-.09.14,0,.28.02.41.05.13.03.26.08.37.15.11.07.21.16.29.26.08.11.13.23.16.38,0,.03.03.05.07.05.04,0,.07-.02.08-.05.03-.15.05-.29.07-.44.02-.15.04-.3.04-.46,0-.04-.02-.05-.07-.05-.1,0-.2-.02-.29-.03-.09-.01-.19-.02-.3-.04-.13-.02-.26-.03-.39-.05-.13-.01-.27-.02-.41-.02-.11,0-.24,0-.39.02-.15.01-.29.04-.44.07-.15.03-.29.07-.42.13-.13.05-.25.12-.34.2-.22.19-.39.42-.53.69-.14.27-.21.55-.21.84,0,.27.06.51.17.73.11.22.26.41.45.57.19.16.4.28.64.37.24.09.5.13.76.13s.52-.03.8-.08c.28-.05.54-.12.77-.19.02,0,.03-.02.04-.04.04-.09.08-.19.11-.3.03-.11.05-.22.06-.32l-.15-.03c-.13.23-.29.4-.5.51-.21.11-.44.17-.69.17s-.48-.05-.7-.14c-.22-.09-.42-.21-.59-.37-.17-.16-.3-.34-.4-.55-.1-.21-.15-.45-.15-.7s.04-.45.13-.64c.09-.18.21-.34.36-.46Z"/>
  <path class="cls-2" d="M25.52,29.7c.2.17.42.31.68.41.26.1.52.15.79.15s.54-.04.8-.11c.27-.07.51-.19.72-.34.21-.15.39-.34.52-.56.13-.22.2-.48.2-.77,0-.27-.06-.53-.17-.78-.11-.25-.27-.46-.46-.65-.19-.18-.42-.33-.67-.44-.25-.11-.52-.17-.8-.17s-.56.04-.83.13c-.27.08-.51.21-.73.37-.21.16-.39.36-.52.59-.13.23-.2.5-.2.8,0,.27.06.53.18.76.12.24.28.44.48.61ZM25.58,27.61c.08-.18.18-.34.32-.47.14-.13.3-.23.49-.3.19-.07.4-.11.62-.11.24,0,.46.05.66.14.2.09.37.22.51.38s.25.34.33.55c.08.21.12.43.12.66s-.04.43-.11.62c-.07.19-.17.35-.31.48-.13.13-.29.24-.48.31-.19.07-.39.11-.62.11-.25,0-.47-.05-.67-.14-.2-.09-.38-.22-.52-.38-.15-.16-.26-.35-.34-.56-.08-.21-.12-.43-.12-.67s.04-.43.11-.62Z"/>
  <path class="cls-2" d="M32.93,29.55s0-.03,0-.04c0-.01,0-.02,0-.03,0-.03-.02-.05-.06-.06-.04,0-.07,0-.09.03-.09.15-.21.27-.36.36-.15.08-.32.13-.48.13-.08,0-.16-.01-.24-.03-.08-.02-.15-.05-.21-.1-.06-.04-.11-.1-.15-.17-.04-.07-.06-.14-.06-.23v-2.46c0-.08.03-.14.08-.18.06-.04.12-.06.2-.05h.08s.06-.02.07-.05c0-.03-.01-.05-.05-.06-.09-.03-.19-.04-.29-.05-.1,0-.2,0-.3,0-.07,0-.13,0-.2,0-.07,0-.13,0-.2,0h-.38s-.05,0-.07.03c-.02.02-.02.04,0,.06.01.03.04.05.09.06.05.01.09.02.13.02.05,0,.1.02.14.04.05.02.07.09.07.19v2.68c0,.11-.02.21-.06.28-.04.07-.12.11-.24.12-.04,0-.07.02-.07.06,0,.04.02.06.06.06.22.01.45.02.68.02.09,0,.18,0,.28,0,.09,0,.19,0,.28,0,.11,0,.21,0,.32,0h.32c.1,0,.21,0,.31,0,.11,0,.21,0,.31.02l.02-.12s-.02,0-.03,0c0,0-.01,0-.03,0,.04-.08.07-.16.08-.25,0-.09.02-.17.03-.26Z"/>
  <path class="cls-2" d="M36.9,30.13s.03.03.07.03c.08,0,.16,0,.24,0,.08,0,.15,0,.24,0,.11,0,.22,0,.33,0,.11,0,.22-.01.32-.02v-.12c-.1,0-.2-.03-.29-.06-.09-.03-.17-.1-.22-.2-.17-.3-.33-.62-.47-.94-.14-.32-.28-.64-.42-.96l-.3-.68h0s-.02-.03-.03-.05c0-.02-.02-.05-.03-.08h0s-.05-.1-.07-.16c-.03-.06-.06-.12-.09-.17-.03-.05-.06-.1-.09-.15-.03-.04-.06-.07-.09-.09-.05-.01-.08,0-.1.03-.13.31-.27.62-.4.92-.13.31-.26.62-.39.93-.09.21-.18.43-.28.65-.1.22-.19.44-.28.65-.02.04-.05.08-.09.13-.04.05-.08.09-.12.13-.04.04-.09.07-.14.08-.05.02-.1.02-.14,0l-.03.12,1.18.02s.07-.02.07-.06c0-.04-.02-.06-.06-.06-.04,0-.1-.02-.15-.04-.06-.02-.09-.05-.09-.1,0-.04.01-.11.04-.2.03-.09.07-.2.11-.31.04-.11.09-.22.13-.33.04-.11.09-.2.12-.27h1.08c.09.21.18.41.27.59.09.19.17.39.26.59l-.06.07s-.03.04-.02.07ZM35.48,28.51c.09-.2.16-.38.22-.56.06-.17.13-.36.21-.55l.43,1.11h-.85Z"/>
  <path class="cls-2" d="M40.5,26.89s.03,0,.06,0h.13s.09,0,.13,0c.04,0,.08,0,.11,0h.11c.14,0,.27.02.39.06.11.04.19.14.22.29,0,.03.03.05.07.05.04,0,.07-.02.08-.05.04-.18.06-.35.06-.53v-.11s-.03-.07-.09-.06c-.03,0-.05,0-.07,0-.02,0-.04,0-.05.02h0s-.07.02-.11.03c-.04,0-.07.01-.09.01h-2.4s-.06,0-.1,0c-.04,0-.09-.01-.13-.02-.04,0-.09-.02-.13-.03-.04-.01-.07-.02-.09-.04-.02,0-.04,0-.07,0-.02,0-.04.02-.05.04,0,.03-.02.05-.02.08,0,.03-.01.05-.02.07-.02.07-.04.14-.07.21-.02.07-.03.14-.03.2,0,.04,0,.07,0,.09,0,.03.03.04.07.05.04,0,.06,0,.08-.03.05-.09.12-.16.2-.22.08-.06.17-.09.27-.09h.85v2.78c0,.08,0,.14-.01.19,0,.05-.02.08-.05.11-.02.03-.06.05-.1.06-.04.01-.1.02-.17.03-.04,0-.06.03-.06.07,0,.04.02.05.06.05.23,0,.46.02.68.02.23,0,.45,0,.68,0,.04,0,.06,0,.07-.03.01-.02.01-.04,0-.06-.02-.04-.05-.06-.09-.07-.04,0-.09-.02-.14-.02-.03,0-.06,0-.1-.01-.04,0-.07-.01-.08-.02h0s-.02-.02-.03-.06c0-.03-.02-.07-.02-.11,0-.04-.01-.08-.02-.12,0-.04-.01-.06-.01-.08v-2.73s.05.01.06,0Z"/>
  <path class="cls-2" d="M43.28,29.92c-.04.07-.12.11-.25.12-.04,0-.06.02-.06.06,0,.04.02.06.06.06.16,0,.32.01.48,0,.16,0,.32,0,.48,0,.07,0,.14,0,.22,0,.07,0,.14,0,.22,0,.03,0,.09,0,.16,0,.08,0,.16,0,.25,0,.09,0,.17,0,.25,0s.13,0,.15-.01l.05-.03.14-.61s0-.03-.02-.04c-.02-.01-.03-.02-.05-.02-.02,0-.04,0-.05,0-.02,0-.03.02-.03.03-.04.15-.12.27-.24.33-.12.07-.25.1-.4.1-.12,0-.24-.02-.37-.07-.13-.04-.23-.11-.3-.21v-1.28h.29c.08,0,.16,0,.25,0,.08,0,.16.01.23.02.07.01.11.03.13.04.01,0,.03.03.04.07.02.04.03.07.04.11,0,.02,0,.04,0,.05,0,.01.02.03.08.06.02.02.05.02.07.01.03,0,.04-.02.05-.05,0-.06.02-.12.03-.17,0-.05.02-.11.03-.16,0-.06.02-.13.02-.2,0-.08.01-.15.02-.2,0-.02,0-.04-.02-.06-.02-.02-.05-.02-.08,0-.03,0-.05.03-.08.06-.03.03-.06.06-.1.07h0s-.08.03-.11.04c-.04.02-.07.02-.09.02h-.81v-1.26h.12s.07,0,.11,0c.04,0,.07,0,.1,0,.04,0,.07,0,.1,0,.03,0,.07,0,.1,0,.06,0,.13,0,.19.01.06,0,.12.03.17.05.05.02.09.06.12.1.03.04.05.1.05.18,0,.04.03.05.07.05s.07-.02.08-.05c0-.03.02-.05.02-.08,0-.03.01-.06.02-.09.02-.07.04-.14.05-.21.02-.07.03-.15.04-.23,0-.02,0-.04-.03-.05-.02-.01-.05-.02-.08,0-.06.02-.19.04-.37.05-.18,0-.39.01-.61.01-.16,0-.31,0-.46,0-.15,0-.29,0-.42,0-.08,0-.15,0-.22,0-.07,0-.12,0-.16,0s-.07.01-.08.04c-.01.03,0,.05.03.07.04.02.07.04.11.05.04,0,.08.02.11.03.05,0,.1.03.14.05.04.02.06.07.06.15v2.71c0,.12-.02.21-.06.29Z"/>
  <path class="cls-2" d="M47.55,28.76s.03,0,.07,0c.1,0,.21,0,.33.02.12.02.22.06.29.12.09.07.17.15.24.24.08.09.15.18.23.28.09.11.17.21.26.31.09.1.19.19.29.27.1.08.22.14.34.19.13.05.27.07.42.07.2,0,.38-.04.55-.11l-.04-.11c-.13.02-.27,0-.4-.07-.13-.06-.27-.15-.4-.25-.13-.11-.26-.22-.38-.36-.12-.13-.24-.26-.34-.39-.07-.08-.13-.16-.2-.23-.07-.07-.13-.14-.2-.21.08-.07.15-.14.23-.22.07-.08.14-.17.2-.26.06-.09.11-.19.15-.29.04-.1.06-.2.06-.3,0-.2-.05-.36-.14-.48-.1-.12-.22-.21-.37-.27-.15-.06-.31-.1-.49-.12-.18-.02-.36-.03-.52-.03-.05,0-.1,0-.14,0-.04,0-.09,0-.13,0h-.34c-.06,0-.13,0-.2,0-.05,0-.11,0-.16,0h-.26s-.06,0-.07.03c-.01.02-.01.04,0,.06.02.04.05.06.09.07.04,0,.08.02.13.02.05,0,.1.02.14.04.05.02.07.09.07.19v2.68c0,.08,0,.15-.01.2,0,.05-.02.09-.04.12-.02.03-.05.05-.1.06-.04.01-.1.02-.17.03-.04,0-.06.03-.06.06,0,.03.02.05.06.06.23.01.46.02.68.02.23,0,.45,0,.68,0,.04,0,.07-.01.08-.04.01-.03,0-.05-.03-.07-.04-.03-.08-.04-.12-.05-.04,0-.08-.01-.12-.02-.02,0-.05,0-.08,0-.03,0-.05,0-.06-.01,0,0-.02-.02-.03-.06-.01-.03-.02-.07-.03-.11,0-.04-.02-.08-.02-.12,0-.04-.01-.06-.01-.08v-.87s.06,0,.07,0ZM47.48,26.82c.1-.03.2-.04.31-.04.13,0,.24.03.34.08.1.05.19.12.27.2.07.08.13.18.17.29.04.11.06.23.06.35,0,.22-.06.4-.17.53-.11.13-.28.2-.5.2-.08,0-.16,0-.24,0-.08,0-.16-.01-.24-.02v-1.59Z"/>
  <path class="cls-2" d="M54.88,27.05c-.19-.18-.42-.33-.67-.44-.25-.11-.52-.17-.8-.17s-.56.04-.83.13c-.27.08-.51.21-.73.37-.21.16-.39.36-.52.59-.13.23-.2.5-.2.8,0,.27.06.53.18.76.12.24.28.44.48.61.2.17.42.31.68.41.26.1.52.15.79.15s.54-.04.8-.11c.27-.07.51-.19.72-.34.21-.15.39-.34.52-.56.13-.22.2-.48.2-.77,0-.27-.06-.53-.17-.78-.11-.25-.27-.46-.46-.65ZM54.81,29.08c-.07.19-.17.35-.31.48-.13.13-.29.24-.48.31-.19.07-.39.11-.62.11-.25,0-.47-.05-.67-.14-.2-.09-.38-.22-.52-.38-.15-.16-.26-.35-.34-.56-.08-.21-.12-.43-.12-.67s.04-.43.11-.62c.08-.18.18-.34.32-.47.14-.13.3-.23.49-.3.19-.07.4-.11.62-.11.24,0,.46.05.66.14.2.09.37.22.51.38.14.16.25.34.33.55.08.21.12.43.12.66s-.04.43-.11.62Z"/>
  <path class="cls-2" d="M56.72,29.33s0-.03-.02-.04c-.02,0-.03-.01-.05-.01s-.04,0-.05,0c-.02,0-.03.02-.03.04,0,.07-.02.14-.04.18-.02.05-.03.1-.04.14-.01.05-.02.09-.02.14,0,.09.03.17.08.23.05.06.11.11.19.14.07.04.15.06.24.07.09.01.16.02.24.02.14,0,.3-.02.48-.07.18-.05.34-.11.49-.2.15-.09.28-.2.38-.32.1-.13.15-.28.15-.44,0-.11-.03-.22-.08-.32-.05-.1-.12-.2-.21-.29-.09-.09-.18-.18-.29-.26-.11-.08-.21-.16-.32-.24-.08-.06-.16-.13-.25-.19-.09-.07-.16-.14-.23-.21-.07-.07-.13-.15-.17-.22-.04-.07-.06-.15-.06-.22,0-.08.02-.16.05-.22.04-.07.08-.12.14-.17.06-.04.12-.08.2-.1.07-.02.15-.04.23-.04s.15.01.23.03c.07.02.14.06.2.1.06.04.11.1.15.16.04.06.06.13.06.22,0,.03.02.05.05.06.03,0,.06,0,.09-.02.05-.06.08-.13.09-.22,0-.09.01-.18.01-.27v-.18s-.01-.06-.06-.07c-.18-.04-.37-.06-.57-.06-.12,0-.27.01-.43.04-.17.03-.33.08-.48.14-.15.07-.28.15-.39.26-.11.11-.16.25-.16.41,0,.1.03.2.08.29.05.09.12.19.21.28.09.09.18.19.29.28.11.09.21.18.32.27.09.08.19.16.28.24.09.08.17.16.25.24.07.08.13.17.18.24.05.08.07.16.07.24,0,.09-.02.17-.07.23-.05.07-.11.12-.19.17-.08.04-.16.08-.25.1-.09.02-.17.04-.24.04-.09,0-.17-.01-.26-.03-.09-.02-.17-.06-.24-.1-.07-.05-.13-.1-.17-.17-.04-.07-.06-.15-.05-.24v-.08Z"/>
  <path class="cls-2" d="M62.1,29.93c-.04.06-.12.1-.26.12-.04,0-.07.03-.06.07,0,.04.03.05.07.05.14,0,.29,0,.44,0,.16,0,.31.02.45.03.13,0,.26.02.39.02.13,0,.26,0,.39,0,.32,0,.62-.03.91-.1.29-.07.55-.17.77-.32.22-.15.39-.35.52-.59.13-.24.2-.54.2-.89v-.18c0-.07,0-.13-.01-.19-.02-.19-.11-.38-.26-.55-.15-.17-.33-.32-.53-.45-.21-.13-.42-.22-.65-.3-.23-.07-.43-.11-.61-.11-.09,0-.2,0-.31,0-.11,0-.21,0-.31.01-.2.01-.39.02-.59.02-.08,0-.16,0-.25,0-.09,0-.17,0-.26-.01-.06,0-.12,0-.19,0-.06,0-.12,0-.18,0-.03,0-.05,0-.07.02-.01.02-.02.03,0,.06.01.03.04.05.08.06.04.01.08.02.12.03.05,0,.11.02.16.05.05.02.08.08.08.17v2.68c0,.15-.02.25-.06.31ZM62.78,26.89c.09-.03.18-.04.27-.05.09,0,.18-.01.27-.01.26,0,.52.04.76.11.24.07.46.17.64.31.18.14.33.31.44.53.11.21.16.46.16.74,0,.26-.05.49-.15.67-.1.18-.23.33-.4.45-.17.12-.36.2-.58.25-.22.05-.45.08-.69.08-.11,0-.21,0-.3-.01-.09,0-.17-.03-.23-.07-.07-.04-.11-.09-.15-.16-.03-.07-.05-.17-.05-.29v-2.55Z"/>
  <path class="cls-2" d="M67.32,29.92c-.04.07-.12.11-.25.12-.04,0-.06.02-.06.06,0,.04.02.06.06.06.16,0,.32.01.48,0,.16,0,.32,0,.48,0,.07,0,.14,0,.22,0,.07,0,.14,0,.22,0,.03,0,.09,0,.16,0,.08,0,.16,0,.25,0,.09,0,.17,0,.25,0s.13,0,.15-.01l.05-.03.14-.61s0-.03-.02-.04c-.02-.01-.03-.02-.05-.02-.02,0-.04,0-.05,0-.02,0-.03.02-.03.03-.04.15-.12.27-.24.33-.12.07-.25.1-.4.1-.12,0-.24-.02-.37-.07-.13-.04-.23-.11-.3-.21v-1.28h.29c.08,0,.16,0,.25,0,.08,0,.16.01.23.02.07.01.11.03.13.04.01,0,.03.03.04.07.02.04.03.07.04.11,0,.02,0,.04,0,.05,0,.01.02.03.08.06.02.02.05.02.07.01.03,0,.04-.02.05-.05,0-.06.02-.12.03-.17,0-.05.02-.11.03-.16,0-.06.02-.13.02-.2,0-.08.01-.15.02-.2,0-.02,0-.04-.02-.06-.02-.02-.05-.02-.08,0-.03,0-.05.03-.08.06-.03.03-.06.06-.1.07h0s-.08.03-.11.04c-.04.02-.07.02-.09.02h-.81v-1.26h.12s.07,0,.11,0c.04,0,.07,0,.1,0,.04,0,.07,0,.1,0,.03,0,.07,0,.1,0,.06,0,.13,0,.19.01.06,0,.12.03.17.05.05.02.09.06.12.1.03.04.05.1.05.18,0,.04.03.05.07.05s.07-.02.08-.05c0-.03.02-.05.02-.08,0-.03.01-.06.02-.09.02-.07.04-.14.05-.21.02-.07.03-.15.04-.23,0-.02,0-.04-.03-.05-.02-.01-.05-.02-.08,0-.06.02-.19.04-.37.05-.18,0-.39.01-.61.01-.16,0-.31,0-.46,0-.15,0-.29,0-.42,0-.08,0-.15,0-.22,0-.07,0-.12,0-.16,0s-.07.01-.08.04c-.01.03,0,.05.03.07.04.02.07.04.11.05.04,0,.08.02.11.03.05,0,.1.03.14.05.04.02.06.07.06.15v2.71c0,.12-.02.21-.06.29Z"/>
  <path class="cls-2" d="M70.7,30.16c.07.04.15.06.24.07.09.01.16.02.24.02.14,0,.3-.02.48-.07.18-.05.34-.11.49-.2.15-.09.28-.2.38-.32.1-.13.15-.28.15-.44,0-.11-.03-.22-.08-.32-.05-.1-.12-.2-.21-.29-.09-.09-.18-.18-.29-.26-.11-.08-.21-.16-.32-.24-.08-.06-.16-.13-.25-.19-.09-.07-.16-.14-.23-.21-.07-.07-.13-.15-.17-.22-.04-.07-.06-.15-.06-.22,0-.08.02-.16.05-.22.04-.07.08-.12.14-.17.06-.04.12-.08.2-.1.07-.02.15-.04.23-.04s.15.01.23.03c.07.02.14.06.2.1.06.04.11.1.15.16.04.06.06.13.06.22,0,.03.02.05.05.06.03,0,.06,0,.09-.02.05-.06.08-.13.09-.22,0-.09.01-.18.01-.27v-.18s-.01-.06-.06-.07c-.18-.04-.37-.06-.57-.06-.12,0-.27.01-.43.04-.17.03-.33.08-.48.14-.15.07-.28.15-.39.26-.11.11-.16.25-.16.41,0,.1.03.2.08.29.05.09.12.19.21.28.09.09.18.19.29.28.11.09.21.18.32.27.09.08.19.16.28.24.09.08.17.16.25.24.07.08.13.17.18.24.05.08.07.16.07.24,0,.09-.02.17-.07.23-.05.07-.11.12-.19.17-.08.04-.16.08-.25.1-.09.02-.17.04-.24.04-.09,0-.17-.01-.26-.03-.09-.02-.17-.06-.24-.1-.07-.05-.13-.1-.17-.17-.04-.07-.06-.15-.05-.24v-.08s0-.03-.02-.04c-.02,0-.03-.01-.05-.01s-.04,0-.05,0c-.02,0-.03.02-.03.04,0,.07-.02.14-.04.18-.02.05-.03.1-.04.14-.01.05-.02.09-.02.14,0,.09.03.17.08.23.05.06.11.11.19.14Z"/>
  <path class="cls-2" d="M74.05,29.93c-.04.06-.12.1-.26.12-.04,0-.07.03-.06.07,0,.04.03.05.07.05.14,0,.29,0,.44,0,.16,0,.31.02.45.03.13,0,.26.02.39.02.13,0,.26,0,.39,0,.32,0,.62-.03.91-.1.29-.07.55-.17.77-.32.22-.15.39-.35.52-.59.13-.24.2-.54.2-.89v-.18c0-.07,0-.13-.01-.19-.02-.19-.11-.38-.26-.55-.15-.17-.33-.32-.53-.45-.21-.13-.42-.22-.65-.3-.23-.07-.43-.11-.61-.11-.09,0-.2,0-.31,0-.11,0-.21,0-.31.01-.2.01-.39.02-.59.02-.08,0-.16,0-.25,0-.09,0-.17,0-.26-.01-.06,0-.12,0-.19,0-.06,0-.12,0-.18,0-.03,0-.05,0-.07.02-.01.02-.02.03,0,.06.01.03.04.05.08.06.04.01.08.02.12.03.05,0,.11.02.16.05.05.02.08.08.08.17v2.68c0,.15-.02.25-.06.31ZM74.74,26.89c.09-.03.18-.04.27-.05.09,0,.18-.01.27-.01.26,0,.52.04.76.11.24.07.46.17.64.31.18.14.33.31.44.53.11.21.16.46.16.74,0,.26-.05.49-.15.67-.1.18-.23.33-.4.45-.17.12-.36.2-.58.25-.22.05-.45.08-.69.08-.11,0-.21,0-.3-.01-.09,0-.17-.03-.23-.07-.07-.04-.11-.09-.15-.16-.03-.07-.05-.17-.05-.29v-2.55Z"/>
  <path class="cls-2" d="M79.28,29.92c-.04.07-.12.11-.25.12-.04,0-.06.02-.06.06,0,.04.02.06.06.06.16,0,.32.01.48,0,.16,0,.32,0,.48,0,.07,0,.14,0,.22,0,.07,0,.14,0,.22,0,.03,0,.09,0,.16,0,.08,0,.16,0,.25,0,.09,0,.17,0,.25,0s.13,0,.15-.01l.05-.03.14-.61s0-.03-.02-.04c-.02-.01-.03-.02-.05-.02-.02,0-.04,0-.05,0-.02,0-.03.02-.03.03-.04.15-.12.27-.24.33-.12.07-.25.1-.4.1-.12,0-.24-.02-.37-.07-.13-.04-.23-.11-.3-.21v-1.28h.29c.08,0,.16,0,.25,0,.08,0,.16.01.23.02.07.01.11.03.13.04.01,0,.03.03.04.07.02.04.03.07.04.11,0,.02,0,.04,0,.05,0,.01.02.03.08.06.02.02.05.02.07.01.03,0,.04-.02.05-.05,0-.06.02-.12.03-.17,0-.05.02-.11.03-.16,0-.06.02-.13.02-.2,0-.08.01-.15.02-.2,0-.02,0-.04-.02-.06-.02-.02-.05-.02-.08,0-.03,0-.05.03-.08.06-.03.03-.06.06-.1.07h0s-.08.03-.11.04c-.04.02-.07.02-.09.02h-.81v-1.26h.12s.07,0,.11,0c.04,0,.07,0,.1,0,.04,0,.07,0,.1,0,.03,0,.07,0,.1,0,.06,0,.13,0,.19.01.06,0,.12.03.17.05.05.02.09.06.12.1.03.04.05.1.05.18,0,.04.03.05.07.05s.07-.02.08-.05c0-.03.02-.05.02-.08,0-.03.01-.06.02-.09.02-.07.04-.14.05-.21.02-.07.03-.15.04-.23,0-.02,0-.04-.03-.05-.02-.01-.05-.02-.08,0-.06.02-.19.04-.37.05-.18,0-.39.01-.61.01-.16,0-.31,0-.46,0-.15,0-.29,0-.42,0-.08,0-.15,0-.22,0-.07,0-.12,0-.16,0s-.07.01-.08.04c-.01.03,0,.05.03.07.04.02.07.04.11.05.04,0,.08.02.11.03.05,0,.1.03.14.05.04.02.06.07.06.15v2.71c0,.12-.02.21-.06.29Z"/>
  <path class="cls-2" d="M85.47,29.8s-.05.08-.09.1c-.04.02-.08.04-.13.05-.05,0-.1.02-.15.02-.04,0-.08,0-.12.01-.04,0-.09.01-.12.02-.04,0-.06.02-.06.06,0,.03.03.05.07.06.29,0,.58.02.87.02.29,0,.58,0,.87,0l.07-.09s-.07-.06-.11-.07c-.04,0-.1-.02-.15-.03-.04,0-.08-.01-.12-.02-.04,0-.08-.03-.11-.05-.03-.02-.06-.06-.08-.11-.02-.05-.03-.11-.03-.19v-.74c0-.24,0-.49,0-.74,0-.25,0-.5,0-.74v-1.03c0-.07,0-.13-.01-.19,0-.02-.02-.04-.04-.04-.02,0-.05,0-.08,0-.22.11-.43.24-.63.36-.21.13-.4.27-.59.42-.03.02-.04.04-.02.07.02.03.04.04.08.03.06,0,.13-.03.19-.05.06-.02.12-.05.17-.07.05-.03.1-.05.15-.07.04-.02.09-.03.12-.03s.06.01.09.03v2.81c0,.07-.01.13-.03.18Z"/>
  <path class="cls-2" d="M87.89,28.47c-.15.19-.23.41-.23.67,0,.17.04.32.11.46.07.14.17.25.29.35.12.09.26.17.41.22.15.05.31.08.47.08.18,0,.35-.04.5-.11.16-.07.29-.17.41-.29.12-.12.21-.26.28-.41.07-.16.1-.32.1-.49,0-.25-.07-.46-.22-.63-.14-.17-.33-.3-.56-.39.17-.1.31-.22.43-.38.11-.15.17-.33.17-.52,0-.13-.03-.25-.09-.36-.06-.11-.13-.21-.23-.29-.09-.08-.2-.15-.33-.2-.12-.05-.25-.07-.37-.07-.15,0-.3.03-.44.1-.14.07-.27.15-.38.26-.11.11-.2.23-.27.37-.07.14-.1.28-.1.43,0,.19.06.36.18.49.12.13.26.24.43.31-.24.09-.43.23-.59.42ZM88.48,27.25c-.04-.1-.06-.2-.06-.3,0-.17.06-.3.18-.4.12-.1.26-.15.42-.15.09,0,.16.02.23.06.07.04.12.09.17.15.04.06.08.13.1.21.02.08.03.16.03.24,0,.15-.03.28-.1.42-.07.13-.17.23-.3.3-.1,0-.19-.02-.28-.07-.09-.05-.17-.11-.24-.19-.07-.08-.12-.16-.16-.26ZM88.41,28.41c.12-.15.3-.22.52-.22.12,0,.22.03.31.08.09.05.17.12.24.21.06.09.11.18.15.29.03.11.05.22.05.33,0,.09-.01.18-.04.28-.03.1-.07.18-.12.26-.05.08-.12.15-.2.2-.08.05-.16.08-.26.08-.13,0-.25-.03-.35-.08-.1-.05-.19-.12-.26-.21-.07-.09-.13-.19-.16-.3-.04-.11-.06-.23-.06-.36,0-.22.06-.41.18-.55Z"/>
  <path class="cls-2" d="M92.69,29c-.14.23-.3.44-.48.63-.18.19-.37.35-.58.48-.04.02-.04.04-.02.08.02.04.05.04.09.03.26-.1.5-.24.75-.42.24-.18.46-.39.65-.61.19-.23.34-.48.45-.75.11-.27.17-.54.17-.82,0-.19-.04-.39-.12-.57-.08-.19-.19-.36-.32-.51-.14-.15-.3-.27-.48-.36-.18-.09-.38-.14-.59-.14-.17,0-.33.04-.47.12-.14.08-.25.18-.34.31-.09.13-.16.27-.21.42-.05.16-.07.31-.07.46,0,.13.02.26.06.39.04.13.1.25.17.35.08.11.17.19.29.25.12.06.25.1.41.1.17,0,.32-.03.47-.1.15-.06.28-.14.39-.23l-.09-.1c-.06.04-.13.07-.2.09-.07.03-.14.04-.21.04-.13,0-.24-.03-.34-.1-.1-.07-.18-.15-.25-.26-.07-.1-.12-.22-.15-.34-.04-.13-.05-.25-.05-.36,0-.18.04-.34.12-.45.08-.12.22-.17.41-.17.16,0,.3.03.42.08.12.06.22.13.31.23.08.1.14.21.19.34.04.13.06.27.06.42,0,.24-.04.49-.12.74-.08.25-.19.49-.33.72Z"/>
  <path class="cls-2" d="M95.14,29.85c.14.14.31.25.5.33.19.08.39.12.6.12.18,0,.35-.04.48-.12.14-.08.25-.18.35-.31.09-.13.16-.27.21-.42.04-.16.07-.31.07-.47,0-.14-.02-.28-.06-.42-.04-.14-.1-.27-.18-.39-.08-.12-.18-.22-.31-.29-.12-.08-.27-.12-.43-.12-.15,0-.3.03-.43.09-.13.06-.26.13-.37.22-.04.02-.04.05-.02.07.02.03.05.04.09.03.06-.02.13-.04.19-.06.06-.02.13-.03.21-.03.13,0,.25.03.35.09.1.06.19.14.25.23.07.1.12.21.15.33.03.12.05.25.05.37,0,.09-.01.19-.03.28-.02.1-.05.19-.1.27-.05.08-.11.15-.18.2-.07.05-.16.08-.27.08-.16,0-.3-.03-.43-.1-.13-.07-.24-.16-.33-.27-.09-.11-.16-.24-.21-.38-.05-.14-.08-.28-.08-.43,0-.24.04-.48.13-.72.09-.24.21-.48.35-.7.15-.22.31-.43.5-.62.19-.19.38-.35.58-.48l-.08-.1c-.25.11-.5.25-.74.44-.24.18-.46.39-.65.63-.19.23-.34.49-.46.76-.12.27-.17.54-.17.82,0,.21.04.4.13.58.09.18.2.34.34.48Z"/>
  <path class="cls-2" d="M99.03,10.59s0-.07,0-.1v-.1c0-.07-.02-.14-.07-.21-.05-.07-.12-.11-.23-.13.08-.01.15-.03.19-.06.09-.06.13-.14.13-.26,0-.17-.07-.28-.21-.34-.08-.03-.2-.05-.36-.05h-.46v1.33h.23v-.52h.18c.12,0,.21.01.26.04.08.05.13.15.13.3v.15s0,.01,0,.01c0,0,0,0,0,.01h.22v-.02s-.02-.03-.02-.07ZM98.69,9.96s-.12.03-.22.03h-.21v-.48h.2c.13,0,.22.02.28.05.06.03.09.1.09.19,0,.1-.05.17-.14.21Z"/>
  <path class="cls-2" d="M99.36,9.16c-.24-.23-.52-.35-.86-.35s-.62.12-.85.35c-.24.24-.35.52-.35.85s.12.62.35.86c.23.24.52.36.85.36s.62-.12.86-.36c.24-.24.35-.52.35-.86s-.12-.62-.35-.85ZM99.24,10.75c-.2.2-.45.31-.74.31s-.53-.1-.74-.31c-.2-.2-.3-.45-.3-.74s.1-.53.3-.74c.2-.2.45-.31.73-.31s.53.1.74.31c.2.2.3.45.3.74s-.1.54-.3.74Z"/>
  <g>
    <path class="cls-3" d="M11.51,20.58c-.11,0-.13.08-.14.2-.03.25-.18.62-.34.79-.33.35-.84.37-1.54.37-1.03,0-1.37-.09-1.59-.29-.28-.24-.28-1.14-.28-2.83v-2.32c0-2,0-2.37.03-2.79.02-.46.13-.69.48-.75.16-.03.37-.04.51-.04.16,0,.24-.03.24-.12s-.09-.12-.28-.12c-.51,0-1.47.04-1.79.04-.36,0-1.19-.04-1.81-.04-.2,0-.29.03-.29.12s.08.12.22.12c.17,0,.33.01.43.04.44.09.54.3.57.75.03.42.03.79.03,2.79v2.32c0,1.21,0,2.25-.06,2.8-.05.38-.12.67-.38.72-.12.03-.28.05-.47.05-.16,0-.21.04-.21.11,0,.09.09.13.26.13.53,0,1.36-.04,1.66-.04,1.07,0,1.94.08,3.83.08.69,0,.75-.06.83-.35.1-.38.2-1.37.2-1.51,0-.16-.02-.22-.11-.22Z"/>
    <path class="cls-3" d="M27.14,22.4c-.16,0-.36-.01-.55-.05-.28-.07-.66-.25-1.16-1.44-.84-2-2.95-7.37-3.27-8.1-.13-.31-.21-.42-.33-.42-.13,0-.21.14-.37.53l-3.31,8.27c-.27.66-.51,1.1-1.12,1.19-.11.01-.29.03-.41.03-.1,0-.16.03-.16.11,0,.1.08.13.25.13.69,0,1.41-.04,1.55-.04.41,0,.97.04,1.4.04.14,0,.22-.03.22-.13,0-.08-.04-.11-.2-.11h-.2c-.41,0-.53-.17-.53-.41,0-.16.07-.47.2-.8l.71-1.88.12-.11h2.94l.13.09,1.05,2.79c.07.15-.03.27-.12.3-.13.01-.18.04-.18.12,0,.09.16.09.39.1,1.05.03,2.02.03,2.49.03s.61-.03.61-.13c0-.09-.07-.11-.17-.11ZM22.68,18.54h-2.42l-.05-.09,1.21-3.24.08-.12.07.12,1.19,3.25-.07.08Z"/>
    <path class="cls-3" d="M61.03,12.68c-.51,0-1.34.04-1.5.04-.01,0-.84-.04-1.51-.04-.19,0-.28.03-.28.12s.08.12.23.12.37.01.47.04c.43.09.54.3.57.75.03.42.03.79.03,2.79v1.65c0,1.36-.04,2.54-.76,3.26-.53.53-1.24.71-1.82.71-.45,0-1.05-.06-1.65-.54-.65-.53-1.03-1.33-1.03-3.24v-1.84c0-2,0-2.37.03-2.79.02-.46.13-.69.49-.75.16-.03.24-.04.38-.04.13,0,.21-.03.21-.12s-.09-.12-.29-.12c-.47,0-1.3.04-1.62.04-.39,0-1.22-.04-1.92-.04-.2,0-.29.03-.29.12s.08.12.22.12c.19,0,.41.01.51.04.44.09.54.3.57.75.03.42.03.79.03,2.79v1.92c0,1.91.5,2.89,1.17,3.49.96.87,2.22.91,2.92.91.85,0,1.8-.15,2.74-.95,1.11-.95,1.25-2.5,1.25-3.96v-1.41c0-2,0-2.37.03-2.79.03-.46.13-.69.49-.75.16-.03.24-.04.38-.04.16,0,.24-.03.24-.12s-.09-.12-.28-.12Z"/>
    <path class="cls-3" d="M70.53,22.4c-.2,0-.49-.03-.67-.05-.39-.05-.49-.29-.53-.64-.05-.57-.05-1.61-.05-2.88v-2.32c0-2,0-2.37.03-2.79.03-.46.13-.69.49-.75.16-.03.26-.04.39-.04s.21-.03.21-.13c0-.08-.1-.11-.28-.11-.5,0-1.27.04-1.6.04-.38,0-1.21-.04-1.71-.04-.21,0-.32.03-.32.11,0,.11.08.13.21.13.16,0,.33.01.47.05.29.07.42.29.45.74.02.42.02.79.02,2.79v2.32c0,1.28,0,2.32-.07,2.87-.04.38-.12.6-.38.66-.12.03-.28.05-.48.05-.16,0-.21.04-.21.11,0,.09.09.13.26.13.53,0,1.36-.04,1.66-.04.36,0,1.19.04,2.06.04.14,0,.25-.04.25-.13,0-.07-.07-.11-.21-.11Z"/>
    <path class="cls-3" d="M82.81,20.31c-.08,0-.1.08-.13.21-.04.19-.12.42-.24.63-.21.4-.73.73-2.07.73h-3.24c1.86-2.83,3.86-5.85,5.68-8.8.05-.09.11-.17.11-.25,0-.06-.09-.1-.23-.1h-4.01c-.54,0-1.17.01-2.42-.04-.33-.01-.41-.09-.53-.09-.08,0-.13.07-.16.25-.06.39-.26,1.59-.26,1.89,0,.16.01.22.1.22.08,0,.14-.05.16-.24.04-.3.28-.79.71-1.03.42-.24,1.23-.28,1.9-.28h2.58c-1.76,2.78-3.71,5.76-5.57,8.65-.16.24-.2.3-.2.4s.08.13.22.13c2.66,0,4.87.07,7.07.07.24,0,.33-.11.4-.34.09-.33.26-1.18.26-1.61,0-.32-.03-.41-.13-.41Z"/>
    <path class="cls-3" d="M97.05,22.4c-.16,0-.35-.01-.55-.05-.28-.07-.66-.25-1.16-1.44-.84-2-2.95-7.37-3.27-8.1-.13-.31-.21-.42-.33-.42-.13,0-.21.14-.37.53l-3.31,8.27c-.26.66-.51,1.1-1.12,1.19-.1.01-.29.03-.41.03-.1,0-.16.03-.16.11,0,.1.08.13.25.13.68,0,1.41-.04,1.55-.04.41,0,.97.04,1.4.04.14,0,.22-.03.22-.13,0-.08-.04-.11-.2-.11h-.2c-.41,0-.53-.17-.53-.41,0-.16.07-.47.2-.8l.71-1.88.12-.11h2.94l.13.09,1.05,2.79c.07.15-.03.27-.12.3-.13.01-.18.04-.18.12,0,.09.16.09.39.1,1.05.03,2.02.03,2.49.03s.61-.03.61-.13c0-.09-.07-.11-.17-.11ZM92.6,18.54h-2.42l-.05-.09,1.21-3.24.08-.12.07.12,1.19,3.25-.07.08Z"/>
    <path class="cls-3" d="M44.01,15.39l-.52-.39c-1.54-1.17-1.96-1.81-1.96-2.67,0-1.11.83-1.91,2.21-1.91,1.2,0,1.74.56,2.02.91.39.48.48,1.06.48,1.22,0,.22.05.34.18.34.15,0,.2-.15.2-.56,0-1.45.08-1.98.08-2.22,0-.13-.09-.18-.26-.22-.48-.13-1.26-.31-2.46-.31-2.57,0-4.28,1.46-4.28,3.5,0,1.5.7,2.8,2.74,4.39l.85.66c1.54,1.19,1.82,2.06,1.82,2.97,0,.98-.82,2.11-2.48,2.11-1.15,0-2.24-.5-2.65-1.87-.09-.31-.17-.7-.17-.94,0-.15-.02-.31-.18-.31-.15,0-.2.2-.23.48-.02.3-.09,1.41-.09,2.43,0,.41.05.5.35.63.8.35,1.63.48,2.7.48.98,0,2.02-.17,2.95-.76,1.33-.87,1.74-2.15,1.74-3.22,0-1.76-.81-3-3.04-4.72Z"/>
  </g>
</svg>