<?xml version="1.0" encoding="UTF-8"?>
<svg id="CLIENTES" xmlns="http://www.w3.org/2000/svg" version="1.1" viewBox="0 0 162.61 40">
  <defs>
    <style>
      .cls-1 {
        fill: #0e4c90;
      }

      .cls-1, .cls-2, .cls-3, .cls-4, .cls-5, .cls-6 {
        stroke-width: 0px;
      }

      .cls-2 {
        fill: #232829;
      }

      .cls-7 {
        fill: #232728;
        stroke: #232728;
      }

      .cls-7, .cls-8, .cls-9 {
        stroke-linecap: round;
        stroke-width: .32px;
      }

      .cls-7, .cls-9 {
        stroke-linejoin: round;
      }

      .cls-8 {
        fill: #4d3114;
        stroke: #4d3114;
        stroke-miterlimit: 10;
      }

      .cls-8, .cls-10 {
        opacity: .2;
      }

      .cls-3 {
        fill: #fcb525;
      }

      .cls-4 {
        fill: #faa21b;
      }

      .cls-5 {
        fill: #fff;
        opacity: .4;
      }

      .cls-6 {
        fill: #000;
        fill-rule: evenodd;
      }

      .cls-9 {
        fill: none;
        opacity: .5;
        stroke: #fff;
      }
    </style>
  </defs>
  <polygon class="cls-6" points="79.49 28.08 77.48 28.08 76.26 29.95 77.58 29.95 79.49 28.08"/>
  <g>
    <path class="cls-1" d="M140.95,22.84h5.23c-.75,2.74-1.26,3.84-1.95,4.72-.7.88-1.56,1.55-2.59,2-1.03.45-2.34.67-3.93.67-1.93,0-3.51-.27-4.73-.82-1.23-.55-2.28-1.51-3.17-2.89-.89-1.38-1.34-3.14-1.34-5.29,0-2.87.78-5.07,2.34-6.61,1.56-1.54,3.78-2.31,6.63-2.31,2.24,0,4,.44,5.28,1.33,1.28.88,2.23,2.24,3.09,4.93h-5.17c-.1-.33-.28-.72-.47-.96-.31-.41-.68-.73-1.12-.95-.44-.22-.94-.33-1.48-.33-1.24,0-2.19.49-2.85,1.47-.5.72-.75,1.86-.75,3.41,0,1.92.3,3.24.9,3.95.59.71,1.44,1.07,2.52,1.07s1.85-.29,2.39-.87c.54-.58.93-1.42,1.17-2.52Z"/>
    <polygon class="cls-1" points="152.14 12.36 146.97 18.45 152.54 30.24 158.42 30.24 152.82 18.49 158.12 12.36 152.14 12.36"/>
    <polygon class="cls-1" points="118.14 23.67 120.07 17.46 124.08 30.24 129.69 30.24 123.01 12.34 116.98 12.34 110.33 30.24 116.08 30.24 116.97 27.4 121.87 27.4 120.7 23.67 118.14 23.67"/>
    <polygon class="cls-1" points="35.93 23.71 37.86 17.49 41.87 30.31 47.48 30.31 40.8 12.35 34.77 12.35 28.12 30.31 33.87 30.31 34.76 27.45 39.66 27.45 38.49 23.71 35.93 23.71"/>
    <path class="cls-1" d="M59.88,12.36c2.42,0,4.37,2.33,4.37,5.21h0c0,2.06-1,3.84-2.46,4.68l3.66,8.06h-5.77s-4.49-10.24-4.49-10.24h2.35c.87,0,1.58-.84,1.58-1.88h0c0-1.04-.71-1.88-1.58-1.88h-3.6s-.01.06-.01.06v13.92s-5.57,0-5.57,0V12.34s11.51.02,11.51.02Z"/>
    <path class="cls-1" d="M97.37,16.36l3.21-4.01,8.29.02c2.42,0,4.37,2.33,4.37,5.2h0c0,2.06-1,3.84-2.46,4.68h0c-.58.34-1.23.53-1.92.53l-3.51.02-1.17-2.72h2.35c.87,0,1.58-.84,1.58-1.88h0c0-1.04-.71-1.88-1.58-1.88h-3.6s-.01.06-.01.06v13.9s-5.57,0-5.57,0v-13.93"/>
    <polygon class="cls-1" points="14.92 12.4 31.25 12.4 31.25 16.32 25.97 16.36 25.97 30.32 20.42 30.33 20.47 16.36 16.06 16.36 14.92 12.4"/>
    <g>
      <g class="cls-10">
        <polygon class="cls-7" points="83.54 12.37 81.4 .46 89.82 13.68 83.54 12.37"/>
      </g>
      <polygon class="cls-3" points="83.45 12.17 81.31 .26 89.73 13.48 83.45 12.17"/>
      <polygon class="cls-5" points="83.45 12.17 84.84 10.47 89.73 13.48 83.45 12.17"/>
      <polygon class="cls-4" points="83.45 12.17 81.31 .26 84.84 10.47 83.45 12.17"/>
      <polyline class="cls-9" points="81.31 .26 84.84 10.47 83.45 12.17"/>
      <line class="cls-8" x1="83.54" y1="12.35" x2="81.41" y2=".47"/>
      <g>
        <g class="cls-10">
          <polygon class="cls-7" points="76.11 10.56 63.57 8.21 78.99 5.42 76.11 10.56"/>
        </g>
        <polygon class="cls-3" points="75.89 10.57 63.35 8.23 78.77 5.43 75.89 10.57"/>
        <polygon class="cls-5" points="75.89 10.57 74.14 8.82 78.77 5.43 75.89 10.57"/>
        <polygon class="cls-4" points="75.89 10.57 63.35 8.23 74.14 8.82 75.89 10.57"/>
        <polyline class="cls-9" points="63.35 8.23 74.14 8.82 75.89 10.57"/>
        <line class="cls-8" x1="76.1" y1="10.57" x2="63.57" y2="8.21"/>
      </g>
      <g>
        <g class="cls-10">
          <polygon class="cls-7" points="72.51 18.75 67.48 30.39 67.6 14.71 72.51 18.75"/>
        </g>
        <polygon class="cls-4" points="72.48 18.97 67.45 30.6 67.57 14.93 72.48 18.97"/>
        <polygon class="cls-5" points="72.48 18.97 70.03 20.11 67.57 14.93 72.48 18.97"/>
        <polygon class="cls-3" points="72.48 18.97 67.45 30.6 70.03 20.11 72.48 18.97"/>
        <polyline class="cls-9" points="67.45 30.6 70.03 20.11 72.48 18.97"/>
        <line class="cls-8" x1="67.59" y1="14.71" x2="67.48" y2="30.38"/>
      </g>
      <polygon class="cls-5" points="77.45 27.6 83.27 32.13 73.66 27.83 77.45 27.6"/>
      <g class="cls-10">
        <polygon class="cls-7" points="77.93 25.3 86.93 34.23 72.38 28.41 77.93 25.3"/>
      </g>
      <polygon class="cls-4" points="78.12 25.41 87.12 34.33 72.57 28.51 78.12 25.41"/>
      <polygon class="cls-5" points="78.12 25.41 78.29 28.1 72.57 28.51 78.12 25.41"/>
      <polygon class="cls-3" points="78.12 25.41 87.12 34.33 78.29 28.1 78.12 25.41"/>
      <polyline class="cls-9" points="87.12 34.33 78.29 28.1 78.12 25.41"/>
      <line class="cls-8" x1="72.38" y1="28.43" x2="86.93" y2="34.23"/>
      <g class="cls-10">
        <polygon class="cls-7" points="85.08 20.68 96.69 14.12 86.01 26.98 85.08 20.68"/>
      </g>
      <polygon class="cls-3" points="85.25 20.54 96.85 13.97 86.17 26.83 85.25 20.54"/>
      <polygon class="cls-5" points="85.25 20.54 87.83 21.34 86.17 26.83 85.25 20.54"/>
      <polygon class="cls-4" points="85.25 20.54 96.85 13.97 87.83 21.34 85.25 20.54"/>
      <polyline class="cls-9" points="96.85 13.97 87.83 21.34 85.25 20.54"/>
      <line class="cls-8" x1="85.09" y1="20.68" x2="96.69" y2="14.12"/>
    </g>
    <path class="cls-1" d="M11.15,23.49l-6.02-1.27c-2.61-.68-4.49-2.52-4.49-4.92,0-2.52,2.06-4.57,4.81-4.86l8.09-.02,1.05,3.93h-7.66c-.8,0-1.6.39-1.6,1.18s.53,1.21,1.45,1.44l5.98,1.17s1.93.45,3.04,1.66c0,0,1.34,1.3,1.43,3.04,0,0,.3,2.14-1.33,3.81,0,0-1.36,1.68-4.11,1.62H1.09s-1.09-4.1-1.09-4.1l11.09.03s1.52-.05,1.49-1.25c0,0,.1-1.12-1.43-1.46Z"/>
  </g>
  <path class="cls-1" d="M162.61,29c0,.85-.66,1.51-1.53,1.51-.85,0-1.54-.66-1.54-1.51,0-.83.68-1.49,1.54-1.49.86,0,1.53.66,1.53,1.49ZM159.93,29c0,.66.49,1.19,1.16,1.19s1.14-.53,1.14-1.18-.48-1.2-1.15-1.2-1.15.54-1.15,1.19ZM160.85,29.78h-.35v-1.49c.14-.03.33-.04.57-.04.28,0,.41.04.52.11.08.06.14.18.14.33,0,.16-.12.29-.31.34v.02c.14.05.23.16.27.36.04.23.07.32.11.37h-.37c-.04-.05-.07-.19-.12-.36-.03-.16-.12-.24-.31-.24h-.16s0,.6,0,.6ZM160.86,28.94h.16c.19,0,.34-.06.34-.22,0-.14-.1-.23-.32-.23-.09,0-.15.01-.19.02v.43Z"/>
  <g>
    <path class="cls-2" d="M123.55,32.92h2.05v6.8h-1.32v-4.6c0-.13,0-.32,0-.56s0-.42,0-.55l-1.29,5.71h-1.38l-1.28-5.71c0,.13,0,.31,0,.55s0,.42,0,.56v4.6h-1.32v-6.8h2.07l1.24,5.35,1.23-5.35Z"/>
    <path class="cls-2" d="M130.09,34.8c.35.16.64.41.87.74.21.3.34.65.4,1.04.04.23.05.56.04,1h-3.67c.02.5.2.86.53,1.06.2.13.44.19.73.19.3,0,.54-.08.73-.23.1-.08.19-.2.27-.35h1.34c-.04.3-.2.6-.49.91-.45.49-1.08.73-1.89.73-.67,0-1.26-.21-1.77-.62-.51-.41-.77-1.08-.77-2.01,0-.87.23-1.54.69-2.01s1.06-.7,1.8-.7c.44,0,.83.08,1.18.24ZM128.12,35.93c-.19.19-.3.45-.35.78h2.27c-.02-.35-.14-.61-.35-.8-.21-.18-.47-.27-.78-.27-.34,0-.6.1-.79.29ZM130.46,32.63l-1.4,1.38h-.95l.89-1.38h1.47Z"/>
    <path class="cls-2" d="M131.57,39.73l1.72-2.55-1.64-2.47h1.61l.84,1.46.82-1.46h1.56l-1.65,2.45,1.72,2.57h-1.64l-.87-1.51-.87,1.51h-1.6Z"/>
    <path class="cls-2" d="M138.68,34.09h-1.33v-1.21h1.33v1.21ZM137.35,34.69h1.33v5.03h-1.33v-5.03Z"/>
    <path class="cls-2" d="M142.96,36.5c-.02-.19-.09-.36-.19-.51-.15-.2-.38-.3-.69-.3-.44,0-.75.22-.91.66-.09.23-.13.54-.13.93s.04.66.13.89c.16.42.45.63.89.63.31,0,.53-.08.66-.25.13-.17.21-.38.24-.65h1.34c-.03.4-.18.78-.43,1.14-.41.58-1.02.86-1.83.86s-1.41-.24-1.79-.72c-.38-.48-.57-1.1-.57-1.87,0-.86.21-1.53.63-2.02.42-.48,1-.72,1.75-.72.63,0,1.15.14,1.55.42.4.28.64.78.71,1.5h-1.35Z"/>
    <path class="cls-2" d="M149.41,39.11c-.42.52-1.07.79-1.93.79s-1.51-.26-1.93-.79c-.42-.52-.64-1.16-.64-1.89s.21-1.35.64-1.89c.42-.53,1.07-.8,1.93-.8s1.51.27,1.93.8c.42.53.64,1.16.64,1.89s-.21,1.37-.64,1.89ZM148.36,38.38c.21-.27.31-.66.31-1.17s-.1-.89-.31-1.16-.5-.41-.89-.41-.68.14-.89.41-.31.66-.31,1.16.1.89.31,1.17c.21.27.5.41.89.41s.68-.14.89-.41Z"/>
  </g>
</svg>