<?xml version="1.0" encoding="UTF-8"?>
<svg id="CLIENTES" xmlns="http://www.w3.org/2000/svg" version="1.1" viewBox="0 0 176.6 40">
  <defs>
    <style>
      .cls-1 {
        fill: #231f20;
        stroke-width: 0px;
      }
    </style>
  </defs>
  <path class="cls-1" d="M46.24,31.26c-2.42,0-3.72-.17-5.66-.81-1.52-.5-2.77-1.26-3.9-2.44-1.62-1.68-2.52-3.06-2.93-5.34-.44-2.42,0-4.34.11-4.76l23.47.15s-.04-.5-.06-.66c-.62-4.74-2.9-6.76-4.17-7.75-3.25-2.55-6.71-2.61-8.97-2.61-2.46,0-4.89.6-6.94,1.86-1.63,1.01-2.96,2.13-4.12,3.93-1.48,2.29-2.02,4.1-2.09,7.31-.07,2.93.9,5.42,2.62,7.77,1.52,2.08,3.49,3.27,5.79,4.17,1.09.41,2.3.71,3.38.78,1.07.07,5.55.28,11-.13.74-.06,1.77-.17,1.77-.17v-2.52s-.63.14-.63.14c-2.4.52-5.72,1.09-8.65,1.09ZM43.71,8.65c1.58-.09,3.12.17,4.63.59,1.82.52,2.73,1.2,4,2.39,1.36,1.27,2.16,3,2.43,4.63l-20.47-.07c.24-1.96,1.68-4.19,3.74-5.7,1.53-1.12,3.71-1.74,5.68-1.85Z"/>
  <path class="cls-1" d="M71.63,7.04c-3.29,0-6.23,1.02-8.78,3.45.01-.46.02-.81.04-1.51l.06-1.16h-2.45v.68c.08,2.64.11,5.19.11,8.87,0,6.76-.06,11.78-.17,14.93l-.02.55h2.45l-.03-.55c-.05-1.02-.06-1.88-.05-2.55.04-6.42.07-10.23.07-11.01v-5.08c2.36-3.14,5.25-4.8,8.57-4.8,2.45,0,4.58.98,6.6,2.71l.46.39,1.25-2.06-.38-.3c-2.21-1.71-4.8-2.58-7.73-2.58Z"/>
  <path class="cls-1" d="M113.72,31.57l-.03,1.28h2.27l-.02-.54c-.02-.4-.02-.63-.02-.68l.02-3.02c0-.47-.01-1.45-.02-2.97-.02-.72-.02-1.47-.02-2.29,0-1.32-.02-1.49.02-5.62,0-.44.01-1.5.01-2.3,0-1.47-.25-2.8-.67-3.74-.99-2.2-3.38-4.65-8.33-4.65-.77,0-2.86.16-4.97,1.67,0,0,0,0,0,0-1.23.85-2.13,1.95-2.82,3.08-.84-1.64-3.09-4.75-8.03-4.75-.96,0-4.03.25-6.59,3.13,0-.87.02-1.19.03-1.53l.02-.79h-2.43v.77c0,.44,0,.44.02,1.33.06,3.17.1,6.46.1,9.74,0,2.87-.04,6.87-.12,11.92v1.24h2.37v-1.24c-.08-4.79-.12-8.22-.12-10.48,0-2.77-.1-5.31.11-7.42.15-1.54,2.79-4.58,6.7-4.69.06,0,.12,0,.17,0,4.08,0,5.61,2.68,6.1,4.56.46,1.77.57,3.3.57,7.32,0,2.47-.05,5.95-.16,10.67l-.03,1.28h2.47v-1.24c-.08-4.79-.12-8.22-.12-10.48,0-2.77-.25-5.25.11-6.95.37-1.73,1.81-3.69,4.45-4.7.86-.27,1.83-.43,2.9-.43.09,0,.17,0,.26,0,3.55.29,5.04,2.71,5.49,4.48.46,1.77.44,3.36.44,7.38,0,2.47-.05,5.95-.16,10.67Z"/>
  <path class="cls-1" d="M166.55,25.74l-.15.26c-1,1.73-1.67,2.8-3.66,3.98-1.47.87-3.07,1.36-4.8,1.36-2,0-3.89-.59-5.63-1.74-2.02-1.34-3.37-3.41-4.08-5.76-.32-1.05-.49-2.63-.49-4.68l.03-5.61v-1.87s13.9,0,13.9,0v-1.97h-13.9c0-1.64,0-1.43.02-1.84l.02-.86h-2.57l.03.88c.03.47.04.3.04,1.85l.06,2.76-.06,4.2v3.49c0,2.26.55,4.25,1.32,5.9.77,1.66,1.99,3.12,3.62,4.34,2.28,1.71,4.86,2.58,7.66,2.58s5.54-.95,7.84-2.82c1.21-.96,2.25-2.2,3.08-3.67l.44-.77h-2.73Z"/>
  <path class="cls-1" d="M166.34,7c.5,0,.98.13,1.45.38.47.25.84.62,1.1,1.09.26.47.39.97.39,1.48s-.13,1-.39,1.47c-.26.47-.62.83-1.09,1.09-.47.26-.96.39-1.47.39s-1-.13-1.47-.39c-.47-.26-.83-.62-1.09-1.09-.26-.47-.39-.96-.39-1.47s.13-1.01.4-1.48c.27-.47.63-.84,1.1-1.09.47-.25.95-.38,1.45-.38ZM166.34,7.49c-.41,0-.82.11-1.21.32-.39.21-.7.52-.92.91-.22.4-.33.81-.33,1.23s.11.83.33,1.22c.22.39.52.69.91.91.39.22.8.33,1.22.33s.83-.11,1.22-.33c.39-.22.69-.52.91-.91.22-.39.32-.8.32-1.22s-.11-.84-.33-1.23c-.22-.39-.53-.7-.92-.91-.39-.21-.79-.32-1.21-.32ZM165.04,11.58v-3.17h1.09c.37,0,.64.03.81.09.17.06.3.16.4.31.1.15.15.3.15.47,0,.23-.08.43-.25.61-.17.17-.39.27-.66.29.11.05.2.1.27.17.13.12.28.33.47.63l.39.62h-.62l-.28-.5c-.22-.39-.4-.64-.53-.74-.09-.07-.23-.11-.41-.11h-.3v1.35h-.51ZM165.55,9.8h.62c.3,0,.5-.04.61-.13.11-.09.16-.21.16-.35,0-.09-.02-.18-.08-.25-.05-.07-.12-.13-.22-.17-.09-.03-.26-.05-.51-.05h-.58v.96Z"/>
  <path class="cls-1" d="M17.06,8.84c1.12,0,4.72.01,4.72.01h3.89l-2.68,3.56-1.68,2.3-7.06,9.17-6.92,8.91h22.09v-2.63l-.65.14c-2.13.49-4.91.78-9.46.78-2.75,0-5.3-.02-7.68-.06,7.29-9.56,13.24-17.31,17.69-23.03l.67-.86h-.72s-21.36,0-21.36,0v2.49s.56-.16.93-.24c1.93-.44,4.39-.53,8.23-.54Z"/>
  <path class="cls-1" d="M141.94,23.03c0-.6.02-1.59.04-2.79.03-1.38.04-2.41.04-3.07,0-2.83-.39-4.92-1.18-6.38-.7-1.28-1.83-2.28-3.36-2.98-.83-.38-1.67-.61-2.5-.68-.45-.04-1.31-.07-2.58-.08h-9.68v2.48l.6-.09c3.34-.49,5.97-.73,8.15-.73,1.92,0,3.17.17,4.14.5.95.32,1.82.94,2.4,1.76.71,1.01,1.27,2.16,1.61,4.32-1.28-.89-2.49-1.56-3.6-1.99-1.41-.54-3-.82-4.71-.82-3.07,0-5.85.96-8.21,2.69-3.18,2.33-4.14,5.4-4.14,8.56,0,2.67,1.32,5.52,3.7,7.11,2.35,1.57,5.75,2.13,8.15,2.13,1.2,0,2.47-.2,3.77-.6,1.29-.4,2.46-.96,3.46-1.64.49-.32,1.06-.78,1.7-1.38-.07,1.45-.11,2.35-.14,2.74l-.04.76h2.58l-.02-.75c-.11-2.38-.16-5.34-.16-9.06ZM139.81,26.59c-1.04,1.21-1.95,2.1-2.71,2.65-1.82,1.3-3.86,1.96-6.05,1.96s-5.37-.56-7.24-2.12c-2.42-1.99-2.52-4.48-2.52-5.61,0-1.73.45-2.99.97-3.99.96-1.83,2.23-3.14,4.07-4.22,1.44-.84,3.15-1.1,4.9-1.1,1.89,0,3.66.43,5.28,1.28.8.4,1.81,1.11,3.02,2.12l.05.03c.07.05.15.11.22.18v2.9l.06,4.69c0,.14-.01.55-.05,1.23Z"/>
</svg>