<?xml version="1.0" encoding="UTF-8"?>
<svg id="CLIENTES" xmlns="http://www.w3.org/2000/svg" version="1.1" viewBox="0 0 187.61 40">
  <defs>
    <style>
      .cls-1 {
        fill: #0c7bc0;
      }

      .cls-1, .cls-2 {
        stroke-width: 0px;
      }

      .cls-2 {
        fill: #a2c5e7;
      }
    </style>
  </defs>
  <g>
    <polygon class="cls-1" points="29.09 2.45 33.34 9.28 25.08 22.54 13.68 22.54 29.09 2.45"/>
    <polygon class="cls-1" points="29.09 2.45 33.34 9.28 25.08 22.54 13.68 22.54 29.09 2.45"/>
    <polygon class="cls-2" points="34.06 9.3 37.55 3.69 50.11 21.23 41.55 21.26 34.06 9.3"/>
    <g>
      <path class="cls-1" d="M49.07,25.16c-.04-.06-.08-.1-.1-.12-.02-.02-.06-.04-.11-.06.13-.02.23-.07.3-.15.07-.08.11-.17.11-.28,0-.08-.02-.15-.06-.22-.04-.06-.08-.11-.14-.15-.05-.03-.13-.05-.24-.06-.03,0-.19,0-.48,0h-.31v1.51h.31v-.62h.08c.09,0,.16.02.21.06.06.04.13.15.21.31l.13.25h.38l-.18-.3c-.06-.11-.1-.17-.11-.18ZM48.81,24.77s-.15.02-.33.02h-.12v-.41h.12c.17,0,.28,0,.33.02.04.02.08.04.1.07.02.03.04.07.04.11s-.01.08-.04.12c-.02.03-.06.06-.1.07Z"/>
      <path class="cls-1" d="M49.92,24.17c-.13-.23-.3-.4-.53-.52s-.46-.18-.7-.18-.48.06-.7.18c-.22.12-.4.3-.53.52-.13.23-.19.47-.19.72s.06.48.19.71c.13.23.3.4.52.52.22.13.46.19.71.19s.48-.06.71-.19c.22-.13.4-.3.53-.52.12-.23.19-.46.19-.71s-.06-.49-.19-.72ZM49.68,25.46c-.1.18-.24.32-.42.42-.18.1-.37.15-.57.15s-.39-.05-.57-.15c-.18-.1-.32-.24-.42-.42-.1-.18-.15-.37-.15-.57s.05-.39.15-.58c.1-.19.24-.33.42-.42s.37-.15.56-.15.38.05.56.15c.18.1.32.24.42.42.1.18.15.38.15.58s-.05.39-.15.57Z"/>
    </g>
    <polygon class="cls-1" points="43.32 29.2 41.84 30.87 39.88 30.87 42.62 27.83 41.12 24.95 42.81 24.95 43.68 26.64 45.17 24.95 47.12 24.95 44.38 28.02 45.87 30.87 44.17 30.87 43.32 29.2"/>
    <path class="cls-1" d="M14.9,24.96h1.5l-.15.72c.59-.57,1.23-.76,1.88-.76.44,0,.76.02,1,.21.24.18.4.41.46.74.2-.3.46-.53.84-.73.38-.2.81-.21,1.22-.21.47,0,.8.08,1.06.33.26.25.45.53.45.95,0,.2-.05.56-.16,1.06l-.76,3.61h-1.6l.76-3.61c.09-.46.14-.71.14-.77,0-.16-.05-.29-.14-.38-.1-.1-.25-.14-.44-.14-.4,0-.75.21-1.07.63-.23.3-.42.83-.58,1.6l-.56,2.68h-1.6l.75-3.58c.08-.41.13-.68.13-.8,0-.15-.05-.28-.16-.38-.1-.1-.25-.15-.44-.15-.18,0-.35.05-.54.15-.19.1-.35.25-.49.43-.14.18-.26.42-.36.7-.05.14-.12.44-.22.91l-.57,2.72h-1.6l1.24-5.92Z"/>
    <path class="cls-1" d="M38.88,22.58h1.63l-.35,1.53h-1.63s.34-1.53.34-1.53ZM38.37,24.94l1.61.02-1.25,5.93h-1.61s1.25-5.94,1.25-5.94Z"/>
    <path class="cls-1" d="M29.09.08c.36-.03.71-.05,1.07-.08C15.6,1.98,4.46,11.11,4.91,21.08c.48,10.52,13.7,18.1,29.44,16.87,6.87-.54,13.12-2.67,17.93-5.78-5.26,4.05-12.66,6.93-20.94,7.65C14.71,41.28.64,33.54.02,22.59-.6,11.65,12.46,1.53,29.09.08"/>
    <path class="cls-1" d="M32.21,28.44c0,.42.11.76.32.99.22.24.48.35.79.35.29,0,.56-.1.81-.29.25-.2.45-.5.6-.91.15-.41.23-.8.23-1.18,0-.43-.11-.77-.34-1.04-.23-.26-.5-.39-.8-.39-.47,0-.85.26-1.15.78-.3.52-.45,1.08-.45,1.69M35.98,30.93l-1.5-.05.13-.67c-.29.28-.63.41-.9.53-.28.12-.59.17-.94.17-.61,0-1.03-.25-1.41-.67-.38-.42-.55-.97-.55-1.79,0-.95.23-1.68.77-2.44.54-.76,1.18-1.08,2.06-1.08.79,0,1.44.17,1.84.8l.71-3.22,1.62.03-1.8,8.38Z"/>
    <path class="cls-1" d="M28.29,27.37c0-.07,0-.12,0-.16,0-.42-.1-.74-.29-.95-.19-.21-.46-.31-.79-.31s-.62.12-.88.35c-.26.24-.44.6-.53,1.06h2.48ZM29.58,28.41h-3.98c0,.06,0,.11,0,.14,0,.38.11.68.33.92.23.23.5.35.82.35.53,0,.94-.26,1.23-.79l1.42.23c-.28.55-.65.97-1.11,1.24-.46.28-.98.41-1.55.41-.79,0-1.43-.24-1.92-.72-.49-.48-.74-1.12-.74-1.92s.22-1.47.67-2.08c.61-.82,1.47-1.23,2.6-1.23.72,0,1.29.22,1.71.64.42.43.63,1.03.63,1.81,0,.37-.04.7-.11,1"/>
  </g>
  <g>
    <g>
      <path class="cls-1" d="M180.61,16.97c-.15-.2-.26-.34-.35-.4-.08-.07-.2-.13-.36-.2.45-.07.79-.23,1.03-.5.25-.26.37-.58.37-.96,0-.27-.07-.52-.2-.75-.13-.22-.29-.39-.49-.5-.19-.11-.46-.18-.81-.21-.11-.01-.67-.01-1.66-.01h-1.06v5.21h1.06v-2.14h.27c.29,0,.54.07.73.22.19.15.44.51.73,1.07l.44.85h1.3l-.61-1.05c-.22-.37-.35-.58-.38-.63ZM179.7,15.63c-.15.04-.53.07-1.13.07h-.43v-1.42h.43c.6,0,.98.02,1.13.07.15.06.27.14.36.25.08.1.13.24.13.38s-.04.28-.13.4c-.08.11-.2.2-.34.25Z"/>
      <path class="cls-1" d="M183.53,13.56c-.44-.79-1.05-1.39-1.82-1.81-.77-.42-1.58-.63-2.42-.63s-1.64.21-2.42.63c-.77.42-1.38,1.03-1.82,1.81-.44.79-.66,1.61-.66,2.47s.21,1.66.64,2.44c.44.78,1.04,1.38,1.81,1.81.77.44,1.58.65,2.44.65s1.66-.21,2.44-.65c.77-.44,1.38-1.03,1.81-1.81.43-.78.65-1.59.65-2.44s-.22-1.68-.66-2.47ZM182.71,17.99c-.35.62-.83,1.11-1.46,1.46-.62.35-1.27.53-1.96.53s-1.34-.17-1.95-.53c-.62-.34-1.11-.83-1.46-1.46-.34-.62-.52-1.28-.52-1.97s.17-1.35.53-1.98c.35-.64.85-1.12,1.46-1.46s1.26-.51,1.93-.51,1.32.17,1.95.51c.61.34,1.11.82,1.46,1.46.36.63.53,1.3.53,1.98s-.17,1.34-.52,1.97Z"/>
    </g>
    <polygon class="cls-1" points="160.73 30.91 155.66 36.66 148.89 36.66 158.33 26.19 153.14 16.23 159.01 16.23 161.98 22.05 167.15 16.23 173.86 16.23 164.39 26.83 169.54 36.66 163.67 36.66 160.73 30.91"/>
    <path class="cls-1" d="M62.66,16.26h5.19l-.52,2.48c2.03-1.98,4.25-2.63,6.48-2.63,1.53,0,2.63.08,3.46.73.84.64,1.37,1.43,1.6,2.56.69-1.03,1.57-1.84,2.89-2.53,1.32-.69,2.79-.71,4.21-.71,1.63,0,2.76.26,3.66,1.13.91.87,1.56,1.83,1.56,3.26,0,.71-.18,1.93-.54,3.66l-2.61,12.47h-5.52l2.61-12.47c.32-1.57.48-2.45.48-2.67,0-.56-.17-1-.5-1.33-.34-.34-.85-.49-1.53-.49-1.37,0-2.6.72-3.68,2.17-.78,1.03-1.45,2.88-1.99,5.52l-1.94,9.27h-5.52l2.58-12.35c.29-1.42.44-2.33.44-2.77,0-.53-.19-.98-.55-1.32-.36-.35-.87-.52-1.51-.52-.61,0-1.22.17-1.87.53-.64.36-1.2.85-1.68,1.48-.49.62-.89,1.44-1.24,2.42-.16.47-.4,1.51-.75,3.13l-1.96,9.39h-5.52l4.27-20.42Z"/>
    <path class="cls-1" d="M145.41,8.04h5.62l-1.2,5.3-5.61.03,1.19-5.33ZM143.68,16.2l5.56.06-4.3,20.46-5.56-.04,4.31-20.47Z"/>
    <path class="cls-1" d="M122.4,28.29c0,1.46.37,2.61,1.1,3.43.74.82,1.65,1.22,2.73,1.22,1,0,1.92-.34,2.79-1.02.87-.69,1.56-1.74,2.08-3.15.52-1.41.78-2.76.78-4.06,0-1.47-.4-2.67-1.19-3.57-.8-.91-1.71-1.36-2.75-1.36-1.61,0-2.95.89-3.98,2.69-1.03,1.8-1.56,3.73-1.56,5.82M135.41,36.88l-5.17-.17.46-2.32c-1,.96-2.16,1.43-3.12,1.84-.97.42-2.04.59-3.26.59-2.11,0-3.57-.86-4.88-2.3-1.31-1.44-1.91-3.35-1.91-6.17,0-3.27.8-5.78,2.65-8.41,1.85-2.64,4.07-3.74,7.11-3.74,2.74,0,4.96.58,6.34,2.76l2.43-11.12,5.58.11-6.23,28.92Z"/>
    <path class="cls-1" d="M108.88,24.58c.02-.24.02-.42.02-.54,0-1.45-.34-2.54-1.01-3.26-.67-.73-1.57-1.08-2.71-1.08s-2.14.4-3.04,1.22c-.9.83-1.51,2.06-1.83,3.66h8.56ZM113.32,28.17h-13.73c0,.21-.02.37-.02.48,0,1.31.39,2.36,1.15,3.16.78.8,1.71,1.2,2.82,1.2,1.82,0,3.24-.91,4.25-2.73l4.9.79c-.95,1.91-2.23,3.34-3.83,4.29-1.59.96-3.39,1.43-5.36,1.43-2.72,0-4.93-.83-6.64-2.5-1.7-1.67-2.55-3.87-2.55-6.62s.77-5.07,2.31-7.16c2.09-2.82,5.09-4.24,8.98-4.24,2.47,0,4.45.75,5.91,2.22,1.46,1.49,2.19,3.56,2.19,6.23,0,1.28-.13,2.43-.38,3.45"/>
  </g>
</svg>