<?xml version="1.0" encoding="UTF-8"?>
<svg id="CLIENTES" xmlns="http://www.w3.org/2000/svg" version="1.1" viewBox="0 0 178.56 40">
  <defs>
    <style>
      .cls-1 {
        fill: #231f20;
        stroke-width: 0px;
      }
    </style>
  </defs>
  <path class="cls-1" d="M15.01,34.22c-.47.08-2.32.68-2.32.68,0,0,1.94-.06,2.41-.14,1.68-.29,5.53-1.02,9.29-1.74l.99-.48c-4.09.64-8.55,1.35-10.38,1.67M45.56,32.86c4.02.77,8.38,1.59,10.19,1.91.47.08,2.41.14,2.41.14,0,0-1.85-.6-2.32-.68-1.96-.34-6.93-1.13-11.22-1.81l.94.44ZM38.44,32.32l-3.15,1.43-3.15-1.43c-.15-.04-.33-.04-.48,0-.56.12-9.32,2.9-12.08,3.84-.15.05-.11.26.05.26h31.32c.16,0,.21-.21.05-.26-2.76-.95-11.52-3.72-12.08-3.84-.08-.02-.15-.03-.23-.03-.08,0-.17.01-.25.03M41.41,30.91l.22.1c6.33.09,19.44.28,23.56.28.69,0,3.46-.33,3.46-.33,0,0-2.77-.33-3.46-.33-4.16,0-17.53.19-23.78.28M2.19,30.96s2.77.33,3.46.33c3.98,0,16.38-.18,22.92-.27l.25-.12c-6.47-.1-19.14-.28-23.17-.28-.69,0-3.46.33-3.46.33M55.75,27.13c-2.74.48-11.3,2.12-15.74,2.97-.02.01-.04.03-.05.04l-.12.08c4.4-.69,13.22-2.07,16.01-2.56.47-.08,2.32-.68,2.32-.68,0,0-1.94.06-2.41.14M15.01,27.67c2.65.46,10.78,1.74,15.35,2.45-.06-.05-.12-.1-.18-.15-4.58-.88-12.46-2.39-15.07-2.84-.47-.08-2.41-.14-2.41-.14,0,0,1.85.6,2.32.68M58.71,22.13c-3.09,1.13-12.6,4.77-17.75,6.75-.02.06-.05.11-.08.17,5.18-1.78,14.94-5.15,18.06-6.28.54-.2,2.6-1.3,2.6-1.3,0,0-2.29.48-2.83.67M11.9,22.75c3.01,1.1,12.19,4.26,17.49,6.09-.02-.06-.05-.12-.07-.18-5.25-2.02-14.21-5.45-17.19-6.53-.54-.2-2.83-.67-2.83-.67,0,0,2.06,1.11,2.6,1.3M53.2,20.49c-2.08,1.19-7.94,4.66-12,7.06,0,.07,0,.13,0,.19,4.14-2.27,10.18-5.58,12.27-6.78.41-.24,1.94-1.42,1.94-1.42,0,0-1.8.71-2.22.95M17.38,20.96c2.02,1.15,7.68,4.26,11.79,6.51,0-.07.01-.14.02-.2-4.02-2.39-9.52-5.64-11.53-6.78-.41-.24-2.22-.95-2.22-.95,0,0,1.53,1.19,1.94,1.42M48.51,15.12c-1.47,1.73-5.45,6.57-8.39,10.16.05.04.1.09.14.13,3.07-3.49,7.2-8.2,8.68-9.94.31-.36,1.33-1.99,1.33-1.99,0,0-1.45,1.28-1.76,1.64M21.92,15.47c1.44,1.7,5.43,6.24,8.47,9.71.05-.04.11-.08.17-.12-2.93-3.57-6.77-8.24-8.22-9.94-.31-.36-1.76-1.64-1.76-1.64,0,0,1.02,1.63,1.33,1.99M54.28,14.69c-2.34,1.96-9.11,7.83-13.4,11.57.03.05.05.11.08.16,4.42-3.58,11.41-9.25,13.75-11.22.44-.37,2-2.11,2-2.11,0,0-1.99,1.23-2.43,1.6M16.12,15.2c2.29,1.92,9,7.36,13.42,10.95.03-.06.06-.11.1-.16-4.3-3.74-10.81-9.38-13.09-11.3-.44-.37-2.43-1.6-2.43-1.6,0,0,1.56,1.75,2,2.11M42.24,11.65c-.82,2.21-3.01,8.49-4.55,12.9.07,0,.13-.02.2-.02,1.69-4.35,4.07-10.5,4.88-12.7.16-.44.56-2.32.56-2.32,0,0-.92,1.69-1.08,2.13M28.1,11.84c.82,2.21,3.23,8.44,4.92,12.8.07.02.14.04.21.06-1.54-4.42-3.78-10.81-4.6-13.04-.16-.44-1.08-2.13-1.08-2.13,0,0,.4,1.88.56,2.32M35.15,10.51c0,2.65.14,10.76.22,15.34l.12-.1c.08-4.59.22-12.6.22-15.24,0-.47-.28-2.37-.28-2.37,0,0-.28,1.9-.28,2.37M47.58,9.22c-1.52,2.64-5.87,10.45-8.62,15.43.06.02.12.03.17.05,2.93-4.88,7.51-12.52,9.03-15.15.29-.5,1.16-2.67,1.16-2.67,0,0-1.45,1.84-1.73,2.34M22.68,9.55c1.51,2.62,6.04,10.17,8.97,15.05.06-.01.13-.02.19-.03-2.76-4.98-7.07-12.73-8.58-15.36-.29-.5-1.73-2.34-1.73-2.34,0,0,.87,2.17,1.16,2.67M39.42,6.37c-.57,3.23-2.15,13.19-3.02,18.66.05-.03.1-.06.16-.09,1.06-5.46,2.96-15.25,3.52-18.45.1-.57.17-2.9.17-2.9,0,0-.73,2.22-.83,2.79M30.77,6.49c.58,3.29,2.56,13.5,3.6,18.86l.14.12c-.85-5.35-2.5-15.78-3.09-19.09-.1-.57-.83-2.79-.83-2.79,0,0,.07,2.34.17,2.9M95.52,35.75h1.26c1.36,0,2.23-.92,2.23-2.13s-.87-2.14-2.23-2.14h-1.26v4.27ZM96.78,30.92c1.7,0,2.87,1.16,2.87,2.69s-1.17,2.7-2.87,2.7h-1.87v-5.39h1.87ZM105.6,30.92v.55h-3.29v1.84h2.94v.55h-2.94v1.89h3.33v.55h-3.94v-5.39h3.9ZM115.87,30.92v5.39h-.61v-4.37l-1.97,2.89h-.03l-1.96-2.88v4.36h-.59v-5.39h.62l1.96,2.94,1.96-2.94h.62ZM118.22,30.92h.61v5.39h-.61v-5.39ZM128.11,30.92v.56h-1.81v4.83h-.62v-4.83h-1.81v-.56h4.24ZM130.07,30.92h.61v5.39h-.61v-5.39ZM136.92,30.92v.55h-3.29v1.84h2.94v.55h-2.94v1.89h3.33v.55h-3.94v-5.39h3.9ZM139.57,33.67h1.65c.81,0,1.39-.42,1.39-1.12s-.51-1.07-1.38-1.07h-1.66v2.19ZM141.27,30.92c1.19,0,1.95.64,1.95,1.61,0,.9-.62,1.42-1.46,1.58l1.66,2.2h-.75l-1.56-2.1h-1.54v2.1h-.61v-5.39h2.32ZM145.9,33.67h1.66c.81,0,1.39-.42,1.39-1.12s-.51-1.07-1.38-1.07h-1.66v2.19ZM147.61,30.92c1.19,0,1.95.64,1.95,1.61,0,.9-.62,1.42-1.46,1.58l1.66,2.2h-.75l-1.56-2.1h-1.54v2.1h-.61v-5.39h2.32ZM152.67,34.34h2.46l-1.22-2.75-1.23,2.75ZM154.2,30.88l2.46,5.43h-.65l-.63-1.43h-2.93l-.64,1.43h-.62l2.46-5.43h.57ZM169.82,18.68l-9.5-8.73h-.3v14.43h2.76v-8.59l.99.89h-.03v8.5h-2.62v.35h2.97v-8.55l8.19,7.4h.3v-14.43h-2.76v8.73ZM164.5,16.09l-2.65-2.43h0c-.22-.23-.8-1-.8-1,0,0,.82.51,1.06.72h0s2.65,2.43,2.65,2.43c.19.18.83,1.03.83,1.03,0,0-.9-.56-1.09-.74ZM150.13,10.71l7.59,14.83h-3.32v-.35h2.74l-7.28-14.22h-.17v-.35h.39l.05.1ZM91.74,10.71l.32.15-6.99,14.67h-.27v-.35h.05l6.89-14.48ZM146.23,23l.32.15-1.16,2.39h-3.14v-.35h2.92l1.07-2.19ZM173.99,10.79v14.75h-.47v-.35h.12v-14.4h.35ZM88.39,9.96l-3.49,7.5-3.18-6.84h-.81l-.31-.66h-3.04l6.85,14.43h.16l6.87-14.43h-3.06ZM84.5,18.33l-3.42-7.36h.42l3.21,6.91-.21.45ZM86.89,17.04c-.11.24-.73,1.1-.73,1.1,0,0,.27-1.03.38-1.27h0l1.52-3.26h0c.15-.28.71-1.07.71-1.07,0,0-.24.93-.36,1.23h0s-1.52,3.26-1.52,3.26ZM123.74,22.89h.35v2.65h-10.68v-.35h10.33v-2.3ZM132.74,24.67c.7,0,1.37-.09,2.02-.28.65-.18,1.26-.44,1.82-.78.56-.34,1.07-.74,1.53-1.2.46-.47.85-.99,1.16-1.57l-2.59-1.05c-.21.32-.46.62-.74.9-.28.28-.6.53-.94.74-.34.21-.71.38-1.09.49-.38.12-.78.18-1.18.18-.66,0-1.27-.13-1.85-.4-.57-.27-1.07-.63-1.49-1.08-.1-.11-.2-.22-.29-.33-.04-.08-.08-.16-.11-.24-.24-.57-.37-1.19-.37-1.83s.12-1.24.37-1.82c.24-.58.57-1.1.98-1.53.41-.43.9-.79,1.45-1.05.55-.26,1.16-.39,1.79-.39.39,0,.78.06,1.14.17.37.11.72.28,1.06.48.33.21.64.45.92.71.28.27.52.56.72.87l.08.12,2.74-1.11-.13-.32-2.48,1c-.2-.28-.43-.56-.69-.81-.29-.29-.62-.54-.98-.76-.36-.22-.74-.39-1.14-.52-.4-.12-.82-.19-1.25-.19-.69,0-1.34.14-1.94.42-.6.28-1.12.66-1.56,1.13-.44.47-.79,1.02-1.05,1.64-.26.62-.39,1.28-.39,1.95,0,.23.02.46.05.68-.21-.54-.31-1.12-.31-1.72,0-.65.12-1.27.37-1.87.25-.6.59-1.12,1.01-1.57.42-.45.92-.81,1.49-1.08.57-.27,1.19-.4,1.85-.4.41,0,.8.06,1.18.18.38.12.74.28,1.09.49.34.21.65.45.94.73.28.28.53.57.74.89l2.59-1.05c-.32-.57-.7-1.08-1.16-1.55-.46-.47-.97-.87-1.53-1.2-.56-.34-1.16-.59-1.82-.78-.65-.18-1.33-.28-2.02-.28-1.03,0-2,.2-2.9.59-.91.39-1.7.93-2.38,1.61-.68.68-1.21,1.47-1.61,2.38-.39.91-.59,1.88-.59,2.9s.2,1.99.59,2.9c.39.91.93,1.7,1.61,2.38.68.68,1.47,1.21,2.38,1.61.91.39,1.88.59,2.9.59ZM126.8,17.44c0,.08-.19.4-.19.4,0,0-.19-.32-.19-.4v-1.1h0c.02-.1.19-.39.19-.39,0,0,.17.29.19.39h0v1.1ZM139.67,21.82l.31.17c-.33.6-.73,1.14-1.21,1.62-.47.48-1.01.9-1.58,1.24-.58.35-1.21.62-1.88.81-.67.19-1.37.29-2.09.29-1.06,0-2.06-.21-3-.61-.93-.41-1.76-.96-2.46-1.66l.25-.25c.66.67,1.46,1.2,2.35,1.59.89.39,1.85.58,2.86.58.68,0,1.36-.09,2-.27.64-.18,1.24-.44,1.79-.77.55-.33,1.06-.73,1.51-1.19.45-.46.84-.98,1.15-1.55ZM123.16,21.94h-6.79v-11.17h-.35v11.17h-.5v-12.01h-2.76v14.45h10.41v-2.45ZM114.35,17.45c0,.26-.19,1.31-.19,1.31,0,0-.19-1.04-.19-1.31v-3.59h0c.02-.32.19-1.27.19-1.27,0,0,.17.95.19,1.27h0v3.59ZM108.51,14.74c.39.9.58,1.86.58,2.87s-.2,1.99-.58,2.88c-.39.89-.92,1.68-1.59,2.35-.67.67-1.46,1.2-2.35,1.59-.89.39-1.86.58-2.88.58s-1.97-.2-2.86-.58c-.07-.03-.14-.06-.21-.1.7.22,1.44.33,2.2.33,1.04,0,2.01-.2,2.92-.59.91-.39,1.7-.93,2.38-1.61s1.21-1.47,1.61-2.38c.39-.91.59-1.88.59-2.92s-.2-2-.59-2.91c-.39-.91-.93-1.71-1.61-2.39-.68-.68-1.47-1.21-2.38-1.61-.91-.39-1.88-.59-2.92-.59s-1.99.2-2.9.59c-.91.39-1.7.93-2.38,1.61-.68.68-1.21,1.48-1.61,2.39-.39.91-.59,1.89-.59,2.91s.2,2.01.59,2.92c.4.91.93,1.7,1.61,2.38.22.22.45.43.7.61h-.01c.7.71,1.52,1.27,2.46,1.67.93.41,1.94.61,3,.61s2.09-.21,3.02-.61c.93-.41,1.76-.96,2.46-1.66.7-.7,1.26-1.52,1.66-2.46.41-.94.61-1.95.61-3.02s-.21-2.07-.61-3.01l-.32.14ZM106.6,16.34h0c.02-.1.19-.39.19-.39,0,0,.18.29.19.39h0v1.1c0,.08-.19.4-.19.4,0,0-.19-.32-.19-.4v-1.1ZM94.71,17.44c0,.08-.19.4-.19.4,0,0-.19-.32-.19-.4v-1.1h0c.02-.1.19-.39.19-.39,0,0,.17.29.19.39h0v1.1ZM96.49,19.04c-.25-.59-.37-1.22-.37-1.88s.12-1.27.37-1.87c.25-.6.59-1.12,1.01-1.57.43-.45.93-.81,1.5-1.08.57-.27,1.19-.4,1.84-.4s1.27.13,1.84.4c.57.27,1.07.63,1.5,1.08.13.14.25.29.37.44-.37-.33-.78-.6-1.24-.81-.6-.28-1.25-.43-1.93-.43s-1.34.14-1.94.43c-.59.28-1.12.66-1.56,1.12-.44.47-.8,1.02-1.06,1.64-.26.62-.39,1.28-.39,1.95,0,.37.04.73.12,1.09-.02-.04-.04-.08-.05-.12ZM97.14,19.89c-.24-.57-.36-1.19-.36-1.83s.12-1.24.36-1.82c.24-.58.58-1.1.99-1.53.41-.43.91-.79,1.46-1.05.55-.26,1.15-.39,1.79-.39s1.23.13,1.79.39c.55.26,1.05.61,1.46,1.05.28.3.52.63.73,1,.15.47.22.95.22,1.44,0,.66-.13,1.28-.38,1.88-.25.59-.59,1.11-1.01,1.57-.43.45-.93.82-1.5,1.09-.57.27-1.19.4-1.84.4s-1.27-.13-1.84-.4c-.56-.27-1.05-.62-1.48-1.06-.15-.23-.27-.48-.38-.74ZM148.97,9.96h-.28l-7.38,14.43h3l1.1-2.27h6.81l1.13,2.27h3l-7.38-14.43ZM150.89,19.71h-2.51l1.26-2.66,1.25,2.66ZM148.83,15.35l.61,1.3-1.46,3.07h-1.23l2.07-4.36ZM150.6,21.05l-3.59-.02h0c-.32-.02-1.26-.2-1.26-.2,0,0,.95-.17,1.27-.18h0s3.59.02,3.59.02c.26,0,1.31.2,1.31.2,0,0-1.04.18-1.31.18ZM175.04,11.13c0-.65.53-1.18,1.18-1.18s1.18.53,1.18,1.18-.52,1.18-1.18,1.18-1.18-.53-1.18-1.18ZM177.19,11.13c0-.53-.43-.97-.97-.97s-.98.44-.98.97.44.98.98.98.97-.44.97-.98ZM175.97,11.21v.6h-.22v-1.39h.45c.25,0,.52.07.52.38,0,.16-.1.29-.28.32h0c.19.04.21.13.23.28.02.13.03.28.08.4h-.28c-.02-.08-.04-.17-.05-.25-.02-.12-.02-.23-.08-.29-.05-.06-.13-.05-.2-.06h-.18ZM176.2,10.99c.2,0,.25-.09.25-.2s-.05-.16-.22-.16h-.26v.35h.23Z"/>
</svg>