<?xml version="1.0" encoding="UTF-8"?>
<svg id="CLIENTES" xmlns="http://www.w3.org/2000/svg" version="1.1" viewBox="0 0 142.48 40">
  <defs>
    <style>
      .cls-1 {
        fill: #2dbfba;
      }

      .cls-1, .cls-2, .cls-3, .cls-4 {
        stroke-width: 0px;
      }

      .cls-2 {
        fill: #386639;
      }

      .cls-3 {
        fill: #00afaa;
      }

      .cls-4 {
        fill: #76bc21;
      }
    </style>
  </defs>
  <g id="Overprint_mzo16" data-name="Overprint mzo16">
    <g>
      <path class="cls-3" d="M25.7,27.24c0,.83-.46,1.64-1.85,1.64h-15.31c.26,3.54,2.67,6.2,6.92,6.2,2.65,0,4.24-.92,5.93-2.51.41-.4.97-.76,1.59-.76,1.07,0,2,.76,2,1.99,0,.51-.25.98-.6,1.38-1.94,2.26-5.43,3.74-9.13,3.74-7.64,0-11.68-5.32-11.68-11.72s4.86-11.73,11.47-11.73,10.67,5.22,10.67,11.78M15.03,19.3c-3.53,0-5.94,2.51-6.4,5.69h12.6c-.42-3.06-2.7-5.69-6.2-5.69"/>
      <path class="cls-3" d="M35.39,31.64l6.41-14.65c.34-.82.92-1.32,2.04-1.32,1.24,0,2.16.86,2.16,2.19,0,.32-.04.57-.2.93l-8.44,18.65c-.37.76-1.03,1.27-1.96,1.27s-1.58-.51-1.95-1.27l-8.46-18.65c-.14-.36-.21-.61-.21-.93,0-1.33.94-2.19,2.16-2.19,1.13,0,1.69.5,2.06,1.32l6.4,14.65Z"/>
      <path class="cls-3" d="M67.14,27.24c0,.83-.45,1.64-1.83,1.64h-15.33c.25,3.54,2.67,6.2,6.93,6.2,2.66,0,4.25-.92,5.95-2.51.4-.4.96-.76,1.58-.76,1.08,0,2,.76,2,1.99,0,.51-.25.98-.62,1.38-1.95,2.26-5.44,3.74-9.11,3.74-7.64,0-11.7-5.32-11.7-11.72s4.89-11.73,11.5-11.73,10.65,5.22,10.65,11.78M56.49,19.3c-3.53,0-5.95,2.51-6.4,5.69h12.6c-.41-3.06-2.71-5.69-6.19-5.69"/>
      <path class="cls-3" d="M85.21,18.2c-1.65-1.66-4.06-2.58-7.03-2.58s-5.35.92-7.03,2.58c-1.65,1.65-2.54,4.01-2.54,6.89v11.16c0,1.28,1,2.33,2.29,2.33s2.31-1.05,2.31-2.33v-11.57c.03-2.9,1.64-4.8,4.97-4.83,3.35.02,4.96,1.93,5,4.83v11.57c0,1.28,1.02,2.33,2.28,2.33s2.31-1.05,2.31-2.33v-11.16c0-2.87-.89-5.24-2.56-6.89"/>
    </g>
    <g>
      <path class="cls-1" d="M102.45,16.06c.66,0,1.27.57,1.27,1.29s-.6,1.28-1.27,1.28h-5.85v18.54c0,.88-.67,1.54-1.54,1.54s-1.54-.66-1.54-1.54v-18.54h-3.58c-.71,0-1.29-.56-1.29-1.28s.58-1.29,1.29-1.29h3.58v-3.17c0-5.58,2.41-8.71,8.19-8.71h1.07c.74,0,1.28.56,1.28,1.28s-.54,1.28-1.28,1.28h-.92c-3.53,0-5.27,1.54-5.27,6.1v3.22h5.85ZM108.7,38.71c-.87,0-1.54-.66-1.54-1.54V5.31c0-.87.67-1.54,1.54-1.54s1.53.67,1.53,1.54v31.86c0,.88-.66,1.54-1.53,1.54"/>
      <path class="cls-1" d="M125.33,38.91c-6.85,0-11.68-5.21-11.68-11.72s4.82-11.73,11.68-11.73,11.68,5.22,11.68,11.73-4.81,11.72-11.68,11.72M125.33,18.11c-4.82,0-8.6,3.85-8.6,9.07s3.79,9.07,8.6,9.07,8.6-3.84,8.6-9.07-3.79-9.07-8.6-9.07"/>
    </g>
    <g>
      <path class="cls-3" d="M136.95,35.04c-1.25,0-1.99.89-1.99,1.99s.75,1.97,1.99,1.97c1.22,0,1.97-.88,1.97-1.97s-.74-1.99-1.97-1.99M136.95,38.47h0c-.95,0-1.44-.66-1.44-1.44,0-.78.49-1.46,1.44-1.46s1.39.68,1.39,1.46-.47,1.43-1.39,1.44"/>
      <path class="cls-3" d="M137.45,37.16c.19-.1.27-.3.27-.52,0-.35-.22-.62-.71-.62h-.5c-.14,0-.22.1-.22.22v1.52c0,.13.09.23.22.23.11,0,.22-.1.22-.23v-.49h.28l.33.62c.06.04.11.11.19.11h.01c.13,0,.21-.11.21-.22,0-.04-.01-.08-.02-.11l-.28-.5ZM137.28,36.64c0,.13-.03.22-.23.22h-.33v-.44h.33c.17,0,.22.08.23.22"/>
    </g>
    <g>
      <path class="cls-4" d="M83.09,9.63c-.05-.49-.05-.99-.02-1.48-.43-.11-.85-.17-1.26-.17-.59,0-1.14.11-1.63.36-.38.2-.7.47-.92.79-.03.04-.06.08-.07.13-.94,1.57.32,3.86,2.87,5.1,1.07.53,2.21.79,3.23.78.62,0,1.09-.08,1.48-.22-1.97-.47-3.42-2.54-3.67-5.29Z"/>
      <path class="cls-4" d="M87.32,14.69c-.15.07-.27.12-.36.16.12-.05.24-.1.36-.16Z"/>
      <path class="cls-3" d="M86.95,14.85c-.06.03-.13.05-.19.07,0,0,.07-.02.19-.07Z"/>
      <path class="cls-3" d="M91.64,2.9c-.52-.96-1.29-1.59-2.24-1.82-.06-.01-.13-.03-.22-.04-.57-.1-1.19-.05-1.78.15-2.36.79-4.14,3.74-4.33,6.95,1.24.32,2.49,1.08,3.41,2.17,1.27,1.51,1.54,3.21.84,4.36,1.04-.53,3.27-2.02,4.47-5.58.8-2.33.75-4.6-.15-6.21Z"/>
      <path class="cls-4" d="M86.48,10.33c-.93-1.09-2.18-1.85-3.41-2.17-.03.49-.02.98.02,1.48.26,2.76,1.71,4.83,3.67,5.29.07-.02.13-.05.19-.07.09-.04.21-.09.36-.16.7-1.16.43-2.85-.84-4.36Z"/>
      <path class="cls-2" d="M86.48,10.33c-.93-1.09-2.18-1.85-3.41-2.17-.03.49-.02.98.02,1.48.26,2.76,1.71,4.83,3.67,5.29.07-.02.13-.05.19-.07.09-.04.21-.09.36-.16.7-1.16.43-2.85-.84-4.36Z"/>
    </g>
  </g>
</svg>