<?xml version="1.0" encoding="UTF-8"?>
<svg xmlns="http://www.w3.org/2000/svg" version="1.1" viewBox="0 0 142.25 40">
  <defs>
    <style>
      .cls-1 {
        fill: #d7282e;
      }

      .cls-1, .cls-2, .cls-3 {
        stroke-width: 0px;
      }

      .cls-2 {
        fill: #231f20;
        mix-blend-mode: multiply;
      }

      .cls-4 {
        isolation: isolate;
      }

      .cls-3 {
        fill: #fff;
      }
    </style>
  </defs>
  <g class="cls-4">
    <g id="CLIENTES">
      <g>
        <rect class="cls-3" x="10.19" y="4.36" width="31.27" height="31.27"/>
        <rect class="cls-1" x="12.03" y="6.2" width="27.6" height="27.6"/>
        <path class="cls-1" d="M31.69,12.85c1.2,0,2.17,1.07,2.17,2.4s-.97,2.39-2.17,2.39h-2.73c-1.2,0-2.17-1.07-2.17-2.39,0-.66.24-1.26.63-1.69.39-.43.94-.7,1.53-.7h2.73"/>
        <path class="cls-1" d="M22.75,13.92c.02.93-.65,1.7-1.49,1.72l-1.92.04c-.84.02-1.54-.72-1.55-1.65v-.04c0-.91.66-1.67,1.49-1.68l1.92-.04c.84-.02,1.54.72,1.55,1.65"/>
        <path class="cls-3" d="M19.58,29.81c-.32,0-.68-.02-1.08-.06-.94-.1-1.69-.54-2.17-1.29-.88-1.38-.64-3.51-.27-4.61.64-1.85,3.15-2.28,3.9-2.38,1.16-.14,11.26.11,12.41.13l-.03,1.16c-3.1-.08-11.34-.25-12.25-.14-1.2.14-2.61.64-2.94,1.6-.31.91-.48,2.63.14,3.6.29.45.71.69,1.3.76,2.26.23,2.56-.27,2.91-.85l.04-.07c.32-.54.36-1.4.19-1.85-.07-.18-.43-.62-.95-.83-.34-.14-.65-.14-.94,0-.32.15-.44.49-.48.75-.07.44.05.84.14.95l.11.04.2-.05.27-.47h1.16c0,.51-.31,1.09-.75,1.41-.38.28-.83.35-1.26.21l-.07-.02h-.02c-.52-.15-.89-.74-.95-1.55-.08-1.05.38-1.96,1.17-2.32.58-.27,1.23-.27,1.86-.01.8.32,1.41.99,1.6,1.49.28.72.25,1.99-.28,2.87l-.04.07c-.48.8-1.05,1.47-2.95,1.47"/>
        <path class="cls-3" d="M31.69,18.23h-2.73c-1.52,0-2.75-1.33-2.75-2.98,0-.78.28-1.52.78-2.09.52-.58,1.22-.89,1.97-.89h2.73c1.52,0,2.75,1.34,2.75,2.98s-1.23,2.98-2.75,2.98M28.96,13.43c-.41,0-.8.18-1.1.51-.31.35-.49.81-.49,1.31,0,1,.71,1.81,1.58,1.81h2.73c.87,0,1.58-.81,1.58-1.81s-.71-1.82-1.58-1.82h-2.73Z"/>
        <path class="cls-3" d="M19.3,16.26c-1.14,0-2.08-1-2.1-2.22v-.05c0-1.24.9-2.24,2.06-2.27l1.97-.04c1.14,0,2.08,1,2.11,2.22.02,1.25-.9,2.29-2.06,2.31l-1.97.04M21.22,12.85h-.02l-1.92.04c-.51.01-.92.51-.92,1.1v.04c.01.58.43,1.07.94,1.07h.02l1.92-.04c.52-.01.93-.52.92-1.13-.01-.59-.43-1.08-.94-1.08Z"/>
        <path class="cls-3" d="M28.58,29.88c-.43,0-.86-.26-1.12-.68-.27-.46-.26-1.01.04-1.43l.04-.05c.23-.26.74-.43,1.09-.38l.13.03.14-.16.12.31.13.1c.44.32.65.88.5,1.36-.22.73-.73.87-.95.9h-.12"/>
        <path class="cls-3" d="M32.24,30.13c-.21,0-.41-.06-.59-.18-.32-.21-.53-.61-.56-1.07-.19-.37-.18-.78.04-1.08.22-.32.6-.47,1-.41.19-.02.4.01.62.1l-.05.12c.43.28.76.75.8,1.22.05.5-.22.94-.72,1.19h-.02c-.17.08-.35.12-.52.12"/>
        <path class="cls-3" d="M29.07,10.76c-.4,0-.46-.06-.58-.16l-.2-.44h1.16c0-.35-.28-.55-.48-.57.33.02,2.92-.18,3.82-.28l.13,1.16c-.4.04-1.38.13-2.28.2-.81.06-1.28.09-1.57.09"/>
        <path class="cls-3" d="M24.88,33.59c-.31-.62-.59-2.53-.68-4.01-.21-3.49.52-4.04.76-4.22.7-.53,2-.4,3.14-.28.35.04.68.07.9.07.41-.03.85-.04,1.32-.05,1.05-.03,2.24-.06,3.06-.29.59-.16.92-.74,1.07-1.08.41-.91.42-2.11.02-2.9-.49-.97-2.75-.95-4.25-.94-.45,0-.87,0-1.23-.01-1.46-.03-2.96.02-4.41.07-2.21.08-4.49.15-6.76-.07l-.43-.04-.08-.43c-.46-2.36-1.02-5.3-.25-7.79l.15-.48.49.08c2.38.36,5.08.21,7.02-.38-.01-.35-.04-.73-.07-1.12-.09-1.3-.18-2.64.1-3.6l1.12.32c-.22.77-.13,2.06-.05,3.21.04.58.08,1.13.08,1.61v.41l-.38.14c-1.99.72-4.87.96-7.46.64-.45,1.98-.07,4.25.33,6.33,2.05.16,4.15.09,6.17.02,1.47-.05,2.98-.1,4.49-.07h.02c.31.02.72.01,1.16.01,1.9-.02,4.49-.04,5.3,1.58.55,1.1.55,2.67,0,3.89-.4.9-1.05,1.51-1.82,1.72-.96.28-2.23.31-3.35.33-.46.01-.9.02-1.29.05h-.04c-.28,0-.63-.04-1.04-.08-.69-.07-1.98-.21-2.32.05-.13.11-.45.91-.3,3.26.1,1.68.4,3.21.56,3.53l-1.04.52"/>
        <path class="cls-2" d="M47.86,33.69c-.25,0-.46-.11-.64-.32-.18-.21-.27-.46-.27-.74V7.23c0-.28.09-.53.27-.74.18-.21.4-.32.64-.32h6.63c.24,0,.46.1.64.32.18.21.28.46.28.74v8.74l7.21-9.44.34-.23.37-.12h7.09c.2,0,.39.06.55.18.16.12.28.27.35.46.07.19.1.39.08.6-.02.21-.1.4-.24.56l-8.59,10.84,11.73,13.06c.16.19.26.39.3.6.04.21.03.41-.04.6-.07.19-.18.34-.34.46-.15.12-.34.18-.57.18h-8.31l-.35-.11-.32-.17-9.26-10.35v9.58c0,.28-.09.52-.28.74-.18.21-.4.32-.64.32h-6.63"/>
        <path class="cls-2" d="M91.7,7.19c0-.28.09-.53.28-.74.18-.21.41-.31.67-.31h6.3c.24,0,.46.1.64.31.18.21.27.46.27.74v17.83c0,3.39-1.13,5.79-3.39,7.2-2.08,1.26-5.1,1.89-9.05,1.89s-7.1-.63-9.08-1.89c-2.18-1.41-3.27-3.92-3.27-7.55V7.19c0-.28.09-.53.27-.74.18-.21.41-.31.67-.31h6.26c.27,0,.49.1.67.31.18.21.27.46.27.74v14.46c0,1.61.33,2.76.99,3.44.66.68,1.77,1.02,3.32,1.02,1.47,0,2.53-.36,3.18-1.07.65-.71.98-1.88.98-3.49V7.19"/>
        <path class="cls-2" d="M123.93,33.69c-.14,0-.3-.06-.47-.18-.17-.12-.29-.26-.35-.42l-1.55-3.01h-11.46l-1.57,3.01-.37.42-.49.18h-6.33c-.41,0-.7-.16-.89-.49-.18-.33-.17-.69.03-1.09l12.56-25.38c.06-.14.18-.27.37-.39.18-.12.34-.18.46-.18h5.41l.46.18.37.42,11.83,25.38c.16.4.16.75,0,1.07-.16.32-.45.47-.85.47h-7.15M113.09,23.91h5.69l-2.76-6.53-2.93,6.53Z"/>
      </g>
    </g>
  </g>
</svg>