<?xml version="1.0" encoding="UTF-8"?>
<svg id="CLIENTES" xmlns="http://www.w3.org/2000/svg" version="1.1" viewBox="0 0 170.82 40">
  <defs>
    <style>
      .cls-1 {
        fill: #231f20;
        stroke-width: 0px;
      }
    </style>
  </defs>
  <path class="cls-1" d="M9.58,13.1c.16,0,.29.13.29.29s-.13.29-.29.29c-.16,0-.29-.13-.29-.29,0-.16.13-.29.29-.29M9.58,14.23c.46,0,.84-.38.84-.84s-.37-.84-.84-.84-.84.38-.84.84.38.84.84.84M34.74,27.34c-.21,0-.39.17-.39.39s.17.39.39.39.39-.17.39-.39-.17-.39-.39-.39M37.77,35.28l-.12-.29c.18-.09.36-.19.53-.3l.12.29c-.17.11-.35.2-.53.29M36.36,31.89c.23.17.5.29.8.34l.91,2.19c-.17.11-.35.21-.53.3l-1.17-2.82ZM36.58,35.09c-.19.06-.39.11-.59.15l-.76-3.81c.17-.07.34-.17.5-.29l.12.3.73,3.65ZM36.7,35.7c-.19.06-.39.11-.59.15l-.06-.3c.2-.04.4-.09.59-.15l.06.3ZM34.74,28.51c-.44,0-.79-.35-.79-.79,0-.44.35-.79.79-.79.44,0,.79.35.79.79,0,.44-.35.79-.79.79M34.48,30.61v-.46c.08.04.17.06.26.06s.18-.02.26-.06v.46c0,.14-.12.26-.26.26-.14,0-.26-.12-.26-.26M35,35.36c-.09,0-.17,0-.26,0-.12,0-.23,0-.34-.01v-3.54l.06-.32c.09.02.19.03.28.03.07,0,.13,0,.2-.02l.06.31v3.54ZM35,35.98c-.09,0-.17,0-.26,0-.12,0-.23,0-.34,0v-.31c.11,0,.23.01.34.01.09,0,.18,0,.26,0v.31ZM34.18,30.16c0,.14-.12.26-.26.26s-.26-.12-.26-.26v-.36s.08.01.13.01c.13,0,.24-.04.34-.1.01.05.03.1.05.14v.31ZM33.41,35.23c-.2-.04-.39-.1-.59-.16l.72-3.62.14-.35c.15.13.31.23.48.31l-.76,3.82ZM33.29,35.83c-.2-.04-.4-.09-.59-.15l.06-.3c.19.06.39.11.59.16l-.06.3ZM31.87,34.68c-.18-.09-.36-.2-.53-.31l.89-2.15c.3-.06.58-.19.81-.38l-1.18,2.84ZM31.64,35.24c-.18-.09-.36-.19-.53-.3l.12-.29c.17.11.35.21.53.3l-.12.28ZM31.86,31.95c-.7,0-1.26-.57-1.26-1.26,0-.54.44-.98.98-.98.42,0,.75.34.75.75h0c0,.32-.26.57-.57.57-.24,0-.43-.19-.43-.43,0-.08-.07-.15-.15-.15s-.15.07-.15.15c0,.4.33.73.73.73.48,0,.88-.39.88-.88h0c0-.18-.04-.34-.12-.49,0,0,0-.02,0-.03v-1.75c0-.13.02-.25.06-.36.13.35.32.71.55,1.03,0,.01.02.02.03.04v.29c0,.18.08.34.2.46v.52c0,.13.04.24.11.34-.08.81-.77,1.45-1.61,1.45M34.11,26.37v.46c-.28.2-.46.52-.46.89s.18.7.46.89v.57c0,.18-.15.33-.33.33-.18,0-.33-.15-.33-.33v-2.83c.2,0,.41.01.65.02M32.61,25.87s0,0,0,0c0-.05.1-.15.26-.15h0s.02,0,.03,0c.4.03.97.05,1.77.05s1.38-.02,1.77-.05c.01,0,.02,0,.03,0,.16,0,.26.09.26.14,0,0,0,0,0,0,0,.02-.01.05-.05.09-.04.03-.1.06-.18.07-.42.03-1.01.06-1.83.06s-1.41-.02-1.84-.06c-.08,0-.14-.03-.18-.07-.04-.03-.05-.06-.05-.09M32.55,24.01c-.39,0-.71-.32-.71-.71,0-.39.32-.7.71-.71h.14v.48s-.09-.04-.14-.04c-.15,0-.28.12-.28.28s.12.28.28.28c.05,0,.1-.02.14-.04v.46h-.14ZM31.84,21.59c0-.39.32-.7.71-.71h.14v.47s-.09-.04-.14-.04c-.15,0-.28.12-.28.28s.12.28.28.28c.05,0,.1-.02.14-.04v.46h-.14c-.39,0-.71-.32-.71-.71M31.84,19.88c0-.39.32-.7.71-.71h.14v.46s-.09-.04-.14-.04c-.15,0-.28.12-.28.28s.12.28.28.28c.05,0,.1-.02.14-.04v.47h-.14c-.39,0-.71-.32-.71-.71M31.98,15.62h.7v1.76h-.7v-1.76ZM30.81,10.61c-1.2,0-2.18.98-2.18,2.18v18.4c0,3.1-2.51,5.6-5.61,5.61-3.1,0-5.6-2.51-5.61-5.61v-10.68c0-.73-.36-1.37-.9-1.76.23-.21.41-.45.55-.73.77.56,1.26,1.47,1.27,2.49v10.68c0,2.59,2.1,4.69,4.69,4.69,2.59,0,4.69-2.1,4.69-4.69V12.79c0-1.71,1.39-3.09,3.1-3.1,1.71,0,3.09,1.39,3.1,3.1v12.67c-.38,0-.68-.02-.92-.04v-12.63c0-1.2-.98-2.18-2.18-2.18M28.5,35.07c-.22.31-.46.6-.73.87-.27.27-.56.51-.87.73l-.45-.67c.53-.38,1-.85,1.38-1.38l.67.45ZM23.02,37.9c-.41,0-.81-.04-1.2-.11l.16-.79c.34.06.69.09,1.04.09.36,0,.7-.03,1.04-.09l.16.79c-.39.07-.79.11-1.2.11M19.14,36.67c-.31-.22-.6-.46-.87-.73-.27-.27-.51-.56-.73-.87l.67-.45c.38.53.85,1,1.38,1.38l-.45.67ZM16.97,32.88c-.39,0-.71-.32-.71-.71,0-.39.32-.7.71-.71,0,0,0,0,0,0h.15c0,.17.02.35.05.52-.05-.05-.12-.08-.2-.08-.15,0-.28.12-.28.28s.12.28.28.28c.11,0,.2-.06.25-.16.02.12.05.24.08.36.02.07.04.14.06.22h-.39ZM16.26,30.46c0-.39.32-.7.71-.71h.14v.47s-.09-.04-.14-.04c-.15,0-.28.12-.28.28s.12.28.28.28c.05,0,.1-.02.14-.04v.46h-.14c-.39,0-.71-.32-.71-.71M16.26,28.75c0-.39.32-.7.71-.71h.14v.46s-.09-.04-.14-.04c-.15,0-.28.12-.28.28s.12.28.28.28c.05,0,.1-.02.14-.04v.47h-.14c-.39,0-.71-.32-.71-.71M14.8,19.17h-.67c-1.27,0-2.29-1.03-2.3-2.3v-.92c.09.02.19.03.28.04v.89c0,1.11.9,2.02,2.02,2.02h.67c1.12,0,2.02-.91,2.02-2.02v-.67c0-.79-.64-1.42-1.42-1.42h-.67c-.78,0-1.42.63-1.42,1.42,0,0,0,0,0,0h0s0,.67,0,.67c0,.46.37.83.83.83h.67c.46,0,.83-.37.83-.83v-.67c0-.13-.1-.23-.23-.23h-.67c-.13,0-.23.1-.23.23v.61h.2v-.33c0-.08.06-.14.14-.14.04,0,.08.02.1.05.02.02.03.05.03.09v.4c0,.12-.09.21-.21.21h-.34c-.12,0-.21-.09-.21-.21v-.67c0-.28.23-.51.51-.51h.67c.28,0,.51.23.51.51v.67c0,.61-.49,1.1-1.1,1.1h-.67c-.61,0-1.1-.49-1.1-1.1v-.67h0c0-.26.06-.5.16-.72.08-.1.14-.2.19-.32.31-.41.8-.67,1.35-.67h.67c.94,0,1.7.76,1.7,1.7v.67c0,1.27-1.03,2.29-2.3,2.3M11.26,14.87c0-.07.01-.15.03-.22.08-.27.32-.44.59-.44.06,0,.11,0,.17.02.2.06.33.24.33.44,0,.04,0,.08-.02.13-.04.15-.18.24-.32.24-.03,0-.06,0-.09-.01-.08-.02-.16.02-.19.1-.02.08.02.16.1.19.06.02.12.02.18.02.28,0,.54-.18.62-.46.02-.07.03-.14.03-.21,0-.33-.22-.64-.55-.73-.08-.02-.17-.04-.25-.04-.31,0-.6.16-.77.42h-.26c.19-.26.3-.58.3-.93,0-.87-.71-1.58-1.58-1.58-.26,0-.51.07-.73.18v-.38s.06-.02.09-.04c.24-.13.5-.18.76-.18s.53.06.76.18c.46.24.82.65.99,1.19l.04.17c.05.19.22.28.36.3.14.03.28.02.4.04.57.07.95.65.95,1.26,0,.13-.02.27-.05.39-.13.46-.55.76-1,.76-.09,0-.19-.01-.29-.04-.35-.1-.58-.42-.58-.77M10.45,16.69h-2.22c-.42,0-.76.34-.76.76v2.72c0,.9-.73,1.63-1.63,1.63-.52,0-1.01-.14-1.43-.38-.08-.2-.12-.42-.13-.64.42.35.97.56,1.56.56.65,0,1.17-.52,1.17-1.17v-2.72c0-.31.11-.58.3-.8.08-.09.13-.19.15-.3h2.93c.08,0,.15-.07.15-.15s-.07-.15-.15-.15h-2.93c-.02-.11-.07-.21-.15-.3-.19-.22-.3-.49-.3-.8v-7.27c0-.65-.52-1.17-1.17-1.17-.6,0-1.14.21-1.57.57,0-.22.03-.36.1-.55.43-.3.95-.47,1.47-.47.9,0,1.62.73,1.63,1.63v7.27c0,.42.34.76.76.76h2.22c.27,0,.49.22.49.49,0,.27-.22.49-.49.49M4.35,20.09c.33.41.83.68,1.38.71.04,0,.07,0,.11,0,.35,0,.64-.29.64-.64v-2.72c0-.44.16-.84.43-1.15.05-.06.05-.14,0-.2-.27-.31-.43-.71-.43-1.15v-7.27c0-.35-.29-.64-.64-.64-.6,0-1.14.28-1.5.71-.02-.09-.04-.18-.06-.28.39-.41.94-.66,1.55-.66.48,0,.87.39.87.87v7.27c0,.38.14.73.38,1,.06.07.09.16.09.25,0,.09-.03.18-.09.25-.23.27-.38.62-.38,1v2.72c0,.48-.39.87-.87.87-.61,0-1.16-.25-1.55-.66.01-.09.03-.19.06-.28M5.78,19.8c-.14,0-.26-.12-.26-.26,0-.14.12-.26.26-.26h.4v.52h-.4ZM6.18,18.45v.52h-.4c-.14,0-.26-.12-.26-.26,0-.14.12-.26.26-.26h.4ZM5.78,17.63h.4v.52s-.4,0-.4,0c-.14,0-.26-.12-.26-.26,0-.14.12-.26.26-.26M6.41,5.05c1.18,0,2.13.96,2.13,2.13,0,.58,0,1.16,0,1.74h-.77v-1.25c0-1.07-.86-1.93-1.93-1.93-.42,0-.85.1-1.23.29.38-.59,1.04-.98,1.79-.98M9.58,12.12c.7,0,1.27.57,1.28,1.28,0,.7-.57,1.27-1.28,1.28-.7,0-1.27-.57-1.28-1.28,0-.7.57-1.27,1.28-1.28M11.09,6.04s.02,0,.03,0c.07,0,.13.05.15.12,0,0,0,.02,0,.03,0,.07-.05.13-.12.15l-2.33.46c-.02-.1-.04-.2-.07-.3l2.34-.46ZM11.14,8.75c.07.01.12.08.12.15,0,0,0,.02,0,.03-.01.07-.08.12-.15.12,0,0-.02,0-.03,0l-2.23-.44c0-.1,0-.21,0-.31l2.29.46ZM13.54,13.45s.01,0,.02,0c.03,0,.06-.02.09-.02.15,0,.28.12.28.28s-.12.28-.28.28-.28-.12-.28-.28c0-.11.07-.21.17-.26M14.6,13.43c.15,0,.28.12.28.28s-.12.28-.28.28-.28-.12-.28-.28.12-.28.28-.28M15.55,13.45c.15,0,.28.12.28.28s-.12.28-.28.28-.28-.12-.28-.28.12-.28.28-.28M17.55,14.15c.03-.09.1-.16.17-.22.06-.05.13-.07.17-.08-.07.55-.4,1.02-.86,1.29-.05-.07-.1-.14-.15-.2.31-.18.55-.45.68-.79M17.55,12.84l.03-.07s.03-.04.06-.04c.02,0,.04.01.05.03l.05.08c.1.22.16.45.16.71-.13,0-.25.06-.36.14-.11.08-.22.2-.27.36,0,.02-.02.05-.03.07l-.34-.35c.3-.24.53-.56.66-.93M20.84,20.42c-.13.01-.25.04-.36.09,0-2.18-1.33-4.04-3.22-4.83-.03-.09-.06-.18-.09-.26.05-.03.11-.07.16-.1,2.03.82,3.47,2.79,3.51,5.11M21.01,20.75s.04.05.04.11c0,.07-.03.1-.06.13-.02.01-.03.02-.04.03-.46.02-.82.39-.82.85v1.74c0,.72.58,1.3,1.3,1.3.12,0,.24-.02.35-.05.04-.01.08-.02.12-.02.13,0,.25.06.34.15-.24.14-.52.22-.81.22-.89,0-1.61-.72-1.61-1.61v-1.74c0-.63.5-1.14,1.13-1.16.01,0,.04.02.05.04M21.82,24.04c.06,0,.12.02.19.02.38,0,.71-.18.93-.45l.03-.03s.02-.01.03-.01c.02,0,.04.02.04.04,0,0,0,0,0,.02,0,0,0,0,0,.01h0c0,.48-.21.91-.55,1.2-.14-.17-.36-.28-.58-.28-.03,0-.06,0-.09,0v-.52ZM20.94,27.86h0s0,0,0,0ZM20.48,27.33v-2.07s.06.03.09.05c.03.01.05.03.08.04.06.03.13.06.2.08v1.82s-.05,0-.07.01c-.03,0-.05,0-.08.01-.05.01-.1.03-.15.04-.02,0-.04.01-.06.02M21.43,31.74c.12,0,.24-.02.35-.05.04-.01.08-.02.12-.02.13,0,.25.06.34.15-.24.14-.52.22-.81.22-.89,0-1.61-.72-1.61-1.61v-1.74c0-.63.5-1.14,1.13-1.16.01,0,.04.02.05.04.02.03.04.05.04.11,0,.07-.03.1-.06.13-.02.01-.03.02-.04.03-.46.02-.82.39-.82.85v1.74c0,.72.58,1.3,1.3,1.3M21.82,30.86c.06,0,.12.02.19.02.38,0,.71-.18.93-.45l.03-.03s.02-.01.03-.01c.02,0,.04.02.04.04,0,0,0,0,0,.01,0,0,0,0,0,.01h0c0,.48-.21.91-.55,1.2-.14-.17-.36-.28-.58-.28-.03,0-.06,0-.09,0v-.52ZM23.02,33.37c1.16,0,2.1-.9,2.17-2.04.06,0,.12-.02.18-.03,0,0,.01,0,.02,0,.06-.02.11-.03.17-.05-.03,1.38-1.15,2.49-2.54,2.49-1.04,0-1.94-.63-2.33-1.53.15.06.31.11.48.13.38.62,1.07,1.04,1.85,1.04M24.57,26.84c-.12,0-.24.02-.35.05-.04.01-.08.02-.12.02-.13,0-.25-.06-.34-.15.24-.14.52-.22.81-.22.89,0,1.6.72,1.61,1.61v1.74c0,.63-.5,1.14-1.13,1.16-.02,0-.04-.02-.05-.04-.02-.03-.04-.05-.04-.11,0-.07.03-.1.06-.13.02-.01.03-.02.04-.03.46-.02.82-.39.82-.85v-1.74c0-.72-.58-1.3-1.3-1.3M24.18,27.7c-.06-.01-.12-.02-.19-.02-.38,0-.72.18-.93.45l-.03.03s-.02.01-.03.01c-.02,0-.04-.02-.04-.04,0,0,0,0,0-.02,0,0,0,0,0-.01,0,0,0,0,0,0,0-.48.21-.9.54-1.2.14.18.36.29.59.29.03,0,.06,0,.09,0v.5ZM25.56,24.41v2.1c-.11-.07-.23-.13-.36-.17v-1.83s.08,0,.11-.02c.07-.01.13-.03.19-.05.02,0,.04-.01.06-.02M24.57,20.01c-.12,0-.24.02-.35.05-.04.01-.08.02-.12.02-.13,0-.25-.06-.34-.15.24-.14.52-.22.81-.22.89,0,1.6.72,1.61,1.61v1.74c0,.63-.5,1.14-1.13,1.16-.02,0-.04-.02-.05-.04-.02-.03-.04-.05-.04-.11,0-.07.03-.1.06-.13.02-.01.03-.02.04-.03.46-.02.82-.39.82-.85v-1.74c0-.72-.58-1.3-1.3-1.3M24.18,20.88c-.06-.01-.12-.02-.19-.02-.38,0-.72.18-.93.45l-.03.03s-.02.01-.03.01c-.02,0-.04-.02-.04-.04,0,0,0,0,0-.02,0,0,0,0,0-.01,0,0,0,0,0,0,0-.48.21-.9.54-1.2.14.18.36.29.59.29.03,0,.06,0,.09,0v.5ZM25.56,17.59v2.1c-.11-.07-.23-.13-.36-.17v-1.83s.02,0,.04,0c.05,0,.1-.02.15-.03,0,0,0,0,0,0,.06-.02.11-.03.17-.05M24.57,13.19c-.12,0-.24.02-.35.05-.04.01-.08.02-.12.02-.13,0-.25-.06-.34-.15.24-.14.52-.22.81-.22.89,0,1.6.72,1.61,1.61v1.74c0,.63-.5,1.14-1.13,1.16-.02,0-.04-.02-.05-.04-.02-.03-.04-.05-.04-.11,0-.07.03-.1.06-.13.02-.01.03-.02.04-.03.46-.02.82-.39.82-.85v-1.74c0-.72-.58-1.3-1.3-1.3M24.18,14.05c-.06,0-.12-.02-.19-.02-.38,0-.72.18-.93.45l-.03.03s-.02.01-.03.01c-.02,0-.04-.02-.04-.04,0,0,0,0,0-.01,0,0,0,0,0-.01,0,0,0,0,0,0h0c0-.48.21-.9.54-1.2.14.18.36.29.59.29.03,0,.06,0,.09,0v.5ZM25.59,10.74s.02,0,.03,0c.03,0,.05.02.08.02.04.01.08.02.13.03.03,0,.05,0,.08.01.02,0,.03,0,.05,0-.25.61-.38,1.27-.38,1.97v.07c-.11-.07-.23-.13-.36-.17.01-.69.15-1.34.39-1.95M25.29,10.2s-.01-.04-.01-.07c0-.04,0-.07.05-.11.04-.04.08-.05.12-.05.02,0,.05,0,.06,0,0,0,0,0,0,0,.16.15.37.23.58.23s.44-.08.6-.25l1.23-1.23c.25-.25.38-.59.38-.92,0-.33-.13-.67-.38-.92-.09-.09-.18-.16-.28-.21-.15-.08-.23-.24-.23-.4,0,0,0-.01,0-.02.27.07.52.21.73.42.31.31.47.72.47,1.14,0,.36-.12.72-.36,1.01-.03.04-.07.08-.11.12l-1.23,1.23c-.23.23-.52.34-.82.34s-.58-.11-.8-.32M26.9,7.1c-.23-.23-.53-.34-.83-.34-.05,0-.1,0-.15,0h-.04s0,0,0,0c-.01,0-.02,0-.03-.01,0,0-.01-.02-.01-.03,0-.01,0-.02.01-.03,0,0,.01-.02.02-.02.31-.31.72-.47,1.13-.47.04,0,.07,0,.11,0,0,.02,0,.05,0,.07,0,.23.1.45.29.59l-.37.37c-.04-.05-.08-.1-.12-.14M30.81,7.18c.7,0,1.36.13,1.98.36-.04.12-.07.24-.08.36-.59-.23-1.23-.36-1.9-.36-.67,0-1.31.13-1.9.36,0-.03,0-.06,0-.09h0c0-.1,0-.19-.02-.29,0,0,0,0,0,0,.6-.22,1.25-.34,1.92-.34M33.33,7.22s.04-.01.07-.01c.04,0,.07,0,.11.05.04.04.05.08.05.11,0,.02,0,.05,0,.06,0,0,0,0,0,0-.15.16-.23.37-.23.58,0,.22.08.44.25.6l1.23,1.23c.25.25.59.38.92.38.33,0,.67-.13.92-.38.09-.09.16-.18.21-.28.08-.15.24-.23.4-.23,0,0,.01,0,.02,0-.07.27-.21.52-.42.73-.31.31-.72.47-1.14.47-.41,0-.82-.16-1.14-.47l-1.23-1.23c-.23-.23-.34-.52-.34-.82,0-.29.11-.58.32-.8M36.43,8.84c.23-.23.34-.53.34-.83,0-.05,0-.1,0-.15v-.04s0-.02,0-.03l-.11-.11.11.11s.02-.01.03-.01c.01,0,.02,0,.03.01,0,0,0,0,.01,0,0,0,0,0,0,0,.31.31.47.72.47,1.13,0,.04,0,.07,0,.11-.02,0-.05,0-.07,0-.23,0-.45.1-.59.29l-.37-.37c.05-.04.1-.08.14-.12M36.41,12.59c-.13.01-.25.04-.36.08-.02-.64-.15-1.26-.37-1.82.01,0,.03,0,.04,0h0c.11,0,.23-.01.34-.03.21.55.33,1.15.35,1.77M36.57,12.92s.04.05.04.11c0,.07-.03.1-.06.13-.02.01-.03.02-.04.03-.46.02-.82.39-.82.85v1.74c0,.72.58,1.3,1.3,1.3.12,0,.24-.02.35-.05.04-.01.08-.02.12-.02.13,0,.25.06.34.15-.24.14-.52.22-.81.22-.89,0-1.61-.72-1.61-1.61v-1.74c0-.63.51-1.14,1.13-1.16.01,0,.04.02.05.04M37.38,16.2c.06,0,.12.02.19.02.38,0,.71-.18.93-.45l.03-.03s.02-.01.03-.01c.02,0,.04.02.04.04,0,0,0,0,0,.02,0,0,0,0,0,.01,0,.48-.21.91-.55,1.2-.14-.17-.36-.28-.58-.28-.03,0-.06,0-.09,0v-.52ZM36.05,19.49v-2.05s.05.03.07.04c.09.05.19.09.29.12v1.81c-.07,0-.15.02-.22.04-.05.01-.1.03-.14.04M36.41,24.43v.99c-.11,0-.23.02-.36.02v-1.17h0c.06.03.11.06.17.09,0,0,0,0,0,0,.06.03.12.05.19.07M36.99,23.91c.12,0,.24-.02.35-.05.04-.01.08-.02.12-.02.13,0,.25.06.34.15-.24.14-.52.22-.81.22-.89,0-1.61-.72-1.61-1.61v-1.74c0-.63.51-1.14,1.13-1.16.01,0,.04.02.05.04.02.03.04.05.04.11,0,.07-.03.1-.06.13-.02.01-.03.02-.04.03-.46.02-.82.39-.82.85v1.74c0,.72.58,1.3,1.3,1.3M37.38,23.03c.06,0,.12.02.19.02.38,0,.71-.18.93-.45l.03-.03s.02-.01.03-.01c.02,0,.04.02.04.04,0,0,0,0,0,.02,0,0,0,0,0,.01,0,.48-.21.91-.55,1.2-.14-.17-.36-.28-.58-.28-.03,0-.06,0-.09,0v-.52ZM35.82,29.8v.36c0,.14-.12.26-.26.26-.14,0-.26-.12-.26-.26v-.31s.04-.09.05-.14c.1.06.22.1.34.1.04,0,.09,0,.13-.01M35.69,29.51c-.18,0-.33-.15-.33-.33v-.57c.28-.2.46-.52.46-.89s-.18-.7-.46-.89v-.46c.24,0,.46-.01.65-.02v2.83c0,.18-.15.33-.33.33M36.82,28.04s.01.1.01.15v1.75s0,.02,0,.02c-.08.15-.12.31-.12.49,0,0,0,0,0,0,0,.48.39.87.88.87.4,0,.73-.33.73-.73,0-.08-.07-.15-.15-.15s-.15.07-.15.15h0c0,.24-.19.43-.43.43-.32,0-.57-.26-.57-.57h0c0-.42.34-.75.75-.75.54,0,.98.44.98.98,0,.7-.57,1.26-1.26,1.26-.8,0-1.46-.58-1.59-1.34.14-.1.23-.26.23-.45v-.52c.12-.11.2-.28.2-.46v-.29s.02-.02.03-.04c.19-.26.35-.54.47-.82M16.01,24.42c.1.18.15.41.14.68,0,.61-.23,1.38-.52,1.98-.05.1-.1.2-.14.29.19-.58.32-1.24.32-1.88,0-.41-.05-.81-.19-1.17.12.04.25.09.38.09M15,27.82h0c-.1-.41-.16-.9-.16-1.41,0-.76.14-1.53.48-2.04h0c.13.32.2.71.2,1.12,0,.81-.23,1.7-.52,2.33M14.59,27.29c-.03-.08-.05-.16-.07-.25-.12-.46-.21-1-.21-1.5,0-.43.07-.83.22-1.1.03-.06.07-.11.11-.16.03,0,.07,0,.1,0,.09,0,.2-.01.29-.02-.36.59-.49,1.38-.49,2.14,0,.3.02.6.06.88M11.88,25.33c-.74.44-1.58.77-2.15.9.61-.28,1.28-.69,1.88-1.19.74-.61,1.38-1.35,1.67-2.16.04.07.08.14.11.21.06.1.12.2.19.29.02.02.05.05.07.07-.14.65-.89,1.35-1.78,1.87M9.26,26.11c.33-.64.86-1.39,1.5-2.02.68-.68,1.48-1.22,2.26-1.38-.24.75-.86,1.5-1.6,2.11-.69.57-1.49,1.03-2.16,1.29h0ZM9.18,25.63c.05-.15.11-.31.19-.48.3-.66.78-1.46,1.34-2.09.52-.59,1.1-1.01,1.62-1.06.02.03.05.05.07.08.12.12.28.23.42.33.01,0,.02.02.04.02-.83.2-1.63.77-2.31,1.44-.55.55-1.03,1.17-1.37,1.76M6.18,8.53h-.4c-.14,0-.26-.12-.26-.26,0-.14.12-.26.26-.26h.4v.52ZM6.18,9.35h-.4c-.14,0-.26-.12-.26-.26,0-.14.12-.26.26-.26h.4v.52ZM6.18,10.18h-.4c-.14,0-.26-.12-.26-.26,0-.14.12-.26.26-.26h.4v.52ZM6.18,11h-.4c-.14,0-.26-.12-.26-.26,0-.14.12-.26.26-.26h.4v.52ZM6.18,13.63h-.52v-.26c.05-.1.08-.21.08-.33,0-.34-.28-.62-.62-.62-.29,0-.53.24-.53.53,0,.08.07.15.15.15s.15-.07.15-.15c0-.12.1-.23.23-.23.18,0,.32.14.32.32,0,.24-.2.44-.44.44-.32,0-.58-.26-.58-.59,0-.42.34-.77.77-.77.55,0,1,.45,1,1v.51ZM13.09,4.63c.08.26.16.62.26,1.11.1.49.15.86.18,1.13l-.9.13c-.03-.28-.09-.63-.18-1.08-.09-.45-.17-.8-.25-1.07l.88-.22ZM13.44,4.23s.03,0,.04,0c.06,0,.13.04.14.11.09.29.2.71.31,1.3.12.59.18,1.01.21,1.32,0,0,0,0,0,.01,0,.08-.06.14-.14.15,0,0,0,0-.01,0-.07,0-.13-.05-.15-.12,0,0,0,0,0-.02-.03-.29-.09-.71-.2-1.29-.12-.58-.22-.99-.31-1.27,0-.02,0-.03,0-.05,0-.06.04-.12.11-.14M18.59,2.78c.11.17.21.35.3.53l-3.25,1.35c-.04-.1-.08-.2-.13-.29-.05-.09-.1-.17-.17-.24l3.24-1.34ZM19.17,2.54c.11.17.21.35.3.53l-.28.12c-.09-.18-.19-.36-.3-.53l.29-.12ZM19.28,4.24c.06.19.11.39.16.59l-3.55.7h-.03c-.01-.09-.03-.18-.05-.27-.02-.1-.05-.21-.07-.31h.03s3.51-.71,3.51-.71ZM19.88,4.12c.06.19.11.39.15.59l-.3.06c-.04-.2-.09-.4-.15-.59l.3-.06ZM19.56,5.83c0,.1,0,.2,0,.3s0,.2,0,.3h-3.73c.05-.14.06-.29.06-.44,0-.05,0-.11,0-.17h3.67ZM19.87,5.83h.31c0,.1,0,.2,0,.3s0,.2,0,.3h-.31c0-.1,0-.2,0-.3s0-.2,0-.3M12.45,9.17c.09-.45.15-.8.18-1.08l.9.13c-.03.27-.09.64-.18,1.13-.1.49-.19.85-.26,1.11l-.88-.22c.08-.27.16-.62.25-1.07M13.64,9.4c.12-.58.17-.99.2-1.29,0-.08.07-.14.15-.14,0,0,0,0,.01,0,.08,0,.14.07.14.15,0,0,0,0,0,.02-.03.3-.09.73-.2,1.32-.12.59-.22,1-.31,1.3-.02.06-.08.11-.14.11-.01,0-.03,0-.05,0-.06-.02-.11-.08-.11-.14,0-.01,0-.02,0-.03,0,0,0-.01,0-.02.09-.28.19-.69.31-1.27M15.52,10.73c.06-.1.1-.21.14-.33l3.5,1.45c-.07.19-.14.38-.23.56l-3.56-1.47c.05-.06.1-.13.14-.21M15.8,9.83c.02-.1.04-.21.05-.31h.03l3.59.71c-.01.2-.04.41-.07.6l-3.64-.72h-.03c.02-.1.04-.19.06-.28l-.15-.03.15.03ZM19.38,8.61c.04.2.07.4.09.61h-3.58s0-.08,0-.12c0-.17-.02-.33-.08-.48h3.57ZM20,8.61c.04.2.06.4.08.61h-.31c-.02-.2-.05-.41-.08-.61h.31ZM19.78,10.29l.3.06c-.02.2-.04.4-.07.6l-.3-.06c.03-.2.06-.4.07-.6M19.44,11.96l.28.12c-.07.19-.14.38-.23.56l-.28-.12c.08-.18.16-.37.23-.56M39.18,36.33s-.02-.07-.03-.11l-.6-1.44-.02-.06-.13-.31s0,0,0,0l-.89-2.16c.86,0,1.55-.7,1.55-1.57,0-.71-.57-1.28-1.28-1.28-.24,0-.46.08-.64.21v-1.42c0-.23-.05-.44-.15-.63.05-.2.08-.4.08-.59,0-.31-.09-.56-.25-.74.13-.08.22-.2.23-.37,0-.02,0-.03,0-.05-.03-.18-.16-.3-.33-.36v-.96h0c.09.01.18.02.27.02,0,0,0,0,0,0s0,0,0,0c.06,0,.11,0,.17,0,.02,0,.04,0,.06,0,0,0,0,0,0,0,0,0,.01,0,.02,0,0,0,0,0,.01,0,.03,0,.05,0,.08-.01.02,0,.04,0,.07-.01,0,0,.02,0,.02,0,.03,0,.05-.01.08-.02.03,0,.05-.01.07-.02h0s.04-.01.06-.02c0,0,.01,0,.02,0,.03-.01.06-.02.09-.03.02,0,.04-.02.06-.03,0,0,.01,0,.02,0,.01,0,.03-.01.04-.02,0,0,0,0,0,0,.03-.02.06-.03.09-.05,0,0,0,0,0,0,.01,0,.02-.01.03-.02.02-.01.04-.02.05-.03.02-.01.03-.02.05-.04h0s0,0,0,0c0,0,.01,0,.02-.01.02-.02.05-.03.07-.05.02-.02.04-.04.06-.06.02-.02.05-.04.07-.06.02-.02.04-.04.06-.06.02-.02.04-.04.06-.07.02-.02.04-.04.05-.07.02-.02.04-.05.06-.07.02-.02.03-.05.05-.07.02-.03.03-.05.05-.08.01-.02.03-.05.04-.07.02-.03.03-.06.04-.09.01-.02.02-.05.03-.08.01-.03.02-.06.03-.09,0-.03.02-.05.03-.08,0-.03.02-.07.03-.1,0-.02.01-.05.02-.07,0-.04.01-.08.02-.12,0-.02,0-.04,0-.07,0-.06,0-.12,0-.19,0-.03,0-.04,0-.05-.02-.18-.17-.32-.35-.32-.11,0-.2.05-.27.12l-.03.04c-.16.2-.41.34-.69.34-.03,0-.05,0-.08,0-.01,0-.02,0-.04,0-.01,0-.03,0-.04,0-.02,0-.04,0-.05-.01,0,0-.01,0-.02,0-.02,0-.04-.01-.06-.02-.28-.1-.5-.34-.56-.64v-1.81s.02-.02.04-.03c.08-.07.17-.19.16-.36,0-.17-.09-.29-.17-.36-.01-.01-.02-.02-.04-.03v-1.81c.09.01.18.02.27.02.06,0,.12,0,.18,0,.02,0,.04,0,.06,0,0,0,0,0,0,0,0,0,.01,0,.02,0,0,0,.01,0,.02,0,.03,0,.05,0,.07-.01.02,0,.04,0,.06-.01,0,0,.02,0,.03,0,.02,0,.05-.01.07-.02.03,0,.05-.01.08-.02.03,0,.05-.02.08-.03.01,0,.02,0,.03-.01.01,0,.03,0,.04-.01,0,0,.01,0,.02,0,.03-.01.05-.03.08-.04,0,0,0,0,0,0h0s.02-.01.04-.02c0,0,0,0,0,0,.03-.02.07-.04.1-.06,0,0,0,0,0,0,0,0,.02-.01.03-.02.02-.01.04-.02.06-.03.02-.01.03-.02.05-.04,0,0,0,0,0,0,0,0,0,0,0,0,0,0,.01,0,.02-.01.02-.02.05-.04.07-.05.02-.02.04-.04.06-.06.02-.02.05-.04.07-.06.02-.02.04-.04.06-.06.02-.02.04-.04.06-.07.02-.02.04-.04.05-.07.02-.02.04-.05.06-.07.02-.02.03-.05.05-.07.02-.03.03-.05.05-.08.01-.02.03-.05.04-.07.02-.03.03-.06.04-.09.01-.02.02-.05.03-.08.01-.03.02-.06.03-.09,0-.03.02-.05.03-.08,0-.03.02-.07.03-.1,0-.02.01-.05.02-.08,0-.04.01-.08.02-.12,0-.02,0-.04,0-.07,0-.06,0-.12,0-.19,0-.03,0-.04,0-.05-.02-.18-.17-.32-.35-.32-.11,0-.2.05-.27.12l-.03.04c-.16.2-.41.34-.69.34-.03,0-.05,0-.08,0-.01,0-.03,0-.04,0-.01,0-.02,0-.04,0-.02,0-.03,0-.05-.01,0,0-.01,0-.02,0-.02,0-.04-.01-.06-.02-.28-.1-.5-.34-.57-.64v-1.81s.02-.02.04-.03c.08-.06.17-.19.16-.36,0-.17-.09-.29-.17-.36-.01-.01-.03-.02-.04-.03-.02-.67-.14-1.31-.36-1.91.2-.07.4-.18.57-.32.05-.04.1-.08.14-.13,0,0,0,0,0,0,.04-.04.08-.08.11-.13.01-.02.03-.03.04-.05,0,0,0,0,0,0,0,0,0,0,0,0,0,0,0,0,0-.01.02-.02.03-.04.04-.06.01-.02.02-.03.03-.05,0,0,0-.01.01-.02.02-.02.03-.05.04-.07,0,0,0,0,0,0,.01-.02.02-.04.03-.06,0,0,0,0,0,0,0-.02.02-.03.02-.05.01-.03.03-.05.04-.08,0,0,0,0,0,0,0,0,0,0,0-.01,0-.02.02-.04.02-.06,0-.03.02-.05.03-.08,0-.02,0-.03.01-.05,0,0,0-.01,0-.02,0,0,0-.01,0-.02,0-.03.01-.05.02-.08,0-.03.01-.06.02-.08,0,0,0,0,0-.01,0,0,0,0,0,0h0s0-.05.01-.07c0-.03,0-.05,0-.08,0-.04,0-.08,0-.12,0-.02,0-.03,0-.05,0-.32-.08-.63-.24-.92-.08-.15-.19-.3-.32-.43-.01-.01-.02-.02-.03-.03,0,0,0,0,0,0-.03-.02-.06-.04-.09-.06-.03-.01-.06-.02-.1-.02-.01,0-.02,0-.03,0h0c-.09,0-.18.03-.25.1h0s0,0,0,0c-.03.03-.05.06-.06.09-.02.05-.04.1-.04.15,0,0,0,.01,0,.02,0,0,0,0,0,.01h0s0,.04,0,.04c0,.02,0,.03,0,.05,0,.02,0,.04,0,.06,0,.17-.05.34-.15.49-.03.05-.07.09-.11.13,0,0,0,0,0,0-.03.03-.07.06-.1.09,0,0,0,0-.01,0-.04.03-.08.05-.12.07,0,0,0,0,0,0-.12.06-.25.09-.38.09-.19,0-.38-.06-.54-.19-.1-.1-.2-.2-.31-.3l-.91-.91s.01-.07.01-.11c0-.1-.03-.23-.14-.33-.1-.1-.23-.14-.32-.14-.13,0-.21.05-.23.05l-.03.03c-.09.09-.16.18-.22.28-.65-.25-1.37-.39-2.11-.39-.7,0-1.37.12-1.99.35-.09-.28-.24-.54-.46-.76-.04-.04-.09-.08-.13-.12-.01-.01-.03-.02-.04-.03,0,0,0,0-.01-.01,0,0,0,0,0,0,0,0,0,0-.01,0-.02-.02-.04-.03-.07-.05-.02-.01-.03-.02-.05-.03,0,0-.01,0-.02-.01-.03-.02-.05-.03-.08-.04,0,0,0,0,0,0,0,0-.01,0-.02-.01-.01,0-.03-.02-.04-.02-.02,0-.03-.02-.05-.02-.03-.01-.05-.03-.08-.04-.03-.01-.05-.02-.08-.03-.03-.01-.06-.02-.09-.03-.02,0-.03,0-.05-.01,0,0,0,0-.02,0,0,0-.01,0-.02,0-.03,0-.06-.02-.09-.02-.03,0-.05-.01-.08-.02,0,0-.01,0-.02,0,0,0,0,0,0,0,0,0,0,0,0,0-.03,0-.05,0-.08-.01-.02,0-.05,0-.07,0-.04,0-.08,0-.13,0-.01,0-.02,0-.04,0-.44,0-.88.15-1.23.45-.04.03-.08.07-.12.11h0s0,.01,0,.01c0,0-.02.02-.02.02-.04.05-.06.1-.07.16,0,.02,0,.04,0,.06,0,.09.03.18.1.25.07.07.16.1.25.1,0,0,0,0,.01,0,0,0,0,0,.01,0h0s.04,0,.04,0c.04,0,.07,0,.11,0,.2,0,.41.07.57.22.02.01.03.03.05.04.03.03.06.07.09.11,0,0,0,0,0,.01.03.04.05.08.07.12h0c.06.12.09.25.09.38,0,.22-.08.45-.26.62l-1.14,1.14s-.07-.01-.11-.01c-.1,0-.23.03-.33.14-.1.1-.14.23-.14.32,0,.13.05.21.05.23l.03.03c.06.06.12.11.18.15.03.02.06.04.08.06-.25.62-.39,1.3-.41,2-.04,0-.09-.02-.13-.02-.06,0-.13,0-.2,0-.06,0-.12,0-.18,0,0,0,0,0,0,0-.02,0-.05-.01-.07,0-.93.13-1.65.92-1.65,1.89,0,0,0,0,0,0s0,0,0,0c0,.03,0,.04,0,.05.02.18.17.32.35.32.11,0,.2-.05.27-.12l.03-.04c.16-.21.41-.34.69-.34.48,0,.87.39.87.87v1.61s-.04.03-.06.04c-.08.06-.17.19-.16.36,0,.17.09.29.17.36.03.03.06.04.09.06v1.78c-.11-.02-.21-.03-.33-.03-.06,0-.12,0-.18,0h0s-.05-.01-.07,0c-.93.13-1.65.92-1.65,1.89,0,0,0,0,0,0,0,0,0,0,0,0,0,.03,0,.04,0,.05.02.18.17.32.35.32.11,0,.2-.05.27-.13l.03-.04c.16-.21.41-.34.69-.34.48,0,.87.39.87.87v1.61s-.04.03-.06.04c-.08.07-.17.19-.16.36,0,.17.09.29.17.36.03.03.06.04.09.06v1.78c-.11-.02-.21-.03-.33-.03-.06,0-.12,0-.18,0h0s-.05-.01-.07,0c-.93.13-1.65.92-1.65,1.89,0,0,0,0,0,0,0,0,0,0,0,0,0,.03,0,.04,0,.05.02.18.17.32.35.32.11,0,.2-.05.27-.13l.03-.04c.16-.21.41-.34.69-.34.48,0,.87.39.87.87v1.61s-.04.03-.06.04c-.08.07-.17.19-.16.36,0,.17.09.29.17.36.03.02.06.04.08.05-.06.98-.87,1.76-1.87,1.77-.6,0-1.13-.28-1.47-.72.02,0,.05,0,.07,0,.02,0,.03,0,.05,0h.02s0,0,.01,0c0,0,0,0,0,0,.03,0,.06,0,.09-.01.02,0,.04,0,.06-.01,0,0,0,0,0,0,0,0,.01,0,.02,0,.03,0,.06-.02.09-.02.02,0,.04-.01.06-.02,0,0,0,0,.01,0,0,0,.01,0,.02,0,.03,0,.06-.02.09-.03.02,0,.03-.01.05-.02.02,0,.04-.02.06-.03.02,0,.04-.02.06-.03,0,0,0,0,0,0,0,0,.01,0,.02-.01.02-.01.04-.02.07-.04.01,0,.03-.02.04-.02.02-.01.04-.02.05-.03.02-.01.03-.02.05-.03,0,0,0,0,0,0,0,0,0,0,0,0,0,0,0,0,.01-.01.03-.02.05-.04.08-.06.02-.02.04-.04.06-.05.02-.02.05-.04.07-.06.02-.02.04-.04.06-.06.02-.02.04-.05.06-.07.02-.02.03-.04.05-.06.02-.03.04-.05.06-.08.02-.02.03-.04.04-.07.02-.03.03-.06.05-.08.01-.02.03-.05.04-.07.02-.03.03-.06.04-.09.01-.02.02-.05.03-.07.01-.03.02-.06.03-.09,0-.02.02-.05.03-.07,0-.03.02-.07.03-.1,0-.02.01-.05.02-.07,0-.04.01-.08.02-.12,0-.02,0-.04,0-.06,0-.06,0-.12,0-.19,0-.02,0-.03,0-.04,0,0,0-.01,0-.01,0-.04-.02-.09-.04-.13-.04-.08-.1-.14-.18-.17-.04-.02-.08-.02-.13-.02-.11,0-.2.05-.27.12l-.03.04c-.09.12-.22.21-.36.27-.1.04-.21.07-.33.07-.03,0-.05,0-.08,0-.01,0-.03,0-.04,0-.01,0-.03,0-.04,0-.02,0-.03,0-.05-.01,0,0-.01,0-.02,0-.02,0-.04-.01-.06-.02-.33-.11-.57-.42-.59-.79v-1.64s.04-.03.06-.04c.08-.07.17-.19.16-.36,0-.17-.09-.29-.17-.36-.02-.02-.04-.03-.05-.04v-1.8s.04,0,.06,0c.08.01.16.02.24.02,0,0,0,0,.01,0,.06,0,.11,0,.16,0,.02,0,.04,0,.06,0h0s.01,0,.02,0c0,0,.01,0,.02,0,.02,0,.05,0,.07-.01.02,0,.04,0,.07-.01,0,0,.02,0,.03,0,.02,0,.05-.01.07-.02.03,0,.05-.01.08-.02.03,0,.05-.02.08-.03.01,0,.03-.01.04-.02,0,0,.02,0,.03-.01,0,0,.01,0,.02,0,.03-.01.06-.03.08-.04.01,0,.02,0,.03-.02.03-.02.06-.03.1-.05,0,0,0,0,0,0,0,0,.02,0,.02-.01.02-.01.04-.02.06-.04.02-.01.03-.02.05-.04,0,0,0,0,0,0,0,0,0,0,0,0,0,0,0,0,.01,0,.03-.02.05-.04.08-.06.02-.02.04-.03.06-.05.02-.02.05-.04.07-.07.02-.02.04-.04.06-.06.02-.02.04-.05.07-.07.02-.02.03-.04.05-.06.02-.02.04-.05.06-.08.02-.02.03-.04.04-.07.02-.03.03-.06.05-.08.01-.02.03-.05.04-.07.02-.03.03-.06.04-.09.01-.02.02-.05.03-.07.01-.03.02-.06.03-.1,0-.02.02-.05.03-.07,0-.03.02-.07.03-.1,0-.02.01-.05.02-.07,0-.04.01-.08.02-.12,0-.02,0-.04,0-.06,0-.06,0-.12,0-.19,0-.03,0-.04,0-.05-.02-.18-.17-.32-.35-.32-.11,0-.2.05-.27.12l-.03.04c-.16.21-.41.34-.69.34-.03,0-.05,0-.08,0-.01,0-.03,0-.04,0-.01,0-.02,0-.03,0-.02,0-.04,0-.06-.01,0,0,0,0-.01,0-.02,0-.04-.01-.06-.02-.33-.12-.57-.42-.58-.79v-1.65s.04-.02.06-.04c.08-.06.17-.19.16-.36,0-.17-.09-.29-.17-.36-.02-.02-.04-.03-.06-.04-.02-2.41-1.47-4.47-3.55-5.38.29-.28.49-.65.58-1.06,0,0,0-.01,0-.02,0,0,0-.01,0-.02,0-.02,0-.04.01-.06,0-.01,0-.02,0-.03h0s0,0,0,0c0,0,0-.02,0-.02h0s0-.04,0-.06c0-.07.01-.13.01-.2,0-.15-.02-.3-.05-.45-.03-.15-.08-.3-.15-.44h0s0-.01,0-.01l-.05-.1h0c-.03-.06-.08-.1-.13-.13,0,0-.02,0-.02,0-.05-.02-.1-.04-.15-.04-.15,0-.28.09-.34.22h0s0,0,0,0l-.03.08c-.02.06-.04.11-.07.17,0,.01-.01.03-.02.04-.02.04-.05.09-.07.13,0,.01-.01.02-.02.03-.03.05-.07.1-.1.15,0,0-.02.02-.02.03-.03.04-.06.07-.09.1-.01.01-.03.03-.04.04-.04.03-.07.07-.11.1-.01.01-.03.02-.04.03-.15.12-.32.21-.51.28v-.08c-.02-.34-.29-.6-.62-.6-.18,0-.35.08-.46.21-.11-.14-.29-.23-.48-.23s-.36.08-.47.22c-.12-.13-.28-.22-.47-.22-.23,0-.43.13-.54.31-.2-.25-.49-.42-.84-.47-.14-.02-.28-.02-.37-.04-.1-.03-.11-.03-.12-.08l-.04-.17h0c-.19-.62-.61-1.1-1.14-1.38-.27-.14-.58-.22-.9-.22-.29,0-.58.06-.85.19v-1.58s3.13.79,3.13.79h0l1.05.27c.02.18.14.34.32.39.05.01.09.02.13.02h0c.15,0,.29-.08.38-.2l.82.21h0c.05.01.11.02.16.02h0c.09,0,.17-.02.24-.05l4.09,1.7,1.5.62c.08.03.15.05.23.05h0c.24,0,.46-.14.56-.37.03-.08.05-.15.05-.23,0-.03,0-.06,0-.09,0-.06-.02-.11-.05-.16,0,0,0,0,0,0-.06-.13-.17-.24-.32-.3l-1.5-.62s0,0,0,0l-.24-.1-2.2-.91,2.29.46s0,0,0,0l.47.09h0l1.65.33s.08.01.12.01c.28,0,.54-.2.59-.49,0,0,0,0,0-.01,0-.04.01-.07.01-.11,0-.17-.07-.32-.19-.44,0,0-.01-.01-.02-.02,0,0-.01,0-.02-.01-.07-.06-.16-.1-.26-.12l-4.42-.88h2.19s0,0,0,0h.61s0,0,0,0h1.46c.34,0,.61-.27.61-.61,0-.34-.27-.61-.61-.61h-6.11c-.09-.07-.19-.12-.31-.14h0s-.83-.12-.83-.12c-.04-.19-.2-.35-.4-.36-.01,0-.03,0-.04,0-.17,0-.32.1-.4.24l-2.27-.33-.29-.04,1.49-.22h0l1.07-.16c.08.15.23.24.4.24.01,0,.03,0,.04,0,.21-.02.37-.17.4-.36l.83-.12h0c.15-.03.27-.09.36-.18h4.05s0,0,0,0h.61s0,0,0,0h1.38c.33,0,.61-.27.61-.61,0-.34-.27-.61-.61-.61h-4.26l2.26-.45.51-.1h.03s1.62-.33,1.62-.33c.2-.04.35-.17.43-.34.04-.08.06-.17.06-.26,0-.04,0-.08-.01-.12-.06-.29-.31-.49-.59-.49-.04,0-.08,0-.12.01h0l-1.43.29-.21.04h-.02s-.33.07-.33.07l-2.41.48,2.44-1.01.24-.1,1.26-.52h0s.03-.02.05-.02c.09-.05.17-.11.22-.19.05-.07.08-.15.1-.23,0-.04.01-.08.01-.12,0-.04,0-.07-.01-.11,0-.04-.02-.08-.04-.12-.03-.08-.08-.14-.13-.2-.11-.11-.27-.18-.43-.18-.08,0-.16.01-.23.05l-1.5.62s0,0,0,0c0,0,0,0,0,0h0s0,0,0,0l-.25.1-3.88,1.61c-.06-.02-.12-.03-.19-.03-.05,0-.1,0-.16.02h0s-.82.21-.82.21c-.08-.13-.23-.2-.38-.2-.04,0-.09,0-.13.02-.18.06-.3.21-.32.39l-1.05.27h0l-3.77.95s-.07-.07-.1-.11c-.01-.01-.02-.02-.03-.03-.06-.06-.13-.11-.2-.17-.02-.01-.04-.03-.05-.04-.06-.04-.11-.08-.17-.11-.02-.01-.04-.02-.05-.03-.08-.04-.15-.08-.23-.12-.02,0-.03-.01-.05-.02-.07-.03-.14-.05-.21-.07-.02,0-.05-.01-.07-.02-.09-.02-.17-.04-.26-.06-.12-.02-.24-.03-.36-.03,0,0-.02,0-.03,0-.92,0-1.73.51-2.14,1.27-.06.11-.11.22-.15.34,0,0,0,0,0,0-.12.28-.14.5-.14.81,0,0,0,0,0,0,0,.08,0,.16.01.25h0s0,.03,0,.04c0,.03,0,.06.01.09,0,.01,0,.02,0,.03,0,0,0,0,0,0,0,0,0,0,0,0,0,.01,0,.02,0,.04,0,0,0,0,0,0,0,.05.02.11.03.16h0c.01.05.03.1.05.15,0,0,0,0,0,0,0,.01,0,.02.01.03.02.05.04.1.06.15,0,.02.02.04.04.05,0,0,0,0,0,0,.01.01.02.02.04.02.02,0,.04.02.06.02.02,0,.03,0,.05,0,0,0,0,0,0,0,0,0,0,0,0,0,0,0,0,0,0,0,0,0,.02,0,.02-.01,0,0,.01,0,.02-.01.01-.01.03-.02.03-.04.04-.06.08-.13.12-.18.01-.02.03-.03.04-.05.03-.04.07-.08.1-.11.02-.02.04-.04.06-.05.04-.03.07-.06.11-.09.02-.02.05-.03.07-.05.04-.03.08-.05.12-.07.04-.02.07-.04.11-.06.02,0,.03-.02.05-.02.05-.02.1-.04.15-.05.03,0,.06-.02.1-.02.04,0,.07-.02.11-.02.03,0,.06,0,.09-.01.06,0,.12-.01.18-.01,0,0,0,0,0,0,.03,0,.06,0,.09.02.02,0,.04.02.06.03.06.04.12.09.15.16.02.04.03.08.03.13v.03h-.4c-.31,0-.56.25-.56.56,0,.16.07.31.18.41-.11.1-.18.25-.18.41s.07.31.18.41c-.11.1-.18.25-.18.41s.07.31.18.41c-.11.1-.18.25-.18.41,0,.31.25.56.56.56h.4v.99c-.24-.29-.6-.47-1-.47-.59,0-1.07.48-1.07,1.07,0,.49.4.89.89.89.13,0,.25-.03.36-.09v.53c0,.49.36.9.84.96.03.22.09.44.18.63,0,.01.01.02.02.03.02.03.03.06.05.09.02.03.03.06.05.09.03.04.06.08.08.12.01.02.02.04.04.05-.25.32-.4.71-.42,1.13h-.41c-.31,0-.56.25-.56.56,0,.16.07.31.18.41-.11.1-.18.25-.18.41s.07.31.18.41c-.11.1-.18.25-.18.41,0,.31.25.56.56.56h.4v.06s0,.01,0,.02c0,.02,0,.04,0,.05-.02.08-.06.14-.12.19,0,0-.01,0-.02,0-.03.02-.05.04-.08.05-.04.01-.08.02-.12.02-.05,0-.11,0-.16,0-.37-.04-.7-.19-.95-.43-.03-.02-.05-.05-.08-.08-.08-.09-.16-.19-.22-.3-.01-.02-.03-.04-.06-.06-.02-.01-.05-.02-.08-.02-.06,0-.11.04-.13.09-.02.05-.04.1-.06.15,0,.01,0,.02-.01.04-.03.1-.06.21-.08.32,0,.01,0,.02,0,.04,0,.05-.02.11-.02.16,0,0,0,0,0,0h0c0,.08-.01.16-.01.25s0,.16.01.24c0,0,0,0,0,0,0,.08.02.16.04.23h0c.03.16.08.3.13.45h0s0,0,0,0c.01.03.03.06.06.07-.03-.02-.05-.04-.06-.07.36.89,1.24,1.51,2.26,1.51,1.35,0,2.44-1.09,2.44-2.44v-2.18c0-.22.18-.41.4-.41h2.63c.43.8,1.27,1.35,2.24,1.35h.67c.55,0,1.05-.17,1.47-.47.38.25.66.63.78,1.08,0,0,0,0,0,0-1.07,0-2.12.42-2.89,1.21-.09-.07-.2-.12-.31-.12-.25,0-.45.16-.66.33-.14-.11-.29-.17-.44-.17-.24,0-.44.17-.48.42-.86.12-1.68.95-2.32,1.85-.34.49-.63,1.01-.84,1.47-.2.46-.33.86-.33,1.14,0,.1.02.19.07.28,0,0,0,.01,0,.02,0,0,0,0,0,0h0s0,0,0,0c0,0,0,0,0,0,0,0,.01.01.02.02,0,0,0,0,0,0,.1.09.23.11.38.11.61,0,1.74-.4,2.77-1.01.9-.54,1.72-1.23,1.91-2.03.12,0,.24-.05.32-.13.1-.09.15-.21.15-.36,0-.14-.05-.28-.16-.43.22-.21.39-.41.4-.67,0-.1-.04-.2-.1-.29.46-.47,1.04-.8,1.65-.95-.55.59-.93,1.34-1.05,2.17-.15.03-.26.14-.31.26-.05.1-.07.21-.08.33-.11.01-.21.05-.28.11-.09.07-.16.19-.16.31,0,.07.02.14.05.2-.04.05-.08.11-.12.18-.19.34-.25.78-.25,1.25,0,.63.13,1.3.29,1.83.08.27.18.49.27.67.09.15.17.26.31.32,0,0,0,0,0,0,0,0,.01,0,.02,0,0,0,0,0,0,0,0,0,0,0,.01,0,0,0,.01,0,.02,0,0,0,0,0,0,0h0s0,0,0,0h0s0,0,0,0h0s0,0,0,0c.11,0,.19-.06.26-.12.26-.22.54-.71.79-1.29.24-.59.44-1.27.44-1.86,0-.29-.05-.57-.17-.81.06-.07.1-.17.1-.26,0-.2-.15-.36-.38-.42,0-.03,0-.06,0-.1,0-.14-.01-.26-.07-.37-.04-.07-.1-.13-.17-.16.14-.9.63-1.7,1.34-2.23v6.99h-.14c-.56,0-1.01.45-1.01,1.01,0,.36.19.68.48.86-.29.18-.48.5-.48.86s.19.68.48.86c-.29.18-.48.5-.48.86,0,.56.45,1.01,1.01,1.01h.49c.04.12.09.24.14.35.02.04.03.07.05.1.05.1.09.2.15.3.02.03.03.07.05.1.06.11.13.22.19.33l-.8.54c-.07.05-.09.14-.04.21.25.37.54.72.86,1.04.32.32.66.6,1.04.86h0c.37.25.77.47,1.19.65.42.18.86.32,1.32.41h0c.46.09.93.14,1.41.14s.96-.05,1.41-.14c0,0,0,0,0,0,.46-.09.9-.23,1.32-.41.42-.18.82-.39,1.19-.65h0c.37-.25.72-.54,1.04-.86.32-.32.6-.66.86-1.04.02-.03.03-.07.02-.11,0-.04-.03-.07-.06-.1l-.8-.54c.59-.92.93-2.01.93-3.18V12.79c0-1.04.84-1.88,1.88-1.88,1.04,0,1.88.84,1.88,1.88v.51h-.85s-.07.02-.1.04c-.03.03-.04.06-.04.1v2.04h0v2.04s.02.07.04.1c.03.03.06.04.1.04h.85v1.21h-.14c-.56,0-1.01.45-1.01,1.01,0,.36.19.68.48.86-.29.18-.48.5-.48.86,0,.36.19.68.48.86-.29.18-.48.5-.48.86,0,.56.45,1.01,1.01,1.01h.14v1.12c-.19.05-.34.18-.38.38,0,.02,0,.04,0,.05,0,.2.14.34.32.41-.14.18-.22.41-.21.7,0,.14.02.28.05.42-.15.23-.24.5-.24.79v1.42c-.18-.13-.4-.21-.64-.21-.71,0-1.28.57-1.28,1.28,0,.87.7,1.57,1.57,1.57.01,0,.02,0,.04,0l-1.64,3.97c-.03.08-.05.15-.05.23,0,.24.14.46.37.56,0,0,0,0,0,0h0s.02,0,.03.01c.03,0,.05.02.08.02,0,0,.01,0,.02,0,.03,0,.06,0,.1,0h0s.04,0,.06,0c0,0,.02,0,.03,0,.2-.03.37-.15.46-.34,0,0,0-.02.01-.02l.38-.92.11-.25.23-.57h0s.85-2.06.85-2.06l-.45,2.26s0,0,0,0l-.12.61h0s-.31,1.54-.31,1.54c0,0,0,.02,0,.02,0,.03,0,.06,0,.09h0s0,.09.02.14c.05.22.23.41.47.46h0s.08.01.12.01c.28,0,.54-.2.59-.49l.3-1.49.12-.6.42-2.09v4.5c0,.33.27.61.61.61s.61-.27.61-.61v-4.5l.78,3.93.05.24s.02.07.03.1c.01.03.03.06.05.09.08.13.21.23.36.27.05.01.1.02.16.02.04,0,.08,0,.12-.01.05-.01.1-.03.15-.05.12-.06.21-.15.27-.26.05-.09.07-.18.07-.28,0-.04,0-.08-.01-.12h0s-.3-1.52-.3-1.52h0s-.11-.55-.11-.55v-.06s-.01,0-.01,0l-.45-2.29.87,2.1h0s.06.14.06.14l.03.07s0,0,0,0l.62,1.5c.1.23.32.37.56.37.06,0,.12-.01.18-.03.02,0,.03,0,.05-.01h0s0,0,0,0c.23-.1.37-.32.37-.56,0-.04,0-.08-.01-.12"/>
  <g>
    <path class="cls-1" d="M105.7,26.25c-2.49,0-4.12-2.36-4.12-5.57s1.62-5.57,4.12-5.57,4.12,2.36,4.12,5.57-1.62,5.57-4.12,5.57M111.27,19.66s-.02-.1-.02-.15c0-.01,0-.03,0-.04v.03c-.51-3.07-3.02-4.75-5.54-4.75s-5.13,1.75-5.57,4.94c-.12.36-.52.63-.94.63v.26c.45,0,.82.3.9.7.28,3.43,2.94,5.32,5.61,5.32s5.34-1.89,5.61-5.33c.08-.39.45-.69.89-.69v-.26c-.43,0-.83-.28-.94-.66M78.88,26.25c-2.5,0-4.12-2.36-4.12-5.57s1.62-5.57,4.12-5.57,4.12,2.36,4.12,5.57-1.62,5.57-4.12,5.57M84.45,19.68c0-.07-.02-.14-.03-.2h0s0,0,0,0c-.52-3.05-3.02-4.72-5.54-4.72s-5.04,1.68-5.54,4.76v-.05s0,.04,0,.06c0,.04-.01.08-.02.12-.1.38-.5.67-.94.67v.26c.44,0,.81.3.89.69.27,3.44,2.93,5.33,5.62,5.33s5.33-1.89,5.61-5.32c.07-.4.44-.71.89-.71v-.26c-.42,0-.82-.27-.94-.64M96.79,25.29c-.54.47-1.56.75-2.54.75-2.16,0-4.9-1.49-4.9-5.67,0-3.61,2.29-5.27,4.54-5.27,1.77,0,2.95,1.02,3.33,1.51.15.75.23,1.74.25,2.09h.37l.07-3.73h-.35c-.07.57-.05.65-.23.65-.15,0-.37-.15-1.09-.42-.87-.32-1.77-.45-2.58-.45-2.96,0-5.25,1.86-5.73,4.76v-.05s0,.04,0,.06c0,.04-.01.07-.02.11-.1.38-.5.67-.93.67v.26c.43,0,.79.28.88.65.24,3.35,2.62,5.35,5.58,5.37,2.38,0,3.82-1.05,4.47-1.52l.13-2.54h-.38c-.17,1.32-.13,2.13-.85,2.76M56.12,25.29c-.54.47-1.56.75-2.55.75-2.16,0-4.9-1.49-4.9-5.67,0-3.61,2.29-5.27,4.53-5.27,1.77,0,2.95,1.02,3.33,1.51.15.75.23,1.74.25,2.09h.37l.07-3.73h-.35c-.07.57-.05.65-.23.65-.15,0-.37-.15-1.09-.42-.87-.32-1.77-.45-2.58-.45-3.03,0-5.37,1.96-5.76,4.99-.12.34-.46.58-.86.58v.26c.44,0,.76.32.82.72,0,.05,0,.09.01.14v.03h0c.33,3.21,2.66,5.13,5.56,5.14,2.38,0,3.82-1.05,4.47-1.52l.13-2.54h-.39c-.17,1.32-.13,2.13-.85,2.76"/>
    <path class="cls-1" d="M69.6,15.45c.1-.1.33-.12,1.09-.15v-.32c-.22,0-1.26.03-1.84.03-.69,0-1.64-.03-1.96-.03v.32c.85.05,1.1.05,1.2.15.07.07.08.33.08,1.02v3.83h-6.33v-3.83c0-.69.02-.96.08-1.02.1-.1.35-.1,1.21-.15v-.32c-.32,0-1.27.03-1.96.03-.59,0-1.62-.03-1.84-.03v.32c.75.03.99.05,1.09.15.07.07.08.33.08,1.02v2.99h0c0,.47-.41.85-.91.85v.26c.5,0,.91.38.91.85h0s0,3.45,0,3.45c0,.69-.02.95-.08,1.02-.1.1-.34.12-1.09.15v.32c.22,0,1.25-.04,1.84-.04.69,0,1.64.04,1.96.04v-.32c-.85-.05-1.1-.05-1.21-.15-.07-.07-.08-.33-.08-1.02v-4.18h6.33v4.18c0,.69-.02.95-.08,1.02-.1.1-.35.1-1.2.15v.32c.32,0,1.27-.04,1.96-.04.58,0,1.62.04,1.84.04v-.32c-.75-.03-.99-.05-1.09-.15-.07-.07-.08-.33-.08-1.02v-3.55c.05-.42.43-.75.9-.75v-.26c-.47,0-.85-.33-.9-.75v-3.09c0-.69.02-.96.08-1.02"/>
    <path class="cls-1" d="M142.64,26.25c-2.45,0-4.04-2.32-4.04-5.47s1.59-5.47,4.04-5.47,4.04,2.32,4.04,5.47-1.59,5.47-4.04,5.47M148.1,19.69h0c-.48-3.05-2.96-4.72-5.46-4.72s-4.98,1.68-5.46,4.74v-.02c-.05.42-.47.74-.93.74v.25c.46,0,.83.32.88.73.29,3.34,2.89,5.18,5.51,5.18s5.2-1.82,5.51-5.15c.04-.43.42-.77.89-.77v-.25c-.46,0-.89-.33-.94-.74M122.1,20.47c-.38-.21-.53-.69-.34-1.12l-.23-.1c-.2.45-.7.67-1.12.49-1.22-.58-1.76-1.11-1.76-2.22s.69-2.2,2.3-2.2c1.32,0,2.14.72,2.43,1.2.13.21.2.39.2,1.69h.35l.08-3.02h-.33c-.03.48-.05.64-.15.64-.08,0-.13-.11-.72-.41-.59-.31-1.27-.45-1.81-.45-2.15,0-3.5,1.51-3.5,3.21,0,1.53.86,2.18,2.36,2.87h0c.42.19.6.71.4,1.16l.23.1c.2-.45.71-.67,1.13-.49.9.43,1.67.98,1.67,2.18s-.94,2.27-2.47,2.27c-.81,0-1.86-.36-2.5-.82l-.41-2.19h-.31l.12,2.64c.82.3,1.95.71,3.19.71,1.92,0,3.62-1.36,3.62-3.22,0-1.62-1.12-2.34-2.41-2.91M167.95,15.23c-.52,0-1.05-.02-1.59-.03v.31c.31.02.62.02.82.03.31.03.43.05.43.18,0,.16-2.75,4.4-2.75,4.4,0,0-2.51-4.29-2.51-4.4,0-.1.07-.15.28-.17.25-.02.66-.03.99-.05v-.31c-.46.01-1.23.03-2.01.03s-1.54-.03-1.87-.03v.31c.85.03,1.17.26,1.64,1.15l2.18,3.62c-.15.1-.32.15-.51.15v.25c.49,0,.89.37.89.83v3.39c0,.79,0,.9-.08.98-.08.08-.35.11-1.41.17v.31c.54,0,1.48-.03,2.15-.03s1.61.03,2.15.03v-.31c-1.07-.05-1.33-.08-1.41-.17-.08-.08-.08-.2-.08-.98v-3.41c0-.45.4-.82.89-.82v-.25c-.27,0-.52-.12-.68-.3l2.3-3.72c.51-.92.81-.86,1.58-.91v-.31c-.31.01-.87.03-1.4.03M153.92,20.4c-.42-.06-.74-.38-.75-.79v-2.97c0-.74,0-.89.05-.97.03-.08.18-.18,1-.18,1.07,0,1.74.16,2.24.56.66.53,1.02,1.18,1.02,2.14,0,1.15-.71,2.26-2.6,2.26-.29,0-.62-.02-.96-.04M158.92,25.12c-.07-1.76-.34-3.72-2.66-4.36,0,0-.36-.1-.36-.15,0-.05,2.89-.11,2.89-2.57,0-.9-.46-1.76-1.27-2.28-.66-.44-1.64-.61-2.84-.61-.28,0-.71.02-1.12.03-.4.03-.76.05-1.05.05-.58,0-1.59-.03-1.81-.03v.31c.74.03.97.05,1.07.15.07.07.08.33.08,1v2.94c0,.46-.4.83-.9.83v.25c.49,0,.9.37.9.83v3.41c0,.67-.02.94-.08,1-.1.1-.33.12-1.07.15v.31c.21,0,1.23-.03,1.81-.03.67,0,1.61.03,1.92.03v-.31c-.84-.05-1.09-.05-1.18-.15-.07-.07-.08-.33-.08-1v-3.42c0-.45.4-.71.89-.71h.18c1.22,0,1.77.15,2.43.76.63.56.87,1.34.89,3.42v1.37c.72,0,1.1,0,2.55.03v-.31c-.8-.03-1-.08-1.07-.15-.07-.07-.1-.23-.12-.79"/>
    <path class="cls-1" d="M135.72,14.75h-.35c-.03.26-.07.34-.21.4-.28.06-2.98.1-4.27.08-1.3.02-3.99-.02-4.27-.08-.15-.05-.18-.13-.21-.4h-.35l-.03,2.76h.33c.16-1.41.2-1.54.46-1.74.21-.16,1.59-.2,2.19-.2.86,0,1.07,0,1.15.08.07.07.08.25.08.99v2.96c0,.46-.4.83-.89.83v.25c.49,0,.89.37.89.83h0s0,3.39,0,3.39c0,.79,0,.9-.08.98-.08.08-.35.12-1.41.16v.31c.54,0,1.48-.03,2.15-.03s1.61.03,2.15.03v-.31c-1.07-.05-1.33-.08-1.42-.16-.08-.08-.08-.2-.08-.98v-3.45c.03-.43.42-.78.89-.78v-.25c-.47,0-.86-.34-.89-.77v-3.01c0-.74.02-.92.08-.99.08-.08.3-.08,1.15-.08.59,0,1.97.03,2.19.2.26.2.29.33.46,1.74h.33l-.03-2.76Z"/>
    <rect class="cls-1" x="113.8" y="20.32" width="3.35" height=".71"/>
  </g>
</svg>