<?xml version="1.0" encoding="UTF-8"?>
<svg id="CLIENTES" xmlns="http://www.w3.org/2000/svg" version="1.1" viewBox="0 0 240.84 40">
  <defs>
    <style>
      .cls-1 {
        fill: #231f20;
        stroke-width: 0px;
      }
    </style>
  </defs>
  <polygon class="cls-1" points="193.25 28.95 192.82 4.01 200.68 4.01 200.68 35.45 189.38 35.45 181.52 9.66 181.34 9.66 181.78 35.45 173.98 35.45 173.98 4.01 185.78 4.01 193.08 28.95 193.25 28.95"/>
  <polygon class="cls-1" points="50.35 6.95 46 35.77 37.42 35.77 43.3 4.01 57.44 4.01 63.28 35.77 54.76 35.77 50.52 6.95 50.35 6.95"/>
  <polygon class="cls-1" points="87.37 28.3 91.28 4.01 104.24 4.01 104.94 35.77 96.99 35.77 96.79 7.22 96.62 7.23 91.31 35.77 83.25 35.77 77.95 7.22 77.77 7.22 77.57 35.77 69.63 35.77 70.33 4.01 83.28 4.01 87.19 28.3 87.37 28.3"/>
  <path class="cls-1" d="M24.05,26.81c.31.77.2,1.75.06,2.35-.26,1.04-.97,2.12-3.09,2.12-1.98,0-3.2-1.14-3.2-2.87v-3.08h-8.51v2.45c0,7.08,5.57,9.21,11.54,9.21s10.47-1.95,11.23-7.24c.39-2.75.1-4.54-.03-5.23-1.35-6.65-13.39-8.61-14.3-12.34-.15-.65-.12-1.29-.03-1.66.23-1.02.92-2.13,2.91-2.13,1.86,0,2.95,1.15,2.95,2.87v1.96h7.92v-2.22c0-6.93-6.21-8.01-10.71-8.01-5.65,0-10.25,1.87-11.1,7.06-.23,1.4-.26,2.67.08,4.27,1.38,6.48,12.66,8.36,14.29,12.48"/>
  <path class="cls-1" d="M127.3,26.75c.3.76.21,1.73.06,2.33-.26,1.05-.97,2.09-3.07,2.09-1.97,0-3.17-1.12-3.17-2.83v-3.05h-8.44v2.43c0,7.02,5.52,9.11,11.43,9.11s10.36-1.92,11.11-7.17c.39-2.71.1-4.49-.03-5.18-1.33-6.58-13.26-8.53-14.15-12.22-.15-.64-.11-1.28-.04-1.63.22-1.01.9-2.12,2.88-2.12,1.84,0,2.92,1.14,2.92,2.83v1.95h7.84v-2.19c0-6.85-6.16-7.92-10.59-7.92-5.59,0-10.16,1.83-11,6.98-.24,1.39-.27,2.65.07,4.23,1.37,6.42,12.54,8.29,14.16,12.36"/>
  <path class="cls-1" d="M153.96,31c2.2,0,2.9-1.5,3.05-2.29.07-.34.08-.8.08-1.22V4.01h8.05v22.76c0,.59-.06,1.79-.09,2.1-.56,5.91-5.25,7.83-11.09,7.83s-10.53-1.91-11.07-7.83c-.03-.31-.09-1.51-.08-2.1V4.01h8.02v23.49c0,.41,0,.87.08,1.22.16.79.85,2.29,3.05,2.29"/>
  <path class="cls-1" d="M220.21,30.68c2.29,0,3.12-1.45,3.27-2.3.06-.36.08-.8.07-1.21v-4.62h-3.27v-4.64h11.26v8.53c0,.6-.01,1.03-.1,2.1-.53,5.78-5.55,7.84-11.19,7.84s-10.64-2.07-11.16-7.84c-.09-1.06-.11-1.5-.11-2.1v-13.37c0-.57.07-1.57.13-2.08.71-5.97,5.51-7.85,11.14-7.85s10.58,1.88,11.17,7.85c.09.99.06,2.08.06,2.08v1.06s-7.99,0-7.99,0v-1.78s0-.75-.1-1.2c-.14-.7-.77-2.31-3.19-2.31s-2.98,1.52-3.16,2.31c-.09.4-.13.97-.13,1.49v14.53c0,.4.02.85.07,1.21.15.85.95,2.3,3.25,2.3"/>
</svg>