<?xml version="1.0" encoding="UTF-8"?>
<svg id="Layer_1" data-name="Layer 1" xmlns="http://www.w3.org/2000/svg" version="1.1" viewBox="0 0 131.3 40">
  <defs>
    <style>
      .cls-1 {
        fill: #231f20;
        stroke-width: 0px;
      }
    </style>
  </defs>
  <g>
    <g>
      <path class="cls-1" d="M23.29,30.66h7.16c-.53,3.46-1.74,5.85-3.65,7.17-1.52,1.04-3.82,1.56-6.91,1.56s-5.33-.5-6.93-1.5c-2.7-1.69-4.05-4.86-4.05-9.51s1.35-7.82,4.05-9.51c1.61-1,3.92-1.5,6.93-1.5,2.72,0,4.85.44,6.39,1.33,2.42,1.38,3.8,3.87,4.16,7.46h-7.16c-.3-2.4-1.43-3.6-3.4-3.6-2.82,0-4.23,1.94-4.23,5.82s1.31,5.82,3.92,5.82c1.98,0,3.22-1.18,3.71-3.54Z"/>
      <path class="cls-1" d="M54.43,39.38v-21.44h7.41v2.67h.06c.47-.81,1.27-1.53,2.39-2.16,1.35-.73,2.86-1.1,4.53-1.1,2.25,0,4.01.65,5.3,1.96,1.41,1.44,2.11,3.58,2.11,6.43v13.64h-7.65v-11.09c0-2.59-.98-3.88-2.94-3.88-2.37,0-3.55,1.7-3.55,5.1v9.88h-7.65Z"/>
      <path class="cls-1" d="M79.74,39.38v-22h13.26c3.03,0,5.25.82,6.67,2.47,1.51,1.75,2.27,4.59,2.27,8.54s-.75,6.61-2.25,8.41c-1.45,1.73-3.63,2.59-6.55,2.59h-13.41ZM86.55,22.92v10.91h3.91c2.91,0,4.37-1.82,4.37-5.45s-1.46-5.45-4.37-5.45h-3.91Z"/>
      <path class="cls-1" d="M109.33,39.38v-6.19l-7.66-15.81h7.78l3.29,8.63,3.29-8.63h7.78l-7.66,15.81v6.19h-6.81Z"/>
    </g>
    <g>
      <path class="cls-1" d="M18.35,15.85l-3.22-5.8-1.54,1.73v4.06s-4.68,0-4.68,0l.03-15.09h4.67s0,5.33,0,5.33L17.95.76h6.2s-5.29,5.84-5.29,5.84l5.72,9.27h-6.21Z"/>
      <path class="cls-1" d="M40.79.73l-.03,15.15h-5.26s0-1.7,0-1.7h-.04c-.33.57-.9,1.08-1.7,1.52-.96.51-2.03.77-3.21.77-1.59,0-2.84-.47-3.75-1.39-1-1.02-1.49-2.53-1.49-4.55l.02-9.83h5.43s-.01,8.04-.01,8.04c0,1.83.69,2.74,2.08,2.75,1.68,0,2.52-1.21,2.53-3.62V.72s5.44,0,5.44,0Z"/>
    </g>
    <g>
      <polygon class="cls-1" points="50.04 6.88 49.29 9.62 50.8 9.62 50.06 6.88 50.04 6.88"/>
      <path class="cls-1" d="M57.64,9.52v-2.13s-1.23-.27-1.23-.27c-.06-.26-.14-.52-.23-.77l.93-.85-1.03-1.84-1.28.42c-.16-.18-.34-.35-.52-.51l.41-1.28-1.8-1.07-.92,1.03c-.22-.07-.45-.13-.68-.18l-.28-1.33h-2.08s-.28,1.32-.28,1.32c-.25.05-.49.12-.72.19l-.85-.97-1.8,1.06.38,1.2c-.21.19-.41.38-.6.59l-1.11-.37-1.04,1.84.82.76c-.11.3-.2.61-.26.93l-1.02.22v2.13s.96.21.96.21c.06.36.15.71.26,1.05l-.69.63,1.04,1.84.86-.28c.24.29.51.57.79.82l-.26.84,1.8,1.07.59-.67c.36.13.73.22,1.11.29l.18.85h2.08s.19-.91.19-.91c.36-.08.71-.19,1.05-.32l.61.69,1.8-1.06-.31-.99c.24-.23.47-.49.68-.76l.96.32,1.04-1.84-.84-.78c.08-.29.15-.59.19-.89l1.11-.24ZM51.61,12.52l-.26-.93h-2.61s-.27.92-.27.92h-2.66s2.71-8.08,2.71-8.08h3.07s2.68,8.09,2.68,8.09h-2.66Z"/>
    </g>
    <g>
      <path class="cls-1" d="M52.51,29.58v-2.96s-1.72-.38-1.72-.38c-.09-.37-.2-.72-.32-1.07l1.29-1.19-1.45-2.57-1.78.59c-.23-.25-.47-.48-.72-.7l.56-1.79-2.5-1.48-1.27,1.44c-.31-.1-.63-.18-.95-.25l-.39-1.85h-2.89l-.39,1.85c-.34.07-.68.16-1.01.27l-1.19-1.34-2.5,1.48.53,1.67c-.3.26-.58.53-.84.83l-1.55-.51-1.45,2.57,1.14,1.06c-.15.42-.27.86-.37,1.3l-1.42.31v2.96s1.35.3,1.35.3c.08.5.2.99.36,1.46l-.96.89,1.45,2.57,1.2-.4c.34.41.71.79,1.11,1.13l-.37,1.16,2.5,1.48.82-.93c.5.17,1.01.31,1.54.39l.25,1.19h2.89l.27-1.28c.5-.11.99-.26,1.46-.46l.85.96,2.51-1.48-.43-1.38c.34-.33.66-.68.95-1.06l1.34.45,1.45-2.57-1.18-1.09c.11-.4.21-.82.27-1.24l1.55-.34ZM46.01,33.32l-.77-1.13-3.53,1.21.05,1.38-3.6,1.23.09-12.18,4.15-1.42,7.21,9.68-3.6,1.23Z"/>
      <polygon class="cls-1" points="41.39 26.43 41.58 30.48 43.63 29.78 41.41 26.42 41.39 26.43"/>
    </g>
  </g>
  <path class="cls-1" d="M118.45,37.63c0-.25.04-.47.13-.68.09-.2.2-.37.35-.51.15-.14.32-.25.53-.33.2-.08.42-.11.65-.11s.45.04.65.11c.2.07.38.18.53.33.15.14.27.31.35.51.09.2.13.43.13.68s-.04.48-.13.67c-.08.2-.2.37-.35.51-.15.14-.33.25-.53.33-.2.08-.42.11-.65.11-.26,0-.49-.04-.69-.11-.2-.08-.38-.18-.52-.33-.14-.14-.25-.31-.33-.51-.08-.2-.12-.42-.12-.67M118.9,37.63c0,.19.03.35.09.5.06.15.14.28.25.38.11.11.24.18.38.24.15.06.31.09.49.09s.34-.03.49-.09c.15-.06.28-.14.39-.24.11-.1.19-.23.25-.38.06-.15.09-.32.09-.5s-.03-.36-.09-.5c-.06-.15-.14-.28-.25-.38-.11-.1-.24-.18-.39-.24-.15-.06-.31-.08-.49-.08s-.34.03-.49.08c-.15.06-.28.14-.38.24-.11.1-.19.23-.25.38-.06.15-.09.32-.09.5M120.69,38.35c-.07.04-.15.07-.25.1-.09.03-.2.04-.32.04-.24,0-.43-.08-.56-.23-.14-.16-.21-.36-.21-.63,0-.28.07-.49.21-.64.14-.15.33-.22.55-.22.12,0,.22.01.3.04s.17.06.25.11l-.14.38c-.06-.03-.11-.05-.15-.06h-.13c-.09-.01-.16.02-.23.09-.06.07-.09.17-.09.32,0,.13.03.23.1.29s.15.1.25.1c.06,0,.11,0,.16-.02l.13-.05.14.39Z"/>
</svg>