<?xml version="1.0" encoding="UTF-8"?>
<svg id="CLIENTES" xmlns="http://www.w3.org/2000/svg" version="1.1" viewBox="0 0 46.31 40">
  <defs>
    <style>
      .cls-1 {
        fill: #d6e031;
      }

      .cls-1, .cls-2, .cls-3, .cls-4, .cls-5, .cls-6, .cls-7, .cls-8 {
        stroke-width: 0px;
      }

      .cls-2 {
        fill: #f58229;
      }

      .cls-3 {
        fill: #4b220a;
      }

      .cls-4 {
        fill: #b98263;
      }

      .cls-5 {
        fill: #ec008c;
      }

      .cls-6 {
        fill: #62351f;
      }

      .cls-7 {
        fill: #78b7e4;
      }

      .cls-8 {
        fill: #8a573e;
      }
    </style>
  </defs>
  <polygon class="cls-4" points="3.58 3.58 0 0 46.31 0 42.74 3.58 3.58 3.58"/>
  <rect class="cls-3" x="3.58" y="3.58" width="39.16" height="32.84"/>
  <polygon class="cls-6" points="3.58 36.42 0 40 46.31 40 42.74 36.42 3.58 36.42"/>
  <polygon class="cls-8" points="0 0 0 40 3.58 36.42 3.58 3.58 0 0"/>
  <polygon class="cls-8" points="42.74 3.58 46.31 0 46.31 40 42.74 36.42 42.74 3.58"/>
  <path class="cls-1" d="M41.33,34.09c.51,0,.91.41.91.92s-.4.92-.91.92-.92-.4-.92-.92.41-.92.92-.92h0ZM41.33,34.24c-.41,0-.74.35-.74.77s.33.77.74.77c.41,0,.74-.34.74-.77s-.33-.78-.74-.78h0ZM41.16,35.54h-.16v-1.02c.09-.01.17-.03.29-.03.16,0,.26.03.32.08.06.04.09.11.09.21,0,.13-.09.21-.2.25h0c.09.02.15.11.17.26.03.16.05.22.07.25h-.17s-.05-.13-.07-.26c-.03-.13-.09-.18-.22-.18h-.11v.44ZM41.16,34.98h.12c.13,0,.25-.05.25-.18,0-.09-.07-.18-.25-.18-.05,0-.09,0-.12,0v.34Z"/>
  <path class="cls-5" d="M36.31,9.31c0,3.38-2.42,5.43-5.98,5.43s-5.73-2.31-5.73-5.25c0-3.09,2.33-5.4,5.92-5.4s5.78,2.37,5.78,5.22M27.51,9.45c0,2.02,1.12,3.44,2.96,3.44s2.93-1.5,2.93-3.5c0-1.85-1.05-3.44-2.95-3.44s-2.95,1.5-2.95,3.5"/>
  <path class="cls-2" d="M24.95,19.97c0,3.38-2.42,5.43-5.98,5.43s-5.73-2.31-5.73-5.25c0-3.09,2.33-5.4,5.93-5.4s5.78,2.37,5.78,5.22M16.15,20.11c0,2.02,1.12,3.44,2.96,3.44s2.93-1.5,2.93-3.5c0-1.85-1.05-3.44-2.94-3.44s-2.94,1.5-2.94,3.5"/>
  <path class="cls-7" d="M22.73,30.5c0,3.38-2.42,5.43-5.98,5.43s-5.73-2.31-5.73-5.25c0-3.09,2.33-5.4,5.93-5.4s5.78,2.37,5.78,5.22M13.93,30.64c0,2.02,1.12,3.44,2.96,3.44s2.93-1.5,2.93-3.5c0-1.85-1.05-3.44-2.94-3.44s-2.95,1.5-2.95,3.5"/>
  <path class="cls-1" d="M42.05,27.24c.12-.19.2-.42.2-.67,0-.69-.56-1.25-1.25-1.25-.46,0-.88.24-1.08.62l-.97,1.94c-.36.73-.65,1.33-.92,1.97h-.04c-.31-.67-.56-1.22-.94-1.97l-.95-1.88c-.22-.4-.65-.67-1.14-.67-.72,0-1.3.58-1.3,1.3,0,.23.06.45.17.64l2.68,4.22v3c0,.76.61,1.37,1.37,1.37s1.37-.62,1.37-1.37v-3.08l2.79-4.18Z"/>
  <path class="cls-7" d="M11.68,33.96s-4.84-.01-4.84-.01v-7.14c0-.76-.62-1.38-1.38-1.38s-1.38.62-1.38,1.38v9.1h7.61c.54,0,.98-.44.98-.98s-.44-.97-.98-.97"/>
  <path class="cls-5" d="M13.32,12.44c-.06,0-.11,0-.16.02-.52.18-1.47.32-2.3.32-2.46,0-3.9-1.3-3.9-3.37,0-2.29,1.7-3.41,3.88-3.41.98,0,1.75.18,2.31.38,0,0,.18.04.28.04.53,0,.97-.43.97-.97,0-.7-.68-.93-.68-.93-.49-.21-1.57-.46-3-.46-3.69,0-6.65,1.96-6.65,5.48,0,2.94,2.17,5.16,6.38,5.16,1.48,0,2.71-.25,3.13-.44.31-.15.68-.28.68-.9,0-.51-.42-.93-.93-.93"/>
  <path class="cls-1" d="M28.91,29.92c-.5,0-.91.41-.91.91s.41.91.91.91h1.88v2.16c-.22.09-.72.15-1.36.15-2.26,0-3.83-1.25-3.83-3.38,0-2.23,1.73-3.34,4.03-3.34,1.34,0,2.17.2,2.84.44h0c.09.03.19.04.28.04.54,0,.98-.44.98-.98,0-.44-.29-.81-.7-.94-.6-.24-1.81-.5-3.37-.5-3.99,0-6.94,1.96-6.96,5.38-.02,1.52.6,2.86,1.72,3.75,1.12.92,2.73,1.39,4.95,1.39,1.61,0,3.22-.34,4.07-.58v-5.43h-4.54Z"/>
  <path class="cls-2" d="M13.35,23.12c-.06,0-.11,0-.16.02-.52.18-1.47.32-2.3.32-2.46,0-3.9-1.3-3.9-3.37,0-2.29,1.7-3.41,3.89-3.41.98,0,1.75.18,2.31.38,0,0,.18.04.28.04.53,0,.97-.43.97-.97,0-.7-.68-.93-.68-.93-.49-.21-1.57-.46-3-.46-3.69,0-6.65,1.96-6.65,5.48,0,2.94,2.17,5.15,6.38,5.15,1.48,0,2.71-.25,3.13-.44.31-.14.68-.28.68-.9,0-.51-.42-.93-.93-.93"/>
  <path class="cls-5" d="M24.6,5.48c0-.76-.62-1.37-1.37-1.37s-1.37.61-1.37,1.37v2.75h-4.53s0-2.74,0-2.75c0-.76-.62-1.37-1.38-1.37s-1.38.61-1.38,1.37v7.87c0,.76.62,1.38,1.38,1.38s1.38-.62,1.38-1.38v-3.09h4.53v3.09c0,.76.61,1.38,1.37,1.38s1.37-.62,1.37-1.38v-7.87Z"/>
</svg>