<?xml version="1.0" encoding="UTF-8"?>
<svg id="CLIENTES" xmlns="http://www.w3.org/2000/svg" version="1.1" viewBox="0 0 190.76 40">
  <defs>
    <style>
      .cls-1 {
        fill: #fff;
      }

      .cls-1, .cls-2 {
        stroke-width: 0px;
      }

      .cls-2 {
        fill: #231f20;
      }
    </style>
  </defs>
  <g>
    <path class="cls-2" d="M68.36,28.89c-1.12.41-3.36,1.01-5.97,1.01-2.93,0-5.34-.71-7.23-2.43-1.67-1.53-2.7-3.98-2.7-6.85,0-5.48,3.99-9.49,10.48-9.49,2.24,0,4.02.46,4.85.85l-.63,1.94c-1.03-.46-2.33-.79-4.28-.79-4.71,0-7.78,2.78-7.78,7.39s2.93,7.42,7.47,7.42c1.64,0,2.76-.22,3.33-.49v-5.48h-3.9v-1.91h6.37v8.84Z"/>
    <path class="cls-2" d="M70.72,20.63c0-1.55-.03-2.89-.11-4.12h2.21l.11,2.59h.09c.63-1.77,2.18-2.89,3.88-2.89.26,0,.46.03.69.08v2.24c-.29-.03-.55-.05-.89-.05-1.78,0-3.04,1.28-3.39,3.06-.06.35-.09.74-.09,1.15v7.04h-2.53l.03-9.08Z"/>
    <path class="cls-2" d="M90.21,26.11c0,1.36.03,2.56.11,3.6h-2.24l-.14-2.16h-.06c-.63,1.06-2.12,2.46-4.59,2.46-2.18,0-4.79-1.17-4.79-5.78v-7.72h2.53v7.28c0,2.51.83,4.23,3.1,4.23,1.69,0,2.87-1.12,3.33-2.21.14-.33.23-.76.23-1.23v-8.07h2.53v9.6Z"/>
    <path class="cls-2" d="M92.97,20.82c0-1.69-.03-3.05-.11-4.31h2.27l.14,2.26h.06c1.01-1.64,2.67-2.56,4.91-2.56,3.39,0,5.91,2.7,5.91,6.71,0,4.75-3.07,7.09-6.32,7.09-1.87,0-3.45-.76-4.28-2.07h-.06v7.17h-2.53v-14.29ZM95.5,24.34c0,.33.03.68.12.98.43,1.66,1.98,2.81,3.76,2.81,2.67,0,4.22-2.07,4.22-5.1,0-2.65-1.44-4.91-4.11-4.91-1.72,0-3.36,1.15-3.85,2.95-.06.33-.14.68-.14.98v2.29Z"/>
    <path class="cls-2" d="M113.56,30.01c-3.73,0-6.66-2.62-6.66-6.79,0-4.42,3.07-7.01,6.89-7.01s6.69,2.76,6.69,6.76c0,4.91-3.59,7.04-6.89,7.04h-.03ZM113.64,28.21c2.41,0,4.22-2.16,4.22-5.16,0-2.24-1.18-5.05-4.16-5.05s-4.25,2.62-4.25,5.13c0,2.89,1.72,5.07,4.16,5.07h.03Z"/>
    <path class="cls-2" d="M131.15,24.99l-1.35,4.72h-4.54l5.91-18.38h5.71l6.03,18.38h-4.71l-1.49-4.72h-5.57ZM136.06,21.88l-1.21-3.9c-.32-1.09-.66-2.48-.95-3.55h-.09c-.26,1.09-.58,2.48-.86,3.55l-1.18,3.9h4.28Z"/>
    <path class="cls-2" d="M143.82,26.11c.8.46,2.47.98,3.76.98s1.87-.41,1.87-1.09-.43-1.04-2.04-1.55c-2.93-.9-4.05-2.43-4.02-3.98,0-2.51,2.24-4.39,5.71-4.39,1.64,0,3.07.38,3.93.79l-.75,2.84c-.63-.3-1.87-.74-3.04-.74-1.06,0-1.67.41-1.67,1.06s.54.98,2.27,1.55c2.67.85,3.76,2.16,3.79,4.09,0,2.51-2.04,4.34-6.06,4.34-1.84,0-3.47-.41-4.54-.95l.77-2.95Z"/>
    <path class="cls-2" d="M154.87,20.84c0-1.75-.06-3.22-.11-4.47h3.79l.2,1.85h.06c1.03-1.39,2.64-2.16,4.68-2.16,3.07,0,5.83,2.54,5.83,6.79,0,4.86-3.24,7.15-6.37,7.15-1.69,0-3.02-.65-3.65-1.53h-.06v6.63h-4.36v-14.27ZM159.23,23.98c0,.33.03.6.09.87.29,1.12,1.29,1.96,2.56,1.96,1.89,0,3.01-1.5,3.01-3.76,0-2.13-1.01-3.74-2.96-3.74-1.23,0-2.33.87-2.61,2.1-.06.22-.09.49-.09.74v1.83Z"/>
    <path class="cls-2" d="M172.76,14.62c-1.46,0-2.41-.98-2.41-2.21s.98-2.21,2.47-2.21,2.41.95,2.44,2.21c0,1.23-.95,2.21-2.47,2.21h-.03ZM170.6,29.71v-13.34h4.36v13.34h-4.36Z"/>
    <path class="cls-2" d="M190.64,10.34v15.38c0,1.53.06,3.08.11,3.98h-3.88l-.17-1.94h-.09c-.86,1.47-2.58,2.24-4.39,2.24-3.33,0-6-2.7-6-6.85-.03-4.47,2.93-7.09,6.29-7.09,1.75,0,3.07.6,3.7,1.5h.06v-7.23h4.36ZM186.28,22.04c0-.25,0-.52-.06-.76-.26-1.12-1.21-2.02-2.56-2.02-2.01,0-3.01,1.69-3.01,3.79,0,2.24,1.18,3.66,2.99,3.66,1.26,0,2.3-.82,2.56-1.99.06-.27.09-.6.09-.93v-1.75Z"/>
  </g>
  <rect class="cls-2" y=".06" width="43.85" height="39.83"/>
  <path class="cls-1" d="M37.15,11.71c.26-12.93-7.69-12.95-14.76-9.01-11.09-6.68-15.06.18-15.19,8.29-11.34,6.27-7.37,13.13-.42,17.3-.24,12.94,7.7,12.96,14.78,9.01,11.09,6.69,15.05-.19,15.19-8.29,11.33-6.26,7.36-13.12.41-17.3ZM31.35,3.8c1.71.68,2.35,3.04,2.56,5.4-1.5-.24-10.32-1.69-12.6-2.06,3.7-2.71,7.79-4.21,10.04-3.34ZM28.85,11.59l3.84,10.16-6.89,8.42-10.73-1.75-3.85-10.18,6.88-8.43,10.75,1.77ZM12.63,3.79c1.44-1.15,3.81-.53,5.95.47-.95,1.17-6.61,8.09-8.07,9.88-.5-4.57.25-8.85,2.13-10.35ZM3.26,19.98c-.27-1.83,1.43-3.56,3.38-4.92.54,1.41,3.7,9.8,4.54,11.94-4.21-1.85-7.57-4.65-7.91-7.02ZM12.58,36.19c-1.72-.67-2.36-3.04-2.56-5.39,1.5.24,10.33,1.68,12.6,2.05-3.71,2.72-7.79,4.22-10.03,3.34ZM31.29,36.21c-1.43,1.16-3.8.53-5.94-.47.95-1.16,6.61-8.11,8.07-9.88.5,4.56-.24,8.85-2.13,10.35ZM37.29,24.94c-.54-1.4-3.7-9.78-4.53-11.94,4.21,1.87,7.57,4.66,7.92,7.03.27,1.81-1.45,3.55-3.39,4.91Z"/>
</svg>