<?xml version="1.0" encoding="UTF-8"?>
<svg id="CLIENTES" xmlns="http://www.w3.org/2000/svg" version="1.1" viewBox="0 0 138.06 40">
  <defs>
    <style>
      .cls-1 {
        fill: #000;
        stroke-width: 0px;
      }
    </style>
  </defs>
  <path class="cls-1" d="M116.72,15.6c0-.55.41-1.04.97-1.04s1.04.41,1.04,1.04-.41,1.04-.97,1.04c-.62-.07-1.04-.48-1.04-1.04ZM117.69,16.78c.69,0,1.24-.55,1.24-1.24s-.55-1.24-1.24-1.24-1.24.55-1.24,1.24c0,.76.62,1.24,1.24,1.24ZM117.41,15.67h.28l.35.62h.28l-.41-.62c.21,0,.35-.14.35-.41s-.14-.41-.48-.41h-.55v1.45h.21v-.62ZM117.41,15.47v-.41h.28c.14,0,.28,0,.35.21,0,.21-.14.21-.35.21h-.28Z"/>
  <path class="cls-1" d="M16.08,0c1.45-.07,2.83.83,2.9,1.93.07.69-.62,1.38-1.45,1.66-.41.14-1.17.14-1.73.07-1.79-.28-2.97-1.24-2.97-1.17-.62.9-.21,1.86-.14,1.86,0,0,1.93-.07,1.79.9,0,.07-.21.28-.55.28-.97,0-1.45-.76-1.59-.76-2.9.48-6.7,3.8-7.18,6.97-.07.35-.07.55,0,.83.21,1.73,2,2.55,3.66,2.55,2,0,6.21-1.38,6.7-5.11.21-1.45-1.38-2.48-2.21-2.55-4.14-.48-6.21,4-6.28,4.07-.28.07,1.66-3.87,5.25-4.28.48-.07.76,0,1.31,0,1.52.14,2.76,1.52,2.69,3.11-.14,2.62-3.24,4.97-6.14,5.11-.76.07-1.24,0-2,0-2.07-.14-4.35-2.14-4.42-4.62-.07-4.69,6.97-6.42,8.42-6.42-.28-.83-.28-.76-.28-1.31,0-.35.28-.97.28-.97-1.17-.69-2.48-1.38-3.93-1.45-1.24-.07-2,.55-2.07,1.24-.07.48.21,1.17,1.59,1.1.28,0,.97-.14.97-.07s-1.24.21-1.31.14c-.76,0-1.38-.48-1.31-1.17.07-.76.76-1.52,2.14-1.45,1.52,0,2.62.62,4.14,1.38-.07,0,1.04-1.79,3.73-1.86ZM12.84,4.7c.21.35.69.62.97.69.14.07.41,0,.55-.07.07-.07,0-.35-.21-.48-.62-.35-1.24-.07-1.31-.14ZM12.98,2.21c0,.07,1.38.9,2.55,1.04.41,0,.69,0,1.1-.07.97-.14,1.79-.69,1.86-1.24,0-.83-1.04-1.66-2.14-1.66-1.59,0-2.62.76-3.38,1.93ZM16.36,13.81c0,.14-.14,1.52,1.38,1.52s4.35-4,4.21-4.07c-.14-.07-2.42,3.24-3.73,3.52-.28.07-.62-.21-.21-.9,0-.07,4.83-9.53,4.83-9.53,0,0,.28-.41.14-.41-1.17.41-1.79-.07-1.79,0,.07.07-4.97,8.97-4.83,9.87ZM35,11.05c.9,0,1.79.83,1.66.9-.07.07-.55-.76-1.79-.76-.76,0-1.59.41-2,.83,0,0,2.83,1.59,3.31,4.69.14.9.14,1.45,0,2.35-.62,3.38-3.52,5.52-6.9,5.52-.83,0-1.73-.41-1.73-.41,0-.14.21.21,1.59.28,3.11.07,5.25-2.9,5.8-6.14.14-.9.21-1.45,0-2.42-.21-1.24-1.31-2.76-2.42-3.38-.07-.07-1.59,1.24-4.42,8.08-.55,1.24-1.86,4.9-3.31,8.21-3.24,7.39-8.77,10.22-14.22,10.77-.97.07-1.52.07-2.48,0C3.11,39.14-.07,35.07,0,30.65c.07-7.11,6.83-12.22,12.42-12.22,2.62,0,4.56,1.66,4.56,1.59.76-2.83,5.38-8.42,10.56-8.97,1.04-.07,1.59-.07,2.62,0,1.24.14,2.42.76,2.42.76.76-.41,1.17-.76,2.42-.76ZM17.19,20.23c-.07.21,1.52,1.38,1.86,4.14.14.83.14,1.38,0,2.21-1.17,7.18-7.39,9.46-7.39,9.46,0,0-1.17.48-.83.14,0,0,2.14-.62,3.93-2.48,2-2.07,3.18-4.83,3.59-7.18.14-.9.07-1.38,0-2.28-.14-1.66-.97-2.97-.97-2.97l-.28-.48c-.07.41-.21,1.1-.21,1.73-.07.83,0,1.31.21,2.14.07.35.41.9.28.9-.07,0-.55-.62-.69-2.28-.14-1.24.21-2.83.21-2.83,0-.14-1.52-1.52-3.87-1.73-1.17-.07-3.59.21-5.8,1.79-3.45,2.35-5.87,7.73-6.01,9.59-.14,1.73-.14,2.28-.07,2.83.62,3.66,3.04,6.01,7.87,6.14,2.9.07,5.8-1.79,7.25-3.31,5.11-5.31,6.35-11.46,10.63-17.95,1.66-2.55,4.49-5.18,5.11-5.52-.69-.41-1.86-.62-2.97-.69-6.42-.35-11.46,6.42-11.87,8.63ZM34.24,34.17c2.55-4.56,6.7-12.84,6.7-12.84,0,0,.55.14.9.14.48,0,1.24-.21,1.24-.21,0,0-7.18,13.87-7.32,14.22-.21.41,0,.76.41.9.48.07,2.62-1.52,2.83-2.55.41-2.28,4.14-6.56,7.39-6.42,1.04,0,1.38.55,1.66,1.17.07-.07.62-.9.69-1.04,0,0,1.04.41,2.07.07,0,0-4.56,8.14-4.56,8.21-.07.35.07.55.48.62.76.07,2.9-1.66,3.11-2.62.48-2.07,3.59-6.21,6.63-6.21.97,0,1.1.55,1.1,1.17,0,1.04-1.1,2.07-1.45,2.21-.07,0-.21,0-.41-.14-.14-.14-.14-.35-.14-.55,0-.9,1.04-2.14,1.73-2.14-.07-.21-.21-.35-.62-.35-1.66,0-5.25,5.52-5.18,7.52,0,.62.28,1.31.97,1.24,1.59-.07,3.59-1.73,4-2.76.48-1.1,3.45-6.21,3.45-6.28,0,0,.28.35,2,.07,0,0-4.21,8.08-4.28,8.21-.14.28-.07.62.35.69.69.14,2.76-1.79,2.97-2.69.35-1.31,3.38-6.28,6.49-6.28.62,0,1.1.21,1.31.83.14.41.07.97,0,1.52-.21,1.04-.62,1.93-1.24,3.24,0,0,.28-.07.55-.14,1.1-.28,2-1.31,2.14-1.24.14.14-1.45,1.66-2.97,1.73,0,0-2.35,3.38-4.56,3.38-1.31,0-1.93-1.45-1.86-2.28-.28.35-1.86,2.35-3.31,2.21-1.59-.14-1.52-1.52-1.52-1.86-.62.62-2.28,1.93-3.93,1.86-.83-.07-2.28-.62-2.28-2.35-.48.55-2.07,2.35-3.87,2.28-1.04-.07-1.45-.83-1.59-1.52-.41.41-1.79,1.73-3.66,1.59-1.52-.07-2.07-1.24-2-2-.55.41-1.73,2-3.18,1.86-.97-.07-1.52-.69-1.66-1.52-.9.76-1.73,1.52-3.11,1.52-1.04,0-1.66-.9-1.66-1.66-.76.76-2.07,1.73-3.59,1.73s-1.93-1.17-2-2c-.07-2.69,4-7.52,7.39-7.45,1.38,0,1.52.48,1.86,1.1.21-.21.69-1.1.69-1.04,0,0,1.04.28,2.07.07,0,0-4.56,8.14-4.62,8.14-.28.55.35.76.41.76.9,0,1.79-.83,2-1.04.69-.48.97-1.1.97-1.1ZM62.47,35.83c0,.28.21.76.62.76,1.38-.07,3.45-2.48,3.73-2.97-.41-.28-.55-.41-.69-.76-.07-.21-.07-.69,0-1.04.21-.97.69-1.93,1.66-1.86.21,0,.35.07.55.28.14-.21.21-.76.21-1.1,0-.41-.14-1.1-.69-1.1-2.14,0-5.31,6.28-5.38,7.8ZM25.33,35.55c0,.28.14.9.69.9,2.48,0,5.8-4.83,6.21-7.59.14-.83-.35-1.17-1.17-1.04-2.42.41-5.87,6.42-5.73,7.73ZM40.59,35.69c0,.41.21.9.76.9,2.83-.07,5.25-4.56,6.14-7.73.28-.83-.28-1.17-1.1-1.04-2.35.28-5.94,6.56-5.8,7.87ZM60.74,26.16c-.14.62.35.83.76.83.62,0,1.1-.41,1.31-1.04.07-.21.07-.35,0-.48-.14-.35-.69-.35-.69-.35-.21-.07-1.17.07-1.38,1.04ZM84.49,21.26s.62.07,1.04.07c.48,0,1.17-.14,1.17-.14,0,0-6.63,12.7-7.59,14.7-.28.55,0,.69.21.76.76.07,2.42-1.38,2.42-2,0-.07-.21-1.38,1.04-3.18,1.86-2.62,3.93-3.66,5.04-3.87.41-.07.76,0,1.1,0,.76.07,1.17.83,1.1,1.31-.28,1.66-2.55,3.45-5.45,2.76,0,0-1.04,1.59-1.04,3.31,0,.9.35,1.59,1.17,1.59,2.83.14,5.04-4.14,5.18-4,.14.14-2.14,3.93-4.62,4.28-.62.07-1.04.21-1.73,0-.9-.28-1.73-1.1-1.93-1.52-.28.28-1.52,1.66-2.69,1.66-.83,0-1.86-.76-1.79-1.79-.41.41-1.66,1.59-2.76,1.73-.55.07-.9.07-1.45,0-.9-.14-1.66-.83-1.66-2.14,0-2.62,4.35-7.66,7.66-7.66,1.24,0,1.45,1.17,1.45,1.59l4.14-7.45ZM73.37,35.55c0,.55.28,1.04.83,1.04,1.86.07,4.69-3.18,5.87-7.32.28-.9.07-1.66-.9-1.73-2-.07-5.8,6.14-5.8,8.01ZM84.9,31.2c0-.07.07.21,1.1,0,1.66-.21,3.24-1.86,3.31-2.83.07-.55-.48-.69-.69-.69-2.14.14-3.73,3.45-3.73,3.52ZM92.08,17.88s-.14.48-.14.97c.14,2.07,2.07,2.69,3.87,2.69,3.52.07,5.73-3.59,5.45-3.52-.21.07-1.93,3.04-4.97,3.38-.48.07-.97,0-1.45-.07-2.62-.48-2.9-2-2.69-3.31h0c0-.07.83-2.76,4.35-3.31.55-.07,1.17-.14,1.86,0,1.38.21,2.21.62,3.66.76.62.07.97.07,1.52.07s.83-.07,1.31-.14c.83-.14,1.59-.35,2.07-.41-1.17.83-3.73,2.69-6.14,6.07-3.04,4.21-3.8,6.01-3.93,6.01h-2.69v.55h2.35c-1.04,1.59-5.73,11.94-11.53,12.01-2.62,0-3.93-1.04-3.93-1.04-.35-.21-.76-.62-.83-.48,0,.14,1.73,1.79,4.56,1.86.62,0,.97.07,1.66,0,3.8-.28,6.7-2.55,8.7-4.42,3.18-2.9,5.31-7.94,5.31-7.94h2.62c-1.04,1.73-2.62,4.28-2.83,6.49-.07.69-.07.9,0,1.73.41,3.04,2.28,3.87,3.66,3.93,1.66.07,3.04-1.38,3.04-1.45,0-.28-.97.83-2.42,1.04-.48.07-1.24-.41-1.38-1.1-.14-.83-.14-1.17,0-1.79.62-3.24,3.45-8.9,3.38-8.9h1.45v-.55h-1.17c1.38-3.38,7.18-11.8,9.59-13.74,0,0-.41.14-.62.21-2.76,1.17-6.9,6.35-7.04,6.49-2.28,2.55-5.25,7.11-5.31,7.11h-2.76c3.73-9.46,9.53-13.74,9.53-13.74-1.24.69-2.83,1.24-4.76,1.45-1.1.14-1.79.07-2.9,0-1.31-.07-2.07-.41-3.31-.55-1.04-.14-1.59-.21-2.62,0-1.93.35-3.8,1.66-4.49,3.66h0ZM110.44,25.96c-.14.62.35.83.76.83.62,0,1.1-.41,1.31-1.04.07-.21,0-.35,0-.48-.14-.35-.69-.35-.69-.35-.21-.07-1.24.07-1.38,1.04ZM120.1,26.03c.21-.35.76-.48.97,0,.41,1.04-.28,1.38-.28,1.66.14.48,1.93-.97,2.69.48.14.21.07.76,0,.9-1.04,2.21-3.04,5.25-3.31,6.42-.21.83-.07.97.35.97.48.07,1.45-.62,2.97-3.11,0,0,2-2.97,2.48-5.25-.14-.28-.55-.62-.55-1.17s.41-.97.41-.97c.07-.14.83-.69,1.04.07.28,1.17-.41,1.38-.28,1.66.21.35,1.04-.48,2.07-.14.48.14.62.69.62,1.1-.07,1.66-3.66,6.21-3.73,7.18,0,.62.35.62.41.62.9,0,2.28-1.59,2.28-1.66,0-2.9,3.66-7.94,6.56-7.94.9,0,1.45.55,1.45,1.66-.07,1.52-.62,3.31-1.1,4.21,0,0,.28,0,.41-.07,1.38-.35,2.35-1.59,2.48-1.45.14.14-1.66,1.79-3.11,1.93,0,0-2.07,3.66-4.49,3.73-1.31,0-1.93-1.31-2.07-1.66-.83.76-1.52,1.59-2.69,1.66-.83.07-1.45-.55-1.52-1.73-.07-1.93,2.07-4.56,3.59-6.63.14-.21.07-.62-.35-.48-.69.21-1.17.07-1.17.07.07.76-4,9.46-6.28,8.84,0,0-.41.07-.97-.35-.41-.35-.48-1.24-.41-1.45.07-2.35,2.21-4.83,3.45-6.63.21-.28,0-.62-.35-.48-.83.28-1.1,0-1.1.14-.14,1.17-4.28,8.9-7.39,8.77-.97-.07-2.28-.76-2.62-2.14-.35.35-1.59,2.14-3.11,2.14-.76,0-1.66-.55-1.66-1.66,0-.9,2.42-5.18,2.48-5.31.35-.69,1.24-2.55,1.31-2.55.69.21,1.17.28,2.07.07l-4.21,8.28c-.35.55,0,.69.28.76.69.21,2.62-1.66,2.76-2.35.55-3.52,4-6.49,6.49-7.04.35-.07.48,0,.83,0,.69.07,1.17.69,1.1,1.31-.21,3.24-4.97,3.38-5.45,3.04,0,0-.97,1.45-.97,3.31,0,1.38.48,1.66,1.24,1.66,2.21.07,6.07-6.07,6.63-8.28-.07-.07-1.1-.97-.28-2.14ZM130.11,35.62c0,.83.48.9.83.83,1.45-.28,3.04-2.35,3.59-3.24-.41-.21-.76-.41-.9-.83s-.07-.76,0-1.17c.21-.97.83-1.93,1.66-1.86.28,0,.41.21.55.28.07-.35.14-.76.14-1.1,0-.48-.21-1.1-.9-1.1-2.14-.07-4.9,6.35-4.97,8.21ZM113.55,31s.14.07.76.07c1.79,0,3.8-1.93,3.87-3.04.07-.48-.41-.83-.76-.76-1.86.35-3.52,2.76-3.87,3.73Z"/>
</svg>