<svg id="Layer_1" data-name="Layer 1" xmlns="http://www.w3.org/2000/svg" xmlns:xlink="http://www.w3.org/1999/xlink" viewBox="0 0 638.06 169.71"><defs><style>.cls-1{fill:none;}.cls-2{clip-path:url(#clip-path);}.cls-3{fill:#333;}.cls-4{fill:#d50045;}</style><clipPath id="clip-path" transform="translate(-181 -415.04)"><rect class="cls-1" x="181" y="415.04" width="638" height="169.92"/></clipPath></defs><title>Sedex Logo Vector</title><g id="Artwork_5" data-name="Artwork 5"><g class="cls-2"><g class="cls-2"><path class="cls-3" d="M677.79,513.08a62.85,62.85,0,0,0-3-10.85,53.77,53.77,0,0,0-11.91-18.92,56.88,56.88,0,0,0-18.71-13,62.43,62.43,0,0,0-24.88-4.68A64.48,64.48,0,0,0,594,470.33a58.75,58.75,0,0,0-19.14,13,56.07,56.07,0,0,0-12.12,19.14,64.53,64.53,0,0,0-4.26,23A63.18,63.18,0,0,0,562.74,548,55.85,55.85,0,0,0,594,579.64a62.23,62.23,0,0,0,24.88,4.68,64.12,64.12,0,0,0,33-8.5,51.57,51.57,0,0,0,20.42-21.7l1.49-3-26.37-7.23-1.07,1.48a33.84,33.84,0,0,1-58.69-8.93h90l.42-2.12a16,16,0,0,0,.64-4.47v-5.32a105.72,105.72,0,0,0-.85-11.48M619.31,491a34.05,34.05,0,0,1,30.41,18.93H589.11A33.87,33.87,0,0,1,619.31,491" transform="translate(-181 -415.04)"/><path class="cls-3" d="M420.89,513.08a62.85,62.85,0,0,0-3-10.85A53.77,53.77,0,0,0,406,483.31a57.09,57.09,0,0,0-18.71-13,62.64,62.64,0,0,0-24.89-4.89,59.5,59.5,0,0,0-25.09,4.89,58.75,58.75,0,0,0-19.14,13,56.07,56.07,0,0,0-12.12,19.14,64.53,64.53,0,0,0-4.26,23A63.18,63.18,0,0,0,306.05,548a57.12,57.12,0,0,0,31.26,31.68,62.26,62.26,0,0,0,24.88,4.68,64.15,64.15,0,0,0,33-8.5,52.94,52.94,0,0,0,20.41-21.7l1.49-3-26.37-7.23-1.28,1.48a33.84,33.84,0,0,1-58.69-8.93h90l.42-2.12a17.54,17.54,0,0,0,.64-4.68v-5.32a97.87,97.87,0,0,0-.85-11.27M332,509.89a33.81,33.81,0,0,1,60.61,0Z" transform="translate(-181 -415.04)"/><path class="cls-3" d="M188.66,555Z" transform="translate(-181 -415.04)"/><path class="cls-3" d="M188.23,558.59h0" transform="translate(-181 -415.04)"/><path class="cls-3" d="M188.66,555.82Z" transform="translate(-181 -415.04)"/><path class="cls-3" d="M188.66,555Z" transform="translate(-181 -415.04)"/><path class="cls-3" d="M188.66,555Z" transform="translate(-181 -415.04)"/><path class="cls-3" d="M188.66,555Zm-.64,3.62h0" transform="translate(-181 -415.04)"/><path class="cls-3" d="M259.47,491.17l-23.18-9.57c-12.12-4.89-23.6-9.57-23.6-21.48,0-11.27,10-18.28,25.73-18.28a52.27,52.27,0,0,1,12.76,1.7l.43.21h.21c.42.21.64.21,1.06.42h.21l.43.22.85.42h0l.43.22.63.21a12.18,12.18,0,0,1,1.7.85l1.07.64.64.42,1.06.64.64.43a15.75,15.75,0,0,1,3,2.33,22.75,22.75,0,0,1,3.83,4.05l1.28,1.48,1.7-.63,24.46-6.6-1.49-3a51.22,51.22,0,0,0-20.42-21.06,60.37,60.37,0,0,0-23.39-7.44,62.31,62.31,0,0,0-10.85-1.06c-15.1,0-28.71,4.46-38.7,12.54A39.91,39.91,0,0,0,183.76,461c0,19.56,11.49,33.81,34.88,43.59l23,9.78c14,6,24.24,10.21,24.24,23.4s-11.27,20.84-29.34,20.84h-4a31.14,31.14,0,0,1-9.79-2.34l-.42-.21-.43-.21-.42-.22h0l-.43-.21h-.21l-.43-.21a14.72,14.72,0,0,0-1.91-.85l-.43-.22-.42-.21h-.21l-.43-.64-1.06-.64-.64-.42h0a30.11,30.11,0,0,1-3-2.34,24.19,24.19,0,0,1-3.83-4.25l-1.27-1.49-1.49.64L181,551.36l1.49,3a37.63,37.63,0,0,0,3.4,5.74l.43.64.63.63a53.13,53.13,0,0,0,16,14,55.3,55.3,0,0,0,17,6.59l.21.22h.21a65.4,65.4,0,0,0,15.74,1.91c17.23,0,31.9-4.68,42.53-13.82a44,44,0,0,0,16.17-34.24c.21-26.59-17.87-37.65-35.31-44.88M188,558.59Zm.64-3.4Z" transform="translate(-181 -415.04)"/><polygon class="cls-3" points="592.49 169.71 562.08 169.71 536.56 131.43 511.04 169.71 480.63 169.71 521.46 111.22 479.35 51.04 509.76 51.04 592.49 169.71"/><path class="cls-3" d="M520.2,415v59.55a57.65,57.65,0,0,0-32.11-9.79c-32.32,0-58.48,26.8-58.48,60s26.37,60,58.48,60A57.64,57.64,0,0,0,520.2,575v9.35h29.14V415Zm-32.11,76.77A33,33,0,1,1,456,525.63v-.85a33,33,0,0,1,32.11-33" transform="translate(-181 -415.04)"/><path class="cls-4" d="M765.2,416.74a53.73,53.73,0,0,0-53.81,53.81,54.36,54.36,0,0,0,10.85,32.53l25.52-38.49h28.71l-37.22,53.17a53.87,53.87,0,1,0,51.89-94.43,54.71,54.71,0,0,0-25.94-6.59" transform="translate(-181 -415.04)"/></g></g></g></svg>