<?xml version="1.0" encoding="iso-8859-1"?>
<!-- Generator: Adobe Illustrator 26.0.1, SVG Export Plug-In . SVG Version: 6.00 Build 0)  -->
<svg version="1.1" id="Layer_1" xmlns="http://www.w3.org/2000/svg" xmlns:xlink="http://www.w3.org/1999/xlink" x="0px" y="0px"
	 viewBox="0 0 1000 1000" style="enable-background:new 0 0 1000 1000;" xml:space="preserve">
<g id="watermark_1_">
	<g>
		<g id="watermark" style="opacity:0.61;">
			<g>
				<g>
					<g>
						<g>
							<polygon style="fill:#FFFFFF;" points="421.112,924.528 409.007,952.493 402.615,952.493 390.55,924.528 397.541,924.528 
								406.051,944.503 414.68,924.528 							"/>
						</g>
						<g>
							<path style="fill:#FFFFFF;" d="M442.323,943.185h-16.26c0.599,2.677,2.876,4.315,6.153,4.315
								c2.277,0,3.915-0.679,5.393-2.077l3.316,3.595c-1.997,2.278-4.994,3.476-8.868,3.476c-7.431,0-12.265-4.674-12.265-11.067
								c0-6.432,4.914-11.066,11.466-11.066c6.312,0,11.186,4.235,11.186,11.146C442.443,941.987,442.363,942.666,442.323,943.185
								 M425.983,939.55h10.587c-0.44-2.717-2.478-4.475-5.274-4.475C428.46,935.075,426.422,936.793,425.983,939.55"/>
						</g>
						<g>
							<path style="fill:#FFFFFF;" d="M444.997,941.427c0-6.471,4.994-11.066,11.985-11.066c4.514,0,8.07,1.958,9.628,5.473
								l-4.834,2.597c-1.159-2.038-2.877-2.956-4.834-2.956c-3.156,0-5.633,2.198-5.633,5.952c0,3.756,2.477,5.953,5.633,5.953
								c1.958,0,3.675-0.879,4.834-2.956l4.834,2.637c-1.558,3.436-5.114,5.433-9.628,5.433
								C449.991,952.493,444.997,947.899,444.997,941.427"/>
						</g>
						<g>
							<path style="fill:#FFFFFF;" d="M484.386,951.135c-1.279,0.919-3.157,1.358-5.074,1.358c-5.073,0-8.03-2.597-8.03-7.711
								v-8.829h-3.316v-4.794h3.316v-5.233h6.232v5.233h5.353v4.794h-5.353v8.749c0,1.837,0.998,2.836,2.677,2.836
								c0.918,0,1.837-0.279,2.517-0.799L484.386,951.135z"/>
						</g>
					</g>
					<g>
						<path style="fill:#FFFFFF;" d="M527.157,930.68v5.753c-0.519-0.04-0.918-0.08-1.398-0.08c-3.435,0-5.713,1.877-5.713,5.993
							v10.147h-6.232V931h5.953v2.836C521.284,931.759,523.841,930.68,527.157,930.68"/>
					</g>
					<g>
						<path style="fill:#FFFFFF;" d="M528.954,949.257l2.197-4.874c2.357,1.718,5.873,2.916,9.229,2.916
							c3.836,0,5.393-1.278,5.393-2.996c0-5.233-16.26-1.638-16.26-12.025c0-4.754,3.835-8.709,11.785-8.709
							c3.516,0,7.112,0.839,9.708,2.477l-1.998,4.914c-2.597-1.478-5.273-2.197-7.75-2.197c-3.835,0-5.313,1.438-5.313,3.196
							c0,5.154,16.259,1.598,16.259,11.865c0,4.675-3.875,8.67-11.865,8.67C535.905,952.493,531.43,951.175,528.954,949.257"/>
					</g>
					<g>
						<path style="fill:#FFFFFF;" d="M577.131,943.185h-16.26c0.599,2.677,2.876,4.315,6.153,4.315c2.277,0,3.915-0.679,5.393-2.077
							l3.316,3.595c-1.998,2.278-4.994,3.476-8.869,3.476c-7.431,0-12.265-4.674-12.265-11.067c0-6.432,4.914-11.066,11.466-11.066
							c6.312,0,11.187,4.235,11.187,11.146C577.251,941.987,577.171,942.666,577.131,943.185 M560.791,939.55h10.587
							c-0.439-2.717-2.477-4.475-5.273-4.475C563.268,935.075,561.231,936.793,560.791,939.55"/>
					</g>
					<g>
						<path style="fill:#FFFFFF;" d="M602.337,943.185h-16.26c0.599,2.677,2.876,4.315,6.152,4.315c2.277,0,3.915-0.679,5.393-2.077
							l3.316,3.595c-1.998,2.278-4.994,3.476-8.869,3.476c-7.431,0-12.265-4.674-12.265-11.067c0-6.432,4.914-11.066,11.466-11.066
							c6.312,0,11.186,4.235,11.186,11.146C602.457,941.987,602.377,942.666,602.337,943.185 M585.997,939.55h10.587
							c-0.439-2.717-2.477-4.475-5.273-4.475C588.474,935.075,586.437,936.793,585.997,939.55"/>
					</g>
					<g>
						<polygon style="fill:#FFFFFF;" points="615.838,944.064 612.841,947.02 612.841,952.493 606.61,952.493 606.61,922.85 
							612.841,922.85 612.841,939.629 621.95,931 629.381,931 620.432,940.108 630.18,952.493 622.63,952.493 						"/>
					</g>
					<g>
						<path style="fill:#FFFFFF;" d="M514.371,955.416L514.371,955.416l-6.226-6.226c-0.947,1.107-2.075,2.054-3.339,2.796
							c-0.201,0.15-0.406,0.296-0.616,0.433l6.589,6.589c0.992,0.992,2.601,0.992,3.592,0
							C515.363,958.017,515.363,956.408,514.371,955.416"/>
					</g>
					<g>
						<path style="fill:#FFFFFF;" d="M499.965,929.04c0.48-0.377,1.077-0.612,1.735-0.612c0.091,0,0.181,0.005,0.27,0.013
							c-0.466-0.34-1.041-0.542-1.663-0.542c-0.859,0-1.619,0.392-2.137,0.998c-0.111,0-0.218,0.013-0.328,0.016
							c0.086-0.167,0.139-0.354,0.139-0.555c0-0.509-0.311-0.945-0.752-1.13c0.19,0.275,0.301,0.608,0.301,0.968
							c0,0.267-0.066,0.517-0.176,0.742c-6.119,0.437-10.95,5.527-10.95,11.757c0,6.516,5.283,11.799,11.799,11.799
							c6.517,0,11.8-5.283,11.8-11.799C510.004,934.777,505.644,929.892,499.965,929.04 M495.61,932.114
							c0.947,0,1.837,0.244,2.611,0.674c0.813-0.532,1.785-0.842,2.828-0.842c1.547,0,2.934,0.68,3.883,1.756
							c-0.948-0.826-2.186-1.328-3.541-1.328c-0.977,0-1.895,0.261-2.686,0.716c-0.172,0.1-0.34,0.208-0.499,0.326
							c-0.142-0.104-0.29-0.203-0.444-0.292c-0.803-0.476-1.741-0.749-2.743-0.749c-0.653,0-1.279,0.117-1.86,0.331
							C493.895,932.328,494.727,932.114,495.61,932.114 M503.858,941.785c0.25,0.664,0.394,1.38,0.394,2.131
							c0,3.34-2.707,6.047-6.047,6.047c-3.339,0-6.047-2.707-6.047-6.047c0-0.751,0.143-1.467,0.394-2.131
							c-1.35-0.831-2.253-2.317-2.253-4.019c0-2.607,2.114-4.72,4.72-4.72c1.23,0,2.346,0.474,3.186,1.244
							c0.84-0.77,1.956-1.244,3.186-1.244c2.607,0,4.72,2.113,4.72,4.72C506.111,939.467,505.208,940.954,503.858,941.785"/>
					</g>
					<g>
						<path style="fill:#FFFFFF;" d="M503.627,937.351c0,1.082-0.879,1.961-1.961,1.961c-1.082,0-1.961-0.879-1.961-1.961
							s0.879-1.961,1.961-1.961c0.22,0,0.428,0.037,0.625,0.102c-0.065,0.135-0.099,0.287-0.099,0.445
							c0,0.595,0.482,1.076,1.077,1.076c0.11,0,0.217-0.017,0.318-0.048C503.613,937.089,503.627,937.218,503.627,937.351"/>
					</g>
					<g>
						<path style="fill:#FFFFFF;" d="M496.201,937.351c0,0.818-0.665,1.482-1.483,1.482c-0.818,0-1.483-0.664-1.483-1.482
							s0.665-1.483,1.483-1.483c0.166,0,0.324,0.027,0.473,0.077c-0.049,0.102-0.075,0.217-0.075,0.337
							c0,0.449,0.364,0.814,0.814,0.814c0.083,0,0.164-0.013,0.241-0.036C496.191,937.153,496.201,937.251,496.201,937.351"/>
					</g>
					<g>
						<g>
							<g>
								<rect x="484.56" y="939.024" style="fill:#FFFFFF;" width="1.34" height="1.34"/>
							</g>
							<g>
								<rect x="510.51" y="939.024" style="fill:#FFFFFF;" width="1.34" height="1.34"/>
							</g>
							<g>
								<path style="fill:#FFFFFF;" d="M511.332,939.572h-0.304c0-7.07-5.752-12.823-12.823-12.823
									c-7.07,0-12.823,5.753-12.823,12.823h-0.305c0-3.506,1.365-6.803,3.845-9.282c2.479-2.48,5.776-3.845,9.282-3.845
									c3.507,0,6.803,1.365,9.283,3.845C509.966,932.769,511.332,936.065,511.332,939.572"/>
							</g>
						</g>
						<g>
							<rect x="497.534" y="925.927" style="fill:#FFFFFF;" width="1.34" height="1.34"/>
						</g>
						<g>
							<rect x="489.006" y="926.445" style="fill:#FFFFFF;" width="18.397" height="0.304"/>
						</g>
						<g>
							<path style="fill:#FFFFFF;" d="M489.494,926.658c0,0.235-0.191,0.427-0.427,0.427c-0.235,0-0.426-0.191-0.426-0.427
								s0.191-0.427,0.426-0.427C489.303,926.231,489.494,926.422,489.494,926.658"/>
						</g>
						<g>
							<path style="fill:#FFFFFF;" d="M507.829,926.658c0,0.235-0.191,0.427-0.427,0.427c-0.235,0-0.426-0.191-0.426-0.427
								s0.191-0.427,0.426-0.427C507.639,926.231,507.829,926.422,507.829,926.658"/>
						</g>
					</g>
				</g>
				<g>
					<path style="fill:#FFFFFF;" d="M640.109,951.171c0,3.395-5.146,3.395-5.146,0C634.963,947.779,640.109,947.779,640.109,951.171
						z"/>
				</g>
				<g>
					<g>
						<g>
							<path style="fill:#FFFFFF;" d="M307.849,936.236l3.859,13.253l4.038-13.253h4.823l-6.145,17.721h-5.073l-1.822-5.216
								l-1.572-5.896l-1.571,5.896l-1.822,5.216h-5.073l-6.18-17.721h4.858l4.038,13.253l3.822-13.253H307.849z"/>
						</g>
						<g>
							<path style="fill:#FFFFFF;" d="M340.449,936.236l3.859,13.253l4.038-13.253h4.823l-6.145,17.721h-5.073l-1.822-5.216
								l-1.571-5.896l-1.572,5.896l-1.822,5.216h-5.073l-6.18-17.721h4.858l4.038,13.253l3.822-13.253H340.449z"/>
						</g>
						<g>
							<path style="fill:#FFFFFF;" d="M373.048,936.236l3.859,13.253l4.038-13.253h4.823l-6.145,17.721h-5.073l-1.822-5.216
								l-1.572-5.896l-1.571,5.896l-1.822,5.216h-5.073l-6.18-17.721h4.858l4.038,13.253l3.822-13.253H373.048z"/>
						</g>
					</g>
					<g>
						<path style="fill:#FFFFFF;" d="M393.123,951.412c0,3.395-5.146,3.395-5.146,0C387.977,948.02,393.123,948.02,393.123,951.412z
							"/>
					</g>
					<g>
						<path style="fill:#FFFFFF;" d="M658.296,951.171c-2.036,2.001-4.177,2.787-6.787,2.787c-5.108,0-9.361-3.072-9.361-9.323
							c0-6.251,4.253-9.326,9.361-9.326c2.502,0,4.43,0.716,6.359,2.609l-2.752,2.894c-1.036-0.931-2.321-1.393-3.534-1.393
							c-2.929,0-5.073,2.144-5.073,5.216c0,3.357,2.286,5.143,5,5.143c1.393,0,2.787-0.393,3.857-1.463L658.296,951.171z"/>
					</g>
					<g>
						<path style="fill:#FFFFFF;" d="M678.097,944.777c0,5.073-3.465,9.181-9.181,9.181c-5.716,0-9.146-4.107-9.146-9.181
							c0-5.038,3.502-9.181,9.111-9.181S678.097,939.739,678.097,944.777z M664.128,944.777c0,2.679,1.609,5.181,4.788,5.181
							c3.179,0,4.788-2.502,4.788-5.181c0-2.644-1.859-5.216-4.788-5.216C665.772,939.561,664.128,942.133,664.128,944.777z"/>
					</g>
					<g>
						<path style="fill:#FFFFFF;" d="M692.828,953.958v-9.431c0-2.324-1.216-4.43-3.61-4.43c-2.356,0-3.75,2.106-3.75,4.43v9.431
							h-4.36v-17.649h4.038l0.323,2.144c0.928-1.786,2.964-2.429,4.643-2.429c2.109,0,4.218,0.858,5.216,3.287
							c1.574-2.502,3.61-3.217,5.896-3.217c5,0,7.467,3.075,7.467,8.36v9.504h-4.361v-9.504c0-2.321-0.963-4.288-3.322-4.288
							c-2.356,0-3.822,2.036-3.822,4.36v9.431H692.828z"/>
					</g>
				</g>
			</g>
		</g>
		<g style="opacity:0.61;">
			<g>
				<g>
					<path style="fill:#FFFFFF;" d="M708.973,859.493c-0.013-2.665-2.087-4.618-4.766-4.659c-2.011-0.031-1.81,0.261-1.815-1.887
						c-0.006-2.389-0.015-4.778,0.006-7.166c0.007-0.824-0.243-1.505-0.787-2.125c-5.098-5.81-10.184-11.63-15.281-17.441
						c-0.262-0.299-0.599-0.532-0.901-0.796c-13.528,0-27.055,0-40.583,0c-1.729,0.639-2.482,1.889-2.478,3.72
						c0.021,8.159,0.009,16.318,0.008,24.478c0,1.21-0.007,1.281-1.197,1.201c-3.258-0.221-5.477,2.147-5.436,5.426
						c0.096,7.568,0.028,15.137,0.031,22.706c0.001,3.44,1.887,5.32,5.333,5.331c1.267,0.004,1.268,0.004,1.268,1.306
						c0.001,4.831-0.002,9.662,0.002,14.493c0.002,2.595,1.262,3.855,3.85,3.855c17.446,0.001,34.891,0.001,52.337,0
						c2.543,0,3.822-1.268,3.824-3.799c0.005-4.912,0.001-9.823,0.003-14.735c0-1.115,0.005-1.112,1.131-1.121
						c0.589-0.005,1.177,0.017,1.761-0.127c2.169-0.535,3.68-2.273,3.689-4.503C709.007,875.597,709.011,867.545,708.973,859.493z
						 M647.034,828.716c11.619-0.001,23.237-0.001,34.856,0c1.193,0,1.206,0.015,1.207,1.222c0.001,4.884-0.002,9.767,0.002,14.651
						c0.001,1.765,0.543,2.305,2.307,2.306c4.159,0.003,8.318,0,12.477,0.003c0.997,0.001,1.044,0.046,1.046,1.052
						c0.006,1.932,0.005,3.864,0,5.796c-0.003,1.038-0.051,1.085-1.098,1.085c-8.479,0.002-16.958,0.001-25.438,0.001
						c-8.452,0-16.905,0-25.357,0c-1.198,0-1.202-0.003-1.202-1.221c-0.001-7.889-0.001-15.778,0-23.667
						C645.835,828.724,645.844,828.716,647.034,828.716z M697.728,903.645c-8.454,0.001-16.908,0.001-25.362,0.001
						c-8.427,0-16.854,0.001-25.281,0c-1.245,0-1.249-0.003-1.249-1.262c-0.001-4.348-0.003-8.696,0.001-13.043
						c0.001-1.01,0.051-1.059,1.041-1.059c16.989-0.002,33.977-0.002,50.966,0c1.041,0,1.086,0.044,1.087,1.094
						c0.003,4.348,0.003,8.696,0.001,13.043C698.931,903.634,698.92,903.645,697.728,903.645z"/>
				</g>
				<g>
					<g>
						<rect x="668.546" y="828.478" style="fill:#FFFFFF;" width="3.825" height="2.295"/>
					</g>
					<g>
						<rect x="664.722" y="830.773" style="fill:#FFFFFF;" width="3.825" height="2.295"/>
					</g>
					<g>
						<rect x="668.546" y="833.068" style="fill:#FFFFFF;" width="3.825" height="2.295"/>
					</g>
					<g>
						<rect x="664.722" y="835.363" style="fill:#FFFFFF;" width="3.825" height="2.295"/>
					</g>
					<g>
						<rect x="668.546" y="837.658" style="fill:#FFFFFF;" width="3.825" height="2.295"/>
					</g>
					<g>
						<rect x="664.722" y="839.953" style="fill:#FFFFFF;" width="3.825" height="2.295"/>
					</g>
					<g>
						<rect x="668.546" y="842.247" style="fill:#FFFFFF;" width="3.825" height="2.295"/>
					</g>
					<g>
						<rect x="664.722" y="844.542" style="fill:#FFFFFF;" width="3.825" height="2.295"/>
					</g>
					<g>
						<rect x="668.546" y="846.837" style="fill:#FFFFFF;" width="3.825" height="2.295"/>
					</g>
					<g>
						<rect x="664.722" y="849.132" style="fill:#FFFFFF;" width="3.825" height="2.295"/>
					</g>
					<g>
						<rect x="668.546" y="851.427" style="fill:#FFFFFF;" width="3.825" height="2.295"/>
					</g>
					<g>
						<rect x="664.722" y="853.722" style="fill:#FFFFFF;" width="3.825" height="2.295"/>
					</g>
				</g>
			</g>
			<g>
				<path style="fill:#FFFFFF;" d="M364.231,859.493c-0.013-2.665-2.087-4.618-4.766-4.659c-2.011-0.031-1.81,0.261-1.815-1.887
					c-0.006-2.389-0.015-4.778,0.006-7.166c0.007-0.824-0.243-1.505-0.787-2.125c-5.098-5.81-10.184-11.63-15.281-17.441
					c-0.262-0.299-0.599-0.532-0.901-0.796c-13.528,0-27.055,0-40.583,0c-1.729,0.639-2.482,1.889-2.478,3.72
					c0.021,8.159,0.009,16.318,0.008,24.478c0,1.21-0.007,1.281-1.197,1.201c-3.258-0.221-5.477,2.147-5.436,5.426
					c0.096,7.568,0.028,15.137,0.031,22.706c0.001,3.44,1.887,5.32,5.333,5.331c1.267,0.004,1.268,0.004,1.268,1.306
					c0.001,4.831-0.002,9.662,0.002,14.493c0.002,2.595,1.262,3.855,3.85,3.855c17.446,0.001,34.891,0.001,52.337,0
					c2.543,0,3.822-1.268,3.824-3.799c0.005-4.912,0.001-9.823,0.003-14.735c0-1.115,0.004-1.112,1.131-1.121
					c0.589-0.005,1.177,0.017,1.761-0.127c2.169-0.535,3.68-2.273,3.689-4.503C364.264,875.597,364.269,867.545,364.231,859.493z
					 M302.292,828.716c11.619-0.001,23.237-0.001,34.856,0c1.192,0,1.206,0.015,1.207,1.222c0.001,4.884-0.001,9.767,0.002,14.651
					c0.001,1.765,0.543,2.305,2.307,2.306c4.159,0.003,8.318,0,12.477,0.003c0.997,0.001,1.044,0.046,1.046,1.052
					c0.006,1.932,0.005,3.864,0,5.796c-0.003,1.038-0.051,1.085-1.098,1.085c-8.479,0.002-16.958,0.001-25.438,0.001
					c-8.452,0-16.905,0-25.357,0c-1.198,0-1.202-0.003-1.202-1.221c-0.001-7.889-0.001-15.778,0-23.667
					C301.093,828.724,301.102,828.716,302.292,828.716z M352.985,903.645c-8.454,0.001-16.908,0.001-25.362,0.001
					c-8.427,0-16.854,0.001-25.281,0c-1.245,0-1.249-0.003-1.249-1.262c-0.001-4.348-0.003-8.696,0.001-13.043
					c0.001-1.01,0.051-1.059,1.041-1.059c16.989-0.002,33.977-0.002,50.966,0c1.041,0,1.086,0.044,1.087,1.094
					c0.003,4.348,0.003,8.696,0.001,13.043C354.188,903.634,354.177,903.645,352.985,903.645z"/>
			</g>
			<g>
				<path style="fill:#FFFFFF;" d="M303.581,879.891v-17.193h6.051c0.816,0,1.581,0.132,2.293,0.396
					c0.712,0.264,1.333,0.636,1.861,1.117c0.527,0.48,0.944,1.053,1.248,1.717c0.304,0.665,0.456,1.397,0.456,2.198
					c0,0.816-0.152,1.557-0.456,2.221s-0.721,1.236-1.248,1.717c-0.529,0.48-1.149,0.852-1.861,1.117
					c-0.713,0.264-1.477,0.396-2.293,0.396h-2.809v6.315H303.581z M309.68,870.503c0.848,0,1.489-0.241,1.921-0.721
					c0.432-0.48,0.648-1.032,0.648-1.656c0-0.304-0.052-0.601-0.156-0.889c-0.105-0.288-0.264-0.54-0.48-0.756
					c-0.216-0.217-0.484-0.388-0.805-0.516c-0.32-0.129-0.696-0.193-1.128-0.193h-2.857v4.731H309.68z"/>
				<path style="fill:#FFFFFF;" d="M317.796,862.699h3.77l6.916,11.526h0.191l-0.191-3.314v-8.212h3.217v17.193h-3.409l-7.3-12.174
					h-0.191l0.191,3.314v8.86h-3.193V862.699z"/>
				<path style="fill:#FFFFFF;" d="M343.08,870.454h8.429c0.048,0.193,0.087,0.425,0.12,0.697c0.031,0.272,0.048,0.544,0.048,0.816
					c0,1.104-0.167,2.145-0.504,3.121c-0.336,0.977-0.865,1.849-1.585,2.618c-0.768,0.817-1.69,1.449-2.761,1.897
					c-1.073,0.448-2.298,0.672-3.674,0.672c-1.249,0-2.426-0.224-3.53-0.672c-1.104-0.447-2.065-1.072-2.881-1.873
					c-0.816-0.8-1.465-1.749-1.945-2.845c-0.48-1.097-0.72-2.293-0.72-3.59c0-1.296,0.24-2.493,0.72-3.589s1.129-2.045,1.945-2.845
					c0.816-0.8,1.777-1.425,2.881-1.873c1.104-0.448,2.281-0.672,3.53-0.672c1.392,0,2.637,0.24,3.734,0.72
					c1.097,0.48,2.036,1.144,2.821,1.993l-2.232,2.185c-0.562-0.592-1.185-1.044-1.874-1.357s-1.513-0.468-2.473-0.468
					c-0.786,0-1.53,0.14-2.234,0.421c-0.705,0.28-1.321,0.676-1.85,1.188c-0.527,0.512-0.949,1.133-1.259,1.861
					c-0.312,0.728-0.469,1.541-0.469,2.437c0,0.897,0.157,1.709,0.469,2.438c0.311,0.728,0.735,1.349,1.271,1.861
					c0.536,0.512,1.156,0.909,1.862,1.188c0.704,0.281,1.457,0.421,2.258,0.421c0.911,0,1.684-0.132,2.317-0.396
					c0.632-0.264,1.171-0.604,1.62-1.021c0.321-0.288,0.598-0.652,0.829-1.092s0.412-0.932,0.541-1.477h-5.404V870.454z"/>
			</g>
			<g>
				<path style="fill:#FFFFFF;" d="M443.437,859.493c-0.013-2.665-2.087-4.618-4.766-4.659c-2.011-0.031-1.81,0.261-1.815-1.887
					c-0.006-2.389-0.015-4.778,0.006-7.166c0.007-0.824-0.243-1.505-0.787-2.125c-5.098-5.81-10.184-11.63-15.281-17.441
					c-0.262-0.299-0.599-0.532-0.901-0.796c-13.528,0-27.055,0-40.583,0c-1.729,0.639-2.482,1.889-2.478,3.72
					c0.021,8.159,0.009,16.318,0.008,24.478c0,1.21-0.007,1.281-1.197,1.201c-3.258-0.221-5.477,2.147-5.436,5.426
					c0.096,7.568,0.028,15.137,0.031,22.706c0.001,3.44,1.887,5.32,5.333,5.331c1.267,0.004,1.268,0.004,1.268,1.306
					c0.001,4.831-0.002,9.662,0.002,14.493c0.002,2.595,1.262,3.855,3.85,3.855c17.446,0.001,34.891,0.001,52.337,0
					c2.543,0,3.822-1.268,3.824-3.799c0.005-4.912,0.001-9.823,0.003-14.735c0-1.115,0.004-1.112,1.131-1.121
					c0.589-0.005,1.177,0.017,1.761-0.127c2.169-0.535,3.68-2.273,3.689-4.503C443.47,875.597,443.475,867.545,443.437,859.493z
					 M381.498,828.716c11.619-0.001,23.237-0.001,34.856,0c1.192,0,1.206,0.015,1.207,1.222c0.001,4.884-0.001,9.767,0.002,14.651
					c0.001,1.765,0.543,2.305,2.307,2.306c4.159,0.003,8.318,0,12.477,0.003c0.997,0.001,1.044,0.046,1.046,1.052
					c0.006,1.932,0.005,3.864,0,5.796c-0.003,1.038-0.051,1.085-1.098,1.085c-8.479,0.002-16.958,0.001-25.438,0.001
					c-8.452,0-16.905,0-25.357,0c-1.198,0-1.202-0.003-1.202-1.221c-0.001-7.889-0.001-15.778,0-23.667
					C380.299,828.724,380.308,828.716,381.498,828.716z M432.192,903.645c-8.454,0.001-16.908,0.001-25.362,0.001
					c-8.427,0-16.854,0.001-25.281,0c-1.245,0-1.249-0.003-1.249-1.262c-0.001-4.348-0.002-8.696,0.001-13.043
					c0.001-1.01,0.051-1.059,1.041-1.059c16.989-0.002,33.977-0.002,50.966,0c1.041,0,1.086,0.044,1.087,1.094
					c0.003,4.348,0.003,8.696,0.001,13.043C433.394,903.634,433.384,903.645,432.192,903.645z"/>
			</g>
			<g>
				<path style="fill:#FFFFFF;" d="M402.272,862.699h3.698l6.46,17.193h-3.578l-1.416-4.106h-6.628l-1.417,4.106h-3.578
					L402.272,862.699z M406.379,872.808l-1.537-4.298l-0.625-2.089h-0.192l-0.625,2.089l-1.537,4.298H406.379z"/>
				<path style="fill:#FFFFFF;" d="M415.815,866.541c-0.273,0-0.533-0.052-0.781-0.156c-0.248-0.104-0.465-0.248-0.648-0.432
					c-0.184-0.184-0.328-0.396-0.432-0.636c-0.105-0.241-0.156-0.504-0.156-0.793s0.052-0.552,0.156-0.793
					c0.104-0.24,0.248-0.452,0.432-0.636c0.184-0.184,0.4-0.328,0.648-0.432c0.248-0.104,0.508-0.156,0.781-0.156
					c0.56,0,1.041,0.196,1.441,0.588c0.4,0.393,0.601,0.869,0.601,1.429c0,0.56-0.201,1.037-0.601,1.428
					C416.856,866.345,416.375,866.541,415.815,866.541z M414.255,879.891v-11.766h3.145v11.766H414.255z"/>
			</g>
			<g>
				<path style="fill:#FFFFFF;" d="M524.043,859.493c-0.013-2.665-2.087-4.618-4.766-4.659c-2.011-0.031-1.81,0.261-1.815-1.887
					c-0.006-2.389-0.015-4.778,0.006-7.166c0.007-0.824-0.243-1.505-0.787-2.125c-5.098-5.81-10.184-11.63-15.281-17.441
					c-0.262-0.299-0.599-0.532-0.901-0.796c-13.528,0-27.055,0-40.583,0c-1.729,0.639-2.482,1.889-2.478,3.72
					c0.021,8.159,0.009,16.318,0.008,24.478c0,1.21-0.007,1.281-1.197,1.201c-3.258-0.221-5.477,2.147-5.436,5.426
					c0.096,7.568,0.028,15.137,0.031,22.706c0.001,3.44,1.887,5.32,5.333,5.331c1.267,0.004,1.268,0.004,1.268,1.306
					c0.001,4.831-0.002,9.662,0.002,14.493c0.002,2.595,1.262,3.855,3.85,3.855c17.446,0.001,34.891,0.001,52.337,0
					c2.543,0,3.822-1.268,3.824-3.799c0.005-4.912,0.001-9.823,0.003-14.735c0-1.115,0.004-1.112,1.131-1.121
					c0.589-0.005,1.177,0.017,1.761-0.127c2.169-0.535,3.68-2.273,3.689-4.503C524.076,875.597,524.081,867.545,524.043,859.493z
					 M462.104,828.716c11.619-0.001,23.237-0.001,34.856,0c1.192,0,1.206,0.015,1.207,1.222c0.001,4.884-0.001,9.767,0.002,14.651
					c0.001,1.765,0.543,2.305,2.307,2.306c4.159,0.003,8.318,0,12.477,0.003c0.997,0.001,1.044,0.046,1.046,1.052
					c0.006,1.932,0.005,3.864,0,5.796c-0.003,1.038-0.051,1.085-1.098,1.085c-8.479,0.002-16.958,0.001-25.438,0.001
					c-8.452,0-16.905,0-25.357,0c-1.198,0-1.202-0.003-1.202-1.221c-0.001-7.889-0.001-15.778,0-23.667
					C460.905,828.724,460.914,828.716,462.104,828.716z M512.798,903.645c-8.454,0.001-16.908,0.001-25.362,0.001
					c-8.427,0-16.854,0.001-25.281,0c-1.245,0-1.249-0.003-1.249-1.262c-0.001-4.348-0.002-8.696,0.001-13.043
					c0.001-1.01,0.051-1.059,1.041-1.059c16.989-0.002,33.977-0.002,50.966,0c1.041,0,1.086,0.044,1.087,1.094
					c0.003,4.348,0.003,8.696,0.001,13.043C514,903.634,513.989,903.645,512.798,903.645z"/>
			</g>
			<g>
				<path style="fill:#FFFFFF;" d="M470.308,880.275c-0.737,0-1.441-0.104-2.113-0.312c-0.672-0.208-1.289-0.52-1.849-0.936
					c-0.56-0.416-1.048-0.925-1.464-1.525c-0.417-0.601-0.745-1.301-0.985-2.101l3.049-1.2c0.224,0.864,0.616,1.581,1.177,2.149
					s1.297,0.852,2.209,0.852c0.336,0,0.66-0.044,0.973-0.132c0.312-0.087,0.592-0.216,0.84-0.384
					c0.248-0.168,0.444-0.38,0.589-0.636c0.144-0.256,0.216-0.552,0.216-0.888c0-0.32-0.056-0.608-0.168-0.865
					c-0.112-0.255-0.3-0.495-0.564-0.72c-0.264-0.224-0.609-0.44-1.033-0.648c-0.424-0.208-0.948-0.424-1.572-0.648l-1.056-0.384
					c-0.465-0.16-0.933-0.376-1.405-0.648c-0.472-0.272-0.9-0.6-1.284-0.985c-0.385-0.384-0.701-0.836-0.949-1.357
					c-0.249-0.52-0.372-1.108-0.372-1.765c0-0.672,0.132-1.301,0.396-1.885c0.264-0.584,0.64-1.096,1.129-1.537
					c0.488-0.44,1.072-0.784,1.753-1.032c0.681-0.248,1.437-0.372,2.269-0.372c0.864,0,1.612,0.116,2.245,0.348
					c0.633,0.232,1.168,0.528,1.609,0.888c0.44,0.36,0.796,0.757,1.068,1.188c0.272,0.433,0.472,0.84,0.601,1.225l-2.857,1.2
					c-0.161-0.48-0.453-0.913-0.876-1.297c-0.425-0.384-1.005-0.576-1.741-0.576c-0.704,0-1.289,0.164-1.753,0.492
					c-0.465,0.329-0.697,0.757-0.697,1.285c0,0.512,0.224,0.949,0.672,1.309c0.448,0.36,1.161,0.708,2.137,1.044l1.081,0.36
					c0.688,0.241,1.316,0.517,1.885,0.828c0.568,0.312,1.056,0.684,1.465,1.117c0.408,0.433,0.72,0.925,0.936,1.477
					c0.217,0.552,0.324,1.189,0.324,1.909c0,0.897-0.18,1.669-0.54,2.317c-0.36,0.648-0.82,1.181-1.38,1.597
					c-0.561,0.416-1.193,0.728-1.897,0.936C471.668,880.172,470.98,880.275,470.308,880.275z"/>
				<path style="fill:#FFFFFF;" d="M477.175,862.699h3.506l3.554,10.349l0.625,2.209h0.192l0.672-2.209l3.698-10.349h3.506
					l-6.268,17.193h-3.409L477.175,862.699z"/>
				<path style="fill:#FFFFFF;" d="M502.388,870.454h8.428c0.048,0.193,0.088,0.425,0.12,0.697c0.033,0.272,0.049,0.544,0.049,0.816
					c0,1.104-0.169,2.145-0.505,3.121c-0.336,0.977-0.864,1.849-1.585,2.618c-0.768,0.817-1.688,1.449-2.761,1.897
					c-1.073,0.448-2.298,0.672-3.674,0.672c-1.249,0-2.425-0.224-3.529-0.672c-1.105-0.447-2.066-1.072-2.882-1.873
					c-0.816-0.8-1.465-1.749-1.945-2.845c-0.48-1.097-0.72-2.293-0.72-3.59c0-1.296,0.241-2.493,0.72-3.589
					c0.48-1.097,1.129-2.045,1.945-2.845c0.816-0.8,1.777-1.425,2.882-1.873c1.104-0.448,2.28-0.672,3.529-0.672
					c1.392,0,2.637,0.24,3.734,0.72c1.097,0.48,2.038,1.144,2.822,1.993l-2.234,2.185c-0.56-0.592-1.185-1.044-1.874-1.357
					c-0.687-0.312-1.512-0.468-2.473-0.468c-0.784,0-1.528,0.14-2.234,0.421c-0.704,0.28-1.321,0.676-1.848,1.188
					c-0.528,0.512-0.949,1.133-1.261,1.861c-0.312,0.728-0.468,1.541-0.468,2.437c0,0.897,0.156,1.709,0.468,2.438
					c0.312,0.728,0.737,1.349,1.273,1.861c0.536,0.512,1.156,0.909,1.86,1.188c0.705,0.281,1.457,0.421,2.258,0.421
					c0.913,0,1.685-0.132,2.317-0.396c0.632-0.264,1.173-0.604,1.621-1.021c0.32-0.288,0.596-0.652,0.828-1.092
					c0.233-0.44,0.412-0.932,0.541-1.477h-5.402V870.454z"/>
			</g>
			<g>
				<path style="fill:#FFFFFF;" d="M602.976,859.493c-0.013-2.665-2.087-4.618-4.766-4.659c-2.011-0.031-1.81,0.261-1.815-1.887
					c-0.006-2.389-0.015-4.778,0.006-7.166c0.007-0.824-0.243-1.505-0.787-2.125c-5.098-5.81-10.184-11.63-15.281-17.441
					c-0.262-0.299-0.599-0.532-0.901-0.796c-13.528,0-27.055,0-40.583,0c-1.729,0.639-2.482,1.889-2.478,3.72
					c0.021,8.159,0.009,16.318,0.008,24.478c0,1.21-0.007,1.281-1.197,1.201c-3.258-0.221-5.477,2.147-5.436,5.426
					c0.096,7.568,0.028,15.137,0.031,22.706c0.001,3.44,1.887,5.32,5.333,5.331c1.267,0.004,1.268,0.004,1.268,1.306
					c0.001,4.831-0.002,9.662,0.002,14.493c0.002,2.595,1.262,3.855,3.85,3.855c17.446,0.001,34.891,0.001,52.337,0
					c2.543,0,3.822-1.268,3.824-3.799c0.005-4.912,0.001-9.823,0.003-14.735c0-1.115,0.005-1.112,1.131-1.121
					c0.589-0.005,1.178,0.017,1.761-0.127c2.169-0.535,3.68-2.273,3.689-4.503C603.01,875.597,603.015,867.545,602.976,859.493z
					 M541.037,828.716c11.619-0.001,23.237-0.001,34.856,0c1.193,0,1.206,0.015,1.207,1.222c0.001,4.884-0.002,9.767,0.002,14.651
					c0.001,1.765,0.543,2.305,2.307,2.306c4.159,0.003,8.318,0,12.477,0.003c0.997,0.001,1.044,0.046,1.046,1.052
					c0.006,1.932,0.005,3.864,0,5.796c-0.003,1.038-0.051,1.085-1.098,1.085c-8.479,0.002-16.958,0.001-25.438,0.001
					c-8.452,0-16.905,0-25.357,0c-1.198,0-1.202-0.003-1.202-1.221c-0.001-7.889-0.001-15.778,0-23.667
					C539.838,828.724,539.847,828.716,541.037,828.716z M591.731,903.645c-8.454,0.001-16.908,0.001-25.362,0.001
					c-8.427,0-16.854,0.001-25.281,0c-1.245,0-1.249-0.003-1.249-1.262c-0.001-4.348-0.003-8.696,0.001-13.043
					c0.001-1.01,0.051-1.059,1.041-1.059c16.989-0.002,33.977-0.002,50.966,0c1.041,0,1.086,0.044,1.087,1.094
					c0.003,4.348,0.003,8.696,0.001,13.043C592.934,903.634,592.923,903.645,591.731,903.645z"/>
			</g>
			<g>
				<path style="fill:#FFFFFF;" d="M549.998,865.772v3.986h6.891v3.074h-6.891v3.986h7.659v3.073h-10.901v-17.193h10.901v3.073
					H549.998z"/>
				<path style="fill:#FFFFFF;" d="M560.635,879.891v-17.193h6.051c0.816,0,1.581,0.132,2.293,0.396
					c0.712,0.264,1.333,0.636,1.861,1.117c0.528,0.48,0.944,1.053,1.249,1.717c0.304,0.665,0.456,1.397,0.456,2.198
					c0,0.816-0.152,1.557-0.456,2.221c-0.305,0.664-0.721,1.236-1.249,1.717c-0.528,0.48-1.149,0.852-1.861,1.117
					c-0.713,0.264-1.477,0.396-2.293,0.396h-2.809v6.315H560.635z M566.735,870.503c0.848,0,1.489-0.241,1.921-0.721
					c0.432-0.48,0.648-1.032,0.648-1.656c0-0.304-0.052-0.601-0.156-0.889c-0.105-0.288-0.264-0.54-0.48-0.756
					c-0.216-0.217-0.484-0.388-0.805-0.516c-0.32-0.129-0.696-0.193-1.128-0.193h-2.857v4.731H566.735z"/>
				<path style="fill:#FFFFFF;" d="M580.109,880.275c-0.737,0-1.441-0.104-2.113-0.312c-0.672-0.208-1.289-0.52-1.849-0.936
					c-0.56-0.416-1.049-0.925-1.465-1.525c-0.416-0.601-0.744-1.301-0.985-2.101l3.049-1.2c0.224,0.864,0.616,1.581,1.177,2.149
					c0.56,0.568,1.296,0.852,2.209,0.852c0.336,0,0.66-0.044,0.973-0.132c0.312-0.087,0.592-0.216,0.84-0.384
					c0.248-0.168,0.444-0.38,0.588-0.636c0.144-0.256,0.217-0.552,0.217-0.888c0-0.32-0.057-0.608-0.168-0.865
					c-0.112-0.255-0.3-0.495-0.565-0.72c-0.264-0.224-0.608-0.44-1.032-0.648c-0.424-0.208-0.949-0.424-1.573-0.648l-1.056-0.384
					c-0.465-0.16-0.932-0.376-1.404-0.648c-0.473-0.272-0.901-0.6-1.285-0.985c-0.384-0.384-0.701-0.836-0.949-1.357
					c-0.248-0.52-0.372-1.108-0.372-1.765c0-0.672,0.132-1.301,0.396-1.885c0.264-0.584,0.64-1.096,1.129-1.537
					c0.489-0.44,1.073-0.784,1.753-1.032c0.68-0.248,1.437-0.372,2.269-0.372c0.865,0,1.613,0.116,2.246,0.348
					c0.632,0.232,1.168,0.528,1.609,0.888c0.44,0.36,0.796,0.757,1.068,1.188c0.272,0.433,0.472,0.84,0.601,1.225l-2.857,1.2
					c-0.161-0.48-0.453-0.913-0.877-1.297s-1.005-0.576-1.741-0.576c-0.705,0-1.289,0.164-1.753,0.492
					c-0.465,0.329-0.696,0.757-0.696,1.285c0,0.512,0.224,0.949,0.672,1.309c0.448,0.36,1.16,0.708,2.137,1.044l1.08,0.36
					c0.689,0.241,1.317,0.517,1.885,0.828c0.568,0.312,1.056,0.684,1.465,1.117c0.408,0.433,0.72,0.925,0.936,1.477
					c0.216,0.552,0.324,1.189,0.324,1.909c0,0.897-0.18,1.669-0.54,2.317c-0.36,0.648-0.821,1.181-1.38,1.597
					c-0.561,0.416-1.193,0.728-1.897,0.936C581.47,880.172,580.782,880.275,580.109,880.275z"/>
			</g>
			<g>
				<path style="fill:#FFFFFF;" d="M655.431,876.625l8.716-10.854h-8.332v-3.073h12.103v3.266l-8.621,10.854h8.716v3.073h-12.582
					V876.625z"/>
				<path style="fill:#FFFFFF;" d="M670.702,862.699h3.242v17.193h-3.242V862.699z"/>
				<path style="fill:#FFFFFF;" d="M677.402,879.891v-17.193h6.051c0.817,0,1.581,0.132,2.293,0.396
					c0.712,0.264,1.333,0.636,1.861,1.117s0.944,1.053,1.249,1.717c0.304,0.665,0.456,1.397,0.456,2.198
					c0,0.816-0.152,1.557-0.456,2.221c-0.305,0.664-0.721,1.236-1.249,1.717s-1.149,0.852-1.861,1.117
					c-0.713,0.264-1.477,0.396-2.293,0.396h-2.809v6.315H677.402z M683.501,870.503c0.848,0,1.489-0.241,1.921-0.721
					c0.433-0.48,0.648-1.032,0.648-1.656c0-0.304-0.052-0.601-0.156-0.889c-0.105-0.288-0.264-0.54-0.48-0.756
					c-0.216-0.217-0.484-0.388-0.805-0.516c-0.32-0.129-0.696-0.193-1.128-0.193h-2.857v4.731H683.501z"/>
			</g>
		</g>
		<g style="opacity:0.61;">
			<path style="fill:#FFFFFF;" d="M609.144,863.785h19.739v4.881h-19.739V863.785z M609.144,872.201h19.739v4.884h-19.739V872.201z"
				/>
		</g>
	</g>
	<g style="opacity:0.61;">
		<path style="fill:#FFFFFF;" d="M297,963.076h3.498c2.75,0,4.603,1.768,4.603,4.297s-1.854,4.296-4.603,4.296H297V963.076z
			 M300.449,970.883c2.283,0,3.756-1.448,3.756-3.51s-1.473-3.511-3.756-3.511h-2.541v7.021H300.449z"/>
		<path style="fill:#FFFFFF;" d="M315.251,967.373c0-2.504,1.915-4.37,4.517-4.37c2.577,0,4.505,1.853,4.505,4.37
			c0,2.516-1.927,4.369-4.505,4.369C317.166,971.742,315.251,969.877,315.251,967.373z M323.365,967.373
			c0-2.05-1.534-3.56-3.596-3.56c-2.075,0-3.621,1.51-3.621,3.56c0,2.049,1.546,3.559,3.621,3.559
			C321.831,970.932,323.365,969.422,323.365,967.373z"/>
		<path style="fill:#FFFFFF;" d="M346.724,963.076l-2.897,8.593h-0.957l-2.516-7.328l-2.529,7.328h-0.945l-2.897-8.593h0.933
			l2.479,7.389l2.566-7.389h0.847l2.529,7.426l2.516-7.426H346.724z"/>
		<path style="fill:#FFFFFF;" d="M364.435,963.076v8.593h-0.749l-5.524-6.972v6.972h-0.908v-8.593h0.749l5.536,6.973v-6.973H364.435
			z"/>
		<path style="fill:#FFFFFF;" d="M376.108,963.076h0.908v7.807h4.812v0.786h-5.72V963.076z"/>
		<path style="fill:#FFFFFF;" d="M391.279,967.373c0-2.504,1.915-4.37,4.517-4.37c2.577,0,4.505,1.853,4.505,4.37
			c0,2.516-1.927,4.369-4.505,4.369C393.194,971.742,391.279,969.877,391.279,967.373z M399.392,967.373
			c0-2.05-1.534-3.56-3.596-3.56c-2.075,0-3.621,1.51-3.621,3.56c0,2.049,1.546,3.559,3.621,3.559
			C397.858,970.932,399.392,969.422,399.392,967.373z"/>
		<path style="fill:#FFFFFF;" d="M416.478,969.374h-4.787l-1.031,2.295h-0.945l3.928-8.593h0.896l3.928,8.593h-0.957
			L416.478,969.374z M416.147,968.637l-2.062-4.615l-2.062,4.615H416.147z"/>
		<path style="fill:#FFFFFF;" d="M428.765,963.076h3.498c2.75,0,4.603,1.768,4.603,4.297s-1.854,4.296-4.603,4.296h-3.498V963.076z
			 M432.214,970.883c2.283,0,3.756-1.448,3.756-3.51s-1.473-3.511-3.756-3.511h-2.541v7.021H432.214z"/>
		<path style="fill:#FFFFFF;" d="M465.256,969.374h-4.787l-1.031,2.295h-0.945l3.928-8.593h0.896l3.928,8.593h-0.957
			L465.256,969.374z M464.925,968.637l-2.062-4.615l-2.062,4.615H464.925z"/>
		<path style="fill:#FFFFFF;" d="M477.543,963.076h0.908v7.807h4.812v0.786h-5.72V963.076z"/>
		<path style="fill:#FFFFFF;" d="M493.647,963.076h0.908v7.807h4.812v0.786h-5.72V963.076z"/>
		<path style="fill:#FFFFFF;" d="M522.749,963.862v3.376h4.443v0.786h-4.443v3.646h-0.909v-8.593h5.891v0.786H522.749z"/>
		<path style="fill:#FFFFFF;" d="M538.485,963.076h0.909v8.593h-0.909V963.076z"/>
		<path style="fill:#FFFFFF;" d="M551.067,963.076h0.909v7.807h4.811v0.786h-5.72V963.076z"/>
		<path style="fill:#FFFFFF;" d="M573.246,970.883v0.786h-6.076v-8.593h5.891v0.786h-4.983v3.056h4.443v0.774h-4.443v3.191H573.246z
			"/>
		<path style="fill:#FFFFFF;" d="M597.255,963.862v3.376h4.443v0.786h-4.443v3.646h-0.909v-8.593h5.891v0.786H597.255z"/>
		<path style="fill:#FFFFFF;" d="M612.119,967.373c0-2.504,1.915-4.37,4.517-4.37c2.577,0,4.505,1.853,4.505,4.37
			c0,2.516-1.927,4.369-4.505,4.369C614.034,971.742,612.119,969.877,612.119,967.373z M620.232,967.373
			c0-2.05-1.534-3.56-3.596-3.56c-2.075,0-3.622,1.51-3.622,3.56c0,2.049,1.547,3.559,3.622,3.559
			C618.698,970.932,620.232,969.422,620.232,967.373z"/>
		<path style="fill:#FFFFFF;" d="M637.919,971.669l-1.963-2.762c-0.222,0.024-0.442,0.037-0.688,0.037h-2.307v2.725h-0.909v-8.593
			h3.216c2.185,0,3.511,1.105,3.511,2.946c0,1.351-0.712,2.295-1.964,2.7l2.099,2.946H637.919z M637.871,966.022
			c0-1.375-0.909-2.161-2.627-2.161h-2.283v4.309h2.283C636.962,968.17,637.871,967.373,637.871,966.022z"/>
		<path style="fill:#FFFFFF;" d="M658.724,963.076v8.593h-0.871v-6.874l-3.376,5.782h-0.429l-3.376-5.745v6.837h-0.872v-8.593h0.749
			l3.732,6.371l3.695-6.371H658.724z"/>
		<path style="fill:#FFFFFF;" d="M675.787,969.374h-4.788l-1.031,2.295h-0.946l3.928-8.593h0.896l3.928,8.593h-0.957
			L675.787,969.374z M675.455,968.637l-2.062-4.615l-2.062,4.615H675.455z"/>
		<path style="fill:#FFFFFF;" d="M689.312,963.862h-3.02v-0.786h6.948v0.786h-3.02v7.807h-0.908V963.862z"/>
		<path style="fill:#FFFFFF;" d="M702.605,970.626l0.356-0.7c0.614,0.601,1.706,1.043,2.835,1.043c1.608,0,2.308-0.675,2.308-1.522
			c0-2.357-5.29-0.908-5.29-4.087c0-1.265,0.982-2.357,3.167-2.357c0.97,0,1.976,0.282,2.664,0.761l-0.307,0.724
			c-0.737-0.479-1.596-0.712-2.357-0.712c-1.571,0-2.271,0.7-2.271,1.559c0,2.357,5.29,0.933,5.29,4.063
			c0,1.265-1.006,2.344-3.204,2.344C704.508,971.742,703.243,971.288,702.605,970.626z"/>
	</g>
</g>
<g>
</g>
<path style="fill:#231F20;" d="M591.943,500.142c0-8.871,4.978-13.668,11.63-13.668c6.156,0,9.086,3.398,10.271,8.229l-4.26,1.214
	c-1.003-3.502-2.538-5.295-6.046-5.295c-4.476,0-7.085,3.471-7.085,9.485c0,6.3,2.683,9.766,7.157,9.766
	c3.436,0,5.366-1.718,6.37-5.69l4.257,0.969c-1.29,5.261-4.548,8.801-10.664,8.801c-6.799,0-11.63-4.687-11.63-13.812
	 M616.676,503.968c0-7.013,4.621-9.876,9.266-9.876c4.619,0,9.272,2.863,9.272,9.875c0,6.946-4.653,9.877-9.272,9.877
	C621.329,513.845,616.676,510.914,616.676,503.968 M630.774,503.968c0-3.539-1.499-6.116-4.832-6.116
	c-3.181,0-4.826,2.288-4.826,6.116c0,3.613,1.468,6.191,4.826,6.191C629.13,510.159,630.774,507.868,630.774,503.968
	 M638.312,513.451v-18.996h4.399v2.609c1.472-1.611,3.617-2.971,6.517-2.971c3.185,0,4.435,1.253,5.188,3.114
	c1.503-1.646,3.76-3.114,6.654-3.114c3.863,0,5.549,2.328,5.549,5.727v13.633h-4.403v-12.526c0-2.11-0.607-3.073-2.683-3.073
	c-1.792,0-3.219,1.001-4.866,2.468v13.131h-4.402v-12.526c0-2.11-0.609-3.073-2.683-3.073c-1.756,0-3.221,1.001-4.871,2.468v13.131
	h-4.398 M670.677,520.611v-26.155h4.402v2.503c1.254-1.505,3.221-2.865,6.048-2.865c4.329,0,7.513,3.26,7.513,9.843
	c0,6.587-3.258,9.805-8.123,9.805c-2.037,0-4.042-0.825-5.438-2.396v9.266H670.677z M684.24,503.97c0-4.006-1.718-6.115-4.547-6.115
	c-1.825,0-3.577,1.145-4.616,2.393v7.623c1.182,1.538,2.897,2.362,4.47,2.362C682.878,510.232,684.24,508.194,684.24,503.97
	 M690.587,508.874c0-4.115,3.506-6.874,12.38-7.876v-0.567c0-1.901-1-2.722-3.113-2.722c-2.646,0-4.795,1.29-6.403,2.574
	l-2.147-2.756c2.04-1.86,5.226-3.434,9.159-3.434c5.082,0,6.838,2.438,6.838,6.87v7.838c0,2.289,0.144,3.686,0.535,4.652H703.4
	c-0.251-0.786-0.432-1.359-0.432-2.432c-1.93,1.969-4.187,2.719-7.014,2.719C692.881,513.739,690.588,512.02,690.587,508.874
	 M702.968,508.156v-4.187c-5.261,0.716-8.05,2.006-8.05,4.082c0,1.501,1.037,2.286,2.649,2.286
	C699.818,510.338,701.576,509.484,702.968,508.156 M711.269,513.455v-18.999h4.403v3.037c1.433-1.645,3.649-3.399,6.8-3.399
	c3.468,0,5.617,1.789,5.617,5.547v13.812h-4.4v-12.558c0-2.077-0.859-3.149-2.863-3.149c-1.933,0-3.546,0.964-5.153,2.47v13.237
	h-4.403 M729.153,520.251l1-3.541c0.539,0.142,1.682,0.395,3.221,0.395c1.577,0,2.398-0.612,3.009-2.15l0.534-1.395l-7.299-19.104
	h4.579l4.905,13.843h0.07l4.867-13.843h4.362l-8.088,21.073c-1.251,3.327-2.896,5.297-6.654,5.297c-2.254,0-3.578-0.322-4.508-0.574
	 M256.557,513.411v-22.328H248.4v-4.153h20.789v4.153h-8.16v22.328H256.557z M271.832,513.411V486.93h4.439v10.054
	c1.213-1.285,3.505-2.931,6.942-2.931c3.327,0,5.474,1.97,5.474,5.723v13.636h-4.439v-12.526c0-2.106-0.893-3.075-2.826-3.075
	c-1.93,0-3.542,1.001-5.152,2.469v13.132H271.832 M291.682,503.929c0-7.23,5.117-9.875,9.055-9.875
	c4.258,0,8.336,2.538,8.336,10.265v1.041h-12.989c0.179,3.433,2.289,4.938,5.084,4.938c2.469,0,3.9-0.823,5.329-2.221l2.329,2.289
	c-1.97,2.187-4.582,3.439-7.983,3.439C296.084,513.806,291.682,510.909,291.682,503.929 M305.031,502.068
	c-0.253-2.9-1.681-4.438-4.33-4.438c-2.148,0-4.114,1.216-4.545,4.438H305.031 M481.786,481.048c0,0,0.654-0.982,1.203-1.728
	c1.001-1.358,2.812-3.24,4.172-4.406c0.42-0.355,0.909-0.761,0.909-0.761s-0.77,0.081-1.204,0.17
	c-1.034,0.202-2.551,1.209-3.31,1.861c-1.249,1.067-2.623,2.808-2.004,4.35C481.645,480.756,481.786,481.047,481.786,481.048
	 M488.735,482.906c1.975-0.133,3.827-0.705,5.546-1.657c1.69-0.945,4.172-2.787,3.919-4.956c-0.082-0.699-0.539-1.23-1.119-1.478
	c-0.756-0.329-1.147-0.27-2.112,0.012c-0.697,0.207-1.011,0.331-1.669,0.709c-1.941,1.126-4.685,3.535-6.178,5.459l-0.964,1.304
	c-0.176,0.211-0.307,0.41-0.291,0.464C485.925,482.984,487.962,482.961,488.735,482.906 M483.704,486.601
	c-0.202,0.211-0.417,0.736-0.642,1.114c-0.119,0.201-0.341,0.46-0.486,0.562c-0.514,0.379-0.947,0.395-1.447-0.041
	c-0.695-0.611-1.096-1.566-1.124-2.492c-0.016-0.406,0.051-0.848-0.022-1.195c-0.128-0.574-0.705-1.164-1.013-1.714
	c-0.364-0.652-0.659-1.78-0.694-2.508c-0.128-2.274,1.072-4.366,2.631-6.02c1.567-1.671,3.619-3.06,5.851-4.003
	c2.107-0.892,5.199-1.496,7.515-0.692c0.752,0.259,1.804,0.9,2.331,1.569c0.112,0.141,0.204,0.296,0.32,0.368
	c0.1,0.065,0.37,0.091,0.584,0.129c0.741,0.129,1.806,0.687,2.239,1.059c0.869,0.754,1.35,1.475,1.571,2.519
	c0.445,2.099-0.765,4.406-2.143,5.807c-2.362,2.418-4.693,4.113-7.714,5.298c-1.324,0.518-3.389,1.001-4.895,0.865
	c-0.466-0.039-0.949-0.16-1.402-0.194c-0.23-0.02-1.08-0.235-1.17-0.303c-0.112-0.082-0.256-0.159-0.286-0.13 M411.682,492.806
	c1.254-0.077,2.032-0.137,3.011-0.561c0.542-0.23,1.169-0.758,0.86-1.388c-0.186-0.385-0.85-0.52-1.237-0.49
	c-1.313,0.088-2.258,1.054-2.707,2.345C411.592,492.758,411.596,492.807,411.682,492.806 M417.172,489.562
	c0.732,0.915,1.062,1.989,1.143,3.167c0.082,1.188-0.298,2.331-0.959,3.237c-1.136,1.542-3.03,2.312-4.931,2.454
	c-0.261,0.017-1.811,0.063-2.209-0.06c-0.072-0.026-0.117-0.054-0.157-0.043c-0.044,0.004-0.305,1.075-0.353,1.449
	c-0.169,1.312-0.376,2.242-0.527,3.276c-0.126,0.82-0.218,1.702-0.29,2.578c-0.428,5.107-0.281,7.629,0.143,12.626
	c0.029,0.305,0.045,0.652,0,0.862c-0.114,0.6-0.478,1.018-1.065,1.169c-1.762,0.463-3.447-1.28-4.311-2.675
	c-2.018-3.261-1.359-9.922-0.777-13.213c0.237-1.362,0.858-4.388,1.288-5.477c0.229-0.586,0.595-1.739,0.567-1.794
	c-0.025-0.051-0.947-0.403-1.793-0.728c-0.318-0.116-1.383-0.669-1.841-0.953c-0.939-0.59-1.582-1.07-2.232-1.802
	c-0.197-0.228-0.855-1.205-0.952-1.423c-0.525-1.194-0.555-2.233-0.09-3.503c0.119-0.326,0.773-1.697,1.208-1.654
	c0.626,0.056,0.489,1.093,0.655,1.629c0.054,0.185,0.23,0.494,0.369,0.66c0.867,1.023,3.779,2.155,4.971,2.512
	c0.171,0.054,2.037,0.622,2.31,0.497c0.072-0.034,0.428-0.664,0.655-1.046c0.122-0.214,0.259-0.374,0.409-0.536
	c1.134-1.22,2.809-2.376,4.478-2.718c0.734-0.148,2.173-0.025,2.902,0.39c0.165,0.094,0.708,0.309,1.395,1.119 M399.551,504.042
	c0.052,0.004,0.133,0.029,0.202,0.059c0.857,0.375,0.857,1.904,0.65,2.623c-0.555,1.892-2.35,3.845-3.782,4.817
	c-0.855,0.572-2.604,1.383-3.855,1.622c-1.958,0.376-3.692-0.143-4.739-1.727c-0.947-1.433-1.365-3.206-1.441-4.872
	c-0.216-4.784,1.292-11.773,3.15-15.768c0.25-0.535,1.478-3.032,2.619-3.434c1.136-0.401,1.636,0.93,1.748,1.926
	c0.145,1.28-0.263,2.978-0.588,4.35c-0.57,2.402-1.39,6.158-1.584,7.235c-0.205,1.139-0.68,3.577-0.508,4.82
	c0.088,0.661,0.213,0.99,0.714,0.951c0.229-0.02,3.442-1.498,5.196-2.154c0.657-0.244,1.475-0.507,2.219-0.446 M375.784,501.838
	c0,0,0.366,0.006,0.742,0c1.199-0.015,3.209-0.236,3.209-0.236s-0.225-1.77-0.407-2.899c-0.124-0.754-0.222-1.22-0.385-1.817
	c-0.074-0.265-0.257-1.022-0.45-1.319l-0.084-0.123c0,0-0.97,1.873-1.513,3.178c-0.432,1.035-0.647,1.806-0.95,2.435
	c-0.073,0.147-0.153,0.347-0.162,0.52C375.774,501.697,375.784,501.838,375.784,501.838 M369.353,502.042
	c0,0,0.576-1.294,1.023-2.272c0.471-1.027,2.848-5.802,3.828-7.152c1.086-1.509,3.163-4.357,3.18-4.444
	c0.044-0.313,0.112-0.87,0.404-1.316c0.227-0.355,0.786-0.504,1.331-0.541c0.603-0.035,1.228,0.411,1.499,0.907
	c0.523,0.945,1.414,3.632,1.608,4.274c1.041,3.577,2.166,10.26,2.534,13.692c0.095,0.902,0.395,5.595,0.418,6.652
	c0.022,0.742,0,1.973-0.426,2.581c-0.157,0.231-0.459,0.424-0.751,0.419c-0.393-0.013-1.185-0.565-1.533-0.888
	c-0.961-0.907-1.602-1.829-1.807-2.956c-0.176-0.982-0.424-3.797-0.424-3.797l-4.19,0.169l-2.334,0.039c0,0-0.22,0.545-0.401,0.998
	c-0.39,0.972-0.74,1.944-0.892,2.49c-0.305,1.097-0.893,3.272-1.034,3.612c-0.294,0.713-0.553,1.129-1.246,1.221
	c-0.768,0.1-1.296,0.156-1.851-0.145c-1.046-0.573-1.522-1.786-1.7-3.037c-0.312-2.131,0.551-3.85,1.437-6.376
	c0.372-1.063-0.14-1.416-1.023-2.798c-0.114-0.178-0.231-0.364-0.253-0.506c-0.031-0.142,0.105-0.511,0.298-0.664
	c0.06-0.049,0.078-0.055,0.188-0.06l2.12-0.1 M345.425,488.246c0,0-0.054-1.353-0.166-2.107c-0.094-0.638-0.222-1.119-0.526-1.606
	c-0.333-0.535-0.588-0.871-1.113-0.952c-0.645-0.094-1.001,0.346-1.404,0.978c-0.535,0.86-1.069,2.453-1.383,3.461
	c-0.455,1.432-0.647,2.311-0.892,3.94c-0.402,2.672-0.81,7.217-0.376,10.309c0.081,0.532,0.213,1.311,0.213,1.311
	s0.645-0.723,1.115-1.23c0.2-0.219,1.157-1.65,1.242-1.799c0.166-0.287,0.608-1.043,0.67-1.197c0.094-0.165,0.784-1.644,0.904-1.992
	c0.232-0.663,0.568-1.685,0.827-2.499c0.606-1.876,0.498-2.57,0.891-4.653c0.045-0.239,0.084-1.964,0.041-1.964h-0.04
	 M340.852,508.069c0,0,0.254,0.446,0.455,0.781c1.115,1.859,2.897,2.923,5.049,3.03c2.205,0.11,5.036-1.166,6.652-2.29
	c4.614-3.209,7.042-8.994,8.367-14.539c1.56-6.502,1.631-13.359-0.228-19.651c-1.079-3.652-3.177-8.223-5.776-10.956
	c-0.775-0.812-1.961-1.918-2.299-2.371c-0.352-0.467-0.437-0.86,0.1-1.174c0.567-0.325,1.807,0.35,2.426,0.724
	c3.034,1.843,5.018,3.68,6.816,6.32c0.454,0.666,2.275,3.664,2.609,4.291c2.039,3.85,3.086,7.204,3.646,11.452
	c0.706,5.408,0.254,11.548-1.618,16.97c-0.818,2.379-2.08,4.827-3.395,6.891c-0.312,0.485-2.228,3.059-2.464,3.312
	c-0.659,0.695-2.287,2.105-3.047,2.717c-3.805,3.053-7.914,5.054-12.426,4.501c-2.481-0.305-4.518-1.128-6.505-2.743
	c-0.762-0.626-2.048-1.93-2.564-2.859c-0.335-0.596-0.751-1.32-0.805-1.328c-0.059-0.014-0.279,0.135-0.52,0.303
	c-0.209,0.145-1.103,0.56-1.577,0.736c-3.095,1.154-6.557,0.883-9.4-0.963c-2.063-1.334-3.808-3.871-4.579-6.171
	c-1.137-3.411-1.228-6.944-0.765-10.572c0.792-6.157,3.008-11.991,6.314-17.155c2.086-3.254,4.79-6.468,8.018-8.772
	c0.362-0.263,2.331-1.407,2.734-1.592c0.728-0.343,1.697-0.659,2.258-0.06c0.291,0.31,0.282,0.561,0.066,0.97
	c-0.343,0.633-1.219,1.495-1.704,2.01c-0.419,0.454-2.797,3.368-3.288,4.05c-0.539,0.728-2.958,4.352-3.275,4.909
	c-3.052,5.284-5.475,13.655-5.241,20.147c0.049,1.341,0.246,3.274,0.548,4.533c0.409,1.697,1.419,3.994,2.936,5.067
	c1.596,1.133,3.076,1.067,4.987,0.308c0.507-0.205,1.23-0.531,1.23-0.531s-0.557-1.427-0.921-2.499
	c-1.001-2.98-1.404-7.731-1.035-11.002c0.304-2.681,0.902-4.735,2.115-6.864c0.966-1.706,2.266-3.381,3.891-4.765
	c1.565-1.337,4.068-2.5,6.27-2.559c1.829-0.043,3.724,0.753,4.685,2.416c1.669,2.893,1.775,7.458,1.305,10.466
	c-0.706,4.55-3.062,8.822-6.461,11.716c-1.22,1.037-3.582,2.794-3.582,2.794 M486.407,491.265c0.091,0.017,0.235,0.058,0.357,0.101
	c1.058,0.405,1.494,1.386,1.754,2.46c0.605,2.499,0.864,8.024,0.963,10.192c0.074,1.62,0.114,3.223,0.182,4.826
	c0.057,1.36,0.166,3.168-0.115,4.444c-0.104,0.458-0.409,0.986-0.849,1.261c-0.505,0.321-1.648,0.346-2.276,0.216
	c-1.551-0.321-2.055-1.317-2.274-2.85c-0.527-3.659-0.275-10.837,0.037-13.867c0.1-0.996,0.48-4.202,1.003-5.544
	C485.364,492.048,485.745,491.135,486.407,491.265 M438.653,496.753c0,0-2.296,0.162-3.873,0.338
	c-2.011,0.215-5.786,0.867-7.961,1.65c-0.655,0.229-1.984,0.785-2.1,1.455c-0.117,0.701,0.311,1.242,0.794,1.808
	c0.277,0.326,1.851,1.839,2.291,2.208c1.85,1.541,5.598,3.926,8.365,5.082c0.944,0.394,2.514,0.955,2.514,0.955
	s-0.117-4.47-0.094-8.871c0.009-2.327,0.061-4.624,0.061-4.624 M480.71,498.534c0.133,1.2-0.178,3.471-0.23,3.77
	c-0.099,0.69-0.62,2.281-0.703,2.477c-0.421,0.964-0.834,1.762-1.275,2.551c-0.753,1.355-2.539,3.501-3.604,4.419
	c-3.947,3.413-10.06,5.357-15.305,5.997c-3.556,0.43-7.645,0.364-11.417-0.331c-1.296-0.239-3.225-0.68-3.225-0.68
	s0.005,0.771-0.058,1.316c-0.03,0.244-0.218,0.897-0.321,1.109c-0.276,0.566-0.725,0.857-1.377,0.981
	c-0.79,0.151-1.628,0.196-2.36-0.112c-1.197-0.508-1.629-1.631-1.836-2.918c-0.17-1.036-0.347-2.837-0.347-2.837
	s-0.895-0.422-1.643-0.796c-2.296-1.133-4.479-2.5-6.384-3.913c-0.527-0.39-2.798-2.294-3.301-2.769
	c-1.406-1.328-2.669-2.658-3.632-4.361c-0.749-1.33-0.963-2.513-0.395-3.922c0.787-1.964,3.603-3.447,5.531-4.291
	c1.418-0.624,5.817-2.061,7.646-2.326c0.862-0.124,2.202-0.361,2.283-0.416l0.081-0.076c0.042-0.06,0.112-2.008,0.098-2.717
	c-0.015-0.701,0.519-5.294,0.69-6.264c0.093-0.529,0.49-2.552,0.897-3.081c0.264-0.358,0.735-0.334,1.117-0.094
	c2.096,1.301,2.732,5.824,2.888,8.126c0.094,1.401,0.14,3.511,0.14,3.511s2.405-0.07,3.887-0.031
	c1.436,0.035,3.02,0.264,4.514,0.501c1.911,0.303,5.636,1.116,7.771,2.2c1.761,0.89,3.405,2.395,3.938,3.985
	c0.497,1.458,0.421,2.464-0.334,3.78c-0.846,1.487-2.453,2.589-4.08,2.68c-0.486,0.032-2.308-0.211-2.868-0.645
	c-0.223-0.176-0.21-0.487-0.05-0.699c0.06-0.077,0.91-0.523,1.415-0.791c0.251-0.138,0.461-0.284,0.655-0.463
	c0.42-0.371,0.795-0.775,0.753-1.247c-0.059-0.617-0.708-0.999-1.331-1.242c-2.916-1.157-8.739-2.121-11.555-2.289
	c-1.102-0.065-2.666-0.12-2.666-0.12l0.331,15.539c0,0,1.296,0.249,2.315,0.415c0.588,0.086,3.069,0.31,3.728,0.327
	c5.022,0.133,10.627-0.315,15.236-2.495c2.022-0.952,3.879-2.135,5.282-3.738c1.855-2.128,2.824-5.031,2.567-8.064
	c-0.282-3.32-2.616-7.251-4.477-9.647c-4.923-6.333-13.361-11.537-20.782-14.588c-7.579-3.115-15.068-4.911-23.114-5.211
	c-2.072-0.074-6.596,0.031-8.877,0.664c-0.33,0.091-0.657,0.202-0.961,0.267c-0.24,0.058-0.614,0.218-0.719,0.3l-0.115,0.111
	c0,0,0.142,0.077,0.276,0.137c0.242,0.106,1.262,0.166,1.789,0.263c0.469,0.089,0.964,0.341,1.156,0.688
	c0.185,0.327,0.211,0.585-0.013,0.857c-0.518,0.635-2.468,0.523-3.324,0.39c-0.893-0.145-2.001-0.414-2.206-1.192
	c-0.235-0.915,0.196-1.811,0.666-2.641c0.945-1.659,2.293-2.522,4.274-3.061c2.808-0.772,6.355-1.313,9.008-1.415
	c6.006-0.224,11.688,0.822,17.505,2.592c3.329,1.004,7.692,2.694,10.881,4.232c2.287,1.102,5.897,3.135,7.924,4.464
	c0.639,0.421,4.38,3.169,4.96,3.652c1.213,0.991,2.8,2.415,3.945,3.555c2.222,2.202,4.985,5.574,6.33,8.249
	c0.32,0.645,0.572,1.276,0.986,2.018c0.143,0.253,0.759,1.777,0.861,2.218c0.1,0.435,0.248,1.075,0.27,1.098
	c0.031,0.237,0.312,1.541,0.29,2.048L480.71,498.534z M506.583,499.664l0.244,0.031c1.839,0.25,3.641,0.58,5.019,1.197
	c1.279,0.568,2.032,1.281,2.716,2.557c1.041,1.933,1.11,4.638,0.169,6.687c-0.705,1.523-2.248,2.801-3.655,3.481
	c-1.467,0.709-2.904,1.046-4.558,1.234c-2.885,0.317-6.011-0.279-8.612-1.538c-1.539-0.751-3.418-2.044-4.367-3.712
	c-0.697-1.225-0.676-2.812,0.174-3.973c1.35-1.848,4.243-2.256,6.426-2.179c1.663,0.061,4.652,0.578,6.234,1.137
	c0.44,0.159,2.053,0.789,2.333,1.072c0.197,0.203,0.329,0.492,0.239,0.765c-0.365,1.104-3.041,1.685-3.815,1.801
	c-2.074,0.317-3.149-0.466-5.504-1.396c-0.585-0.228-1.364-0.481-1.962-0.537c-1.068-0.103-2.36,0.192-2.562,1.363
	c-0.105,0.603,0.602,1.165,1.14,1.398c1.263,0.548,2.291,0.74,3.537,0.761c3.671,0.055,7.797-0.548,10.805-2.677
	c0.414-0.291,0.815-0.724,0.822-1.265c0-0.07-0.099-0.652-0.287-0.713l-0.079-0.004c-0.069-0.02-0.185-0.209-0.282-0.335
	c-0.216-0.263-1.088-0.638-1.259-0.711c-2.024-0.844-5.764-1.254-7.694-1.413c-2.021-0.173-5.201-0.441-5.966-0.553
	c-0.785-0.111-1.64-0.267-2.324-0.574c-0.68-0.308-1.35-0.999-1.551-1.763c-0.352-1.379,0.1-3.073,0.866-4.178
	c2.008-2.888,6.708-3.982,10.224-4.417c3.402-0.424,8.901-0.42,12.241,1.356c0.517,0.275,0.782,0.532,0.671,1.084
	c-0.216,1.036-1,1.702-1.94,1.995c-0.987,0.315-3.034,0.437-3.933,0.492c-4.028,0.227-8.895,0.107-12.73,1.155
	c-0.301,0.087-0.819,0.221-0.99,0.413c-0.6,0.651,1.115,0.836,1.484,0.916c0.108,0.022,0.131,0.027,0.244,0.037l8.478,1.005
	 M519.148,514.729c-1.626-0.597-1.995-3.223-2.071-4.551c-0.258-4.324,0.885-10.341,2.337-14.394
	c0.414-1.154,1.012-3.039,2.303-2.933c0.888,0.079,1.522,0.763,2.02,1.468c1.275,1.797,2.95,4.233,4.061,5.929
	c1.242,1.9,2.434,3.815,3.607,5.548c0.144,0.209,0.279,0.414,0.437,0.543c0.213,0.171,0.404,0.18,0.491,0.022
	c0.039-0.062-0.037-2.247-0.091-2.685c-0.091-0.697-0.133-1.261-0.211-1.863c-0.216-1.749-0.773-4.207-1.209-5.871
	c-0.482-1.861-1.07-3.8-1.509-5.6c-0.14-0.585-0.271-1.176-0.267-1.733c0.004-0.805,0.521-1.251,1.361-0.949
	c1.654,0.583,3.846,4.173,4.485,5.419c0.218,0.421,1.079,2.563,1.271,3.163c0.687,2.057,1.102,4.007,1.292,6.249
	c0.182,2.178,0.029,5.352-0.892,7.499c-0.338,0.79-1.032,1.853-1.609,2.388c-0.906,0.839-2.711,1.495-3.954,0.785
	c-1.36-0.771-3.596-4.644-3.977-5.305c-1.297-2.265-3.53-6.695-3.875-7.191c-0.076-0.11-0.174-0.215-0.347-0.267
	c-0.132-0.039-0.184,0.235-0.218,0.411c-0.223,1.29-0.375,7.323-0.378,7.491c-0.037,1.015-0.087,3.506-0.38,4.732
	c-0.191,0.801-0.386,1.458-1.121,1.794C520.18,515.062,519.782,514.964,519.148,514.729 M541.565,514.343
	c-0.176-0.134-0.459-0.424-0.666-0.657c-0.032-0.032-0.617-0.908-0.733-1.178c-0.102-0.232-0.179-0.401-0.253-0.595
	c-0.532-1.375-0.519-2.728-0.224-4.204c0.273-1.378,0.532-1.438,1.239-3.329c0.045-0.103,0.067-0.193,0.082-0.308
	c0.029-0.259-0.39-2.002-0.415-2.562c-0.029-0.854,0.633-1.461,1.745-1.578c0.101-0.009,0.177-0.008,0.251-0.029
	c0.443-0.108,0.727-0.957,0.969-1.638c0.338-0.956,0.865-2.414,0.865-2.414s-1.404-0.324-2.155-0.608
	c-0.84-0.316-1.474-0.725-1.854-1.494c-0.455-0.902-0.155-1.402,0.786-1.693c0.345-0.11,3.07-0.633,3.931-0.756
	c1.074-0.157,2.084-0.291,3.106-0.418c0.888-0.108,4.965-0.58,6.262-0.546c1.978,0.058,3.262,0.872,4.418,2.546
	c0.621,0.893,1.046,1.954,0.107,2.53c-1.441,0.875-6.11,0.941-6.966,0.951c-1.362,0.013-3.246-0.01-3.246-0.01l-0.951,3.177
	c0,0,3.345-0.035,5.224-0.043c0.457,0,0.914,0.025,1.17,0.079c0.959,0.213,1.291,0.949,1.33,2.013
	c0.052,1.244-0.183,1.816-1.173,1.982c-0.513,0.082-6.258,0.116-7.037,0.207c-0.486,0.053-1,0.129-1,0.129s-0.415,1.084-0.776,2.177
	c-0.364,1.14-0.676,2.302-0.676,2.302s0.291,0.013,0.534,0.013c0.404,0.003,0.815-0.056,1.135-0.112
	c1.752-0.321,4.358-0.706,6.497-1.043c1.15-0.183,1.728-0.265,2.333,0.497c0.523,0.674,0.794,1.239,0.831,2.053
	c0.032,0.767-0.553,1.275-1.266,1.821c-2.26,1.728-6.124,3.601-9.003,3.922c-1.33,0.15-1.654,0.001-2.819-0.302
	c-0.222-0.058-1.027-0.434-1.02-0.474c0,0-0.437-0.29-0.585-0.405L541.565,514.343z M577.889,498.378
	c-1.481,1.24-3.395,3.769-4.308,5.082c-1.221,1.74-2.369,3.734-3.467,5.278c-0.236,0.347-0.944,1.589-0.919,1.631
	c0.049,0.089,0.762,0.06,1.495-0.062c1.559-0.263,3.68-1.358,4.813-2.262c1.726-1.384,2.928-3.285,3.496-5.508
	c0.252-1.011,0.379-3.129-0.336-4.072C578.523,498.284,578.165,498.143,577.889,498.378 M566.126,516.536
	c0,0-0.469,1.376-0.813,2.456c-0.594,1.864-1.9,6.883-2.203,8.442c-0.455,2.314-1.751,8.379-1.817,8.508
	c-0.091,0.176-0.151,0.232-0.37,0.371c-0.534,0.313-0.749,0.21-1.395-0.135c-0.839-0.441-1.576-0.892-2.206-1.723
	c-1.265-1.643-0.963-4.735-0.716-6.549c0.868-6.345,1.746-9.136,4.161-15.453c0.04-0.108,0.04-0.133-0.009-0.228
	c-0.753-1.603-1.159-3.539-1.159-5.104c0.006-4.951,2.851-9.849,6.042-13.784c0.24-0.298,1.807-2.175,2.518-2.138
	c0.713,0.034,0.829,0.865,0.722,1.56c-0.358,2.286-1.967,4.617-3.067,6.545c-1.237,2.155-1.506,3.042-2.11,5.019
	c-0.098,0.308-0.34,1.753-0.329,1.938c0.025,0.531,0.14,1.2,0.14,1.2s2.012-2.817,3.34-4.556c0.725-0.955,1.246-1.586,1.851-2.266
	c0.613-0.691,2.971-3.143,3.65-3.789c1.428-1.362,2.06-1.928,3.603-2.729c1.223-0.633,2.322-0.79,3.514-0.002
	c1.892,1.242,2.716,3.87,2.929,6c0.248,2.546-0.272,5.409-1.395,7.589c-1.331,2.601-3.15,4.475-5.624,6.113
	c-2.528,1.676-5.495,2.816-8.404,2.748c-0.393-0.009-0.852-0.032-0.852-0.032"/>
</svg>
