<?xml version="1.0" encoding="utf-8"?>
<!-- Generator: Adobe Illustrator 28.3.0, SVG Export Plug-In . SVG Version: 6.00 Build 0)  -->
<svg version="1.1" id="Layer_1" xmlns="http://www.w3.org/2000/svg" xmlns:xlink="http://www.w3.org/1999/xlink" x="0px" y="0px"
	 viewBox="0 0 204.96 80" style="enable-background:new 0 0 204.96 80;" xml:space="preserve">
<style type="text/css">
	.st0{fill:#FFFFFF;}
	.st1{fill:#FAAF3C;}
	.st2{fill:#F69322;}
</style>
<g>
	<path class="st0" d="M39.01,15.13c1.33,0,2.58,0.24,3.73,0.74c1.16,0.49,2.18,1.18,3.07,2.08c0.89,0.88,1.58,1.91,2.07,3.07
		c0.49,1.15,0.74,2.4,0.74,3.73V58h-34c-1.33,0-2.57-0.24-3.73-0.73c-1.16-0.5-2.18-1.18-3.07-2.06c-0.89-0.9-1.57-1.93-2.07-3.08
		C5.25,50.96,5,49.72,5,48.39V32.57h35.63v-7.83c0-0.45-0.16-0.83-0.47-1.15c-0.33-0.32-0.71-0.48-1.15-0.48H5v-7.98H39.01z
		 M40.63,40.56H12.99v7.83c0,0.45,0.16,0.83,0.48,1.15c0.33,0.33,0.7,0.48,1.15,0.48h26.02V40.56z"/>
	<path class="st0" d="M90.29,15.13v7.98H64.44c-0.46,0-0.84,0.16-1.16,0.48c-0.32,0.32-0.47,0.71-0.47,1.15V58h-7.99V24.74
		c0-1.34,0.26-2.58,0.74-3.73c0.5-1.15,1.19-2.18,2.07-3.06c0.89-0.9,1.92-1.58,3.07-2.08c1.16-0.49,2.41-0.73,3.74-0.73H90.29z"/>
	<path class="st0" d="M140.11,41.67v23.72c0,1.35-0.25,2.59-0.73,3.74c-0.49,1.16-1.18,2.18-2.07,3.06
		c-0.88,0.89-1.91,1.59-3.08,2.07c-1.15,0.49-2.4,0.74-3.73,0.74h-25.85v-7.98h25.85c0.44,0,0.83-0.16,1.14-0.48
		c0.33-0.32,0.49-0.71,0.49-1.15V58h-26.02c-1.32,0-2.58-0.24-3.73-0.73c-1.16-0.5-2.18-1.18-3.07-2.06
		c-0.89-0.9-1.58-1.93-2.07-3.08c-0.49-1.16-0.74-2.4-0.74-3.73V24.74c0-1.33,0.25-2.57,0.74-3.73c0.49-1.16,1.18-2.19,2.07-3.07
		c0.89-0.9,1.91-1.58,3.07-2.08c1.16-0.49,2.41-0.74,3.73-0.74h24.39c1.33,0,2.58,0.25,3.73,0.74c1.17,0.49,2.19,1.18,3.08,2.08
		c0.89,0.88,1.58,1.91,2.07,3.07c0.48,1.16,0.73,2.4,0.73,3.73V41.67z M130.5,50.02c0.44,0,0.83-0.15,1.14-0.48
		c0.33-0.32,0.49-0.7,0.49-1.15V24.74c0-0.44-0.16-0.82-0.49-1.14c-0.32-0.32-0.71-0.48-1.14-0.48h-24.39
		c-0.44,0-0.82,0.16-1.15,0.48c-0.32,0.32-0.48,0.7-0.48,1.14v23.65c0,0.45,0.17,0.83,0.48,1.15c0.32,0.33,0.7,0.48,1.15,0.48H130.5
		z"/>
	<path class="st0" d="M180.33,15.13c1.32,0,2.57,0.24,3.73,0.73c1.16,0.5,2.17,1.19,3.06,2.08c0.89,0.88,1.57,1.91,2.07,3.07
		c0.49,1.15,0.73,2.4,0.73,3.73v23.65c0,1.33-0.24,2.58-0.73,3.73c-0.5,1.15-1.18,2.19-2.07,3.08c-0.89,0.88-1.9,1.57-3.06,2.06
		c-1.16,0.49-2.41,0.74-3.73,0.74h-24.41c-1.32,0-2.58-0.24-3.72-0.74c-1.16-0.49-2.18-1.18-3.07-2.06
		c-0.89-0.89-1.58-1.93-2.08-3.08c-0.49-1.16-0.73-2.4-0.73-3.73V24.74c0-1.34,0.24-2.58,0.73-3.73c0.5-1.16,1.18-2.18,2.08-3.07
		c0.89-0.89,1.91-1.58,3.07-2.08c1.14-0.49,2.4-0.73,3.72-0.73H180.33z M155.91,23.11c-0.43,0-0.81,0.16-1.14,0.48
		c-0.32,0.32-0.48,0.71-0.48,1.15v23.65c0,0.45,0.16,0.83,0.48,1.15c0.33,0.33,0.71,0.48,1.14,0.48h24.41
		c0.44,0,0.82-0.15,1.15-0.48c0.31-0.32,0.47-0.7,0.47-1.15V24.74c0-0.44-0.16-0.83-0.47-1.15c-0.33-0.32-0.71-0.48-1.15-0.48
		H155.91z"/>
	<polygon class="st1" points="199.96,5 192.61,12.34 199.96,32.56 	"/>
	<polygon class="st2" points="199.96,5 192.61,12.34 172.37,5 	"/>
</g>
</svg>
