<svg id="Layer_1" data-name="Layer 1" xmlns="http://www.w3.org/2000/svg" viewBox="0 0 500 247.23"><defs><style>.cls-1,.cls-3{fill:#001a57;}.cls-1,.cls-2{fill-rule:evenodd;}.cls-2{fill:#fff;}</style></defs><polyline class="cls-1" points="0 247.23 252.76 247.23 500 0 0 0 0 247.23"/><path class="cls-2" d="M546.79,422.84H497.57v117l-43-116.95H412l-36.7,97.8c-3.88-24.64-29.41-33.16-49.53-39.53-13.24-4.28-27.26-10.57-27.14-17.46.1-5.7,7.53-10.95,22.3-10.16,9.86.5,18.6,1.3,35.94,9.7L374,433.39c-15.9-8.05-37.8-13.14-55.75-13.16h-.1c-21,0-38.4,6.76-49.21,18a41.41,41.41,0,0,0-11.78,28.69c-.28,15.11,5.27,25.82,16.89,34.36,9.82,7.17,22.37,11.86,33.46,15.29,13.64,4.23,24.81,7.9,24.66,15.76a11.16,11.16,0,0,1-3.23,7.67c-3.4,3.51-8.62,4.83-15.85,5-13.95.25-24.29-1.93-40.75-11.63L257.16,563.5a113.59,113.59,0,0,0,55.71,14.84l2.56,0c17.22-.32,31.17-5.25,42.34-14.23l1.76-1.5-4.9,13.13h44.68L406.79,553a85.24,85.24,0,0,0,51.92.18L466,575.72h72.88V528.51h15.88c38.4,0,61.18-19.56,61.18-52.37,0-36.53-22.1-53.3-69.12-53.3M433.06,523a44.37,44.37,0,0,1-15.75-2.8L432.92,471h.29l15.3,49.35A45.05,45.05,0,0,1,433.06,523Zm116.62-28.3H538.85V455h10.83c14.45,0,26,4.79,26,19.62,0,15.25-11.52,20-26,20" transform="translate(-250 -376.38)"/><path class="cls-3" d="M563.58,607.45a13.07,13.07,0,1,1,26.13,0c0,7.84-5.77,13.49-13,13.49s-13.12-5.65-13.12-13.49m13.12,16.17a16.05,16.05,0,1,0,0-32.1c-8.87,0-16.3,6.74-16.3,15.93A16.07,16.07,0,0,0,576.7,623.62Zm-3.4-14.83h3.21l4.93,8h3.11l-5.26-8.14c2.7-.33,4.77-1.76,4.77-5.06,0-3.68-2.14-5.31-6.53-5.31h-7v18.51h2.77Zm0-2.39v-5.77h3.84c1.91,0,4,.44,4,2.78,0,2.8-2.1,3-4.42,3Z" transform="translate(-250 -376.38)"/></svg>