<?xml version="1.0" encoding="UTF-8"?>
<svg id="CLIENTES" xmlns="http://www.w3.org/2000/svg" version="1.1" viewBox="0 0 206.61 40">
  <defs>
    <style>
      .cls-1 {
        fill: #000;
        stroke-width: 0px;
      }
    </style>
  </defs>
  <polygon class="cls-1" points="22.39 .54 29.34 .54 29.34 39.52 22.39 39.52 22.39 23.28 6.94 23.28 6.94 39.52 0 39.52 0 .54 6.94 .54 6.94 16.34 22.39 16.34 22.39 .54"/>
  <polygon class="cls-1" points="110.48 24.86 93.62 .54 88.09 .54 88.09 39.52 95.03 39.52 95.03 15.07 111.97 39.52 117.43 39.52 117.43 .54 110.48 .54 110.48 24.86"/>
  <path class="cls-1" d="M146.8,0c-11.05,0-20,8.95-20,20s8.96,20,20,20,20-8.95,20-20S157.84,0,146.8,0ZM146.8,33.06c-7.21,0-13.06-5.85-13.06-13.06s5.85-13.06,13.06-13.06,13.06,5.85,13.06,13.06-5.85,13.06-13.06,13.06Z"/>
  <path class="cls-1" d="M194.76,25.31c5.12-1.63,8.83-6.43,8.83-12.09,0-6.99-5.66-12.66-12.65-12.68h0s-14.76,0-14.76,0v38.98h6.94v-17.35l14.47,17.35h9.02l-11.85-14.21ZM183.12,18.96V7.48h7.73c3.17,0,5.74,2.57,5.74,5.74s-2.57,5.74-5.74,5.74h-7.73Z"/>
  <path class="cls-1" d="M58.71,0c-11.05,0-20,8.95-20,20s8.95,20,20,20,20-8.95,20-20S69.76,0,58.71,0ZM58.71,33.06c-7.21,0-13.06-5.85-13.06-13.06s5.85-13.06,13.06-13.06,13.06,5.85,13.06,13.06-5.84,13.06-13.06,13.06Z"/>
</svg>