<?xml version="1.0" encoding="UTF-8"?>
<svg id="CLIENTES" xmlns="http://www.w3.org/2000/svg" version="1.1" viewBox="0 0 178.05 40">
  <defs>
    <style>
      .cls-1 {
        fill: #6c0311;
        stroke-width: 0px;
      }
    </style>
  </defs>
  <path class="cls-1" d="M.52,4.19c3,.51,6.96.07,6.96.07l-.45,35.03-7.03.2.42-1.76,2.28-.58V6.63l-2.17-.51v-1.94Z"/>
  <path class="cls-1" d="M17.81,13.04c-1.03.14-4.23.21-6.13.21-.72,3.93-4.17,11.3-4.2,12.12,1.38,3.52,4.48,13.95,4.48,13.95h7.27l-.31-1.65-2.51-.59-4.58-12.26-1.93.51s3.79-8.74,5.23-9.85c1.45-1.1,2.72-.82,2.72-.82"/>
  <path class="cls-1" d="M18.85,13.01c-.45.21,5.71.1,6.81.03-.82,7.3-.51,24.15-.51,24.15l2.23.47.21,1.62h-7.06l.24-24.03-1.93-.53v-1.71Z"/>
  <path class="cls-1" d="M22.88,3.92c-1.24,1.54-2.45,2.52-3.44,3.52.79,1.06,1.55,1.89,2.79,3.34,1.2-1.39,2.03-1.94,3.37-2.97-1.65-1.76-2.72-3.89-2.72-3.89"/>
  <path class="cls-1" d="M26.02,3.41c.65-1.37,1.24-2.54,2.22-3.38,6.32-.48,4.95,7.59.13,10.48-.65.39-1.01.11-.59-.26,2.68-2.34,2.8-6.71-1.76-6.84"/>
  <path class="cls-1" d="M43.09,6.07c-2.01.15-4.35.18-7.4-.14l-.06,1.8c1.05,0,2.3.35,2.47.57.4.47,4.3,13.52,4.3,14.55,0,1.38-5.02,13.99-5.71,14.29-.69.3-2.46.65-2.46.65v1.56h6.39c0-1.74,2.65-13.34,2.8-13.34.46,0,3.07,13.28,3.07,13.28h7.89v-1.63s-2.46-.22-2.88-.99c-.9-1.61-4.41-15.01-4.41-15.98,0-1.49,4-11.74,4.48-12.27.47-.54,2.21-.74,2.62-.74v-1.74c-2,.27-3.17.29-5.52,0-.21,1.72-1.45,9.97-2.8,12.15-.23-.99-2.62-11.25-2.79-12.03"/>
  <path class="cls-1" d="M63.89,5.47c-2.57,0-4.14.44-4.14.44.01,2.64-2.92,6.35-5.32,7.14-.45,2.4-.87,5.12-.87,9.82,0,6.79,2.75,17.13,11.64,17.13,2.46-3.24,4.17-4.53,5.43-5.44.92-1.38,1.5-8.83,1.5-14.83,0-13.28-4.46-14.26-8.24-14.26M64.26,37.57c-3.03,0-5.44-7.05-5.44-15.68,0-5.87.59-13.47,1.8-13.77,3.43-.84,6.62,2.75,6.62,13.9,0,3.46.06,15.55-2.98,15.55"/>
  <path class="cls-1" d="M100.33,5.47c-2.57,0-4.14.44-4.14.44.01,2.64-2.92,6.35-5.32,7.14-.45,2.4-.87,5.12-.87,9.82,0,6.79,2.75,17.13,11.64,17.13,2.47-3.24,4.17-4.53,5.43-5.44.92-1.38,1.5-8.83,1.5-14.83,0-13.28-4.45-14.26-8.24-14.26M100.7,37.57c-3.03,0-5.44-7.05-5.44-15.68,0-5.87.59-13.47,1.8-13.77,3.43-.84,6.62,2.75,6.62,13.9,0,3.46.06,15.55-2.98,15.55"/>
  <path class="cls-1" d="M87.57,12.27v-2.92c-3.92-1.69-6.36-1.2-6.36-1.2-3.42,7.44-4.29,31.59,5.41,28.47,2-.64,2.58-1.02,2.93-1.09l.72,1.6c-1.37.95-4.09,2.68-4.83,2.68-2.42,0-12-1.42-12-16.5,0-4.85.96-9.75,1.29-10.31.93-.69,5.52-3.78,5.52-7.05,3.33-.05,7.84-.32,9.97,0,0,0-.67,3.39-1.01,6.65-.04-.09-1.64-.34-1.64-.34"/>
  <path class="cls-1" d="M163.5,5.91v1.67l2.55.74v28.86l-2.8.49v1.65h14.8v-6.02h-1.62c0,.97.75,3.88-5.45,3.88V8.32l2.65-.64v-1.77c-3.71.34-5.81.27-10.12,0"/>
  <path class="cls-1" d="M144.13,36.9c-.27-1.22-3.8-29.55-3.96-30.95-3.5.29-5.57.29-9.87-.04v1.73s1.65.21,2.37.46c.59,3.5-3.92,26.84-4.68,28.75-.17.42-2.36.89-2.36.89l.03,1.6h5.19l1.47-13.92h5.28l1.39,13.92h7.67v-1.69s-2.45-.38-2.53-.76M132.62,23.2l1.86-13.75h1.39l1.35,13.75h-4.6Z"/>
  <path class="cls-1" d="M162.1,5.78c-7.72.51-9.19.51-16.99-.12v6.71l1.68-.39c0-3.37,1.18-3.96,4.09-3.96l.04,28.96-2.71.57v1.75h10.18v-1.75l-2.4-.57-.04-28.96c2.58,0,4.51.84,4.51,3.93l1.6.37.04-6.54Z"/>
  <path class="cls-1" d="M109.92,5.91v1.67l2.55.74v28.86l-2.8.49v1.65h14.8v-6.02h-1.62c0,.97.74,3.88-5.45,3.88V8.32l2.65-.64v-1.77c-3.71.34-5.81.27-10.13,0"/>
</svg>