<?xml version="1.0" encoding="UTF-8"?>
<svg id="CLIENTES" xmlns="http://www.w3.org/2000/svg" version="1.1" viewBox="0 0 122.92 40">
  <defs>
    <style>
      .cls-1 {
        fill: #fe001a;
        stroke-width: 0px;
      }
    </style>
  </defs>
  <g>
    <path class="cls-1" d="M3.59,16.56C7.12,10.03,13.21,2.91,20.41.53c1.48-.37,3.44-.78,4.76.23,1.17.86,1.32,2.34,1.06,3.67-.35,1.57-1.42,3.57-3.23,3.82-.32,0-.6-.12-.81-.34-.47-.46-.43-1.12-.34-1.72.3-1.25,1.45-2.58,2.78-2.75.23-.15.13-.42.07-.62-.18-.28-.39-.49-.71-.55-1.44-.17-2.53.74-3.64,1.5-4.2,3.38-7.25,7.72-9.81,12.04-2.09,3.89-3.87,7.91-4.39,12.45-.26,3.29.79,6.53,3.72,8.11,3.18,1.68,7.29.54,10.47-.32l2.92-.9,5.62-1.67c5.33-1.56,12-1.91,17.21.16,3.14,1.31,6.39,3.11,8.44,6.2,0,.08,0,.18-.1.16-4.46-1.22-10.27-2.42-14.69-.31l-.21-.05c-1.34-2.15-3.61-3.34-5.93-3.8-7.5-.72-13.66,2.83-20.71,3.71-3.57.33-7.4.22-9.89-2.52-3.93-3.93-3.47-10.86-1.6-15.59.61-1.67,1.36-3.29,2.19-4.88Z"/>
    <path class="cls-1" d="M13.93,18.9c1.86-3.42,4.72-7.6,8.67-8.85,1.06-.24,2.19-.14,3,.56,1.7,1.69,1.04,4.6.46,6.59,0,.11.1.24.21.26,1.51-.04,2.73-.75,3.82-1.79,2.35-2.62,4.86-6.05,8.67-5.65.71.12,1.41.52,1.78,1.19.97,1.92.02,4.04-1.3,5.51-.51.49-1.14.86-1.87.63-.29-.1-.53-.39-.65-.68-.27-1.35.51-2.6,1.6-3.31.31-.31,1.25-.09.99-.79-.19-.28-.49-.31-.79-.31-1.85.77-3.06,2.67-4.14,4.25-1.35,2.12-2.45,4.37-3.17,6.76-.2.86-.45,1.98.06,2.78.37.5.99.72,1.62.56,1.84-.72,3.45-2.2,4.85-3.72,3.21-3.85,4.92-8.62,9.21-11.75,1.33-.92,3.22-1.63,4.82-.78.26.1.47.44.79.31.26-.26.44-.81.96-.68,1.18.02,2.55-.04,3.77.08l.08.11-.34.83-6.67,13.55c-.07.15-.08.34-.05.5.11.2.36.18.53.12.96-.55,1.71-1.57,2.38-2.43.59-.81,1.11-1.65,1.53-2.54.18-.26.39-.58.75-.53.37.05.84-.11,1.12.15-.43,1.13-1.1,2.17-1.68,3.24-1.81,2.79-4.18,6.02-7.51,6.86-.55.06-1.23.11-1.65-.3-.65-.49-.68-1.27-.85-1.97-.06-.08-.18-.1-.28-.07-1.42,1.28-2.88,2.55-4.88,2.3-.62-.13-1.2-.6-1.47-1.19-.52-.99-.27-2.27-.3-3.38-.05-.13-.21-.08-.28-.03-2.17,2.14-4.51,4.06-7.39,4.6-1.33.16-2.48-.24-3.37-1.18-2.15-2.82-.45-6.51.68-9.25.05-.13.03-.31-.13-.34-.78.06-1.53.19-2.27.3l-.26.29c-1.75,3.24-3.64,6.67-6.78,9.08-1.3.94-3.24,1.58-4.76.71-1.59-1.09-1.73-3.04-1.53-4.84.38-2.04,1.12-3.94,2-5.77ZM18.9,18.74c-.92,1.85-1.85,3.71-1.89,5.9.1.41.34.88.79.99.49.13.89-.13,1.27-.37,1.79-1.5,3.03-3.56,4.04-5.54.08-.19.23-.44.12-.65-1.07-.43-2.11-1.16-2.93-2.09l-.18-.03c-.16.03-.23.19-.34.31l-.88,1.47ZM21.69,14.98c.06.97.97,1.82,1.83,2.15.21.07.55.23.73-.03.33-.62.52-1.3.69-1.98.17-.89.3-2.09-.56-2.68-.29-.16-.73-.18-1.04-.04-.98.48-1.68,1.47-1.65,2.58ZM43.68,22.54c-.25.81-.62,1.69-.37,2.58.08.18.27.31.45.36.73.02,1.22-.64,1.69-1.16,2.14-2.96,3.77-6.15,5.24-9.4.25-.68.64-1.31.62-2.08-.02-.16-.18-.28-.31-.36-.32-.15-.63.08-.89.21-2.88,2.21-4.43,5.39-5.87,8.4l-.57,1.44Z"/>
    <path class="cls-1" d="M57.55,14.22c.64-1.26,1.18-2.58,1.98-3.77.33-.36.83-.34,1.27-.39l3.2.04.13.13c-.54,1.28-1.13,2.54-1.8,3.78-.16.32-.51.63-.88.68-1.3.03-2.68.1-3.91-.01-.13-.13-.01-.31.02-.45Z"/>
    <path class="cls-1" d="M60.76,20.7c2.22-4.6,4.9-9.04,8.7-12.96,3.68-3.67,7.67-6.64,12.49-7.55,1.32-.19,2.79-.07,3.8.82.19.16.42.33.7.23,3.46-1.38,8.27-1.87,11.74-.14,2.01.98,3.92,2.24,5.85,3.45.24.13.13.39,0,.54-1.11,1.23-2.04,2.49-3.03,3.77-.11.11-.29.06-.41,0l-5.1-3.51c-2.38-1.62-5.12-2.74-8.22-2.24-.34.18-.18.6-.23.92.07,3.18-1.06,5.95-2.59,8.48-1.22,1.77-2.64,3.61-4.72,4.2-.91.19-1.79-.09-2.33-.82-1.52-2.31-.18-5.13.93-7.19,1.27-2.24,3.25-4.34,5.38-5.95.05-.08.15-.16.08-.26-.21-.21-.57-.08-.83-.04-3.46,1.16-6.23,4.21-8.79,7.11-4.56,5.62-8.03,11.71-10,18.41-.61,2.51-1.43,6.37,1.12,8.14,2.25,1.21,4.42-.34,6.11-1.8,2.57-2.62,4.3-5.65,5.01-9.07.12-1.02.4-2.42-.54-3.12-.84-.38-1.54.32-2.11.9-1.32,1.59-1.88,3.48-2.11,5.53-.59.49-1.29.79-1.9,1.26-1.17.81-2.33,1.89-3.26,2.98-.11.03-.13-.1-.16-.16-.13-3.77,1.21-6.99,3.28-9.89,1.65-1.91,3.76-3.54,6.32-2.93,1.12.3,1.86,1.48,2.07,2.54.41,3.54-1.08,6.64-2.68,9.52-2.58,4.05-6.65,8.14-11.81,7.65-1.98-.12-3.83-1.49-4.66-3.31-1.95-3.89-.6-8.88.71-12.64l1.21-2.87ZM78.31,14c.05.44.22.91.68,1.07.88.25,1.58-.4,2.23-.9,2.35-2.48,3.77-5.34,4.14-8.64,0-.49.17-1.1-.11-1.53-.19-.03-.41.05-.57.16-1.58,1.05-3.06,2.59-4.14,4.14-1.13,1.73-2.15,3.52-2.23,5.69Z"/>
    <path class="cls-1" d="M81.6,25.01c1.88-2.48,4.37-5.18,7.52-5.38.79.02,1.49.35,1.98,1.01,1.34,1.98.21,4.53-.28,6.54-.05.18.08.31.21.36.65.1,1.4,0,1.97-.28l.24-.31c2.26-6.45,5.63-12.45,9.62-18.16,2.5-3.3,5.69-6.72,9.39-8.31.88-.31,2.14-.67,2.99-.02.94.77.67,2.1.43,3.12-.1.91-1.11,1-1.77,1.21-.03-.02-.07,0-.1-.03.02-.58.33-1.1.44-1.67.03-.31.08-.57-.05-.86-.16-.29-.52-.2-.76-.12-1.25.61-2.26,1.73-3.22,2.81-3.59,4.16-6.18,8.78-8.57,13.44-.78,1.62-1.6,3.22-2.24,4.91-.02.1.02.16.1.23.55-.01.88-.58,1.3-.87,3.16-2.86,5.72-6.15,8.08-9.48.5-.24,1.09-.24,1.67-.29l.11.03c-.03.45-.42.81-.64,1.22-2.64,3.81-5.64,7.45-9.29,10.76l-2.64,2.17c-.55.49-.57,1.23-.85,1.85-.51,1.67-1.02,3.37-1.09,5.21.02.31.13.6.39.76.7.31,1.25-.35,1.74-.81,3.57-4.13,5.15-9.19,9.51-12.89,1.43-1.13,3.32-2.1,5.17-1.25.32.11.57.54.96.34.28-.19.29-.63.68-.61,1.28-.01,2.65-.06,3.88.05.11.1.03.26,0,.37l-.88,1.78-5.46,11.02c-.25.5-.57,1.04-.54,1.6.08.24.34.26.55.21,1.03-.56,1.77-1.5,2.44-2.46.67-.94,1.21-1.93,1.84-2.88.34-.16.81-.09,1.18-.04.23.21-.07.49-.12.73-1.6,3.32-3.84,6.95-7.33,8.79-.81.4-1.93.77-2.83.28-.71-.49-.64-1.38-.97-2.06-.06-.1-.23-.08-.31-.03-1.45,1.29-3.01,2.75-5.04,2.19-1.26-.59-1.41-2.05-1.5-3.3-.06-.05-.03-.15-.11-.2l-.16.06c-1.42,1.7-3.21,3.82-5.6,3.62-.91-.07-1.7-.95-1.97-1.76-.83-2.65.05-5.55.65-8.1,0-.15-.16-.29-.29-.31l-2,.03-.33.37c-1.47,2.88-3.09,5.67-5.63,8.08-1.33,1.18-2.98,2.16-4.81,1.62-1.52-.65-1.92-2.31-1.92-3.87.32-3.93,2.09-7.25,4.24-10.42ZM82.12,33.83c.03.55.3,1.12.87,1.3.37.13.78-.03,1.1-.19,1.87-1.39,2.98-3.53,4-5.47.1-.19.18-.5-.08-.65-.97-.49-1.91-1.26-2.69-2.12-.1-.1-.28-.11-.39-.05-.7.94-1.16,1.98-1.65,3.01-.56,1.31-1.16,2.61-1.17,4.17ZM86.83,24.72c.06.99.85,1.92,1.76,2.25.18.07.5.15.63-.08.56-1.26,1.08-2.71.79-4.17-.11-.34-.4-.68-.76-.8-.36-.1-.73.01-1.04.16-.91.6-1.35,1.59-1.39,2.64ZM104.72,33.39c-.03.47-.15,1.05.21,1.41.19.2.5.21.75.13.96-.5,1.58-1.52,2.17-2.36,1.96-3.04,3.4-6.3,4.74-9.61.05-.29.13-.7-.14-.89-.79-.38-1.41.5-2,.92-2.59,2.57-3.96,5.68-5.26,8.81l-.46,1.59Z"/>
    <path class="cls-1" d="M108.5,9.18l1.73-2.23.26-.23c5-.1,8.91-3.07,12.42-6.58-.02.47-.23.91-.39,1.33-2.31,5.43-7.91,10.2-13.96,10.28l-1.43-.02c-.26-.07-.08-.33-.01-.45l1.39-2.09Z"/>
  </g>
  <path class="cls-1" d="M114.81,37.84c0-.68.51-1.19,1.17-1.19s1.16.51,1.16,1.19-.51,1.2-1.16,1.2-1.17-.51-1.17-1.2ZM115.98,39.28c.78,0,1.45-.61,1.45-1.44s-.67-1.43-1.45-1.43-1.46.61-1.46,1.43.67,1.44,1.46,1.44ZM115.67,37.95h.29l.44.72h.28l-.47-.73c.24-.03.43-.16.43-.46,0-.33-.19-.47-.58-.47h-.63v1.65h.25v-.72ZM115.67,37.74v-.51h.34c.17,0,.36.04.36.24,0,.25-.19.27-.4.27h-.3Z"/>
</svg>