<?xml version="1.0" encoding="UTF-8"?>
<svg id="CLIENTES" xmlns="http://www.w3.org/2000/svg" version="1.1" viewBox="0 0 32.52 40">
  <defs>
    <style>
      .cls-1 {
        fill: #666;
      }

      .cls-1, .cls-2, .cls-3 {
        stroke-width: 0px;
      }

      .cls-2 {
        fill: #f26522;
      }

      .cls-3 {
        fill: #fff;
      }
    </style>
  </defs>
  <g>
    <path class="cls-2" d="M27.78,3.04C25.03.31,21.09,0,16.26,0S7.48.31,4.74,3.05C1.99,5.79,1.71,9.74,1.71,14.56s.28,8.77,3.02,11.51c2.74,2.74,6.7,3.02,11.52,3.02s8.78-.28,11.52-3.02c2.74-2.74,3.02-6.69,3.02-11.51s-.28-8.78-3.03-11.52ZM15.19,19.94c0,.1-.08.18-.18.18h-2.48c-.1,0-.18-.08-.18-.18v-6.49c0-.1.08-.18.18-.18h2.48c.1,0,.18.08.18.18v6.49ZM20.05,19.94c0,.1-.08.18-.18.18h-2.36c-.1,0-.18-.08-.18-.18v-5.6c0-.98-.06-1.98-.56-2.49-.43-.44-1.24-.53-2.08-.56h-4.28c-.1,0-.18.08-.18.18v8.46c0,.1-.08.18-.18.18h-2.36c-.1,0-.18-.08-.18-.18v-10.78c0-.1.08-.18.18-.18h6.82c1.78,0,3.64.08,4.56,1,.92.92,1.01,2.78,1.01,4.57v5.39ZM24.91,19.94c0,.1-.08.18-.18.18h-2.36c-.1,0-.18-.08-.18-.18v-10.78c0-.1.08-.18.18-.18h2.36c.1,0,.18.08.18.18v10.78Z"/>
    <g>
      <path class="cls-1" d="M14.11,35.61c-.49-.67-1.37-.87-2.28-.82-.93.05-1.57.25-1.73.31-.1.04-.09.13-.09.18,0,.18-.02.64-.02.82,0,.08.1.12.19.09.34-.12.96-.31,1.46-.35.54-.04,1.27,0,1.48.31.1.15.1.37.11.6-.34-.03-.84-.07-1.33-.05-.39.02-1.13.05-1.56.29-.35.19-.56.36-.67.68-.09.26-.11.57-.08.82.06.57.26.86.53,1.06.43.31.96.48,2.07.46,1.48-.03,1.87-.51,2.06-.85.33-.58.28-1.49.27-2.05,0-.23-.04-.99-.39-1.48ZM12.21,38.99c-.54.02-.95,0-1.2-.12-.17-.08-.3-.28-.31-.5,0-.19,0-.28.08-.4.19-.25.69-.3,1.21-.32.35-.01.88.03,1.27.07,0,.38-.03.75-.11.92-.14.29-.64.34-.93.35Z"/>
      <path class="cls-1" d="M18.31,34.86c-.74,0-1.49.09-1.96.56-.47.46-.65,1.16-.65,2.01s.16,1.54.63,2c.47.46,1.23.57,1.98.57s1.48-.09,1.96-.56c.47-.46.66-1.16.66-2.02s-.16-1.53-.64-2c-.47-.46-1.23-.57-1.98-.57ZM19.44,38.66c-.26.3-.74.35-1.13.35s-.87-.05-1.13-.35c-.26-.3-.28-.71-.28-1.23s.02-.92.28-1.22c.26-.3.68-.35,1.13-.35s.87.05,1.13.35c.26.3.28.7.28,1.22s-.02.93-.28,1.23Z"/>
      <path class="cls-1" d="M31.39,34.95h1.05s.08.04.08.08v4.8s-.04.08-.08.08h-1.06s-.08-.04-.08-.08v-4.8s.04-.08.08-.08Z"/>
      <path class="cls-1" d="M27.54,34.87c-.72,0-1.18.15-1.46.3h-.19c-.27-.15-.75-.3-1.5-.3-.56,0-1.24.04-1.66.39-.35.29-.43.68-.43,1.48v3.09s.04.08.08.08h1.05s.08-.04.08-.08h0s0-1.96,0-2.54c0-.46-.02-.94.08-1.11.08-.14.2-.29.77-.29.68,0,.84.05.95.35.03.07.04.17.04.3v3.3s.04.08.08.08h1.05s.08-.04.08-.08v-3.3c0-.12.02-.23.04-.3.11-.3.27-.35.95-.35.57,0,.69.15.77.29.1.18.08.66.08,1.11,0,.58,0,2.53,0,2.53h0c0,.05.04.09.08.09h1.05s.08-.04.08-.08v-2.9c0-.83-.03-1.25-.42-1.62-.43-.4-1.12-.45-1.67-.45Z"/>
      <path class="cls-1" d="M6.95,34.95h1.05s.08.04.08.08v4.8s-.04.08-.08.08h-1.06s-.08-.04-.08-.08v-4.8s.04-.08.08-.08Z"/>
      <path class="cls-1" d="M3.57,37.39l1.87-2.32c.04-.05,0-.13-.06-.13h-1.35s-.06.02-.08.04l-1.24,1.64-1.21-1.64s-.05-.04-.08-.04H.08c-.06,0-.1.07-.06.12l1.89,2.36L.02,39.79c-.04.05,0,.12.06.12h1.35s.06-.02.08-.04l1.26-1.63,1.2,1.63s.05.04.08.04h1.34c.06,0,.1-.07.06-.12l-1.87-2.4Z"/>
    </g>
  </g>
  <g>
    <path class="cls-3" d="M12.53,13.27h2.48c.1,0,.18.08.18.18v6.48c0,.1-.08.18-.18.18h-2.48c-.1,0-.18-.08-.18-.18v-6.48c0-.1.08-.18.18-.18Z"/>
    <path class="cls-3" d="M22.37,20.12h2.36c.1,0,.18-.08.18-.18v-10.78c0-.1-.08-.18-.18-.18h-2.36c-.1,0-.18.08-.18.18v10.78c0,.1.08.18.18.18Z"/>
    <path class="cls-3" d="M7.66,20.12h2.36c.1,0,.18-.08.18-.18v-8.46c0-.1.08-.18.18-.18h4.28c.84.02,1.65.12,2.08.56.5.5.56,1.51.56,2.49v5.6c0,.1.08.18.18.18h2.36c.1,0,.18-.08.18-.18v-5.39c0-1.78-.08-3.64-1.01-4.57-.92-.92-2.78-1-4.56-1h-6.82c-.1,0-.18.08-.18.18v10.78c0,.1.08.18.18.18Z"/>
  </g>
</svg>