<?xml version="1.0" encoding="UTF-8"?>
<svg id="CLIENTES" xmlns="http://www.w3.org/2000/svg" version="1.1" viewBox="0 0 303.44 40">
  <defs>
    <style>
      .cls-1 {
        fill: #2e3192;
        stroke-width: 0px;
      }
    </style>
  </defs>
  <polyline class="cls-1" points="82.84 5.65 89.23 5.65 88.91 10.29 82.51 10.29 82.84 5.65"/>
  <path class="cls-1" d="M259.86,29.18h-.07c-1.45,1.34-2.82,2.33-5.44,2.33-4.24,0-6.02-2.42-6.02-5.58,0-3.56,3.65-5.85,10.14-5.85h2.13c.11-1.57.65-4.16-2.03-4.16-1.9,0-2.37,1.81-2.41,2.69h-6.16c.14-2.33,1.15-3.89,3.02-4.71,1.91-.86,4.25-1.07,6.24-1.07,3.63,0,8.09,1.81,7.79,6.25l-.51,8.61c-.05.75-.06,1.53.04,3.67h-6.39l-.34-2.17M256.92,27.96c3.16,0,3.36-2.94,3.53-5.32-1.43,0-2.77-.07-3.74.39-1.03.5-1.8,1.36-1.89,2.61-.09,1.28.81,2.33,2.09,2.33Z"/>
  <polyline class="cls-1" points="281.4 31.37 283.2 5.65 289.98 5.65 288.17 31.37 281.4 31.37"/>
  <path class="cls-1" d="M171.14,16.08h.07c1.74-2.24,3.74-2.61,5.94-2.61l-.4,5.74c-.45-.04-.92-.04-1.38-.04-4.47,0-4.6,2.56-4.77,5.52l-.4,6.68h-6.95l.93-13.3c.11-1.6.15-2.67.11-4.65h6.62l.23,2.65"/>
  <polyline class="cls-1" points="176.66 31.37 178.46 5.65 185.01 5.65 183.21 31.37 176.66 31.37"/>
  <path class="cls-1" d="M123.85,5.65h6.72l-.72,10.25h.13c1.36-1.6,3.24-2.94,5.66-2.94,5.49,0,7.6,4.83,7.3,9.2-.3,4.43-2.62,9.47-8.75,9.47-2.06,0-4.07-1.14-5-2.47h-.14l-.4,2.19h-6.59l1.8-25.7M129.23,22.65c-.1,2.19.45,5.27,2.9,5.27,3.12,0,3.89-3.1,4-5.59.1-2.2-.33-5.46-2.98-5.45-3.38,0-3.81,3.39-3.92,5.77Z"/>
  <path class="cls-1" d="M150.22,23.57c-.2,2.47.37,4.47,2.9,4.47,1.89,0,3.08-1.26,3.08-2.43h6.27c-.14,2.18-1.66,3.87-3.44,4.87-1.64,1-3.52,1.17-5.53,1.17-7.31,0-10.13-3.03-9.68-9.83.38-5.67,4.94-9.02,10.32-8.93,7.2.11,9.51,4.35,8.83,10.68h-12.75M156.73,20.19c.07-.96-.15-1.93-.63-2.67-.48-.75-1.22-1.21-2.25-1.14-2.36.11-2.99,1.78-3.31,3.81h6.2Z"/>
  <polyline class="cls-1" points="56.19 5.65 63.72 5.65 61.91 31.36 54.38 31.36 56.19 5.65"/>
  <polyline class="cls-1" points="72.06 5.65 63.05 17.08 71.08 31.36 80.1 31.36 71.11 16.7 80.58 5.65 72.06 5.65"/>
  <polyline class="cls-1" points="82.22 13.43 88.61 13.43 87.36 31.36 80.96 31.36 82.22 13.43"/>
  <path class="cls-1" d="M96.7,13.42v2.42s.07,0,.07,0c2-2.62,4.74-2.85,6.43-2.85,2.44,0,4.94,1.35,5.45,3.17,1.38-2.14,3.85-3.2,6.57-3.27,3.91,0,6.63,2.5,6.35,6.47l-.85,12h-6.88l.75-10.53c.09-1.71-.04-3.65-2.29-3.65-3.29,0-3.17,3.68-3.2,3.9l-.71,10.29h-6.9l.76-10.54c.03-1.75-.2-3.65-2.38-3.65-3.48,0-3.4,3.68-3.4,3.9l-.72,10.29h-7.1l1.25-17.95h6.79"/>
  <polyline class="cls-1" points="193.7 40 187.48 40 191.49 31.66 184.92 13.43 192.55 13.43 195.51 24.56 200.22 13.43 206.52 13.43 193.7 40"/>
  <polyline class="cls-1" points="207.18 17.04 215.85 17.04 213.08 22.65 204.4 22.65 207.18 17.04"/>
  <path class="cls-1" d="M229.77,4.97c5.3,0,10.72,2.31,10.48,8.75h-7.3c0-1.69-.98-3.61-3.45-3.61s-5.37,1.84-5.89,7.18c-.51,5.34.16,9.38,4.48,9.38,3.73,0,4.48-3.22,4.55-3.85h7.24c0,2.87-2.38,8.79-12.19,8.79-10.36,0-12.2-7.54-11.34-14.56.72-5.88,4.91-12.09,13.42-12.09"/>
  <polyline class="cls-1" points="240.39 31.37 242.19 5.65 248.74 5.65 246.95 31.37 240.39 31.37"/>
  <path class="cls-1" d="M275.61,16.08h.07c1.74-2.24,3.74-2.61,5.98-2.61l-.4,5.74c-.5-.04-.96-.04-1.42-.04-4.46,0-4.6,2.56-4.77,5.52l-.4,6.68h-6.95l.93-13.3c.11-1.6.15-2.67.11-4.65h6.62l.23,2.65"/>
  <polyline class="cls-1" points="289.35 21.35 295.75 13.38 303.44 13.38 296.54 20.96 303.07 31.32 294.75 31.32 289.35 21.35"/>
  <path class="cls-1" d="M0,18.68c0,10.32,9.6,18.68,21.45,18.68s21.45-8.36,21.45-18.68S33.3,0,21.45,0,0,8.36,0,18.68M21.46,35.64c-10.92,0-19.74-7.57-19.74-16.96S10.53,1.72,21.46,1.72s19.74,7.58,19.74,16.96-8.81,16.96-19.74,16.96Z"/>
  <path class="cls-1" d="M16.9,31.35v-5.2c-.44.3-1.53,1.15-3.77,1.15H4.32v-7.25h5.44c1.36,0,1.45-.81,1.45-1.06,0-2.09-3.6-4.99-7.59-8l10.69-.02c.65.48,1.68,1.21,2.6,2.24v-7.61h9.09v7.61c.92-1.03,1.94-1.76,2.6-2.24l10.69.02c-3.99,3-7.58,5.9-7.58,8,0,.24.09,1.06,1.45,1.06h5.44v7.25h-8.81c-2.24,0-3.33-.86-3.77-1.15v5.2h-9.1M24.22,29.57v-8.25c1.54,3.44,4.27,4.21,6.47,4.21h6.13v-3.7h-4.29c-2.21,0-2.9-1.64-2.9-2.58,0-2.28,1.85-4.03,4.61-6.47h-4.89c-2.12,1.38-4.18,3.58-5.13,6.05V7.41h-5.55v11.42c-.95-2.47-3.02-4.66-5.13-6.05h-4.88c2.76,2.44,4.61,4.18,4.61,6.47,0,.94-.69,2.58-2.9,2.58h-4.29v3.7h6.13c2.21,0,4.93-.76,6.47-4.21v8.25h5.54Z"/>
</svg>