<?xml version="1.0" encoding="UTF-8"?>
<svg id="CLIENTES" xmlns="http://www.w3.org/2000/svg" version="1.1" viewBox="0 0 170.29 40">
  <defs>
    <style>
      .cls-1 {
        font-family: Helvetica, Helvetica;
        font-size: 3.14px;
      }

      .cls-1, .cls-2 {
        fill: #c3c3c6;
      }

      .cls-2, .cls-3, .cls-4 {
        stroke-width: 0px;
      }

      .cls-5 {
        fill: none;
        stroke: #c3c3c6;
        stroke-miterlimit: 10;
        stroke-width: .06px;
      }

      .cls-3 {
        fill: #2e4381;
      }

      .cls-4 {
        fill: #231f20;
      }
    </style>
  </defs>
  <g>
    <path class="cls-4" d="M4.1,5.5h20.67l-1.07,6.1h-11.32l-.63,3.93h10.94l-.82,6.05h-11.2l-1.25,8.61H0L4.1,5.5Z"/>
    <path class="cls-4" d="M22.86,22.56c0-5.31,3.59-10.1,11.71-10.1s9.52,3.56,9.52,8.07c0,5.31-4.65,10.1-11.45,10.1-8.39,0-9.78-3.56-9.78-8.07ZM35.5,21.01c.17-1.92-.37-3.35-1.37-3.44-1.3-.12-2.47,2.21-2.72,4.92-.17,1.92.37,3.35,1.37,3.44,1.3.12,2.47-2.21,2.72-4.92Z"/>
    <path class="cls-4" d="M46.47,12.98h7.81l-.68,3.85c1.75-2.55,4.16-5.16,7.18-4.13l-1.21,6.94s-.47-.27-1.56-.27c-3.68,0-4.83,3.3-5.3,5.13l-.79,5.69h-8.26l2.81-17.21Z"/>
    <path class="cls-4" d="M60.36,23.48l9.34-5.53h-8.13l.75-5.19h17.12l-1.21,7.26-8.76,5.36,8.13.06-.69,4.74h-17.64l1.1-6.7Z"/>
    <path class="cls-4" d="M78.29,26.6c0-3.96,2.95-7.34,9.39-7.34,1.41,0,2.32-.1,3.73.31v-.86c0-1.17-2.18-1.94-4.14-1.94-2.54,0-4.5,1.07-5.77,1.55l.74-4.81c2.03-.62,5.02-1,7.74-1,6.23,0,8.86,2.37,8.86,6.12,0,.79-.1,1.69-.34,2.61l-1.36,8.94h-7.65l.33-2.29c-1.67,2.03-3.77,2.71-5.94,2.71-2.89,0-5.59-.77-5.59-4ZM90.64,23.61l.23-.79c-.58-.14-1.05-.21-1.64-.21-2.22,0-3.47.93-3.47,2.55,0,.96.62,1.48,1.44,1.48,1.4,0,2.92-1.27,3.43-3.03Z"/>
  </g>
  <rect class="cls-3" x="104.41" width="65.89" height="40" rx=".55" ry=".55"/>
  <g>
    <path class="cls-2" d="M109.96,20.42v-.05c0-6.37,4.93-8.65,9.63-8.65,2.36,0,4.21.55,4.21.55l.03,4.7c-.98-.52-1.88-.83-3.31-.83-2.75,0-4.44,2.2-4.44,4.18v.05c0,2.14,1.96,4.3,3.95,4.3,1.48,0,2.77-.06,3.83-.86l-.02,4.49s-1.63.66-4.49.66c-6.03,0-9.38-3.44-9.38-8.54Z"/>
    <path class="cls-2" d="M124.81,25.53v-.04c0-2.45,2.13-4.21,4.99-4.21,1.03,0,2.49-.03,3.02.19v-.2c0-1.12-1.31-1.61-2.88-1.61-1.26,0-2.76.61-3.84,1.03l.03-3.29c1.42-.54,3.04-.69,5.17-.69,2.5,0,4.11.49,5.19,1.57.92.92,1.28,1.57,1.28,3.35v6.99h-5.1v-1.24c-.85.92-1.67,1.53-3.83,1.53-2.36,0-4.04-.96-4.04-3.39ZM132.82,24.26v-.52c-.33-.11-.83-.2-1.31-.2-1.13,0-1.76.61-1.76,1.37v.04c0,.72.58,1.19,1.31,1.19,1,0,1.76-.72,1.76-1.89Z"/>
    <path class="cls-2" d="M138.82,17.03h5.1v2.47c.7-1.66,2.39-3.36,4.41-2.65v4.74s-.48-.15-.99-.15c-2.16,0-3.1,1.34-3.1,4.06v3.13h-5.42v-11.6Z"/>
    <path class="cls-2" d="M148.99,22.58v-.05c0-3.89,2.28-5.76,5.18-5.76,1.87,0,2.47.77,3.26,1.64v-6.63h5.53v16.84h-5.1v-1.51c-.83.9-1.78,1.8-3.64,1.8-2.97,0-5.23-2.59-5.23-6.34ZM157.56,22.81v-.05c0-1.37-.58-2.49-1.35-2.49s-1.35,1.09-1.35,2.49v.05c0,1.4.58,2.49,1.35,2.49s1.35-1.09,1.35-2.49Z"/>
  </g>
  <circle class="cls-5" cx="166.79" cy="36.33" r="1.9"/>
  <text class="cls-1" transform="translate(165.63 37.45)"><tspan x="0" y="0">R</tspan></text>
</svg>