<?xml version="1.0" encoding="UTF-8"?>
<svg id="CLIENTES" xmlns="http://www.w3.org/2000/svg" version="1.1" viewBox="0 0 151.8 40.16">
  <defs>
    <style>
      .cls-1 {
        fill: #0e4c90;
      }

      .cls-1, .cls-2, .cls-3, .cls-4, .cls-5, .cls-6 {
        stroke-width: 0px;
      }

      .cls-2 {
        fill: #232829;
      }

      .cls-7 {
        fill: #232728;
        stroke: #232728;
      }

      .cls-7, .cls-8, .cls-9 {
        stroke-linecap: round;
        stroke-width: .32px;
      }

      .cls-7, .cls-9 {
        stroke-linejoin: round;
      }

      .cls-8 {
        fill: #4d3114;
        stroke: #4d3114;
        stroke-miterlimit: 10;
      }

      .cls-8, .cls-10 {
        opacity: .2;
      }

      .cls-3 {
        fill: #fcb525;
      }

      .cls-4 {
        fill: #faa21b;
      }

      .cls-5 {
        fill: #fff;
        opacity: .4;
      }

      .cls-6 {
        fill: #000;
        fill-rule: evenodd;
      }

      .cls-9 {
        fill: none;
        opacity: .5;
        stroke: #fff;
      }
    </style>
  </defs>
  <polygon class="cls-6" points="74.21 26.12 72.33 26.12 71.19 27.87 72.42 27.87 74.21 26.12"/>
  <g>
    <path class="cls-1" d="M131.58,21.24h4.88c-.7,2.56-1.17,3.59-1.82,4.41-.65.83-1.45,1.45-2.42,1.87-.96.42-2.18.63-3.67.63-1.8,0-3.27-.25-4.42-.77-1.14-.51-2.13-1.41-2.96-2.69-.83-1.29-1.25-2.94-1.25-4.94,0-2.68.73-4.74,2.19-6.17,1.46-1.44,3.52-2.16,6.19-2.16,2.09,0,3.73.41,4.93,1.24,1.2.83,2.08,2.09,2.88,4.6h-4.82c-.1-.31-.26-.67-.43-.9-.29-.39-.64-.68-1.05-.89-.41-.21-.87-.31-1.39-.31-1.16,0-2.05.46-2.66,1.37-.47.67-.7,1.74-.7,3.19,0,1.79.28,3.03.84,3.69.55.67,1.34,1,2.35,1,.98,0,1.73-.27,2.23-.81.5-.54.87-1.33,1.1-2.35Z"/>
    <polygon class="cls-1" points="142.03 11.45 137.2 17.13 142.4 28.14 147.89 28.14 142.66 17.18 147.61 11.45 142.03 11.45"/>
    <polygon class="cls-1" points="110.28 22.01 112.09 16.21 115.83 28.14 121.07 28.14 114.84 11.43 109.2 11.43 102.99 28.14 108.36 28.14 109.19 25.49 113.76 25.49 112.67 22.01 110.28 22.01"/>
    <polygon class="cls-1" points="33.54 22.05 35.34 16.24 39.09 28.21 44.33 28.21 38.09 11.44 32.46 11.44 26.25 28.21 31.62 28.21 32.45 25.54 37.02 25.54 35.93 22.05 33.54 22.05"/>
    <path class="cls-1" d="M55.9,11.45c2.26,0,4.08,2.18,4.08,4.86h0c0,1.92-.94,3.58-2.3,4.37l3.41,7.53h-5.38s-4.19-9.56-4.19-9.56h2.2c.81,0,1.47-.78,1.47-1.75h0c0-.97-.66-1.76-1.47-1.76h-3.36s-.01.06-.01.06v13s-5.2,0-5.2,0V11.43s10.74.02,10.74.02Z"/>
    <path class="cls-1" d="M90.89,15.18l3-3.74,7.74.02c2.26,0,4.08,2.17,4.08,4.86h0c0,1.92-.94,3.58-2.3,4.37h0c-.54.31-1.15.49-1.79.49l-3.28.02-1.1-2.54h2.2c.82,0,1.48-.79,1.48-1.75h0c0-.97-.66-1.75-1.48-1.75h-3.36s-.01.06-.01.06v12.98s-5.2,0-5.2,0v-13.01"/>
    <polygon class="cls-1" points="13.93 11.49 29.17 11.49 29.17 15.15 24.25 15.19 24.25 28.22 19.07 28.23 19.11 15.19 14.99 15.19 13.93 11.49"/>
    <g>
      <g class="cls-10">
        <polygon class="cls-7" points="77.99 11.46 75.99 .34 83.85 12.68 77.99 11.46"/>
      </g>
      <polygon class="cls-3" points="77.9 11.28 75.9 .16 83.76 12.5 77.9 11.28"/>
      <polygon class="cls-5" points="77.9 11.28 79.2 9.69 83.76 12.5 77.9 11.28"/>
      <polygon class="cls-4" points="77.9 11.28 75.9 .16 79.2 9.69 77.9 11.28"/>
      <polyline class="cls-9" points="75.9 .16 79.2 9.69 77.9 11.28"/>
      <line class="cls-8" x1="77.98" y1="11.45" x2="76" y2=".35"/>
      <g>
        <g class="cls-10">
          <polygon class="cls-7" points="71.05 9.77 59.34 7.58 73.74 4.97 71.05 9.77"/>
        </g>
        <polygon class="cls-3" points="70.84 9.78 59.14 7.6 73.54 4.98 70.84 9.78"/>
        <polygon class="cls-5" points="70.84 9.78 69.21 8.15 73.54 4.98 70.84 9.78"/>
        <polygon class="cls-4" points="70.84 9.78 59.14 7.6 69.21 8.15 70.84 9.78"/>
        <polyline class="cls-9" points="59.14 7.6 69.21 8.15 70.84 9.78"/>
        <line class="cls-8" x1="71.04" y1="9.78" x2="59.34" y2="7.58"/>
      </g>
      <g>
        <g class="cls-10">
          <polygon class="cls-7" points="67.69 17.42 62.99 28.28 63.1 13.65 67.69 17.42"/>
        </g>
        <polygon class="cls-4" points="67.66 17.62 62.97 28.48 63.08 13.85 67.66 17.62"/>
        <polygon class="cls-5" points="67.66 17.62 65.38 18.69 63.08 13.85 67.66 17.62"/>
        <polygon class="cls-3" points="67.66 17.62 62.97 28.48 65.38 18.69 67.66 17.62"/>
        <polyline class="cls-9" points="62.97 28.48 65.38 18.69 67.66 17.62"/>
        <line class="cls-8" x1="63.1" y1="13.65" x2="63" y2="28.27"/>
      </g>
      <polygon class="cls-5" points="72.3 25.67 77.74 29.91 68.76 25.89 72.3 25.67"/>
      <g class="cls-10">
        <polygon class="cls-7" points="72.75 23.54 81.15 31.87 67.57 26.44 72.75 23.54"/>
      </g>
      <polygon class="cls-4" points="72.92 23.63 81.33 31.96 67.75 26.53 72.92 23.63"/>
      <polygon class="cls-5" points="72.92 23.63 73.09 26.15 67.75 26.53 72.92 23.63"/>
      <polygon class="cls-3" points="72.92 23.63 81.33 31.96 73.09 26.15 72.92 23.63"/>
      <polyline class="cls-9" points="81.33 31.96 73.09 26.15 72.92 23.63"/>
      <line class="cls-8" x1="67.57" y1="26.46" x2="81.15" y2="31.87"/>
      <g class="cls-10">
        <polygon class="cls-7" points="79.42 19.22 90.26 13.09 80.29 25.1 79.42 19.22"/>
      </g>
      <polygon class="cls-3" points="79.58 19.09 90.41 12.96 80.44 24.96 79.58 19.09"/>
      <polygon class="cls-5" points="79.58 19.09 81.99 19.84 80.44 24.96 79.58 19.09"/>
      <polygon class="cls-4" points="79.58 19.09 90.41 12.96 81.99 19.84 79.58 19.09"/>
      <polyline class="cls-9" points="90.41 12.96 81.99 19.84 79.58 19.09"/>
      <line class="cls-8" x1="79.43" y1="19.22" x2="90.26" y2="13.09"/>
    </g>
    <path class="cls-1" d="M10.4,21.85l-5.62-1.18c-2.44-.63-4.2-2.35-4.2-4.6,0-2.35,1.92-4.26,4.49-4.54l7.55-.02.98,3.67h-7.15c-.75,0-1.49.36-1.49,1.11s.49,1.13,1.36,1.35l5.59,1.09s1.8.42,2.84,1.55c0,0,1.25,1.21,1.33,2.84,0,0,.28,1.99-1.24,3.55,0,0-1.27,1.57-3.84,1.52H1.02s-1.02-3.83-1.02-3.83l10.35.03s1.42-.05,1.39-1.17c0,0,.09-1.04-1.33-1.37Z"/>
  </g>
  <path class="cls-1" d="M151.8,26.98c0,.79-.62,1.41-1.42,1.41-.8,0-1.43-.62-1.43-1.41,0-.77.64-1.39,1.43-1.39.81,0,1.42.62,1.42,1.39ZM149.3,26.98c0,.62.46,1.11,1.08,1.11s1.06-.49,1.06-1.1-.45-1.12-1.07-1.12-1.08.5-1.08,1.11ZM150.15,27.71h-.32v-1.39c.13-.02.31-.04.54-.04.26,0,.38.04.48.1.07.06.13.17.13.31,0,.15-.12.27-.29.32v.02c.13.05.21.15.25.34.04.21.07.3.1.35h-.35c-.04-.05-.07-.18-.11-.34-.03-.15-.11-.22-.29-.22h-.15s0,.56,0,.56ZM150.16,26.93h.15c.18,0,.32-.06.32-.2,0-.13-.09-.21-.3-.21-.08,0-.14,0-.18.02v.4Z"/>
  <g>
    <path class="cls-2" d="M115.34,33.65h1.91v6.35h-1.24v-4.3c0-.12,0-.3,0-.52s0-.39,0-.52l-1.2,5.33h-1.29l-1.2-5.33c0,.12,0,.29,0,.52s0,.4,0,.52v4.3h-1.24v-6.35h1.93l1.16,4.99,1.15-4.99Z"/>
    <path class="cls-2" d="M121.44,35.4c.33.15.6.38.81.7.19.28.32.6.37.97.03.22.05.53.04.93h-3.42c.02.47.18.8.49.99.19.12.41.18.68.18.28,0,.51-.07.68-.22.1-.08.18-.19.25-.32h1.25c-.03.28-.18.56-.46.85-.42.46-1.01.69-1.77.69-.62,0-1.18-.19-1.65-.58-.48-.39-.72-1.01-.72-1.88,0-.81.22-1.44.65-1.87s.99-.65,1.68-.65c.41,0,.78.07,1.1.22ZM119.6,36.46c-.17.18-.28.42-.33.73h2.12c-.02-.33-.13-.57-.33-.74-.2-.17-.44-.25-.73-.25-.32,0-.56.09-.73.27ZM121.79,33.38l-1.31,1.29h-.89l.83-1.29h1.37Z"/>
    <path class="cls-2" d="M122.82,40l1.6-2.38-1.53-2.31h1.5l.78,1.36.77-1.36h1.46l-1.54,2.29,1.6,2.4h-1.53l-.81-1.41-.82,1.41h-1.49Z"/>
    <path class="cls-2" d="M129.46,34.74h-1.25v-1.13h1.25v1.13ZM128.21,35.3h1.25v4.7h-1.25v-4.7Z"/>
    <path class="cls-2" d="M133.46,36.99c-.02-.18-.08-.33-.18-.47-.14-.19-.35-.28-.64-.28-.41,0-.7.21-.85.62-.08.22-.12.51-.12.87s.04.62.12.83c.15.39.42.59.83.59.29,0,.49-.08.61-.23.12-.16.19-.36.22-.6h1.25c-.03.37-.16.73-.41,1.06-.39.54-.96.81-1.71.81s-1.31-.22-1.67-.67c-.36-.45-.53-1.03-.53-1.74,0-.81.2-1.43.59-1.88.39-.45.94-.67,1.63-.67.59,0,1.07.13,1.45.4.38.26.6.73.67,1.4h-1.26Z"/>
    <path class="cls-2" d="M139.47,39.42c-.4.49-1,.73-1.81.73s-1.41-.24-1.81-.73c-.4-.49-.59-1.08-.59-1.77s.2-1.26.59-1.76c.4-.5,1-.75,1.81-.75s1.41.25,1.81.75c.4.5.59,1.08.59,1.76s-.2,1.28-.59,1.77ZM138.49,38.75c.19-.26.29-.62.29-1.09s-.1-.83-.29-1.09-.47-.38-.83-.38-.64.13-.83.38-.29.62-.29,1.09.1.83.29,1.09c.19.26.47.38.83.38s.64-.13.83-.38Z"/>
  </g>
</svg>