<?xml version="1.0" encoding="UTF-8"?>
<svg id="CLIENTES" xmlns="http://www.w3.org/2000/svg" version="1.1" viewBox="0 0 108.56 40">
  <defs>
    <style>
      .cls-1 {
        fill: #00afe0;
      }

      .cls-1, .cls-2, .cls-3 {
        stroke-width: 0px;
      }

      .cls-2 {
        fill: #005b7c;
      }

      .cls-3 {
        fill: #0082bf;
      }
    </style>
  </defs>
  <path class="cls-2" d="M29.39,21.17l-.5,9.66c-.02.36-.02.77-.02,1.28,0,.67,0,1.51.02,2.48h-3.97c.45-3.87.78-9.53.89-16.96h3.92c-.16,1.23-.28,2.4-.33,3.54"/>
  <path class="cls-2" d="M32.39,21.55h3.28v1.59c1.14-1.41,2.45-1.95,4.36-1.95,3.54,0,4.9,1.33,4.9,4.38,0,1.46-.18,4.05-.18,7.75v1.28h-3.56c.33-3.92.41-6.46.41-7.53,0-2.21-.55-3.15-2.37-3.15-3.13,0-3.91,2.74-3.91,8.76,0,.61,0,1.26.02,1.92h-3.58c.43-4.12.63-8.48.63-13.04"/>
  <path class="cls-2" d="M56.95,19.11c0-.49,0-1-.02-1.48h3.63c-.38,4.48-.68,10.15-.75,16.96h-3.33v-1.74c-.93,1.36-2.42,2.1-4.14,2.1-3.43,0-5.33-2.13-5.33-5.92,0-4.77,2.62-7.64,7.22-7.64.91,0,1.77.13,2.65.39.05-.87.07-1.77.07-2.67M54.74,24.34c-2.65,0-4.19,1.59-4.19,4.39,0,2.07,1.06,3.28,2.8,3.28,2.09,0,3.28-1.33,3.38-3.92l.1-3.43c-.58-.21-1.29-.31-2.09-.31"/>
  <path class="cls-2" d="M65.99,28.29c-.02.33-.02.54-.02.62,0,1.97,1.24,3.08,3.54,3.08,1.23,0,2.37-.26,3.48-.8l-.68,3.2c-1.44.36-2.7.56-3.76.56-3.91,0-6.24-2.38-6.24-6.46,0-4.48,2.65-7.28,6.57-7.28,3.48,0,5.2,1.87,5.2,5.58,0,.48-.03.97-.08,1.49h-8.01ZM70.69,26.03c0-1.49-.76-2.28-2.07-2.28s-2.25.87-2.5,2.28h4.57Z"/>
  <path class="cls-2" d="M79.48,28.34l-.08,6.25h-3.74c.4-3.05.76-8.71.86-16.96h3.61c-.41,3.76-.61,7.35-.66,10.71"/>
  <path class="cls-2" d="M82.7,22.06c2-.59,3.91-.87,5.74-.87,4.69,0,7.05,2.2,7.05,6.51s-2.68,7.25-6.29,7.25c-1.49,0-2.73-.49-3.66-1.36l-.15,2.8c-.05,1.15-.08,2.36-.1,3.61h-3.58c.53-3.28.84-9.26,1.01-17.94M85.79,27.72c0,2.9.81,4.26,2.93,4.26,2,0,3.21-1.49,3.21-4.18,0-2.51-1.14-3.77-3.46-3.77-.83,0-1.64.15-2.42.46-.2,1.07-.25,2.12-.25,3.23"/>
  <path class="cls-2" d="M104.85,31.87l.23-3.66c-.38.26-.79.46-1.24.61l-1.67.57c-1.19.38-1.79.67-1.79,1.59,0,.82.58,1.33,1.61,1.33.48,0,1.14-.15,1.98-.38l-.76,2.66c-.83.23-1.56.33-2.2.33-2.55,0-4.09-1.46-4.09-3.76,0-2,1.06-3.21,3.25-3.85l2.63-.79c1.49-.44,2.27-.77,2.27-1.54,0-.82-.66-1.33-1.9-1.33s-2.75.46-4.52,1.31l.41-3.13c1.59-.41,3.13-.66,4.82-.66,3.38,0,4.67,1.05,4.67,3.63,0,.29,0,.67-.02,1.16l-.25,6.48c-.02.33-.02,1.05-.02,2.15h-3.69c.18-.82.23-1.74.27-2.72"/>
  <path class="cls-3" d="M12.34,5.96c.82.74,2.49,2.11,4.1,5.82-3.05-3.81-3.42-4.09-2.6-2.75.82,1.4,3.69,5.7,3.16,9.42-.39,2.72-3.51,5.12-3.51,5.12,0,0,.45-.13.69-.24,1.11-.47,5.61-2.38,7.95-7.91.15-.37.29-.74.42-1.11.12-.37.24-.75.34-1.14.33-1.23.29-2.47.15-3.43,0-.03,0-.06-.01-.09,0-.03-.01-.05-.01-.07-.19-1.15-.61-2.05-1.01-2.64-.61-.88-1.16-1.07-1.25-.39-.16.72.14,2.3-.4,5.75-.75-4.17-2.45-5.68-3.43-6.52-1.06-.77-1.39-.86-1.04-.47.65.69,3.84,4.01,3.31,11.09-1.4-6.95-5.66-9.99-7.01-10.74-.71-.42-.71-.37.15.31"/>
  <path class="cls-2" d="M15.86,14.98c-1.04.34-3.05,1.12-7.01.66,4.78-.76,5.2-.94,3.65-.89-1.61.01-6.71.37-9.61-1.97C.76,11.08.29,7.14.29,7.14c0,0-.11.46-.14.73-.15,1.21-.79,6.12,2.74,10.95.23.32.47.63.73.92.25.29.52.59.8.88.88.9,1.96,1.5,2.86,1.85.03,0,.05.02.08.03.02,0,.05.02.07.02,1.08.41,2.05.5,2.75.45,1.06-.09,1.5-.49.96-.91-.53-.5-2.03-1.03-4.7-3.24,3.93,1.44,6.07.71,7.28.27,1.18-.54,1.42-.78.92-.68-.91.23-5.34,1.35-11.11-2.67,6.62,2.27,11.35.07,12.67-.75.71-.41.67-.43-.34-.02"/>
  <path class="cls-1" d="M6.28,13.38c.24-1.08.59-3.23,2.99-6.47-1.77,4.57-1.84,5.02-1.09,3.65.8-1.42,3.09-6.06,6.55-7.41,2.52-.99,6.11.59,6.11.59,0,0-.33-.33-.55-.5-.95-.75-4.8-3.8-10.69-3.16-.39.04-.77.1-1.15.17-.38.07-.76.15-1.15.26-1.21.31-2.27.95-3.02,1.56-.02.01-.05.04-.07.05-.02.02-.04.03-.05.05-.9.74-1.47,1.55-1.78,2.18-.46.97-.35,1.56.28,1.3.69-.21,1.91-1.25,5.14-2.47-3.22,2.7-3.68,4.95-3.92,6.23-.14,1.31-.06,1.65.11,1.15.27-.91,1.57-5.36,7.9-8.36-5.28,4.64-5.81,9.89-5.79,11.46-.01.83.02.8.19-.29"/>
</svg>