<?xml version="1.0" encoding="UTF-8"?>
<svg xmlns="http://www.w3.org/2000/svg" version="1.1" viewBox="0 0 155.87 40">
  <defs>
    <style>
      .cls-1 {
        fill: #d7282e;
      }

      .cls-1, .cls-2, .cls-3 {
        stroke-width: 0px;
      }

      .cls-2 {
        fill: #231f20;
        mix-blend-mode: multiply;
      }

      .cls-4 {
        isolation: isolate;
      }

      .cls-3 {
        fill: #fff;
      }
    </style>
  </defs>
  <g class="cls-4">
    <g id="CLIENTES">
      <g>
        <rect class="cls-3" width="40" height="40"/>
        <rect class="cls-1" x="2.35" y="2.35" width="35.3" height="35.3"/>
        <path class="cls-1" d="M27.5,10.86c1.53,0,2.77,1.37,2.77,3.07s-1.24,3.06-2.77,3.06h-3.5c-1.53,0-2.77-1.37-2.77-3.06,0-.85.31-1.61.81-2.17.5-.55,1.2-.9,1.96-.9h3.5"/>
        <path class="cls-1" d="M16.05,12.22c.02,1.19-.83,2.17-1.91,2.2l-2.46.05c-1.07.03-1.96-.92-1.99-2.11v-.05c0-1.17.85-2.13,1.91-2.15l2.46-.06c1.08-.03,1.97.92,1.99,2.11"/>
        <path class="cls-3" d="M12.01,32.55c-.41,0-.86-.02-1.38-.08-1.21-.12-2.16-.69-2.77-1.64-1.13-1.76-.82-4.5-.34-5.89.81-2.36,4.03-2.92,4.99-3.04,1.48-.18,14.41.14,15.88.17l-.03,1.49c-3.96-.1-14.5-.32-15.67-.18-1.54.18-3.34.82-3.76,2.05-.4,1.17-.61,3.37.18,4.61.37.57.91.89,1.67.97,2.9.29,3.28-.35,3.72-1.09l.05-.09c.42-.69.46-1.8.24-2.36-.09-.22-.55-.79-1.22-1.06-.43-.17-.84-.18-1.2,0-.41.19-.56.63-.62.96-.09.56.06,1.07.17,1.22l.14.05.26-.06.35-.6h1.49c0,.65-.4,1.39-.96,1.8-.49.35-1.06.45-1.61.26l-.09-.03h-.03c-.67-.19-1.13-.95-1.22-1.99-.11-1.34.48-2.5,1.5-2.97.74-.34,1.57-.35,2.39-.02,1.02.42,1.8,1.27,2.05,1.9.35.92.32,2.55-.35,3.66l-.05.09c-.61,1.03-1.35,1.88-3.77,1.88"/>
        <path class="cls-3" d="M27.5,17.73h-3.5c-1.94,0-3.52-1.71-3.52-3.81,0-1,.36-1.95,1-2.67.67-.74,1.56-1.14,2.51-1.14h3.5c1.94,0,3.52,1.71,3.52,3.81s-1.58,3.81-3.52,3.81M24,11.6c-.53,0-1.03.23-1.41.65-.4.44-.62,1.04-.62,1.67,0,1.28.91,2.32,2.03,2.32h3.5c1.12,0,2.03-1.04,2.03-2.32s-.91-2.32-2.03-2.32h-3.5Z"/>
        <path class="cls-3" d="M11.65,15.22c-1.46,0-2.66-1.27-2.69-2.84v-.06c0-1.59,1.16-2.86,2.63-2.9l2.52-.06c1.45,0,2.66,1.27,2.69,2.84.03,1.6-1.15,2.92-2.64,2.96l-2.52.06M14.11,10.86h-.03l-2.46.05c-.65.02-1.18.65-1.18,1.41v.05c.01.74.55,1.36,1.2,1.36h.02l2.46-.05c.66-.02,1.19-.66,1.18-1.44-.01-.76-.56-1.38-1.2-1.38Z"/>
        <path class="cls-3" d="M23.52,32.63c-.55,0-1.11-.34-1.43-.87-.35-.59-.33-1.29.05-1.83l.05-.07c.3-.33.95-.56,1.39-.49l.17.04.18-.21.15.4.17.13c.56.41.83,1.12.64,1.75-.28.93-.94,1.11-1.21,1.15h-.16"/>
        <path class="cls-3" d="M28.2,32.96c-.27,0-.53-.08-.75-.23-.41-.27-.68-.79-.72-1.37-.25-.48-.23-1,.05-1.39.29-.41.77-.6,1.28-.53.25-.03.52.02.8.13l-.06.16c.55.35.97.96,1.02,1.55.06.64-.28,1.21-.92,1.52h-.03c-.22.11-.44.16-.66.16"/>
        <path class="cls-3" d="M24.14,8.18c-.52,0-.59-.07-.74-.21l-.25-.56h1.49c0-.44-.36-.7-.62-.73.42.03,3.73-.24,4.88-.36l.16,1.48c-.51.05-1.77.17-2.91.26-1.03.08-1.64.12-2.01.12"/>
        <path class="cls-3" d="M18.78,37.38c-.4-.79-.76-3.23-.87-5.14-.27-4.46.67-5.17.97-5.4.9-.68,2.55-.51,4.02-.36.45.05.87.09,1.15.09.52-.04,1.09-.05,1.69-.06,1.34-.03,2.87-.07,3.92-.37.75-.21,1.18-.95,1.37-1.38.52-1.17.53-2.69.02-3.71-.62-1.24-3.52-1.21-5.44-1.2-.58,0-1.12.01-1.57-.01-1.87-.04-3.78.02-5.63.08-2.83.1-5.75.2-8.65-.09l-.55-.05-.11-.55c-.58-3.02-1.31-6.78-.32-9.96l.19-.62.63.1c3.05.47,6.49.27,8.97-.49-.02-.44-.05-.93-.08-1.43-.11-1.66-.23-3.38.12-4.61l1.43.41c-.28.98-.17,2.64-.07,4.1.05.74.1,1.45.1,2.06v.52l-.49.18c-2.54.92-6.22,1.23-9.54.82-.58,2.53-.08,5.44.42,8.09,2.62.21,5.3.12,7.9.03,1.88-.06,3.82-.13,5.74-.08h.02c.4.02.93.02,1.48.01,2.43-.02,5.75-.05,6.78,2.02.7,1.41.7,3.41,0,4.98-.51,1.15-1.34,1.93-2.33,2.21-1.23.35-2.85.39-4.29.43-.59.01-1.16.03-1.65.06h-.05c-.36,0-.81-.05-1.33-.1-.89-.09-2.54-.26-2.97.06-.17.14-.57,1.17-.38,4.17.13,2.15.52,4.11.72,4.51l-1.33.67"/>
        <path class="cls-2" d="M48.17,37.51c-.32,0-.59-.14-.82-.4-.23-.27-.35-.58-.35-.94V3.67c0-.36.12-.67.35-.94.24-.27.51-.4.82-.4h8.48c.31,0,.58.13.82.4.24.27.35.58.35.94v11.18l9.22-12.08.43-.29.47-.16h9.07c.26,0,.5.07.7.22.21.15.36.34.45.58.09.24.12.49.1.76-.02.27-.13.51-.31.72l-10.99,13.87,15,16.7c.21.24.34.49.39.76.05.27.03.53-.06.76-.09.24-.24.43-.43.58-.2.15-.44.22-.73.22h-10.62l-.45-.14-.41-.22-11.84-13.24v12.26c0,.36-.12.67-.35.94-.23.27-.51.4-.82.4h-8.48"/>
        <path class="cls-2" d="M104.24,3.62c0-.36.12-.67.35-.94.23-.27.52-.4.86-.4h8.05c.31,0,.58.13.82.4.23.27.35.58.35.94v22.81c0,4.34-1.45,7.41-4.34,9.2-2.66,1.62-6.52,2.42-11.57,2.42s-9.08-.81-11.61-2.42c-2.79-1.8-4.18-5.01-4.18-9.65V3.62c0-.36.12-.67.35-.94.23-.27.52-.4.86-.4h8.01c.34,0,.63.13.86.4.23.27.35.58.35.94v18.5c0,2.06.42,3.53,1.27,4.4.85.87,2.26,1.3,4.24,1.3,1.88,0,3.23-.46,4.07-1.37.83-.91,1.25-2.4,1.25-4.47V3.62"/>
        <path class="cls-2" d="M145.47,37.51c-.18,0-.38-.07-.61-.22-.22-.15-.37-.33-.45-.54l-1.98-3.86h-14.66l-2,3.86-.47.54-.63.22h-8.09c-.52,0-.9-.21-1.14-.63-.23-.42-.22-.88.04-1.39L131.55,3.04c.08-.18.24-.34.47-.49.23-.15.43-.22.59-.22h6.92l.58.22.47.54,15.13,32.46c.21.51.21.96,0,1.37-.21.41-.58.61-1.09.61h-9.15M131.6,25h7.27l-3.53-8.36-3.74,8.36Z"/>
      </g>
    </g>
  </g>
</svg>