<?xml version="1.0" encoding="UTF-8"?>
<svg id="CLIENTES" xmlns="http://www.w3.org/2000/svg" version="1.1" viewBox="0 0 176.32 40">
  <defs>
    <style>
      .cls-1 {
        fill: #da4699;
        stroke-width: 0px;
      }
    </style>
  </defs>
  <g>
    <path class="cls-1" d="M20.94,21.52h-8.49c-.94,0-1.25-.58-1.25-1.37,0-.64,0-20.14,0-20.14h-2.98v22.89c0,.96.83,1.6,1.44,1.6h11.28v-2.97Z"/>
    <path class="cls-1" d="M20.94,25.62v2.98H5.86c-1.03,0-1.75-.77-1.75-1.77.01-1.17,0-26.83,0-26.83h2.97v23.77c0,1.04.45,1.85,1.73,1.85h12.12Z"/>
    <path class="cls-1" d="M0,0h2.99v27.67c0,1,.5,2.06,1.96,2.06h15.99v2.97H3.55c-1.98,0-3.55-1.64-3.55-3.6V0Z"/>
    <path class="cls-1" d="M12.31,0h2.99v16.25c0,.59.27,1.16,1.12,1.16h4.52v2.98h-7.11c-1.09,0-1.52-.69-1.52-1.49V0Z"/>
    <path class="cls-1" d="M16.43,11.19h8.49c.94,0,1.25.58,1.25,1.37,0,.64,0,20.14,0,20.14h2.98V9.81c0-.96-.83-1.59-1.44-1.59h-11.28v2.97Z"/>
    <path class="cls-1" d="M16.43,7.08v-2.98h15.07c1.03,0,1.75.77,1.75,1.77-.01,1.17,0,26.83,0,26.83h-2.97V8.93c0-1.04-.45-1.85-1.73-1.85h-12.12Z"/>
    <path class="cls-1" d="M37.37,32.7h-2.99V5.03c0-1-.5-2.06-1.96-2.06h-15.99V0h17.39c1.98,0,3.55,1.64,3.55,3.6v29.1Z"/>
    <path class="cls-1" d="M25.05,32.7h-2.99v-16.25c0-.59-.27-1.16-1.12-1.16h-4.52v-2.98h7.11c1.09,0,1.52.7,1.52,1.49v18.9Z"/>
  </g>
  <path class="cls-1" d="M105.92,18.56c0-1.02.77-1.84,1.79-1.84h2.67v-3.01h-3.17c-2.41,0-4.31,1.95-4.31,4.35v14.63h3.02v-14.14Z"/>
  <rect class="cls-1" x="59.01" y="13.66" width="3.02" height="19.04"/>
  <path class="cls-1" d="M109.96,40h3.04v-9.99c1.81,1.77,4.29,2.86,7.02,2.86,3.62,0,6.79-1.91,8.57-4.78,1.77,2.87,4.94,4.78,8.57,4.78s6.8-1.91,8.57-4.78c1.77,2.87,4.95,4.78,8.57,4.78,5.56,0,10.06-4.51,10.06-10.06s-4.5-10.07-10.06-10.07c-3.62,0-6.79,1.91-8.57,4.78-1.77-2.87-4.95-4.78-8.57-4.78s-6.79,1.91-8.57,4.78c-1.77-2.87-4.95-4.78-8.57-4.78-5.56,0-10.07,4.51-10.07,10.07v17.19ZM154.29,15.75c3.89,0,7.05,3.17,7.05,7.06s-3.16,7.06-7.05,7.06-7.06-3.17-7.06-7.06,3.17-7.06,7.06-7.06M137.16,15.75c3.89,0,7.06,3.17,7.06,7.06s-3.16,7.06-7.06,7.06-7.06-3.17-7.06-7.06,3.17-7.06,7.06-7.06M120.02,15.75c3.89,0,7.05,3.17,7.05,7.06s-3.16,7.06-7.05,7.06-7.05-3.17-7.05-7.06,3.16-7.06,7.05-7.06"/>
  <path class="cls-1" d="M91.35,32.77c4.63,0,8.59-3.12,9.67-7.6h-2.92c-1.01,2.87-3.71,4.8-6.76,4.8-3.7,0-6.78-2.79-7.14-6.58h17.1v-.59c0-5.49-4.47-9.96-9.96-9.96s-9.96,4.47-9.96,9.96,4.47,9.96,9.96,9.96M91.35,15.65c3.04,0,5.8,1.93,6.8,4.95h-13.62c1-3.01,3.77-4.95,6.81-4.95"/>
  <polygon class="cls-1" points="74.74 32.7 82.3 13.66 78.86 13.66 72.78 28.98 66.7 13.66 63.26 13.66 70.81 32.7 74.74 32.7"/>
  <rect class="cls-1" x="165.85" y="7.14" width="3.02" height="25.56"/>
  <path class="cls-1" d="M48.64,7.14v20.77c0,1.03.6,1.84,1.79,1.84h7.41v2.95h-10.22c-1.29,0-2.04-.79-2.04-1.93V7.14h3.05Z"/>
  <path class="cls-1" d="M174.33,11.1c-1.1,0-1.98-.89-1.98-1.99s.88-1.98,1.98-1.98,1.99.88,1.99,1.98-.89,1.99-1.99,1.99M174.33,7.45c-.91,0-1.65.74-1.65,1.66s.74,1.66,1.65,1.66,1.66-.74,1.66-1.66-.74-1.66-1.66-1.66M173.46,8.07h.94c.53,0,.71.33.71.56,0,.35-.25.6-.61.62h0c.19.08.32.26.49.54l.26.42h-.42l-.19-.33c-.27-.48-.37-.57-.64-.57h-.21v.91h-.35v-2.13ZM174.3,9c.26,0,.44-.1.44-.32,0-.2-.16-.32-.38-.32h-.56v.64h.5Z"/>
  <rect class="cls-1" x="59.01" y="7.14" width="3.02" height="3.05"/>
</svg>