<?xml version="1.0" encoding="UTF-8"?>
<svg id="CLIENTES" xmlns="http://www.w3.org/2000/svg" version="1.1" viewBox="0 0 133.8 40">
  <defs>
    <style>
      .cls-1 {
        fill: #cc2131;
      }

      .cls-1, .cls-2, .cls-3, .cls-4 {
        fill-rule: evenodd;
        stroke-width: 0px;
      }

      .cls-2 {
        fill: #bfaf71;
      }

      .cls-3 {
        fill: #fff;
      }

      .cls-4 {
        fill: #000;
      }
    </style>
  </defs>
  <path class="cls-2" d="M0,19.87c0,2.46.97,4.75,2.81,6.51,1.76,1.76,4.13,2.73,6.68,2.73.53,0,1.06-.09,1.58-.18,1.58,1.67,4.13,4.57,6.24,9.32.44,1.06,1.32,1.76,2.55,1.76h94.15c1.23,0,2.11-.7,2.55-1.76,2.11-4.75,4.66-7.65,6.15-9.23.53.09,1.14.09,1.67.09,2.55,0,4.92-.97,6.68-2.73,1.76-1.76,2.73-4.04,2.73-6.51s-.97-4.84-2.73-6.59c-1.76-1.76-4.13-2.73-6.68-2.73-.7,0-1.41.09-2.11.18-1.67-1.67-4.13-4.57-5.71-8.97-.44-1.14-1.32-1.76-2.46-1.76H19.78c-1.14,0-2.11.62-2.46,1.76-1.67,4.4-4.13,7.3-5.71,9.06-.69-.17-1.4-.26-2.11-.26-2.55,0-4.92.97-6.68,2.73-1.85,1.76-2.81,4.13-2.81,6.59h0Z"/>
  <path class="cls-2" d="M128.35,26.11c-2.02,1.32-4.48,1.49-6.59.79-1.32,1.32-4.4,4.48-6.86,9.85-.18.44-.7,1.14-1.67,1.23H20.57c-.79,0-1.41-.44-1.76-1.23-2.37-5.27-5.45-8.44-6.86-9.85-3.96,1.32-8.18-.79-9.49-4.66-1.32-3.87.79-8.18,4.66-9.49,1.76-.53,3.6-.44,5.19.18,1.58-1.58,4.57-4.66,6.59-9.76.35-.79.88-1.23,1.67-1.23h92.57c1.05.09,1.58.79,1.67,1.23,2.02,5.1,5.01,8.26,6.59,9.76,3.25-1.32,7.12-.18,9.05,2.81,2.29,3.43,1.32,8.09-2.11,10.37Z"/>
  <path class="cls-1" d="M130.46,15.74c-1.93-2.99-5.8-4.13-9.05-2.81-1.58-1.49-4.57-4.66-6.59-9.76-.09-.44-.62-1.14-1.67-1.23H20.57c-.79,0-1.32.44-1.67,1.23-2.02,5.1-5.01,8.18-6.59,9.76-1.58-.62-3.43-.7-5.19-.18-3.87,1.32-5.98,5.63-4.66,9.49,1.32,3.87,5.54,5.98,9.49,4.66,1.41,1.41,4.48,4.57,6.86,9.85.35.79.97,1.23,1.76,1.23h92.66c.97-.09,1.49-.79,1.67-1.23,2.46-5.36,5.54-8.53,6.86-9.85,2.11.7,4.57.53,6.59-.79,3.43-2.29,4.4-6.95,2.11-10.37h0ZM113.67,36.22v.09c0,.09-.18.35-.53.35H20.57c-.09,0-.35,0-.53-.44-2.37-5.1-5.27-8.35-6.77-9.85,2.99-1.76,4.48-5.45,3.34-8.88-.53-1.76-1.67-3.08-3.08-3.96,1.67-1.67,4.57-4.92,6.59-9.85.09-.35.26-.44.44-.44h92.48c.44.09.53.35.53.35v.09h.09c1.93,4.92,4.84,8.18,6.51,9.85v.09c-3.43,2.29-4.4,6.86-2.11,10.28.59,1,1.44,1.82,2.46,2.37-1.49,1.58-4.4,4.75-6.86,9.94h0Z"/>
  <path class="cls-4" d="M118.06,23.91c-2.29-3.43-1.32-8,2.11-10.28v-.09c-1.67-1.67-4.57-4.92-6.51-9.85h-.09v-.09s-.09-.26-.53-.35H20.57c-.18,0-.35.09-.44.44-2.02,4.92-4.92,8.18-6.59,9.85,1.41.88,2.55,2.2,3.08,3.96,1.14,3.43-.35,7.12-3.34,8.88,1.49,1.49,4.4,4.75,6.77,9.85.18.44.44.44.53.44h92.57c.35,0,.53-.26.53-.35v-.09c2.46-5.19,5.36-8.35,6.86-9.93-1.02-.55-1.87-1.37-2.46-2.38Z"/>
  <path class="cls-2" d="M8.97,18.81s-2.11-1.58-2.46-2.02c-.44-.44-.35-1.32.35-1.67.62-.35,1.41,0,1.58.53s.53,3.16.53,3.16h0ZM8.35,19.87s-2.46.97-2.99,1.14c-.53.09-1.32-.35-1.32-1.14s.7-1.32,1.32-1.14c.53.09,2.99,1.14,2.99,1.14ZM8.97,20.83s-.35,2.64-.53,3.17c-.18.53-.97.97-1.67.53-.62-.35-.7-1.23-.35-1.67.44-.44,2.55-2.02,2.55-2.02h0ZM10.11,20.83s2.11,1.67,2.46,2.02c.44.44.35,1.32-.35,1.67-.46.33-1.1.23-1.43-.23-.06-.09-.11-.19-.15-.29-.18-.53-.53-3.17-.53-3.17h0ZM10.72,19.87s2.37-1.06,2.99-1.14c.53-.18,1.32.35,1.32,1.14s-.79,1.23-1.32,1.14c-.53-.09-2.99-1.14-2.99-1.14ZM10.11,18.81s.35-2.55.53-3.16c.18-.53.97-.97,1.67-.53.62.35.7,1.23.26,1.67-.35.44-2.46,2.02-2.46,2.02h0ZM123.69,18.81s-2.11-1.58-2.46-2.02c-.44-.44-.35-1.32.35-1.67.62-.35,1.41,0,1.58.53.18.53.53,3.16.53,3.16ZM123.16,19.87s-2.46.97-3.08,1.14c-.53.09-1.23-.35-1.23-1.14s.7-1.32,1.23-1.14c.62.09,3.08,1.14,3.08,1.14ZM123.69,20.83s-.35,2.64-.53,3.17c-.18.53-.97.97-1.58.53-.7-.35-.79-1.23-.35-1.67.35-.44,2.46-2.02,2.46-2.02ZM124.83,20.83s2.11,1.67,2.46,2.02c.44.44.44,1.32-.26,1.67-.7.44-1.49.09-1.67-.53-.18-.53-.53-3.17-.53-3.17ZM125.45,19.87s2.46-1.06,2.99-1.14c.53-.18,1.32.35,1.32,1.14s-.7,1.23-1.32,1.14c-.53-.09-2.99-1.14-2.99-1.14ZM124.83,18.81s.35-2.55.53-3.16c.18-.53.97-.97,1.67-.53.62.35.7,1.23.35,1.67-.35.44-2.55,2.02-2.55,2.02Z"/>
  <path class="cls-3" d="M112.88,14.24c.35,0,.7-.18.97-.44.26-.26.35-.62.35-.97s-.09-.7-.35-.97c-.26-.26-.62-.35-.97-.35-.7,0-1.32.62-1.32,1.32,0,.35.09.7.35.97s.62.44.97.44ZM111.73,12.83c0-.26.09-.62.35-.79.18-.26.53-.35.79-.35.35,0,.62.09.79.35.26.18.35.53.35.79,0,.7-.53,1.23-1.14,1.23-.26,0-.62-.18-.79-.35-.26-.26-.35-.53-.35-.88Z"/>
  <path class="cls-3" d="M112.61,12.92v.62h-.18v-1.41h.53c.18,0,.44.09.44.35,0,.18-.09.26-.26.35.18,0,.18.09.26.26,0,.18,0,.35.09.44h-.26v-.26c-.09-.09-.09-.26-.09-.26-.09-.09-.18-.09-.26-.09h-.26ZM112.61,12.75h.35c.18,0,.26-.09.26-.26,0-.09-.09-.18-.26-.18h-.35v.44ZM71.12,15.3c0-.09.88.88.88.88v7.74c0,.53,1.67,1.93,2.2,2.02.35-.35,1.49-1.23,2.64-2.02.79,1.14,1.93,1.67,2.81,2.02l.26-.35s-.88-1.67-.88-2.2v-8.35c0-.09-.88-1.06-1.32-1.23l-1.76,1.41s.88.7.88.88v7.3s-.79.53-1.23.7c-.26.09-1.32-.88-1.32-1.23v-7.65c0-.18-1.06-1.14-1.49-1.32l-1.67,1.41ZM44.39,15.03c.53.18,1.49,1.23,2.2,1.23.18,0,.44-.09.79-.26.48-.39.92-.84,1.32-1.32l-.26-.26s-.62.53-.88.35c-.53-.35-1.23-.97-1.58-1.41-.7.26-1.85.97-2.64,1.67-.35.26-.97.7-1.32,1.14-.62,4.75,4.66,4.04,4.75,7.38,0,.26,0,.7-.18.88-.35.09-.62,0-.97-.18-.44-.26-1.06-.62-1.76-.79-.44-.09-1.06.09-1.49.35-.62.53-1.32,1.49-1.32,1.49l.35.18c.35-.44.79-.79,1.06-.79.7.18,1.58.88,2.2,1.41.26,0,1.85-.88,2.99-2.02.35-.44.88-1.14.88-1.41.26-4.57-4.66-3.52-4.66-7.21,0-.26.17-.53.53-.44h0ZM39.12,14.33c-.44-.26-.44-.7-.35-1.23-1.32.79-3.78,2.73-4.22,3.08-.35.26-.79.62-.79.88-.09,1.58-.09,5.27,0,7.03.09.53,2.29,2.02,2.9,2.02.09.09,2.02-1.14,2.02-1.14.79-.44,1.76-1.14,1.85-1.41.26-1.76.18-7.12.09-8.09-.09-.18-.97-.88-1.5-1.14h0ZM38.33,24.26c0,.18,0,.26-.09.35-.44-.09-.97-.44-1.58-.88-.35-.26-.7-.53-.7-.7,0-1.14,0-5.27.09-6.94,0-.26.09-.53.18-.7.53.18,1.49.53,1.93.97.09.09.18.26.18.26.18,1.85.18,5.89,0,7.65h0ZM109.98,14.24c-.44-.18-.44-.7-.35-1.23-1.32.79-3.6,2.55-4.13,3.08-.35.26-.88.62-.88.97-.09,1.58-.09,5.19,0,6.95.09.53,2.29,2.02,2.9,2.11.09,0,2.02-1.14,2.02-1.14.79-.53,1.76-1.23,1.85-1.49.26-1.76.18-7.12.09-8-.09-.26-.97-.88-1.49-1.23h0ZM109.18,24.26v.26c-.53-.09-1.05-.44-1.67-.79-.35-.26-.7-.62-.7-.7,0-1.23,0-5.27.09-6.94,0-.26.09-.53.09-.79.62.18,1.58.53,2.02.97.18.18.18.35.18.35.18,1.76.26,5.8,0,7.65h0ZM30.07,10.9c-.88,1.06-.7,3.78-.7,5.89-.09,1.93,0,5.19,0,6.94-.09,3.87-1.41,5.54-2.29,5.54-1.93,0-2.9-1.76-3.43-3.08-.62-1.49-1.14-2.73-2.02-3.08-.35-.09-.88-.09-1.23.26-.35.26-.88.97-.88.97,1.06.09,1.67,1.58,2.2,2.81.7,1.93,2.2,3.52,3.69,3.52,2.11-.09,4.92-2.81,5.98-4.84.88-1.76.62-7.91.62-11.08-.09-3.6.18-5.01,1.23-5.98l-.09-.09c-1.14.35-2.46,1.41-3.08,2.2h0Z"/>
  <path class="cls-3" d="M26.55,27.69c.97-.97,1.41-2.29,1.41-3.69v-9.76c0-1.49.35-2.29,1.06-3.25v-.09c-1.23.97-2.2,2.11-2.2,4.22v9.76c.08.95-.04,1.91-.35,2.81h.09ZM31.12,8.61c-.44.18-.97.26-1.76.26-.97-.09-3.08-.97-4.48-.7-1.85.53-3.16,2.02-3.16,2.81s.88,1.05.88,1.05l.26-.26s-.62-1.32,0-1.93c.79-.7,2.64,0,3.52.26.53.18,1.49.26,2.11.09,1.23-.35,2.73-1.5,2.73-1.5l-.09-.09h0ZM64.26,26.37c1.14-1.14,1.85-2.29,1.85-4.31v-7.47c0-2.9.53-3.69,1.23-4.48v18.29c-3.52-1.32-4.66-5.1-4.66-9.41,0-4.57.88-8,4.66-10.46l-.09-.18c-2.11.88-4.66,2.99-5.71,4.4-1.06,1.49-1.67,4.22-1.67,7.47,0,5.19,2.55,10.37,8.53,10.37,4.13,0,6.33-3.34,6.33-3.34l-.18-.18c-.97.97-2.29,1.76-4.66,1.76-.79,0-1.58-.09-2.11-.26V9.93c.35-.09.7,0,1.05.09,1.06.26,1.32.53,2.46.53.7,0,1.58-.44,2.02-.79.53-.44,1.14-.97,1.14-.97l-.09-.18s-.62.35-1.32.35c-1.14,0-2.99-1.32-4.13-.44l-1.58,1.32c-1.85,1.41-2.46,3.08-2.46,5.1.09,2.37,0,7.03,0,7.91.09,1.14.09,2.46-.7,3.25l.09.26h0ZM56.35,16.44c.09,0-1.76-2.2-2.46-2.9,0,0-1.05.53-1.93,1.23-1.32,1.06-2.2,1.67-2.2,1.85v7.3c.09.53,2.29,2.02,3.6,2.29.09,0,1.58-1.06,1.49-.97.09-.09.26-.26.35-.26.31-.31.63-.6.97-.88l-.26-.35c-.62.53-1.23.88-1.58.79-.97-.44-2.37-1.32-2.37-1.49v-2.29c.88-.79,4.04-3.52,4.4-4.31h0ZM52.39,15.38c.18,0,1.93,2.11,1.93,2.2,0,.26-1.49,1.67-2.37,2.55v-3.78c0-.97.09-.97.44-.97ZM87.65,16.35c0-.09-1.76-2.29-2.55-2.99,0,0-1.06.62-1.85,1.23-1.41,1.14-2.29,1.67-2.29,1.85v7.38c.09.53,2.37,1.93,3.6,2.2.09,0,1.67-1.05,1.49-.97.18-.09.26-.18.35-.26l1.05-.88-.26-.35c-.62.53-1.23.97-1.67.79-.88-.44-2.29-1.23-2.29-1.49v-2.29c.88-.79,4.04-3.52,4.4-4.22h0ZM83.6,15.21c.26,0,2.02,2.2,2.02,2.29,0,.26-1.58,1.58-2.37,2.46v-3.78c0-.97.09-.97.35-.97ZM93.27,13.45c-.79.97-1.49,1.67-1.93,2.29-.09-.35-.97-1.49-1.58-2.02l-1.67,1.49s.97.97.97,1.23v7.91c0,.35,1.23,1.49,1.76,1.67l1.67-1.23s-1.14-.97-1.14-1.14v-7.21s.44-.53.79-.79c.35.09,1.5,1.76,1.5,1.76,0,0,1.49-1.67,1.23-2.11-.26-.44-1.06-1.23-1.58-1.85h0ZM103.03,15.74c-.18-1.85-1.23-2.2-1.23-3.43,0-.35.09-.7.35-1.32l-.09-.18c-1.14.7-1.93,1.58-1.93,2.46-.09,1.06.53,1.49.61,2.29.18,1.85.26,5.45-.09,7.91,0,.44-.09.79-.18,1.05-.51-.38-1.03-.73-1.58-1.05-.09-.09-.26-.18-.53-.26v-8.18c-.09-.18-1.23-1.32-1.32-1.32l-1.67,1.32.79.88c0,1.58.09,6.24-.09,7.3,0,.44-.26.79-.53,1.14v.09c.53,0,1.14.26,1.93.7,1.41.88,1.49,1.06,1.58,1.06l1.49-1.14c.79-.53,2.2-1.76,2.29-1.85.26-1.93.26-5.8.17-7.47h0Z"/>
</svg>