<?xml version="1.0" encoding="UTF-8"?>
<svg id="Layer_1" data-name="Layer 1" xmlns="http://www.w3.org/2000/svg" version="1.1" viewBox="0 0 128.24 40">
  <defs>
    <style>
      .cls-1 {
        fill: #000;
        stroke-width: 0px;
      }
    </style>
  </defs>
  <path class="cls-1" d="M29.47,20.63l-2.78-2.78v7.88h2.78v-5.09ZM18.33,12.24h6.78l-2.77-2.77h-.01s-3.56-.01-3.56-.01c2.52-.21,4.4-2.43,4.18-4.95-.2-2.39-2.22-4.22-4.62-4.2v9.17h0L10.71,1.88c-.84.44-1.64.96-2.37,1.57l7.21,7.18v15.77l5.57,5.57v-3.94l-2.78-2.78v-13Z"/>
  <path class="cls-1" d="M21.12,12.26v13.45s2.77,0,2.77,0v-10.65s-2.77-2.8-2.77-2.8ZM30.67,17.85l-2.78-2.78h-3.99l2.78,2.78h3.99ZM12.77,23.78v-11.98l-6.4-6.4c-.6.73-1.13,1.53-1.57,2.37l5.18,5.18v3.94l-6.29-6.29c-.3,1.1-.46,2.27-.47,3.47l9.55,9.71ZM3.27,18.06v3.94l17.85,17.84v-3.94L3.27,18.06ZM35.04,22.21h-2.79v3.52h-2.78c-.07,2.53,1.93,4.64,4.46,4.71,2.53.07,4.64-1.93,4.71-4.46,0-.08,0-.16,0-.25l-3.6-3.52ZM57.72,25.79l-2.09,3.97h-13.01l8.46-16.25h-7.49l2.09-3.98h13.01l-8.46,16.26h7.49ZM65.27,17.63h6.67v3.98h-6.67v4.18h6.67v3.97h-11.58V9.53h11.58v3.98h-6.67v4.12ZM81.27,9.53c2.58,0,4.06.27,5.16.97,1.39.85,2.24,2.58,2.24,4.52,0,1.42-.45,2.61-1.36,3.52-.58.6-1.03.88-2.12,1.18,1.24.27,1.79.54,2.43,1.15.91.85,1.36,2.03,1.36,3.52,0,1.88-.76,3.54-2.06,4.43-1,.67-2.22.94-4.27.94h-8.28V9.53h6.91ZM79.27,17.91h1.21c2.25,0,3.19-.7,3.19-2.37s-.94-2.33-3.25-2.33h-1.15v4.7ZM79.27,26.24h1.79c2.06,0,2.94-.7,2.94-2.33,0-.97-.36-1.67-1.09-2.06-.55-.3-1.03-.36-2.52-.36h-1.12v4.76ZM95.79,29.76h-4.92V9.53h6.55c2.67,0,4.61.49,5.94,1.52,1.4,1.09,2.18,2.91,2.18,5.13,0,3.09-1.3,5.12-3.91,6.16l4.46,7.43h-5.88l-4.43-7.83v7.83ZM97.37,19.17c2,0,3.21-1.03,3.21-2.79,0-1.66-1.18-2.82-2.91-2.82h-1.88v5.61h1.58ZM120.33,29.76h5.33l-6.64-20.22h-6.25l-6.67,20.22h5.18l1.25-3.98h6.55l1.24,3.98ZM113.78,21.8l2.03-6.48,2.03,6.48h-4.06Z"/>
</svg>